<?xml version="1.0" encoding="utf-8"?>
<!-- Generator: Adobe Illustrator 19.0.0, SVG Export Plug-In . SVG Version: 6.00 Build 0)  -->
<svg version="1.0" id="Layer_1" xmlns="http://www.w3.org/2000/svg" xmlns:xlink="http://www.w3.org/1999/xlink" x="0px" y="0px"
	 viewBox="0 0 185 170" style="enable-background:new 0 0 185 170;" xml:space="preserve">
<style type="text/css">
	.st0{fill-rule:evenodd;clip-rule:evenodd;fill:#F9B16D;}
	.st1{fill-rule:evenodd;clip-rule:evenodd;fill:#CC8B5D;}
	.st2{fill:#1C1C1C;}
	.st3{fill-rule:evenodd;clip-rule:evenodd;fill:#485F87;}
	.st4{fill-rule:evenodd;clip-rule:evenodd;fill:#0E8BCA;}
	.st5{fill-rule:evenodd;clip-rule:evenodd;fill:#231F20;}
	.st6{fill:none;stroke:#231F20;stroke-width:0.5669;stroke-miterlimit:22.9256;}
	.st7{fill-rule:evenodd;clip-rule:evenodd;fill:#89181A;}
	.st8{fill-rule:evenodd;clip-rule:evenodd;fill:#AF1F24;}
	.st9{fill:#231F20;}
	.st10{fill-rule:evenodd;clip-rule:evenodd;fill:#997559;}
	.st11{fill-rule:evenodd;clip-rule:evenodd;fill:#80A9D9;}
	.st12{fill-rule:evenodd;clip-rule:evenodd;fill:#FFFFFF;}
</style>
<g id="XMLID_2_">
	<polygon id="XMLID_33_" class="st0" points="142,34 139.7,34 139.7,40.4 142,38.2 	"/>
	<polygon id="XMLID_32_" class="st0" points="118.2,34 120.4,34 120.4,40.4 118.2,38.2 	"/>
	<path id="XMLID_31_" class="st1" d="M113.7,139.8H91L71.6,151l1.1,4.1h94.8V149l-12.2-3.3l-5.7-5.7
		C137.8,140,125.3,140.5,113.7,139.8"/>
	<rect id="XMLID_30_" x="78.1" y="20.2" class="st2" width="3" height="134.6"/>
	<path id="XMLID_29_" class="st3" d="M113.5,91.7h28.6V69.1l8,8l-7.1,7.2l6.8,6.8l10.5-10.5c3.2-3.2,3.2-8.3,0-11.5l-1.1-1
		l-17.1-17.1h-13.6h-5h-4.1c-2.8,0-5.2,1-7.2,3L96.4,69.7H84.2v10.1h13.9h0.4c3.9,0,7.2-1.4,10-4.2l4.9-4.7V91.7z"/>
	<path id="XMLID_28_" class="st3" d="M125.6,144.3h13.7V91.7h-7.9h-17.9l-7.1,7.2c-2.6,2.6-3.9,5.7-3.9,9.3V128l11.3,0v-15.3
		l11.8-11.8V144.3z"/>
	<path id="XMLID_27_" class="st0" d="M84.7,72.8v2.7c0,1.7-1.4,3.2-3.1,3.2h-2.9h-0.2c-1.1,0-2-0.9-2-2v-4.9c0-1.1,0.9-2,2-2h0.2
		h2.9C83.3,69.7,84.7,71.1,84.7,72.8"/>
	<rect id="XMLID_26_" x="80.1" y="70.4" class="st0" width="4.1" height="7.7"/>
	<path id="XMLID_25_" class="st4" d="M15.4,20.2c17.5-10.1,41.3,11,60.5,0v37c-4.2,2.4-8.6,3.3-13.1,3.3c-16.1,0-33.7-11.2-47.3-3.3
		V20.2z"/>
	<path id="XMLID_24_" class="st5" d="M127.5,20.9h5.1c5.2,0,9.4,4.2,9.4,9.4v3.3c0,1.1-0.9,2-2,2h-19.8c-1.1,0-2-0.9-2-2v-3.3
		C118.2,25.1,122.4,20.9,127.5,20.9z"/>
	<path id="XMLID_23_" class="st6" d="M127.5,20.9h5.1c5.2,0,9.4,4.2,9.4,9.4v3.3c0,1.1-0.9,2-2,2h-19.8c-1.1,0-2-0.9-2-2v-3.3
		C118.2,25.1,122.4,20.9,127.5,20.9z"/>
	<path id="XMLID_22_" class="st0" d="M127.5,23.2h5.1c3.9,0,7.1,3.2,7.1,7.1V41c0,4.5-3.6,8.1-8.1,8.1h-3.1c-4.5,0-8.1-3.6-8.1-8.1
		V30.3C120.4,26.4,123.6,23.2,127.5,23.2"/>
	<path id="XMLID_21_" class="st7" d="M92.8,139.8h21v-6.1V128h-11.3l-5.6,5.6c-2.2,0-4.1,1.8-4.1,4.1V139.8z"/>
	<rect id="XMLID_20_" x="125.6" y="144.3" class="st7" width="13.7" height="11.4"/>
	<path id="XMLID_19_" class="st8" d="M125.6,155.8h13.7v-1.6c0-2.2-1.8-4.1-4.1-4.1h-5.6c-2.2,0-4.1,1.8-4.1,4.1V155.8z"/>
	<path id="XMLID_18_" class="st3" d="M142.1,50.9h-3.5c-5.6,0-10.1,4.6-10.1,10.1v41.6h16.1V53.4L142.1,50.9z"/>
	<path id="XMLID_17_" class="st3" d="M112.4,56.6l-2.1,4.4v33.8l3.2-3.1V67.8V61c0-5.6,7-10.1,12.6-10.1h-4.5
		C117.6,50.9,114.2,53,112.4,56.6"/>
	<path id="XMLID_16_" class="st5" d="M127.1,27h3v-3.8h-2.6c-1.4,0-2.8,0.4-3.9,1.2c0.3-0.1,0.6-0.1,0.8-0.1c1.4,0,2.6,1.2,2.6,2.6
		C127.1,26.8,127.1,26.9,127.1,27"/>
	<path id="XMLID_15_" class="st5" d="M133.1,27h-3v-3.8h2.6c1.4,0,2.8,0.4,3.9,1.2c-0.3-0.1-0.5-0.1-0.8-0.1c-1.4,0-2.6,1.2-2.6,2.6
		C133.1,26.8,133.1,26.9,133.1,27"/>
	<rect id="XMLID_14_" x="123.4" y="32.7" class="st9" width="2.7" height="2"/>
	<rect id="XMLID_13_" x="133.8" y="32.7" class="st9" width="2.8" height="2"/>
	<rect id="XMLID_12_" x="125.3" y="35.2" class="st9" width="1.8" height="1"/>
	<rect id="XMLID_11_" x="132.9" y="35.2" class="st9" width="1.7" height="1"/>
	<path id="XMLID_10_" class="st10" d="M128.5,49.1h3.1c0.8,0,1.7-0.1,2.4-0.4l-1.9-1.9l-2.1-2.1l-2.1,2.1l-1.9,1.9
		C126.9,49,127.7,49.1,128.5,49.1"/>
	<path id="XMLID_9_" class="st10" d="M120.4,41c0,3.6,2.4,6.7,5.7,7.7l1.9-1.9h0c-0.1,0-0.3,0-0.4,0l0,0l0,0c-4-0.6-7-4-7.1-8V41z"
		/>
	<path id="XMLID_8_" class="st10" d="M139.7,41c0,3.6-2.4,6.7-5.7,7.7l-1.9-1.9c0.1,0,0.3,0,0.4,0l0,0l0,0c4-0.6,7-4,7.1-8V41z"/>
	<path id="XMLID_7_" class="st11" d="M113.5,67.8v20.9h15V61c0-5.6,4.6-10.1,10.1-10.1h-10.1h-7.3c-5.6,0-7.7,4.6-7.7,10.1V67.8z"/>
	<path id="XMLID_6_" class="st0" d="M142.8,92.7l-1.9-1.9c-1.2-1.2-1.2-3.2,0-4.5l2.1-2.1l6.4,6.4l-2.1,2.1
		C146.1,93.9,144.1,93.9,142.8,92.7"/>
	<rect id="XMLID_5_" x="113.5" y="88.6" class="st5" width="15" height="3.1"/>
	<path id="XMLID_4_" class="st12" d="M45.7,30.7c5.5,1.5,10.4,3.6,14.1,4.9c3.5,1.3,5.9,2.4,5.9,4.4c0,2.1-2.2,4.7-5.9,6.2
		c-3.5,1.4-8.6,1-14.1-0.5c-5.5-1.5-10.4-3.6-14.1-5.1c-3.5-1.4-5.9-2.8-5.9-4.8c0-2.1,2.2-4.5,5.9-5.8
		C35.1,28.8,40.2,29.2,45.7,30.7"/>
	<path id="XMLID_3_" class="st10" d="M125.2,42.6v4.3h1.5v-3c0-1,0.8-1.7,1.7-1.7h3.4c1,0,1.7,0.8,1.7,1.7v3h1.5v-4.3
		c0-1-0.8-1.7-1.7-1.7h-6.4C125.9,40.9,125.2,41.7,125.2,42.6"/>
</g>
</svg>
