<?xml version="1.0" encoding="utf-8"?>
<!-- Generator: Adobe Illustrator 19.0.0, SVG Export Plug-In . SVG Version: 6.00 Build 0)  -->
<svg version="1.0" id="Layer_1" xmlns="http://www.w3.org/2000/svg" xmlns:xlink="http://www.w3.org/1999/xlink" x="0px" y="0px"
	 viewBox="0 0 185 170" style="enable-background:new 0 0 185 170;" xml:space="preserve">
<style type="text/css">
	.st0{fill-rule:evenodd;clip-rule:evenodd;fill:#29ABE2;}
	.st1{fill-rule:evenodd;clip-rule:evenodd;fill:#FFCB0A;}
	.st2{fill-rule:evenodd;clip-rule:evenodd;fill:#F9B16D;}
	.st3{fill-rule:evenodd;clip-rule:evenodd;fill:#A25742;}
	.st4{fill-rule:evenodd;clip-rule:evenodd;fill:#FFFFFF;}
	.st5{fill-rule:evenodd;clip-rule:evenodd;fill:#4F1211;}
	.st6{fill:#A25742;}
	.st7{fill-rule:evenodd;clip-rule:evenodd;fill:#284672;}
	.st8{fill-rule:evenodd;clip-rule:evenodd;fill:#FEFAD6;}
	.st9{fill-rule:evenodd;clip-rule:evenodd;fill:#80A9D9;}
	.st10{fill:#127DC2;}
	.st11{fill:#231F20;}
	.st12{fill:#FFFFFF;}
	.st13{fill:none;stroke:#FFFFFF;stroke-width:0.5669;stroke-miterlimit:22.9256;}
</style>
<g id="XMLID_2_">
	<rect id="XMLID_29_" x="22.7" y="59.1" class="st0" width="143" height="71.2"/>
	<path id="XMLID_28_" class="st1" d="M60.8,88.6l18.3,11.5c2.5,1.6,4.1,3.7,4.9,6.6l6.4,23.9H31.2l6.4-23.9c0.8-2.8,2.4-5,4.9-6.6
		L60.8,88.6z"/>
	<polygon id="XMLID_27_" class="st2" points="67,92.5 70.4,94.6 66.4,101.5 60.8,111.3 55.1,101.5 51.2,94.6 54.6,92.5 55.9,78.9 
		65.7,78.9 	"/>
	<path id="XMLID_26_" class="st2" d="M58.6,88.9l-2.2-2c-2.8-2.6-4.3-5.8-4.5-9.6l-0.5-8.8v-1.8c0-4.4,3.6-8,8-8h2.8
		c4.4,0,8,3.6,8,8v1.8l-0.5,8.8c-0.2,3.8-1.7,7-4.5,9.6l-2.2,2C61.7,90.1,59.8,90.1,58.6,88.9"/>
	<path id="XMLID_25_" class="st3" d="M52.2,79.5c-0.6-7.3-0.8-11-0.8-11c6.3,0.8,12.3-3,14.2-9c0.5-1.6,0.8-3.3,1.1-4.9
		c0.2-1.5-0.2-2.8-1.2-3.9c-1-1.1-2.3-1.6-3.7-1.6c-5.7,0.2-11.2,3.2-14.4,8.2c-3.3,5.2-3.7,11.6-1.2,16.9c1.1,2.5,3,4.2,5.6,5.1
		C52.1,79.5,52.2,79.5,52.2,79.5"/>
	<path id="XMLID_24_" class="st3" d="M66.9,52.8c4,1.4,6.9,4.8,7.7,8.9c0.3,4.1,0.1,8.2-0.7,12.3c-0.4,2.3-2,4-4.2,4.8
		c-0.1,0.1-0.2,0.1-0.2,0.1c0.5-7.5,0.7-11.3,0.7-11.3c0.3-3.4-1.5-6.6-4.6-8.1l-0.3-7.1L66.9,52.8z"/>
	<path id="XMLID_23_" class="st4" d="M64.4,80.3c-0.6,1.5-2.1,2.6-3.7,2.6c-1.7,0-3.1-1-3.7-2.6C62,80.3,64.4,80.3,64.4,80.3"/>
	<path id="XMLID_22_" class="st5" d="M54.2,72.1c0.3-0.7,1-1.2,1.8-1.2c0.8,0,1.5,0.5,1.8,1.2C55.4,72.1,54.2,72.1,54.2,72.1"/>
	<path id="XMLID_21_" class="st5" d="M63.7,72.1c0.3-0.7,1-1.2,1.8-1.2c0.8,0,1.5,0.5,1.8,1.2C64.9,72.1,63.7,72.1,63.7,72.1"/>
	<path id="XMLID_20_" class="st6" d="M53,70.3c0.7-1,1.7-1.6,2.8-1.8c1.1-0.2,2.3-0.1,3.3,0.5C58,70.7,55.9,67.4,53,70.3"/>
	<path id="XMLID_19_" class="st6" d="M68.5,70.3c-0.7-1-1.7-1.6-2.8-1.8c-1.1-0.2-2.3-0.1-3.3,0.5C63.5,70.7,65.6,67.4,68.5,70.3"/>
	<path id="XMLID_18_" class="st2" d="M69.9,130.5h3.2h7.4c0-2-1.6-3.7-3.7-3.7h-6.9l-3.8,2.2v1.5H69.9z"/>
	<polygon id="XMLID_17_" class="st7" points="112.9,113.2 116.7,121.9 120.4,130.5 112.9,130.5 105.4,130.5 109.2,121.9 	"/>
	<polygon id="XMLID_16_" class="st8" points="112.9,113.2 147.5,113.2 155,130.5 120.4,130.5 	"/>
	<polygon id="XMLID_15_" class="st9" points="123,124.1 146.8,124.1 144.9,119.6 121.1,119.6 	"/>
	<polygon id="XMLID_14_" class="st4" points="44.2,112.8 47.5,112.8 50.8,112.8 54.1,112.8 54.1,119.4 50.8,119.4 47.5,119.4 
		44.2,119.4 	"/>
	<rect id="XMLID_13_" x="45.5" y="114.4" class="st10" width="7" height="1.2"/>
	<rect id="XMLID_12_" x="45.5" y="116.2" class="st10" width="4.5" height="1.2"/>
	<path id="XMLID_8_" class="st11" d="M112,55L112,55c-0.2,0.3-0.4,0.7-0.7,1.2l-3.3,5.2h4v-4.9C112,56.1,112,55.6,112,55 M117,63.8
		h-1.9v3.3H112v-3.3h-6.8v-2.2l6.5-10.1h3.4v9.8h1.9V63.8z M97.1,64.2L97.1,64.2l6.3,0.1v2.9H93.1v-2.7l4.5-4.3
		c0.9-0.9,1.5-1.6,1.9-2.2c0.4-0.6,0.6-1.2,0.6-1.8c0-1.4-0.8-2.2-2.3-2.2c-1.3,0-2.6,0.5-3.9,1.6v-3c1.4-0.9,2.9-1.3,4.6-1.3
		c1.6,0,2.8,0.4,3.7,1.2c0.9,0.8,1.3,1.9,1.3,3.2c0,1.8-1.1,3.7-3.3,5.6L97.1,64.2z"/>
	<polygon id="XMLID_7_" class="st12" points="128.3,58.7 119.3,80.2 115.7,80.2 124.6,58.7 	"/>
	<polygon id="XMLID_6_" class="st11" points="144.1,72.8 137.6,89.3 133.3,89.3 139.9,74.2 131.3,74.2 131.3,70.9 144.1,70.9 	"/>
	<path id="XMLID_3_" class="st13" d="M126.8,86.7c-2.4,0.8-4.9,1.3-7.5,1.3c-9.8,0-18.2-6.2-21.5-14.9 M108.4,44.9
		c3.2-1.8,7-2.8,10.9-2.8c12.7,0,22.9,10.3,22.9,22.9"/>
</g>
</svg>
