<?xml version="1.0" encoding="utf-8"?>
<!-- Generator: Adobe Illustrator 19.0.0, SVG Export Plug-In . SVG Version: 6.00 Build 0)  -->
<svg version="1.0" id="Layer_1" xmlns="http://www.w3.org/2000/svg" xmlns:xlink="http://www.w3.org/1999/xlink" x="0px" y="0px"
	 viewBox="0 0 185 170" style="enable-background:new 0 0 185 170;" xml:space="preserve">
<style type="text/css">
	.st0{fill-rule:evenodd;clip-rule:evenodd;fill:#FEE687;}
	.st1{fill-rule:evenodd;clip-rule:evenodd;fill:#FAB770;}
	.st2{fill-rule:evenodd;clip-rule:evenodd;fill:#FDEBA7;}
	.st3{fill-rule:evenodd;clip-rule:evenodd;fill:#F79B6D;}
	.st4{fill-rule:evenodd;clip-rule:evenodd;fill:#FFF3CA;}
	.st5{fill-rule:evenodd;clip-rule:evenodd;fill:#F37D5E;}
	.st6{fill-rule:evenodd;clip-rule:evenodd;fill:#FFFFFF;}
	.st7{fill-rule:evenodd;clip-rule:evenodd;fill:#EF413E;}
	.st8{fill-rule:evenodd;clip-rule:evenodd;fill:#504C6A;}
	.st9{fill-rule:evenodd;clip-rule:evenodd;fill:#6C8BC6;}
	.st10{fill-rule:evenodd;clip-rule:evenodd;fill:#A5CD39;}
	.st11{fill-rule:evenodd;clip-rule:evenodd;fill:#FCEE21;}
	.st12{fill:none;stroke:#FEDE50;stroke-width:1.4173;stroke-miterlimit:22.9256;}
	.st13{fill:#FFFFFF;}
</style>
<g id="XMLID_59_">
	<rect id="XMLID_57_" x="53.8" y="101.5" class="st0" width="82.9" height="8.5"/>
	<path id="XMLID_115_" class="st1" d="M123.3,109.9h7l6.5-6.5v-2h-5L123.3,109.9z M108.8,109.9h7l8.5-8.5h-7L108.8,109.9z
		 M94.3,109.9h7l8.5-8.5h-7L94.3,109.9z M79.8,109.9h7l8.5-8.5h-6.9L79.8,109.9z M65.3,109.9h7l8.5-8.5h-7L65.3,109.9z M53.8,109.9
		h4l8.5-8.5h-6.9l-5.5,5.5V109.9z"/>
	
		<rect id="XMLID_50_" x="48.8" y="82.8" transform="matrix(-0.866 0.5 -0.5 -0.866 212.0246 117.3497)" class="st2" width="82.9" height="8.5"/>
	<path id="XMLID_107_" class="st3" d="M116.7,76.8l6-3.5l2.4-8.9l-1-1.7l-4.3,2.5L116.7,76.8z M104.1,84l6-3.5l3.1-11.6l-6,3.5
		L104.1,84z M91.6,91.2l6-3.5l3.1-11.6l-6,3.5L91.6,91.2z M79,98.5l6-3.5l3.1-11.6l-6,3.5L79,98.5z M66.5,105.7l6-3.5l3.1-11.6
		l-6,3.5L66.5,105.7z M56.5,111.5l3.5-2l3.1-11.6l-6,3.5l-2,7.6L56.5,111.5z"/>
	
		<rect id="XMLID_43_" x="35.2" y="69.2" transform="matrix(-0.5 0.866 -0.866 -0.5 178.6129 43.789)" class="st4" width="82.9" height="8.5"/>
	<path id="XMLID_99_" class="st5" d="M94.3,51.3l3.5-6l-2.4-8.9l-1.7-1l-2.5,4.3L94.3,51.3z M87.1,63.9l3.5-6l-3.1-11.6l-3.5,6
		L87.1,63.9z M79.9,76.4l3.5-6l-3.1-11.6l-3.5,6L79.9,76.4z M72.6,89l3.5-6L73,71.3l-3.5,6L72.6,89z M65.4,101.5l3.5-6l-3.1-11.6
		l-3.5,6L65.4,101.5z M59.6,111.5l2-3.5l-3.1-11.6l-3.5,6l2,7.6L59.6,111.5z"/>
	<rect id="XMLID_36_" x="53.8" y="27" class="st6" width="8.5" height="82.9"/>
	<path id="XMLID_91_" class="st7" d="M62.3,40.5v-7L55.8,27h-2v5L62.3,40.5z M62.3,55v-7l-8.5-8.5v7L62.3,55z M62.3,69.4v-6.9
		L53.8,54v7L62.3,69.4z M62.3,83.9v-7l-8.5-8.5v7L62.3,83.9z M62.3,98.4v-7L53.8,83v7L62.3,98.4z M62.3,109.9v-4l-8.5-8.5v6.9
		l5.5,5.5H62.3z"/>
	<path id="XMLID_29_" class="st8" d="M58.1,99.2c3.6,0,6.5,2.9,6.5,6.5v0v9.3l-3.7,3.7h-9.3v-13v0C51.6,102.1,54.5,99.2,58.1,99.2"
		/>
	<path id="XMLID_28_" class="st9" d="M46.6,105.7h11.4v9.2v9.2v9.2v9.2h-9.2h-9.2h-9.2v-9.8c0-4.7,3.9-8.6,8.6-8.6h0.6v-9.2v-2.2
		L46.6,105.7z"/>
	<path id="XMLID_27_" class="st8" d="M48,109.1l-5,5v13.4h-4c-2.9,0-5.2,2.4-5.2,5.2v9.8h20.9v-33.4H48z"/>
	<path id="XMLID_26_" class="st10" d="M48.7,122.6c2.1,0,3.8-1.7,3.8-3.8c0-2.1-1.7-3.8-3.8-3.8c-2.1,0-3.8,1.7-3.8,3.8
		C44.9,120.9,46.6,122.6,48.7,122.6"/>
	<path id="XMLID_25_" class="st11" d="M48.7,118.8l2.4,1.4c0.8-1.4,0.3-3.1-1-3.9c-1.4-0.8-3.1-0.3-3.9,1L48.7,118.8z"/>
	<path id="XMLID_73_" class="st12" d="M151.1,82h2.5l1.4-9.6v-2.1h-5.4v2.1L151.1,82z M149.8,87.7h4.9v-4.2h-4.9V87.7z M138.4,79.9
		c0.1-0.5,0.2-0.9,0.4-1.3c0.2-0.4,0.5-0.6,0.8-0.8c0.3-0.2,0.7-0.3,1.1-0.3c0.4,0,0.8,0.1,1.1,0.3c0.3,0.2,0.6,0.5,0.8,0.8
		c0.2,0.4,0.3,0.8,0.4,1.3H138.4z M141.1,88c0.9,0,1.7-0.1,2.4-0.3c0.7-0.2,1.4-0.5,1.9-1c0.6-0.4,1.1-0.9,1.5-1.4l-2.6-2.2
		c-0.5,0.5-1,0.8-1.4,1c-0.5,0.2-1,0.3-1.6,0.3c-0.7,0-1.4-0.2-1.9-0.6c-0.5-0.4-0.9-0.9-1-1.7h9c0-0.2,0-0.3,0-0.5
		c0-0.2,0-0.3,0-0.5c0-0.8-0.1-1.6-0.3-2.3c-0.2-0.7-0.4-1.4-0.8-2c-0.4-0.6-0.8-1.2-1.3-1.6c-0.5-0.5-1.2-0.8-1.9-1.1
		c-0.7-0.3-1.6-0.4-2.5-0.4c-1,0-1.9,0.2-2.7,0.5c-0.8,0.4-1.5,0.9-2.2,1.5c-0.6,0.6-1.1,1.4-1.4,2.2c-0.3,0.9-0.5,1.8-0.5,2.8
		c0,1.1,0.2,2,0.5,2.9c0.4,0.9,0.8,1.6,1.5,2.2c0.6,0.6,1.4,1.1,2.3,1.4C139.1,87.9,140.1,88,141.1,88z M110.2,87.7h4.7v-7.3
		c0-0.5,0.1-0.9,0.3-1.2c0.2-0.3,0.4-0.6,0.7-0.8c0.3-0.2,0.6-0.3,1-0.3c0.6,0,1,0.2,1.3,0.6c0.3,0.4,0.5,0.9,0.5,1.7v7.3h4.7v-7.3
		c0-0.5,0.1-0.9,0.3-1.2c0.2-0.3,0.4-0.6,0.7-0.8c0.3-0.2,0.6-0.3,1-0.3c0.6,0,1,0.2,1.3,0.6c0.3,0.4,0.5,0.9,0.5,1.7v7.3h4.7v-8.9
		c0-1.1-0.2-1.9-0.6-2.7c-0.4-0.7-0.9-1.3-1.6-1.7c-0.7-0.4-1.5-0.6-2.5-0.6c-0.7,0-1.2,0.1-1.8,0.3c-0.5,0.2-1,0.4-1.5,0.8
		c-0.4,0.3-0.9,0.7-1.3,1.2c-0.4-0.7-0.9-1.2-1.5-1.6c-0.7-0.4-1.4-0.6-2.3-0.6c-0.6,0-1.2,0.1-1.7,0.3c-0.5,0.2-0.9,0.5-1.3,0.8
		c-0.4,0.3-0.7,0.7-1,1.1v-1.8h-4.7V87.7z M100.8,84c-0.4,0-0.8-0.1-1.2-0.2c-0.3-0.2-0.7-0.4-0.9-0.7c-0.3-0.3-0.5-0.6-0.6-1
		C98,81.8,98,81.4,98,81c0-0.6,0.1-1.1,0.3-1.5c0.2-0.5,0.6-0.8,1-1.1c0.4-0.3,0.9-0.4,1.5-0.4c0.4,0,0.8,0.1,1.2,0.2
		c0.3,0.2,0.6,0.4,0.9,0.7c0.3,0.3,0.5,0.6,0.6,1c0.1,0.4,0.2,0.8,0.2,1.2c0,0.6-0.1,1.1-0.3,1.5c-0.2,0.5-0.6,0.8-1,1.1
		C101.9,83.9,101.4,84,100.8,84z M100.8,88c1.1,0,2.1-0.2,3-0.6c0.9-0.4,1.7-0.9,2.4-1.5c0.7-0.6,1.2-1.4,1.6-2.2
		c0.4-0.8,0.6-1.8,0.6-2.7c0-1-0.2-1.9-0.6-2.7c-0.4-0.9-0.9-1.6-1.5-2.2c-0.7-0.6-1.4-1.1-2.4-1.5c-0.9-0.4-1.9-0.6-3-0.6
		c-1.1,0-2.1,0.2-3,0.6c-0.9,0.4-1.7,0.9-2.4,1.5c-0.7,0.7-1.2,1.4-1.6,2.3c-0.4,0.8-0.6,1.8-0.6,2.7c0,1,0.2,1.9,0.6,2.7
		c0.4,0.9,0.9,1.6,1.5,2.2c0.7,0.6,1.4,1.2,2.3,1.5C98.7,87.8,99.7,88,100.8,88z M86.6,88c1,0,1.9-0.1,2.6-0.4
		c0.7-0.3,1.4-0.6,2-1.1c0.6-0.5,1-1,1.5-1.6l-3.2-2.3c-0.2,0.3-0.5,0.5-0.7,0.8c-0.2,0.2-0.5,0.4-0.8,0.5c-0.3,0.1-0.6,0.2-1,0.2
		c-0.5,0-1-0.1-1.4-0.4c-0.4-0.3-0.7-0.6-0.9-1.1c-0.2-0.5-0.3-1-0.3-1.6c0-0.6,0.1-1.1,0.3-1.5c0.2-0.5,0.5-0.8,0.9-1.1
		c0.4-0.3,0.9-0.4,1.5-0.4c0.5,0,1,0.1,1.4,0.3c0.4,0.2,0.8,0.5,1.1,1l3.2-2.3c-0.4-0.6-0.8-1.1-1.4-1.6c-0.5-0.4-1.2-0.8-1.9-1
		c-0.7-0.2-1.5-0.4-2.5-0.4c-1.1,0-2,0.2-2.9,0.6c-0.9,0.4-1.6,0.9-2.3,1.5c-0.6,0.6-1.1,1.4-1.5,2.2c-0.3,0.8-0.5,1.7-0.5,2.7
		c0,1,0.2,1.9,0.5,2.7c0.3,0.8,0.8,1.6,1.5,2.2c0.6,0.6,1.4,1.2,2.2,1.5C84.6,87.8,85.6,88,86.6,88z M72.7,87.7h4.7V69.5h-4.7V87.7z
		 M61.5,79.9c0.1-0.5,0.2-0.9,0.4-1.3c0.2-0.4,0.5-0.6,0.8-0.8c0.3-0.2,0.7-0.3,1.1-0.3c0.4,0,0.8,0.1,1.1,0.3
		c0.3,0.2,0.6,0.5,0.8,0.8c0.2,0.4,0.3,0.8,0.4,1.3H61.5z M64.2,88c0.9,0,1.7-0.1,2.4-0.3c0.7-0.2,1.4-0.5,1.9-1
		c0.6-0.4,1.1-0.9,1.5-1.4l-2.6-2.2c-0.5,0.5-1,0.8-1.4,1c-0.5,0.2-1,0.3-1.6,0.3c-0.7,0-1.4-0.2-1.9-0.6c-0.5-0.4-0.9-0.9-1-1.7h9
		c0-0.2,0-0.3,0-0.5c0-0.2,0-0.3,0-0.5c0-0.8-0.1-1.6-0.3-2.3c-0.2-0.7-0.4-1.4-0.8-2c-0.4-0.6-0.8-1.2-1.3-1.6
		c-0.5-0.5-1.2-0.8-1.9-1.1c-0.7-0.3-1.6-0.4-2.5-0.4c-1,0-1.9,0.2-2.7,0.5c-0.8,0.4-1.5,0.9-2.2,1.5c-0.6,0.6-1.1,1.4-1.4,2.2
		C57.1,79.1,57,80,57,81c0,1.1,0.2,2,0.5,2.9c0.4,0.9,0.9,1.6,1.5,2.2c0.6,0.6,1.4,1.1,2.3,1.4C62.2,87.9,63.1,88,64.2,88z
		 M36.3,87.8h4.2l3.5-10l3.5,10h4.2l5.8-17.6h-5l-3,10.1l-3.4-10.1H42l-3.4,10.1l-3-10.1h-5.1L36.3,87.8z"/>
	<path id="XMLID_60_" class="st13" d="M151.1,82h2.5l1.4-9.6v-2.1h-5.4v2.1L151.1,82z M149.8,87.7h4.9v-4.2h-4.9V87.7z M138.4,79.9
		c0.1-0.5,0.2-0.9,0.4-1.3c0.2-0.4,0.5-0.6,0.8-0.8c0.3-0.2,0.7-0.3,1.1-0.3c0.4,0,0.8,0.1,1.1,0.3c0.3,0.2,0.6,0.5,0.8,0.8
		c0.2,0.4,0.3,0.8,0.4,1.3H138.4z M141.1,88c0.9,0,1.7-0.1,2.4-0.3c0.7-0.2,1.4-0.5,1.9-1c0.6-0.4,1.1-0.9,1.5-1.4l-2.6-2.2
		c-0.5,0.5-1,0.8-1.4,1c-0.5,0.2-1,0.3-1.6,0.3c-0.7,0-1.4-0.2-1.9-0.6c-0.5-0.4-0.9-0.9-1-1.7h9c0-0.2,0-0.3,0-0.5
		c0-0.2,0-0.3,0-0.5c0-0.8-0.1-1.6-0.3-2.3c-0.2-0.7-0.4-1.4-0.8-2c-0.4-0.6-0.8-1.2-1.3-1.6c-0.5-0.5-1.2-0.8-1.9-1.1
		c-0.7-0.3-1.6-0.4-2.5-0.4c-1,0-1.9,0.2-2.7,0.5c-0.8,0.4-1.5,0.9-2.2,1.5c-0.6,0.6-1.1,1.4-1.4,2.2c-0.3,0.9-0.5,1.8-0.5,2.8
		c0,1.1,0.2,2,0.5,2.9c0.4,0.9,0.8,1.6,1.5,2.2c0.6,0.6,1.4,1.1,2.3,1.4C139.1,87.9,140.1,88,141.1,88z M110.2,87.7h4.7v-7.3
		c0-0.5,0.1-0.9,0.3-1.2c0.2-0.3,0.4-0.6,0.7-0.8c0.3-0.2,0.6-0.3,1-0.3c0.6,0,1,0.2,1.3,0.6c0.3,0.4,0.5,0.9,0.5,1.7v7.3h4.7v-7.3
		c0-0.5,0.1-0.9,0.3-1.2c0.2-0.3,0.4-0.6,0.7-0.8c0.3-0.2,0.6-0.3,1-0.3c0.6,0,1,0.2,1.3,0.6c0.3,0.4,0.5,0.9,0.5,1.7v7.3h4.7v-8.9
		c0-1.1-0.2-1.9-0.6-2.7c-0.4-0.7-0.9-1.3-1.6-1.7c-0.7-0.4-1.5-0.6-2.5-0.6c-0.7,0-1.2,0.1-1.8,0.3c-0.5,0.2-1,0.4-1.5,0.8
		c-0.4,0.3-0.9,0.7-1.3,1.2c-0.4-0.7-0.9-1.2-1.5-1.6c-0.7-0.4-1.4-0.6-2.3-0.6c-0.6,0-1.2,0.1-1.7,0.3c-0.5,0.2-0.9,0.5-1.3,0.8
		c-0.4,0.3-0.7,0.7-1,1.1v-1.8h-4.7V87.7z M100.8,84c-0.4,0-0.8-0.1-1.2-0.2c-0.3-0.2-0.7-0.4-0.9-0.7c-0.3-0.3-0.5-0.6-0.6-1
		C98,81.8,98,81.4,98,81c0-0.6,0.1-1.1,0.3-1.5c0.2-0.5,0.6-0.8,1-1.1c0.4-0.3,0.9-0.4,1.5-0.4c0.4,0,0.8,0.1,1.2,0.2
		c0.3,0.2,0.6,0.4,0.9,0.7c0.3,0.3,0.5,0.6,0.6,1c0.1,0.4,0.2,0.8,0.2,1.2c0,0.6-0.1,1.1-0.3,1.5c-0.2,0.5-0.6,0.8-1,1.1
		C101.9,83.9,101.4,84,100.8,84z M100.8,88c1.1,0,2.1-0.2,3-0.6c0.9-0.4,1.7-0.9,2.4-1.5c0.7-0.6,1.2-1.4,1.6-2.2
		c0.4-0.8,0.6-1.8,0.6-2.7c0-1-0.2-1.9-0.6-2.7c-0.4-0.9-0.9-1.6-1.5-2.2c-0.7-0.6-1.4-1.1-2.4-1.5c-0.9-0.4-1.9-0.6-3-0.6
		c-1.1,0-2.1,0.2-3,0.6c-0.9,0.4-1.7,0.9-2.4,1.5c-0.7,0.7-1.2,1.4-1.6,2.3c-0.4,0.8-0.6,1.8-0.6,2.7c0,1,0.2,1.9,0.6,2.7
		c0.4,0.9,0.9,1.6,1.5,2.2c0.7,0.6,1.4,1.2,2.3,1.5C98.7,87.8,99.7,88,100.8,88z M86.6,88c1,0,1.9-0.1,2.6-0.4
		c0.7-0.3,1.4-0.6,2-1.1c0.6-0.5,1-1,1.5-1.6l-3.2-2.3c-0.2,0.3-0.5,0.5-0.7,0.8c-0.2,0.2-0.5,0.4-0.8,0.5c-0.3,0.1-0.6,0.2-1,0.2
		c-0.5,0-1-0.1-1.4-0.4c-0.4-0.3-0.7-0.6-0.9-1.1c-0.2-0.5-0.3-1-0.3-1.6c0-0.6,0.1-1.1,0.3-1.5c0.2-0.5,0.5-0.8,0.9-1.1
		c0.4-0.3,0.9-0.4,1.5-0.4c0.5,0,1,0.1,1.4,0.3c0.4,0.2,0.8,0.5,1.1,1l3.2-2.3c-0.4-0.6-0.8-1.1-1.4-1.6c-0.5-0.4-1.2-0.8-1.9-1
		c-0.7-0.2-1.5-0.4-2.5-0.4c-1.1,0-2,0.2-2.9,0.6c-0.9,0.4-1.6,0.9-2.3,1.5c-0.6,0.6-1.1,1.4-1.5,2.2c-0.3,0.8-0.5,1.7-0.5,2.7
		c0,1,0.2,1.9,0.5,2.7c0.3,0.8,0.8,1.6,1.5,2.2c0.6,0.6,1.4,1.2,2.2,1.5C84.6,87.8,85.6,88,86.6,88z M72.7,87.7h4.7V69.5h-4.7V87.7z
		 M61.5,79.9c0.1-0.5,0.2-0.9,0.4-1.3c0.2-0.4,0.5-0.6,0.8-0.8c0.3-0.2,0.7-0.3,1.1-0.3c0.4,0,0.8,0.1,1.1,0.3
		c0.3,0.2,0.6,0.5,0.8,0.8c0.2,0.4,0.3,0.8,0.4,1.3H61.5z M64.2,88c0.9,0,1.7-0.1,2.4-0.3c0.7-0.2,1.4-0.5,1.9-1
		c0.6-0.4,1.1-0.9,1.5-1.4l-2.6-2.2c-0.5,0.5-1,0.8-1.4,1c-0.5,0.2-1,0.3-1.6,0.3c-0.7,0-1.4-0.2-1.9-0.6c-0.5-0.4-0.9-0.9-1-1.7h9
		c0-0.2,0-0.3,0-0.5c0-0.2,0-0.3,0-0.5c0-0.8-0.1-1.6-0.3-2.3c-0.2-0.7-0.4-1.4-0.8-2c-0.4-0.6-0.8-1.2-1.3-1.6
		c-0.5-0.5-1.2-0.8-1.9-1.1c-0.7-0.3-1.6-0.4-2.5-0.4c-1,0-1.9,0.2-2.7,0.5c-0.8,0.4-1.5,0.9-2.2,1.5c-0.6,0.6-1.1,1.4-1.4,2.2
		C57.1,79.1,57,80,57,81c0,1.1,0.2,2,0.5,2.9c0.4,0.9,0.9,1.6,1.5,2.2c0.6,0.6,1.4,1.1,2.3,1.4C62.2,87.9,63.1,88,64.2,88z
		 M36.3,87.8h4.2l3.5-10l3.5,10h4.2l5.8-17.6h-5l-3,10.1l-3.4-10.1H42l-3.4,10.1l-3-10.1h-5.1L36.3,87.8z"/>
</g>
</svg>
