<?xml version="1.0" encoding="utf-8"?>
<!-- Generator: Adobe Illustrator 19.0.0, SVG Export Plug-In . SVG Version: 6.00 Build 0)  -->
<svg version="1.0" id="Layer_1" xmlns="http://www.w3.org/2000/svg" xmlns:xlink="http://www.w3.org/1999/xlink" x="0px" y="0px"
	 viewBox="0 0 185 170" style="enable-background:new 0 0 185 170;" xml:space="preserve">
<style type="text/css">
	.st0{fill-rule:evenodd;clip-rule:evenodd;fill:#7F586B;}
	.st1{fill-rule:evenodd;clip-rule:evenodd;fill:#F1EFE8;}
	.st2{fill-rule:evenodd;clip-rule:evenodd;fill:#D1E188;}
	.st3{fill:#BBBDBF;}
	.st4{fill:#54A176;}
	.st5{fill-rule:evenodd;clip-rule:evenodd;fill:#80A9D9;}
	.st6{fill-rule:evenodd;clip-rule:evenodd;fill:#FFCB0A;}
	.st7{fill-rule:evenodd;clip-rule:evenodd;fill:#F48220;}
	.st8{fill:none;stroke:#FFFFFF;stroke-width:0.5669;stroke-linecap:round;stroke-linejoin:round;stroke-miterlimit:22.9256;}
	.st9{fill:#AF1F24;}
	.st10{fill:#284672;}
	.st11{fill-rule:evenodd;clip-rule:evenodd;fill:#0E8BCA;}
	.st12{fill-rule:evenodd;clip-rule:evenodd;fill:#FFFFFF;}
</style>
<g id="XMLID_2_">
	<path id="XMLID_50_" class="st0" d="M82.7,47.7c32.6,0,59.1,26.4,59.1,59.1c0,32.6-26.4,59.1-59.1,59.1
		c-32.6,0-59.1-26.4-59.1-59.1C23.7,74.1,50.1,47.7,82.7,47.7"/>
	<path id="XMLID_49_" class="st1" d="M87.3,41.1c32.6,0,59.1,26.4,59.1,59.1c0,32.6-26.4,59.1-59.1,59.1
		c-32.6,0-59.1-26.4-59.1-59.1C28.3,67.6,54.7,41.1,87.3,41.1"/>
	<path id="XMLID_48_" class="st2" d="M106.7,145.5l-9.9-5l-3.3-6.7c-0.3-0.1-0.2,0-0.3-0.2l-7.1-0.5v-0.2l-3.5-6.5l-7.8-1.8
		l-4.8-2.1l-1.2-7.1l-2.9-10.2L68.6,90l-6.4-2.5l-1.6-3.6l9.4-3.6l2.1-5.2l5.2,0.5l0.7,3.9l5.7-0.1l5.6-6.4l4.8,0.2l4.8-8.5l4.8,3.2
		l-0.4,6l3.2,2.6l1.1,2.7l-1.9,3.5l1.8,2.1L103,88l1.2,8.7l7.7,12.4l6.1,2.2l1.3-4l5.2,2.3l-5,10.7l-7.4-4.5L111,120l7.7,7.2
		l-5.7,14.6L106.7,145.5z"/>
	<path id="XMLID_43_" class="st3" d="M95.8,101.3l-1.9-4.6l-14.7,4.4l3.2,9.8l6.3-1.8l-1.7-3.8l-0.3-0.6l0.6-0.2L95.8,101.3z
		 M97.9,106.5l-1.7-4.1l-8,3l1.5,3.4L97.9,106.5z M92.1,114l14.6-4l0.3-0.1l0.2,0.2l5,4.5l-0.8,0.9l-4.7-4.3l-14.2,3.9l0.7,1.6l0,0
		l0,0l6.7,21.8l0.1,0.4l-0.4,0.2l-2.4,1.5l-0.6-1l2-1.3l-6.5-21.3l-0.8-1.7l-6.8,1.9l1.7,4.6l0.2,0.6l-0.6,0.2l-9.8,2.5L76,124
		l9.1-2.3l-3.5-9.3l-12.4,3.5l-0.3-1.1l12.3-3.5l-4.8-14.7l-4.2-2.7L72,93.7l0-0.3l-2-12.9l1.1-0.2l2,12.7l4.1,2.7l0.2,0.1l0.1,0.2
		l1.3,4.1l14.7-4.4l-1-2.5l1.1-0.4l1.1,2.6l9.3-3.5l0.4,1.1L95,96.4l1.9,4.6l3.8-1.4l2.7-3l0.9,0.8l-2.8,3.1l-0.1,0.1l-0.1,0
		l-3.9,1.5l1.9,4.7l0.2,0.6l-0.6,0.2l-8.6,2.4L92.1,114z M84.3,116.1l6.7-1.8l-1.9-4.1l-6.4,1.8L84.3,116.1z"/>
	<path id="XMLID_40_" class="st4" d="M97.1,140.2l9.6,4.8l6.1-3.6l5.5-14.2l-7.5-7l-0.2-0.2l0.1-0.3l1.2-4.3l0.2-0.6l0.5,0.3l7,4.2
		l4.6-9.8l-4.3-1.9l-1.2,3.5l-0.1,0.4l-0.4-0.2l-6.1-2.2l-0.1-0.1l-0.1-0.1l-7.7-12.4l0-0.1l0-0.1l-1.2-8.7l0-0.3l0.2-0.2l4.2-3
		l-1.5-1.7l-0.2-0.2l0.1-0.3l1.8-3.3l-0.9-2.4l-3.1-2.5l-0.2-0.1l0-0.2l0.4-5.7l-4.2-2.8l-4.6,8.1l-0.1,0.2l-0.3,0l-4.6-0.2L84,79.6
		l-0.1,0.1l-0.2,0l-5.7,0.1l-0.4,0l-0.1-0.4l-0.7-3.6l-4.5-0.4l-1.9,4.9l-0.1,0.2l-0.2,0.1l-9,3.4l1.3,3l6.2,2.5l0.3,0.1l-0.1,0.4
		l-2.8,15.1l2.8,10.1l0,0v0l1.2,6.9l4.6,2l7.7,1.8l0.2,0l0.1,0.2l3.5,6.5l0,0l6.7,0.5l0.2,0l0.1,0.1l0,0l0.1,0l0.2,0.1l0.1,0.2
		L97.1,140.2z M106.5,145.9l-9.9-5l-0.1-0.1l-0.1-0.1l-3.2-6.5l0,0l0,0l0,0c0,0-0.1,0-0.1-0.1l-7-0.5l-0.4,0v-0.4V133l-3.4-6.2
		l-7.6-1.8l0,0l0,0l-4.8-2.1l-0.2-0.1l0-0.2l-1.2-7.1l-2.9-10.2l0-0.1l0-0.1l2.8-14.8l-6-2.4l-0.2-0.1l-0.1-0.2L60.3,84l-0.2-0.4
		l0.4-0.2l9.2-3.5l2-5.1l0.1-0.3l0.3,0l5.2,0.5l0.3,0l0.1,0.3l0.7,3.6l5.1-0.1l5.4-6.2l0.1-0.2l0.2,0l4.6,0.2l4.7-8.3l0.2-0.4
		l0.4,0.3l4.8,3.2l0.2,0.1l0,0.3l-0.4,5.8l3,2.5l0.1,0.1l0,0.1L108,79l0.1,0.2l-0.1,0.2l-1.7,3.3l1.6,1.8l0.3,0.4l-0.4,0.3l-4.4,3.1
		l1.2,8.3l7.6,12.2l5.6,2l1.2-3.6l0.2-0.5l0.4,0.2l5.2,2.3l0.4,0.2l-0.2,0.4l-5,10.6l-0.2,0.4l-0.4-0.3l-6.9-4.2l-0.9,3.4l7.5,7
		l0.2,0.2l-0.1,0.3l-5.7,14.6l-0.1,0.1l-0.1,0.1l-6.4,3.8l-0.2,0.1L106.5,145.9z"/>
	<polygon id="XMLID_39_" class="st5" points="100.4,58.8 105.6,58.8 114.7,58.8 114.7,64 105.6,64 100.4,64 	"/>
	<path id="XMLID_38_" class="st6" d="M101,42.7c0.8,0.2,1.5,0.4,2.3,0.6l-7.8,30.6l0,0.1l-0.1,0.1l-9,17.2l9.4-1.9l10.1-14.1
		l0.1-0.1l0.2-0.1l23-16.6c0.5,0.5,1.1,1.1,1.6,1.7l-23.1,16.7l-8.5,11.9l20.8-4.2l0.2,0l0.2,0l24.9,3.5c0.2,0.8,0.3,1.6,0.4,2.4
		L120.2,87l-35.2,7l-5.4,9.3l-0.3,0.6h-0.7H53.7l-24,9.3c-0.2-0.8-0.3-1.5-0.5-2.3l23.8-9.3l0.2-0.1h0.2H78l5.3-9.1h0l10-19.3
		L101,42.7z"/>
	<path id="XMLID_35_" class="st6" d="M37.6,68.2c0.4-0.7,0.9-1.4,1.4-2.1l32.9,7.5l5,0.2L82,58.7l-6.2-16.5c0.8-0.2,1.5-0.3,2.3-0.4
		l6.2,16.4l0.1,0.4l-0.1,0.4l-5.5,16.4l-0.3,0.8l-0.9,0l-6-0.2l-0.1,0l-0.1,0L37.6,68.2z M101,42.7c0.8,0.2,1.5,0.4,2.3,0.6
		l-7.8,30.6l0,0.1l-0.1,0.1l-9,17.2l9.4-1.9l10.1-14.1l0.1-0.1l0.2-0.1l23-16.6c0.5,0.5,1.1,1.1,1.6,1.7l-23.1,16.7l-8.5,11.9
		l20.8-4.2l0.2,0l0.2,0l24.9,3.5c0.2,0.8,0.3,1.6,0.4,2.4L120.2,87l-35.2,7l-5.4,9.3l-0.3,0.6h-0.7H53.7l-24,9.3
		c-0.2-0.8-0.3-1.5-0.5-2.3l23.8-9.3l0.2-0.1h0.2H78l5.3-9.1h0l10-19.3L101,42.7z"/>
	<path id="XMLID_28_" class="st7" d="M38.7,66.6l0.5-0.8L72,73.2l4.6,0.2l5-14.7l-6.2-16.4c0.3-0.1,0.6-0.1,0.9-0.2l6.2,16.4
		l0.1,0.1l-0.1,0.2L77.3,74l-0.1,0.3l-0.3,0l-5-0.2l0,0l0,0L38.7,66.6z M37.4,68.6l0.5-0.8l33.7,7.7l0.1,0l0.1,0l5.9,0.2l0.5,0
		l0.2-0.5l5.5-16.4l0.1-0.2l-0.1-0.2l-6.3-16.5l0.9-0.1l6.2,16.4l0.1,0.4l0.1,0.1l-0.1,0.1l-0.1,0.4l-5.5,16.4l-0.3,0.8l-0.1,0.3
		l-0.3,0l-0.9,0l-6-0.2l-0.1,0l0,0l0,0l-0.1,0L37.4,68.6z M145.5,90.2l0.1,0.9l-25.5-3.6l-34.9,7l-5.3,9.1l-0.3,0.6l-0.1,0.2h-0.3
		h-0.7H53.8l-24,9.3l-0.2-0.9l23.9-9.3l0.1,0h0.1h24.9H79l0.2-0.4l5.4-9.3l0.1-0.2l0.2,0l35.2-7l0.1,0l0.1,0L145.5,90.2z
		 M130.5,59.9l0.6,0.7L108,77.3l-7.9,11l19.7-3.9l0,0l0.2,0l0.1,0l0.1,0l0.2,0l24.7,3.5l0.2,0.9l-25-3.6l-0.1,0l-0.1,0v0l-20.8,4.2
		l-1.1,0.2l0.7-0.9l8.5-11.9l0-0.1l0.1,0L130.5,59.9z M102.8,43.2l0.9,0.2L95.9,74l0,0.1l0,0l0,0.1l-0.1,0.1v0l-8.5,16.4l8.3-1.7
		l10-14l0,0l0.1-0.1l0-0.1l0.1,0l0.2-0.1l23-16.6l0.6,0.6l-23.1,16.7l-0.1,0.1l-0.1,0.1l0,0L96.2,89.8l-0.1,0.1l-0.2,0l-9.4,1.9
		L85.6,92l0.4-0.8L95,74l0,0l0-0.1l0-0.1l0,0L102.8,43.2z M100.6,42.6l0.9,0.2l-7.7,30.5l0,0.1l0,0l-9.9,19l0,0l-0.2,0.3l-5.3,9.1
		l-0.1,0.2H78H53.5h-0.1l-0.1,0.1l-23.9,9.3l-0.2-0.9l23.8-9.2l0.2-0.1l0.1,0h0.1h0.2h24.2l5.1-8.8l0,0l10-19.2L100.6,42.6z"/>
	<path id="XMLID_17_" class="st8" d="M132.3,115.2h2.9v10.9h-2.9V115.2z M123,124.3h2.7c0.7,0,1.2-0.1,1.5-0.3
		c0.3-0.2,0.5-0.6,0.5-1.1c0-0.5-0.2-0.9-0.6-1.1c-0.4-0.2-1.1-0.3-2.2-0.3H123V124.3z M120.1,115.2h2.9v4.5h2.9
		c1.1,0,2,0.1,2.6,0.2c0.6,0.2,1.1,0.5,1.5,1c0.4,0.5,0.6,1.2,0.6,1.9c0,1.1-0.4,1.8-1.1,2.4c-0.7,0.5-1.8,0.8-3.3,0.8h-6.2V115.2z
		 M108.5,115.2h9.9v2.3h-3.5v8.6H112v-8.6h-3.5V115.2z M104.1,120.9c-0.4,0.1-1,0.3-1.8,0.4c-0.8,0.2-1.3,0.3-1.6,0.5
		c-0.4,0.3-0.6,0.6-0.6,1c0,0.4,0.1,0.8,0.4,1c0.3,0.3,0.7,0.4,1.2,0.4c0.5,0,1-0.2,1.5-0.5c0.4-0.3,0.6-0.6,0.7-1
		c0.1-0.2,0.1-0.7,0.1-1.4V120.9z M100.3,118.5l-2.6-0.5c0.3-1.1,0.8-1.8,1.5-2.3c0.7-0.5,1.8-0.8,3.2-0.8c1.3,0,2.2,0.2,2.9,0.5
		c0.6,0.3,1.1,0.7,1.3,1.2c0.3,0.5,0.4,1.3,0.4,2.6l0,3.4c0,1,0,1.7,0.1,2.1c0.1,0.5,0.3,0.9,0.5,1.5h-2.9c-0.1-0.2-0.2-0.5-0.3-0.9
		c0-0.2-0.1-0.3-0.1-0.3c-0.5,0.5-1,0.8-1.6,1.1c-0.6,0.2-1.2,0.4-1.8,0.4c-1.1,0-2-0.3-2.7-0.9c-0.7-0.6-1-1.4-1-2.3
		c0-0.6,0.1-1.2,0.4-1.6c0.3-0.5,0.7-0.9,1.2-1.1c0.5-0.3,1.3-0.5,2.3-0.7c1.3-0.3,2.3-0.5,2.8-0.7v-0.3c0-0.6-0.1-0.9-0.4-1.2
		c-0.3-0.2-0.8-0.4-1.6-0.4c-0.5,0-0.9,0.1-1.2,0.3C100.7,117.7,100.4,118,100.3,118.5z M82.9,115.2h3.6l2.7,7.6l2.7-7.6h3.6v10.9
		H93v-7.2l-2.7,7.2h-2.5l-2.5-7.2v7.2h-2.5V115.2z M70.3,115.2h9.7v10.9h-2.9v-8.6h-3.9v4.9c0,1.2-0.1,2.1-0.4,2.6
		c-0.3,0.5-0.6,0.8-1,1c-0.3,0.2-0.9,0.2-1.7,0.2c-0.5,0-1.1-0.1-1.8-0.2V124c0.1,0,0.2,0,0.5,0c0.3,0,0.5,0,0.7,0
		c0.4,0,0.6-0.1,0.7-0.4c0.1-0.3,0.1-1,0.1-2.1V115.2z M62.3,120.1l-2.1-5.6l-2,5.6H62.3z M67.9,126.1h-3.3l-1.3-3.4h-6l-1.2,3.4
		h-3.2l5.9-15h3.2L67.9,126.1z"/>
	<path id="XMLID_6_" class="st9" d="M132.3,115.2h2.9v10.9h-2.9V115.2z M123,124.3h2.7c0.7,0,1.2-0.1,1.5-0.3
		c0.3-0.2,0.5-0.6,0.5-1.1c0-0.5-0.2-0.9-0.6-1.1c-0.4-0.2-1.1-0.3-2.2-0.3H123V124.3z M120.1,115.2h2.9v4.5h2.9
		c1.1,0,2,0.1,2.6,0.2c0.6,0.2,1.1,0.5,1.5,1c0.4,0.5,0.6,1.2,0.6,1.9c0,1.1-0.4,1.8-1.1,2.4c-0.7,0.5-1.8,0.8-3.3,0.8h-6.2V115.2z
		 M108.5,115.2h9.9v2.3h-3.5v8.6H112v-8.6h-3.5V115.2z M104.1,120.9c-0.4,0.1-1,0.3-1.8,0.4c-0.8,0.2-1.3,0.3-1.6,0.5
		c-0.4,0.3-0.6,0.6-0.6,1c0,0.4,0.1,0.8,0.4,1c0.3,0.3,0.7,0.4,1.2,0.4c0.5,0,1-0.2,1.5-0.5c0.4-0.3,0.6-0.6,0.7-1
		c0.1-0.2,0.1-0.7,0.1-1.4V120.9z M100.3,118.5l-2.6-0.5c0.3-1.1,0.8-1.8,1.5-2.3c0.7-0.5,1.8-0.8,3.2-0.8c1.3,0,2.2,0.2,2.9,0.5
		c0.6,0.3,1.1,0.7,1.3,1.2c0.3,0.5,0.4,1.3,0.4,2.6l0,3.4c0,1,0,1.7,0.1,2.1c0.1,0.5,0.3,0.9,0.5,1.5h-2.9c-0.1-0.2-0.2-0.5-0.3-0.9
		c0-0.2-0.1-0.3-0.1-0.3c-0.5,0.5-1,0.8-1.6,1.1c-0.6,0.2-1.2,0.4-1.8,0.4c-1.1,0-2-0.3-2.7-0.9c-0.7-0.6-1-1.4-1-2.3
		c0-0.6,0.1-1.2,0.4-1.6c0.3-0.5,0.7-0.9,1.2-1.1c0.5-0.3,1.3-0.5,2.3-0.7c1.3-0.3,2.3-0.5,2.8-0.7v-0.3c0-0.6-0.1-0.9-0.4-1.2
		c-0.3-0.2-0.8-0.4-1.6-0.4c-0.5,0-0.9,0.1-1.2,0.3C100.7,117.7,100.4,118,100.3,118.5z M82.9,115.2h3.6l2.7,7.6l2.7-7.6h3.6v10.9
		H93v-7.2l-2.7,7.2h-2.5l-2.5-7.2v7.2h-2.5V115.2z M70.3,115.2h9.7v10.9h-2.9v-8.6h-3.9v4.9c0,1.2-0.1,2.1-0.4,2.6
		c-0.3,0.5-0.6,0.8-1,1c-0.3,0.2-0.9,0.2-1.7,0.2c-0.5,0-1.1-0.1-1.8-0.2V124c0.1,0,0.2,0,0.5,0c0.3,0,0.5,0,0.7,0
		c0.4,0,0.6-0.1,0.7-0.4c0.1-0.3,0.1-1,0.1-2.1V115.2z M62.3,120.1l-2.1-5.6l-2,5.6H62.3z M67.9,126.1h-3.3l-1.3-3.4h-6l-1.2,3.4
		h-3.2l5.9-15h3.2L67.9,126.1z"/>
	<polygon id="XMLID_5_" class="st10" points="71,92.2 71,5.1 75.5,5.1 75.5,92.2 73.5,94.3 73.1,94.3 	"/>
	<polygon id="XMLID_4_" class="st11" points="163.7,33.3 118.5,47.5 73.3,61.6 73.3,33.3 73.3,5.1 118.5,19.2 	"/>
	<path id="XMLID_3_" class="st12" d="M83.1,33.2c0,4.3,9.5,7.9,21.1,7.9c11.6,0,21.1-3.5,21.1-7.9s-9.5-7.9-21.1-7.9
		C92.6,25.3,83.1,28.9,83.1,33.2"/>
</g>
</svg>
