<?xml version="1.0" encoding="utf-8"?>
<!-- Generator: Adobe Illustrator 19.0.0, SVG Export Plug-In . SVG Version: 6.00 Build 0)  -->
<svg version="1.0" id="Layer_1" xmlns="http://www.w3.org/2000/svg" xmlns:xlink="http://www.w3.org/1999/xlink" x="0px" y="0px"
	 viewBox="0 0 185 170" style="enable-background:new 0 0 185 170;" xml:space="preserve">
<style type="text/css">
	.st0{fill-rule:evenodd;clip-rule:evenodd;fill:#D1D2D3;}
	.st1{fill-rule:evenodd;clip-rule:evenodd;fill:#4F1211;}
	.st2{fill-rule:evenodd;clip-rule:evenodd;fill:#414142;}
	.st3{fill-rule:evenodd;clip-rule:evenodd;fill:#808184;}
	.st4{fill-rule:evenodd;clip-rule:evenodd;fill:#EF413E;}
	.st5{fill-rule:evenodd;clip-rule:evenodd;fill:#F2665D;}
	.st6{fill-rule:evenodd;clip-rule:evenodd;fill:#6E6F71;}
	.st7{fill-rule:evenodd;clip-rule:evenodd;fill:#E7E7E7;}
	.st8{fill-rule:evenodd;clip-rule:evenodd;fill:#6C8BC6;}
	.st9{fill-rule:evenodd;clip-rule:evenodd;fill:#FFFFFF;}
	.st10{fill-rule:evenodd;clip-rule:evenodd;fill:#6C507C;}
	.st11{fill-rule:evenodd;clip-rule:evenodd;fill:#F38480;}
	.st12{fill-rule:evenodd;clip-rule:evenodd;fill:#FABFB7;}
	.st13{fill-rule:evenodd;clip-rule:evenodd;fill:#AF1F24;}
	.st14{fill:#AF1F24;}
	.st15{fill-rule:evenodd;clip-rule:evenodd;fill:#C6C3E0;}
	.st16{fill-rule:evenodd;clip-rule:evenodd;fill:#485F87;}
	.st17{fill-rule:evenodd;clip-rule:evenodd;fill:#CC8B5D;}
	.st18{fill-rule:evenodd;clip-rule:evenodd;fill:#A25742;}
	.st19{fill-rule:evenodd;clip-rule:evenodd;fill:#89181A;}
	.st20{fill-rule:evenodd;clip-rule:evenodd;fill:#C96D38;}
	.st21{fill-rule:evenodd;clip-rule:evenodd;fill:#57C4CF;}
	.st22{fill-rule:evenodd;clip-rule:evenodd;fill:#F9B16D;}
	.st23{fill:#231F20;}
	.st24{fill-rule:evenodd;clip-rule:evenodd;fill:#E9E3B1;}
	.st25{fill-rule:evenodd;clip-rule:evenodd;fill:#879877;}
	.st26{fill-rule:evenodd;clip-rule:evenodd;fill:#504C6A;}
	.st27{fill-rule:evenodd;clip-rule:evenodd;fill:#ADBC74;}
	.st28{fill-rule:evenodd;clip-rule:evenodd;fill:#231F20;}
	.st29{fill:#504C6A;}
	.st30{fill-rule:evenodd;clip-rule:evenodd;fill:#F48245;}
	.st31{fill:#F48245;}
	.st32{fill-rule:evenodd;clip-rule:evenodd;fill:#67526B;}
	.st33{fill-rule:evenodd;clip-rule:evenodd;fill:#311F31;}
</style>
<g id="XMLID_34_">
	<g id="XMLID_96_">
		<path id="XMLID_145_" class="st0" d="M27.9,115h-5.8c-1.9,3.6-1.9,7.9,0,11.5h5.8V115z"/>
		<polygon id="XMLID_144_" class="st1" points="94.1,143.8 112.6,143.8 112.6,125.6 34.5,125.6 35.5,139.6 45.8,139.6 56.9,133.2 		
			"/>
		<path id="XMLID_143_" class="st2" d="M43.6,140c0,0.3,0,0.6,0,0.9c0,0.3,0,0.6,0,0.9v11.6H50c3.6,0,6.4-5.6,6.4-12.5
			c0-6.9-2.9-12.5-6.4-12.5h-6.4V140z"/>
		<path id="XMLID_142_" class="st3" d="M43.6,128.4c-3.6,0-6.4,5.6-6.4,12.5c0,6.9,2.9,12.5,6.4,12.5c3.6,0,6.4-5.6,6.4-12.5
			C50,134,47.1,128.4,43.6,128.4"/>
		<path id="XMLID_141_" class="st0" d="M43.6,134.2c-1.3,0-2.3,3-2.3,6.7c0,3.7,1,6.7,2.3,6.7c1.3,0,2.3-3,2.3-6.7
			C45.9,137.2,44.8,134.2,43.6,134.2"/>
		<path id="XMLID_140_" class="st2" d="M101.2,140c0,0.3,0,0.6,0,0.9c0,0.3,0,0.6,0,0.9v11.6h6.4c3.6,0,6.4-5.6,6.4-12.5
			c0-6.9-2.9-12.5-6.4-12.5h-6.4V140z"/>
		<path id="XMLID_139_" class="st3" d="M101.2,128.4c-3.6,0-6.4,5.6-6.4,12.5c0,6.9,2.9,12.5,6.4,12.5c3.6,0,6.4-5.6,6.4-12.5
			C107.7,134,104.8,128.4,101.2,128.4"/>
		<path id="XMLID_138_" class="st0" d="M101.2,134.2c-1.3,0-2.3,3-2.3,6.7c0,3.7,1,6.7,2.3,6.7c1.3,0,2.3-3,2.3-6.7
			C103.6,137.2,102.5,134.2,101.2,134.2"/>
		<path id="XMLID_137_" class="st2" d="M150,140c0,0.3,0,0.6,0,0.9c0,0.3,0,0.6,0,0.9v11.6h6.4c3.6,0,6.4-5.6,6.4-12.5
			c0-6.9-2.9-12.5-6.4-12.5H150V140z"/>
		<path id="XMLID_136_" class="st2" d="M150,128.4c-3.6,0-6.4,5.6-6.4,12.5c0,6.9,2.9,12.5,6.4,12.5c3.6,0,6.4-5.6,6.4-12.5
			C156.5,134,153.6,128.4,150,128.4"/>
		<path id="XMLID_135_" class="st2" d="M150,134.2c-1.3,0-2.3,3-2.3,6.7c0,3.7,1,6.7,2.3,6.7c1.3,0,2.3-3,2.3-6.7
			C152.4,137.2,151.3,134.2,150,134.2"/>
		<path id="XMLID_134_" class="st4" d="M55.1,143.8h39c-0.3-1.3-0.4-2.7-0.4-4.2c0-6.9,3.1-12.5,6.9-12.5h4.1
			c3.8,0,6.9,5.6,6.9,12.5c0,0.9-0.1,1.9-0.2,2.7c-0.1,0.4,0.1,0.7,0.3,1c0.3,0.3,0.6,0.4,1,0.4h60.6l5.1-19
			c0.9-3.4,0.6-4.9-2.7-5.9l-32.5-9.4l-6-10.4c-1.8-3.2-4.6-5.5-7.9-6.6h0l0,0c-0.9-0.3-1.8-0.5-2.7-0.6c-0.5-0.1-0.9-0.2-1.4-0.3
			c-8.2-1.8-15.4-2.6-23.8-2.6h-23c-8.4,0-15.6,0.8-23.8,2.6c-1.4,0.3-2.8,0.6-4.2,1c-5,1.2-6.4,3.7-10.2,7.3l-10.9,10.5l-3.9,2.2
			l-1.3,2.3c-2.1,3.7-2.1,7.8,0,11.5l6.3,10.9l3.8,2.2c0.4,0.2,0.9,0.2,1.3,0c0.4-0.2,0.6-0.6,0.7-1.1c0.3-6.4,3.3-11.4,6.8-11.4
			h4.1c3.8,0,6.9,5.6,6.9,12.5c0,0.9-0.1,1.9-0.2,2.7c0,0.4,0.1,0.7,0.3,1C54.4,143.7,54.7,143.8,55.1,143.8"/>
		<path id="XMLID_133_" class="st5" d="M174.8,138.1l3.5-13.2c0.3-1.2,0.9-2.3,0.4-3.4l-53.2,0.1l-4.4,16.5H174.8z"/>
		<path id="XMLID_132_" class="st0" d="M174.9,134.4h-56.7c-1.6,0-2.9,0.6-4,1.6l-0.6,0.6v6.7l0.6,0.6c1.1,1.1,2.4,1.6,4,1.6h56.7
			c2.3,0,4.2-0.8,5.8-2.4l0.3-0.3v-5.8l-0.3-0.3C179.1,135.2,177.2,134.4,174.9,134.4"/>
		<path id="XMLID_131_" class="st6" d="M122.1,134.4h-3.8c-1.6,0-2.9,0.6-4,1.6l-0.6,0.6v6.7l0.6,0.6c1.1,1.1,2.4,1.6,4,1.6h3.8
			l-1.6-2.7v-5.7L122.1,134.4z"/>
		<path id="XMLID_130_" class="st7" d="M174.9,134.4h-56.7c-1.6,0-2.9,0.6-4,1.6l-0.6,0.6v0.5H181l-0.3-0.3
			C179.1,135.2,177.2,134.4,174.9,134.4"/>
		<rect id="XMLID_129_" x="113.7" y="139.2" class="st3" width="67.3" height="3.6"/>
		<path id="XMLID_128_" class="st8" d="M91.2,93.9c12.1-0.7,24.3-0.8,36.4,0c2.8,0.2,5.1,1.4,6.5,3.8l5.8,10c0.3,0.5,0.3,1,0,1.5
			c-0.3,0.5-0.8,0.8-1.3,0.8c-12.8-1.1-25.6-1.1-38.4,0c-2.8,0.2-5.2-1.4-6.6-3.8l-4.7-8.2c-0.5-0.9-0.5-1.8,0-2.7
			C89.3,94.4,90.2,93.9,91.2,93.9"/>
		<path id="XMLID_127_" class="st9" d="M115.5,93.4c4,0.1,8.1,0.2,12.1,0.5c2.8,0.2,5.1,1.4,6.5,3.8l5.8,10c0.3,0.5,0.3,1,0,1.5
			c-0.1,0.2-0.3,0.4-0.5,0.6C133.2,102,124.9,96.3,115.5,93.4"/>
		<path id="XMLID_126_" class="st3" d="M174,134.4h-48.2c-0.5,0-1-0.2-1.3-0.6c-0.3-0.4-0.4-0.9-0.3-1.4l1.5-6.1
			c0.3-1.3,1.5-2.2,2.8-2.2h46c0.5,0,1,0.2,1.3,0.6c0.3,0.4,0.4,0.9,0.3,1.4L174,134.4z"/>
		<path id="XMLID_125_" class="st10" d="M85.7,108.2l-3.6-13.3c-0.2-0.6-0.7-1-1.4-1h-8.6c-0.8,0-1.4,0.6-1.4,1.4v13.3
			c0,0.8,0.6,1.4,1.4,1.4h12.2c0.5,0,0.8-0.2,1.1-0.6C85.7,109,85.8,108.6,85.7,108.2"/>
		<path id="XMLID_124_" class="st10" d="M65.8,108.7v-14c0-0.5-0.4-0.8-0.8-0.8h-5c-0.4,0-0.7,0.2-0.8,0.6l-3.7,13.9
			c-0.1,0.4,0,0.8,0.2,1.1c0.3,0.3,0.6,0.5,1,0.5l7.7,0C65.2,109.9,65.8,109.4,65.8,108.7"/>
		<path id="XMLID_123_" class="st10" d="M50,109.9l4.6-15c0.1-0.3,0-0.5-0.1-0.7c-0.2-0.2-0.4-0.3-0.7-0.3c-2.8,0-5.2,1.1-7.2,3.1
			l-9.7,9.7c-0.5,0.5-0.6,1.2-0.4,1.8l0.2,0.5c0.3,0.6,0.8,1,1.5,1L50,109.9z"/>
		<path id="XMLID_122_" class="st0" d="M30.5,137.4H27l-6.4-1.7v-5.6h5.1c2.5,0,4.6,2,4.7,4.5L30.5,137.4z"/>
		<path id="XMLID_121_" class="st9" d="M129.8,125.2c-1.2,0-2.2,1.9-2.2,4.2c0,2.3,1,4.2,2.2,4.2c0.2,0,0.4,0,0.5,0
			c1.5,0,2.7-1.9,2.7-4.2c0-2.3-1.2-4.2-2.7-4.2C130.1,125.2,129.9,125.2,129.8,125.2"/>
		<polygon id="XMLID_120_" class="st2" points="168.7,124 165.9,134.4 133.7,134.4 136.5,124 		"/>
		<path id="XMLID_119_" class="st9" d="M161.4,132.9h-19.6c-0.7,0-1.2,0.5-1.2,1.2v3.8c0,0.6,0.5,1.2,1.2,1.2h19.6
			c0.6,0,1.2-0.5,1.2-1.2v-3.8C162.6,133.5,162,132.9,161.4,132.9"/>
		<path id="XMLID_110_" class="st11" d="M125.6,122.1C125.6,122.1,125.6,122.1,125.6,122.1C125.6,122.1,125.6,122.1,125.6,122.1
			 M125.6,122.4C125.6,122.4,125.6,122.3,125.6,122.4C125.6,122.3,125.6,122.4,125.6,122.4z M125.6,122.5
			C125.6,122.4,125.6,122.4,125.6,122.5C125.6,122.4,125.6,122.4,125.6,122.5z M125.6,123.5C125.6,123.5,125.6,123.4,125.6,123.5
			C125.6,123.4,125.6,123.5,125.6,123.5z M176.3,132.5L176.3,132.5L176.3,132.5z M178.3,124.9l-2,7.6l2-8.5h-9.6l-31.5,0l41.1,0
			l-2,8.5L178.3,124.9z M82.5,91.8H69.7H59h-5.2c0.2-0.1,0.5-0.1,0.7-0.2c8.2-1.8,15.4-2.6,23.8-2.6h23c8.4,0,15.6,0.8,23.8,2.6
			c0.5,0.1,0.9,0.2,1.4,0.3c0.9,0.1,1.9,0.3,2.7,0.6l0,0h0c3.3,1.1,6,3.4,7.9,6.6l6,10.4l32.6,9.4c1.7,0.5,3.1,1.2,3,2.5l-53.2,0
			l0,0c-0.4-1.2-1.4-2.2-2.7-2.6l-33.4-9l-3.7-13.7c-0.4-1.6-1.2-2.9-2.3-4.1C83.1,92,82.8,91.8,82.5,91.8z M100.2,109.9
			c12.8-1.1,25.6-1.1,38.4,0c0.6,0,1-0.3,1.3-0.8c0.3-0.5,0.3-1,0-1.5l-5.8-10c-1.4-2.4-3.8-3.6-6.5-3.8c-12.1-0.8-24.3-0.7-36.4,0
			c-1,0.1-1.8,0.5-2.3,1.3c-0.5,0.9-0.5,1.8,0,2.7l4.7,8.2C95,108.6,97.4,110.2,100.2,109.9z"/>
		<path id="XMLID_109_" class="st12" d="M54,91.8l5.3,0.1h10.4h12.8c0.3,0,0.6,0.1,0.8,0.4c14.9-1.1,29.8-1.1,44.7,0
			c-0.5-0.1-0.9-0.2-1.4-0.3c-0.5-0.1-0.9-0.2-1.4-0.3c-8.2-1.8-15.4-2.6-23.8-2.6H78.3c-8.4,0-15.6,0.8-23.9,2.6L54,91.8L54,91.8z"
			/>
		<path id="XMLID_108_" class="st9" d="M170.9,125.2c-1.2,0-2.2,1.9-2.2,4.2c0,2.3,1,4.2,2.2,4.2c0.2,0,0.4,0,0.5,0
			c1.5,0,2.7-1.9,2.7-4.2c0-2.3-1.2-4.2-2.7-4.2C171.3,125.2,171.1,125.2,170.9,125.2"/>
		<path id="XMLID_107_" class="st13" d="M87.1,143.8l-1.4-2.4l-0.2-0.3c-0.2-0.3-0.3-0.7-0.5-1.1h8.6c0,1.3,0.2,2.6,0.4,3.7H87.1z"
			/>
		<path id="XMLID_106_" class="st13" d="M85.7,141.4l1.4,2.4l-22.5,0l-1.5-2.7c-0.2-0.3-0.3-0.7-0.4-1.1H81h4.1
			c0.1,0.4,0.3,0.7,0.5,1.1L85.7,141.4z"/>
		<path id="XMLID_105_" class="st13" d="M63,141.2l1.5,2.7l-8.3,0h-1.1c-0.4,0-0.7-0.1-1-0.4c-0.3-0.3-0.4-0.6-0.3-1
			c0.1-0.7,0.1-1.5,0.2-2.3h2.4h6.1C62.6,140.5,62.8,140.8,63,141.2"/>
		<path id="XMLID_104_" class="st5" d="M86.1,118.3l3.2-8.2l33.4,9c1.3,0.4,2.3,1.4,2.7,2.6H85.2C85.4,120.5,85.7,119.4,86.1,118.3"
			/>
		<path id="XMLID_103_" class="st5" d="M89.3,110l-3.2,8.2c-0.4,1.1-0.8,2.2-1,3.3H62.8c0.3-1.3,0.8-2.5,1.4-3.8L68,110H89.3z"/>
		<path id="XMLID_102_" class="st5" d="M68,110l-3.8,7.7c-0.6,1.3-1.1,2.5-1.4,3.8H47.5c0.3-1.3,0.8-2.5,1.4-3.8l3.8-7.7H68z"/>
		<path id="XMLID_101_" class="st5" d="M52.7,110l-3.8,7.7c-0.6,1.3-1.1,2.5-1.4,3.8H27.9h-5.3c-0.2-2.2,0.4-4.5,1.6-6.5l1.3-2.3
			l3.9-2.2l0.5-0.5H52.7z"/>
		<path id="XMLID_100_" class="st14" d="M86.9,143.8l-1.7-2.9c-0.2-0.3-0.3-0.7-0.4-1c-0.1-0.4-0.1-0.7-0.1-1.1v-13.9h0
			c0-1.2,0.1-2.3,0.3-3.3c0.2-1.1,0.5-2.1,0.9-3.2l3.3-8.4l-0.9,0l-3.2,8.1c-0.4,1.1-0.8,2.2-1,3.3c-0.2,1.1-0.3,2.3-0.3,3.5h0
			l0,13.9c0,0.5,0,0.9,0.2,1.3c0.1,0.4,0.3,0.8,0.5,1.2l1.4,2.5L86.9,143.8z"/>
		<path id="XMLID_99_" class="st14" d="M69.2,91.8L69.2,91.8c-0.6,0.7-0.9,1.3-1.2,2c-0.3,0.7-0.4,1.4-0.4,2.2l0,0v13.8l-3.8,7.7
			c-0.7,1.3-1.1,2.7-1.4,4c-0.3,1.4-0.5,2.7-0.5,4.2v13c0,0.5,0.1,0.9,0.2,1.3c0.1,0.4,0.3,0.8,0.5,1.2l0,0l1.4,2.5l0.5,0H65v0v-0.1
			l-0.1-0.1l-1.5-2.7l0,0c-0.2-0.3-0.3-0.7-0.4-1c-0.1-0.3-0.1-0.7-0.1-1.1v-13c0-1.4,0.1-2.8,0.4-4c0.3-1.3,0.8-2.5,1.4-3.8
			l3.8-7.8l0-0.1v-0.1V96l0,0c0-0.7,0.1-1.3,0.3-1.9c0.2-0.6,0.5-1.1,1-1.7l0.6-0.6L69.2,91.8z"/>
		<path id="XMLID_98_" class="st14" d="M47.5,127.2v-1.4c0-1.4,0.1-2.8,0.4-4c0.3-1.3,0.8-2.5,1.4-3.8l3.8-7.8l0,0l0,0L57,95.5
			c0.1-0.5,0.3-0.9,0.5-1.3c0.2-0.4,0.5-0.8,0.9-1.1l0,0l1.2-1.2l-1.3,0l-0.6,0.6v0c-0.4,0.4-0.8,0.9-1,1.3c-0.3,0.5-0.5,1-0.6,1.6
			l-3.9,14.5l-3.8,7.8c-0.7,1.3-1.1,2.7-1.4,4c-0.3,1.4-0.5,2.7-0.5,4.2v1.4H47.5z"/>
		<path id="XMLID_97_" class="st10" d="M119.4,109.1c2.6,0,5.2,0,7.8,0.1c-5.4-8.1-13.7-13.8-23.2-15.9c-3.9,0.1-7.7,0.2-11.6,0.4
			C103,95.4,112.6,100.9,119.4,109.1"/>
	</g>
	<path id="XMLID_95_" class="st15" d="M122.3,43.4L97.1,55.4c-0.7,0.3-2.3,0.7-3.8,0.7l-3.6,0.2c-1,0.1-1.6-0.1-1.2-0.3l9.4-6.2
		l-8.5,2.3c-2.1,0.6-4.1,0.3-6-0.7c-1.8-1-3.7-1.2-5.7-0.7l-3.1,0.8l-5.4,1.4L68,52.4l3.9-2.3L61.3,44L58,42.2l7.8-2.1l13.1,3.5
		l60.9-16.3c4.2-1.1,8-1.1,12.2,0l2.8,0.7c0.7,0.2,1.1,0.7,1.3,1.3l0.1,0.3c0.2,0.8-0.1,1.7-0.9,2.1l-4.5,2.6
		c-2.9,1.7-5.6,2.8-8.9,3.7L122.3,43.4z"/>
	<g id="XMLID_70_">
		<path id="XMLID_94_" class="st16" d="M43.8,74.2h1.5c3.1,0,5.6,2.5,5.6,5.6v6.7h-0.5v8.3c0,3.9-3.2,7.1-7.1,7.1h-1.9
			c-3.9,0-7.1-3.2-7.1-7.1v-6c0-1.1,0.7-2,1.6-2.3c1.3-0.5,2.2-1.7,2.2-3.1v-3.6C38.2,76.7,40.8,74.2,43.8,74.2"/>
		<polygon id="XMLID_93_" class="st16" points="39.4,114 39.4,152.4 45.7,152.4 45.7,116.3 48.1,116.3 48.1,152.4 53.7,152.4 
			53.7,115.8 53.7,114 		"/>
		<rect id="XMLID_92_" x="38.6" y="141.5" class="st17" width="7.7" height="6.8"/>
		<rect id="XMLID_91_" x="47" y="141.5" class="st18" width="7.7" height="6.8"/>
		<path id="XMLID_90_" class="st19" d="M51.4,152.4h9.4v-3.2c0-2.5-2.1-4.6-4.6-4.6H56c-2.5,0-4.6,2-4.6,4.6V152.4z"/>
		<path id="XMLID_89_" class="st20" d="M37.7,152.4h5.8v-5.8H42c-2.4,0-4.3,1.9-4.3,4.3V152.4z"/>
		<path id="XMLID_88_" class="st20" d="M42.5,152.4h9.4v-3.2c0-2.5-2-4.6-4.6-4.6h-0.3c-2.5,0-4.6,2-4.6,4.6V152.4z"/>
		<path id="XMLID_85_" class="st21" d="M39.4,107.6l-7.9-7.9c-1.5-1.5-1.8-3.8-0.7-5.7l7-12.1c1.1-1.9,2.9-2.9,5-2.9h5.5
			c3,0,5.4,2.4,5.4,5.4V114H39.4V107.6z M39.4,88.2l-4.7,8.1l4.7,5.7V88.2z"/>
		<polygon id="XMLID_84_" class="st22" points="39.4,107.6 42.1,104.9 43.6,106.3 		"/>
		<path id="XMLID_83_" class="st18" d="M43,65.2h-0.5c-0.4,0-0.8,0.3-0.8,0.8v0.7c0,0.4-0.3,0.8-0.8,0.8h-0.3
			c-0.4,0-0.8,0.3-0.8,0.8v0.4c0,0.4-0.3,0.8-0.8,0.8H39c-0.4,0-0.8,0.3-0.8,0.8v0.3c0,0.4-0.3,0.8-0.8,0.8h-0.4
			c-0.4,0-0.8,0.3-0.8,0.8V72c0,0.6,0.5,1,1,1h1c0.7,0,1.3,0.6,1.3,1.3v0.2c0,0.7,0.6,1.3,1.3,1.3h11.5c0.7,0,1.3-0.6,1.3-1.3v-0.2
			c0-0.7,0.6-1.3,1.3-1.3h1.6c0.4,0,0.8-0.3,0.8-0.8v0c0-0.4-0.3-0.8-0.8-0.8h-0.1c-0.4,0-0.8-0.3-0.8-0.8v-0.1
			c0-0.4-0.3-0.8-0.8-0.8h-0.2c-0.4,0-0.8-0.3-0.8-0.8v-0.8h-0.6c-0.4,0-0.8-0.3-0.8-0.8v-0.3c0-0.4-0.3-0.8-0.8-0.8h-0.6V66
			c0-0.4-0.3-0.8-0.8-0.8H43z"/>
		<path id="XMLID_82_" class="st22" d="M50.2,79c0,1.6-1.3,3-3,3c-1.6,0-3-1.3-3-3v0V73h5.9V79z"/>
		<path id="XMLID_81_" class="st22" d="M46.2,76h3.3c1.7,0,3.2-1.4,3.2-3.2V62.2c0-2.6-2.2-4.8-4.8-4.8h0c-2.6,0-4.8,2.2-4.8,4.8
			v10.6C43,74.6,44.5,76,46.2,76"/>
		<path id="XMLID_80_" class="st4" d="M52.9,63.8v-1.9c0-3-2.4-5.4-5.4-5.4h0c-3,0-5.4,2.4-5.4,5.4v1.9v1.4h18.7v-1.4H52.9z"/>
		<path id="XMLID_76_" class="st23" d="M53.7,66.4h-2.6c0,0-0.1,0-0.1,0v0c0,0,0,0.1,0,0.1v0.7c0,0,0,0.1,0,0.1l0,0c0,0,0.1,0,0.1,0
			h2.6c0,0,0.1,0,0.1,0h0c0,0,0-0.1,0-0.1v-0.7C53.8,66.5,53.8,66.5,53.7,66.4C53.7,66.4,53.7,66.4,53.7,66.4 M47.9,66.4h-2.6
			c0,0-0.1,0-0.1,0v0c0,0,0,0.1,0,0.1v0.7c0,0,0,0.1,0,0.1l0,0c0,0,0,0,0.1,0h2.6c0,0,0.1,0,0.1,0l0,0c0,0,0-0.1,0-0.1v-0.7
			C48,66.5,48,66.5,47.9,66.4C48,66.4,47.9,66.4,47.9,66.4z M51.1,65.2h2.6c0.4,0,0.7,0.2,1,0.4c0.3,0.3,0.4,0.6,0.4,1v0.7
			c0,0.4-0.2,0.7-0.4,1v0c-0.3,0.3-0.6,0.4-1,0.4h-2.6c-0.4,0-0.7-0.2-1-0.4v0h0c-0.3-0.3-0.4-0.6-0.4-1v-0.5l-0.2-0.2h0l0,0
			l-0.2,0.2v0.4c0,0.4-0.2,0.7-0.4,1v0c-0.3,0.3-0.6,0.4-1,0.4h-2.6c-0.4,0-0.7-0.2-1-0.4v0h0c-0.2-0.3-0.4-0.6-0.4-1v-0.7
			c0-0.4,0.2-0.7,0.4-1h0c0.3-0.3,0.6-0.4,1-0.4h2.6c0.4,0,0.7,0.1,0.9,0.4c0.2-0.1,0.4-0.2,0.7-0.2c0.2,0,0.4,0.1,0.6,0.2
			C50.4,65.3,50.7,65.2,51.1,65.2z"/>
		<polygon id="XMLID_75_" class="st21" points="53.8,81.5 57.7,96.3 53.7,105.5 52.9,105.5 48.4,95 50.8,79.6 		"/>
		<path id="XMLID_74_" class="st16" d="M36.4,93.4l3.1-5.3c1.3-2.2,1.8-4.3,1.8-6.8v-2.7h3v2.6c0,2.5-0.6,4.7-1.8,6.8l-3.1,5.3H36.4
			z"/>
		<path id="XMLID_73_" class="st16" d="M50.8,78.6L50.8,78.6c1.6,0,3,1.3,3,2.9v11.9h0c-1.6,0-2.9-1.3-2.9-2.9V78.6z"/>
		<polygon id="XMLID_72_" class="st22" points="53.5,107.6 52.2,104.9 51.4,106.3 		"/>
		<path id="XMLID_71_" class="st9" d="M45.7,63.8h7h0.2v-0.6c0-0.3-0.1-0.5-0.2-0.8c-0.3-0.8-0.8-1.5-1.5-2c-1.2-0.7-2.6-0.7-3.8,0
			C46.2,61.1,45.6,62.4,45.7,63.8"/>
	</g>
	<g id="XMLID_49_">
		<path id="XMLID_69_" class="st22" d="M97.8,109.9h-3.5v12.1l-1.8,0.5l1.2,4.5c0.1,0.5,0.5,0.8,1,0.8c1.4,0.1,2.6-0.3,3.8-1
			c0.4-0.3,0.6-0.8,0.5-1.3l-1.2-4.5V109.9z"/>
		<path id="XMLID_68_" class="st22" d="M56.5,109.9H60v12.1l1.8,0.5l-1.2,4.5c-0.1,0.5-0.5,0.8-1,0.8c-1.4,0.1-2.6-0.3-3.8-1
			c-0.4-0.3-0.6-0.8-0.5-1.3l1.2-4.5V109.9z"/>
		<rect id="XMLID_67_" x="66" y="126.1" class="st1" width="22.2" height="4.4"/>
		<rect id="XMLID_66_" x="82.1" y="128.8" class="st1" width="6" height="22.2"/>
		<rect id="XMLID_65_" x="66" y="128.8" class="st1" width="6" height="22.2"/>
		<polygon id="XMLID_64_" class="st24" points="63.2,152.4 63.2,149.6 66,147.9 64.9,146 70,146 70,147.9 72.1,147.9 72.1,152.4 
			63.2,152.4 		"/>
		<polygon id="XMLID_63_" class="st24" points="91,152.4 91,149.6 88.2,147.9 89.3,146 84.2,146 84.2,147.9 82.1,147.9 82.1,152.4 
			91,152.4 		"/>
		<path id="XMLID_62_" class="st25" d="M89.5,88.7c3.2,1.2,5.5,4.4,5.5,8v19.1h-36V96.8c0-3.7,2.3-6.8,5.5-8
			c0.6-4.6,4.6-8.2,9.4-8.2h6C84.9,80.5,88.9,84.1,89.5,88.7"/>
		<path id="XMLID_61_" class="st9" d="M72.1,90.7h10.1c6.7,0,12.1,5.4,12.1,12.1V129H60v-26.2C60,96.1,65.4,90.7,72.1,90.7"/>
		<path id="XMLID_60_" class="st22" d="M76,74h2.2c4.2,0,7.6,3.4,7.6,7.6v3.8c0,2.8-2.3,5-5.1,5h-7.4c-2.8,0-5.1-2.3-5.1-5v-3.8
			C68.3,77.4,71.8,74,76,74"/>
		<path id="XMLID_59_" class="st26" d="M82.9,90.7h-0.8v19.1h16.7v-3.2C98.8,97.8,91.7,90.7,82.9,90.7"/>
		<path id="XMLID_58_" class="st26" d="M72.1,129V90.7c-6.7,0-12.1,5.4-12.1,12.1V129H72.1z"/>
		<path id="XMLID_57_" class="st26" d="M82.1,90.7V129h12.1v-26.2C94.2,96.1,88.8,90.7,82.1,90.7"/>
		<path id="XMLID_56_" class="st26" d="M71.3,90.7h0.8v19.1H55.4v-3.2C55.4,97.8,62.5,90.7,71.3,90.7"/>
		<path id="XMLID_55_" class="st27" d="M60,95.5c1.8-1.8,4.1-3.2,6.6-4L60,109.9V95.5z"/>
		<path id="XMLID_54_" class="st22" d="M82.1,90.7c0,2.8-2.3,5-5,5s-5-2.3-5-5V80.6h10.1V90.7z"/>
		<path id="XMLID_53_" class="st27" d="M94.2,95.5c-1.8-1.8-4.1-3.2-6.6-4l6.6,18.4V95.5z"/>
		<polygon id="XMLID_52_" class="st25" points="63.3,80 68.3,80 85.9,80 90.9,80 90.9,78.5 85.9,77.2 85.9,77.2 85.9,74.6 
			81.3,70.1 72.9,70.1 68.3,74.6 68.3,77.2 68.3,77.2 63.3,78.5 		"/>
		<path id="XMLID_51_" class="st28" d="M75.1,85.2c0.4-0.3,1-0.3,1.5,0c0.4,0.3,0.7,0.8,0.5,1.4c-0.5,0.9-1.5,1.4-2.5,1.4
			c-1,0-2-0.5-2.5-1.4C74.1,85.7,75.1,85.2,75.1,85.2"/>
		<path id="XMLID_50_" class="st28" d="M79.1,85.2c-0.4-0.3-1-0.3-1.5,0c-0.5,0.3-0.7,0.8-0.5,1.4c0.5,0.9,1.5,1.4,2.5,1.4
			c1,0,2-0.5,2.5-1.4C80.1,85.7,79.1,85.2,79.1,85.2"/>
	</g>
	<g id="XMLID_35_">
		<path id="XMLID_46_" class="st29" d="M23.9,112.4h-6.8h-0.6v-0.6V94.3v-0.6h0.6h6.8h0.6v0.6v17.4v0.6H23.9z M17.7,111.1h5.5V94.9
			h-5.5V111.1z"/>
		<path id="XMLID_45_" class="st16" d="M16,108.6H25c3.1,0,5.6,2.5,5.6,5.6v38.3H10.4v-38.3C10.4,111.1,12.9,108.6,16,108.6"/>
		<path id="XMLID_44_" class="st16" d="M17.1,96.1H24c0.8,0,1.5-0.7,1.5-1.5V94c0-0.8-0.7-1.5-1.5-1.5h-6.9c-0.8,0-1.5,0.7-1.5,1.5
			v0.6C15.6,95.4,16.3,96.1,17.1,96.1"/>
		<path id="XMLID_43_" class="st15" d="M25.4,94.3V94c0-0.8-0.7-1.5-1.5-1.5h-6.9c-0.8,0-1.5,0.7-1.5,1.5v0.3H25.4z"/>
		<path id="XMLID_42_" class="st30" d="M15.6,130.8h20.1c3.1,0,5.6,2.5,5.6,5.6v16.1H10v-16.1C10,133.3,12.5,130.8,15.6,130.8"/>
		<path id="XMLID_41_" class="st18" d="M7.5,152.4h36.3v-2.9c0-1.4-1.1-2.5-2.5-2.5H10c-1.4,0-2.5,1.1-2.5,2.5V152.4z"/>
		<path id="XMLID_40_" class="st31" d="M30.5,130.8v-2.3c0-0.4-0.2-0.7-0.4-1l0,0c-0.2-0.3-0.6-0.4-1-0.4h-6.8c-0.4,0-0.7,0.2-1,0.4
			c-0.3,0.3-0.4,0.6-0.4,1v2.3h-1.3v-2.3c0-0.7,0.3-1.4,0.8-1.9c0.5-0.5,1.1-0.8,1.9-0.8h6.8c0.7,0,1.4,0.3,1.9,0.8l0,0l0,0
			c0.5,0.5,0.8,1.1,0.8,1.9v2.3H30.5z"/>
		<path id="XMLID_39_" class="st1" d="M23,127.8h5.5c0.6,0,1.2-0.5,1.2-1.2v-0.5c0-0.6-0.5-1.2-1.2-1.2H23c-0.6,0-1.2,0.5-1.2,1.2
			v0.5C21.8,127.3,22.3,127.8,23,127.8"/>
		<path id="XMLID_38_" class="st32" d="M41.3,152.4H29.4v-16.1c0-3.1,2.5-5.6,5.6-5.6h0.8c3.1,0,5.6,2.5,5.6,5.6V152.4z"/>
		<rect id="XMLID_37_" x="29.4" y="147" class="st33" width="11.9" height="5.5"/>
		<path id="XMLID_36_" class="st33" d="M29.4,152.4V147c-1.4,0-2.5,1.1-2.5,2.5v2.9H29.4z"/>
	</g>
</g>
</svg>
