<?xml version="1.0" encoding="utf-8"?>
<!-- Generator: Adobe Illustrator 19.0.0, SVG Export Plug-In . SVG Version: 6.00 Build 0)  -->
<svg version="1.0" id="Layer_1" xmlns="http://www.w3.org/2000/svg" xmlns:xlink="http://www.w3.org/1999/xlink" x="0px" y="0px"
	 viewBox="0 0 185 170" style="enable-background:new 0 0 185 170;" xml:space="preserve">
<style type="text/css">
	.st0{fill:#F48245;}
	.st1{fill-rule:evenodd;clip-rule:evenodd;fill:#FAAE72;}
	.st2{fill-rule:evenodd;clip-rule:evenodd;fill:#EE7D66;}
	.st3{fill-rule:evenodd;clip-rule:evenodd;fill:#EF413E;}
	.st4{fill-rule:evenodd;clip-rule:evenodd;fill:#CCE6D2;}
	.st5{fill-rule:evenodd;clip-rule:evenodd;fill:#FEFAD6;}
	.st6{fill-rule:evenodd;clip-rule:evenodd;fill:#FFFFFF;}
	.st7{fill-rule:evenodd;clip-rule:evenodd;fill:#BB987F;}
	.st8{fill-rule:evenodd;clip-rule:evenodd;fill:#95D4D1;}
	.st9{fill-rule:evenodd;clip-rule:evenodd;fill:#E6CB9B;}
	.st10{fill-rule:evenodd;clip-rule:evenodd;fill:#CEA57B;}
	.st11{fill-rule:evenodd;clip-rule:evenodd;fill:#485F87;}
	.st12{fill:#3E8477;}
	.st13{fill-rule:evenodd;clip-rule:evenodd;fill:#0E8BCA;}
	.st14{fill-rule:evenodd;clip-rule:evenodd;fill:#C6E8F9;}
</style>
<g id="XMLID_2_">
	<path id="XMLID_61_" class="st0" d="M150.5,124.1c-0.3-0.2-0.7-0.1-0.9,0.2c-0.2,0.3-0.1,0.7,0.2,0.9l5.9,3.4
		c0.3,0.2,0.7,0.1,0.9-0.2c0.2-0.3,0.1-0.7-0.2-0.9L150.5,124.1z M140.2,119.7l2.8,1.6c0.3,0.2,0.7,0.1,0.9-0.2
		c0.2-0.3,0.1-0.7-0.2-0.9l-2.8-1.6C140.7,119,140.5,119.4,140.2,119.7z M43.2,62.2c-0.3-0.2-0.7-0.1-0.9,0.2
		c-0.2,0.3-0.1,0.7,0.2,0.9l2.8,1.6c0.2-0.4,0.4-0.8,0.7-1.1L43.2,62.2z M30.5,54.9c-0.3-0.2-0.7-0.1-0.9,0.2
		c-0.2,0.3-0.1,0.7,0.2,0.9l5.9,3.4c0.3,0.2,0.7,0.1,0.9-0.2c0.2-0.3,0.1-0.7-0.2-0.9L30.5,54.9z M156.9,108.2
		c-0.3-0.1-0.7,0.1-0.8,0.5c-0.1,0.3,0.1,0.7,0.5,0.8l6.6,1.8c0.3,0.1,0.7-0.1,0.8-0.5c0.1-0.3-0.1-0.7-0.5-0.8L156.9,108.2z
		 M145.9,106.6l3.2,0.8c0.3,0.1,0.7-0.1,0.8-0.5c0.1-0.3-0.1-0.7-0.5-0.8l-3.2-0.8C146.1,105.8,146,106.2,145.9,106.6z M37.2,76.1
		c-0.3-0.1-0.7,0.1-0.8,0.5c-0.1,0.3,0.1,0.7,0.5,0.8l3.2,0.8c0.1-0.4,0.2-0.8,0.3-1.3L37.2,76.1z M23.1,72.3
		c-0.3-0.1-0.7,0.1-0.8,0.5c-0.1,0.3,0.1,0.7,0.5,0.8l6.6,1.8c0.3,0.1,0.7-0.1,0.8-0.5c0.1-0.3-0.1-0.7-0.5-0.8L23.1,72.3z
		 M156.6,74.1c-0.3,0.1-0.5,0.4-0.5,0.8c0.1,0.3,0.4,0.6,0.8,0.5l6.6-1.8c0.3-0.1,0.6-0.4,0.5-0.8c-0.1-0.3-0.4-0.6-0.8-0.5
		L156.6,74.1z M146.2,78.2l3.2-0.8c0.3-0.1,0.6-0.4,0.5-0.8c-0.1-0.3-0.4-0.6-0.8-0.5l-3.2,0.8C146,77.4,146.1,77.8,146.2,78.2z
		 M36.9,106.2c-0.3,0.1-0.6,0.4-0.5,0.8c0.1,0.3,0.4,0.5,0.8,0.5l3.2-0.8c-0.1-0.4-0.2-0.8-0.3-1.2L36.9,106.2z M22.8,110
		c-0.3,0.1-0.5,0.4-0.5,0.8c0.1,0.3,0.4,0.6,0.8,0.5l6.6-1.8c0.3-0.1,0.5-0.4,0.5-0.8c-0.1-0.3-0.4-0.5-0.8-0.5L22.8,110z
		 M149.8,58.3c-0.3,0.2-0.4,0.6-0.2,0.9c0.2,0.3,0.6,0.4,0.9,0.2l5.9-3.4c0.3-0.2,0.4-0.6,0.2-0.9c-0.2-0.3-0.6-0.4-0.9-0.2
		L149.8,58.3z M140.9,65l2.8-1.6c0.3-0.2,0.4-0.6,0.2-0.9c-0.2-0.3-0.6-0.4-0.9-0.2l-2.8,1.6C140.5,64.2,140.7,64.6,140.9,65z
		 M42.5,120.3c-0.3,0.2-0.4,0.6-0.2,0.9c0.2,0.3,0.6,0.4,0.9,0.2l2.8-1.6c-0.2-0.4-0.4-0.7-0.6-1.1L42.5,120.3z M29.9,127.6
		c-0.3,0.2-0.4,0.6-0.2,0.9c0.2,0.3,0.6,0.4,0.9,0.2l5.9-3.4c0.3-0.2,0.4-0.6,0.2-0.9c-0.2-0.3-0.6-0.4-0.9-0.2L29.9,127.6z
		 M125.5,34.4c-0.2,0.3-0.1,0.7,0.2,0.9c0.3,0.2,0.7,0.1,0.9-0.2l3.4-5.9c0.2-0.3,0.1-0.7-0.2-0.9c-0.3-0.2-0.7-0.1-0.9,0.2
		L125.5,34.4z M121.1,44.7l1.6-2.8c0.2-0.3,0.1-0.7-0.2-0.9c-0.3-0.2-0.7-0.1-0.9,0.2L120,44C120.3,44.2,120.7,44.4,121.1,44.7z
		 M109.5,28c-0.1,0.3,0.1,0.7,0.5,0.8c0.3,0.1,0.7-0.1,0.8-0.5l1.8-6.6c0.1-0.3-0.1-0.7-0.5-0.8c-0.3-0.1-0.7,0.1-0.8,0.5L109.5,28z
		 M107.9,39l0.8-3.2c0.1-0.3-0.1-0.7-0.5-0.8c-0.3-0.1-0.7,0.1-0.8,0.5l-0.8,3.2C107.1,38.8,107.5,38.9,107.9,39z M75.5,28.4
		c0.1,0.3,0.5,0.5,0.8,0.5c0.3-0.1,0.6-0.4,0.5-0.8l-1.8-6.6c-0.1-0.3-0.4-0.6-0.8-0.5c-0.3,0.1-0.6,0.4-0.5,0.8L75.5,28.4z
		 M79.6,38.7l-0.8-3.2c-0.1-0.3-0.4-0.5-0.8-0.5c-0.3,0.1-0.6,0.4-0.5,0.8l0.8,3.2C78.7,38.9,79.2,38.8,79.6,38.7z M59.6,35.1
		c0.2,0.3,0.6,0.4,0.9,0.2c0.3-0.2,0.4-0.6,0.2-0.9l-3.4-5.9c-0.2-0.3-0.6-0.4-0.9-0.2c-0.3,0.2-0.4,0.6-0.2,0.9L59.6,35.1z
		 M66.3,44l-1.6-2.8c-0.2-0.3-0.6-0.4-0.9-0.2c-0.3,0.2-0.4,0.6-0.2,0.9l1.6,2.8C65.5,44.4,65.9,44.2,66.3,44z M46.1,45.7
		c0.3,0.3,0.7,0.3,0.9,0c0.3-0.3,0.3-0.7,0-0.9l-4.8-4.8c-0.3-0.3-0.7-0.3-0.9,0c-0.3,0.3-0.3,0.7,0,0.9L46.1,45.7z M54.8,52.6
		l-2.3-2.3c-0.3-0.3-0.7-0.3-0.9,0c-0.3,0.3-0.3,0.7,0,0.9l2.3,2.3C54.2,53.2,54.5,52.9,54.8,52.6z M133.7,133.3
		c0.3,0.3,0.7,0.3,0.9,0c0.3-0.3,0.3-0.7,0-0.9l-2.3-2.3c-0.3,0.3-0.6,0.6-0.9,0.9L133.7,133.3z M144.1,143.6c0.3,0.3,0.7,0.3,0.9,0
		c0.3-0.3,0.3-0.7,0-0.9l-4.8-4.8c-0.3-0.3-0.7-0.3-0.9,0c-0.3,0.3-0.3,0.7,0,0.9L144.1,143.6z M47,138.8c0.3-0.3,0.3-0.7,0-0.9
		c-0.3-0.3-0.7-0.3-0.9,0l-4.8,4.8c-0.3,0.3-0.3,0.7,0,0.9c0.3,0.3,0.7,0.3,0.9,0L47,138.8z M53.9,130.1l-2.3,2.3
		c-0.3,0.3-0.3,0.7,0,0.9c0.3,0.3,0.7,0.3,0.9,0l2.3-2.3C54.5,130.7,54.2,130.4,53.9,130.1z M134.6,51.2c0.3-0.3,0.3-0.7,0-0.9
		c-0.3-0.3-0.7-0.3-0.9,0l-2.3,2.3c0.3,0.3,0.6,0.6,0.9,0.9L134.6,51.2z M145,40.9c0.3-0.3,0.3-0.7,0-0.9c-0.3-0.3-0.7-0.3-0.9,0
		l-4.8,4.8c-0.3,0.3-0.3,0.7,0,0.9c0.3,0.3,0.7,0.3,0.9,0L145,40.9z M93.8,33.7c0-0.4-0.3-0.6-0.6-0.6c-0.4,0-0.6,0.3-0.6,0.6V37
		l0.6,0l0.6,0V33.7z M93.8,19.1c0-0.4-0.3-0.6-0.6-0.6c-0.4,0-0.6,0.3-0.6,0.6V26c0,0.4,0.3,0.6,0.6,0.6c0.4,0,0.6-0.3,0.6-0.6V19.1
		z M159,91.1c-0.4,0-0.7,0.3-0.7,0.6c0,0.4,0.3,0.6,0.7,0.6h6.8c0.4,0,0.7-0.3,0.7-0.6c0-0.4-0.3-0.6-0.7-0.6H159z M147.9,92.4h3.3
		c0.4,0,0.6-0.3,0.6-0.6c0-0.4-0.3-0.6-0.6-0.6h-3.3l0,0.6L147.9,92.4z M35.1,91.1c-0.4,0-0.6,0.3-0.6,0.6c0,0.4,0.3,0.6,0.6,0.6
		h3.3l0-0.6l0-0.6H35.1z M20.4,91.1c-0.4,0-0.6,0.3-0.6,0.6c0,0.4,0.3,0.6,0.6,0.6h6.9c0.4,0,0.6-0.3,0.6-0.6c0-0.4-0.3-0.6-0.6-0.6
		H20.4z"/>
	<path id="XMLID_60_" class="st1" d="M77.8,108.2H112v20.1c0,9.6-2.5,17.8-7.7,25.8l-0.6,0.9H86.1l-8.3-12.7V108.2z"/>
	<path id="XMLID_59_" class="st1" d="M81.8,91.5h0.4c2.2,0,4.1,1.8,4.1,4.1v27h-8.5v-27C77.8,93.3,79.6,91.5,81.8,91.5"/>
	<path id="XMLID_58_" class="st2" d="M82,91.5h0.2c2.2,0,4.1,1.8,4.1,4.1v27H82V91.5z"/>
	<path id="XMLID_57_" class="st1" d="M90.4,85.3h0.4c2.2,0,4.1,1.8,4.1,4.1v33.1h-8.5V89.4C86.3,87.1,88.1,85.3,90.4,85.3"/>
	<path id="XMLID_56_" class="st1" d="M98.9,88.9h0.4c2.2,0,4.1,1.8,4.1,4.1v29.5h-8.5V93C94.9,90.8,96.7,88.9,98.9,88.9"/>
	<path id="XMLID_55_" class="st2" d="M90.6,85.3h0.2c2.2,0,4.1,1.8,4.1,4.1v33.1h-4.3V85.3z"/>
	<path id="XMLID_54_" class="st2" d="M107.8,128.3c0,8.4-2,15.6-6.5,22.6H94v4.1h9.6l0.6-0.9c5.3-8,7.7-16.2,7.7-25.8v-11.6h-4.1
		V128.3z"/>
	<rect id="XMLID_53_" x="55.6" y="70" class="st3" width="72.2" height="53.3"/>
	<path id="XMLID_52_" class="st4" d="M59.2,65.2h28.6c4,0,7.2,3.2,7.2,7.2c0,15.5,0,31,0,46.4H59.2C59.2,100.9,59.2,83.1,59.2,65.2"
		/>
	<path id="XMLID_51_" class="st5" d="M129.7,65.2h-28.6c-4,0-7.2,3.2-7.2,7.2c0,15.5,0,31,0,46.4h35.8
		C129.7,100.9,129.7,83.1,129.7,65.2"/>
	<rect id="XMLID_50_" x="64.1" y="71.1" class="st6" width="17.2" height="17.2"/>
	<polygon id="XMLID_49_" class="st7" points="72.8,74.4 75.3,74.4 76.2,75.3 76.2,78.8 74.9,80.1 74.9,77.8 73.9,76.7 72.8,76.7 	
		"/>
	<polygon id="XMLID_48_" class="st8" points="68.3,88.3 77.2,88.3 77.2,85.9 75.7,84.4 69.8,84.4 68.3,85.9 	"/>
	<polygon id="XMLID_47_" class="st9" points="71,82.3 74.6,82.3 74.6,85.5 73.1,86.9 72.4,86.9 71,85.5 	"/>
	<path id="XMLID_46_" class="st9" d="M72.8,83.3c-1.2,0-2.2-1-2.2-2.2v-5h2.9l1.5,1.5v3.6C74.9,82.3,74,83.3,72.8,83.3"/>
	<polygon id="XMLID_45_" class="st10" points="70.6,78.9 72.8,76.7 75.2,74.3 74.4,73.5 70.4,73.5 69.5,74.4 69.5,78.9 70.6,80 	"/>
	<rect id="XMLID_44_" x="64.1" y="91.1" class="st11" width="17.3" height="3.2"/>
	<rect id="XMLID_43_" x="64.1" y="96" class="st11" width="23.1" height="3.2"/>
	<rect id="XMLID_42_" x="64.1" y="102.4" class="st11" width="17.3" height="1.6"/>
	<rect id="XMLID_41_" x="64.1" y="105.7" class="st11" width="23.1" height="1.6"/>
	<path id="XMLID_26_" class="st12" d="M80.8,111.7v1.9H81c0.1,0,0.1,0,0.2-0.1c0,0,0.1-0.1,0.1-0.2V112c0-0.1,0-0.2-0.1-0.2
		c0,0-0.1-0.1-0.2-0.1H80.8z M80.4,111.3H81c0.2,0,0.4,0.1,0.5,0.2c0.1,0.1,0.2,0.3,0.2,0.5v1.4c0,0.2-0.1,0.4-0.2,0.5
		c-0.1,0.1-0.3,0.2-0.5,0.2h-0.7V111.3z M79.1,112.5h0.6v0.4h-0.6v0.8h0.7v0.4h-1.2v-2.7h1.2v0.4h-0.7V112.5z M77.4,113.5l0.3-2.2
		h0.4l-0.4,2.7h-0.6l-0.4-2.7h0.4L77.4,113.5z M74.9,112c0-0.2,0.1-0.4,0.2-0.5c0.1-0.1,0.3-0.2,0.5-0.2c0.2,0,0.4,0.1,0.5,0.2
		c0.1,0.1,0.2,0.3,0.2,0.5v1.4c0,0.2,0,0.4-0.2,0.5c-0.1,0.1-0.3,0.2-0.5,0.2c-0.2,0-0.4-0.1-0.5-0.2c-0.1-0.1-0.2-0.3-0.2-0.5V112z
		 M75.4,113.4c0,0.1,0,0.2,0.1,0.2c0,0,0.1,0.1,0.2,0.1c0.1,0,0.1,0,0.2-0.1c0,0,0.1-0.1,0.1-0.2V112c0-0.1,0-0.2-0.1-0.2
		c0,0-0.1-0.1-0.2-0.1c-0.1,0-0.1,0-0.2,0.1c0,0-0.1,0.1-0.1,0.2V113.4z M73.5,111.7v0.8h0.2c0.1,0,0.1,0,0.2-0.1
		c0,0,0.1-0.1,0.1-0.2V112c0-0.1,0-0.2-0.1-0.2c0,0-0.1-0.1-0.2-0.1H73.5z M74,114C74,114,74,114,74,114c0-0.1,0-0.1,0-0.1
		c0,0,0-0.1,0-0.1c0,0,0-0.1,0-0.1v-0.4c0-0.1,0-0.2-0.1-0.3c0-0.1-0.1-0.1-0.2-0.1h-0.1v1.1h-0.4v-2.7h0.6c0.2,0,0.4,0.1,0.5,0.2
		c0.1,0.1,0.1,0.3,0.1,0.5v0.2c0,0.3-0.1,0.5-0.3,0.5c0.1,0,0.2,0.1,0.2,0.2c0,0.1,0.1,0.2,0.1,0.4v0.4c0,0.1,0,0.1,0,0.2
		c0,0.1,0,0.1,0,0.2H74z M71.8,111.7v0.9H72c0.1,0,0.1,0,0.2-0.1c0,0,0.1-0.1,0.1-0.2V112c0-0.1,0-0.2-0.1-0.2c0,0-0.1-0.1-0.2-0.1
		H71.8z M72,111.3c0.2,0,0.4,0.1,0.5,0.2c0.1,0.1,0.2,0.3,0.2,0.5v0.3c0,0.2-0.1,0.4-0.2,0.5c-0.1,0.1-0.3,0.2-0.5,0.2h-0.2v1h-0.4
		v-2.7H72z M70,111.7v0.9h0.2c0.1,0,0.1,0,0.2-0.1c0,0,0.1-0.1,0.1-0.2V112c0-0.1,0-0.2-0.1-0.2c0,0-0.1-0.1-0.2-0.1H70z
		 M70.2,111.3c0.2,0,0.4,0.1,0.5,0.2c0.1,0.1,0.2,0.3,0.2,0.5v0.3c0,0.2-0.1,0.4-0.2,0.5c-0.1,0.1-0.3,0.2-0.5,0.2H70v1h-0.4v-2.7
		H70.2z M68.1,113.2h0.4l-0.2-1.4L68.1,113.2z M69.1,114h-0.4l-0.1-0.5h-0.5L68,114h-0.4l0.4-2.7h0.6L69.1,114z"/>
	<path id="XMLID_23_" class="st12" d="M71.2,109.6h-6.5v6.1h6.5h6.9h6.5v-6.1h-6.5H71.2z M64.3,108.8h6.9h6.9H85h0.4v0.4v6.9v0.4H85
		h-6.9h-6.9h-6.9h-0.4v-0.4v-6.9v-0.4H64.3z"/>
	<path id="XMLID_22_" class="st1" d="M77.8,142.3l-14.1-24.5c-0.4-0.7-0.4-1.5,0-2.2c0.4-0.7,1.1-1.1,1.9-1.1h0.7c2.9,0,5.3,1,7.3,3
		L87,131c4.7,4.7,7,10.4,7,17v7.1h-7.9L77.8,142.3z"/>
	<path id="XMLID_21_" class="st2" d="M67.1,117.7c1.7,0.2,3.1,0.9,4.3,2.1l6.4,6.4l7,7c4.1,4.1,6.1,9,6.1,14.8v1.5v2.5v3.1v-4.1
		v-2.9c0-6.6,0.7-12.3-3.9-17l-9.2-9.2l-4.2-4.2c-2-2-4.5-3-7.3-3h-0.7c-0.8,0-1.5,0.4-1.9,1.1c-0.4,0.6-0.4,1.4-0.1,2H67.1z"/>
	<path id="XMLID_20_" class="st1" d="M106,97h0.4c2.2,0,4.1,1.8,4.1,4.1v21.4h-8.5v-21.4C101.9,98.8,103.8,97,106,97"/>
	<path id="XMLID_19_" class="st2" d="M97.7,88.9h0.2c2.2,0,4.1,1.8,4.1,4.1v29.5h-4.3V88.9z"/>
	<path id="XMLID_18_" class="st2" d="M106.2,97h0.2c2.2,0,4.1,1.8,4.1,4.1v21.4h-4.3V97z"/>
	<polygon id="XMLID_17_" class="st6" points="96.3,52.2 126.6,52.2 126.6,82.5 126.6,97.7 126.6,112.9 126.6,128 96.3,128 
		96.3,112.9 96.3,97.7 96.3,82.5 	"/>
	<path id="XMLID_16_" class="st13" d="M111.4,57c5.7,0,10.3,1.7,10.3,3.8c0,2.1-4.6,3.9-10.3,3.9c-5.7,0-10.3-1.7-10.3-3.9
		C101.1,58.7,105.7,57,111.4,57"/>
	<polygon id="XMLID_15_" class="st14" points="96.3,52.2 126.6,128 96.3,128 	"/>
	<rect id="XMLID_14_" x="99.1" y="73.5" class="st13" width="17.4" height="2.5"/>
	<rect id="XMLID_13_" x="99.1" y="77.3" class="st13" width="23.1" height="2.5"/>
	<rect id="XMLID_12_" x="99.1" y="82.4" class="st11" width="19.8" height="1.4"/>
	<rect id="XMLID_11_" x="99.1" y="84.4" class="st11" width="23.1" height="1.4"/>
	<rect id="XMLID_10_" x="99.1" y="86.5" class="st11" width="17" height="1.4"/>
	<rect id="XMLID_9_" x="99.1" y="88.6" class="st11" width="18.2" height="1.4"/>
	<rect id="XMLID_8_" x="99.1" y="93.8" class="st13" width="23.1" height="2.5"/>
	<rect id="XMLID_7_" x="99.1" y="97.5" class="st13" width="19.8" height="2.5"/>
	<rect id="XMLID_6_" x="99.1" y="102.6" class="st11" width="16.3" height="1.4"/>
	<rect id="XMLID_5_" x="99.1" y="104.6" class="st11" width="18.9" height="1.4"/>
	<rect id="XMLID_4_" x="99.1" y="106.7" class="st11" width="23.1" height="1.4"/>
	<rect id="XMLID_3_" x="99.1" y="108.8" class="st11" width="15" height="1.4"/>
</g>
</svg>
