<?xml version="1.0" encoding="utf-8"?>
<!-- Generator: Adobe Illustrator 19.0.0, SVG Export Plug-In . SVG Version: 6.00 Build 0)  -->
<svg version="1.0" id="Layer_1" xmlns="http://www.w3.org/2000/svg" xmlns:xlink="http://www.w3.org/1999/xlink" x="0px" y="0px"
	 viewBox="0 0 185 170" style="enable-background:new 0 0 185 170;" xml:space="preserve">
<style type="text/css">
	.st0{fill-rule:evenodd;clip-rule:evenodd;fill:#FFFFFF;}
	.st1{fill-rule:evenodd;clip-rule:evenodd;fill:#1A9FDA;}
	.st2{fill-rule:evenodd;clip-rule:evenodd;fill:#FAAE72;}
	.st3{fill-rule:evenodd;clip-rule:evenodd;fill:#EE7D66;}
	.st4{fill-rule:evenodd;clip-rule:evenodd;fill:#EF413E;}
	.st5{fill-rule:evenodd;clip-rule:evenodd;fill:#AF1F24;}
	.st6{fill-rule:evenodd;clip-rule:evenodd;fill:#CCE6D2;}
	.st7{fill-rule:evenodd;clip-rule:evenodd;fill:#5FBDEB;}
	.st8{fill-rule:evenodd;clip-rule:evenodd;fill:#127DC2;}
</style>
<g id="XMLID_2_">
	<path id="XMLID_46_" class="st0" d="M92.5,163c28.3,0,51.2-22.9,51.2-51.2c0-28.3-22.9-51.2-51.2-51.2c-28.3,0-51.2,22.9-51.2,51.2
		C41.3,140.1,64.2,163,92.5,163"/>
	<path id="XMLID_21_" class="st1" d="M93.1,38.7c1.7-1.4,3.2-3.3,4.2-5.3c-1.4-0.4-2.8-0.7-4.2-0.7V38.7z M92,38.6
		c-1.7-1.3-3.2-3.2-4.2-5.3c1.3-0.5,2.7-0.7,4.2-0.7V38.6z M93.1,11.6c1.7,1.4,3.2,3.2,4.2,5.3c-1.4,0.5-2.8,0.8-4.2,0.8V11.6z
		 M92,11.6c-1.7,1.4-3.2,3.3-4.2,5.3c1.3,0.4,2.7,0.8,4.2,0.8V11.6z M93.1,31.6v-5.9h6.3c0,2.3-0.6,4.7-1.6,6.8
		C96.3,32,94.6,31.6,93.1,31.6z M106.7,25.6h-6.3c-0.1,2.6-0.6,4.9-1.6,7.3c1.3,0.6,2.6,1.4,3.7,2.3C105,32.7,106.5,29.2,106.7,25.6
		z M101.7,36c-1-0.9-2.2-1.7-3.4-2.2c-1.1,2.1-2.5,3.9-4.3,5.4C96.8,38.9,99.4,37.8,101.7,36z M92,31.6v-5.9h-6.3
		c0,2.3,0.6,4.7,1.6,6.8C88.8,32,90.4,31.6,92,31.6z M78.4,25.6h6.3c0.1,2.6,0.7,4.9,1.7,7.3c-1.4,0.6-2.6,1.4-3.8,2.3
		C80,32.7,78.6,29.3,78.4,25.6z M83.4,36c1-0.8,2.3-1.7,3.5-2.2c1.1,2.1,2.5,3.9,4.3,5.4C88.3,38.9,85.6,37.8,83.4,36z M93.1,18.7
		v5.9h6.3c0-2.4-0.6-4.7-1.6-6.9C96.2,18.3,94.6,18.6,93.1,18.7z M106.7,24.6h-6.3c-0.1-2.6-0.7-4.9-1.6-7.2
		c1.3-0.6,2.6-1.4,3.7-2.4C105.1,17.7,106.5,21,106.7,24.6z M101.7,14.3c-1,0.9-2.2,1.7-3.4,2.2c-1.1-2.1-2.5-3.8-4.3-5.5
		C96.8,11.4,99.4,12.5,101.7,14.3z M92,18.7v5.9h-6.3c0-2.3,0.6-4.7,1.6-6.9C88.8,18.3,90.4,18.6,92,18.7z M78.4,24.6h6.3
		c0.1-2.6,0.7-4.9,1.7-7.2C85,16.8,83.8,16,82.6,15C80,17.6,78.6,20.9,78.4,24.6z M83.4,14.3c1,0.9,2.2,1.7,3.5,2.2
		c1.1-2.1,2.6-3.9,4.3-5.5C88.3,11.4,85.6,12.5,83.4,14.3z M47.3,29.9h28.2c1,5.2,4.6,9.5,11.7,12.5c-0.8,2.5-3.6,4.8-6.4,4.8H65.6
		c-2.3,0-4.2-2-4.9-3.6h15.5c1-0.2,1-0.9,0-1H61c-2,0-3.8-1.7-4.8-3.6H74c0.9-0.1,0.9-0.9,0-1H56c-1.8,0-3.4-2.1-4.1-3.5h19.7
		c1-0.1,1-1,0-1.1H51.5C49.9,33.3,48.4,31.6,47.3,29.9z M137.7,29.9h-28.2c-1,5.2-4.7,9.5-11.8,12.5c0.8,2.5,3.6,4.8,6.5,4.8h15.3
		c2.3,0,4.2-2,4.9-3.6h-15.6c-0.9-0.2-1-0.9,0-1h15.3c2,0,3.8-1.7,4.8-3.6h-17.8c-0.9-0.1-0.9-0.9,0-1H129c1.8,0,3.5-2.1,4.1-3.5
		h-19.7c-1-0.1-1-1,0-1.1h20.1C135.1,33.3,136.6,31.6,137.7,29.9z M105.9,69.2l9-18.5h6l3.7,18.5H119l-0.3-2.2h-5.9l-1,2.2H105.9z
		 M114.3,63.2h3.8l-1-6.8L114.3,63.2z M94.1,69.2l2-13.9H91l0.9-4.7H108l-0.9,4.7h-5l-2,13.9H94.1z M69.9,69.2l9-18.5h5.9l3.7,18.5
		h-5.6L82.7,67h-5.9l-1,2.2H69.9z M78.3,63.2h3.8l-1-6.8L78.3,63.2z M60.2,69.2l3.7-18.5h6l-3.7,18.5H60.2z"/>
	<path id="XMLID_20_" class="st2" d="M103.7,95.9H91.4c-3.2,0-5.9,1.1-8.2,3.4L72.5,110l-1.4,1.4l-0.9,0.9c-1.3,1.3-1.3,3.5,0,4.8
		c1.3,1.3,3.5,1.3,4.8,0c-1.3,1.3-1.3,3.5,0,4.8c1.3,1.3,3.5,1.3,4.8,0l2.4-2.4c-1.3,1.3-1.3,3.5,0,4.8c1.3,1.3,3.5,1.3,4.8,0
		l2.4-2.4c-1.3,1.3-1.3,3.5,0,4.8c1.3,1.3,3.5,1.3,4.8,0c7.2-7.2,14.3-14.3,21.5-21.5l-9.3-9.3H103.7z"/>
	<polygon id="XMLID_19_" class="st3" points="105.9,115.1 115.8,105.2 112.9,102.4 93.1,102.4 	"/>
	<path id="XMLID_18_" class="st2" d="M69.5,95.9h2.7c9.6,0,17.8,3.4,24.6,10.2l9.2,9.2l3.9,3.9l0.9,0.9c1.3,1.3,1.3,3.5,0,4.8
		c-1.3,1.3-3.5,1.3-4.8,0c1.3,1.3,1.3,3.5,0,4.8c-1.3,1.3-3.5,1.3-4.8,0l-2.4-2.4c1.3,1.3,1.3,3.5,0,4.8c-1.3,1.3-3.5,1.3-4.8,0
		l-2.4-2.4c1.3,1.3,1.3,3.5,0,4.8c-1.3,1.3-3.5,1.3-4.8,0l-5.1-5.1l-1.1-1.1l-17.8-17.8l4-14.9L69.5,95.9z"/>
	<path id="XMLID_17_" class="st3" d="M92.6,131.4c0.2,1.1-0.1,2.3-0.9,3.2c-1.3,1.3-3.5,1.3-4.8,0l-5.1-5.1l-1.1-1.1l-17.8-17.8
		l2-7.6l3.1,3.1l-1.8-5.9l-0.6,0.2l0.3-1.2L65,96.2h13l10,2.7l-7.9,7.9c-3.1,3.1-3.1,8.3,0,11.4l11.5,11.5L92.6,131.4z"/>
	<polygon id="XMLID_16_" class="st0" points="72,89.8 78.1,95.9 65.9,108.1 59.8,114.2 53.7,108.1 	"/>
	
		<rect id="XMLID_15_" x="24.5" y="70.1" transform="matrix(-0.7071 -0.7071 0.7071 -0.7071 15.2773 181.1671)" class="st4" width="41.3" height="34.6"/>
	<path id="XMLID_14_" class="st3" d="M105.9,102.4v0.8l-1.2,1.2c-3.1,3.1-7.7,3.6-11.4,1.4c-1.5-0.9-3.5-0.7-4.7,0.6l-1,1
		c-1.3,1.3-2.9,2.4-4.6,3c-1.7,0.7-3.6,0.3-5-0.8l0.5-2.5l1.1,1l5.7-5.7H105.9z"/>
	<path id="XMLID_13_" class="st2" d="M83.1,99.4l-4.1,4.1c-1,1-1.1,2.5-0.4,3.7c0.8,1.2,2.2,1.7,3.5,1.2c1.4-0.5,2.7-1.4,3.8-2.5
		l1-1c2-2,5.1-2.3,7.4-0.9c2.9,1.7,6.4,1.3,8.8-1.1l0.6-0.6v-6.3H91.5C88.3,95.9,85.4,97.1,83.1,99.4"/>
	<path id="XMLID_12_" class="st2" d="M73.2,113.7c1.3,1.3,1.3,3.5,0,4.8l-2.4,2.4c-1.3,1.3-3.5,1.3-4.8,0l0,0
		c-1.3-1.3-1.3-3.5,0-4.8l2.4-2.4C69.8,112.4,71.9,112.4,73.2,113.7"/>
	<path id="XMLID_11_" class="st2" d="M78,118.5c1.3,1.3,1.3,3.5,0,4.8l-2.4,2.4c-1.3,1.3-3.5,1.3-4.8,0l0,0c-1.3-1.3-1.3-3.5,0-4.8
		l2.4-2.4C74.6,117.2,76.7,117.2,78,118.5"/>
	<path id="XMLID_10_" class="st2" d="M82.8,123.3c1.3,1.3,1.3,3.5,0,4.8l-2.4,2.4c-1.3,1.3-3.5,1.3-4.8,0l0,0
		c-1.3-1.3-1.3-3.5,0-4.8l2.4-2.4C79.4,122,81.5,122,82.8,123.3"/>
	<path id="XMLID_9_" class="st2" d="M87.7,128.1c1.3,1.3,1.3,3.5,0,4.8l-2.4,2.4c-1.3,1.3-3.5,1.3-4.8,0l0,0c-1.3-1.3-1.3-3.5,0-4.8
		l2.4-2.4C84.2,126.8,86.3,126.8,87.7,128.1"/>
	<polygon id="XMLID_8_" class="st5" points="30.6,72.8 59.8,102 47.5,114.2 18.3,85 	"/>
	
		<rect id="XMLID_7_" x="55.5" y="103.8" transform="matrix(-0.707 -0.7072 0.7072 -0.707 25.5525 226.86)" class="st6" width="8.6" height="8.6"/>
	<polygon id="XMLID_6_" class="st0" points="112.6,89.8 106.4,95.9 118.7,108.1 124.8,114.2 130.9,108.1 	"/>
	
		<rect id="XMLID_5_" x="118.7" y="70.1" transform="matrix(0.7072 -0.707 0.707 0.7072 -20.9947 124.1436)" class="st7" width="41.3" height="34.6"/>
	
		<rect id="XMLID_4_" x="124.8" y="84.9" transform="matrix(0.7071 -0.7071 0.7071 0.7071 -23.5211 130.2726)" class="st8" width="41.3" height="17.3"/>
	
		<rect id="XMLID_3_" x="120.5" y="103.8" transform="matrix(0.707 -0.7072 0.7072 0.707 -39.9164 119.9279)" class="st6" width="8.6" height="8.6"/>
</g>
</svg>
