<?xml version="1.0" encoding="utf-8"?>
<!-- Generator: Adobe Illustrator 19.0.0, SVG Export Plug-In . SVG Version: 6.00 Build 0)  -->
<svg version="1.0" id="Layer_1" xmlns="http://www.w3.org/2000/svg" xmlns:xlink="http://www.w3.org/1999/xlink" x="0px" y="0px"
	 viewBox="0 0 185 170" style="enable-background:new 0 0 185 170;" xml:space="preserve">
<style type="text/css">
	.st0{fill-rule:evenodd;clip-rule:evenodd;fill:#7F586B;}
	.st1{fill-rule:evenodd;clip-rule:evenodd;fill:#F1EFE8;}
	.st2{fill-rule:evenodd;clip-rule:evenodd;fill:#D1E188;}
	.st3{fill:#54A176;}
	.st4{fill:#FFFFFF;}
	.st5{fill:#BBBDBF;}
	.st6{fill:#A6A8AC;}
	.st7{fill:none;stroke:#FFFFFF;stroke-width:2.8346;stroke-miterlimit:22.9256;}
	.st8{fill:#AF1F24;}
	.st9{fill:#FFCB0A;}
	.st10{fill:#F48220;}
	.st11{fill-rule:evenodd;clip-rule:evenodd;fill:#80A9D9;}
	.st12{fill:#284672;}
	.st13{fill-rule:evenodd;clip-rule:evenodd;fill:#0E8BCA;}
	.st14{fill-rule:evenodd;clip-rule:evenodd;fill:#FFFFFF;}
</style>
<g id="XMLID_2_">
	<path id="XMLID_36_" class="st0" d="M81.1,43.8c32,0,58,26,58,58c0,32-26,58-58,58c-32,0-58-26-58-58
		C23.1,69.8,49.1,43.8,81.1,43.8"/>
	<path id="XMLID_35_" class="st1" d="M85.5,39.6c32,0,58,26,58,58c0,32-26,58-58,58c-32,0-58-26-58-58
		C27.5,65.6,53.5,39.6,85.5,39.6"/>
	<polygon id="XMLID_34_" class="st2" points="71.4,119.4 65,120.1 62.1,116.8 59.3,116.1 59.9,110.8 63.6,107.3 61.7,104.2 
		58.4,103.9 55.7,99.2 64.2,95.6 69.8,89.2 73.8,88 72.4,84.9 68.9,84.2 67,80.5 69.1,77 64.9,70.8 74,66.4 83.2,70.4 92.7,72.6 
		97.5,79.6 98.8,94.4 102.6,97.1 108.2,107.1 113.8,105.6 112.8,121 116.5,123.8 115.9,133.1 108.9,132.8 104.7,127.1 103.3,123.7 
		98.5,124.1 96.8,121.4 94.9,121.4 94.1,124.7 97.2,132 94.3,133.3 78.8,133.6 79.2,125.1 77.2,121.8 76.9,117.7 76.3,113.3 
		72.6,111.7 	"/>
	<path id="XMLID_31_" class="st3" d="M65.2,119.5l5.6-0.6l1.2-7.3l0.1-0.7l0.6,0.3l3.7,1.6l0.3,0.1l0,0.3l0.6,4.5l0,0l0.3,4l1.9,3.1
		l0.1,0.1l0,0.2l-0.4,7.9l14.8-0.3l2.3-1l-2.9-6.8l-0.1-0.2l0-0.2l0.8-3.3l0.1-0.4h0.4h2h0.3l0.2,0.3l1.5,2.4l4.4-0.4l0.4,0l0.2,0.4
		l1.3,3.4l4,5.4l6.2,0.3l0.5-8.4l-3.5-2.7l-0.2-0.2l0-0.3l1-14.6l-4.9,1.3l-0.4,0.1l-0.2-0.4l-5.5-9.8l-3.7-2.7l-0.2-0.1l0-0.3
		L97,79.8L92.4,73l-9.4-2.1l-0.1,0l0,0L74,67l-8.3,4l3.8,5.7l0.2,0.3l-0.2,0.3l-2,3.1l1.7,3.2l3.3,0.6l0.3,0.1l0.1,0.3l1.4,3.1
		l0.2,0.6L74,88.5l-3.9,1.2L64.7,96L64.6,96l-0.1,0l-7.9,3.4l2.2,3.9l3,0.3l0.3,0l0.1,0.2L64,107l0.2,0.4l-0.3,0.3l-3.5,3.4
		l-0.6,4.6l2.4,0.6l0.2,0l0.1,0.1L65.2,119.5z M71.4,120l-6.3,0.7l-0.3,0l-0.2-0.2l-2.8-3.2l-2.7-0.6l-0.5-0.1l0.1-0.5l0.7-5.3
		l0-0.2l0.1-0.1l3.3-3.2l-1.5-2.5l-3-0.3l-0.3,0l-0.1-0.3l-2.6-4.7L55,98.9l0.6-0.2l8.4-3.6l5.5-6.2l0.1-0.1l0.1,0l3.4-1.1l-1-2.3
		l-3.2-0.6l-0.3,0l-0.1-0.2l-2-3.7l-0.2-0.3l0.2-0.3l2-3.1l-4-6l-0.4-0.5l0.6-0.3l9.1-4.4l0.2-0.1l0.2,0.1l9.1,4l9.5,2.1l0.2,0
		l0.1,0.2l4.8,7l0.1,0.1l0,0.1l1.2,14.6l3.6,2.6l0.1,0.1l0.1,0.1l5.4,9.6l5.3-1.4l0.7-0.2l-0.1,0.8l-1.1,15l3.5,2.6l0.2,0.2l0,0.3
		l-0.6,9.3l0,0.5l-0.5,0l-7-0.3l-0.3,0l-0.2-0.2l-4.2-5.7l0-0.1l0-0.1l-1.2-3l-4.4,0.4l-0.3,0l-0.2-0.3l-1.5-2.5h-1.2l-0.6,2.7
		l3.1,7.2l0.2,0.5l-0.5,0.2l-2.9,1.3l-0.1,0l-0.1,0l-15.5,0.3l-0.6,0l0-0.6l0.4-8.3l-1.9-3.1l-0.1-0.1l0-0.1l-0.3-4.1l-0.5-4.1
		l-2.8-1.2l-1.2,7l-0.1,0.4L71.4,120z"/>
	<polygon id="XMLID_30_" class="st4" points="92.4,48.7 109.7,58.9 110.3,59.2 110.3,59.8 110,79.9 110,80.1 110,80.2 107.9,87.4 
		107.7,88.2 106.8,88.2 106.8,88.2 106.8,87.1 105.8,86.8 107.8,79.7 108.1,60.4 91.3,50.6 	"/>
	<path id="XMLID_27_" class="st5" d="M109.6,59.1l-17.1-10l-0.8,1.4l16.5,9.7l0.1,0.1v0.2l-0.3,19.3v0l0,0l-2,6.8l0.8,0.2l0.2,0.1
		v0.2v0.8h0.3l0.2-0.6l0,0l2.1-7.2h0l0-0.1l0-0.1l0.3-20.1l0-0.5L109.6,59.1z M92.6,48.5l17.3,10.1l0,0l0.6,0.3l0.1,0.1l0,0.2l0,0.6
		l-0.3,20.1l0,0l0,0.2v0l0,0l0,0.1v0l-2.1,7.2l0,0l-0.2,0.8l-0.1,0.2h-0.2h-0.8h-0.3v-0.3v-0.9l-0.9-0.2l-0.3-0.1l0.1-0.3l2-7
		l0.3-19.1l-16.6-9.7l-0.2-0.1l0.1-0.2l1.1-1.9l0.1-0.2L92.6,48.5z"/>
	<polygon id="XMLID_26_" class="st6" points="126.8,68.7 134,82.5 134.4,83.3 133.5,83.3 133.5,82.8 133,83 125.8,69.2 	"/>
	<path id="XMLID_25_" class="st5" d="M115.5,131.9l-0.3-0.4l0,0l0,0c-0.1-0.2-0.2-0.4-0.2-0.5l-4-4.6l-3.9-0.9l-0.2-0.1l-0.1-0.2
		l-2.1-3.6l-2.2-0.6l-0.3-0.1l-0.1-0.3l-1-4.5l-2.1-2l-0.2-0.2l0-0.2l0.2-6l-3.3-3.5l-0.1-0.2l0-0.2l0.1-3.3l-2.2-0.2l-4.4,1.7
		l-0.4-1l4.5-1.8l0.1,0l0.1,0l2.8,0.3l0.5,0.1l0,0.5l-0.1,3.6l3.3,3.5l0.2,0.2l0,0.2l-0.2,6l2.1,2l0.1,0.1l0,0.2l1,4.4l2.1,0.6
		l0.2,0.1l0.1,0.2l2.1,3.6l3.9,0.9l0.2,0l0.1,0.1l4.3,4.9l0.1,0.2l0,0.2l0,0.1v0c0,0,0,0.1,0,0.1l0.3,0.4L115.5,131.9z"/>
	<polygon id="XMLID_24_" class="st5" points="79,128.8 84.3,128.9 84.4,128.9 84.6,128.9 91.9,132.8 93.8,133.9 91.6,133.9 
		91.6,133.3 91.4,133.8 84.2,130 79,129.9 	"/>
	<polygon id="XMLID_23_" class="st5" points="85.1,130 86.9,116.7 85.4,114.9 85,114.5 85.4,114.2 86.7,113 81.7,104.2 75.9,107.9 
		73.1,112 72.2,111.4 75.1,107.1 75.1,107 75.2,107 81.6,103 82,102.7 82.3,103.2 87.9,112.8 88.1,113.2 87.8,113.5 86.5,114.6 
		87.9,116.2 88.1,116.4 88.1,116.6 86.2,130.2 	"/>
	<polygon id="XMLID_22_" class="st5" points="75,107.5 74.4,99.2 65.2,99 62.1,101.4 61.4,100.5 64.7,98 64.9,97.9 65.1,97.9 
		74.9,98.1 75.4,98.1 75.5,98.6 76.1,107.4 	"/>
	<polygon id="XMLID_21_" class="st5" points="77.8,88.3 80,97.2 90.7,110.7 90.7,110.8 90.8,110.9 95,122.8 94,123.2 89.8,111.3 
		79.1,97.8 79,97.7 79,97.6 76.7,88.6 	"/>
	<polygon id="XMLID_20_" class="st5" points="83.3,87 86.6,99.6 88.9,100.7 89.1,100.8 89.2,101 90.4,104 92.3,105.1 92.4,105.2 
		92.5,105.3 94.6,109.2 94.7,109.4 94.7,109.5 94.6,114.2 97.4,121.2 96.3,121.6 93.5,114.5 93.5,114.4 93.5,114.3 93.6,109.6 
		91.6,106 89.7,104.9 89.5,104.8 89.4,104.6 88.3,101.6 85.9,100.5 85.6,100.4 85.6,100.1 82.2,87.2 	"/>
	<path id="XMLID_16_" class="st7" d="M93.6,95.9H96v7.6h3v-7.6h2.4v7.6h3v-7.6h2.4v9.7H93.6V95.9z M81.4,98.9c0,1.5,0.4,2.7,1.1,3.5
		c0.7,0.8,1.6,1.2,2.7,1.2c1.1,0,2-0.4,2.7-1.2c0.7-0.8,1-1.9,1-3.5c0-1.5-0.3-2.7-1-3.4c-0.7-0.8-1.6-1.1-2.7-1.1
		c-1.1,0-2,0.4-2.7,1.2C81.7,96.2,81.4,97.4,81.4,98.9z M78.6,99c0-1.4,0.2-2.5,0.6-3.4c0.3-0.7,0.7-1.3,1.3-1.8
		c0.5-0.5,1.1-0.9,1.7-1.2C83,92.2,84,92,85.1,92c2,0,3.6,0.6,4.7,1.8c1.2,1.2,1.8,2.9,1.8,5.1c0,2.2-0.6,3.9-1.8,5.1
		c-1.2,1.2-2.7,1.8-4.7,1.8c-2,0-3.6-0.6-4.8-1.8C79.2,102.8,78.6,101.1,78.6,99z"/>
	<path id="XMLID_12_" class="st8" d="M93.6,95.9H96v7.6h3v-7.6h2.4v7.6h3v-7.6h2.4v9.7H93.6V95.9z M81.4,98.9c0,1.5,0.4,2.7,1.1,3.5
		c0.7,0.8,1.6,1.2,2.7,1.2c1.1,0,2-0.4,2.7-1.2c0.7-0.8,1-1.9,1-3.5c0-1.5-0.3-2.7-1-3.4c-0.7-0.8-1.6-1.1-2.7-1.1
		c-1.1,0-2,0.4-2.7,1.2C81.7,96.2,81.4,97.4,81.4,98.9z M78.6,99c0-1.4,0.2-2.5,0.6-3.4c0.3-0.7,0.7-1.3,1.3-1.8
		c0.5-0.5,1.1-0.9,1.7-1.2C83,92.2,84,92,85.1,92c2,0,3.6,0.6,4.7,1.8c1.2,1.2,1.8,2.9,1.8,5.1c0,2.2-0.6,3.9-1.8,5.1
		c-1.2,1.2-2.7,1.8-4.7,1.8c-2,0-3.6-0.6-4.8-1.8C79.2,102.8,78.6,101.1,78.6,99z"/>
	<path id="XMLID_11_" class="st9" d="M27.7,102.2l21.1-0.5l9.8-4.7l-6.8-13.8l-0.1-0.2l0-0.2L51.4,78l0-0.5l0.4-0.3l10.5-8.7
		l-6.7-9.1l-7.8-5l-0.3-0.2l-0.1-0.2c0.6-0.5,1.2-1,1.7-1.5l0.1,0.2l7.7,4.9l0.2,0.1l0.1,0.2l7.4,10.2l0.6,0.8l-0.1,0l4.7,7.6
		l5.7,6.4l0.1,0.1l0.1,0.1l2,4.2l5.2-1.3l-2.3-7.6l-0.1-0.3l0-0.3l1.4-7.6l0-0.1l0-0.1l12.4-29.6c0.7,0.1,1.5,0.2,2.2,0.4l-12.6,30
		L82.9,78l2.5,8.2l1.8,1.9l5.3-4.2l0.4-0.3l0.5,0.1l1.8,0.3l1.4-4.7l0-0.1l0.1-0.1l2.3-4.1l0.3-0.5l0.6-0.1l12.9-1.3l13.1-5.1
		l6.4-4.8c0.4,0.6,0.9,1.2,1.3,1.8l-6.5,4.8l-0.1,0.1l-0.1,0.1l-13.4,5.2l-0.1,0.1l-0.1,0l-12.5,1.3l-2,3.5l-1.6,5.5l-0.3,1l-1-0.2
		l-2.2-0.4l-2.7,2.2l7.4-0.7l42.7-6.9c0.2,0.7,0.4,1.4,0.6,2.1l-43,7l-0.1,0l-11.2,1.1l-0.5,0.1l-0.4-0.4l-2.2-2.4l-6.6,1.6
		l-0.9,0.2l-0.4-0.8l-2.3-4.8l-5.6-6.3l-0.1-0.1l0-0.1l-4.6-7.4l-9.9,8.2l0.2,3.9L61,96.9l0,0l8.7,17.5l0.4,0.8l-0.8,0.6l-6.9,5.1
		l-4.3,12.3l2.4,16.8c-0.8-0.4-1.6-0.8-2.4-1.2l-2.2-15.5l0-0.3l0.1-0.3l4.5-12.9l0.1-0.3l0.3-0.2l6.5-4.7l-7.8-15.7l-10,4.8
		l-0.2,0.1l-0.2,0l-21.1,0.5C27.8,103.6,27.7,102.9,27.7,102.2"/>
	<path id="XMLID_8_" class="st10" d="M48.7,101.9L28,102.4c0,0.3,0,0.5,0.1,0.8c0,0.3,0.1,0.6,0.1,0.8l20.9-0.5l0.2,0l0.2-0.1
		l10-4.8l0.2-0.1l0.1,0.2l7.8,15.7l0.1,0.2l-0.2,0.1l-6.5,4.7l-0.2,0.2l-0.1,0.2v0l-4.5,12.9l-0.1,0.2l0,0.2l2.2,15.4
		c0.4,0.2,0.7,0.4,1.1,0.6c0.2,0.1,0.5,0.2,0.7,0.4l-2.3-16.3l0-0.1l0-0.1l4.3-12.3l0-0.1l0.1-0.1l6.9-5.1l0.6-0.4l-0.3-0.6
		l-8.6-17.3l0,0L60.7,97l-7.2-14.6l0,0l0-0.1l-0.2-3.9l0-0.1l0.1-0.1l9.9-8.2l0.2-0.2l0.2,0.3l4.6,7.4l0,0l0,0l0.1,0.1v0l5.6,6.3
		l0,0l0,0l2.3,4.8v0l0.3,0.6l0.7-0.2l6.6-1.6l0.2,0l0.1,0.1l2.2,2.4l0.3,0.3l0.4,0l11.2-1.1l0.1,0l42.7-6.9
		c-0.1-0.3-0.1-0.5-0.2-0.8c-0.1-0.3-0.2-0.6-0.2-0.8l-42.5,6.9l0,0l-7.4,0.7l-0.9,0.1l0.7-0.6l2.7-2.2l0.1-0.1l0.1,0l2.2,0.4
		l0.7,0.1l0.2-0.7h0l1.6-5.5l0,0l0,0l2-3.5l0.1-0.1l0.1,0l12.5-1.3h0l0.1,0l0.1,0l0,0l13.4-5.2l0.1,0l0.1-0.1l0,0l6.2-4.7
		c-0.2-0.2-0.3-0.5-0.5-0.7c-0.2-0.2-0.3-0.4-0.5-0.7l-6.2,4.6l0,0l0,0l-13.1,5.1l0,0l0,0l-12.9,1.4l-0.4,0l-0.2,0.4l0,0l-2.3,4.1v0
		l0,0.1l0,0.1l-1.4,4.7l-0.1,0.2l-0.2,0l-1.8-0.3l0,0l-0.4-0.1l-0.3,0.2l-5.2,4.2l-0.2,0.2L87,88.2l-1.8-1.9l0,0l0-0.1L82.7,78
		l0-0.1l0-0.1l1.3-7.2l0,0l0,0L96.4,41c-0.3,0-0.5-0.1-0.8-0.1c-0.3-0.1-0.6-0.1-0.9-0.2L82.4,70.1l0,0.1l0,0.1v0L81,77.9l0,0.2
		l0.1,0.2l2.3,7.6l0.1,0.3l-0.3,0.1l-5.2,1.3l-0.2,0.1l-0.1-0.2l-2-4.2v0l0-0.1l-0.1-0.1l0,0l-5.7-6.4l0,0l0,0l-4.7-7.6l-0.1-0.2
		l0,0l-0.5-0.6l-7.4-10.2h0L57,57.8l-0.1-0.1l0,0l-7.7-4.9c-0.2,0.2-0.4,0.4-0.6,0.5c-0.2,0.2-0.5,0.4-0.7,0.6L48,54l0,0l7.8,5l0,0
		l0,0l6.7,9.1l0.2,0.2l-0.2,0.2L52,77.3l-0.3,0.3l0,0.4l0.2,4.7l0,0.2L52,83l6.8,13.8l0.1,0.2l-0.2,0.1l-9.8,4.7L48.7,101.9
		L48.7,101.9z M27.7,101.9l21-0.5l9.5-4.6l-6.7-13.5L51.4,83l0-0.1l0-0.1l0-0.2L51.1,78l0-0.5l0-0.1l0.1-0.1l0.4-0.3L62,68.3
		l-6.5-8.9l-7.8-4.9l0,0l-0.3-0.2l-0.1,0l0-0.1L47.2,54l-0.1-0.2l0.2-0.1c0.3-0.2,0.6-0.5,0.9-0.7c0.3-0.3,0.6-0.5,0.9-0.7l0.3-0.2
		l0.2,0.3l0,0.1l7.7,4.9v0l0.2,0.1l0,0l0,0l0.1,0.2v0L65,67.7l0.6,0.8l0.2,0.2l-0.1,0.1l4.6,7.4l5.7,6.3l0.1,0.1l0,0l0,0l0.1,0.1
		l1.9,4l4.7-1.1l-2.2-7.3l-0.1-0.3l0-0.1l0-0.1l0-0.3l1.4-7.6l0-0.1l0,0l0,0l0-0.1l12.4-29.6l0.1-0.2l0.2,0c0.4,0.1,0.8,0.1,1.1,0.2
		c0.4,0.1,0.8,0.1,1.1,0.2l0.3,0.1l-0.1,0.3l-12.6,30l-1.3,7.1l2.4,8.1l1.6,1.7l5.1-4l0.4-0.3l0.1-0.1l0.1,0l0.5,0.1l0,0l1.5,0.3
		l1.3-4.5l0-0.1l0,0l0,0l0.1-0.1l2.3-4.1l0,0l0.3-0.5l0.1-0.1l0.1,0l0.6-0.1l12.9-1.3l13-5L132,63l0.2-0.2l0.2,0.2
		c0.2,0.3,0.4,0.6,0.7,0.9c0.2,0.3,0.4,0.6,0.6,0.9l0.1,0.2l-0.2,0.2l-6.5,4.8l-0.1,0.1l0,0l0,0l-0.1,0.1l-13.4,5.2v0l-0.1,0.1l0,0
		l0,0l-0.1,0l-12.4,1.3l-1.9,3.4l-1.6,5.5v0l-0.3,1l-0.1,0.2l-0.2,0l-1-0.2l-2.1-0.4l-1.9,1.5l6.5-0.6l42.7-6.9l0.2,0l0.1,0.2
		c0.1,0.4,0.2,0.7,0.3,1.1c0.1,0.4,0.2,0.7,0.3,1.1l0.1,0.3l-0.3,0.1l-43,7l0,0l-0.1,0l0,0l-11.2,1.1L86.7,91l-0.1,0l-0.1-0.1
		l-0.4-0.4L84,88.2l-6.4,1.6L76.7,90l-0.2,0.1l-0.1-0.2L76,89.1l0,0l-2.3-4.8L68.1,78L68,77.9l0,0l0,0l0-0.1l-4.4-7.1l-9.6,7.9
		l0.2,3.7l7,14.2v0l0.1,0.3l8.7,17.5l0.4,0.8l0.1,0.2l-0.2,0.1l-0.8,0.6l-6.9,5l-4.2,12.2l2.4,16.7l0.1,0.5l-0.5-0.2
		c-0.4-0.2-0.8-0.4-1.2-0.6c-0.4-0.2-0.8-0.4-1.2-0.6l-0.1-0.1l0-0.1l-2.2-15.5l0-0.3l0-0.1l0-0.1l0.1-0.3l4.5-12.9l0.1-0.3l0-0.1
		l0.1,0l0.3-0.2l6.3-4.6l-7.6-15.3l-9.8,4.7l-0.2,0.1l-0.1,0l-0.1,0l-0.2,0l-21.1,0.5l-0.3,0l0-0.3c0-0.3-0.1-0.7-0.1-1.1
		c0-0.4-0.1-0.8-0.1-1.1l0-0.3L27.7,101.9z"/>
	<polygon id="XMLID_7_" class="st11" points="102.9,69.5 110.1,69.5 123,69.5 123,76.7 110.1,76.7 102.9,76.7 	"/>
	<polygon id="XMLID_6_" class="st11" points="82.9,58.6 90.1,58.6 97.3,58.6 97.3,65.9 90.1,65.9 82.9,65.9 	"/>
	<polygon id="XMLID_5_" class="st12" points="72.2,97.2 72.2,11.7 76.6,11.7 76.6,97.2 74.6,99.2 74.2,99.2 	"/>
	<polygon id="XMLID_4_" class="st13" points="163.1,39.4 118.8,53.3 74.4,67.1 74.4,39.4 74.4,11.7 118.8,25.5 	"/>
	<path id="XMLID_3_" class="st14" d="M84,39.3c0,4.3,9.3,7.7,20.7,7.7c11.4,0,20.7-3.5,20.7-7.7c0-4.3-9.3-7.8-20.7-7.8
		C93.3,31.5,84,35,84,39.3"/>
</g>
</svg>
