<?xml version="1.0" encoding="utf-8"?>
<!-- Generator: Adobe Illustrator 19.0.0, SVG Export Plug-In . SVG Version: 6.00 Build 0)  -->
<svg version="1.0" id="Layer_1" xmlns="http://www.w3.org/2000/svg" xmlns:xlink="http://www.w3.org/1999/xlink" x="0px" y="0px"
	 viewBox="0 0 185 170" style="enable-background:new 0 0 185 170;" xml:space="preserve">
<style type="text/css">
	.st0{fill-rule:evenodd;clip-rule:evenodd;fill:#D1AC85;}
	.st1{fill-rule:evenodd;clip-rule:evenodd;fill:#BA9B78;}
	.st2{fill-rule:evenodd;clip-rule:evenodd;fill:#A68A6C;}
	.st3{fill-rule:evenodd;clip-rule:evenodd;fill:#816B51;}
	.st4{fill-rule:evenodd;clip-rule:evenodd;fill:#6B473B;}
	.st5{fill-rule:evenodd;clip-rule:evenodd;fill:#FFFFFF;}
	.st6{fill-rule:evenodd;clip-rule:evenodd;fill:#9994C8;}
	.st7{fill:#6B473B;}
	.st8{fill:#816B51;}
	.st9{fill:#EB2227;}
	.st10{fill-rule:evenodd;clip-rule:evenodd;fill:#2E368F;}
	.st11{fill-rule:evenodd;clip-rule:evenodd;fill:#EB2227;}
	.st12{fill-rule:evenodd;clip-rule:evenodd;fill:#FEDE50;}
	.st13{fill:#FFFFFF;}
</style>
<g id="XMLID_2_">
	<g id="XMLID_51_">
		<path id="XMLID_88_" class="st0" d="M83.8,56.6c1.2,0,2.5,0,3.7,0.1l1.8-2.5l9.3,2.9l0.1,3.1c1.1,0.6,2.1,1.2,3.1,2l2.9-1.3
			l6.6,7.2l-1.5,2.7c0.6,1,1.2,2.1,1.7,3.3l3.1,0.3l2.2,9.5l-2.7,1.6c0,1.2,0,2.5-0.1,3.7l2.5,1.8l-2.9,9.3l-3.1,0.1
			c-0.6,1.1-1.2,2.1-2,3.1l1.3,2.9l-7.2,6.6l-2.7-1.5c-1,0.6-2.1,1.2-3.3,1.7l-0.3,3.1l-9.5,2.2l-1.6-2.7c-1.2,0-2.5,0-3.7-0.1
			l-1.8,2.5l-9.3-2.9l-0.1-3.1c-1.1-0.6-2.1-1.2-3.1-2l-2.9,1.3l-6.6-7.2l1.5-2.7c-0.6-1-1.2-2.1-1.7-3.3l-3.1-0.3l-2.2-9.5l2.7-1.6
			c0-1.2,0-2.5,0.1-3.7l-2.5-1.8l2.9-9.3l3.1-0.1c0.6-1.1,1.2-2.1,2-3.1l-1.3-2.9l7.2-6.6l2.7,1.5c1-0.6,2.1-1.2,3.3-1.7l0.3-3.1
			l9.5-2.2L83.8,56.6z"/>
		<path id="XMLID_87_" class="st1" d="M85.8,57.2c1.2,0.1,2.4,0.2,3.6,0.4l2-2.3l9,3.5l-0.1,3.1c1,0.6,2,1.4,2.9,2.1l2.9-1.1l6,7.5
			l-1.6,2.6c0.6,1.1,1,2.2,1.5,3.3l3,0.5l1.5,9.5l-2.7,1.4c-0.1,1.2-0.2,2.4-0.4,3.6l2.3,2l-3.5,9l-3.1-0.1c-0.6,1-1.4,2-2.1,2.9
			l1.1,2.9l-7.5,6l-2.6-1.6c-1.1,0.6-2.2,1-3.3,1.5l-0.5,3l-9.5,1.5l-1.4-2.7c-1.2-0.1-2.4-0.2-3.6-0.4l-2,2.3l-9-3.5l0.1-3.1
			c-1-0.6-2-1.4-2.9-2.1l-2.9,1.1l-6-7.5l1.6-2.6c-0.6-1.1-1-2.2-1.5-3.3l-3-0.5l-1.5-9.5l2.7-1.4c0.1-1.2,0.2-2.4,0.4-3.6l-2.3-2
			l3.5-9l3.1,0.1c0.6-1,1.4-2,2.1-2.9L61,64.8l7.5-6l2.6,1.6c1.1-0.6,2.2-1,3.3-1.5l0.5-3l9.5-1.5L85.8,57.2z"/>
		<path id="XMLID_86_" class="st2" d="M88.1,57.9c1.2,0.1,2.4,0.4,3.5,0.7l2.1-2.1l8.5,4.1l-0.4,3c0.9,0.7,1.8,1.5,2.7,2.3l2.9-0.8
			l5.3,7.8l-1.8,2.4c0.5,1.1,0.9,2.2,1.2,3.4l2.9,0.7l0.7,9.4l-2.8,1.2c-0.1,1.2-0.4,2.4-0.7,3.5l2.1,2.1l-4.1,8.5l-3-0.4
			c-0.7,0.9-1.5,1.8-2.3,2.7l0.8,2.9l-7.8,5.3l-2.4-1.8c-1.1,0.5-2.2,0.9-3.4,1.2l-0.7,2.9l-9.4,0.7l-1.2-2.8
			c-1.2-0.1-2.4-0.4-3.5-0.7l-2.1,2.1l-8.5-4.1l0.4-3c-0.9-0.7-1.8-1.5-2.7-2.3l-2.9,0.8l-5.3-7.8l1.8-2.4c-0.5-1.1-0.8-2.2-1.2-3.4
			l-2.9-0.7L53.4,84l2.8-1.2c0.1-1.2,0.4-2.4,0.7-3.5l-2.1-2.1l4.1-8.5l3,0.4c0.7-0.9,1.5-1.8,2.3-2.7l-0.8-2.9l7.8-5.3l2.4,1.8
			c1.1-0.5,2.2-0.9,3.4-1.2l0.8-2.9l9.4-0.7L88.1,57.9z"/>
		<path id="XMLID_85_" class="st3" d="M90.1,58.9c1.1,0.2,2.3,0.5,3.4,0.9l2.2-1.9l8,4.6l-0.6,2.9c0.9,0.8,1.7,1.6,2.4,2.5l2.9-0.6
			l4.6,8l-1.9,2.2c0.4,1.1,0.7,2.2,0.9,3.4l2.8,0.9v9.2l-2.8,0.9c-0.2,1.1-0.5,2.3-0.9,3.4l1.9,2.2l-4.6,8l-2.9-0.6
			c-0.8,0.9-1.6,1.7-2.4,2.5l0.6,2.9l-8,4.6l-2.2-1.9c-1.1,0.4-2.2,0.7-3.4,0.9l-0.9,2.8h-9.2l-0.9-2.8c-1.1-0.2-2.3-0.5-3.4-0.9
			l-2.2,1.9l-8-4.6l0.6-2.9c-0.9-0.8-1.7-1.6-2.4-2.5l-2.9,0.6l-4.6-8l1.9-2.2c-0.4-1.1-0.7-2.2-0.9-3.4l-2.8-0.9v-9.2l2.8-0.9
			c0.2-1.1,0.5-2.3,0.9-3.4l-1.9-2.2l4.6-8l2.9,0.6c0.8-0.9,1.6-1.7,2.5-2.5l-0.6-2.9l8-4.6l2.2,1.9c1.1-0.4,2.2-0.7,3.4-0.9
			l0.9-2.8h9.2L90.1,58.9z"/>
		<path id="XMLID_84_" class="st4" d="M104.3,106.2c-0.4,0.4-0.8,0.8-1.2,1.1l0.6,2.9l-8,4.6l-2.2-1.9c-1.1,0.4-2.2,0.7-3.4,0.9
			l-0.9,2.8h-9.2l-0.9-2.8c-1.1-0.2-2.3-0.5-3.4-0.9l-2.2,1.9l-8-4.6l0.6-2.9c-0.9-0.8-1.7-1.6-2.4-2.5l-2.9,0.6l-4.6-8l1.9-2.2
			c-0.4-1.1-0.7-2.2-0.9-3.4l-2.8-0.9v-9.2l2.8-0.9c0.2-1.1,0.5-2.3,0.9-3.4l-1.9-2.2l4.6-8l2.9,0.6c0.4-0.4,0.8-0.9,1.2-1.3
			l19.8,19.8L104.3,106.2z"/>
		<path id="XMLID_83_" class="st4" d="M66.2,68l1.3,1.3c-4.4,4.4-7,10.4-7,17c0,6.6,2.7,12.7,7,17c4.4,4.4,10.4,7,17,7
			c6.6,0,12.6-2.7,17-7l1.3,1.3c-4.7,4.7-11.2,7.6-18.3,7.6c-7.2,0-13.6-2.9-18.3-7.6c-4.7-4.7-7.6-11.2-7.6-18.3
			C58.6,79.2,61.5,72.7,66.2,68"/>
		<path id="XMLID_82_" class="st3" d="M84.5,86.3l15.2,15.2c-8.4,8.4-22,8.4-30.3,0c-8.4-8.4-8.4-22,0-30.3L84.5,86.3z"/>
		<path id="XMLID_81_" class="st5" d="M84.5,101.4c8.3,0,15.1-6.7,15.1-15.1c0-8.3-6.7-15.1-15.1-15.1c-8.3,0-15.1,6.7-15.1,15.1
			C69.5,94.6,76.2,101.4,84.5,101.4"/>
		<path id="XMLID_80_" class="st4" d="M84.5,86.3L69.4,71.2c8.4-8.4,22-8.4,30.3,0c8.4,8.4,8.4,22,0,30.3L84.5,86.3z"/>
		<path id="XMLID_79_" class="st5" d="M84.5,97.1c5.9,0,10.8-4.8,10.8-10.8c0-5.9-4.8-10.8-10.8-10.8c-5.9,0-10.8,4.8-10.8,10.8
			C73.8,92.3,78.6,97.1,84.5,97.1"/>
		<path id="XMLID_78_" class="st6" d="M92.2,93.9L76.9,78.7c-3,3-3.8,7.2-2.6,11c0.5,1.6,1.4,3,2.6,4.3c1.2,1.2,2.7,2.1,4.3,2.6
			C84.9,97.8,89.2,96.9,92.2,93.9"/>
		<path id="XMLID_77_" class="st6" d="M73.9,75.7l3,3c2-1.9,4.6-3.1,7.6-3.1c6,0,10.8,4.9,10.8,10.8c0,3-1.2,5.6-3.1,7.6l2.9,2.9
			c4.1-4.1,5.4-10.1,3.7-15.3c-0.7-2.2-1.9-4.2-3.7-6c-1.7-1.7-3.8-3-6-3.7C84,70.3,78,71.5,73.9,75.7"/>
		<path id="XMLID_70_" class="st7" d="M20.1,103c0.5,0.1,1-0.2,1.1-0.7c0.1-0.5-0.2-1-0.7-1.1l-3.6-1c-0.5-0.1-1,0.2-1.1,0.7
			c-0.1,0.5,0.2,1,0.7,1.1L20.1,103z M31.7,106.1c0.5,0.1,1-0.2,1.1-0.7c0.1-0.5-0.2-1-0.7-1.1l-7.6-2c-0.5-0.1-1,0.2-1.1,0.7
			c-0.1,0.5,0.2,1,0.7,1.1L31.7,106.1z M45.7,109.9c0.5,0.1,1-0.2,1.1-0.7c0.1-0.5-0.2-1-0.7-1.2l-10-2.7c-0.5-0.1-1,0.2-1.1,0.7
			c-0.1,0.5,0.2,1,0.7,1.1L45.7,109.9z M53.6,112c0.5,0.1,1-0.2,1.1-0.7c0.1-0.5-0.2-1-0.7-1.1l-2.1-0.6c-0.5-0.1-1,0.2-1.2,0.7
			c-0.1,0.5,0.2,1,0.7,1.1L53.6,112z M59.5,113.6c0.5,0.1,1-0.2,1.1-0.7c0.1-0.5-0.2-1-0.7-1.2l-1.5-0.4c-0.5-0.1-1,0.2-1.2,0.7
			c-0.1,0.5,0.2,1,0.7,1.1L59.5,113.6z M66.2,115.3c0.5,0.1,1-0.2,1.2-0.7c0.1-0.5-0.2-1-0.7-1.1l-2.7-0.7c-0.5-0.1-1,0.2-1.1,0.7
			c-0.1,0.5,0.2,1,0.7,1.1L66.2,115.3z"/>
		<path id="XMLID_65_" class="st7" d="M34.9,95.8c0.4,0.3,1,0.1,1.3-0.3c0.3-0.4,0.1-1-0.3-1.3l-4.7-2.7c-0.4-0.3-1-0.1-1.3,0.3
			c-0.3,0.4-0.1,1,0.3,1.3L34.9,95.8z M46.5,102.5c0.4,0.3,1,0.1,1.3-0.3c0.3-0.4,0.1-1-0.3-1.3l-7.4-4.3c-0.4-0.3-1-0.1-1.3,0.3
			c-0.3,0.4-0.1,1,0.3,1.3L46.5,102.5z M52.7,106.1c0.5,0.3,1,0.1,1.3-0.3c0.3-0.4,0.1-1-0.3-1.3l-2.6-1.5c-0.4-0.3-1-0.1-1.3,0.3
			c-0.3,0.4-0.1,1,0.3,1.3L52.7,106.1z M58.3,109.3c0.5,0.3,1,0.1,1.3-0.3c0.3-0.4,0.1-1-0.3-1.3l-1.7-1c-0.5-0.3-1-0.1-1.3,0.3
			c-0.3,0.4-0.1,1,0.3,1.3L58.3,109.3z"/>
		<path id="XMLID_59_" class="st7" d="M31.8,80c0.4,0.4,1,0.4,1.3,0c0.4-0.4,0.4-1,0-1.3l-5.6-5.6c-0.4-0.4-1-0.4-1.3,0
			c-0.4,0.4-0.4,1,0,1.3L31.8,80z M36.2,84.3c0.4,0.4,1,0.4,1.3,0c0.4-0.4,0.4-1,0-1.3l-1.4-1.4c-0.4-0.4-1-0.4-1.3,0
			c-0.4,0.4-0.4,1,0,1.3L36.2,84.3z M42.8,91c0.4,0.4,1,0.4,1.3,0c0.4-0.4,0.4-1,0-1.3L40.5,86c-0.4-0.4-1-0.4-1.3,0
			c-0.4,0.4-0.4,1,0,1.3L42.8,91z M47,95.2c0.4,0.4,1,0.4,1.3,0c0.4-0.4,0.4-1,0-1.3l-1.1-1.1c-0.4-0.4-1-0.4-1.3,0
			c-0.4,0.4-0.4,1,0,1.3L47,95.2z M51.1,99.2c0.4,0.4,1,0.4,1.3,0c0.4-0.4,0.4-1,0-1.3l-1.2-1.2c-0.4-0.4-1-0.4-1.3,0
			c-0.4,0.4-0.4,1,0,1.3L51.1,99.2z"/>
		<path id="XMLID_58_" class="st7" d="M101.6,103.3c4.4-4.4,7-10.4,7-17c0-6.6-2.7-12.7-7-17c-4.4-4.4-10.4-7-17-7
			c-6.6,0-12.7,2.7-17,7L66.2,68c4.7-4.7,11.2-7.6,18.3-7.6c7.2,0,13.6,2.9,18.3,7.6c4.7,4.7,7.6,11.2,7.6,18.3
			c0,7.2-2.9,13.6-7.6,18.3L101.6,103.3z"/>
		<path id="XMLID_57_" class="st8" d="M84.5,110.4c6.6,0,12.7-2.7,17-7l1.3,1.3c-4.7,4.7-11.2,7.6-18.3,7.6
			c-7.2,0-13.6-2.9-18.3-7.6c-4.7-4.7-7.6-11.2-7.6-18.3c0-7.2,2.9-13.6,7.6-18.3l1.3,1.3c-4.4,4.4-7,10.4-7,17c0,6.6,2.7,12.7,7,17
			C71.9,107.7,77.9,110.4,84.5,110.4"/>
		<path id="XMLID_56_" class="st4" d="M22.3,94c0.9,0,1.6,0.7,1.6,1.6c0,0.9-0.7,1.6-1.6,1.6c-0.9,0-1.6-0.7-1.6-1.6
			C20.7,94.8,21.4,94,22.3,94"/>
		<path id="XMLID_55_" class="st4" d="M30.7,86.9c0.4,0,0.7,0.3,0.7,0.7c0,0.4-0.3,0.7-0.7,0.7c-0.4,0-0.7-0.3-0.7-0.7
			C30.1,87.2,30.3,86.9,30.7,86.9"/>
		<path id="XMLID_54_" class="st4" d="M29.7,67.2c0.6,0,1,0.5,1,1c0,0.6-0.5,1-1,1c-0.6,0-1-0.5-1-1C28.6,67.7,29.1,67.2,29.7,67.2"
			/>
		<path id="XMLID_53_" class="st4" d="M48.4,84.8c0.4,0,0.8,0.3,0.8,0.8c0,0.4-0.3,0.8-0.8,0.8c-0.4,0-0.8-0.3-0.8-0.8
			C47.6,85.2,48,84.8,48.4,84.8"/>
		<path id="XMLID_52_" class="st4" d="M48.3,105.7c0.4,0,0.7,0.3,0.7,0.7c0,0.4-0.3,0.7-0.7,0.7c-0.4,0-0.7-0.3-0.7-0.7
			C47.6,106,47.9,105.7,48.3,105.7"/>
	</g>
	<path id="XMLID_50_" class="st5" d="M107.5,76.4c2.6-0.6,4.2-3.2,3.5-5.8c-0.6-2.6-3.2-4.2-5.8-3.5c-2.6,0.6-4.2,3.2-3.5,5.8
		C102.3,75.4,104.9,77,107.5,76.4"/>
	<path id="XMLID_49_" class="st5" d="M82.8,72.5h9.5c1.4,0,2.7-0.2,3.9-0.7c1.2-0.5,2.3-1.1,3.4-2.1c3.5-3.1,7.6-5.4,11.9-7.1
		c4.3-1.6,8.9-2.5,13.6-2.5c4.7,0,9.3,0.8,13.6,2.5c4.3,1.6,8.4,4,11.9,7.1c1.1,0.9,2.2,1.6,3.4,2.1c1.2,0.5,2.5,0.7,3.9,0.7h8.1
		c0.7,0,1.4,0.3,1.9,0.8c0.5,0.5,0.8,1.1,0.8,1.9v23.6c0,0.7-0.3,1.4-0.8,1.9c-0.5,0.5-1.1,0.8-1.9,0.8H82.8c-0.7,0-1.4-0.3-1.9-0.8
		c-0.5-0.5-0.8-1.1-0.8-1.9V75.2c0-0.7,0.3-1.4,0.8-1.9C81.4,72.8,82.1,72.5,82.8,72.5"/>
	<path id="XMLID_46_" class="st9" d="M92.3,73.9h-9.5c-0.3,0-0.7,0.1-0.9,0.4c-0.2,0.2-0.4,0.5-0.4,0.9v23.6c0,0.3,0.1,0.7,0.4,0.9
		c0.2,0.2,0.5,0.4,0.9,0.4H166c0.3,0,0.7-0.1,0.9-0.4c0.2-0.2,0.4-0.5,0.4-0.9V75.2c0-0.3-0.1-0.7-0.4-0.9c-0.2-0.2-0.5-0.4-0.9-0.4
		H158c-1.6,0-3-0.3-4.4-0.8c-1.4-0.5-2.6-1.3-3.8-2.3c-3.4-3-7.3-5.2-11.5-6.8c-4.2-1.5-8.6-2.4-13.1-2.4c-4.5,0-9,0.8-13.1,2.4
		c-4.2,1.6-8.1,3.9-11.5,6.8c-1.2,1-2.5,1.8-3.8,2.3C95.3,73.7,93.9,73.9,92.3,73.9 M82.8,72.5h9.5c1.4,0,2.7-0.2,3.9-0.7
		c1.2-0.5,2.3-1.1,3.4-2.1c3.5-3.1,7.6-5.4,11.9-7.1c4.3-1.6,8.9-2.5,13.6-2.5c4.7,0,9.3,0.8,13.6,2.5c4.3,1.6,8.4,4,11.9,7.1
		c1.1,0.9,2.2,1.6,3.4,2.1c1.2,0.5,2.5,0.7,3.9,0.7h8.1c0.7,0,1.4,0.3,1.9,0.8c0.5,0.5,0.8,1.1,0.8,1.9v23.6c0,0.7-0.3,1.4-0.8,1.9
		c-0.5,0.5-1.1,0.8-1.9,0.8H82.8c-0.7,0-1.4-0.3-1.9-0.8c-0.5-0.5-0.8-1.1-0.8-1.9V75.2c0-0.7,0.3-1.4,0.8-1.9
		C81.4,72.8,82.1,72.5,82.8,72.5z"/>
	<path id="XMLID_45_" class="st10" d="M82.6,74.8h2.9c22,20.4,56.1,20.4,78.1,0h2.6v24.4H82.6V74.8z"/>
	<path id="XMLID_44_" class="st11" d="M87.5,74.8h35.4v4.6H93.6C91.5,78,89.5,76.5,87.5,74.8"/>
	<path id="XMLID_43_" class="st10" d="M122.9,84v4.6c-7.1-0.2-14.2-1.7-20.8-4.6H122.9z"/>
	<path id="XMLID_42_" class="st11" d="M161.2,74.8h-35.4v13.7C138.5,88.2,151.1,83.7,161.2,74.8"/>
	<path id="XMLID_41_" class="st10" d="M151,73.2c-6.9-6.1-16.4-10.6-26.4-10.6c-9.9,0-18.6,4.5-25.5,10.6H151z"/>
	<polygon id="XMLID_40_" class="st12" points="130.4,76.2 131,78 132.9,78 131.4,79.1 131.9,80.9 130.4,79.8 128.9,80.9 129.5,79.1 
		128,78 129.8,78 	"/>
	<polygon id="XMLID_39_" class="st12" points="137.7,80.4 137.9,80.9 138.4,80.9 138,81.2 138.1,81.8 137.7,81.4 137.2,81.8 
		137.4,81.2 137,80.9 137.5,80.9 	"/>
	<polygon id="XMLID_38_" class="st12" points="136.7,77.8 136.9,78.3 137.5,78.3 137,78.6 137.2,79.2 136.7,78.8 136.3,79.2 
		136.4,78.6 136,78.3 136.6,78.3 	"/>
	<polygon id="XMLID_37_" class="st12" points="136.7,82.7 136.9,83.3 137.5,83.3 137,83.6 137.2,84.1 136.7,83.8 136.3,84.1 
		136.4,83.6 136,83.3 136.6,83.3 	"/>
	<polygon id="XMLID_36_" class="st12" points="134.6,84.4 134.8,85 135.4,85 134.9,85.3 135.1,85.8 134.6,85.5 134.2,85.8 
		134.4,85.3 133.9,85 134.5,85 	"/>
	<polygon id="XMLID_35_" class="st12" points="134.6,76.2 134.8,76.8 135.4,76.8 134.9,77.1 135.1,77.6 134.6,77.3 134.2,77.6 
		134.4,77.1 133.9,76.8 134.5,76.8 	"/>
	<path id="XMLID_27_" class="st13" d="M131.1,68.9c0,0.4,0.1,0.7,0.3,0.9c0.2,0.2,0.4,0.3,0.6,0.3c0.2,0,0.4-0.1,0.5-0.3
		c0.1-0.2,0.2-0.4,0.2-0.8c0-0.4-0.1-0.7-0.2-0.9c-0.2-0.2-0.3-0.3-0.6-0.3c-0.2,0-0.4,0.1-0.6,0.3
		C131.2,68.3,131.1,68.6,131.1,68.9 M133.8,66.4l-1.1,0.1c0-0.2-0.1-0.4-0.2-0.5c-0.1-0.1-0.3-0.2-0.5-0.2c-0.2,0-0.5,0.1-0.6,0.3
		c-0.2,0.2-0.3,0.7-0.3,1.4c0.3-0.3,0.6-0.5,1.1-0.5c0.5,0,0.9,0.2,1.2,0.6c0.3,0.4,0.5,0.8,0.5,1.4c0,0.6-0.2,1.1-0.5,1.5
		c-0.4,0.4-0.8,0.6-1.4,0.6c-0.6,0-1.1-0.2-1.5-0.7c-0.4-0.5-0.6-1.3-0.6-2.3c0-1.1,0.2-1.9,0.6-2.4c0.4-0.5,0.9-0.7,1.6-0.7
		c0.5,0,0.8,0.1,1.1,0.4C133.5,65.5,133.7,65.9,133.8,66.4z M127.1,65.8c-0.1,0-0.3,0-0.4,0.1c-0.1,0.1-0.2,0.3-0.3,0.5
		c-0.1,0.3-0.1,0.8-0.1,1.5c0,0.7,0,1.2,0.1,1.5c0.1,0.3,0.2,0.4,0.3,0.5c0.1,0.1,0.2,0.1,0.4,0.1c0.1,0,0.3,0,0.4-0.1
		c0.1-0.1,0.2-0.2,0.3-0.5c0.1-0.3,0.1-0.8,0.1-1.5c0-0.7,0-1.2-0.1-1.5c-0.1-0.3-0.2-0.4-0.3-0.5C127.4,65.9,127.2,65.8,127.1,65.8
		z M127.1,64.9c0.6,0,1,0.2,1.4,0.6c0.4,0.5,0.6,1.3,0.6,2.5c0,1.1-0.2,2-0.6,2.5c-0.3,0.4-0.8,0.6-1.4,0.6c-0.6,0-1.1-0.2-1.4-0.7
		c-0.4-0.5-0.5-1.3-0.5-2.4c0-1.1,0.2-2,0.6-2.5C126.1,65.1,126.5,64.9,127.1,64.9z M122.4,65.8c-0.1,0-0.3,0-0.4,0.1
		c-0.1,0.1-0.2,0.3-0.3,0.5c-0.1,0.3-0.1,0.8-0.1,1.5c0,0.7,0,1.2,0.1,1.5c0.1,0.3,0.2,0.4,0.3,0.5c0.1,0.1,0.2,0.1,0.4,0.1
		c0.1,0,0.3,0,0.4-0.1c0.1-0.1,0.2-0.2,0.3-0.5c0.1-0.3,0.1-0.8,0.1-1.5c0-0.7,0-1.2-0.1-1.5c-0.1-0.3-0.2-0.4-0.3-0.5
		C122.7,65.9,122.5,65.8,122.4,65.8z M122.4,64.9c0.6,0,1,0.2,1.4,0.6c0.4,0.5,0.6,1.3,0.6,2.5c0,1.1-0.2,2-0.6,2.5
		c-0.3,0.4-0.8,0.6-1.4,0.6c-0.6,0-1.1-0.2-1.4-0.7c-0.4-0.5-0.5-1.3-0.5-2.4c0-1.1,0.2-2,0.6-2.5C121.4,65.1,121.8,64.9,122.4,64.9
		z M119.6,69.9v1.1h-4.1c0-0.4,0.2-0.8,0.4-1.2c0.2-0.4,0.7-0.8,1.3-1.5c0.5-0.5,0.8-0.8,1-1c0.2-0.2,0.2-0.5,0.2-0.7
		c0-0.3-0.1-0.5-0.2-0.6c-0.1-0.1-0.3-0.2-0.6-0.2c-0.2,0-0.4,0.1-0.6,0.2c-0.1,0.1-0.2,0.4-0.2,0.7l-1.2-0.1
		c0.1-0.6,0.3-1.1,0.7-1.4c0.4-0.3,0.8-0.4,1.4-0.4c0.6,0,1.1,0.2,1.4,0.5c0.3,0.3,0.5,0.7,0.5,1.2c0,0.3,0,0.5-0.1,0.8
		c-0.1,0.2-0.3,0.5-0.5,0.8c-0.1,0.2-0.4,0.4-0.8,0.8c-0.4,0.3-0.6,0.6-0.7,0.7c-0.1,0.1-0.2,0.2-0.2,0.3H119.6z"/>
	<path id="XMLID_3_" class="st13" d="M162.3,90.4c0-1,0-2.1,0-3.1c0.7-0.4,1.5-0.8,2.2-1.2c0,1.4,0,2.7,0,4.1c0,1.4,0,2.7,0,4.1
		c-0.2,0.9-0.5,1.6-0.9,2.3c-0.4,0.6-0.8,0.9-1.2,0.9c-0.5,0-1-0.4-1.4-1.1c-0.4-0.7-0.7-1.7-0.9-3.1c-0.1-0.7-0.2-1.3-0.2-2
		c0-0.7-0.1-1.4-0.1-2.2c0-0.8,0-1.7,0.1-2.4c0.1-0.8,0.1-1.5,0.3-2.3c0.2-1.5,0.6-2.8,1-3.8c0.3-0.8,0.7-1.5,1.2-1.9
		c0.6-0.6,1.1-0.6,1.5,0.1c0.4,0.7,0.6,2,0.7,3.8c-0.3,0.5-0.7,1-1,1.4c-0.1-0.9-0.2-1.5-0.4-1.9c-0.2-0.4-0.4-0.5-0.7-0.2
		c-0.4,0.4-0.8,1.1-1.1,2.3c-0.3,1.1-0.4,2.6-0.4,4.5c0,1,0,1.9,0.1,2.6c0.1,0.7,0.2,1.4,0.3,1.8c0.3,1,0.6,1.5,1.1,1.4
		c0.2,0,0.4-0.2,0.6-0.6c0.2-0.4,0.4-0.8,0.6-1.3c0-0.8,0-1.6,0-2.5C163.1,90.1,162.7,90.3,162.3,90.4 M154.8,97.2
		c0-2.2,0-4.3,0-6.5c0-2.2,0-4.3,0-6.5c0.3-0.2,0.7-0.4,1-0.6c0.3,1.3,0.7,2.7,1,4.1c0.4,1.5,0.7,3,1.1,4.5c0-1.7,0-3.3,0-5
		c0-1.7,0-3.3,0-5c0.3-0.2,0.6-0.4,1-0.7c0,2.6,0,5.2,0,7.8c0,2.6,0,5.2,0,7.8c-0.3,0-0.7,0-1,0c-0.3-1.6-0.7-3.1-1-4.6
		c-0.3-1.5-0.7-2.9-1-4.2c0,1.5,0,3,0,4.4c0,1.5,0,3,0,4.4C155.4,97.2,155.1,97.2,154.8,97.2z M152.7,97.2c0-2,0-4,0-6c0-2,0-4,0-6
		c0.3-0.2,0.7-0.3,1-0.5c0,2.1,0,4.2,0,6.2c0,2.1,0,4.2,0,6.2C153.4,97.2,153.1,97.2,152.7,97.2z M150.6,86.4c0.3-0.2,0.7-0.3,1-0.5
		c0,1.2,0,2.4,0,3.6c0,1.2,0,2.4,0,3.6c0,0.9,0,1.7-0.1,2.2c-0.1,0.7-0.3,1.2-0.5,1.6c-0.3,0.4-0.6,0.6-1,0.6
		c-0.5,0-0.9-0.3-1.2-0.8c-0.3-0.5-0.4-1.3-0.4-2.4c0.3-0.1,0.6-0.2,1-0.4c0,0.6,0.1,1,0.1,1.2c0.1,0.4,0.3,0.5,0.5,0.5
		c0.2,0,0.4-0.2,0.5-0.5c0.1-0.3,0.1-0.9,0.1-1.8c0-1.2,0-2.3,0-3.5C150.6,88.7,150.6,87.5,150.6,86.4z M146.8,97.3
		c0-1.6,0-3.1,0-4.7c0-1.6,0-3.1,0-4.7c0.3-0.1,0.7-0.3,1-0.4c0,1.6,0,3.3,0,4.9c0,1.6,0,3.2,0,4.9
		C147.5,97.3,147.1,97.3,146.8,97.3z M142,97.3c0-1.3,0-2.6,0-3.9c0-1.3,0-2.6,0-3.9c1.3-0.4,2.5-0.8,3.8-1.2c0,0.5,0,1,0,1.5
		c-0.9,0.3-1.8,0.5-2.8,0.7c0,0.6,0,1.2,0,1.8c0.9-0.2,1.7-0.3,2.6-0.5c0,0.5,0,1,0,1.5c-0.9,0.1-1.7,0.2-2.6,0.4c0,0.4,0,0.7,0,1.1
		c0,0.4,0,0.7,0,1.1c0.9-0.1,1.9-0.1,2.9-0.2c0,0.5,0,1,0,1.5C144.6,97.3,143.3,97.3,142,97.3z M137.9,94.4c0,0.3,0,0.6,0,0.9
		c0,0.3,0,0.6,0,0.9c0.3,0,0.6,0,1,0c0.4,0,0.6,0,0.7-0.1c0.2,0,0.3-0.1,0.4-0.3c0.1-0.2,0.1-0.4,0.1-0.6c0-0.2,0-0.4-0.1-0.5
		c-0.1-0.1-0.2-0.2-0.3-0.3c-0.1-0.1-0.5-0.1-0.9,0C138.5,94.3,138.2,94.3,137.9,94.4z M137.9,91.7c0,0.5,0,1.1,0,1.6
		c0.2,0,0.5-0.1,0.7-0.1c0.4-0.1,0.7-0.1,0.8-0.1c0.2-0.1,0.3-0.2,0.4-0.3c0.1-0.2,0.2-0.4,0.2-0.6c0-0.2,0-0.4-0.1-0.5
		c-0.1-0.1-0.2-0.2-0.4-0.2c-0.1,0-0.4,0-0.9,0.1C138.3,91.6,138.1,91.6,137.9,91.7z M136.9,90.8c0.7-0.2,1.4-0.3,2-0.4
		c0.4-0.1,0.7-0.1,0.9-0.1c0.2,0,0.4,0.1,0.5,0.2c0.2,0.1,0.3,0.3,0.4,0.5c0.1,0.2,0.2,0.5,0.2,0.8c0,0.4-0.1,0.7-0.2,1
		c-0.1,0.3-0.3,0.5-0.5,0.7c0.3,0.1,0.6,0.3,0.7,0.6c0.2,0.3,0.2,0.7,0.2,1.1c0,0.3-0.1,0.7-0.2,1c-0.1,0.3-0.3,0.6-0.4,0.8
		c-0.2,0.2-0.4,0.3-0.7,0.4c-0.2,0-0.6,0-1.2,0.1c-0.6,0-1.2,0-1.7,0c0-1.1,0-2.2,0-3.3C136.9,92.9,136.9,91.9,136.9,90.8z
		 M132.4,95.8c0-0.4,0-0.8,0-1.1c0.6,0,1.3-0.1,1.9-0.1c0,0.4,0,0.8,0,1.2C133.7,95.7,133.1,95.8,132.4,95.8z M124.6,97.4
		c0-0.9,0-1.8,0-2.7c0-0.9,0-1.8,0-2.7c0.5,0,1,0,1.5-0.1c0.2,0.6,0.3,1.2,0.5,1.9c0.2,0.6,0.3,1.2,0.5,1.9c0.1-0.6,0.3-1.3,0.5-1.9
		c0.1-0.6,0.3-1.3,0.5-1.9c0.5,0,1,0,1.5-0.1c0,0.9,0,1.9,0,2.8c0,0.9,0,1.9,0,2.8c-0.3,0-0.6,0-1,0c0-0.7,0-1.5,0-2.2
		c0-0.7,0-1.5,0-2.2c-0.2,0.7-0.3,1.5-0.5,2.2c-0.2,0.7-0.3,1.5-0.5,2.2c-0.3,0-0.7,0-1,0c-0.2-0.7-0.3-1.4-0.5-2.2
		c-0.2-0.7-0.3-1.4-0.5-2.1c0,0.7,0,1.4,0,2.1c0,0.7,0,1.4,0,2.1C125.2,97.4,124.9,97.4,124.6,97.4z M122.2,95.2
		c-0.1-0.3-0.2-0.7-0.4-1c-0.1-0.3-0.2-0.7-0.3-1c-0.1,0.3-0.2,0.7-0.3,1c-0.1,0.3-0.2,0.7-0.3,1C121.2,95.2,121.7,95.2,122.2,95.2z
		 M124.1,97.4c-0.4,0-0.8,0-1.1,0c-0.2-0.4-0.3-0.8-0.4-1.3c-0.7,0-1.4,0-2,0c-0.1,0.4-0.3,0.8-0.4,1.3c-0.4,0-0.7,0-1.1,0
		c0.3-0.9,0.7-1.9,1-2.8c0.3-0.9,0.7-1.9,1-2.8c0.4,0,0.7,0,1.1,0.1c0.3,0.9,0.7,1.9,1,2.8C123.4,95.5,123.7,96.5,124.1,97.4z
		 M115.3,92.2c0,0.7,0,1.4,0,2.1c0,0.7,0,1.4,0,2.1c0.3,0,0.5,0,0.8,0c0.3,0,0.5,0,0.6,0c0.2,0,0.3-0.1,0.4-0.2
		c0.1-0.1,0.2-0.3,0.3-0.6c0.1-0.3,0.1-0.6,0.1-1.1c0-0.5,0-0.8-0.1-1.1c-0.1-0.2-0.2-0.5-0.3-0.6c-0.1-0.2-0.3-0.3-0.5-0.3
		c-0.1-0.1-0.4-0.1-0.8-0.2C115.6,92.2,115.5,92.2,115.3,92.2z M114.3,91c0.6,0.1,1.3,0.2,1.9,0.3c0.4,0.1,0.7,0.1,1,0.3
		c0.3,0.1,0.6,0.4,0.8,0.6c0.2,0.3,0.4,0.6,0.5,1c0.1,0.4,0.2,0.8,0.2,1.4c0,0.5-0.1,0.9-0.2,1.2c-0.1,0.4-0.3,0.7-0.5,1
		c-0.2,0.2-0.4,0.4-0.7,0.5c-0.2,0.1-0.5,0.1-0.9,0.1c-0.6,0-1.3,0-1.9,0c0-1.1,0-2.1,0-3.2C114.3,93.1,114.3,92.1,114.3,91z
		 M110.2,93.2c0.3,0,0.5,0.1,0.8,0.1c0.5,0.1,0.8,0.1,0.9,0c0.1,0,0.2-0.1,0.3-0.2c0.1-0.1,0.1-0.3,0.1-0.5c0-0.2,0-0.4-0.1-0.6
		c-0.1-0.2-0.2-0.3-0.4-0.3c-0.1,0-0.3-0.1-0.8-0.2c-0.3-0.1-0.5-0.1-0.8-0.2C110.2,92,110.2,92.6,110.2,93.2z M109.1,97.3
		c0-1.2,0-2.5,0-3.7c0-1.2,0-2.5,0-3.7c0.7,0.2,1.4,0.4,2.2,0.5c0.6,0.1,0.9,0.3,1.2,0.5c0.3,0.2,0.4,0.4,0.6,0.8
		c0.1,0.3,0.2,0.7,0.2,1c0,0.5-0.1,0.9-0.3,1.2c-0.2,0.3-0.6,0.5-1,0.5c0.2,0.2,0.4,0.4,0.6,0.6c0.1,0.2,0.3,0.6,0.6,1.1
		c0.2,0.4,0.4,0.9,0.6,1.3c-0.4,0-0.8,0-1.2,0c-0.3-0.5-0.5-1-0.7-1.5c-0.3-0.6-0.4-0.9-0.5-1.1c-0.1-0.1-0.2-0.3-0.3-0.3
		c-0.1-0.1-0.3-0.1-0.5-0.1c-0.1,0-0.1,0-0.2,0c0,0.5,0,1,0,1.5c0,0.5,0,1,0,1.5C109.8,97.3,109.5,97.3,109.1,97.3z M104.4,97.3
		c0-1.5,0-3,0-4.4c0-1.5,0-3,0-4.4c1.3,0.4,2.5,0.9,3.8,1.2c0,0.4,0,0.9,0,1.3c-0.9-0.2-1.8-0.4-2.8-0.7c0,0.6,0,1.3,0,1.9
		c0.8,0.2,1.7,0.4,2.6,0.5c0,0.4,0,0.9,0,1.3c-0.9-0.1-1.7-0.2-2.6-0.4c0,0.4,0,0.8,0,1.2c0,0.4,0,0.8,0,1.2
		c0.9,0.1,1.9,0.1,2.9,0.2c0,0.4,0,0.9,0,1.3C107,97.3,105.7,97.3,104.4,97.3z M101.2,97.3c0-1.4,0-2.8,0-4.2c0-1.4,0-2.8,0-4.2
		c-0.5-0.2-1-0.4-1.5-0.6c0-0.6,0-1.2,0-1.8c1.4,0.6,2.7,1.1,4.1,1.6c0,0.5,0,1,0,1.5c-0.5-0.1-1-0.3-1.5-0.4c0,1.3,0,2.7,0,4
		c0,1.3,0,2.7,0,4C101.8,97.3,101.5,97.3,101.2,97.3z M95,93c0.3,0,0.7,0,1-0.1c0.1,0.8,0.2,1.4,0.4,1.8c0.2,0.4,0.4,0.6,0.7,0.6
		c0.3,0,0.6-0.1,0.8-0.4c0.2-0.3,0.3-0.7,0.3-1.1c0-0.3,0-0.5-0.1-0.7c-0.1-0.2-0.2-0.4-0.4-0.6c-0.1-0.1-0.4-0.3-0.8-0.7
		c-0.5-0.4-0.9-0.9-1.2-1.5c-0.3-0.8-0.5-1.7-0.5-2.7c0-0.7,0.1-1.2,0.2-1.7c0.1-0.5,0.4-0.8,0.6-1c0.3-0.2,0.6-0.1,1,0.1
		c0.6,0.3,1.1,0.9,1.4,1.6c0.3,0.8,0.5,1.6,0.5,2.6c-0.3-0.1-0.7-0.2-1-0.2c0-0.6-0.1-1.1-0.3-1.4c-0.1-0.3-0.4-0.5-0.7-0.7
		c-0.3-0.1-0.5-0.1-0.7,0.2c-0.1,0.1-0.2,0.4-0.2,0.7c0,0.3,0,0.6,0.2,0.8c0.1,0.3,0.4,0.7,0.9,1.1c0.5,0.4,0.9,0.8,1.1,1.1
		c0.2,0.3,0.4,0.8,0.6,1.3c0.1,0.5,0.2,1.1,0.2,1.8c0,0.6-0.1,1.2-0.2,1.7c-0.2,0.5-0.4,0.9-0.7,1.2c-0.3,0.3-0.7,0.4-1.1,0.4
		c-0.6,0-1.1-0.4-1.5-1.1C95.3,95.6,95.1,94.5,95,93z M89.3,97.2c0-2.7,0-5.4,0-8.1c0-2.7,0-5.4,0-8.1c0.5,0.3,1,0.6,1.5,0.9
		c0.2,1.8,0.3,3.6,0.5,5.4c0.2,1.8,0.3,3.5,0.5,5.2c0.1-1.6,0.3-3.3,0.5-4.9c0.1-1.6,0.3-3.1,0.5-4.7c0.5,0.3,1,0.6,1.6,0.9
		c0,2.2,0,4.5,0,6.7c0,2.2,0,4.4,0,6.7c-0.3,0-0.6,0-1,0c0-1.8,0-3.6,0-5.5c0-1.8,0-3.6,0-5.5c-0.2,1.8-0.3,3.5-0.5,5.3
		c-0.2,1.8-0.3,3.7-0.5,5.6c-0.3,0-0.7,0-1,0c-0.2-2-0.3-4-0.5-6.1c-0.2-2.1-0.3-4.2-0.5-6.3c0,2.1,0,4.1,0,6.2c0,2.1,0,4.1,0,6.2
		C89.9,97.2,89.6,97.2,89.3,97.2z M86.9,90c-0.1-1.2-0.2-2.3-0.4-3.5c-0.1-1.2-0.2-2.4-0.3-3.6c-0.1,1.1-0.2,2.2-0.4,3.3
		c-0.1,1.1-0.2,2.2-0.3,3.4C85.9,89.7,86.4,89.9,86.9,90z M88.8,97.2c-0.4,0-0.8,0-1.1,0c-0.2-1.3-0.3-2.7-0.4-4
		c-0.7-0.1-1.4-0.2-2-0.4c-0.1,1.4-0.3,2.9-0.4,4.4c-0.4,0-0.7,0-1.1,0c0.3-3.4,0.7-6.6,1-9.8c0.3-3.1,0.7-6.1,1-9.1
		c0.4,0.3,0.7,0.5,1.1,0.8c0.3,3.2,0.7,6.4,1,9.5C88.1,91.4,88.4,94.3,88.8,97.2z"/>
</g>
</svg>
