<?xml version="1.0" encoding="utf-8"?>
<!-- Generator: Adobe Illustrator 19.0.0, SVG Export Plug-In . SVG Version: 6.00 Build 0)  -->
<svg version="1.0" id="Layer_1" xmlns="http://www.w3.org/2000/svg" xmlns:xlink="http://www.w3.org/1999/xlink" x="0px" y="0px"
	 viewBox="0 0 185 170" style="enable-background:new 0 0 185 170;" xml:space="preserve">
<style type="text/css">
	.st0{fill:#73BF44;}
	.st1{fill:#A25742;}
	.st2{fill-rule:evenodd;clip-rule:evenodd;fill:#A5CD39;}
	.st3{fill-rule:evenodd;clip-rule:evenodd;fill:#3E8477;}
	.st4{fill-rule:evenodd;clip-rule:evenodd;fill:#ECECEC;}
	.st5{fill-rule:evenodd;clip-rule:evenodd;fill:#57C4CF;}
	.st6{fill-rule:evenodd;clip-rule:evenodd;fill:#FFFFFF;}
	.st7{fill-rule:evenodd;clip-rule:evenodd;fill:#DD745C;}
	.st8{fill-rule:evenodd;clip-rule:evenodd;fill:#48485A;}
	.st9{fill-rule:evenodd;clip-rule:evenodd;fill:#032E38;}
	.st10{fill:#FFFFFF;}
	.st11{fill:#57C4CF;}
	.st12{fill-rule:evenodd;clip-rule:evenodd;fill:#0E8BCA;}
	.st13{fill-rule:evenodd;clip-rule:evenodd;fill:#7F586B;}
	.st14{fill-rule:evenodd;clip-rule:evenodd;fill:#A5D1D7;}
	.st15{fill-rule:evenodd;clip-rule:evenodd;fill:#A25742;}
</style>
<g id="XMLID_2_">
	<path id="XMLID_88_" class="st0" d="M161.6,82.9h-10.5V32.8h10.5V82.9z M169.3,83.9V32c0-2-0.6-3.4-1.7-4.3
		c-1.1-0.9-2.7-1.3-4.9-1.3h-13.3c-2.1,0-3.6,0.4-4.5,1.4c-1,0.9-1.4,2.4-1.4,4.3v51.7c0,1.8,0.4,3.2,1.4,4.1c1,0.9,2.6,1.4,4.9,1.4
		h13.1c1.6,0,2.8-0.2,3.7-0.6c0.9-0.4,1.6-1,2-1.8C169.1,86.1,169.3,85.1,169.3,83.9z M134,89.3V26.4h-11.5v6.4h4v56.6H134z"/>
	<path id="XMLID_87_" class="st1" d="M42.2,116.3v6.6c0,0.2,0,0.4,0.1,0.5c0.1,0.1,0.2,0.3,0.3,0.4l1.6,1.6c0.3,0.3,0.6,0.7,0.8,1.2
		v0c0.2,0.4,0.3,0.9,0.3,1.4v11.5h-2.2V128c0-0.2,0-0.4-0.1-0.5l0,0c-0.1-0.2-0.2-0.3-0.3-0.4l-1.6-1.6c-0.3-0.3-0.6-0.7-0.8-1.2
		c-0.2-0.4-0.3-0.9-0.3-1.4v-6.6H42.2z"/>
	<path id="XMLID_86_" class="st2" d="M39.2,118.1h0.5c1.4,0,2.6,1.2,2.6,2.6v0.4c0,1.4,1.2,2.6,2.6,2.6h3.1c1.4,0,2.6-1.2,2.6-2.6
		c0-9.7,0-19.3,0-29c0-1.4-1.2-2.6-2.6-2.6h-3.1c-1.4,0-2.6,1.2-2.6,2.6v6.6c0,1.4-1.2,2.6-2.6,2.6h-0.5c-1.4,0-2.6,1.2-2.6,2.6
		v11.4C36.5,116.9,37.7,118.1,39.2,118.1"/>
	<path id="XMLID_85_" class="st3" d="M39.8,118.1c1.4,0.1,2.5,1.2,2.5,2.6v0.4c0,1.4,1.2,2.6,2.6,2.6h3.1c1.4,0,2.6-1.2,2.6-2.6
		c0-9.7,0-19.3,0-29c0-1.4-1.2-2.6-2.6-2.6h-1.5v18c0,1.6-1.3,3-3,3h-0.7c-1.6,0-3,1.3-3,3V118.1z"/>
	<rect id="XMLID_84_" x="42.3" y="83.1" class="st4" width="102.2" height="47.8"/>
	<rect id="XMLID_83_" x="42.3" y="83.1" class="st5" width="102.2" height="3.8"/>
	<rect id="XMLID_82_" x="39.3" y="78.8" class="st5" width="108.3" height="4.3"/>
	<rect id="XMLID_81_" x="35.1" y="76.2" class="st6" width="116.5" height="2.7"/>
	<rect id="XMLID_80_" x="39.3" y="130.9" class="st7" width="108.3" height="8.6"/>
	<rect id="XMLID_79_" x="43.2" y="97.7" class="st8" width="54.3" height="18.7"/>
	<polygon id="XMLID_78_" class="st9" points="43.2,97.7 97.5,97.7 97.5,115.1 80.6,115.1 80.6,103.1 43.2,103.1 	"/>
	<path id="XMLID_73_" class="st10" d="M80.6,98.9v16.2h15.2V98.9H80.6z M60.1,98.9H44.9v16.2h15.2V98.9z M77.9,98.9H62.7v16.2h15.2
		V98.9z M43.6,96.2h16.5h1.3h17.8h1.3h16.5h1.3v1.4v18.9v1.4h-1.3H80.6h-1.3H61.4h-1.3H43.6h-1.3v-1.4V97.5v-1.4H43.6z"/>
	<polygon id="XMLID_72_" class="st11" points="43.6,96.2 60.1,96.2 61.4,96.2 79.3,96.2 80.6,96.2 97.1,96.2 98.4,96.2 98.4,97.5 
		98.4,117.9 80.6,117.9 80.6,115.1 95.8,115.1 95.8,98.9 80.6,98.9 80.6,103.1 77.9,103.1 77.9,98.9 62.7,98.9 62.7,103.1 
		60.1,103.1 60.1,98.9 44.9,98.9 44.9,103 42.3,103 42.3,97.5 42.3,96.2 	"/>
	<rect id="XMLID_71_" x="98.4" y="97.5" class="st4" width="46.1" height="33.4"/>
	<rect id="XMLID_70_" x="92.1" y="92" class="st4" width="58.6" height="11.2"/>
	<path id="XMLID_69_" class="st12" d="M121.5,92c6.9,0,12.4,2.1,12.4,4.7c0,2.6-5.6,4.7-12.4,4.7c-6.9,0-12.4-2.1-12.4-4.7
		C109,94,114.6,92,121.5,92"/>
	<polygon id="XMLID_68_" class="st7" points="39.3,76.2 147.6,76.2 138.7,67.3 48.1,67.3 	"/>
	<path id="XMLID_44_" class="st13" d="M142.1,76.2h1.4v-4l-0.9-0.9h-0.5V76.2z M137.7,76.2h1.4v-8.5l-0.3-0.3h-1V76.2z M133.2,76.2
		h1.4v-8.9h-1.4V76.2z M128.7,76.2h1.4v-8.9h-1.4V76.2z M124.2,76.2h1.4v-8.9h-1.4V76.2z M119.7,76.2h1.4v-8.9h-1.4V76.2z
		 M115.2,76.2h1.4v-8.9h-1.4V76.2z M110.7,76.2h1.4v-8.9h-1.4V76.2z M106.2,76.2h1.4v-8.9h-1.4V76.2z M101.7,76.2h1.4v-8.9h-1.4
		V76.2z M97.2,76.2h1.4v-8.9h-1.4V76.2z M92.7,76.2h1.4v-8.9h-1.4V76.2z M88.2,76.2h1.4v-8.9h-1.4V76.2z M83.7,76.2h1.4v-8.9h-1.4
		V76.2z M79.2,76.2h1.4v-8.9h-1.4V76.2z M74.7,76.2h1.4v-8.9h-1.4V76.2z M70.3,76.2h1.4v-8.9h-1.4V76.2z M65.8,76.2h1.4v-8.9h-1.4
		V76.2z M61.3,76.2h1.4v-8.9h-1.4V76.2z M56.8,76.2h1.4v-8.9h-1.4V76.2z M52.3,76.2h1.4v-8.9h-1.4V76.2z M47.8,76.2h1.4v-8.9h-1
		l-0.3,0.3V76.2z M43.3,76.2h1.4v-4.9h-0.5l-0.9,0.9V76.2z"/>
	<rect id="XMLID_43_" x="92.1" y="121.3" class="st4" width="6.2" height="18.2"/>
	<rect id="XMLID_42_" x="144.5" y="121.3" class="st4" width="6.2" height="18.2"/>
	<rect id="XMLID_41_" x="98.4" y="103.1" class="st5" width="46.1" height="7.8"/>
	<path id="XMLID_38_" class="st6" d="M112.3,110.9h9.1v20h-9.1V110.9z M121.5,110.9h9.1v20h-9.1V110.9z"/>
	<path id="XMLID_34_" class="st11" d="M120.8,129.6v-18H113v18H120.8z M129.9,111.6h-7.7v18h7.7V111.6z M121.5,110.2h0.7h8.4h0.7
		v0.7v19.3v0.7h-0.7h-8.4h-0.7h-0.7h-8.4h-0.7v-0.7v-19.3v-0.7h0.7h8.4H121.5z"/>
	<path id="XMLID_31_" class="st11" d="M129.9,111.6H113v8.6h16.8V111.6z M112.3,110.2h18.2h0.7v0.7v10v0.7h-0.7h-18.2h-0.7v-0.7v-10
		v-0.7H112.3z"/>
	<rect id="XMLID_30_" x="114" y="112.7" class="st8" width="5.8" height="6.4"/>
	<rect id="XMLID_29_" x="123" y="112.7" class="st8" width="5.8" height="6.4"/>
	<polygon id="XMLID_28_" class="st14" points="80.8,117.9 80.8,130.9 92.1,130.9 92.1,121.3 98.4,121.3 98.3,120.8 98.3,117.9 
		97.1,117.9 	"/>
	<polygon id="XMLID_27_" class="st14" points="92.1,92 87.9,96.2 92.1,96.2 	"/>
	<polygon id="XMLID_26_" class="st14" points="134.9,130.9 144.5,130.9 144.5,121.3 	"/>
	<polygon id="XMLID_25_" class="st15" points="130.3,133.1 144.5,133.1 144.5,130.9 134.9,130.9 132.9,133 130.4,133 	"/>
	<polygon id="XMLID_24_" class="st15" points="125.2,135.2 144.5,135.2 144.5,133.1 130.3,133.1 128.3,135.1 125.3,135.1 	"/>
	<polygon id="XMLID_23_" class="st15" points="144.5,135.2 125.2,135.2 123,137.4 144.5,137.4 	"/>
	<polygon id="XMLID_22_" class="st15" points="144.5,137.4 144.5,139.5 117.6,139.6 119.7,137.4 123,137.4 	"/>
	<polygon id="XMLID_21_" class="st15" points="70.5,139.5 92.1,139.5 92.1,130.9 80.8,130.9 	"/>
	<path id="XMLID_20_" class="st1" d="M164,139.5v-6.8c0-0.2,0-0.4-0.1-0.5c-0.1-0.1-0.2-0.3-0.3-0.4l-1.6-1.6
		c-0.3-0.3-0.6-0.7-0.8-1.2v0c-0.2-0.4-0.3-0.9-0.3-1.4v-11.8h2.3v11.8c0,0.2,0,0.4,0.1,0.5l0,0c0.1,0.2,0.2,0.3,0.3,0.4l1.6,1.6
		c0.3,0.3,0.6,0.7,0.8,1.2c0.2,0.4,0.3,0.9,0.3,1.4v6.8H164z"/>
	<path id="XMLID_19_" class="st2" d="M158.3,102.7h0.4c1.2,0,2.2-1,2.2-2.2v-0.4c0-1.2,1-2.2,2.2-2.2h2.6c1.2,0,2.2,1,2.2,2.2
		c0,8,0,16.1,0,24.1c0,1.2-1,2.2-2.2,2.2h-2.6c-1.2,0-2.2-1-2.2-2.2v-0.4c0-1.2-1-2.2-2.2-2.2h-0.4c-1.2,0-2.2-1-2.2-2.2v-14.6
		C156.1,103.6,157.1,102.7,158.3,102.7"/>
	<path id="XMLID_18_" class="st3" d="M158.3,102.7h0.4v6.5c0,1.1,0.9,2,2,2h1.5c1.1,0,2,0.9,2,2v13.2h-1.2c-1.2,0-2.2-1-2.2-2.2
		v-0.4c0-1.2-1-2.2-2.2-2.2h-0.4c-1.2,0-2.2-1-2.2-2.2v-14.6C156.1,103.6,157.1,102.7,158.3,102.7"/>
	<path id="XMLID_17_" class="st1" d="M24.7,120.2v5.5c0,0.2,0,0.3-0.1,0.4c0,0.1-0.1,0.2-0.2,0.4l-1.3,1.3c-0.3,0.3-0.5,0.6-0.6,1v0
		c-0.1,0.4-0.2,0.7-0.2,1.1v9.6H24v-9.6c0-0.2,0-0.3,0.1-0.4h0c0.1-0.1,0.1-0.2,0.2-0.4l1.3-1.3c0.3-0.3,0.5-0.6,0.6-1
		c0.1-0.4,0.2-0.7,0.2-1.1v-5.5H24.7z"/>
	<path id="XMLID_16_" class="st2" d="M27.3,121.7h-0.4c-1.2,0-2.2,1-2.2,2.2v0.4c0,1.2-1,2.2-2.2,2.2H20c-1.2,0-2.2-1-2.2-2.2
		c0-8,0-16.1,0-24.1c0-1.2,1-2.2,2.2-2.2h2.6c1.2,0,2.2,1,2.2,2.2v5.5c0,1.2,1,2.2,2.2,2.2h0.4c1.2,0,2.2,1,2.2,2.2v9.5
		C29.5,120.7,28.5,121.7,27.3,121.7"/>
	<path id="XMLID_15_" class="st3" d="M26.8,121.7c-1.1,0.1-2.1,1-2.1,2.2v0.4c0,1.2-1,2.2-2.2,2.2H20c-1.2,0-2.2-1-2.2-2.2
		c0-8,0-16.1,0-24.1c0-1.2,1-2.2,2.2-2.2h1.3v15c0,1.4,1.1,2.5,2.5,2.5h0.6c1.4,0,2.5,1.1,2.5,2.5V121.7z"/>
	<rect id="XMLID_14_" x="42.3" y="126.5" class="st7" width="4.4" height="4.4"/>
	<rect id="XMLID_13_" x="42.3" y="124.3" class="st7" width="2.2" height="2.2"/>
	<rect id="XMLID_12_" x="42.3" y="122.1" class="st7" width="3.4" height="2.2"/>
	<rect id="XMLID_11_" x="42.3" y="119.9" class="st7" width="2.2" height="2.2"/>
	<rect id="XMLID_10_" x="42.3" y="117.7" class="st7" width="5.4" height="2.2"/>
	<rect id="XMLID_9_" x="42.3" y="94" class="st7" width="5.4" height="2.2"/>
	<rect id="XMLID_8_" x="42.3" y="91.8" class="st7" width="2.2" height="2.2"/>
	<rect id="XMLID_7_" x="42.3" y="89.6" class="st7" width="3.4" height="2.2"/>
	<rect id="XMLID_6_" x="42.3" y="86.9" class="st7" width="4.4" height="2.7"/>
	<rect id="XMLID_5_" x="42.3" y="84.2" class="st13" width="4.4" height="2.7"/>
	<rect id="XMLID_4_" x="42.3" y="83.1" class="st13" width="2.2" height="1.1"/>
	<rect id="XMLID_3_" x="42.3" y="128.7" class="st7" width="8.9" height="2.2"/>
</g>
</svg>
