<?xml version="1.0" encoding="utf-8"?>
<!-- Generator: Adobe Illustrator 19.0.0, SVG Export Plug-In . SVG Version: 6.00 Build 0)  -->
<svg version="1.1" id="Layer_1" xmlns="http://www.w3.org/2000/svg" xmlns:xlink="http://www.w3.org/1999/xlink" x="0px" y="0px"
	 viewBox="0 0 65 65" style="enable-background:new 0 0 65 65;" xml:space="preserve">
<style type="text/css">
	.st0{fill-rule:evenodd;clip-rule:evenodd;fill:#2A9DD3;}
</style>
<g id="XMLID_2_">
	<path id="XMLID_22_" class="st0" d="M5.6,42c-2-1-4-1.2-4.4-0.4c-0.4,0.8,1,2.2,3,3.2c2,1,4,1.2,4.4,0.4C9,44.5,7.7,43,5.6,42"/>
	<path id="XMLID_21_" class="st0" d="M2.5,45c-1-0.5-2-0.5-2.1-0.2c-0.2,0.4,0.5,1.1,1.5,1.5c1,0.5,2,0.5,2.1,0.1
		C4.2,46.2,3.5,45.5,2.5,45"/>
	<path id="XMLID_20_" class="st0" d="M23.3,36.5c-0.3-0.2-0.6-0.2-0.9-0.2c-0.2,0-0.5,0-0.7,0.1c-0.2,0.1-0.4,0.2-0.5,0.4
		c-0.1,0.2-0.3,0.4-0.3,0.7c-0.1,0.3-0.1,0.6-0.1,0.9c0,0.3,0,0.6,0.1,0.9c0.1,0.3,0.2,0.5,0.4,0.7c0.2,0.2,0.3,0.3,0.5,0.4
		c0.2,0.1,0.4,0.1,0.7,0.1c0.3,0,0.6-0.1,0.8-0.2c0.3-0.2,0.5-0.4,0.6-0.7c0.2-0.3,0.2-0.7,0.2-1.2c0-0.4-0.1-0.8-0.2-1.1
		C23.8,36.9,23.6,36.7,23.3,36.5"/>
	<path id="XMLID_19_" class="st0" d="M45.1,36.3h-0.8v1.8h0.8c0.3,0,0.5,0,0.7-0.1c0.2-0.1,0.3-0.2,0.4-0.3c0.1-0.1,0.1-0.3,0.1-0.5
		c0-0.3-0.1-0.5-0.2-0.6C46,36.4,45.7,36.3,45.1,36.3"/>
	<path id="XMLID_4_" class="st0" d="M65,34.4c0,0,0-0.1,0-0.1c0-0.2-0.1-0.3-0.1-0.5c0,0,0-0.1,0-0.1c-0.1-0.2-0.1-0.3-0.2-0.5
		c0,0,0,0,0,0c-0.1-0.2-0.1-0.3-0.2-0.5c0,0,0-0.1-0.1-0.1c-0.1-0.2-0.2-0.3-0.3-0.5c0,0-0.1-0.1-0.1-0.1c-0.1-0.2-0.2-0.3-0.4-0.5
		c0,0,0,0,0-0.1c-0.1-0.1-0.3-0.3-0.4-0.4c0,0-0.1-0.1-0.1-0.1c-0.2-0.2-0.3-0.3-0.5-0.4c0,0-0.1-0.1-0.1-0.1
		c-0.2-0.1-0.3-0.3-0.5-0.4c0,0-0.1,0-0.1-0.1c-0.2-0.1-0.4-0.3-0.5-0.4c0,0-0.1-0.1-0.1-0.1c-0.2-0.1-0.4-0.3-0.6-0.4
		c-0.1,0-0.1-0.1-0.2-0.1c-0.2-0.1-0.4-0.3-0.7-0.4c0,0-0.1-0.1-0.2-0.1c-0.2-0.1-0.4-0.2-0.6-0.3c-0.1,0-0.1-0.1-0.2-0.1
		c-0.2-0.1-0.5-0.2-0.8-0.4c-0.1,0-0.2-0.1-0.2-0.1c-0.3-0.1-0.5-0.2-0.8-0.3c-0.1,0-0.1-0.1-0.2-0.1c-0.2-0.1-0.5-0.2-0.8-0.3
		c-0.1,0-0.1-0.1-0.2-0.1c-0.3-0.1-0.6-0.2-0.9-0.3c-0.1,0-0.2-0.1-0.3-0.1c-0.3-0.1-0.6-0.2-0.9-0.3c-0.1,0-0.2,0-0.2-0.1
		c-0.3-0.1-0.6-0.2-0.9-0.3c-0.1,0-0.2,0-0.2-0.1c0,0,0,0,0,0c-5.3-1.5-11.8-2.3-18.8-2.3c-1.6,0-3.2,0-4.7,0.1l0,0c0,0,0,0,0,0
		c-0.1,0-0.2,0-0.3,0c-0.4,0-0.7,0-1.1,0.1c-0.2,0-0.3,0-0.5,0c-0.3,0-0.6,0.1-0.9,0.1c-0.2,0-0.3,0-0.5,0c-0.4,0-0.9,0.1-1.3,0.1
		c-0.1,0-0.2,0-0.3,0c-0.3,0-0.7,0.1-1,0.1c-0.2,0-0.3,0-0.5,0.1c-0.3,0-0.6,0.1-0.8,0.1c-0.2,0-0.3,0-0.5,0.1
		c-0.3,0.1-0.7,0.1-1,0.2c-0.1,0-0.3,0-0.4,0.1c-0.3,0.1-0.7,0.1-1,0.2c-0.2,0-0.3,0.1-0.5,0.1c-0.2,0.1-0.5,0.1-0.7,0.2
		c-0.2,0-0.3,0.1-0.5,0.1c-0.3,0.1-0.6,0.1-0.8,0.2c-0.1,0-0.3,0.1-0.4,0.1c-0.3,0.1-0.7,0.2-1,0.3c-0.1,0-0.3,0.1-0.4,0.1
		c-0.2,0.1-0.4,0.1-0.6,0.2c-0.2,0-0.3,0.1-0.4,0.1c-0.2,0.1-0.5,0.1-0.7,0.2c-0.1,0-0.2,0.1-0.4,0.1c-0.3,0.1-0.6,0.2-0.9,0.3
		c-0.1,0-0.3,0.1-0.4,0.2c-0.2,0.1-0.4,0.1-0.5,0.2C10,27,9.9,27,9.7,27.1c-0.2,0.1-0.4,0.2-0.5,0.2c-0.1,0.1-0.2,0.1-0.4,0.2
		c-0.3,0.1-0.5,0.2-0.8,0.4c-0.1,0.1-0.2,0.1-0.3,0.2c-0.2,0.1-0.3,0.2-0.4,0.2c-0.1,0.1-0.2,0.1-0.4,0.2c-0.1,0.1-0.3,0.2-0.4,0.2
		c-0.1,0.1-0.2,0.1-0.3,0.2C6,29,5.8,29.1,5.6,29.3c-0.1,0.1-0.2,0.1-0.3,0.2c-0.1,0.1-0.2,0.2-0.3,0.3c-0.1,0.1-0.2,0.1-0.3,0.2
		c-0.1,0.1-0.2,0.2-0.3,0.3c-0.1,0.1-0.2,0.1-0.3,0.2c-0.2,0.1-0.3,0.3-0.5,0.4C3.6,30.9,3.5,31,3.4,31c-0.1,0.1-0.2,0.2-0.2,0.3
		c-0.1,0.1-0.1,0.2-0.2,0.2h0c0,0,0,0,0,0.1c0,0.1-0.1,0.1-0.1,0.2c0,0-0.1,0.1-0.1,0.1c0,0.1-0.1,0.1-0.1,0.2c0,0,0,0,0,0l0,0
		c0,0,0,0,0,0c-0.1,0.1-0.1,0.2-0.2,0.3c0,0.1-0.1,0.1-0.1,0.2c-0.1,0.1-0.1,0.2-0.2,0.4c0,0.1-0.1,0.1-0.1,0.2
		c-0.1,0.2-0.1,0.3-0.2,0.5c0,0.1,0,0.1,0,0.2c0,0.1-0.1,0.3-0.1,0.4c0,0.1,0,0.1,0,0.2c0,0.2,0,0.4,0,0.5v0v0c0,0.2,0,0.4,0,0.5
		c0,0,0,0.1,0,0.1c0,0.2,0.1,0.3,0.1,0.5c0,0,0,0.1,0,0.1c0,0.2,0.1,0.3,0.2,0.5c0,0,0,0.1,0.1,0.1c0.1,0.1,0.1,0.3,0.2,0.4
		c0,0,0,0.1,0.1,0.1c0.1,0.2,0.2,0.3,0.3,0.5c0,0,0,0.1,0.1,0.1c0.1,0.1,0.2,0.3,0.3,0.4c0,0,0.1,0.1,0.1,0.1
		c0.1,0.2,0.3,0.3,0.4,0.5c0,0,0,0,0,0c0.1,0.2,0.3,0.3,0.5,0.4c0,0,0.1,0.1,0.1,0.1c0.2,0.1,0.3,0.3,0.5,0.4c0,0,0,0,0.1,0.1
		c0.2,0.2,0.4,0.3,0.6,0.4c0.1,0,0.1,0.1,0.2,0.1C5.8,40.8,6,40.9,6.1,41c0.1,0,0.1,0.1,0.2,0.1c0.2,0.1,0.5,0.3,0.7,0.4
		c0.1,0,0.1,0.1,0.2,0.1c0.2,0.1,0.4,0.2,0.6,0.3C7.9,42,8,42,8.1,42.1c0.3,0.1,0.5,0.3,0.8,0.4c0.1,0,0.1,0,0.2,0.1
		c0.2,0.1,0.5,0.2,0.7,0.3c0.1,0,0.2,0.1,0.3,0.1c0.3,0.1,0.5,0.2,0.8,0.3c0,0,0.1,0,0.1,0.1c0.3,0.1,0.6,0.2,0.9,0.3
		c0.1,0,0.2,0.1,0.3,0.1c0.3,0.1,0.5,0.2,0.8,0.2c0.1,0,0.2,0.1,0.3,0.1c0.3,0.1,0.7,0.2,1,0.3c0.1,0,0.2,0.1,0.3,0.1
		c0.3,0.1,0.5,0.1,0.8,0.2c0.1,0,0.2,0.1,0.4,0.1c0.4,0.1,0.7,0.2,1.1,0.3c0.1,0,0.2,0,0.3,0.1c0.3,0.1,0.6,0.1,0.9,0.2
		c0.1,0,0.3,0.1,0.4,0.1c0.1,0,0.1,0,0.2,0v0c4.4,0.9,9.4,1.4,14.7,1.4c13.3,0,24.7-3.1,29.4-7.4l0,0c0.1-0.1,0.1-0.1,0.2-0.2
		c0.1-0.1,0.2-0.2,0.3-0.3c0.1-0.1,0.2-0.2,0.2-0.2c0.1-0.1,0.2-0.2,0.3-0.3c0.1-0.1,0.1-0.2,0.2-0.3c0.1-0.1,0.1-0.2,0.2-0.3
		c0.1-0.1,0.1-0.2,0.2-0.3c0.1-0.1,0.1-0.2,0.2-0.3c0.1-0.1,0.1-0.2,0.1-0.3c0-0.1,0.1-0.2,0.1-0.3c0-0.1,0.1-0.2,0.1-0.3
		c0-0.1,0.1-0.2,0.1-0.3c0-0.1,0.1-0.3,0.1-0.4c0-0.1,0-0.1,0-0.2c0-0.2,0-0.4,0-0.6v0l0,0C65,34.8,65,34.6,65,34.4 M44.5,33.6
		c0-0.1,0.1-0.1,0.1-0.2c0-0.1,0.1-0.1,0.2-0.2c0.1-0.1,0.1-0.1,0.2-0.2l3-3.6h-2.6c-0.2,0-0.3,0-0.4-0.1c-0.1-0.1-0.1-0.2-0.1-0.3
		c0-0.1,0-0.2,0.1-0.3c0.1-0.1,0.2-0.1,0.4-0.1h3.4c0.4,0,0.7,0.2,0.7,0.6c0,0.2,0,0.3-0.1,0.5c-0.1,0.1-0.2,0.3-0.4,0.6L46,33.6
		h3.1c0.2,0,0.3,0,0.4,0.1c0.1,0.1,0.1,0.2,0.1,0.3c0,0.1,0,0.3-0.1,0.3c-0.1,0.1-0.2,0.1-0.4,0.1h-3.8c-0.3,0-0.5-0.1-0.6-0.2
		c-0.1-0.1-0.2-0.3-0.2-0.5C44.5,33.7,44.5,33.7,44.5,33.6 M39.4,28.6c0.1-0.1,0.2-0.1,0.4-0.1c0.2,0,0.3,0,0.4,0.1
		c0.1,0.1,0.2,0.3,0.4,0.6l1.1,1.8l1.1-1.8c0.1-0.1,0.1-0.2,0.2-0.3c0-0.1,0.1-0.1,0.2-0.2c0.1-0.1,0.1-0.1,0.2-0.2
		c0.1,0,0.1-0.1,0.2-0.1c0.2,0,0.3,0,0.4,0.1c0.1,0.1,0.2,0.2,0.2,0.3c0,0.1,0,0.2-0.1,0.3c-0.1,0.1-0.1,0.3-0.3,0.4L42.3,32v1.9
		c0,0.2-0.1,0.4-0.2,0.5c-0.1,0.1-0.3,0.2-0.4,0.2c-0.2,0-0.3-0.1-0.4-0.2c-0.1-0.1-0.2-0.3-0.2-0.6V32l-1.4-2.2
		c-0.1-0.2-0.2-0.4-0.3-0.5c-0.1-0.1-0.1-0.2-0.1-0.3C39.3,28.8,39.3,28.7,39.4,28.6 M22.5,28.6c0.1-0.1,0.2-0.1,0.4-0.1
		c0.2,0,0.3,0,0.4,0.1c0.1,0.1,0.2,0.3,0.4,0.6l1.1,1.8l1.1-1.8c0.1-0.1,0.1-0.2,0.2-0.3c0-0.1,0.1-0.1,0.2-0.2
		c0.1-0.1,0.1-0.1,0.2-0.2c0.1,0,0.1-0.1,0.2-0.1c0.1,0,0.3,0,0.4,0.1c0.1,0.1,0.2,0.2,0.2,0.3c0,0.1,0,0.2-0.1,0.3
		c-0.1,0.1-0.1,0.3-0.3,0.4L25.3,32v1.9c0,0.2-0.1,0.4-0.2,0.5c-0.1,0.1-0.3,0.2-0.4,0.2c-0.2,0-0.3-0.1-0.4-0.2
		c-0.1-0.1-0.2-0.3-0.2-0.6V32l-1.4-2.2c-0.1-0.2-0.2-0.4-0.3-0.5c-0.1-0.1-0.1-0.2-0.1-0.3C22.3,28.8,22.4,28.7,22.5,28.6
		 M18.8,40.1c-0.1,0.2-0.2,0.4-0.4,0.6c-0.2,0.2-0.5,0.4-0.8,0.5c-0.3,0.1-0.7,0.2-1.1,0.2c-0.3,0-0.6,0-0.9-0.1
		c-0.3-0.1-0.5-0.2-0.7-0.3c-0.2-0.1-0.4-0.3-0.6-0.5c-0.2-0.2-0.3-0.4-0.4-0.6c-0.1-0.2-0.2-0.5-0.2-0.7c-0.1-0.3-0.1-0.5-0.1-0.8
		c0-0.5,0.1-0.9,0.2-1.3c0.1-0.4,0.3-0.7,0.6-1c0.3-0.3,0.6-0.5,0.9-0.6c0.3-0.1,0.7-0.2,1.1-0.2c0.5,0,0.9,0.1,1.3,0.3
		c0.4,0.2,0.7,0.4,0.9,0.7c0.2,0.3,0.3,0.5,0.3,0.8c0,0.1,0,0.3-0.1,0.4c-0.1,0.1-0.2,0.2-0.4,0.2c-0.2,0-0.3,0-0.3-0.1
		c-0.1-0.1-0.2-0.2-0.3-0.4c-0.2-0.3-0.3-0.5-0.6-0.7c-0.2-0.1-0.5-0.2-0.8-0.2c-0.5,0-0.9,0.2-1.2,0.6c-0.3,0.4-0.4,0.9-0.4,1.6
		c0,0.5,0.1,0.8,0.2,1.1c0.1,0.3,0.3,0.5,0.5,0.7c0.2,0.1,0.5,0.2,0.8,0.2c0.3,0,0.6-0.1,0.9-0.3c0.2-0.2,0.4-0.4,0.5-0.8
		c0-0.2,0.1-0.3,0.2-0.4c0.1-0.1,0.2-0.1,0.4-0.1c0.1,0,0.3,0,0.4,0.1c0.1,0.1,0.2,0.2,0.2,0.4C18.9,39.7,18.9,39.9,18.8,40.1
		 M18.2,32.6v1.2c0,0.2-0.1,0.4-0.2,0.6c-0.1,0.1-0.3,0.2-0.4,0.2c-0.1,0-0.2,0-0.3-0.1c-0.1-0.1-0.2-0.1-0.2-0.2
		c0-0.1-0.1-0.2-0.1-0.3c0-0.1,0-0.2,0-0.4v-4.4c0-0.2,0.1-0.4,0.2-0.5c0.1-0.1,0.3-0.2,0.4-0.2c0.2,0,0.3,0.1,0.4,0.2
		c0.1,0.1,0.2,0.3,0.2,0.5v2.1l2.4-2.5c0.1-0.1,0.2-0.2,0.3-0.3c0.1-0.1,0.2-0.1,0.3-0.1c0.2,0,0.3,0.1,0.4,0.2
		c0.1,0.1,0.2,0.2,0.2,0.4c0,0.2-0.1,0.3-0.3,0.5L20,30.9l1.7,2.4c0.1,0.2,0.2,0.3,0.3,0.4C22,33.8,22,34,22,34.1
		c0,0.1-0.1,0.2-0.2,0.3c-0.1,0.1-0.2,0.1-0.4,0.1c-0.2,0-0.3,0-0.4-0.1c-0.1-0.1-0.2-0.2-0.3-0.3c-0.1-0.1-0.1-0.2-0.2-0.3
		l-1.4-2.2L18.2,32.6z M25.2,39.6c-0.1,0.4-0.3,0.7-0.6,1c-0.2,0.3-0.6,0.5-0.9,0.6c-0.4,0.1-0.8,0.2-1.2,0.2
		c-0.5,0-0.9-0.1-1.2-0.2c-0.4-0.1-0.7-0.4-0.9-0.6c-0.2-0.3-0.4-0.6-0.6-1c-0.1-0.4-0.2-0.8-0.2-1.2c0-0.5,0.1-0.9,0.2-1.3
		c0.1-0.4,0.3-0.7,0.6-1c0.2-0.3,0.5-0.5,0.9-0.6c0.4-0.1,0.8-0.2,1.2-0.2c0.6,0,1.1,0.1,1.6,0.4c0.4,0.2,0.8,0.6,1,1.1
		c0.2,0.5,0.3,1,0.3,1.6C25.3,38.8,25.3,39.3,25.2,39.6 M31,40.7c0,0.5-0.2,0.8-0.6,0.8c-0.1,0-0.2,0-0.3,0c-0.1,0-0.2-0.1-0.2-0.1
		c-0.1-0.1-0.1-0.1-0.2-0.2c-0.1-0.1-0.1-0.2-0.2-0.3l-2.2-3.4v3.5c0,0.2-0.1,0.4-0.2,0.5c-0.1,0.1-0.2,0.2-0.4,0.2
		c-0.2,0-0.3-0.1-0.4-0.2c-0.1-0.1-0.2-0.3-0.2-0.5v-4.6c0-0.2,0-0.3,0.1-0.5c0.1-0.1,0.1-0.2,0.3-0.3c0.1-0.1,0.2-0.1,0.4-0.1
		c0.1,0,0.2,0,0.3,0.1c0.1,0,0.1,0.1,0.2,0.1c0.1,0.1,0.1,0.1,0.2,0.2c0.1,0.1,0.1,0.2,0.2,0.3l2.3,3.5V36c0-0.2,0-0.4,0.1-0.5
		c0.1-0.1,0.2-0.2,0.4-0.2c0.2,0,0.3,0.1,0.4,0.2C31,35.6,31,35.8,31,36V40.7z M31.6,34.2c-0.1-0.1-0.2-0.2-0.3-0.4L30.9,33
		c-0.2-0.3-0.3-0.5-0.5-0.7c-0.1-0.2-0.3-0.3-0.4-0.3c-0.1-0.1-0.3-0.1-0.5-0.1H29v1.9c0,0.3-0.1,0.4-0.2,0.6
		c-0.1,0.1-0.3,0.2-0.4,0.2c-0.2,0-0.3-0.1-0.4-0.2c-0.1-0.1-0.2-0.3-0.2-0.5v-4.6c0-0.3,0.1-0.4,0.2-0.6c0.1-0.1,0.3-0.2,0.6-0.2h2
		c0.3,0,0.5,0,0.7,0c0.2,0,0.4,0.1,0.5,0.1c0.2,0.1,0.4,0.2,0.5,0.3c0.1,0.1,0.3,0.3,0.3,0.5c0.1,0.2,0.1,0.4,0.1,0.6
		c0,0.4-0.1,0.8-0.4,1.1c-0.2,0.3-0.6,0.5-1.1,0.6c0.2,0.1,0.4,0.3,0.6,0.5c0.2,0.2,0.4,0.5,0.5,0.7c0.2,0.3,0.3,0.5,0.4,0.7
		c0.1,0.2,0.1,0.3,0.1,0.4c0,0.1,0,0.2-0.1,0.2c0,0.1-0.1,0.1-0.2,0.2c-0.1,0-0.2,0.1-0.3,0.1c-0.1,0-0.2,0-0.3-0.1
		C31.8,34.4,31.7,34.3,31.6,34.2 M37,40.1c-0.1,0.2-0.2,0.4-0.4,0.6c-0.2,0.2-0.5,0.4-0.8,0.5c-0.3,0.1-0.7,0.2-1.1,0.2
		c-0.3,0-0.6,0-0.9-0.1c-0.3-0.1-0.5-0.2-0.7-0.3c-0.2-0.1-0.4-0.3-0.6-0.5c-0.2-0.2-0.3-0.4-0.4-0.6c-0.1-0.2-0.2-0.5-0.2-0.7
		c-0.1-0.3-0.1-0.5-0.1-0.8c0-0.5,0.1-0.9,0.2-1.3c0.1-0.4,0.3-0.7,0.6-1c0.3-0.3,0.6-0.5,0.9-0.6c0.3-0.1,0.7-0.2,1.1-0.2
		c0.5,0,0.9,0.1,1.3,0.3c0.4,0.2,0.7,0.4,0.9,0.7c0.2,0.3,0.3,0.5,0.3,0.8c0,0.1,0,0.3-0.1,0.4c-0.1,0.1-0.2,0.2-0.4,0.2
		c-0.2,0-0.3,0-0.3-0.1c-0.1-0.1-0.2-0.2-0.3-0.4c-0.2-0.3-0.3-0.5-0.6-0.7c-0.2-0.1-0.5-0.2-0.8-0.2c-0.5,0-0.9,0.2-1.2,0.6
		c-0.3,0.4-0.4,0.9-0.4,1.6c0,0.5,0.1,0.8,0.2,1.1c0.1,0.3,0.3,0.5,0.5,0.7c0.2,0.1,0.5,0.2,0.8,0.2c0.3,0,0.6-0.1,0.9-0.3
		c0.2-0.2,0.4-0.4,0.5-0.8c0.1-0.2,0.1-0.3,0.2-0.4c0.1-0.1,0.2-0.1,0.4-0.1c0.1,0,0.3,0,0.4,0.1c0.1,0.1,0.2,0.2,0.2,0.4
		C37.1,39.7,37.1,39.9,37,40.1 M36.3,34.6c-0.5,0-0.9-0.1-1.2-0.2c-0.4-0.1-0.7-0.3-1-0.6c-0.3-0.3-0.5-0.6-0.6-1
		c-0.1-0.4-0.2-0.8-0.2-1.3c0-0.5,0.1-0.9,0.2-1.3c0.1-0.4,0.3-0.7,0.6-1c0.3-0.3,0.6-0.5,1-0.6c0.4-0.1,0.8-0.2,1.3-0.2
		c0.4,0,0.8,0.1,1.1,0.2c0.3,0.1,0.6,0.2,0.7,0.4c0.2,0.2,0.3,0.3,0.4,0.5c0.1,0.2,0.1,0.3,0.1,0.5c0,0.1-0.1,0.3-0.2,0.4
		c-0.1,0.1-0.2,0.2-0.4,0.2c-0.1,0-0.2,0-0.2-0.1c-0.1,0-0.1-0.1-0.2-0.2c-0.1-0.2-0.3-0.4-0.4-0.5c-0.1-0.1-0.2-0.2-0.4-0.3
		c-0.2-0.1-0.4-0.1-0.7-0.1c-0.3,0-0.5,0-0.7,0.1c-0.2,0.1-0.4,0.2-0.6,0.4c-0.2,0.2-0.3,0.4-0.4,0.7c-0.1,0.3-0.1,0.6-0.1,0.9
		c0,0.7,0.2,1.2,0.5,1.6c0.3,0.4,0.8,0.6,1.3,0.6c0.3,0,0.5,0,0.8-0.1c0.2-0.1,0.5-0.2,0.7-0.3v-1h-0.9c-0.2,0-0.4,0-0.5-0.1
		c-0.1-0.1-0.2-0.2-0.2-0.3c0-0.1,0-0.2,0.1-0.3c0.1-0.1,0.2-0.1,0.4-0.1h1.4c0.2,0,0.3,0,0.4,0c0.1,0,0.2,0.1,0.3,0.2
		c0.1,0.1,0.1,0.3,0.1,0.5v1.1c0,0.2,0,0.3,0,0.4c0,0.1-0.1,0.2-0.2,0.2c-0.1,0.1-0.2,0.1-0.3,0.2c-0.4,0.2-0.7,0.3-1,0.4
		C37,34.5,36.7,34.6,36.3,34.6 M42.3,41.2c-0.1,0.1-0.2,0.1-0.4,0.1h-3.3c-0.3,0-0.4-0.1-0.6-0.2c-0.1-0.1-0.2-0.3-0.2-0.6v-4.5
		c0-0.2,0-0.3,0.1-0.4c0.1-0.1,0.1-0.2,0.2-0.2c0.1-0.1,0.2-0.1,0.4-0.1h3.2c0.2,0,0.3,0,0.4,0.1c0.1,0.1,0.1,0.2,0.1,0.3
		c0,0.1,0,0.3-0.1,0.3c-0.1,0.1-0.2,0.1-0.4,0.1h-2.7v1.5h2.5c0.2,0,0.3,0,0.4,0.1c0.1,0.1,0.1,0.2,0.1,0.3c0,0.1,0,0.2-0.1,0.3
		c-0.1,0.1-0.2,0.1-0.4,0.1h-2.5v1.7h2.8c0.2,0,0.3,0,0.4,0.1c0.1,0.1,0.1,0.2,0.1,0.3C42.5,41,42.4,41.1,42.3,41.2 M47.1,38.6
		c-0.4,0.3-0.9,0.5-1.7,0.5h-1.1v1.7c0,0.2-0.1,0.4-0.2,0.5c-0.1,0.1-0.3,0.2-0.4,0.2c-0.2,0-0.3-0.1-0.4-0.2
		c-0.1-0.1-0.2-0.3-0.2-0.5v-4.6c0-0.3,0.1-0.5,0.2-0.6c0.1-0.1,0.3-0.2,0.6-0.2h1.5c0.5,0,0.8,0,1,0.1c0.2,0.1,0.5,0.2,0.6,0.3
		c0.2,0.2,0.3,0.3,0.4,0.6c0.1,0.2,0.1,0.5,0.1,0.8C47.6,37.8,47.5,38.3,47.1,38.6 M52.8,36.3c-0.1,0.1-0.3,0.1-0.5,0.1h-1.3v4.3
		c0,0.2-0.1,0.4-0.2,0.6c-0.1,0.1-0.3,0.2-0.4,0.2c-0.2,0-0.3-0.1-0.4-0.2c-0.1-0.1-0.2-0.3-0.2-0.5v-4.3h-1.3c-0.2,0-0.4,0-0.5-0.1
		C48,36.2,48,36.1,48,35.9c0-0.2,0.1-0.3,0.2-0.4c0.1-0.1,0.3-0.1,0.5-0.1h3.8c0.2,0,0.4,0,0.5,0.1c0.1,0.1,0.2,0.2,0.2,0.4
		C53,36.1,53,36.2,52.8,36.3"/>
	<path id="XMLID_3_" class="st0" d="M31.4,30.2c0-0.2,0-0.3-0.1-0.4c-0.1-0.1-0.2-0.2-0.3-0.3c-0.1-0.1-0.4-0.1-0.8-0.1H29v1.6h1.1
		c0.3,0,0.5,0,0.7-0.1c0.2-0.1,0.3-0.1,0.4-0.3C31.4,30.6,31.4,30.5,31.4,30.2"/>
</g>
</svg>
