<?xml version="1.0" encoding="utf-8"?>
<!-- Generator: Adobe Illustrator 19.2.1, SVG Export Plug-In . SVG Version: 6.00 Build 0)  -->
<svg version="1.1" id="Layer_1" xmlns="http://www.w3.org/2000/svg" xmlns:xlink="http://www.w3.org/1999/xlink" x="0px" y="0px"
	 viewBox="0 0 76 76" style="enable-background:new 0 0 76 76;" xml:space="preserve">
<style type="text/css">
	.st0{opacity:0.13;clip-path:url(#SVGID_2_);fill-rule:evenodd;clip-rule:evenodd;}
	.st1{fill:#FFFFFF;}
</style>
<g>
	<defs>
		<circle id="SVGID_1_" cx="38.3" cy="37.9" r="37.5"/>
	</defs>
	<clipPath id="SVGID_2_">
		<use xlink:href="#SVGID_1_"  style="overflow:visible;opacity:0.18;"/>
	</clipPath>
	<polygon class="st0" points="63.5,86 99.5,81 104.5,46 54,21 34,21 25,22 23,51 27,58 	"/>
	<use xlink:href="#SVGID_1_"  style="overflow:visible;opacity:0.18;fill:none;stroke:#FFFFFF;stroke-miterlimit:10;"/>
</g>
<g>
	<g>
		<path class="st1" d="M54.7,20h-21c-0.7,0-1.3,0.6-1.3,1.3v8.9l0.9-1.1c0.4-0.5,1-0.8,1.6-1v-5.6h18.5v16.5H35v-2.8L34.4,37
			c-0.5,0.6-1.2,0.9-2,1v2.4c0,0.7,0.6,1.3,1.3,1.3h6.8l-3.5,15.8c-0.2,0.7,0.3,1.4,1,1.6c0.7,0.2,1.4-0.3,1.6-1l3.6-16.3h2.1
			L48.9,58c0.1,0.6,0.7,1,1.3,1c0.1,0,0.2,0,0.3,0c0.7-0.2,1.2-0.9,1-1.6L48,41.7h6.8c0.7,0,1.3-0.6,1.3-1.3V21.3
			C56,20.6,55.4,20,54.7,20L54.7,20z M54.7,20"/>
		<path class="st1" d="M44.7,27.4c-0.1-0.3-0.4-0.4-0.6-0.3l-7.5,2.6c-0.7-0.5-1.7-0.4-2.2,0.2L32,32.8L29.9,31c0,0.1,0,0.3,0,0.4
			v3.9l1.2,1c0.7,0.6,1.7,0.5,2.3-0.2l2.8-3.3l2.3-1.3l6-3.5C44.7,27.9,44.8,27.7,44.7,27.4L44.7,27.4z M44.7,27.4"/>
		<path class="st1" d="M25.3,28.1h-1.4c-1.1,0-2,0.5-2.6,1.3l-4.3,4c-0.7,0.6-0.7,1.6-0.1,2.3l3.5,3.9c0.6,0.7,1.6,0.7,2.3,0.1
			c0.7-0.6,0.7-1.6,0.1-2.3l-2.4-2.7l3.4-3.1l-2,2.7l2,2.2c1.1,1.2,1,3.1-0.2,4.2c-0.8,0.7-2,0.9-2.9,0.6c0,0,0,7.6,0,15.7
			c0,1.1,0.9,2,2,2c1.1,0,2-0.9,2-2V45.3h1.3V57c0,0.6-0.2,1.1-0.4,1.6c0.3,0.3,0.7,0.4,1.2,0.4c1.1,0,2-0.9,2-2c0-8.1,0-4.7,0-25.6
			C28.6,29.6,27.1,28.1,25.3,28.1L25.3,28.1z M25.3,28.1"/>
	</g>
	<path class="st1" d="M22.9,27c0.5,0.3,1.1,0.4,1.7,0.4c0.6,0,1.2-0.2,1.8-0.4c1.2-0.6,2.1-1.9,2.1-3.4c0-2.1-1.7-3.8-3.8-3.8
		c-2.1,0-3.8,1.7-3.8,3.8C20.8,25.1,21.6,26.3,22.9,27L22.9,27z M22.9,27"/>
</g>
</svg>
