<?xml version="1.0" encoding="utf-8"?>
<!-- Generator: Adobe Illustrator 19.2.1, SVG Export Plug-In . SVG Version: 6.00 Build 0)  -->
<svg version="1.1" id="Layer_1" xmlns="http://www.w3.org/2000/svg" xmlns:xlink="http://www.w3.org/1999/xlink" x="0px" y="0px"
	 viewBox="0 0 76 76" style="enable-background:new 0 0 76 76;" xml:space="preserve">
<style type="text/css">
	.st0{fill:#FFFFFF;}
</style>
<g>
	<g>
		<path class="st0" d="M57.7,19h-21c-0.7,0-1.3,0.6-1.3,1.3v8.9l0.9-1.1c0.4-0.5,1-0.8,1.6-1v-5.6h18.5V38H38v-2.8L37.4,36
			c-0.5,0.6-1.2,0.9-2,1v2.4c0,0.7,0.6,1.3,1.3,1.3h6.8L40,56.5c-0.2,0.7,0.3,1.4,1,1.6c0.7,0.2,1.4-0.3,1.6-1l3.6-16.3h2.1L51.9,57
			c0.1,0.6,0.7,1,1.3,1c0.1,0,0.2,0,0.3,0c0.7-0.2,1.2-0.9,1-1.6L51,40.7h6.8c0.7,0,1.3-0.6,1.3-1.3V20.3C59,19.6,58.4,19,57.7,19
			L57.7,19z"/>
		<path class="st0" d="M47.7,26.4c-0.1-0.3-0.4-0.4-0.6-0.3l-7.5,2.6c-0.7-0.5-1.7-0.4-2.2,0.2L35,31.8L32.9,30c0,0.1,0,0.3,0,0.4
			v3.9l1.2,1c0.7,0.6,1.7,0.5,2.3-0.2l2.8-3.3l2.3-1.3l6-3.5C47.7,26.9,47.8,26.7,47.7,26.4L47.7,26.4z"/>
		<path class="st0" d="M28.3,27.1h-1.4c-1.1,0-2,0.5-2.6,1.3l-4.3,4c-0.7,0.6-0.7,1.6-0.1,2.3l3.5,3.9c0.6,0.7,1.6,0.7,2.3,0.1
			c0.7-0.6,0.7-1.6,0.1-2.3l-2.4-2.7l3.4-3.1l-2,2.7l2,2.2c1.1,1.2,1,3.1-0.2,4.2c-0.8,0.7-2,0.9-2.9,0.6c0,0,0,7.6,0,15.7
			c0,1.1,0.9,2,2,2s2-0.9,2-2V44.3H29V56c0,0.6-0.2,1.1-0.4,1.6c0.3,0.3,0.7,0.4,1.2,0.4c1.1,0,2-0.9,2-2c0-8.1,0-4.7,0-25.6
			C31.6,28.6,30.1,27.1,28.3,27.1L28.3,27.1z"/>
	</g>
	<path class="st0" d="M25.9,26c0.5,0.3,1.1,0.4,1.7,0.4s1.2-0.2,1.8-0.4c1.2-0.6,2.1-1.9,2.1-3.4c0-2.1-1.7-3.8-3.8-3.8
		s-3.8,1.7-3.8,3.8C23.8,24.1,24.6,25.3,25.9,26L25.9,26z"/>
</g>
</svg>
