<?xml version="1.0" encoding="utf-8"?>
<!-- Generator: Adobe Illustrator 19.2.1, SVG Export Plug-In . SVG Version: 6.00 Build 0)  -->
<svg version="1.1" id="Layer_1" xmlns="http://www.w3.org/2000/svg" xmlns:xlink="http://www.w3.org/1999/xlink" x="0px" y="0px"
	 viewBox="0 0 76 76" style="enable-background:new 0 0 76 76;" xml:space="preserve">
<style type="text/css">
	.st0{fill:#FFFFFF;}
</style>
<g>
	<path class="st0" d="M25.9,26.1V53h-3.3c-0.4,0-0.8-0.1-1.2-0.3c-0.4-0.2-0.8-0.4-1.2-0.7c-0.3-0.3-0.6-0.7-0.9-1
		c-0.2-0.4-0.3-0.8-0.3-1.2V29.3c0-0.3,0.1-0.7,0.3-1.1c0.2-0.4,0.5-0.7,0.9-1c0.3-0.3,0.7-0.6,1.1-0.8c0.4-0.2,0.8-0.3,1.1-0.3
		H25.9z M28,26.1h5.4v-4.2c0-0.2,0.1-0.4,0.2-0.6c0.1-0.2,0.3-0.4,0.5-0.6s0.4-0.4,0.6-0.5c0.2-0.1,0.4-0.2,0.6-0.2h7.5
		c0.2,0,0.4,0.1,0.7,0.2c0.2,0.1,0.4,0.3,0.6,0.5c0.2,0.2,0.3,0.4,0.5,0.6c0.1,0.2,0.2,0.5,0.2,0.7v4.1h5.4V53H28V26.1z M35.4,22v4
		h7.2v-4H35.4z M52.2,26.1h3.5c0.3,0,0.7,0.1,1.1,0.3c0.4,0.2,0.7,0.5,1.1,0.8c0.3,0.3,0.6,0.7,0.8,1c0.2,0.4,0.3,0.7,0.3,1v20.5
		c0,0.4-0.1,0.8-0.3,1.2s-0.5,0.7-0.8,1s-0.7,0.6-1.1,0.7c-0.4,0.2-0.8,0.3-1.2,0.3h-3.3L52.2,26.1L52.2,26.1z"/>
</g>
</svg>
