<?xml version="1.0" encoding="utf-8"?>
<!-- Generator: Adobe Illustrator 19.2.1, SVG Export Plug-In . SVG Version: 6.00 Build 0)  -->
<svg version="1.1" id="Layer_1" xmlns="http://www.w3.org/2000/svg" xmlns:xlink="http://www.w3.org/1999/xlink" x="0px" y="0px"
	 viewBox="0 0 110 110" style="enable-background:new 0 0 110 110;" xml:space="preserve">
<style type="text/css">
	.st0{fill-opacity:0.25;stroke:#F96D2F;stroke-miterlimit:10;}
	.st1{fill:#F96D2F;}
</style>
<circle class="st0" cx="54.5" cy="55.5" r="51.5"/>
<g>
	<path class="st1" d="M73,76.8v-34c0-1.1-0.4-2.2-1.2-2.9l-7.2-7.2c-0.8-0.8-1.8-1.2-2.9-1.2h-19c-1.5,0-2.8,1.2-2.8,2.8v42.6
		c0,1.5,1.2,2.8,2.8,2.8h27.5C71.8,79.6,73,78.3,73,76.8L73,76.8z M66.3,51c1.5,0,2.8,1.2,2.8,2.8v3.4h-6.3V51H66.3z M69.1,67.3
		H43.9v-7.4h25.3V67.3z M60.1,57.2h-7.2V51h7.2V57.2z M43.9,53.8c0-1.5,1.2-2.8,2.8-2.8h3.5v6.2h-6.3V53.8z M43.9,73.1v-3h6.4v5.7
		h-3.7C45.1,75.8,43.9,74.6,43.9,73.1L43.9,73.1z M52.8,70.1h7.4v5.7h-7.4V70.1z M69.1,73.1c0,1.5-1.2,2.8-2.8,2.8h-3.7v-5.7h6.4
		V73.1z M69.1,73.1"/>
</g>
</svg>
