<?xml version="1.0" encoding="utf-8"?>
<!-- Generator: Adobe Illustrator 19.0.0, SVG Export Plug-In . SVG Version: 6.00 Build 0)  -->
<svg version="1.1" id="Layer_1" xmlns="http://www.w3.org/2000/svg" xmlns:xlink="http://www.w3.org/1999/xlink" x="0px" y="0px"
	 viewBox="0 0 39 39" style="enable-background:new 0 0 39 39;" xml:space="preserve">
<style type="text/css">
	.st0{opacity:0.11;}
	.st1{fill:#FFFFFF;}
</style>
<g id="XMLID_10_">
	<circle id="XMLID_35_" class="st0" cx="19.5" cy="19.5" r="19.5"/>
	<path id="XMLID_11_" class="st1" d="M24.9,19.5c0,2.8-2.3,5.1-5.1,5.1s-5.1-2.3-5.1-5.1c0-0.3,0-0.7,0.1-1h-3.5v6.8
		c0,1.5,1.2,2.7,2.7,2.7h11.7c1.5,0,2.7-1.2,2.7-2.7v-6.8h-3.5C24.9,18.8,24.9,19.2,24.9,19.5z M25.6,11H13.9
		c-1.5,0-2.7,1.2-2.7,2.7v2.9h4.3c0.9-1.3,2.5-2.2,4.2-2.2s3.3,0.9,4.2,2.2h4.3v-2.9C28.3,12.2,27.1,11,25.6,11z M26.9,14.3
		c0,0.3-0.2,0.5-0.5,0.5H25c-0.3,0-0.5-0.2-0.5-0.5v-1.4c0-0.3,0.2-0.5,0.5-0.5h1.4c0.3,0,0.5,0.2,0.5,0.5V14.3z M22.9,19.5
		c0-1.7-1.4-3.2-3.2-3.2c-1.7,0-3.2,1.4-3.2,3.2c0,1.7,1.4,3.2,3.2,3.2C21.5,22.7,22.9,21.2,22.9,19.5z"/>
</g>
</svg>
