<?xml version="1.0" encoding="utf-8"?>
<!-- Generator: Adobe Illustrator 19.0.0, SVG Export Plug-In . SVG Version: 6.00 Build 0)  -->
<svg version="1.1" id="Layer_1" xmlns="http://www.w3.org/2000/svg" xmlns:xlink="http://www.w3.org/1999/xlink" x="0px" y="0px"
	 viewBox="0 0 39 39" style="enable-background:new 0 0 39 39;" xml:space="preserve">
<style type="text/css">
	.st0{opacity:0.11;}
	.st1{fill:#FFFFFF;}
</style>
<circle id="XMLID_14_" class="st0" cx="19.5" cy="19.5" r="19.5"/>
<path id="XMLID_2_" class="st1" d="M19.3,19.1c2.8,0,5.1-2.3,5.1-5.1c0-2.8-2.3-5.1-5.1-5.1c-2.8,0-5.1,2.3-5.1,5.1
	C14.2,16.9,16.5,19.1,19.3,19.1z M19.3,11.6c1.4,0,2.5,1.1,2.5,2.5c0,1.4-1.1,2.5-2.5,2.5c-1.4,0-2.5-1.1-2.5-2.5
	C16.8,12.7,17.9,11.6,19.3,11.6z M25.1,19.7c-0.3-0.6-1.1-1.1-2.1-0.2c-1.4,1.1-3.7,1.1-3.7,1.1s-2.3,0-3.7-1.1
	c-1.1-0.8-1.8-0.4-2.1,0.2c-0.5,1,0.1,1.5,1.3,2.3c1.1,0.7,2.6,1,3.5,1.1l-0.8,0.8c-1.1,1.1-2.2,2.2-3,3c-0.5,0.5-0.5,1.2,0,1.6
	l0.1,0.1c0.5,0.5,1.2,0.5,1.6,0l3-3c1.1,1.1,2.2,2.2,3,3c0.5,0.5,1.2,0.5,1.6,0l0.1-0.1c0.5-0.5,0.5-1.2,0-1.6l-3-3l-0.8-0.8
	c1-0.1,2.4-0.4,3.5-1.1C25.1,21.2,25.6,20.7,25.1,19.7z"/>
</svg>
