<?xml version="1.0" encoding="utf-8"?>
<!-- Generator: Adobe Illustrator 19.0.0, SVG Export Plug-In . SVG Version: 6.00 Build 0)  -->
<svg version="1.1" id="Layer_1" xmlns="http://www.w3.org/2000/svg" xmlns:xlink="http://www.w3.org/1999/xlink" x="0px" y="0px"
	 viewBox="0 0 39 39" style="enable-background:new 0 0 39 39;" xml:space="preserve">
<style type="text/css">
	.st0{opacity:0.11;}
	.st1{fill:#FFFFFF;}
</style>
<circle id="XMLID_5_" class="st0" cx="19.5" cy="19.5" r="19.5"/>
<path id="XMLID_2_" class="st1" d="M29.4,13.8c-0.7,0.3-1.5,0.5-2.3,0.6c0.8-0.5,1.5-1.3,1.8-2.3c-0.8,0.5-1.7,0.8-2.6,1
	c-0.7-0.8-1.8-1.3-3-1.3c-2.3,0-4.1,1.8-4.1,4.1c0,0.3,0,0.6,0.1,0.9c-3.4-0.2-6.4-1.8-8.4-4.3c-0.4,0.6-0.6,1.3-0.6,2.1
	c0,1.4,0.7,2.7,1.8,3.4c-0.7,0-1.3-0.2-1.8-0.5c0,0,0,0,0,0.1c0,2,1.4,3.6,3.3,4c-0.3,0.1-0.7,0.1-1.1,0.1c-0.3,0-0.5,0-0.8-0.1
	c0.5,1.6,2,2.8,3.8,2.8c-1.4,1.1-3.2,1.7-5.1,1.7c-0.3,0-0.7,0-1-0.1c1.8,1.2,3.9,1.8,6.3,1.8c7.5,0,11.6-6.2,11.6-11.6
	c0-0.2,0-0.4,0-0.5C28.2,15.3,28.9,14.6,29.4,13.8z"/>
</svg>
