<?xml version="1.0" encoding="utf-8"?>
<!-- Generator: Adobe Illustrator 19.0.0, SVG Export Plug-In . SVG Version: 6.00 Build 0)  -->
<svg version="1.1" id="Layer_1" xmlns="http://www.w3.org/2000/svg" xmlns:xlink="http://www.w3.org/1999/xlink" x="0px" y="0px"
	 viewBox="0 0 39 39" style="enable-background:new 0 0 39 39;" xml:space="preserve">
<style type="text/css">
	.st0{opacity:0.11;}
	.st1{fill:#FFFFFF;}
</style>
<circle id="XMLID_51_" class="st0" cx="19.5" cy="19.5" r="19.5"/>
<path id="XMLID_35_" class="st1" d="M22.2,20.6c-0.5-0.3-1.3-0.3-1.9-0.3h-2v4.1h1.8c0.7,0,1.5,0,2.1-0.4c0.5-0.4,0.8-1.1,0.8-1.7
	C23.1,21.6,22.7,20.9,22.2,20.6z M21.4,17.1c0.4-0.3,0.7-0.9,0.7-1.5c0-0.6-0.3-1.2-0.8-1.5c-0.5-0.3-1.5-0.2-2.1-0.2h-0.9v3.6h1.1
	C20.1,17.5,20.9,17.5,21.4,17.1z M21.3,27.3h-6.8V11h7.4c2.1,0,4.1,1.4,4.1,3.8c0,1.9-1,3.1-2.4,3.5v0c2,0.4,3.4,1.5,3.4,4
	C27,24.8,25.4,27.3,21.3,27.3z"/>
</svg>
