<?xml version="1.0" encoding="utf-8"?>
<!-- Generator: Adobe Illustrator 19.0.0, SVG Export Plug-In . SVG Version: 6.00 Build 0)  -->
<svg version="1.0" id="Layer_1" xmlns="http://www.w3.org/2000/svg" xmlns:xlink="http://www.w3.org/1999/xlink" x="0px" y="0px"
	 viewBox="0 0 185 170" style="enable-background:new 0 0 185 170;" xml:space="preserve">
<style type="text/css">
	.st0{fill-rule:evenodd;clip-rule:evenodd;fill:#C6E8F9;}
	.st1{fill-rule:evenodd;clip-rule:evenodd;fill:#1D93D1;}
	.st2{opacity:0.42;fill-rule:evenodd;clip-rule:evenodd;fill:#FFFFFF;}
	.st3{fill-rule:evenodd;clip-rule:evenodd;fill:#EE7D66;}
	.st4{fill-rule:evenodd;clip-rule:evenodd;fill:#FAAE72;}
	.st5{fill-rule:evenodd;clip-rule:evenodd;fill:#FFFFFF;}
	.st6{fill-rule:evenodd;clip-rule:evenodd;fill:#0E8BCA;}
	.st7{fill-rule:evenodd;clip-rule:evenodd;fill:#485F87;}
	.st8{fill-rule:evenodd;clip-rule:evenodd;fill:#CCE6D2;}
	.st9{fill-rule:evenodd;clip-rule:evenodd;fill:#AF1F24;}
	.st10{fill-rule:evenodd;clip-rule:evenodd;fill:#EF413E;}
</style>
<g id="XMLID_31_">
	<path id="XMLID_29_" class="st0" d="M83.7,159.2c30.4,0,55.1-24.7,55.1-55.1c0-30.4-24.7-55.1-55.1-55.1
		c-30.4,0-55.1,24.7-55.1,55.1C28.6,134.5,53.3,159.2,83.7,159.2"/>
	<path id="XMLID_28_" class="st1" d="M136.9,89.8c-2.6-9.7-7.6-18.1-14.3-24.7l-39,39l39,39c6.8-6.8,11.8-15.4,14.3-24.7l-53.2-14.3
		l-14.3,53.2c9,2.4,18.8,2.6,28.5,0l-14.3-53.2l-53.2,14.3c2.6,9.7,7.6,18.1,14.3,24.7l39-39l-39-39C37.9,72,33,80.5,30.5,89.8
		l53.2,14.3l14.3-53.2c-9-2.4-18.8-2.6-28.5,0l14.3,53.2L136.9,89.8z"/>
	<path id="XMLID_27_" class="st2" d="M83.7,63.5c22.4,0,40.6,18.2,40.6,40.6c0,22.4-18.2,40.6-40.6,40.6
		c-22.4,0-40.6-18.2-40.6-40.6C43.1,81.7,61.3,63.5,83.7,63.5"/>
	<path id="XMLID_26_" class="st3" d="M103.2,74.4l6.2-10.7c2.7-4.7,6.7-7.8,11.9-9.2l8.9-2.4c1.7-0.4,3.3-0.1,4.7,0.9
		c1.4,1,2.1,2.5,2.1,4.3v7.8c0,4-2.6,7.4-6.4,8.4l-22.7,6.1L103.2,74.4z"/>
	<path id="XMLID_25_" class="st3" d="M103.2,74.4l6.2-10.7c2.7-4.7,6.7-7.8,11.9-9.2l8.9-2.4c1.7-0.4,3.3-0.1,4.7,0.9
		c1.4,1,2.1,2.5,2.1,4.3v7.8c0,4-2.6,7.4-6.4,8.4l-6,1.6l-2.3-8.8l-0.3-0.3c-1.3-1.3-3.1-1.9-5-1.7c-1.9,0.3-3.4,1.3-4.4,2.9
		l-6.1,10.6L103.2,74.4z"/>
	<path id="XMLID_24_" class="st4" d="M122.7,55.1l0.3-0.2c1.8-1.1,4.2-0.4,5.2,1.4l10.1,17.5l-7,4l-10.1-17.5
		C120.3,58.5,120.9,56.2,122.7,55.1"/>
	<path id="XMLID_23_" class="st3" d="M112.1,52.5l0.2-0.1c1.8-1.1,4.2-0.4,5.2,1.4l13.9,24l-3.5,2L112.1,52.5z"/>
	<path id="XMLID_22_" class="st3" d="M122.9,55l0.2-0.1c1.8-1.1,4.2-0.4,5.2,1.4l10.1,17.5l-3.5,2L122.9,55z"/>
	<polygon id="XMLID_21_" class="st5" points="93.7,23.2 118.4,9 132.7,33.7 139.8,46 146.9,58.4 154.1,70.7 129.4,85 122.2,72.6 
		115.1,60.3 108,47.9 	"/>
	<path id="XMLID_20_" class="st6" d="M108.3,20c4.6-2.7,9.2-3.4,10.2-1.7c1,1.7-2,5.3-6.6,8c-4.6,2.7-9.2,3.4-10.2,1.7
		C100.7,26.2,103.7,22.7,108.3,20"/>
	<polygon id="XMLID_19_" class="st0" points="93.7,23.2 154.1,70.7 129.4,85 	"/>
	
		<rect id="XMLID_18_" x="105.6" y="35" transform="matrix(-0.866 0.5 -0.5 -0.866 230.2854 10.6773)" class="st6" width="16.3" height="2.4"/>
	
		<rect id="XMLID_17_" x="107" y="36.7" transform="matrix(-0.866 0.5 -0.5 -0.866 238.8283 11.8736)" class="st6" width="21.7" height="2.4"/>
	
		<rect id="XMLID_16_" x="109.3" y="41.7" transform="matrix(-0.866 0.5 -0.5 -0.866 242.5026 19.6767)" class="st7" width="18.7" height="1.3"/>
	
		<rect id="XMLID_15_" x="110" y="42.6" transform="matrix(-0.866 0.5001 -0.5001 -0.866 247.2017 20.2358)" class="st7" width="21.7" height="1.3"/>
	
		<rect id="XMLID_14_" x="111.4" y="45.7" transform="matrix(-0.866 0.5 -0.5 -0.866 245.9853 26.8682)" class="st7" width="16" height="1.3"/>
	
		<rect id="XMLID_13_" x="112.3" y="47.1" transform="matrix(-0.866 0.5001 -0.5001 -0.866 249.415 28.6968)" class="st7" width="17.1" height="1.3"/>
	
		<rect id="XMLID_12_" x="114.7" y="50.1" transform="matrix(-0.8661 0.4999 -0.4999 -0.8661 259.9504 33.0055)" class="st6" width="21.7" height="2.4"/>
	<polygon id="XMLID_11_" class="st6" points="117.3,58.8 133.5,49.5 134.7,51.5 118.5,60.9 	"/>
	<polygon id="XMLID_10_" class="st7" points="119.7,62.9 133,55.3 133.6,56.4 120.4,64 	"/>
	<polygon id="XMLID_9_" class="st7" points="120.7,64.6 136.1,55.7 136.8,56.8 121.3,65.7 	"/>
	
		<rect id="XMLID_8_" x="120.5" y="60.8" transform="matrix(-0.866 0.5 -0.5 -0.866 275.899 48.9331)" class="st7" width="21.7" height="1.3"/>
	
		<rect id="XMLID_7_" x="122" y="64.4" transform="matrix(-0.8661 0.4998 -0.4998 -0.8661 273.3185 56.8234)" class="st7" width="14.1" height="1.3"/>
	<path id="XMLID_6_" class="st2" d="M83.7,80.1c13.2,0,24,10.7,24,24c0,13.2-10.7,24-24,24s-24-10.7-24-24
		C59.7,90.9,70.4,80.1,83.7,80.1"/>
	<polygon id="XMLID_5_" class="st8" points="100.5,71.6 117.3,88.3 112.8,92.7 96.1,76 	"/>
	
		<rect id="XMLID_4_" x="97" y="73.9" transform="matrix(-0.7069 -0.7073 0.7073 -0.7069 118.8728 203.33)" class="st5" width="9.2" height="6.2"/>
	<path id="XMLID_3_" class="st4" d="M112.8,83.8l3-0.8c4.6-1.2,7.9-4.5,9.1-9.1l0.8-2.9l6.7-6.7c1.4-1.4,1.4-3.6,0-4.9l-0.1-0.1
		c-0.6-0.6-1.5-0.6-2,0l-3,3c-1.9,1.9-5.8,5-8.6,6.1c-4.3,1.7-7.7,4-10.9,7.2l-1.5,1.5L112.8,83.8z"/>
	<path id="XMLID_2_" class="st9" d="M37.7,134.4c5.3,8.1,12.8,14.7,21.5,19l16.7-16.7l20.3-20.3l20.3-20.3L96.1,76L75.8,96.2
		l-20.3,20.3L37.7,134.4z"/>
	<path id="XMLID_1_" class="st10" d="M37.7,134.4c3,4.5,6.6,8.5,10.7,12l59.1-59.1L96.1,76L37.7,134.4z"/>
</g>
</svg>
