<?xml version="1.0" encoding="utf-8"?>
<!-- Generator: Adobe Illustrator 19.0.0, SVG Export Plug-In . SVG Version: 6.00 Build 0)  -->
<svg version="1.0" id="Layer_1" xmlns="http://www.w3.org/2000/svg" xmlns:xlink="http://www.w3.org/1999/xlink" x="0px" y="0px"
	 viewBox="0 0 185 170" style="enable-background:new 0 0 185 170;" xml:space="preserve">
<style type="text/css">
	.st0{fill-rule:evenodd;clip-rule:evenodd;fill:#FFFFFF;}
	.st1{fill:#DD745C;}
	.st2{fill-rule:evenodd;clip-rule:evenodd;fill:#D8DF2B;}
	.st3{fill-rule:evenodd;clip-rule:evenodd;fill:#506F7E;}
	.st4{fill-rule:evenodd;clip-rule:evenodd;fill:#EAE9CA;}
	.st5{fill-rule:evenodd;clip-rule:evenodd;fill:#284672;}
	.st6{fill-rule:evenodd;clip-rule:evenodd;fill:#48A4AD;}
	.st7{fill-rule:evenodd;clip-rule:evenodd;fill:#CECBA0;}
</style>
<g id="XMLID_2_">
	<path id="XMLID_141_" class="st0" d="M16.9,46.7c-2,0-3.7,1.7-3.7,3.7c0,2,1.7,3.7,3.7,3.7h7.4h7.4h7.4h7.4H54h7.4
		c2,0,3.7-1.7,3.7-3.7c0-2-1.7-3.7-3.7-3.7H54c2,0,3.7-1.7,3.7-3.7c0-2-1.7-3.7-3.7-3.7h-7.4h-7.4h-7.4h-7.4c-2,0-3.7,1.7-3.7,3.7
		c0,2,1.7,3.7,3.7,3.7H16.9z"/>
	<path id="XMLID_140_" class="st0" d="M130.7,77.8c-2,0-3.6,1.6-3.6,3.6c0,2,1.6,3.6,3.6,3.6h7.1h7.1h7.1h7.1h7.1h7.1
		c2,0,3.6-1.6,3.6-3.6c0-2-1.6-3.6-3.6-3.6h7.1c2,0,3.6-1.6,3.6-3.6c0-2-1.6-3.6-3.6-3.6h-7.1h-7.1h-7.1H152h-7.1h-7.1
		c-2,0-3.6,1.6-3.6,3.6c0,2,1.6,3.6,3.6,3.6H130.7z"/>
	<path id="XMLID_139_" class="st0" d="M4.8,78.7c-2.1,0-3.7,1.7-3.7,3.7c0,2,1.7,3.7,3.7,3.7h7.4h7.4h7.4h7.4h7.4h7.4
		c2,0,3.7-1.7,3.7-3.7c0-2-1.7-3.7-3.7-3.7h-7.4c2.1,0,3.7-1.7,3.7-3.7c0-2-1.7-3.7-3.7-3.7h-7.4h-7.4h-7.4h-7.4
		c-2,0-3.7,1.7-3.7,3.7c0,2,1.7,3.7,3.7,3.7H4.8z"/>
	<path id="XMLID_138_" class="st1" d="M45.6,148.4c0.2-2.6,0-5.3-0.5-7.8c-0.6-2.6-1.5-5-2.8-7.3l1-0.6c1.4,2.4,2.3,5,2.9,7.7
		c0.6,2.7,0.8,5.4,0.6,8.2L45.6,148.4z"/>
	<path id="XMLID_137_" class="st2" d="M49.2,134.8l-6.6-1.8l-4.9,4.8c0,0-0.1,0-0.2,0c0,0-0.1-0.1-0.1-0.1l0.3-1.3
		c0.1-0.3,0.2-0.6,0.5-0.9l-1.6,0.9c0,0-0.1,0-0.1,0c0,0-0.1-0.1,0-0.1l0.6-1.2c0.2-0.3,0.4-0.6,0.7-0.7l-1.8,0.5
		c-0.1,0-0.1,0-0.1-0.1c0,0,0-0.1,0-0.2l0.9-1c0.2-0.3,0.5-0.4,0.8-0.5l-1.8,0c-0.1,0-0.1,0-0.1-0.1c0-0.1,0-0.1,0.1-0.1l1.1-0.7
		c0.3-0.2,0.6-0.3,0.9-0.3l-1.8-0.5c-0.1,0-0.1-0.1-0.1-0.1c0-0.1,0-0.1,0.1-0.1l1.3-0.4c0.3-0.1,0.7-0.1,1,0l-1.6-0.9
		c-0.1,0-0.1-0.1-0.1-0.1c0-0.1,0.1-0.1,0.1-0.1l1.3-0.1c0.4,0,0.7,0.1,1,0.2l-1.3-1.3c0,0,0-0.1,0-0.1c0,0,0.1-0.1,0.1-0.1l1.3,0.3
		c0.3,0.1,0.6,0.2,0.9,0.5l-0.9-1.6c0,0,0-0.1,0-0.1c0,0,0.1-0.1,0.2,0l1.2,0.6c0.3,0.2,0.6,0.4,0.7,0.7c0-0.3,0.1-0.6,0.3-0.9
		l0.8-1.1c0,0,0.1-0.1,0.1,0c0.1,0,0.1,0.1,0.1,0.1l0,1.8c0.1-0.3,0.3-0.6,0.6-0.8l1-0.9c0,0,0.1,0,0.2,0c0,0,0.1,0.1,0.1,0.1
		l-0.5,1.8c0.2-0.3,0.4-0.5,0.7-0.6l1.2-0.6c0.1,0,0.1,0,0.1,0c0,0,0,0.1,0,0.2l-0.9,1.6c0.2-0.2,0.5-0.4,0.9-0.4l1.3-0.3
		c0.1,0,0.1,0,0.1,0.1c0,0,0,0.1,0,0.1l-1.3,1.3c0.3-0.2,0.6-0.2,1-0.2l1.3,0.1c0.1,0,0.1,0,0.1,0.1c0,0.1,0,0.1-0.1,0.1l-1.6,0.9
		c0.3-0.1,0.7,0,1,0.1l1.3,0.4c0.1,0,0.1,0.1,0.1,0.1c0,0.1,0,0.1-0.1,0.1l-1.8,0.4c0.3,0,0.6,0.1,0.9,0.3l1.1,0.8
		c0,0,0.1,0.1,0,0.1c0,0.1-0.1,0.1-0.1,0.1l-1.8,0c0.3,0.1,0.6,0.3,0.8,0.6l0.9,1c0,0,0,0.1,0,0.2C49.3,134.8,49.3,134.8,49.2,134.8
		"/>
	<rect id="XMLID_136_" x="42.9" y="44.3" class="st3" width="83.2" height="83.2"/>
	<rect id="XMLID_135_" x="126.2" y="44.3" class="st4" width="30.3" height="99.7"/>
	<path id="XMLID_134_" class="st4" d="M118.4,18h7.8h30.3h7.8v4.6h-0.6c-3.9,0-7.1,3.2-7.1,7.1v14.6h-30.3V29.6
		c0-3.9-3.2-7.1-7.1-7.1h-0.6V18z"/>
	<rect id="XMLID_133_" x="48.1" y="127.5" class="st3" width="78.1" height="16.5"/>
	<rect id="XMLID_132_" x="42.9" y="82" class="st5" width="83.2" height="4.1"/>
	<rect id="XMLID_131_" x="42.9" y="99.6" class="st5" width="83.2" height="4.1"/>
	<rect id="XMLID_130_" x="42.9" y="117.2" class="st5" width="83.2" height="4.1"/>
	<rect id="XMLID_129_" x="109.8" y="46.7" class="st5" width="16.3" height="80.8"/>
	<path id="XMLID_121_" class="st4" d="M106.9,46.7h2.9v80.8h-2.9V46.7z M95.1,46.7h2.9v80.8h-2.9V46.7z M83.4,46.7h2.9v80.8h-2.9
		V46.7z M71.6,46.7h2.9v80.8h-2.9V46.7z M59.9,46.7h2.9v80.8h-2.9V46.7z M48.1,46.7H51v80.8h-2.9V46.7z M118.6,46.7h2.9v80.8h-2.9
		V46.7z"/>
	<rect id="XMLID_120_" x="106.9" y="127.5" class="st5" width="19.3" height="16.5"/>
	<path id="XMLID_114_" class="st4" d="M39.1,90.8h87.1v8.8H39.1V90.8z M39.1,73.1h87.1V82H39.1V73.1z M39.1,55.5h87.1v8.8H39.1V55.5
		z M39.1,41.5h87.1v5.2H39.1V41.5z M39.1,108.4h87.1v8.8H39.1V108.4z"/>
	<rect id="XMLID_113_" x="39.1" y="127.5" class="st4" width="87.1" height="3.2"/>
	<rect id="XMLID_112_" x="60.5" y="130.7" class="st4" width="1.6" height="13.3"/>
	<rect id="XMLID_111_" x="48.1" y="130.7" class="st4" width="1.6" height="13.3"/>
	<rect id="XMLID_110_" x="85.4" y="130.7" class="st4" width="1.6" height="13.3"/>
	<rect id="XMLID_109_" x="73" y="130.7" class="st4" width="1.6" height="13.3"/>
	<rect id="XMLID_108_" x="97.8" y="130.7" class="st4" width="1.6" height="13.3"/>
	<rect id="XMLID_107_" x="45.8" y="144" class="st4" width="115.1" height="4.4"/>
	<rect id="XMLID_106_" x="126.2" y="22.5" class="st6" width="10.1" height="108.1"/>
	<rect id="XMLID_105_" x="126.2" y="55.5" class="st5" width="10.1" height="8.8"/>
	<rect id="XMLID_104_" x="126.2" y="46.7" class="st5" width="5.1" height="8.8"/>
	<rect id="XMLID_103_" x="131.2" y="64.3" class="st3" width="10.1" height="8.8"/>
	<rect id="XMLID_102_" x="154.3" y="29.6" class="st7" width="2.2" height="101"/>
	<rect id="XMLID_101_" x="136.3" y="73.1" class="st3" width="10.1" height="8.8"/>
	<rect id="XMLID_100_" x="141.3" y="82" class="st3" width="10.1" height="8.8"/>
	<rect id="XMLID_99_" x="136.3" y="130.7" class="st3" width="20.2" height="13.3"/>
	<rect id="XMLID_98_" x="146.4" y="90.8" class="st3" width="10.1" height="8.8"/>
	<rect id="XMLID_97_" x="126.2" y="99.6" class="st5" width="5.1" height="8.8"/>
	<rect id="XMLID_96_" x="126.2" y="108.4" class="st5" width="10.1" height="8.8"/>
	<rect id="XMLID_95_" x="131.2" y="117.2" class="st3" width="10.1" height="10.3"/>
	<rect id="XMLID_94_" x="48.1" y="132.3" class="st4" width="78.1" height="1.6"/>
	<rect id="XMLID_93_" x="140.5" y="130.7" class="st4" width="1.6" height="13.3"/>
	<rect id="XMLID_92_" x="153" y="130.7" class="st4" width="1.6" height="13.3"/>
	<path id="XMLID_87_" class="st5" d="M135.8,33.6V38h-3.2v-4.4H135.8z M135.8,26.9v4.4h-3.2v-4.4c0-1.3,0.7-2.4,1.6-2.4
		C135.1,24.6,135.8,25.6,135.8,26.9z M130.4,33.6V38h-2.1v-4.4H130.4z M130.4,26.9v4.4h-2.1v-4.4c0-1.3,0.5-2.4,1.1-2.4
		C129.9,24.6,130.4,25.6,130.4,26.9z"/>
	<path id="XMLID_80_" class="st3" d="M146.8,33.6V38h3.2v-4.4H146.8z M146.8,26.9v4.4h3.2v-4.4c0-1.3-0.7-2.4-1.6-2.4
		C147.5,24.6,146.8,25.6,146.8,26.9z M143.7,33.6V38h-4.7v-4.4H143.7z M143.7,26.9v4.4h-4.7v-4.4c0-1.3,1.1-2.4,2.4-2.4
		C142.6,24.6,143.7,25.6,143.7,26.9z M152.2,33.6V38h2.1v-4.4H152.2z M152.2,26.9v4.4h2.1v-4.4c0-1.3-0.5-2.4-1.1-2.4
		C152.7,24.6,152.2,25.6,152.2,26.9z"/>
	<rect id="XMLID_79_" x="42.9" y="46.7" class="st5" width="83.2" height="4.1"/>
	<rect id="XMLID_78_" x="42.9" y="64.3" class="st5" width="83.2" height="4.1"/>
	<path id="XMLID_70_" class="st6" d="M106.9,50.8h2.9v-4.1h-2.9V50.8z M95.1,50.8h2.9v-4.1h-2.9V50.8z M83.4,50.8h2.9v-4.1h-2.9
		V50.8z M71.6,50.8h2.9v-4.1h-2.9V50.8z M59.9,50.8h2.9v-4.1h-2.9V50.8z M48.1,50.8H51v-4.1h-2.9V50.8z M121.6,46.7v4.1h-2.9v-4.1
		H121.6z"/>
	<path id="XMLID_62_" class="st6" d="M106.9,68.4h2.9v-4.1h-2.9V68.4z M95.1,68.4h2.9v-4.1h-2.9V68.4z M83.4,68.4h2.9v-4.1h-2.9
		V68.4z M71.6,68.4h2.9v-4.1h-2.9V68.4z M59.9,68.4h2.9v-4.1h-2.9V68.4z M48.1,68.4H51v-4.1h-2.9V68.4z M121.6,64.3v4.1h-2.9v-4.1
		H121.6z"/>
	<path id="XMLID_54_" class="st6" d="M106.9,86h2.9V82h-2.9V86z M95.1,86h2.9V82h-2.9V86z M83.4,86h2.9V82h-2.9V86z M71.6,86h2.9V82
		h-2.9V86z M59.9,86h2.9V82h-2.9V86z M48.1,86H51V82h-2.9V86z M121.6,82V86h-2.9V82H121.6z"/>
	<path id="XMLID_46_" class="st6" d="M106.9,103.7h2.9v-4.1h-2.9V103.7z M95.1,103.7h2.9v-4.1h-2.9V103.7z M83.4,103.7h2.9v-4.1
		h-2.9V103.7z M71.6,103.7h2.9v-4.1h-2.9V103.7z M59.9,103.7h2.9v-4.1h-2.9V103.7z M48.1,103.7H51v-4.1h-2.9V103.7z M121.6,99.6v4.1
		h-2.9v-4.1H121.6z"/>
	<path id="XMLID_38_" class="st6" d="M106.9,121.3h2.9v-4.1h-2.9V121.3z M95.1,121.3h2.9v-4.1h-2.9V121.3z M83.4,121.3h2.9v-4.1
		h-2.9V121.3z M71.6,121.3h2.9v-4.1h-2.9V121.3z M59.9,121.3h2.9v-4.1h-2.9V121.3z M48.1,121.3H51v-4.1h-2.9V121.3z M121.6,117.2
		v4.1h-2.9v-4.1H121.6z"/>
	<polygon id="XMLID_37_" class="st6" points="106.9,46.7 106.9,64.3 126.2,64.3 126.2,55.5 121.6,55.5 121.6,46.7 118.6,46.7 
		118.6,55.5 109.8,55.5 109.8,46.7 	"/>
	<polygon id="XMLID_36_" class="st6" points="106.9,64.3 106.9,82 126.2,82 126.2,73.1 121.6,73.1 121.6,64.3 118.6,64.3 
		118.6,73.1 109.8,73.1 109.8,64.3 	"/>
	<polygon id="XMLID_35_" class="st6" points="106.9,82 106.9,99.6 126.2,99.6 126.2,90.8 121.6,90.8 121.6,82 118.6,82 118.6,90.8 
		109.8,90.8 109.8,82 	"/>
	<polygon id="XMLID_34_" class="st6" points="106.9,99.6 106.9,117.2 126.2,117.2 126.2,108.4 121.6,108.4 121.6,99.6 118.6,99.6 
		118.6,108.4 109.8,108.4 109.8,99.6 	"/>
	<rect id="XMLID_33_" x="106.9" y="117.2" class="st6" width="2.9" height="10.3"/>
	<rect id="XMLID_32_" x="118.6" y="117.2" class="st6" width="2.9" height="10.3"/>
	<rect id="XMLID_31_" x="131.2" y="117.2" class="st5" width="5.1" height="10.3"/>
	<rect id="XMLID_30_" x="131.2" y="64.3" class="st5" width="5.1" height="8.8"/>
	<polygon id="XMLID_29_" class="st6" points="126.2,132.3 124.3,132.3 124.3,130.7 122.7,130.7 122.7,132.3 111.9,132.3 
		111.9,130.7 110.3,130.7 110.3,132.3 106.9,132.3 106.9,133.9 110.3,133.9 110.3,144 111.9,144 111.9,133.9 122.7,133.9 122.7,144 
		124.3,144 124.3,133.9 126.2,133.9 	"/>
	<rect id="XMLID_28_" x="126.2" y="130.7" class="st5" width="10.1" height="13.3"/>
	<rect id="XMLID_27_" x="128.1" y="130.7" class="st6" width="1.6" height="13.3"/>
	<rect id="XMLID_26_" x="126.2" y="132.3" class="st4" width="30.3" height="1.6"/>
	<rect id="XMLID_25_" x="126.2" y="132.3" class="st6" width="10.1" height="1.6"/>
	<rect id="XMLID_24_" x="106.9" y="127.5" class="st6" width="29.4" height="3.2"/>
	<rect id="XMLID_23_" x="48.1" y="130.7" class="st5" width="58.8" height="3.2"/>
	<rect id="XMLID_22_" x="48.1" y="132.3" class="st6" width="58.8" height="2"/>
	<rect id="XMLID_21_" x="48.1" y="130.7" class="st6" width="1.6" height="3.6"/>
	<rect id="XMLID_20_" x="60.5" y="130.7" class="st6" width="1.6" height="3.6"/>
	<rect id="XMLID_19_" x="73" y="130.7" class="st6" width="1.6" height="3.6"/>
	<rect id="XMLID_18_" x="85.4" y="130.7" class="st6" width="1.6" height="3.6"/>
	<rect id="XMLID_17_" x="97.8" y="130.7" class="st6" width="1.6" height="3.6"/>
	<rect id="XMLID_16_" x="131.2" y="46.7" class="st6" width="25.3" height="4.1"/>
	<rect id="XMLID_15_" x="136.3" y="55.5" class="st6" width="20.2" height="4.1"/>
	<rect id="XMLID_14_" x="141.3" y="64.3" class="st6" width="15.2" height="4.1"/>
	<rect id="XMLID_13_" x="146.4" y="73.1" class="st6" width="10.1" height="4.1"/>
	<rect id="XMLID_12_" x="151.4" y="82" class="st6" width="5.1" height="4.1"/>
	<rect id="XMLID_11_" x="136.3" y="82" class="st6" width="5.1" height="4.1"/>
	<rect id="XMLID_10_" x="128.3" y="90.8" class="st6" width="18.1" height="4.1"/>
	<rect id="XMLID_9_" x="131.2" y="99.6" class="st6" width="25.3" height="4.1"/>
	<rect id="XMLID_8_" x="136.3" y="108.4" class="st6" width="20.2" height="4.1"/>
	<rect id="XMLID_7_" x="141.3" y="117.2" class="st6" width="15.2" height="4.1"/>
	<path id="XMLID_6_" class="st1" d="M163.3,148.4c-0.3-3.5,0-7,0.7-10.4c0.8-3.4,2-6.7,3.7-9.8l-1.3-0.8c-1.8,3.2-3.1,6.6-3.9,10.2
		c-0.8,3.5-1,7.2-0.8,10.9L163.3,148.4z"/>
	<path id="XMLID_5_" class="st2" d="M158.5,130.3l8.7-2.4l6.5,6.3c0.1,0.1,0.1,0.1,0.2,0c0.1,0,0.1-0.1,0.1-0.2l-0.4-1.7
		c-0.1-0.5-0.3-0.9-0.6-1.2l2.1,1.2c0.1,0,0.1,0,0.2,0c0.1-0.1,0.1-0.1,0-0.2l-0.8-1.6c-0.2-0.4-0.5-0.7-0.9-1l2.3,0.6
		c0.1,0,0.1,0,0.2-0.1c0-0.1,0-0.1,0-0.2l-1.2-1.3c-0.3-0.3-0.7-0.6-1.1-0.7l2.4,0c0.1,0,0.1,0,0.2-0.1c0-0.1,0-0.1-0.1-0.2l-1.5-1
		c-0.4-0.3-0.8-0.4-1.3-0.4l2.3-0.7c0.1,0,0.1-0.1,0.1-0.2c0-0.1,0-0.1-0.1-0.2l-1.7-0.5c-0.4-0.1-0.9-0.2-1.3-0.1l2.1-1.2
		c0.1,0,0.1-0.1,0.1-0.2c0-0.1-0.1-0.1-0.2-0.1l-1.8-0.1c-0.5,0-0.9,0.1-1.3,0.3l1.7-1.7c0.1-0.1,0.1-0.1,0-0.2
		c0-0.1-0.1-0.1-0.2-0.1l-1.8,0.4c-0.5,0.1-0.9,0.3-1.2,0.6l1.2-2.1c0-0.1,0-0.1,0-0.2c-0.1-0.1-0.1-0.1-0.2,0l-1.6,0.8
		c-0.4,0.2-0.7,0.5-1,0.9c0-0.4-0.2-0.9-0.4-1.2l-1-1.5c0-0.1-0.1-0.1-0.2-0.1c-0.1,0-0.1,0.1-0.1,0.2l0,2.4
		c-0.1-0.4-0.4-0.8-0.7-1.1l-1.4-1.2c-0.1,0-0.1-0.1-0.2,0c-0.1,0-0.1,0.1-0.1,0.2l0.7,2.3c-0.2-0.4-0.6-0.7-1-0.9l-1.6-0.8
		c-0.1,0-0.1,0-0.2,0c0,0.1-0.1,0.1,0,0.2l1.2,2.1c-0.3-0.3-0.7-0.5-1.2-0.6l-1.8-0.3c-0.1,0-0.1,0-0.2,0.1c0,0.1,0,0.1,0,0.2
		l1.7,1.7c-0.4-0.2-0.8-0.3-1.3-0.2l-1.8,0.1c-0.1,0-0.1,0.1-0.2,0.1c0,0.1,0,0.1,0.1,0.2l2.1,1.2c-0.4-0.1-0.9-0.1-1.3,0.1
		l-1.7,0.6c-0.1,0-0.1,0.1-0.1,0.2c0,0.1,0.1,0.1,0.1,0.2l2.3,0.6c-0.4,0-0.9,0.2-1.2,0.4l-1.5,1c-0.1,0-0.1,0.1-0.1,0.2
		c0,0.1,0.1,0.1,0.2,0.1l2.4,0c-0.4,0.1-0.8,0.4-1.1,0.7l-1.2,1.4c0,0.1-0.1,0.1,0,0.2C158.3,130.3,158.4,130.3,158.5,130.3"/>
	<path id="XMLID_4_" class="st1" d="M28.9,148.4c-0.2-1.9,0-3.8,0.4-5.7c0.4-1.8,1.1-3.6,2-5.3l-0.7-0.4c-1,1.7-1.7,3.6-2.1,5.5
		c-0.4,1.9-0.6,3.9-0.4,5.9L28.9,148.4z"/>
	<path id="XMLID_3_" class="st2" d="M26.3,138.6l4.7-1.3l3.5,3.4c0,0,0.1,0,0.1,0c0,0,0.1-0.1,0-0.1l-0.2-0.9
		c-0.1-0.3-0.2-0.5-0.3-0.6l1.1,0.6c0,0,0.1,0,0.1,0c0,0,0-0.1,0-0.1l-0.4-0.9c-0.1-0.2-0.3-0.4-0.5-0.5l1.3,0.3c0,0,0.1,0,0.1,0
		c0,0,0-0.1,0-0.1l-0.6-0.7c-0.2-0.2-0.4-0.3-0.6-0.4l1.3,0c0,0,0.1,0,0.1-0.1c0,0,0-0.1,0-0.1l-0.8-0.5c-0.2-0.1-0.4-0.2-0.7-0.2
		l1.3-0.4c0,0,0.1,0,0.1-0.1c0,0,0-0.1-0.1-0.1l-0.9-0.3c-0.2-0.1-0.5-0.1-0.7,0l1.1-0.7c0,0,0.1-0.1,0-0.1c0,0,0-0.1-0.1-0.1l-1,0
		c-0.3,0-0.5,0-0.7,0.2l0.9-0.9c0,0,0-0.1,0-0.1c0,0-0.1-0.1-0.1,0l-0.9,0.2c-0.3,0.1-0.5,0.2-0.6,0.3l0.6-1.1c0,0,0-0.1,0-0.1
		c0,0-0.1,0-0.1,0l-0.9,0.4c-0.2,0.1-0.4,0.3-0.5,0.5c0-0.2-0.1-0.5-0.2-0.7l-0.5-0.8c0,0-0.1,0-0.1,0c0,0-0.1,0-0.1,0.1l0,1.3
		c-0.1-0.2-0.2-0.4-0.4-0.6l-0.7-0.6c0,0-0.1,0-0.1,0c0,0-0.1,0.1,0,0.1l0.4,1.3c-0.1-0.2-0.3-0.4-0.5-0.5l-0.9-0.4c0,0-0.1,0-0.1,0
		c0,0,0,0.1,0,0.1l0.7,1.1c-0.2-0.2-0.4-0.3-0.6-0.3l-1-0.2c0,0-0.1,0-0.1,0c0,0,0,0.1,0,0.1l0.9,0.9c-0.2-0.1-0.4-0.2-0.7-0.1
		l-1,0.1c0,0-0.1,0-0.1,0.1c0,0,0,0.1,0,0.1l1.1,0.6c-0.2,0-0.5,0-0.7,0.1l-0.9,0.3c0,0-0.1,0-0.1,0.1c0,0,0,0.1,0.1,0.1l1.3,0.3
		c-0.2,0-0.5,0.1-0.7,0.2l-0.8,0.5c0,0,0,0.1,0,0.1c0,0,0,0.1,0.1,0.1l1.3,0c-0.2,0.1-0.4,0.2-0.6,0.4l-0.6,0.7c0,0,0,0.1,0,0.1
		C26.2,138.6,26.2,138.6,26.3,138.6"/>
</g>
</svg>
