<?xml version="1.0" encoding="utf-8"?>
<!-- Generator: Adobe Illustrator 19.2.1, SVG Export Plug-In . SVG Version: 6.00 Build 0)  -->
<svg version="1.1" id="Слой_1" xmlns="http://www.w3.org/2000/svg" xmlns:xlink="http://www.w3.org/1999/xlink" x="0px" y="0px"
	 viewBox="0 0 36 36" style="enable-background:new 0 0 36 36;" xml:space="preserve">
<style type="text/css">
	.st0{fill:#FFFFFF;}
</style>
<path class="st0" d="M18,0C8.1,0,0,8.1,0,18s8.1,18,18,18s18-8.1,18-18S27.9,0,18,0z M27.2,23.9c0,1.4-1.2,2.6-2.6,2.6H13.1
	c-1.4,0-2.6-1.2-2.6-2.6v-6.2h3.4c-0.1,0-0.1,0.4-0.1,0.7c0,2.8,2.3,4.9,5,4.9c2.8,0,5-2.1,5-4.9c0-0.3,0-0.8-0.1-0.8h3.4L27.2,23.9
	L27.2,23.9z M15.7,18.1c0-1.7,1.4-3.1,3.1-3.1s3.1,1.4,3.1,3.1s-1.4,3.1-3.1,3.1C17.1,21.2,15.7,19.8,15.7,18.1z M27.2,15.7H23
	c-0.9-2-2.4-2.1-4.1-2.1s-3.2,0.2-4.1,2.1h-4.2v-3.3c0-1.4,1.2-2.6,2.6-2.6h11.5c1.4,0,2.6,1.2,2.6,2.6L27.2,15.7L27.2,15.7z"/>
</svg>
