<?xml version="1.0" encoding="utf-8"?>
<!-- Generator: Adobe Illustrator 19.0.0, SVG Export Plug-In . SVG Version: 6.00 Build 0)  -->
<svg version="1.1" id="Слой_1" xmlns="http://www.w3.org/2000/svg" xmlns:xlink="http://www.w3.org/1999/xlink" x="0px" y="0px"
	 viewBox="0 0 36 36" style="enable-background:new 0 0 36 36;" xml:space="preserve">
<style type="text/css">
	.st0{fill:#0091D4;}
</style>
<path id="XMLID_6_" class="st0" d="M18,0C8.1,0,0,8.1,0,18c0,9.9,8.1,18,18,18s18-8.1,18-18C36,8.1,27.9,0,18,0z M26.6,14.1
	c0,0.2,0,0.4,0,0.5c0,5.6-4.3,12-12,12c-2.4,0-4.6-0.7-6.5-1.9c0.3,0,0.7,0.1,1,0.1c2,0,3.8-0.7,5.2-1.8c-1.9,0-3.4-1.3-3.9-2.9
	c0.3,0,0.5,0.1,0.8,0.1c0.4,0,0.8-0.1,1.1-0.1C10.4,19.6,9,17.9,9,15.8c0,0,0,0,0-0.1c0.6,0.3,1.2,0.5,1.9,0.5
	C9.8,15.6,9,14.3,9,12.8c0-0.8,0.2-1.5,0.6-2.1c2.1,2.6,5.2,4.2,8.7,4.4c-0.1-0.3-0.1-0.6-0.1-1c0-2.3,1.9-4.2,4.2-4.2
	c1.2,0,2.3,0.5,3.1,1.3c1-0.2,1.9-0.5,2.7-1c-0.3,1-1,1.8-1.9,2.3c0.9-0.1,1.7-0.3,2.4-0.7C28.2,12.7,27.5,13.5,26.6,14.1z"/>
</svg>
