<?xml version="1.0" encoding="utf-8"?>
<!-- Generator: Adobe Illustrator 19.2.1, SVG Export Plug-In . SVG Version: 6.00 Build 0)  -->
<svg version="1.1" id="Layer_1" xmlns="http://www.w3.org/2000/svg" xmlns:xlink="http://www.w3.org/1999/xlink" x="0px" y="0px"
	 viewBox="0 0 46 46" style="enable-background:new 0 0 46 46;" xml:space="preserve">
<style type="text/css">
	.st0{fill:#0091D4;}
	.st1{fill:#FFFFFF;}
</style>
<circle class="st0" cx="23" cy="23" r="23"/>
<g>
	<path class="st1" d="M18.1,23.3c0-0.3,0-0.6,0.1-0.9c0.1-0.7,0.2-1.4,0.4-2c0.1-0.3,0.2-0.7,0.3-1c0.1-0.3,0.3-0.6,0.4-0.9
		c0.3-0.6,0.6-1.2,1-1.6c0.1-0.1,0.2-0.2,0.3-0.4c0.1-0.1,0.2-0.2,0.3-0.3c0.2-0.2,0.4-0.4,0.6-0.6c0.4-0.3,0.8-0.6,1.2-0.8
		c0.4-0.2,0.7-0.4,1-0.5c0.6-0.2,0.9-0.3,0.9-0.3s-0.3,0.2-0.7,0.6c-0.2,0.2-0.5,0.4-0.8,0.7c-0.3,0.2-0.6,0.6-1,0.9
		c-0.2,0.2-0.3,0.4-0.5,0.6c-0.1,0.1-0.2,0.2-0.2,0.3c-0.1,0.1-0.1,0.2-0.2,0.3c-0.3,0.4-0.5,1-0.8,1.5c-0.1,0.3-0.2,0.6-0.3,0.9
		c-0.1,0.3-0.1,0.6-0.2,0.9c-0.1,0.6-0.2,1.3-0.3,1.9c0,0.2-0.1,0.5-0.1,0.7c5.2,0,9.1,0,14.7,0c0-0.2,0-0.5,0-0.7
		c0-4.7-3.4-8.6-7.8-9.1c0.3-0.3,0.5-0.6,0.5-1.1c0-0.8-0.7-1.5-1.5-1.5c-0.8,0-1.5,0.7-1.5,1.5c0,0.4,0.2,0.8,0.5,1.1
		c-4.4,0.5-7.8,4.4-7.8,9.1c0,0.2,0,0.5,0,0.7H18.1z M18.1,23.3"/>
	<rect x="14.8" y="23.9" class="st1" width="20.9" height="1.8"/>
	<path class="st1" d="M27.2,27c-1.1,0.5-4.8,1.8-4.8,1.8L18,28.6c0,0,2.5-0.7,3.5-0.9c1-0.2,0.6-1.3,0-1.3c-0.5,0-5.2,0.2-5.2,0.2
		l-3.1,1.1l0.8,5.2c0,0,0.6-1.1,1.3-1.1c0.6,0,6.2,0.1,6.9,0c0.8-0.1,5.3-3.3,5.9-3.7C28.7,27.8,28.2,26.5,27.2,27L27.2,27z
		 M27.2,27"/>
	<path class="st1" d="M9,28.3V35l4.8-0.9l-1.2-6.5L9,28.3z M9,28.3"/>
</g>
</svg>
