<?xml version="1.0" encoding="utf-8"?>
<!-- Generator: Adobe Illustrator 19.0.0, SVG Export Plug-In . SVG Version: 6.00 Build 0)  -->
<svg version="1.1" id="Layer_1" xmlns="http://www.w3.org/2000/svg" xmlns:xlink="http://www.w3.org/1999/xlink" x="0px" y="0px"
	 viewBox="0 0 65 65" style="enable-background:new 0 0 65 65;" xml:space="preserve">
<style type="text/css">
	.st0{fill-rule:evenodd;clip-rule:evenodd;fill:#2A9DD3;}
	.st1{fill:#2A9DD3;}
</style>
<g id="XMLID_2_">
	<path id="XMLID_33_" class="st0" d="M31.2,47.9c-1.6-0.3-2.5-1.4-3.2-2.8c-0.3-0.5-0.5-1.1-0.6-1.6c-0.1-0.5-0.1-1-0.1-1.4
		c0-0.5,0.1-0.9,0.1-1.3c0.1-0.4,0.2-0.8,0.4-1.1c0.2-0.4,0.3-0.8,0.5-1.1c0.2-0.3,0.3-0.6,0.5-0.9c0.2-0.3,0.4-0.6,0.6-0.8
		c0.5-0.6,0.9-1.1,1.5-1.6c0.5-0.5,1.1-1.3,1.5-1.8c5.8-9.4-2.7-11.3-6.4-13.9c-0.3-0.2-0.7-0.5-1-0.8c-1.3-1.2-1.6-2.5-1.3-4.2
		c0.1-0.4,0.2-0.8,0.3-1.1c0.9-2.4,5.8-3.4,8.3-3c0.4,0.1,0.8,0.2,1.2,0.4c0.4,0.2,0.8,0.5,1,0.8c3.6,4.6,6.6,2.4,6.1,9.2
		c-0.2,2-0.7,2.8-1.5,4.5c-1,2-1.8,6.3-2.1,8.7c0,0.4,0,0.6-0.1,1c0,0.4-0.1,0.9-0.1,1.3c0,0.5,0.1,0.9,0.1,1.3
		c0.1,3.1,1.3,6.3-0.8,8.9c-0.2,0.3-0.4,0.5-0.7,0.7c-0.2,0.2-0.5,0.4-0.8,0.5c-0.3,0.1-0.6,0.2-1,0.3c-0.3,0.1-0.7,0.1-1,0.1
		C32,48.1,31.8,48,31.2,47.9"/>
	<path id="XMLID_32_" class="st1" d="M31.2,47.9c-1.6-0.3-2.5-1.4-3.2-2.8c-0.3-0.5-0.5-1.1-0.6-1.6c-0.1-0.5-0.1-1-0.1-1.4
		c0-0.5,0.1-0.9,0.1-1.3c0.1-0.4,0.2-0.8,0.4-1.1c0.2-0.4,0.3-0.8,0.5-1.1c0.2-0.3,0.3-0.6,0.5-0.9c0.2-0.3,0.4-0.6,0.6-0.8
		c0.5-0.6,0.9-1.1,1.5-1.6c0.5-0.5,1.1-1.3,1.5-1.8c5.8-9.4-2.7-11.3-6.4-13.9c-0.3-0.2-0.7-0.5-1-0.8c-1.3-1.2-1.6-2.5-1.3-4.2
		c0.1-0.4,0.2-0.8,0.3-1.1c0.9-2.4,5.8-3.4,8.3-3c0.4,0.1,0.8,0.2,1.2,0.4c0.4,0.2,0.8,0.5,1,0.8c3.6,4.6,6.6,2.4,6.1,9.2
		c-0.2,2-0.7,2.8-1.5,4.5c-1,2-1.8,6.3-2.1,8.7c0,0.4,0,0.6-0.1,1c0,0.4-0.1,0.9-0.1,1.3c0,0.5,0.1,0.9,0.1,1.3
		c0.1,3.1,1.3,6.3-0.8,8.9c-0.2,0.3-0.4,0.5-0.7,0.7c-0.2,0.2-0.5,0.4-0.8,0.5c-0.3,0.1-0.6,0.2-1,0.3c-0.3,0.1-0.7,0.1-1,0.1
		C32,48.1,31.8,48,31.2,47.9z"/>
	<path id="XMLID_31_" class="st0" d="M35.4,7.7c-0.4,0.8-1.2,1.3-1.9,1c-0.7-0.3-0.9-1.2-0.5-2c0.4-0.8,1.2-1.3,1.9-1
		C35.6,6,35.8,6.9,35.4,7.7"/>
	<path id="XMLID_30_" class="st1" d="M35.4,7.7c-0.4,0.8-1.2,1.3-1.9,1c-0.7-0.3-0.9-1.2-0.5-2c0.4-0.8,1.2-1.3,1.9-1
		C35.6,6,35.8,6.9,35.4,7.7z"/>
	<path id="XMLID_29_" class="st0" d="M38.4,9.7c0,1-0.7,1.7-1.6,1.7c-0.8,0-1.5-0.8-1.5-1.8c0-1,0.7-1.7,1.6-1.7
		C37.8,8,38.5,8.8,38.4,9.7"/>
	<path id="XMLID_28_" class="st1" d="M38.4,9.7c0,1-0.7,1.7-1.6,1.7c-0.8,0-1.5-0.8-1.5-1.8c0-1,0.7-1.7,1.6-1.7
		C37.8,8,38.5,8.8,38.4,9.7z"/>
	<path id="XMLID_27_" class="st0" d="M37.3,13.5c-0.1-0.2-0.1-0.4-0.1-0.6c0-0.8,0.7-1.4,1.4-1.4c0.2,0,0.4,0.1,0.6,0.2
		c0.1,0,0.2,0.1,0.3,0.2c0.3,0.2,0.5,0.6,0.5,1c0,0.2,0,0.4,0,0.6c0,0.2-0.1,0.5-0.2,0.7c-0.1,0.2-0.1,0.5-0.2,0.6
		c-0.2,0.1-0.4,0-0.7-0.1c-0.3-0.1-0.5-0.2-0.7-0.3c-0.2-0.1-0.4-0.2-0.5-0.3C37.5,13.8,37.4,13.7,37.3,13.5L37.3,13.5z"/>
	<path id="XMLID_26_" class="st1" d="M37.3,13.5c-0.1-0.2-0.1-0.4-0.1-0.6c0-0.8,0.7-1.4,1.4-1.4c0.2,0,0.4,0.1,0.6,0.2
		c0.1,0,0.2,0.1,0.3,0.2c0.3,0.2,0.5,0.6,0.5,1c0,0.2,0,0.4,0,0.6c0,0.2-0.1,0.5-0.2,0.7c-0.1,0.2-0.1,0.5-0.2,0.6
		c-0.2,0.1-0.4,0-0.7-0.1c-0.3-0.1-0.5-0.2-0.7-0.3c-0.2-0.1-0.4-0.2-0.5-0.3C37.5,13.8,37.4,13.7,37.3,13.5L37.3,13.5z"/>
	<path id="XMLID_25_" class="st0" d="M25.5,3.4c1.4-0.1,2.6,1.5,2.7,3.4c0.1,2-0.9,3.6-2.3,3.7c-1.4,0.1-2.6-1.5-2.7-3.4
		C23.1,5.2,24.1,3.5,25.5,3.4"/>
	
		<ellipse id="XMLID_24_" transform="matrix(-5.979431e-002 -0.9982 0.9982 -5.979431e-002 20.2652 33.0857)" class="st1" cx="25.7" cy="7" rx="3.6" ry="2.5"/>
	<path id="XMLID_23_" class="st0" d="M31,3.5c0.9,0.1,1.5,1.4,1.3,2.7c-0.2,1.4-1.2,2.3-2.1,2.2c-0.9-0.1-1.5-1.3-1.3-2.7
		C29.1,4.4,30,3.4,31,3.5"/>
	<path id="XMLID_22_" class="st1" d="M31,3.5c0.9,0.1,1.5,1.4,1.3,2.7c-0.2,1.4-1.2,2.3-2.1,2.2c-0.9-0.1-1.5-1.3-1.3-2.7
		C29.1,4.4,30,3.4,31,3.5z"/>
	<polygon id="XMLID_21_" class="st1" points="7.6,59.9 3.5,59.9 3.5,53.1 7.4,53.1 7.4,54.3 5.1,54.3 5.1,55.9 7.3,55.9 7.3,57.1 
		5.1,57.1 5.1,58.7 7.6,58.7 	"/>
	<path id="XMLID_20_" class="st1" d="M13.2,59.9h-1.5v-2.7c0-0.8-0.3-1.1-0.8-1.1c-0.3,0-0.5,0.1-0.6,0.3c-0.2,0.2-0.3,0.5-0.3,0.8
		v2.8H8.5V55H10v0.8h0c0.4-0.6,0.9-0.9,1.6-0.9c1.1,0,1.6,0.7,1.6,2V59.9z"/>
	<path id="XMLID_17_" class="st1" d="M19.2,59.3c0,0.9-0.3,1.6-0.8,2.1c-0.5,0.5-1.3,0.7-2.3,0.7c-0.7,0-1.2-0.1-1.6-0.3v-1.3
		c0.5,0.3,1,0.4,1.5,0.4c0.5,0,0.9-0.1,1.2-0.4c0.3-0.3,0.4-0.6,0.4-1.1v-0.4h0c-0.3,0.5-0.8,0.8-1.5,0.8c-0.6,0-1.1-0.2-1.5-0.7
		c-0.4-0.4-0.5-1-0.5-1.8c0-0.8,0.2-1.5,0.6-2c0.4-0.5,0.9-0.7,1.6-0.7c0.6,0,1,0.2,1.3,0.7h0V55h1.5V59.3z M17.7,57.6v-0.4
		c0-0.3-0.1-0.6-0.3-0.8c-0.2-0.2-0.4-0.3-0.7-0.3c-0.3,0-0.6,0.1-0.8,0.4c-0.2,0.3-0.3,0.6-0.3,1.1c0,0.4,0.1,0.7,0.3,1
		c0.2,0.2,0.4,0.4,0.7,0.4c0.3,0,0.6-0.1,0.7-0.4C17.6,58.3,17.7,58,17.7,57.6"/>
	<rect id="XMLID_16_" x="20.4" y="52.7" class="st1" width="1.5" height="7.2"/>
	<path id="XMLID_13_" class="st1" d="M23.9,54.3c-0.3,0-0.5-0.1-0.6-0.2c-0.2-0.2-0.2-0.3-0.2-0.6c0-0.2,0.1-0.4,0.2-0.5
		c0.2-0.1,0.4-0.2,0.6-0.2c0.3,0,0.5,0.1,0.6,0.2c0.2,0.1,0.2,0.3,0.2,0.5c0,0.2-0.1,0.4-0.2,0.6C24.4,54.2,24.2,54.3,23.9,54.3
		 M24.6,59.9h-1.5V55h1.5V59.9z"/>
	<path id="XMLID_12_" class="st1" d="M25.6,59.8v-1.2c0.2,0.1,0.5,0.3,0.7,0.3C26.6,59,26.8,59,27,59c0.3,0,0.5,0,0.6-0.1
		c0.2-0.1,0.2-0.2,0.2-0.3c0-0.1,0-0.2-0.1-0.2c-0.1-0.1-0.2-0.1-0.3-0.2c-0.1,0-0.2-0.1-0.4-0.1c-0.1,0-0.3-0.1-0.4-0.1
		c-0.2-0.1-0.4-0.2-0.5-0.2c-0.1-0.1-0.3-0.2-0.4-0.3c-0.1-0.1-0.2-0.2-0.2-0.4c-0.1-0.1-0.1-0.3-0.1-0.5c0-0.3,0.1-0.5,0.2-0.7
		c0.1-0.2,0.3-0.4,0.5-0.5c0.2-0.1,0.4-0.2,0.7-0.3c0.3-0.1,0.5-0.1,0.8-0.1c0.2,0,0.4,0,0.7,0.1c0.2,0,0.4,0.1,0.7,0.1v1.2
		c-0.2-0.1-0.4-0.2-0.6-0.2c-0.2-0.1-0.4-0.1-0.6-0.1c-0.1,0-0.2,0-0.3,0c-0.1,0-0.2,0-0.2,0.1c-0.1,0-0.1,0.1-0.2,0.1
		c0,0.1-0.1,0.1-0.1,0.2c0,0.1,0,0.2,0.1,0.2c0.1,0.1,0.1,0.1,0.2,0.2c0.1,0,0.2,0.1,0.3,0.1c0.1,0,0.2,0.1,0.3,0.1
		c0.2,0.1,0.4,0.1,0.5,0.2c0.2,0.1,0.3,0.2,0.4,0.3c0.1,0.1,0.2,0.2,0.3,0.4c0.1,0.1,0.1,0.3,0.1,0.5c0,0.3-0.1,0.5-0.2,0.7
		c-0.1,0.2-0.3,0.4-0.5,0.5c-0.2,0.1-0.4,0.2-0.7,0.3C27.6,60,27.4,60,27.1,60C26.5,60,26,59.9,25.6,59.8"/>
	<path id="XMLID_11_" class="st1" d="M34.8,59.9h-1.5v-2.8c0-0.7-0.3-1.1-0.8-1.1c-0.3,0-0.5,0.1-0.6,0.3c-0.2,0.2-0.2,0.5-0.2,0.8
		v2.8h-1.5v-7.2h1.5v3.1h0c0.4-0.6,0.9-0.8,1.5-0.8c1.1,0,1.6,0.7,1.6,2V59.9z"/>
	<polygon id="XMLID_10_" class="st1" points="43.7,59.9 38.2,59.9 38.2,59 41.7,54.3 38.5,54.3 38.5,53.1 43.7,53.1 43.7,54 
		40.3,58.7 43.7,58.7 	"/>
	<path id="XMLID_7_" class="st1" d="M46.9,60c-0.8,0-1.4-0.2-1.9-0.7c-0.5-0.5-0.7-1.1-0.7-1.8c0-0.8,0.2-1.4,0.7-1.9
		c0.5-0.5,1.1-0.7,1.9-0.7c0.8,0,1.4,0.2,1.9,0.7c0.5,0.5,0.7,1.1,0.7,1.8c0,0.8-0.2,1.4-0.7,1.9C48.3,59.8,47.7,60,46.9,60
		 M46.9,56.1c-0.4,0-0.6,0.1-0.8,0.4c-0.2,0.2-0.3,0.6-0.3,1c0,0.9,0.4,1.4,1.1,1.4c0.7,0,1.1-0.5,1.1-1.4
		C48,56.5,47.6,56.1,46.9,56.1"/>
	<path id="XMLID_6_" class="st1" d="M55.1,59.9h-1.5v-2.7c0-0.8-0.3-1.1-0.8-1.1c-0.3,0-0.5,0.1-0.6,0.3C52,56.6,52,56.8,52,57.1
		v2.8h-1.5V55H52v0.8h0c0.4-0.6,0.9-0.9,1.6-0.9c1.1,0,1.6,0.7,1.6,2V59.9z"/>
	<path id="XMLID_3_" class="st1" d="M60.7,57.9h-3.2c0.1,0.7,0.5,1.1,1.3,1.1c0.5,0,1-0.1,1.4-0.4v1.1c-0.4,0.2-1,0.4-1.7,0.4
		c-0.8,0-1.4-0.2-1.8-0.7c-0.4-0.4-0.6-1-0.6-1.8c0-0.8,0.2-1.4,0.7-1.9c0.5-0.5,1-0.7,1.7-0.7c0.7,0,1.3,0.2,1.6,0.6
		c0.4,0.4,0.6,1,0.6,1.7V57.9z M59.3,57c0-0.7-0.3-1-0.8-1c-0.2,0-0.4,0.1-0.6,0.3c-0.2,0.2-0.3,0.4-0.3,0.7H59.3z"/>
</g>
</svg>
