<?xml version="1.0" encoding="utf-8"?>
<!-- Generator: Adobe Illustrator 19.0.0, SVG Export Plug-In . SVG Version: 6.00 Build 0)  -->
<svg version="1.1" id="Layer_1" xmlns="http://www.w3.org/2000/svg" xmlns:xlink="http://www.w3.org/1999/xlink" x="0px" y="0px"
	 viewBox="0 0 65 65" style="enable-background:new 0 0 65 65;" xml:space="preserve">
<style type="text/css">
	.st0{fill-rule:evenodd;clip-rule:evenodd;fill:#2A9DD3;}
</style>
<g id="XMLID_1_">
	<path id="XMLID_13_" class="st0" d="M4.3,40.4L4.3,40.4L4.3,40.4l0-0.1c0,0,0,0,0-0.1l0-0.1c0-0.1,0-0.3,0.1-0.4l0-0.1l0,0l0,0
		l0.1-0.2l0,0c0,0,0,0,0,0l0.1-0.1l0.1-0.1l0-0.1l0-0.1l-0.2-0.2c-0.1-0.1-0.1-0.2-0.1-0.3l0-0.2l0,0l0-0.3l-0.1-0.1l0,0l-0.1-0.2
		l0,0c0-0.1-0.1-0.2-0.1-0.2l0-0.1l0-0.1c0,0,0-0.1,0-0.1l0-0.1l0,0c0,0,0-0.1,0-0.1l0.1-0.5c0,0,0,0,0,0l0.1-0.4l0,0l0-0.3v-0.1
		c0-0.2,0.1-0.4,0.3-0.5l0,0l0,0c-0.1-0.1-0.2-0.2-0.2-0.4l0.1-0.4l0-0.1l-0.1-0.2c0-0.1,0-0.2,0-0.3l0-1l0.1-1v-0.2
		c0-0.3-0.1-0.7-0.1-1.1l0-0.1c0-0.1,0-0.1,0-0.2l0-0.2l-0.1-0.2l0,0l0,0l0,0l0-0.1c0-0.2,0-0.3,0.1-0.4l0-0.1l0,0l0-0.1l0,0
		c0,0,0-0.1,0-0.1l0-0.3l0,0l0-0.1v0l-0.9,0h0l-0.5,0c-0.1,0-0.2,0-0.3-0.1l-0.1-0.1c0,0-0.1-0.1-0.1-0.1l-0.1-0.1l-0.1,0l0,0
		l-0.2,0c-0.1,0-0.2,0-0.3,0.1l0,0l-0.1,0.1l0,0l-0.1,0.1l0,0l0,0l0,0.1l0,0l0,0.1c0.1,0.1,0.1,0.3,0,0.4l0,0l0,0.1l0,0.4l0.1,0l0,0
		l0.2,0h0l0.6,0l0.1,0c0.4-0.1,0.8,0.2,0.8,0.6v0.1c0,0.1,0,0.2-0.1,0.3l-0.1,0.1l0,0L3,30.5c-0.1,0.1-0.3,0.2-0.5,0.2l-0.4,0H1.7
		l-0.3,0l-0.1,0l-0.1,0c-0.1,0-0.2,0-0.2,0l-0.1,0c-0.3-0.1-0.5-0.4-0.4-0.8l0,0c0,0,0-0.1,0-0.1l0,0l0,0l-0.1-0.1
		C0,29.5,0,29.3,0,29l0.1-0.2v0v0l0-0.1c0,0,0-0.1,0-0.1l0-0.1c0-0.2,0.1-0.4,0.1-0.6l0,0c0-0.1,0.1-0.2,0.1-0.3l0,0l0,0l-0.1-0.2
		c-0.1-0.3,0-0.6,0.3-0.7l0.1-0.1c0.1,0,0.2-0.1,0.3-0.1l0.4,0l0,0c0.1-0.1,0.3-0.2,0.4-0.2h0.1l0,0c0.3,0,0.7,0.1,0.9,0.1l0.2,0
		l0.2,0l0.2,0l0,0l0-0.1c0.1-0.2,0.3-0.3,0.5-0.3l0.2,0l0.3,0l0,0l-0.2-0.2c-0.2-0.2-0.2-0.5,0-0.7l0.3-0.4c0.1-0.1,0.2-0.3,0.3-0.4
		c0,0,0,0,0,0L4.9,24c0.2-0.2,0.6-0.2,0.8,0L5.8,24L6,24.1l0,0l0.2,0.1c0.1,0.1,0.1,0.1,0.2,0.2l0,0.1l0.1,0.1c0,0,0,0,0,0l0.1,0.1
		c0,0,0,0,0,0.1l0.1,0.2c0.1,0.2,0.1,0.5,0,0.7l-0.1,0.1L6.4,26l0,0l0,0.1c0,0,0,0,0,0.1l0,0h0l0.1-0.1C6.6,26.1,6.7,26,6.8,26
		l0.1,0l0.2,0c0.1,0,0.2,0,0.3,0.1l0.1,0.1l0,0l0.2,0l0,0l0.3,0l0,0c0.1,0,0.2-0.1,0.3,0L9,26.2l0,0l0.3,0l0,0
		c0.1-0.1,0.3-0.1,0.5-0.1l0.1,0c0,0,0,0,0,0l0,0l0,0l0.4,0.2c0.2,0.1,0.4,0.3,0.4,0.5v0l0,1c0,0,0,0.1,0,0.1l0,0.2c0,0,0,0.1,0,0.1
		l0,0l0,0l0,0.2c0,0,0,0,0,0l0,0c0,0,0,0.1,0,0.1l0,0l0,0.1l0,0c0.1,0.1,0.2,0.3,0.2,0.4v0.1l0,0.1c0,0.1,0,0.1,0,0.2l0,0.1l0,0l0,0
		l0,0.2c0,0.2-0.1,0.3-0.3,0.4l0,0l-0.1,0.1c-0.1,0.1-0.2,0.1-0.3,0.2l-0.1,0c-0.2,0-0.4,0-0.6-0.2l-0.1-0.1l0,0l-0.2,0.1l0,0
		l-0.1,0.1l-0.2,0l0,0c0,0-0.1,0-0.1,0l-0.8,0c-0.4,0-0.7-0.3-0.6-0.7l0-0.3l0-0.5c0-0.5,0.5-0.7,0.9-0.5l0.1,0.2l0.1,0.1l0,0
		L8.7,29l0.2,0.1l0,0l0.1,0l0-0.1c0,0,0-0.1,0-0.2l0-0.1c0-0.1,0.1-0.3,0.2-0.4l0.1-0.1v-0.4l-0.3,0c-0.3,0-0.8,0-1.1,0h0l-0.3,0
		l0,0l0,0c-0.1,0-0.2,0.1-0.3,0.1l-0.2,0h0c-0.2,0-0.3,0-0.5,0h0l-0.4,0.1l0,0.3c0,0.1,0,0.3,0,0.4l0,0l0,0c0,0.1,0,0.3,0,0.6l0,0.6
		l0.1,0.2c0,0.1,0,0.1,0,0.2l0,0.1l0.1,0.2c0,0,0,0.1,0,0.1l0,0.1c0,0.2,0.1,0.5,0.1,0.7l0,0.2c0,0,0,0.1,0,0.1l0,0.2v0l0,0.2
		c0,0.1,0,0.2-0.1,0.3l-0.1,0.1l0,0.1l0,0c0,0,0,0,0,0.1l0,0c0,0,0,0,0,0.1l-0.1,0.2l0,0.4v0l0,0.2v0l0,0.1c0,0.1,0,0.2-0.1,0.3
		l0,0.1l0,0.1l0,0v3v0.1l0.1,0.1c0,0.1,0.1,0.2,0,0.3l0,0.1c0,0.1,0,0.2,0,0.4l0,0.3L6.5,39c0.1,0.1,0.1,0.3,0,0.5l-0.1,0.3l0,0.1
		l0,0.3c0,0.3-0.2,0.7-0.6,0.7l-0.5,0l0,0c0,0,0,0,0,0l0,0c0,0,0,0-0.1,0l-0.2,0C4.7,40.9,4.4,40.7,4.3,40.4 M27.6,40.8L27.6,40.8
		l-0.2,0c0,0,0,0-0.1,0l0,0c0,0,0,0,0,0l0,0l-0.5,0l-0.2,0c-0.2-0.1-0.4-0.3-0.4-0.6l0-0.3v0l0-0.1l-0.1-0.3c-0.1-0.2,0-0.3,0-0.5
		l0.1-0.1l0-0.3c0-0.1,0-0.2,0-0.4l0-0.2c0-0.1,0-0.2,0-0.3l0.1-0.1v-0.1v-3l0,0l0-0.1l0-0.1c0-0.1-0.1-0.2-0.1-0.3l0-0.1v0
		c0-0.1,0-0.1,0-0.2v0l0-0.4L26,33c0,0,0,0,0-0.1l0,0c0,0,0,0,0-0.1v0l0,0l0-0.1l-0.1-0.1c-0.1-0.1-0.1-0.2-0.1-0.3l0-0.2v0l0-0.2
		c0,0,0-0.1,0-0.1l0-0.2c0-0.2,0.1-0.5,0.1-0.7l0-0.2l0,0l0.1-0.3l0,0l0,0l0-0.2l0.1-0.2l0-0.6c0-0.2,0-0.4,0-0.6l0,0l0,0
		c0-0.1,0-0.2,0-0.4l0-0.3l-0.4-0.1l0,0c-0.2,0-0.4,0-0.6,0l-0.2,0c-0.1,0-0.2,0-0.3-0.1l0,0l-0.3,0l0,0c-0.3,0-0.7,0-1.1,0l-0.3,0
		v0.4l0.1,0.1c0.1,0.1,0.2,0.2,0.2,0.4l0,0c0,0.1,0,0.2,0,0.2l0,0.1l0.1,0l0,0l0.2-0.1l0,0l0,0l0,0l0.1,0l0,0l0.1-0.1l0.1-0.1
		l0.1-0.2c0.4-0.2,0.9,0,0.9,0.5l0,0.5l0.1,0.3c0.1,0.4-0.2,0.7-0.6,0.7l-0.8,0c0,0-0.1,0-0.1,0l0,0l-0.2-0.1l-0.1-0.1l0,0L23,30.5
		l0,0l-0.1,0.1c-0.1,0.2-0.4,0.2-0.6,0.2l-0.1,0c-0.1,0-0.2-0.1-0.3-0.2l-0.1-0.1l0,0l0,0l-0.1-0.1c0-0.1-0.1-0.2-0.1-0.2l0-0.2l0,0
		l0-0.1c0-0.1,0-0.1,0-0.2l0-0.1v-0.1c0-0.2,0.1-0.3,0.2-0.4l0,0l0,0l0,0l0,0c0,0,0-0.1-0.1-0.1l0,0c0,0,0,0,0-0.1l0-0.1l0,0l0,0
		c0,0,0-0.1,0-0.1l0-0.2l0,0v0c0,0,0,0,0-0.1l0-0.4l0-0.6c0-0.2,0.2-0.5,0.4-0.5l0.4-0.2l0,0l0,0l0,0l0.1,0c0.2,0,0.4,0,0.5,0.1l0,0
		l0.3,0l0,0l0.3,0l0.3,0c0.1,0,0.2,0,0.3,0l0,0l0.4,0v0l0.2,0l0,0l0.1-0.1c0.1-0.1,0.2-0.1,0.2-0.1l0,0c0.1,0,0.2,0,0.3,0l0.2,0
		c0.1,0,0.2,0,0.4,0.1l0.2,0h0l0.1,0c-0.1,0-0.1,0-0.1-0.1L26,25.9l-0.3-0.3c-0.2-0.2-0.2-0.5,0-0.7l0.3-0.3
		c0.1-0.1,0.2-0.3,0.3-0.4c0,0,0,0,0,0l0.1-0.2c0.2-0.2,0.6-0.2,0.8,0l0.1,0.1l0.1,0.1l0,0l0.2,0.1c0.1,0.1,0.1,0.1,0.2,0.2l0,0.1
		l0.1,0.1c0,0,0,0,0,0l0.1,0.1c0,0,0,0,0,0.1l0.1,0.1c0.1,0.2,0.1,0.5,0,0.7l-0.1,0.1L28,25.8l0,0l0,0.1l0,0l0.3-0.1l0.3,0.1l0.2,0
		c0.2,0,0.4,0.1,0.5,0.3l0,0.1l0,0l0.2,0l0.2,0l0.2,0c0.2,0,0.6-0.1,0.9-0.1h0l0,0h0.1c0.2,0,0.3,0.1,0.4,0.2l0,0l0.4,0
		c0.1,0,0.2,0,0.3,0.1l0.1,0.1c0.3,0.2,0.4,0.5,0.3,0.7l-0.2,0.2l0,0l0.1,0.1l0,0l0,0l0.1,0.3l0.1,0.6l0,0l0,0.2l0,0l0,0v0.2l0,0.1
		c0.1,0.3,0,0.6-0.2,0.7l-0.1,0l-0.1,0.1l0,0c0.1,0.3,0,0.7-0.4,0.8l-0.1,0c-0.1,0-0.2,0-0.3,0l-0.1,0l-0.1,0l-0.3,0h-0.5l-0.4,0
		c-0.2,0-0.3-0.1-0.5-0.2l-0.3-0.3l0,0l-0.1-0.1c-0.1-0.1-0.1-0.2-0.1-0.3v-0.1c0-0.4,0.4-0.7,0.8-0.6l0.2,0l0.6,0h0l0.2,0l0,0
		l0.1,0l0-0.2c0-0.1,0-0.2,0-0.3l0-0.1h0l0-0.3l0.1-0.2v0L31,27.9l-0.1,0l-0.1-0.1l-0.1,0l0,0c-0.1,0-0.2-0.1-0.3-0.1l-0.2,0l0,0
		l-0.1,0l-0.1,0.1c0,0-0.1,0.1-0.1,0.1L29.8,28c-0.1,0.1-0.2,0.1-0.3,0.1L29,28h0l-0.9,0v0.1l0,0l0,0.1c0,0.1,0,0.2,0,0.2L28,28.6
		v0.1l0,0l0,0.1c0.1,0.1,0.1,0.3,0.1,0.4l0,0.1l0,0l0,0l-0.1,0.3l0,0.2c0,0.1,0,0.1,0,0.2l0,0.1c0,0.4-0.1,0.8-0.1,1.1l0,0.2l0.1,1
		l0,1c0,0.1,0,0.2,0,0.3L28,33.9v0l0,0l0.1,0.2c0.1,0.2,0,0.5-0.2,0.6l-0.1,0l0,0c0.2,0.1,0.3,0.3,0.3,0.5v0.1v0l0,0.3l0,0l0.1,0.4
		c0,0,0,0,0,0.1l0.1,0.5c0,0,0,0.1,0,0.1l0,0.1c0,0,0,0.1,0,0.1l0,0.1l0,0.1c0,0.1,0,0.1-0.1,0.2l0,0l0,0l-0.1,0.1l0,0l-0.1,0.2l0,0
		l0,0l0,0.1c0,0.2,0,0.3-0.1,0.5l-0.1,0.2L27.9,39l0,0.1l0.2,0.2l0.1,0.1l0.1,0.1c0,0,0.1,0.1,0.1,0.1l0,0.1l0,0l0,0l0.1,0.4l0,0.1
		c0,0,0,0,0,0.1l0,0.1l0,0.1C28.2,40.7,27.9,40.9,27.6,40.8 M49.8,39.2L49.8,39.2L49.8,39.2c-0.2-0.1-0.2-0.1-0.3-0.2l-0.1-0.1
		c0,0-0.1-0.1-0.1-0.1l-0.1-0.1l0-0.1l-0.1-0.1L49,38.4c0,0-0.1-0.1-0.1-0.1l-0.1-0.1l-0.2-0.1L48.4,38c-0.1-0.1-0.1-0.1-0.1-0.2
		l0-0.1L48,37.4l-0.2-0.1l0,0c0,0-0.1-0.1-0.1-0.1l-0.1-0.1l0,0l0,0c-0.1-0.1-0.1-0.1-0.1-0.2l0-0.1l-0.1-0.1l0,0l0,0l0,0l0,0
		l-0.1,0l0,0l0,0l-0.1,0c0,0,0,0,0,0l0,0l-0.1,0.1l0,0l0,0.1c0,0.1-0.1,0.2-0.2,0.2l-0.1,0.1l0,0.1c0,0,0,0.1,0,0.1l-0.1,0.2
		c0,0.1-0.1,0.1-0.2,0.2l-0.1,0.1c0,0-0.1,0.1-0.2,0.1l0,0l0,0.2c0,0.1,0,0.2,0,0.3l0,0l0,0l0,0v0c0,0.3-0.2,0.5-0.5,0.5l0,0
		L45.3,39c-0.1,0.1-0.3,0.1-0.4,0.1h0l0,0l-0.1,0c-0.3,0-0.5-0.2-0.5-0.4l0,0l0-0.1l0,0c-0.1-0.1-0.1-0.3,0-0.4l0,0L44,37.9l0,0
		l-0.1-0.3l0.1-0.2l0,0l0-0.1c0-0.1,0-0.1,0.1-0.2l0-0.2c0-0.1,0-0.2,0-0.3l0,0c0,0,0,0,0,0l0,0c0,0,0,0,0,0l0.1-0.1l0.1-0.2l0,0
		l0-0.1v0c0,0,0-0.1,0-0.1l0-0.1v0v0l0-0.1l0,0v0l0-0.1l0,0l0,0c0,0,0-0.1,0-0.1l0,0l0,0c0-0.1,0-0.1-0.1-0.2l0,0c0,0,0,0,0-0.1
		l0-0.2c0,0,0,0,0-0.1v0l0,0l0-0.1c0,0,0,0,0,0l0-0.1c0,0,0-0.1,0-0.1l0-0.1l0-0.3l-0.1-0.1c-0.1-0.1-0.1-0.2-0.1-0.3v0l0-0.2
		l0.1-0.2l0-0.1l0-0.2c0-0.1,0-0.2,0-0.2l0,0l0,0l-0.1-0.3l0,0L44,32l0,0l0,0L44,31.7l0-0.1l0.1-0.3c0.1-0.3,0.3-0.5,0.6-0.5l0,0
		c0.1,0,0.2,0,0.3,0l0.2,0.1l0.1,0c0.4,0,0.6,0.4,0.5,0.8l0,0v0v0l0,0.3l0,0.3h0l0,0.1c0,0.1,0,0.3,0,0.4l0,0.1l0,0v0.1l0,0l0,0
		c0.1,0.1,0.1,0.3,0.1,0.5l0,0l0,0c0,0,0,0.1,0,0.1l0,0c0,0,0,0.1,0,0.1v0l0,0v0c0,0,0,0,0,0.1v0.2l0,0.1l0,0l0,0l0,0l0,0l0,0l0,0.1
		l0,0.1c0,0.1,0.1,0.2,0.1,0.2l0,0.2l0.1-0.1l0,0l0.1-0.1l0.1-0.1l0,0l0,0l0,0l0,0l0,0l0,0l0-0.1c0,0,0,0,0,0l0,0l0,0l0-0.1
		c0-0.1,0.1-0.2,0.1-0.3l0,0l0,0c0-0.1,0.1-0.1,0.1-0.2l0,0c0,0,0,0,0,0l0,0c0,0,0,0,0,0l0,0l0.2-0.1l0.2-0.2l0-0.1
		c0-0.1,0.1-0.2,0.1-0.3l0.1-0.1l0,0l0.2-0.2l0.1-0.2c0,0,0.1-0.1,0.1-0.1l0.1-0.1l0.1-0.2l0,0l0-0.1l0,0l0.1-0.2
		c0-0.1,0.1-0.1,0.2-0.2l0.1,0l0.3-0.2c0.1,0,0.3,0,0.4,0.1l0,0c0.1,0,0.2,0.1,0.2,0.2l0.1,0.3l0,0c0.3,0.3,0.2,0.7,0,0.9l-0.1,0
		l-0.1,0.1l-0.1,0.1l0,0c0,0.1,0,0.1-0.1,0.2l0,0l0,0l0,0.1L49,33.8l0,0L48.8,34l0,0l-0.1,0.2l0,0l0,0.2l-0.1,0.2l0,0.1l-0.1,0.1
		c0,0-0.1,0.1-0.1,0.1L48.2,35l0,0l0,0l0,0l0,0l0,0l0.1,0.1l0.2,0.2l0,0h0c0.2,0,0.3,0.2,0.4,0.3l0,0c0,0,0,0,0,0.1l0,0.1l0,0l0,0
		l0,0l0,0l0.1,0.1c0,0,0.1,0.1,0.1,0.1l0.1,0.1l0,0.1l0.2,0.2l0.1,0.2l0,0l0.1,0.2l0,0l0.1,0c0.1,0,0.3,0.1,0.3,0.2l0,0l0,0.1l0,0.1
		l0.2,0.2l0.1,0.1l0,0l0,0c0.3,0.2,0.4,0.6,0.2,0.9l0,0.1L50.6,39l-0.1,0.2l0,0l0,0l0,0l0,0l0,0l0.1-0.1c-0.2,0.2-0.4,0.2-0.6,0.2
		L49.8,39.2z M36.5,39.2c0.1,0,0.2,0.1,0.3,0.1l0,0c0.2,0,0.4-0.1,0.5-0.3l0-0.1l0.1-0.2l0,0l0,0l0.1,0l0.1-0.1l0,0l0,0
		c0.2-0.1,0.3-0.3,0.2-0.6l0-0.1l0-0.1l0.1-0.1c0-0.1,0.1-0.2,0.1-0.2l0,0c0,0,0,0,0,0v0c0,0,0,0,0-0.1l0-0.2l0-0.2l0-0.1l0,0l0,0
		l0.1-0.3l0,0c0,0,0,0,0-0.1l0,0c0,0,0,0,0,0l0,0l0.1,0l0,0l0.1-0.1c0,0,0,0,0,0l0,0c0,0,0,0,0.1,0l0,0l0,0l0,0c0,0,0,0,0,0l0.1-0.2
		c0,0,0,0,0-0.1l0,0l0,0l0,0c0-0.1,0.1-0.1,0.1-0.2l0-0.1l0-0.1l0.1-0.2l0.1-0.1c0.1-0.1,0.2-0.1,0.2-0.2l0,0c0,0,0-0.1,0-0.1l0,0
		c0-0.1,0-0.1,0-0.2v0l0-0.1l0.1,0.1l0,0l0,0.1l0,0.1l0,0c0,0.2,0,0.3,0.2,0.5l0,0l0,0c0,0,0,0.1,0,0.1l0,0c0,0.1,0,0.1,0.1,0.2l0,0
		l0,0l0,0c0,0,0,0,0,0.1l0.1,0.2c0,0,0.1,0.1,0.1,0.1l0,0l0,0l0,0l0,0l0,0.1l0,0.1l0,0c0,0.2,0.1,0.4,0.3,0.5l0.1,0l0.1,0.3l0.1,0.2
		c0,0,0,0,0,0.1l0,0c0,0.1,0.1,0.2,0.2,0.2l0,0l0,0l0.2,0.1l0,0c0,0,0,0,0.1,0l0.1,0l0,0.1l0,0l0,0.1c0,0.1,0.1,0.3,0.2,0.4l0,0
		l0,0.1c0,0,0,0,0,0.1l0.1,0.3c0,0.1,0.1,0.1,0.1,0.2l0.1,0.1l0,0c0.2,0.2,0.4,0.2,0.7,0.2l0.1,0l0.1,0c0.2,0,0.3,0,0.4-0.1l0,0
		l0.1,0c0,0,0.1,0,0.1-0.1l0,0c0.2-0.1,0.2-0.4,0.2-0.6l0,0l0-0.1l0,0l-0.1-0.2l0,0l-0.1-0.3l0-0.1l0,0l-0.1-0.3
		c-0.1-0.1-0.2-0.2-0.3-0.2l0,0l0-0.1c0-0.1-0.1-0.2-0.2-0.3l-0.1-0.1c0,0,0,0,0,0l0,0c0,0,0,0,0,0l-0.1,0l0,0l-0.1,0l0,0l0-0.1l0,0
		l-0.1-0.1l0,0l0,0c0,0,0-0.1,0-0.1l-0.1-0.1l-0.1-0.1l0,0l0,0l0-0.1l0,0l0-0.1c0,0,0-0.1,0-0.1l0,0l0,0l0,0c0-0.1,0-0.1,0-0.2l0,0
		c0,0,0-0.1,0-0.1L42,34.9c0-0.1-0.1-0.2-0.2-0.2l0,0l0,0l-0.2-0.2l-0.1-0.2l0-0.1c0-0.2-0.1-0.3-0.2-0.4l-0.1-0.1l0,0
		c0,0,0-0.1,0-0.1l0-0.1L40.8,33l0,0l-0.1-0.3l0,0l0-0.1l0,0v0c0-0.2-0.1-0.4-0.3-0.5l0,0l0,0L40,31.7c-0.1-0.1-0.3-0.1-0.5,0l0,0
		l0,0l-0.2,0.1l-0.2,0c-0.1,0.1-0.2,0.2-0.3,0.4l0,0c0,0,0,0.1,0,0.1l0,0l0,0l0,0l-0.1,0.2l-0.1,0.1c0,0-0.1,0.1-0.1,0.1l0,0.1
		l0,0.1l0,0c-0.1,0.1-0.2,0.2-0.2,0.4l0,0.1l0,0l-0.1,0.1l-0.1,0L38,33.7c-0.1,0.1-0.1,0.1-0.1,0.2l0,0l0,0c0,0,0,0-0.1,0l0,0
		c0,0-0.1,0.1-0.1,0.1l0,0l0,0l0,0l0,0c-0.1,0.1-0.1,0.2-0.1,0.3l0,0l0,0l0,0l0,0l0,0l0,0l0,0c-0.1,0-0.1,0.1-0.2,0.2L37.1,35
		c-0.1,0.1-0.1,0.2-0.1,0.4v0l-0.2,0.3l-0.1,0.1l0,0c0,0,0,0,0,0.1l0,0l-0.1,0.3v0l0,0l0,0.1c0,0,0,0,0,0v0v0l0,0c0,0,0,0.1,0,0.1v0
		c0,0,0,0,0,0v0.1l-0.1,0.1c0,0,0,0,0,0l0,0L36.3,37l-0.1,0.2l0,0l0,0.1L36,37l0,0l0-0.1c0-0.1-0.1-0.3-0.2-0.4l-0.1-0.1l0,0l0-0.1
		l0-0.1c0-0.2-0.1-0.3-0.2-0.5l0,0v0c0,0,0-0.1,0-0.1l0,0c0-0.1,0-0.1-0.1-0.1l0,0l0,0l0,0l0,0c0-0.1-0.1-0.2-0.2-0.3l0,0l0,0l0,0
		l0,0l0,0l0,0l0-0.1l0-0.1c0-0.2-0.1-0.4-0.3-0.5l-0.1,0l-0.1-0.3l-0.1-0.2c0,0,0-0.1,0-0.1l0,0c0-0.1-0.1-0.1-0.1-0.1l0,0
		c0,0,0,0-0.1,0l0,0L34,33.4l0,0l0,0l0,0l0,0l0,0c0,0-0.1,0-0.1-0.1l0,0l0,0l0-0.1l0,0l0-0.1c0-0.1-0.1-0.3-0.2-0.3l-0.1-0.1l0-0.1
		c0,0,0-0.1,0-0.1l-0.1-0.3c0-0.1-0.1-0.1-0.1-0.2l-0.1-0.1l0,0l0,0l0,0c-0.1-0.1-0.3-0.2-0.5-0.1l-0.2,0l-0.1,0
		c-0.1,0-0.3,0-0.4,0.1l-0.1,0l0,0l-0.1,0.1c-0.2,0.1-0.3,0.3-0.3,0.6v0c0,0,0,0,0,0l0,0.1l0,0c0,0.2,0.1,0.3,0.2,0.4l0,0l0,0l0,0.2
		l0,0l0,0c0,0.2,0.1,0.3,0.2,0.4l0,0l-0.1,0.1l0,0l0,0c0,0,0,0,0,0l0,0l-0.3,0l-0.1,0c-0.1,0-0.1,0-0.2,0l0,0
		c-0.1,0-0.2,0.1-0.2,0.2l-0.1,0.2l0,0l0,0c0,0,0,0,0,0l0,0c0,0,0,0,0,0l0,0.1l-0.1,0.1l-0.1,0l-0.3,0c-0.1,0-0.2,0.1-0.3,0.2l0,0
		c0,0,0,0,0,0l-0.1,0.1l0,0l0,0c-0.1,0.1-0.1,0.2-0.2,0.3l0,0.2c0,0,0,0,0,0.1v0c0,0.1,0,0.1,0,0.2c0,0.1-0.1,0.3-0.2,0.4l0,0.1
		c-0.1,0.2,0,0.5,0,0.7c0,0,0,0,0,0l0.1,0.5c0.1,0.3,0.3,0.5,0.6,0.5l0,0c0,0,0,0.1,0,0.1l0,0c0,0.2,0.2,0.4,0.4,0.5l0,0l0,0.1
		c0.1,0.2,0.3,0.3,0.5,0.3h0h0l0.3,0l0,0l0.3,0.1c0,0,0,0,0.1,0l0,0h0.1l0.4,0c0,0,0,0,0,0l0,0c0,0,0,0,0.1,0l0.1,0
		c0.1,0,0.2-0.1,0.2-0.1l0.1-0.1l0,0l0,0l0.1,0c0.1-0.1,0.2-0.1,0.2-0.2l0-0.1l0,0c0,0,0,0,0-0.1l0.2-0.3l0.2-0.1l0,0
		c0.2-0.1,0.5-0.1,0.8-0.2l0.1-0.1l0.1,0.2l0,0l0,0l0,0.1l0,0l0.1,0.3l0.2,0.2l0.1,0.2c0.2,0.2,0.5,0.2,0.7,0.1l0.1,0
		c0,0,0.1,0,0.1-0.1l0.1-0.1l0.3,0.2l0,0L36.5,39.2z M53.1,39.3L53.1,39.3l0.5,0c0,0,0,0,0.1,0l0,0c0,0,0,0,0.1,0l0.1,0
		c0.1,0,0.2,0,0.2-0.1l0.1-0.1l0,0l0,0l0.1,0c0.1-0.1,0.2-0.1,0.2-0.3l0,0l0,0c0,0,0,0,0-0.1l0.2-0.3l0.2-0.1l0,0l0.8-0.2l0.1,0l0,0
		l0.1,0.2l0,0l0,0l0,0.1l0,0l0.1,0.3l0.2,0.2l0.1,0.2c0.2,0.2,0.5,0.2,0.7,0.1l0.1,0l0.2-0.2l0.1-0.2l0.1-0.1c0.3-0.2,0.3-0.7,0-1
		l0,0l0-0.1l-0.1-0.2l0-0.1L57.5,37l0,0l0-0.1c0-0.2-0.1-0.3-0.2-0.4l-0.1-0.1l0,0l0-0.1l0-0.1l0-0.2c0-0.1-0.1-0.2-0.1-0.2l0,0l0,0
		c0,0,0-0.1,0-0.1l0,0c0-0.1,0-0.1-0.1-0.1l0,0l0,0l0,0l0,0c0-0.1-0.1-0.2-0.2-0.3l0,0l0,0l0,0l0,0l0,0l0,0v0l0-0.1l0,0
		c0-0.2-0.1-0.4-0.3-0.5l-0.1-0.1L56,34.1l-0.1-0.2c0,0,0-0.1,0-0.1l0,0c0-0.1-0.1-0.2-0.2-0.2l0,0l0,0l-0.1-0.1l0,0l0,0l0,0l0,0
		c0,0-0.1,0-0.1-0.1l0,0l0,0l0-0.1c0,0,0,0,0-0.1l0-0.1c0-0.1-0.1-0.3-0.2-0.4l0,0l0-0.1c0,0,0-0.1,0-0.1l-0.1-0.3
		c0-0.1-0.1-0.1-0.1-0.2l-0.1-0.1l0,0l0,0c-0.1-0.1-0.3-0.2-0.5-0.1l-0.2,0l-0.1,0c-0.1,0-0.3,0-0.4,0.1l-0.1,0l0,0l-0.1,0.1
		c-0.2,0.1-0.3,0.3-0.3,0.6l0,0c0,0,0,0,0,0l0,0.1l0,0c0,0.2,0.1,0.3,0.2,0.4l0,0l0,0.2l0,0l0,0c0,0.2,0.1,0.3,0.2,0.4l0,0l-0.1,0.1
		l0,0c0,0,0,0,0,0l0,0l-0.3,0l-0.1,0c-0.1,0-0.1,0-0.2,0l0,0c-0.1,0-0.2,0.1-0.2,0.2l-0.2,0.2l0,0c0,0,0,0,0,0l0,0c0,0,0,0,0,0
		l0,0.1l-0.1,0.1l0,0l0,0l-0.3,0c-0.1,0-0.2,0.1-0.3,0.2l0,0c0,0,0,0,0,0l-0.1,0.1c0,0,0,0,0,0l0,0L51,35.2
		c-0.1,0.1-0.1,0.2-0.2,0.3l0,0.1l0,0l0,0c0,0.1,0,0.1,0,0.3c0,0.1-0.1,0.2-0.2,0.4c-0.1,0.2,0,0.5,0,0.7c0,0,0,0,0,0l0.1,0.5
		c0.1,0.3,0.3,0.5,0.6,0.5l0,0l0,0.1l0,0c0,0.2,0.2,0.4,0.3,0.5l0,0l0,0.1c0.1,0.2,0.3,0.3,0.5,0.3h0h0l0.3,0l0,0l0.3,0.1
		C53,39.3,53.1,39.3,53.1,39.3L53.1,39.3z M10.1,39.2c0.1,0,0.3,0,0.4,0l0.1-0.1l0.4,0h0l0.5,0l0.3,0h0l0.1,0c0,0,0,0,0.1,0l0,0
		c0,0,0,0,0.1,0l0.1,0l0.1,0h0.1c0,0,0.1,0,0.1,0l0,0c0,0,0,0,0.1,0l0.1,0l0.1,0l0,0c0,0,0,0,0.1,0l0.3-0.1l0,0l0.2,0
		c0.2,0,0.3-0.1,0.5-0.2l0,0l0,0c0.2-0.1,0.3-0.3,0.3-0.6v0c0,0,0-0.1,0-0.1l0,0l0.3-0.1c0.1-0.1,0.1-0.2,0.2-0.3l0-0.1l0.2-0.2
		c0.1-0.1,0.1-0.2,0.1-0.3l0-0.2c0-0.2-0.1-0.3-0.2-0.4l-0.1-0.1c0,0-0.1-0.1-0.1-0.1l0-0.1l0,0l0,0l0,0l0-0.1l0,0v0l0-0.1l0-0.2
		c0-0.1,0-0.2-0.1-0.3l-0.1-0.1l0-0.1l0,0l0-0.2l0-0.1l0,0l0,0c0,0,0,0,0-0.1l-0.1-0.2c0,0,0-0.1,0-0.1l0,0l0,0l0,0l-0.2-0.3
		l-0.1-0.2c0-0.1,0-0.1-0.1-0.2l0,0l0,0l0-0.1c-0.1-0.2-0.2-0.3-0.4-0.3l0,0L13.2,33c-0.1-0.1-0.1-0.1-0.2-0.2l-0.1,0l-0.1-0.1l0,0
		l0-0.1l-0.1-0.1l-0.1-0.2l0-0.1l0,0C12.3,32.1,12.2,32,12,32l-0.1,0l0,0h0l-0.2,0c-0.1,0-0.1,0-0.2,0l-0.1,0l-0.2,0h0L11,32
		c-0.1,0-0.2,0-0.3,0.1l-0.1,0.1l0,0l0,0l0,0c-0.3-0.1-0.6,0-0.7,0.3l0,0.1l-0.1,0c-0.1,0.1-0.3,0.2-0.3,0.3L9.2,33l-0.2,0l0,0
		c-0.2,0-0.4,0.2-0.4,0.4l0,0l0,0l-0.1,0.4L8.3,34c-0.1,0.1-0.1,0.2-0.1,0.3l0,0.1c-0.2,0.1-0.2,0.3-0.2,0.5l0,0.1l-0.1,0.1l0,0l0,0
		c0,0,0,0,0,0l0,0c0,0,0,0,0,0.1l0,0l0,0.1l0,0l0,0.1l-0.2,0.4c0,0.1,0,0.1-0.1,0.2l0,0.2l0,0c0,0.1,0,0.1,0,0.2l0,0.2l0,0l0,0
		l-0.1,0.1c0,0.1-0.1,0.1-0.1,0.2l0,0l0,0l-0.1,0.3c0,0.3,0.1,0.5,0.3,0.7l0.1,0l0,0.1l0.1,0.2l0.1,0.1l0.1,0.1l0,0
		c0.1,0.2,0.2,0.3,0.4,0.4l0,0c0.1,0,0.2,0,0.3,0l0.1,0h0l0.2,0l0,0c0.1,0.1,0.2,0.1,0.4,0.1l0.2,0c0,0,0,0,0,0l0.1,0l0.1,0l0.4,0.1
		L10.1,39.2L10.1,39.2L10.1,39.2L10.1,39.2z M16.7,38.9c0.1,0.2,0.3,0.3,0.5,0.3H18c0.1,0,0.1,0,0.2,0l0.4-0.1l0,0l0.1,0
		c0.1,0,0.2,0,0.2,0l0,0c0.2-0.1,0.7-0.3,1-0.4l0,0l0,0l0.1-0.1c0,0,0,0,0.1,0l0,0l0,0l0.1-0.1l0,0l0,0l0,0.1c0,0,0,0.1,0,0.1l0,0
		c0,0.1,0.1,0.2,0.2,0.3l0,0c0.1,0.1,0.2,0.2,0.4,0.2l0.2,0h0l0.1,0l0.2,0h0l0.1,0c0.3,0,0.5-0.2,0.6-0.5l0,0l0,0l0,0l0,0l0-0.1
		c0,0,0-0.1,0-0.2l0,0l0-0.2l0-0.1l0-0.1c0-0.1,0-0.2,0-0.3l0-0.1l0,0v0l0-0.1l0,0l0-0.1c0,0,0-0.1,0-0.1l0-0.1c0,0,0,0,0-0.1v-0.1
		v0l0-0.1c0-0.1,0-0.1,0-0.2l0,0l0-0.1c0-0.2,0-0.1,0-0.5v-0.1c0,0,0-0.1,0-0.1l0,0l0-0.2l0,0v0l0,0l0,0v-0.1l0-0.1V35l0-0.1l0,0
		c0-0.2,0-0.4-0.2-0.5l0,0l0,0l-0.1-0.1c-0.1-0.1-0.2-0.1-0.4-0.1h-0.2l-0.3,0c-0.1,0-0.2,0-0.3,0.1l-0.1,0.1c0,0,0,0-0.1,0l0,0
		c-0.1,0.1-0.2,0.2-0.2,0.3l0,0c0,0.1,0,0.2,0,0.2l0,0.4l0,0l0,0l0,0c0,0,0,0,0,0l0,0.1v0.1c0,0.2,0,0.3-0.1,0.4l-0.1,0.2L20,36.5
		l-0.1,0.1l-0.4,0.2l0,0c0,0,0,0,0,0l-0.1,0l0,0l-0.1,0.1L19.1,37l-0.2,0l-0.1,0c-0.1,0-0.1,0-0.2,0l-0.2,0.1l-0.1,0l-0.3,0
		l-0.1-0.1l0,0L17.8,37l-0.2-0.1l-0.1,0l0,0l-0.1,0c0,0,0,0-0.1,0l0,0l0,0c0-0.1,0-0.1-0.1-0.2l0-0.1l-0.1-0.1l0-0.3
		c0-0.1,0-0.2,0-0.3l0-0.1c0-0.1,0.1-0.3,0.1-0.4c0-0.1,0-0.1,0-0.2v0v0c0-0.1,0-0.2,0-0.3l0-0.2l0-0.1l0.1-0.1
		c0.1-0.1,0.1-0.3,0.1-0.4l0,0l0,0l0,0l0-0.1l0,0l0,0c0-0.1,0-0.1,0-0.2l0-0.1c0-0.1,0-0.3,0-0.4l0-0.3l0.1-0.1
		c0.2-0.4-0.1-0.9-0.6-0.9l-0.3,0c-0.3,0-0.6,0.3-0.6,0.6v0.2l0,0c-0.1,0.1-0.2,0.3-0.2,0.5l0,0c-0.1,0.1-0.2,0.2-0.2,0.4l0,0.1
		c0,0.2-0.1,0.6-0.1,0.9l0,0.1l0,0.1l0,0l0,0l0,0l0,0.1l0,0l0,0.1c0,0.1,0,0.1,0,0.2v0.1c0,0.1,0,0.2,0.1,0.3l0.1,0.2l0,0.1
		c0,0,0,0.1,0,0.1v0.3l0,0l-0.1,0.2c-0.1,0.2-0.1,0.3,0,0.5l0,0.1v0.3c0,0.1,0,0.2,0.1,0.3l0,0l0,0l0.1,0.4l0,0l0.1,0.4
		c0,0.2,0.1,0.3,0.3,0.4l0.4,0.1l0.1,0h0L16.7,38.9L16.7,38.9z M59.3,39.1L59.3,39.1l-0.2,0L58.9,39l0,0l-0.3-0.3l0,0l0-0.1
		l-0.1-0.4l0-0.1L58.4,38c-0.1-0.2-0.1-0.5,0-0.7l0,0l0-0.4l0,0c0,0,0,0,0,0l0,0l0,0l0.1-0.1c0,0,0,0,0,0l0,0v0l0-0.1v0v0
		c0,0,0-0.1,0-0.1l0,0l0-0.1l0,0c-0.3-0.1-0.5-0.4-0.5-0.7l0,0c0-0.1,0.1-0.3,0.2-0.3l0-0.1c0-0.1,0.1-0.2,0.1-0.3l0-0.1v0l-0.1-0.1
		c-0.1-0.2-0.1-0.4-0.1-0.6l0.1-0.2l0,0l0-0.1l0-0.1c0-0.1,0-0.1,0-0.2l0-0.2l0-0.1l0,0l0-0.1l0-0.1c-0.1-0.1-0.1-0.3,0-0.4l0-0.1
		c0-0.3,0.3-0.6,0.6-0.6h0l0,0c0.2,0,0.3,0,0.5,0.2l0.3,0c0.3,0.1,0.4,0.4,0.4,0.7l0,0l0,0.2l0,0.1l0,0c0,0.1,0,0.1,0,0.2l0,0.1l0,0
		c0,0.2,0,0.4-0.1,0.5l0,0l0,0l0.2,0.3l0,0.3l0,0v0l0.1,0l0,0c0.1-0.1,0.2-0.1,0.3-0.1h0.3l0,0l0.1,0c0.1,0,0.1,0,0.2,0l0.2,0l0,0
		l0,0l0.1,0l0.1,0c0.2-0.1,0.4,0,0.6,0.1c0,0,0,0,0,0l0.3,0l0.1,0l0-0.1c0-0.1,0-0.2,0-0.4l0.1-0.1l0,0l0,0l0,0l0,0c0,0,0,0,0,0l0,0
		c0,0,0,0,0,0l0,0l0-0.1l0,0v0l0-0.2l0-0.1c0,0,0-0.1,0-0.1l0-0.3l0-0.2c0-0.1,0-0.2,0-0.3l0-0.1l0,0c0.1-0.2,0.3-0.4,0.5-0.5l0.1,0
		l0.1-0.1l0,0l0,0c0.1-0.1,0.3-0.1,0.4-0.1l0.2,0l0,0c0.1,0,0.1,0,0.2,0.1l0,0c0.1,0.1,0.2,0.2,0.3,0.3l0,0l0,0.1
		c0.1,0.1,0.1,0.3,0.1,0.4l0,0.1l0.1,0.1c0.1,0.2,0.1,0.5,0,0.7l0,0c0,0.1,0,0.3,0,0.4l0,0c0,0,0,0,0,0l0,0c0,0,0,0,0,0l-0.1,0.1
		c0,0,0,0,0,0l0,0l0,0v0l0,0l0,0.1l0,0l0,0c0,0,0,0.1,0,0.1l0,0.1l0,0l0,0v0l0,0l0,0l0,0.1c0,0,0,0.1,0,0.1l0,0c0,0,0,0.1,0,0.1
		l0,0.1l0,0l0,0c0,0,0,0.1,0,0.2l0,0l0,0.1c0,0.1,0,0.1,0,0.2v0l0,0c0,0.1,0,0.2-0.1,0.3l0,0.3l0,0.1c0.1,0.2,0.1,0.4,0.1,0.6
		l-0.1,0.2l0,0l0,0l0,0.1c0,0.1,0,0.1,0,0.2l0,0.2l0,0.1l0,0l0,0.1l0,0.1c0.1,0.1,0.1,0.3,0,0.4l0,0.1v0c0,0.3-0.3,0.6-0.6,0.6h0
		c-0.1,0-0.1,0-0.2,0L63.9,39c0,0-0.1,0-0.1-0.1l-0.1,0l0,0c-0.4,0-0.6-0.4-0.6-0.7l0-0.1l0-0.2l0-0.1c0-0.1,0-0.1,0-0.2v-0.1l0,0
		l0,0c0-0.2,0-0.4,0.1-0.5l0,0l0,0l0-0.1C63,36.9,63,36.8,63,36.6l0-0.3l0,0l-0.1,0l0,0l-0.1,0l-0.1,0c0,0-0.1,0-0.1,0l0,0l0,0h0h0
		l-0.1,0c0,0,0,0,0,0h0l-0.1,0c0,0,0,0-0.1,0l-0.1,0l-0.1,0c-0.1,0-0.1,0-0.2,0h-0.1c0,0-0.1,0-0.1,0l-0.1,0l0,0l0,0l-0.3-0.1
		l-0.3,0l-0.1,0.1c-0.1,0-0.1,0.1-0.2,0.1l0,0l0,0.1c0,0.1,0,0.2,0,0.3l-0.1,0.1c0,0,0,0,0,0l0,0l0,0c0,0,0,0,0,0.1l0,0l0,0l0,0
		l0,0.1l0,0.1l0,0.2l0,0c0,0.1,0,0.2,0,0.2l0,0.1l0,0.1c0,0,0,0,0,0.1l0,0.2c0,0.1,0,0.2,0,0.3l0,0.1l0,0c-0.1,0.2-0.3,0.4-0.5,0.5
		l-0.1,0L59.7,39l0,0l0,0C59.6,39.1,59.4,39.1,59.3,39.1 M11.5,37.5L11.5,37.5l0.4,0l0.1,0l0,0l0,0l0.2,0l0.1,0l0.1-0.1
		c0.1-0.1,0.2-0.2,0.3-0.2l0.1,0l0.1-0.1l0.1-0.1l0-0.1l0-0.1l-0.2-0.3l0,0l0-0.1c0-0.1-0.1-0.1-0.1-0.2l0,0l0,0l0-0.1l0,0l0,0
		c-0.2-0.1-0.2-0.3-0.2-0.5c0-0.1,0-0.1,0-0.2l0-0.1l0,0c0,0,0,0,0,0l0,0l-0.1-0.1l-0.1-0.1c0-0.1-0.1-0.1-0.1-0.2v-0.1l0,0L12,34.4
		c-0.1-0.1-0.1-0.2-0.2-0.3l0-0.1l0,0c0,0,0,0,0-0.1l0,0l-0.3,0l0,0l-0.2,0h0l-0.2,0c-0.1,0-0.2,0.1-0.3,0.1l-0.1,0l0,0
		c0,0,0,0-0.1,0.1l-0.1,0l0,0l0,0c-0.1,0-0.1,0.1-0.2,0.1l-0.1,0l0,0l-0.1,0.2l0,0.1l0,0l0,0.1c0,0.1-0.1,0.2-0.2,0.3l-0.1,0v0
		c0,0,0,0.1,0,0.1l0,0.1l0,0c0,0,0,0.1,0,0.1l0,0.1l0,0l0,0.1l0,0.1c0,0,0,0,0,0.1l0,0l0,0l0,0.2l0,0.1l0,0v0c0,0,0,0.1,0,0.1l0,0.1
		c0,0,0,0.1,0,0.1l0,0l0,0.1l0,0l0,0.2l0,0c0,0,0,0,0,0.1l0,0c0,0,0,0,0,0.1l0,0.1l0.1,0.1l0,0l0.1,0.1c0,0,0,0,0,0h0.2
		c0.1,0,0.1,0,0.2,0l0,0l0,0l0.1,0l0,0l0,0l0,0l0,0l0,0c0.1-0.1,0.3-0.2,0.5-0.1l0.1,0l0,0l0,0l0.1,0c0,0,0.1,0,0.1,0l0,0l0.4,0h0
		L11.5,37.5z M31.2,37.5L31.2,37.5L31.2,37.5l0.1,0l0,0c0,0,0,0,0,0l0,0c0,0,0.1,0,0.1,0l0.3,0l0.1,0l0.1,0l0.2-0.1
		c0.1-0.1,0.2-0.1,0.3-0.1l0.3,0h0l0.2,0l0.4-0.2l0,0l0,0l0,0l0-0.1c0-0.1,0.1-0.1,0.2-0.2l0,0l0,0l0,0l0,0l0.1-0.1l0,0l0,0l0-0.1
		l-0.1-0.2l0,0l0,0c0,0-0.1-0.1-0.1-0.1l0,0c0,0,0-0.1,0-0.1l-0.1-0.2c0-0.1,0-0.2-0.1-0.2v0c0,0,0-0.1,0-0.1v0l0,0l-0.1,0l0,0
		l-0.3,0.1l-0.1,0l0,0l-0.5,0.1l-0.1,0l0,0l-0.1,0l0,0c-0.1,0.2-0.3,0.3-0.5,0.3l-0.1,0l0,0l-0.2,0l-0.3,0.2l-0.1,0v0.1v0.1v0l0,0.2
		l0,0l0,0l0,0l0,0l0,0l0.1,0.1c0.1,0.1,0.1,0.1,0.1,0.2l0,0.1l0,0L31.2,37.5z M52.6,37.5l-0.1-0.3l0,0l0-0.1c0-0.1-0.1-0.2-0.1-0.2
		l-0.1-0.1l0-0.1l0,0l0,0l0,0v0l0-0.2l0,0v-0.1l0-0.1l0.1,0l0.3-0.2l0.2,0l0,0l0.1,0c0.2,0,0.4-0.1,0.5-0.3l0,0l0.1,0l0.1,0l0.1,0
		l0.5-0.1l0,0l0.1,0l0.3-0.1l0,0l0,0l0.1,0l0,0l0,0l0,0c0,0,0,0.1,0,0.1l0,0.1c0,0.1,0,0.2,0.1,0.2l0.1,0.2c0,0,0,0,0,0.1l0,0
		c0,0.1,0.1,0.1,0.1,0.2l0,0l0,0l0.2,0.2l0,0.1l0,0L55,36.5l0,0l0,0l0,0l0,0c-0.1,0-0.1,0.1-0.2,0.2l0,0.1l0,0l0,0l-0.4,0.2l-0.2,0
		l0,0l-0.3,0c-0.1,0-0.2,0-0.3,0.1l-0.2,0.1l-0.1,0l-0.1,0l-0.3,0c0,0-0.1,0-0.1,0l0,0c0,0,0,0,0,0l0,0L52.6,37.5L52.6,37.5z
		 M19.5,33.9c0.2,0.1,0.4,0.1,0.6,0.1l0.1,0c0,0,0,0,0.1,0l0,0c0,0,0,0,0.1,0l0.1-0.1c0.2-0.1,0.4-0.3,0.5-0.4l0.1-0.1c0,0,0,0,0,0
		l0,0c0,0,0,0,0,0l0.1-0.1l0,0l0.2-0.1l0,0l0.2,0c0.1,0,0.1-0.1,0.2-0.1l0,0c0,0,0,0,0.1-0.1l0.1-0.1c0.2-0.2,0.2-0.4,0.2-0.6l0,0
		c0-0.1-0.1-0.2-0.2-0.3l-0.1-0.1c-0.2-0.1-0.4-0.2-0.7-0.1l-0.1,0.1l-0.3,0.1l-0.3,0.1c-0.1,0-0.2,0.1-0.3,0.2l-0.1,0.1l0,0l0,0
		l0,0L19.8,32l-0.1-0.1l0,0l-0.2-0.2l-0.1-0.1c0,0,0,0,0,0l-0.1-0.1l0,0l0,0l0.1-0.2l0.5-0.2l0.1,0.1c0.2,0.3,0.5,0.3,0.8,0.2l0.1,0
		c0,0,0,0,0,0l0,0c0,0,0,0,0,0l0.1-0.1c0.3-0.2,0.3-0.7,0-0.9l-0.1-0.1l0-0.1c-0.1-0.3-0.3-0.5-0.6-0.5l-0.1-0.1
		c-0.1-0.2-0.3-0.2-0.6,0l-0.2,0.1c-0.1,0.1-0.2,0.1-0.2,0.2l0,0l0,0L19,30l-0.2,0l-0.1,0c-0.2,0-0.3,0.1-0.4,0.2l-0.1,0.1l-0.2,0.1
		L18,30.5c0,0-0.1,0-0.1,0.1l0,0c0,0,0,0,0,0l-0.1,0.1c-0.1,0.1-0.2,0.2-0.2,0.4l0,0.1c0,0.1,0,0.3,0.1,0.4l0.1,0.2l0.2,0.2l0,0
		l0,0.1c0,0,0,0.1,0,0.1l0.2,0.2l0,0l0.1,0.1l0.1,0.1l0.2,0.2l0,0c0,0,0.1,0.1,0.2,0.2l0.1,0.2l0,0c0,0.1,0.1,0.2,0.1,0.3l0.1,0.1
		c0.1,0.1,0.1,0.2,0.2,0.2l0.1,0L19.5,33.9L19.5,33.9z"/>
</g>
</svg>
