<?xml version="1.0" encoding="utf-8"?>
<!-- Generator: Adobe Illustrator 15.1.0, SVG Export Plug-In  -->
<!DOCTYPE svg PUBLIC "-//W3C//DTD SVG 1.1//EN" "http://www.w3.org/Graphics/SVG/1.1/DTD/svg11.dtd" [
	<!ENTITY ns_flows "http://ns.adobe.com/Flows/1.0/">
]>
<svg version="1.1"
	 xmlns="http://www.w3.org/2000/svg" xmlns:xlink="http://www.w3.org/1999/xlink" xmlns:a="http://ns.adobe.com/AdobeSVGViewerExtensions/3.0/"
	 x="0px" y="0px" width="239px" height="181px" viewBox="0 0 239 181" enable-background="new 0 0 239 181" xml:space="preserve">
<defs>
</defs>
<g>
	<defs>
		<rect id="SVGID_1_" width="239" height="181"/>
	</defs>
	<clipPath id="SVGID_2_">
		<use xlink:href="#SVGID_1_"  overflow="visible"/>
	</clipPath>
	<g opacity="0.11" clip-path="url(#SVGID_2_)">
		<rect x="166.794" y="106.319" width="31.289" height="11.657"/>
		<path d="M38.102,14.691v18.308l7.985-2.481V22.68h159.924v101.946H78.771l-0.427,7.988H214V14.691H38.102z M38.102,14.691"/>
		<path d="M74.501,58.478c0,13.072-10.591,23.663-23.667,23.663c-13.099,0-23.686-10.591-23.686-23.663
			c0-13.103,10.587-23.693,23.686-23.693C63.91,34.784,74.501,45.375,74.501,58.478L74.501,58.478z M74.501,58.478"/>
		<path d="M70.93,192.197v-51.533h1.509l2.187-42.788l40.847-21.151l-3.416-6.627l0.999,1.725l43.752-25.056l-1.998-3.449
			L111.12,68.312l-0.999-1.967L72.772,85.712H59.435l-9.018,10.47l-8.745-10.47l-19.188,3.57l-1.21,42.546h8.144l0.416,8.836h1.248
			v51.533h-1.634l-9.505,2.058V203h8.08l9.445-1.544L37.55,203h10.474v-52.955h5.965V203h10.436l0.091-1.544L73.96,203h8.11v-8.745
			l-9.505-2.058H70.93z M70.93,192.197"/>
	</g>
</g>
</svg>
