<?xml version="1.0" encoding="utf-8"?>
<!-- Generator: Adobe Illustrator 15.1.0, SVG Export Plug-In  -->
<!DOCTYPE svg PUBLIC "-//W3C//DTD SVG 1.1//EN" "http://www.w3.org/Graphics/SVG/1.1/DTD/svg11.dtd" [
	<!ENTITY ns_flows "http://ns.adobe.com/Flows/1.0/">
]>
<svg version="1.1"
	 xmlns="http://www.w3.org/2000/svg" xmlns:xlink="http://www.w3.org/1999/xlink" xmlns:a="http://ns.adobe.com/AdobeSVGViewerExtensions/3.0/"
	 x="0px" y="0px" width="129px" height="109px" viewBox="189 98 129 109" enable-background="new 189 98 129 109"
	 xml:space="preserve">
<defs>
</defs>
<g>
	<rect y="204" opacity="0.11" fill="none" width="320" height="3"/>
	<g opacity="0.11">
		<path d="M302.453,162.139l-19.898-41.795c-0.11-0.23-0.309-0.41-0.551-0.496l-40.583-14.404c-3.991-1.418-8.391,0.677-9.807,4.669
			l-32.171,90.635c-1.417,3.992,0.679,8.391,4.669,9.807l65.104,23.108c3.991,1.417,8.392-0.677,9.809-4.667l23.466-66.114
			C302.579,162.638,302.563,162.372,302.453,162.139L302.453,162.139z M269.866,231.834l-65.104-23.109
			c-2.983-1.058-4.548-4.346-3.489-7.327L227.324,128l13.218,4.692c0.504,0.178,1.059-0.086,1.238-0.59
			c0.179-0.505-0.085-1.061-0.589-1.239l-13.217-4.69l2.903-8.179l26.131,9.273c0.504,0.18,1.06-0.084,1.239-0.589
			c0.178-0.506-0.085-1.062-0.589-1.24l-26.13-9.274l1.917-5.401c1.058-2.982,4.346-4.55,7.329-3.49l40.203,14.269l19.553,41.07
			l-23.101,65.084l-21.6-7.668c-0.504-0.18-1.061,0.084-1.239,0.588c-0.181,0.507,0.084,1.063,0.59,1.24l21.468,7.621
			C275.25,231.701,272.445,232.749,269.866,231.834L269.866,231.834z M269.866,231.834"/>
		<path d="M269.709,215.159l15.227-42.899c1.022-2.879-0.489-6.049-3.366-7.072l-42.9-15.226c-2.878-1.022-6.049,0.486-7.071,3.366
			l-15.227,42.898c-1.021,2.88,0.488,6.053,3.366,7.074l42.9,15.227C265.517,219.549,268.689,218.038,269.709,215.159
			L269.709,215.159z M263.288,216.696l-7.029-2.495l10.86-30.597l10.418,3.699l-9.657,27.207
			C267.217,216.381,265.158,217.36,263.288,216.696L263.288,216.696z M250.188,177.596l15.102,5.36l-6.073,17.11l-27.583-9.791
			l12.847-36.192l7.262,2.576l-4.921,13.865C245.799,173.401,247.309,176.574,250.188,177.596L250.188,177.596z M230.983,192.104
			l13.809,4.902l-4.137,11.657l-13.81-4.903L230.983,192.104z M246.623,197.657l11.943,4.239l-4.137,11.655l-11.944-4.239
			L246.623,197.657z M283.107,171.611l-4.921,13.863l-27.351-9.709c-1.869-0.662-2.85-2.724-2.187-4.592l4.921-13.864l27.351,9.707
			C282.791,167.681,283.772,169.74,283.107,171.611L283.107,171.611z M238.021,151.79l4.629,1.644l-5.401,15.219l-8.018-2.847
			l4.198-11.828C234.092,152.106,236.152,151.127,238.021,151.79L238.021,151.79z M218.201,196.877l10.38-29.243l8.018,2.847
			l-11.583,32.631l-4.629-1.642C218.519,200.806,217.538,198.747,218.201,196.877L218.201,196.877z M218.201,196.877"/>
		<path d="M248.073,135.365l12.052,4.279c0.505,0.178,1.06-0.086,1.24-0.592c0.18-0.504-0.085-1.06-0.59-1.237l-12.052-4.277
			c-0.506-0.18-1.061,0.083-1.24,0.587C247.303,134.631,247.568,135.188,248.073,135.365L248.073,135.365z M248.073,135.365"/>
	</g>
</g>
</svg>
