<?xml version="1.0" encoding="utf-8"?>
<!-- Generator: Adobe Illustrator 19.2.1, SVG Export Plug-In . SVG Version: 6.00 Build 0)  -->
<svg version="1.1" id="Layer_1" xmlns="http://www.w3.org/2000/svg" xmlns:xlink="http://www.w3.org/1999/xlink" x="0px" y="0px"
	 viewBox="0 0 76 76" style="enable-background:new 0 0 76 76;" xml:space="preserve">
<style type="text/css">
	.st0{opacity:0.13;clip-path:url(#SVGID_2_);fill-rule:evenodd;clip-rule:evenodd;}
	.st1{fill:#FFFFFF;}
</style>
<g>
	<defs>
		<circle id="SVGID_1_" cx="38.3" cy="37.9" r="37.5"/>
	</defs>
	<clipPath id="SVGID_2_">
		<use xlink:href="#SVGID_1_"  style="overflow:visible;opacity:0.18;"/>
	</clipPath>
	<polygon class="st0" points="63.5,86 99.5,81 104.5,46 60,20 58,27 25,27 18,21 10,49 	"/>
	<use xlink:href="#SVGID_1_"  style="overflow:visible;opacity:0.18;fill:none;stroke:#FFFFFF;stroke-miterlimit:10;"/>
</g>
<g>
	<circle class="st1" cx="58.7" cy="22.7" r="2.7"/>
	<path class="st1" d="M68.1,48.8l-2.4-5.1l-2.2-6.2l-1.3-10c-0.1-1-1.1-1.8-2.1-1.6l-1.9,0.2c-0.3,0-0.5,0.1-0.7,0.3c0,0,0,0,0,0
		L52,27.9c-0.2-0.1-0.5-0.2-0.8-0.2h-4.4v0.7c0.6,0.4,1,1,1,1.8c0,1.2-0.9,2.1-2.1,2.1c-1.2,0-2.1-0.9-2.1-2.1c0-0.7,0.4-1.4,1-1.8
		v-0.7h-4.4c-1,0-1.9,0.8-1.9,1.9v4.5h-1.6c-0.3-0.5-0.9-0.8-1.5-0.8c-1,0-1.7,0.8-1.7,1.8c0,1,0.8,1.7,1.7,1.7
		c0.6,0,1.2-0.3,1.5-0.8h1.6v4.5c0,1,0.8,1.9,1.9,1.9h4.2v-1.2c-0.6-0.4-1-1-1-1.8c0-1.2,0.9-2.1,2.1-2.1c1.2,0,2.1,0.9,2.1,2.1
		c0,0.7-0.4,1.4-1,1.8v1.2h4.5c1,0,1.9-0.8,1.9-1.9v-4.4h-1c-0.4,0.6-1,1-1.8,1c-1.2,0-2.1-0.9-2.1-2.1c0-1.2,0.9-2.1,2.1-2.1
		c0.7,0,1.4,0.4,1.8,1h1v-0.4l0.7,0.1c0.1,0,0.2,0,0.2,0h0c0.3,0,0.5-0.1,0.7-0.3l2.2-2.8l1,7.9c0,0.1,0.1,0.3,0.1,0.4l-2.8,4.4
		c-0.1,0.1-0.1,0.3-0.1,0.5c0,0.1,0,0.2,0,0.3l1.5,5.6c0.1,0.4,0.7,0.6,1.4,0.5c0.6-0.2,1.1-0.7,0.9-1.1l-1.4-5l2.5-3.9l1.7-0.2
		l1.6,4.5c0,0,0,0.1,0,0.1l1.2,2.6l1.3,2.7c0.2,0.4,0.8,0.5,1.4,0.2C68,49.8,68.3,49.2,68.1,48.8z M53.5,31.5L53,31.4v-1.7l2.4-0.7
		L53.5,31.5z"/>
	<circle class="st1" cx="17.4" cy="22.7" r="2.7"/>
	<path class="st1" d="M35.3,37.2c-1.2,0-2.1-0.9-2.1-2.1c0-1.2,0.9-2.1,2.1-2.1c0.7,0,1.4,0.4,1.8,1h1v-4.4c0-1-0.8-1.9-1.9-1.9
		h-4.4v0.7c0.6,0.4,1,1,1,1.8c0,1.2-0.9,2.1-2.1,2.1c-1.2,0-2.1-0.9-2.1-2.1c0-0.7,0.4-1.4,1-1.8v-0.7h-4.4c-0.3,0-0.6,0.1-0.9,0.2
		l-5.7-1.6l0,0c-0.2-0.1-0.5-0.2-0.7-0.3L16,25.9c-1-0.1-2,0.6-2.1,1.6l-1.3,10l-2.2,6.2l-2.4,5.1c-0.2,0.4,0.1,1,0.7,1.3
		s1.2,0.2,1.4-0.2l1.3-2.7l1.2-2.6c0,0,0-0.1,0-0.1l1.6-4.5l1.7,0.2l2.5,3.9l-1.4,5c-0.1,0.4,0.3,0.9,0.9,1.1c0.6,0.2,1.3,0,1.4-0.5
		L21,44c0-0.1,0-0.2,0-0.3c0-0.2,0-0.3-0.1-0.5l-2.8-4.4c0-0.1,0.1-0.3,0.1-0.4l1-7.9l2.2,2.8c0.2,0.2,0.4,0.3,0.7,0.3c0,0,0,0,0,0
		c0.1,0,0.2,0,0.2,0l1-0.1v7.1c0,1,0.8,1.9,1.9,1.9h4.2v-1.2c-0.6-0.4-1-1-1-1.8c0-1.2,0.9-2.1,2.1-2.1c1.2,0,2.1,0.9,2.1,2.1
		c0,0.7-0.4,1.4-1,1.8v1.2h4.5c1,0,1.9-0.8,1.9-1.9v-4.4h-1C36.7,36.8,36,37.2,35.3,37.2z M22.6,31.5l-1.9-2.4l2.6,0.7v1.6
		L22.6,31.5z"/>
</g>
</svg>
