<?xml version="1.0" encoding="utf-8"?>
<!-- Generator: Adobe Illustrator 19.0.0, SVG Export Plug-In . SVG Version: 6.00 Build 0)  -->
<svg version="1.1" id="Layer_1" xmlns="http://www.w3.org/2000/svg" xmlns:xlink="http://www.w3.org/1999/xlink" x="0px" y="0px"
	 viewBox="0 0 180 30" style="enable-background:new 0 0 180 30;" xml:space="preserve">
<style type="text/css">
	.st0{fill:#884542;}
	.st1{fill:#67A862;}
	.st2{fill:#181A19;}
	.st3{fill:none;}
	.st4{fill:#F5D680;}
	.st5{fill:#000301;}
	.st6{fill:#618253;}
</style>
<g id="XMLID_2_">
	<circle id="XMLID_192_" class="st0" cx="12.8" cy="16.7" r="2"/>
	<circle id="XMLID_191_" class="st1" cx="37.3" cy="16.7" r="2"/>
	<g id="XMLID_187_">
		<path id="XMLID_188_" class="st2" d="M8.6,12.4c-1.1,1.1-1.8,2.6-1.8,4.2c0,1.6,0.6,3.1,1.8,4.2c1.1,1.1,2.6,1.8,4.2,1.8
			c3.3,0,6-2.7,6-6c0-3.3-2.7-6-6-6C11.2,10.7,9.7,11.3,8.6,12.4z M9.9,19.6c-0.8-0.8-1.2-1.8-1.2-2.9c0-1.1,0.4-2.2,1.2-2.9
			c0.8-0.8,1.8-1.2,2.9-1.2c2.3,0,4.2,1.9,4.2,4.2c0,2.3-1.9,4.2-4.2,4.2C11.7,20.9,10.7,20.4,9.9,19.6z"/>
	</g>
	<g id="XMLID_183_">
		<path id="XMLID_184_" class="st2" d="M33.1,12.4c-1.1,1.1-1.8,2.6-1.8,4.2c0,1.6,0.6,3.1,1.8,4.2c1.1,1.1,2.6,1.8,4.2,1.8
			c3.3,0,6-2.7,6-6c0-3.3-2.7-6-6-6C35.7,10.7,34.2,11.3,33.1,12.4z M34.4,19.6c-0.8-0.8-1.2-1.8-1.2-2.9c0-1.1,0.4-2.2,1.2-2.9
			c0.8-0.8,1.8-1.2,2.9-1.2c2.3,0,4.2,1.9,4.2,4.2c0,2.3-1.9,4.2-4.2,4.2C36.2,20.9,35.2,20.4,34.4,19.6z"/>
	</g>
	<g id="XMLID_176_">
		<path id="XMLID_182_" class="st3" d="M37.3,6.6c-5.5,0-10,4.5-10,10c0,5.5,4.5,10,10,10s10-4.5,10-10C47.4,11.2,42.9,6.6,37.3,6.6
			z"/>
		<path id="XMLID_181_" class="st3" d="M12.8,6.6c-5.5,0-10,4.5-10,10c0,5.5,4.5,10,10,10c5.5,0,10-4.5,10-10
			C22.9,11.2,18.4,6.6,12.8,6.6z"/>
		<path id="XMLID_177_" class="st2" d="M47,8.8c0.5-1.4,1.2-3.1,2.2-4.1H41c-0.1,0-0.3-0.1-0.4-0.1C40.1,3.9,37.1,0,24.9,0
			C11.5,0,9.1,4.7,9.1,4.7H0.5c1.1,1.1,1.9,3,2.3,4.4c-1.6,2.1-2.5,4.7-2.5,7.5c0,6.9,5.6,12.5,12.5,12.5c3.8,0,7.2-1.7,9.5-4.4
			l2.8,4l2.4-4.1c2.3,2.8,5.8,4.6,9.7,4.6c6.9,0,12.5-5.6,12.5-12.5C49.8,13.7,48.7,10.9,47,8.8z M12.8,26.7c-5.5,0-10-4.5-10-10
			c0-5.5,4.5-10,10-10c5.5,0,10,4.5,10,10C22.9,22.2,18.4,26.7,12.8,26.7z M37.3,26.7c-5.5,0-10-4.5-10-10c0-5.5,4.5-10,10-10
			s10,4.5,10,10C47.4,22.2,42.9,26.7,37.3,26.7z"/>
	</g>
	<path id="XMLID_173_" class="st4" d="M25.6,1.4C34.2,1.4,37.4,5,37.4,5s-9.2-1.5-12.2,9.7C22.1,3.5,13,5,13,5s3.2-3.6,11.8-3.6
		H25.6z"/>
	<path id="XMLID_171_" class="st5" d="M59,7.5v3.2h3.5v1.8H59v7.2c0,1.7,0.5,2.6,1.8,2.6c0.7,0,1-0.1,1.4-0.2l0.1,1.8
		c-0.5,0.2-1.2,0.3-2.2,0.3c-1.1,0-2-0.4-2.6-1c-0.7-0.7-0.9-1.9-0.9-3.5v-7.3h-2.1v-1.8h2.1V8.2L59,7.5z"/>
	<path id="XMLID_169_" class="st5" d="M64.7,14.8c0-1.6,0-2.9-0.1-4.2h2.1l0.1,2.6h0.1c0.6-1.8,2.1-2.9,3.7-2.9c0.2,0,0.4,0,0.7,0.1
		v2.3c-0.3,0-0.5-0.1-0.9-0.1c-1.7,0-2.9,1.3-3.3,3.1c-0.1,0.4-0.1,0.7-0.1,1.2V24h-2.4L64.7,14.8z"/>
	<path id="XMLID_166_" class="st5" d="M74.4,8.2c-0.9,0-1.5-0.7-1.5-1.6s0.6-1.5,1.6-1.5c0.9,0,1.5,0.7,1.5,1.5S75.4,8.2,74.4,8.2
		L74.4,8.2z M73.2,24V10.7h2.4V24H73.2z"/>
	<path id="XMLID_163_" class="st5" d="M79.1,15c0-1.7,0-3.1-0.1-4.4h2.2l0.1,2.3h0.1c1-1.7,2.6-2.6,4.7-2.6c3.3,0,5.7,2.7,5.7,6.8
		c0,4.8-3,7.2-6.1,7.2c-1.8,0-3.3-0.8-4.1-2.1h-0.1v7.3h-2.4V15z M81.5,18.6c0,0.3,0,0.7,0.1,1c0.4,1.7,1.9,2.8,3.6,2.8
		c2.6,0,4.1-2.1,4.1-5.2c0-2.7-1.4-5-3.9-5c-1.7,0-3.2,1.2-3.7,3c-0.1,0.3-0.1,0.7-0.1,1V18.6z"/>
	<path id="XMLID_155_" class="st6" d="M103.6,20.8c0,1.2,0.1,2.3,0.2,3.2h-2.2l-0.2-1.7h-0.1c-0.7,1-2.2,2-4.1,2
		c-2.7,0-4.1-1.9-4.1-3.8c0-3.2,2.9-5,8-5v-0.3c0-1.1-0.3-3.1-3-3.1c-1.3,0-2.6,0.4-3.5,1l-0.6-1.6c1.1-0.7,2.7-1.2,4.4-1.2
		c4.1,0,5.1,2.8,5.1,5.5V20.8z M101.3,17.2c-2.6-0.1-5.7,0.4-5.7,3c0,1.6,1,2.3,2.3,2.3c1.8,0,2.9-1.1,3.3-2.2
		c0.1-0.2,0.1-0.5,0.1-0.8V17.2z"/>
	<path id="XMLID_147_" class="st6" d="M118.5,4.4v16.1c0,1.2,0,2.5,0.1,3.4h-2.2l-0.1-2.3h-0.1c-0.7,1.5-2.3,2.6-4.5,2.6
		c-3.2,0-5.7-2.7-5.7-6.8c0-4.5,2.8-7.2,6-7.2c2.1,0,3.4,1,4,2h0.1V4.4H118.5z M116.1,16.1c0-0.3,0-0.7-0.1-1
		c-0.4-1.5-1.7-2.8-3.5-2.8c-2.5,0-4,2.2-4,5.1c0,2.7,1.4,5,3.9,5c1.6,0,3.1-1.1,3.6-2.9c0.1-0.3,0.1-0.7,0.1-1V16.1z"/>
	<path id="XMLID_141_" class="st6" d="M122.9,10.7l2.6,7.5c0.4,1.2,0.8,2.3,1.1,3.4h0.1c0.3-1.1,0.7-2.2,1.1-3.4l2.6-7.5h2.5
		L127.7,24h-2.3l-5.1-13.4H122.9z"/>
	<path id="XMLID_133_" class="st6" d="M135.8,8.2c-0.9,0-1.5-0.7-1.5-1.6s0.6-1.5,1.6-1.5c0.9,0,1.5,0.7,1.5,1.5
		S136.8,8.2,135.8,8.2L135.8,8.2z M134.6,24V10.7h2.4V24H134.6z"/>
	<path id="XMLID_127_" class="st6" d="M140.2,21.6c0.7,0.4,2,0.9,3.2,0.9c1.7,0,2.6-0.9,2.6-2c0-1.2-0.7-1.8-2.5-2.5
		c-2.4-0.9-3.6-2.2-3.6-3.8c0-2.2,1.8-3.9,4.6-3.9c1.4,0,2.5,0.4,3.3,0.8l-0.6,1.7c-0.5-0.3-1.5-0.8-2.7-0.8c-1.4,0-2.2,0.8-2.2,1.8
		c0,1.1,0.8,1.6,2.5,2.3c2.3,0.9,3.5,2,3.5,4c0,2.4-1.8,4-5,4c-1.5,0-2.8-0.4-3.8-0.9L140.2,21.6z"/>
	<path id="XMLID_119_" class="st6" d="M156.3,24.3c-3.6,0-6.4-2.6-6.4-6.9c0-4.5,3-7.1,6.6-7.1c3.8,0,6.4,2.8,6.4,6.8
		C162.9,22.2,159.5,24.3,156.3,24.3L156.3,24.3z M156.4,22.5c2.3,0,4.1-2.2,4.1-5.2c0-2.3-1.1-5.1-4-5.1c-2.8,0-4.1,2.6-4.1,5.2
		C152.3,20.3,154,22.5,156.4,22.5L156.4,22.5z"/>
	<path id="XMLID_113_" class="st6" d="M165.4,14.8c0-1.6,0-2.9-0.1-4.2h2.1l0.1,2.6h0.1c0.6-1.8,2.1-2.9,3.7-2.9
		c0.2,0,0.4,0,0.7,0.1v2.3c-0.3,0-0.5-0.1-0.9-0.1c-1.7,0-2.9,1.3-3.3,3.1c-0.1,0.4-0.1,0.7-0.1,1.2V24h-2.4L165.4,14.8z"/>
	<g id="XMLID_3_">
		<g id="XMLID_114_">
			<g id="XMLID_121_">
				<path id="XMLID_122_" class="st6" d="M175.7,10.5c0.2,0,0.5-0.1,0.8-0.1c0.4,0,0.7,0.1,0.9,0.2c0.2,0.1,0.3,0.3,0.3,0.6
					c0,0.4-0.3,0.6-0.5,0.7v0c0.2,0.1,0.3,0.3,0.4,0.5c0.1,0.3,0.2,0.7,0.2,0.8h-0.6c0-0.1-0.1-0.3-0.2-0.7
					c-0.1-0.4-0.2-0.5-0.5-0.5h-0.2v1.1h-0.6V10.5z M176.3,11.7h0.2c0.3,0,0.5-0.2,0.5-0.4c0-0.3-0.2-0.4-0.5-0.4
					c-0.2,0-0.2,0-0.3,0V11.7z"/>
			</g>
			<g id="XMLID_115_">
				<path id="XMLID_116_" class="st6" d="M173.9,12c0,1.6,1.3,2.8,2.8,2.8c1.6,0,2.8-1.3,2.8-2.8c0-1.6-1.3-2.8-2.8-2.8
					C175.1,9.1,173.9,10.4,173.9,12z M174.5,12c0-1.2,1-2.2,2.2-2.2c1.2,0,2.2,1,2.2,2.2c0,1.2-1,2.2-2.2,2.2
					C175.5,14.2,174.5,13.2,174.5,12z"/>
			</g>
		</g>
	</g>
</g>
</svg>
