<svg version="1.1"
	 xmlns="http://www.w3.org/2000/svg" xmlns:xlink="http://www.w3.org/1999/xlink" xmlns:a="http://ns.adobe.com/AdobeSVGViewerExtensions/3.0/"
	 x="0px" y="0px" width="30px" height="30px" viewBox="-2 -4 30 30" enable-background="new -2 -4 30 30" xml:space="preserve">
<style type="text/css">
	.st0{opacity:0.21;enable-background:new    ;}
	.st1{fill:#FFD900;}
	.st2{enable-background:new    ;}
	.st3{fill:#FFFFFF;}
</style>
<circle id="XMLID_6_" class="st0" cx="11" cy="11" r="11"/>
<polygon id="XMLID_5_" class="st1" points="20.7,1.7 22.2,4.7 25.6,5.2 23.1,7.6 23.7,11 20.7,9.4 17.6,11 18.2,7.6 15.8,5.2 
	19.2,4.7 "/>
<g id="XMLID_2_" class="st2">
	<path id="XMLID_3_" class="st3" d="M11.7,9.6c1.1,0,2,0.3,2.6,0.9c0.7,0.6,1,1.5,1,2.5c0,1.3-0.4,2.3-1.2,2.9c-0.8,0.7-1.9,1-3.4,1
		c-1.3,0-2.3-0.2-3.1-0.6v-2.1c0.4,0.2,0.9,0.4,1.4,0.5s1.1,0.2,1.6,0.2c1.5,0,2.2-0.6,2.2-1.8c0-1.2-0.8-1.7-2.3-1.7
		c-0.3,0-0.6,0-0.9,0.1c-0.3,0.1-0.6,0.1-0.8,0.2l-1-0.5l0.4-5.8h6.2v2h-4.1l-0.2,2.2l0.3-0.1C10.8,9.6,11.2,9.6,11.7,9.6z"/>
</g>
</svg>
