<?xml version="1.0" encoding="utf-8"?>
<!-- Generator: Adobe Illustrator 15.1.0, SVG Export Plug-In  -->
<!DOCTYPE svg PUBLIC "-//W3C//DTD SVG 1.1//EN" "http://www.w3.org/Graphics/SVG/1.1/DTD/svg11.dtd" [
	<!ENTITY ns_flows "http://ns.adobe.com/Flows/1.0/">
]>
<svg version="1.1"
	 xmlns="http://www.w3.org/2000/svg" xmlns:xlink="http://www.w3.org/1999/xlink" xmlns:a="http://ns.adobe.com/AdobeSVGViewerExtensions/3.0/"
	 x="0px" y="0px" width="80px" height="80px" viewBox="-2.225 -1.9 80 80" enable-background="new -2.225 -1.9 80 80"
	 xml:space="preserve">
<defs>
</defs>
<g>
	<defs>
		<circle id="SVGID_1_" cx="38" cy="38" r="37.5"/>
	</defs>
	<clipPath id="SVGID_2_">
		<use xlink:href="#SVGID_1_"  overflow="visible" opacity="0.18"/>
	</clipPath>
	<polygon opacity="0.13" clip-path="url(#SVGID_2_)" fill-rule="evenodd" clip-rule="evenodd" points="56.775,87.1 99.175,81.1 
		103.775,34.1 38.775,21.1 30.775,22.1 20.775,23.1 29.775,44.1 29.775,59.1 	"/>
	<use xlink:href="#SVGID_1_"  overflow="visible" opacity="0.18" fill="none" stroke="#FFFFFF" stroke-miterlimit="10"/>
</g>
<path fill="#FFFFFF" d="M29.795,29.269L29.795,29.269c0.001,0.001,0.003,0,0.006,0c0.001,0,0.004,0,0.005,0l0-0.001
	c2.017-0.369,3.375-2.286,3.042-4.317c-0.333-2.031-2.232-3.414-4.261-3.117l0,0c-0.003,0-0.004,0-0.006,0
	c-0.002,0.001-0.003,0.001-0.006,0.001v0.001c-2.016,0.368-3.374,2.284-3.041,4.315C25.867,28.183,27.766,29.564,29.795,29.269
	L29.795,29.269z M29.795,29.269"/>
<path fill="#FFFFFF" d="M43.633,51.509l-7.28-7.378c-0.5-0.6-1.849-9.084-1.906-9.437c-0.149-0.903,0.107-1.477,0.107-1.477
	s3.659-9.401,4.03-10.436c0.371-1.036,0.35-1.713-0.365-2.227c-0.716-0.514-1.938-0.529-2.227,0.366l-3.92,9.405
	c0,0-1-0.364-2.103-0.201c-0.009,0.002-0.019,0.003-0.028,0.005c-0.009,0.001-0.018,0.003-0.027,0.004
	c-1.098,0.199-1.928,0.863-1.928,0.863l-6.72-7.661c-0.793-0.774-1.712-0.351-2.227,0.366c-0.513,0.714-0.22,1.521,0.365,2.225
	c0.585,0.704,7.154,8.603,7.154,8.603s0.425,0.461,0.574,1.363c0.012,0.072,0.015,0.093,1.423,8.673L29.5,59.083
	c0.062,0.947,0.849,1.674,1.784,1.674c0.039,0,0.078-0.002,0.118-0.004c0.986-0.064,1.734-0.916,1.669-1.901
	c0,0-0.852-12.622-0.852-13.087c0-0.285,0.277-0.448,0.605-0.116c0.327,0.331,8.262,8.373,8.262,8.373
	c0.694,0.704,1.827,0.711,2.53,0.018C44.32,53.345,44.328,52.212,43.633,51.509L43.633,51.509z M43.633,51.509"/>
<path fill="#FFFFFF" d="M51.844,32.762L51.844,32.762c0.001,0.001,0.002,0.001,0.004,0.002c0.001,0,0.003,0.001,0.004,0.002v-0.001
	c0.013,0.005,0.025,0.009,0.038,0.012c0.013,0.004,0.025,0.01,0.038,0.015l0,0c0.001,0,0.003,0,0.004,0.002
	c0.001,0,0.002,0.001,0.004,0.002v-0.001c1.519,0.49,3.155-0.324,3.674-1.84c0.52-1.515-0.273-3.162-1.773-3.706l0,0
	c-0.001,0-0.002-0.001-0.004-0.001c-0.001-0.001-0.002-0.001-0.004-0.002v0.001c-0.013-0.005-0.026-0.008-0.039-0.012
	c-0.012-0.005-0.024-0.011-0.038-0.015l0.001-0.001c-0.002,0-0.003,0-0.005-0.001c-0.001,0-0.002-0.001-0.004-0.001l0,0
	c-1.519-0.49-3.155,0.324-3.674,1.839C49.551,30.57,50.344,32.217,51.844,32.762L51.844,32.762z M51.844,32.762"/>
<path fill="#FFFFFF" d="M63.913,33.976c-0.154-0.668-0.803-0.959-1.974-0.716l-8.788,0.946c0,0-0.41-0.49-1.461-0.851
	s-1.671-0.224-1.671-0.224l-6.36-6.139c-0.775-0.911-1.467-1.078-1.998-0.646c-0.639,0.521-0.758,1.346-0.383,1.811
	c0.565,0.701,6.255,6.535,6.461,6.869c0.207,0.334,0.123,0.473-0.109,1.146c-0.098,0.286-1.611,4.501-2.185,6.063L37.933,47.3
	c-0.656,0.441-0.829,1.331-0.387,1.987c0.442,0.655,1.331,0.829,1.987,0.388c0,0,7.923-5.325,8.115-5.469
	c0.192-0.145,0.448-0.054,0.362,0.22c-0.086,0.272-3.4,10.738-3.4,10.738c-0.239,0.755,0.179,1.558,0.932,1.797
	c0.145,0.045,0.29,0.067,0.433,0.067c0.608,0,1.172-0.391,1.364-1l3.74-11.813c0.016-0.049,0.028-0.099,0.038-0.149
	c2.125-6.201,2.11-6.155,2.054-5.993c0.231-0.675,0.25-0.835,0.618-0.973c0.368-0.137,8.44-1.253,9.316-1.46
	C63.686,35.503,64.098,34.78,63.913,33.976L63.913,33.976z M63.913,33.976"/>
</svg>
