<?xml version="1.0" encoding="utf-8"?>
<!-- Generator: Adobe Illustrator 15.1.0, SVG Export Plug-In  -->
<!DOCTYPE svg PUBLIC "-//W3C//DTD SVG 1.1//EN" "http://www.w3.org/Graphics/SVG/1.1/DTD/svg11.dtd" [
	<!ENTITY ns_flows "http://ns.adobe.com/Flows/1.0/">
]>
<svg version="1.1"
	 xmlns="http://www.w3.org/2000/svg" xmlns:xlink="http://www.w3.org/1999/xlink" xmlns:a="http://ns.adobe.com/AdobeSVGViewerExtensions/3.0/"
	 x="0px" y="0px" width="80px" height="80px" viewBox="-1.825 -1.9 80 80" enable-background="new -1.825 -1.9 80 80"
	 xml:space="preserve">
<defs>
</defs>
<g>
	<defs>
		<circle id="SVGID_1_" cx="38" cy="38" r="37.5"/>
	</defs>
	<clipPath id="SVGID_2_">
		<use xlink:href="#SVGID_1_"  overflow="visible" opacity="0.18"/>
	</clipPath>
	<polygon opacity="0.13" clip-path="url(#SVGID_2_)" fill-rule="evenodd" clip-rule="evenodd" points="63.175,86.1 99.175,81.1 
		104.175,46.1 57.175,16.1 18.175,16.1 18.175,35.1 25.175,44.1 18.175,55.1 	"/>
	<use xlink:href="#SVGID_1_"  overflow="visible" opacity="0.18" fill="none" stroke="#FFFFFF" stroke-miterlimit="10"/>
</g>
<path fill="#FFFFFF" d="M24.639,54.436l0.013-0.031c0.222-0.479,0.626-0.846,1.204-1.088l1.831-0.843l0.097-0.082
	c-0.07-0.08-0.138-0.162-0.204-0.247c-0.828-1.075-1.282-2.503-1.32-4.133l-0.253-0.116l-0.944-0.797l-1.516,1.509H23.37
	l-1.516-1.509l-0.943,0.797L18.946,48.8c-0.291,0.118-0.576,0.3-0.722,0.615c0,0-2.135,5.081-0.977,5.081h7.365
	C24.627,54.463,24.636,54.441,24.639,54.436L24.639,54.436z M24.639,54.436"/>
<path fill="#FFFFFF" d="M19.917,42.493c0.034,3.14,1.788,5.009,3.541,5.009c1.499,0,3.508-1.869,3.543-5.009
	c0.021-2.178-1.016-3.48-3.543-3.48C20.932,39.013,19.894,40.315,19.917,42.493L19.917,42.493z M19.917,42.493"/>
<path fill="#FFFFFF" d="M35.642,53.316c0.593,0.25,1.014,0.635,1.218,1.121c0.002,0.005,0.01,0.025,0.024,0.059h2.309
	c0.015-0.033,0.024-0.055,0.027-0.061l0.014-0.031c0.221-0.479,0.626-0.846,1.203-1.088l1.831-0.843l0.097-0.082
	c-0.07-0.08-0.138-0.162-0.204-0.247c-0.827-1.075-1.282-2.503-1.32-4.133l-0.253-0.116l-0.943-0.797l-1.516,1.509h-0.176
	l-1.517-1.509l-0.943,0.797l-0.254,0.116c-0.041,1.584-0.545,3.054-1.428,4.149c-0.051,0.063-0.101,0.123-0.153,0.182l0.155,0.131
	L35.642,53.316z M35.642,53.316"/>
<path fill="#FFFFFF" d="M38.04,47.502c1.498,0,3.508-1.869,3.541-5.009c0.022-2.178-1.015-3.48-3.541-3.48
	c-2.527,0-3.564,1.303-3.542,3.48C34.531,45.633,36.286,47.502,38.04,47.502L38.04,47.502z M38.04,47.502"/>
<path fill="#FFFFFF" d="M57.854,49.415c-0.127-0.302-0.431-0.497-0.722-0.615l-1.964-0.904l-0.943-0.797l-1.516,1.509h-0.177
	l-1.516-1.509l-0.943,0.797l-0.255,0.116c-0.04,1.584-0.545,3.054-1.428,4.149c-0.051,0.063-0.102,0.123-0.153,0.182l0.155,0.131
	l1.831,0.843c0.594,0.25,1.014,0.635,1.217,1.121c0.002,0.005,0.011,0.025,0.025,0.059h7.365
	C59.989,54.496,57.854,49.415,57.854,49.415L57.854,49.415z M57.854,49.415"/>
<path fill="#FFFFFF" d="M49.079,42.493c0.033,3.14,1.788,5.009,3.542,5.009c1.498,0,3.506-1.869,3.542-5.009
	c0.022-2.178-1.016-3.48-3.542-3.48C50.094,39.013,49.056,40.315,49.079,42.493L49.079,42.493z M49.079,42.493"/>
<path fill="#FFFFFF" d="M35.26,54.188l-1.963-0.905l-0.944-0.794l-1.517,1.508H30.66l-1.516-1.508l-0.943,0.794l-1.965,0.905
	c-0.291,0.118-0.575,0.3-0.721,0.615c0,0-2.135,5.083-0.976,5.083h12.42c1.158,0-0.978-5.083-0.978-5.083
	C35.855,54.5,35.551,54.307,35.26,54.188L35.26,54.188z M35.26,54.188"/>
<path fill="#FFFFFF" d="M30.749,44.402c-2.526,0-3.563,1.303-3.542,3.48c0.034,3.137,1.789,5.01,3.542,5.01
	c1.498,0,3.508-1.873,3.542-5.01C34.313,45.705,33.275,44.402,30.749,44.402L30.749,44.402z M30.749,44.402"/>
<path fill="#FFFFFF" d="M49.841,54.188l-1.964-0.905l-0.943-0.794l-1.516,1.508h-0.177l-1.516-1.508l-0.944,0.794l-1.964,0.905
	c-0.29,0.118-0.576,0.3-0.722,0.615c0,0-2.134,5.083-0.976,5.083h12.42c1.158,0-0.978-5.083-0.978-5.083
	C50.437,54.5,50.132,54.307,49.841,54.188L49.841,54.188z M49.841,54.188"/>
<path fill="#FFFFFF" d="M45.33,52.893c1.498,0,3.507-1.873,3.542-5.01c0.022-2.178-1.016-3.48-3.542-3.48
	c-2.526,0-3.564,1.303-3.542,3.48C41.822,51.02,43.577,52.893,45.33,52.893L45.33,52.893z M45.33,52.893"/>
<path fill="#FFFFFF" d="M36.813,28.951c0.051,0.026,0.106,0.038,0.161,0.038c0.078,0,0.156-0.025,0.22-0.074l3.742-2.86
	c0.09-0.068,0.143-0.176,0.143-0.288c0-0.113-0.053-0.22-0.143-0.29l-3.742-2.859c-0.109-0.084-0.257-0.098-0.381-0.037
	c-0.124,0.063-0.202,0.188-0.202,0.327v5.719C36.61,28.764,36.689,28.89,36.813,28.951L36.813,28.951z M36.813,28.951"/>
<path fill="#FFFFFF" d="M18.873,36.1h38.334c0.28,0,0.506-0.226,0.506-0.506V15.939c0-0.28-0.226-0.507-0.506-0.507H18.873
	c-0.28,0-0.507,0.227-0.507,0.507v19.654C18.366,35.874,18.593,36.1,18.873,36.1L18.873,36.1z M38.04,19.876
	c3.253,0,5.89,2.637,5.89,5.891c0,3.252-2.637,5.89-5.89,5.89s-5.891-2.638-5.891-5.89C32.149,22.513,34.787,19.876,38.04,19.876
	L38.04,19.876z M38.04,19.876"/>
</svg>
