<?xml version="1.0" encoding="utf-8"?>
<!-- Generator: Adobe Illustrator 19.2.1, SVG Export Plug-In . SVG Version: 6.00 Build 0)  -->
<svg version="1.1" id="Layer_1" xmlns="http://www.w3.org/2000/svg" xmlns:xlink="http://www.w3.org/1999/xlink" x="0px" y="0px"
	 viewBox="0 0 46 46" style="enable-background:new 0 0 46 46;" xml:space="preserve">
<style type="text/css">
	.st0{fill:#ED362B;}
	.st1{fill:#FFFFFF;}
</style>
<circle class="st0" cx="23" cy="23" r="23"/>
<g>
	<g>
		<path class="st1" d="M35,13.1H10.8c-0.5,0-1,0.4-1,1v14.6c0,0.5,0.4,1,1,1h8.1v0.8L15,32.1c-0.5,0.2-0.7,0.8-0.5,1.3
			c0.2,0.4,0.5,0.6,0.9,0.6c0.1,0,0.3,0,0.4-0.1l4.3-1.9h5.6l4.3,1.9c0.1,0.1,0.3,0.1,0.4,0.1c0.4,0,0.7-0.2,0.9-0.6
			c0.2-0.5,0-1.1-0.5-1.3l-3.9-1.8v-0.8H35c0.5,0,1-0.4,1-1V14.1C36,13.6,35.6,13.1,35,13.1L35,13.1z M25,30h-4.1v-0.4H25V30z
			 M34.1,27.7H11.7V15.1h22.3V27.7z M34.1,27.7"/>
	</g>
</g>
</svg>
