<?xml version="1.0" encoding="utf-8"?>
<!-- Generator: Adobe Illustrator 19.2.1, SVG Export Plug-In . SVG Version: 6.00 Build 0)  -->
<svg version="1.1" id="Layer_1" xmlns="http://www.w3.org/2000/svg" xmlns:xlink="http://www.w3.org/1999/xlink" x="0px" y="0px"
	 viewBox="0 0 80 80" style="enable-background:new 0 0 80 80;" xml:space="preserve">
<style type="text/css">
	.st0{fill:#FFFFFF;}
</style>
<path class="st0" d="M53.6,43.7c-2,0-3.9,0.8-5.3,2.1L43.3,42v-5.8c3.6-0.6,6.4-3.8,6.4-7.6c0-4.2-3.4-7.7-7.7-7.7s-7.7,3.4-7.7,7.7
	c0,3.8,2.8,6.9,6.4,7.6V42l-5.5,3.9c-1-1-2.3-1.7-3.7-2c-5.3-1.1-10,3.2-9.3,8.5c0.4,3.4,3.2,6.2,6.6,6.6c5.3,0.7,9.6-4,8.5-9.3
	c-0.1-0.6-0.3-1.1-0.6-1.7l5.2-3.8l4.8,3.6c-0.5,1-0.8,2.2-0.8,3.5c0,4.2,3.4,7.7,7.7,7.7c4.2,0,7.7-3.4,7.7-7.7
	C61.3,47.1,57.8,43.7,53.6,43.7L53.6,43.7z M29.8,46.4c1.3,0,2.3,1,2.3,2.3S31,51,29.8,51c-1.3,0-2.3-1-2.3-2.3S28.5,46.4,29.8,46.4
	L29.8,46.4z M33.2,55.4h-6.9v-1c0-1.4,1-2.7,2.4-2.7h2.1c1.4,0,2.4,1.3,2.4,2.7V55.4z M42,23.6c1.3,0,2.3,1,2.3,2.3
	c0,1.3-1,2.3-2.3,2.3c-1.3,0-2.3-1-2.3-2.3C39.6,24.6,40.7,23.6,42,23.6L42,23.6z M38.5,32.6v-1c0-1.4,1-2.7,2.4-2.7H43
	c1.4,0,2.4,1.3,2.4,2.7v1C45.4,32.6,38.5,32.6,38.5,32.6z M53.6,46.4c1.3,0,2.3,1,2.3,2.3s-1,2.3-2.3,2.3c-1.3,0-2.3-1-2.3-2.3
	S52.3,46.4,53.6,46.4L53.6,46.4z M57,55.4h-6.9v-1c0-1.4,1-2.7,2.4-2.7h2.1c1.4,0,2.4,1.3,2.4,2.7V55.4z"/>
</svg>
