<?xml version="1.0" encoding="utf-8"?>
<!-- Generator: Adobe Illustrator 19.2.1, SVG Export Plug-In . SVG Version: 6.00 Build 0)  -->
<svg version="1.1" id="Layer_1" xmlns="http://www.w3.org/2000/svg" xmlns:xlink="http://www.w3.org/1999/xlink" x="0px" y="0px"
	 viewBox="0 0 80 80" style="enable-background:new 0 0 80 80;" xml:space="preserve">
<style type="text/css">
	.st0{fill:#FFFFFF;}
</style>
<g>
	<path class="st0" d="M56.9,18.1l0.5,0.5c0.7,0.8,0.6,2-0.2,2.7L39.8,36.2c-0.8,0.7-2,0.6-2.7-0.2l-0.4-0.5c-0.7-0.8-0.6-2,0.2-2.7
		l17.3-14.9C55,17.2,56.2,17.3,56.9,18.1"/>
	<path class="st0" d="M36.8,36.3c-0.2-0.3-0.5-0.6-0.7-0.9c-3.5,2.3-4.9,5.7-4.8,9.9h1C32.2,41.7,33.4,38.6,36.8,36.3"/>
	<path class="st0" d="M22.9,55.3c2.2-2.4,4.8-3.8,7.6-4.1v-3.9l0.8-1.8h1.1l0.9,1.8v4c2.7,0.4,5.3,1.7,7.6,4H22.9"/>
</g>
</svg>
