<?xml version="1.0" encoding="utf-8"?>
<!-- Generator: Adobe Illustrator 19.2.1, SVG Export Plug-In . SVG Version: 6.00 Build 0)  -->
<svg version="1.1" id="Layer_1" xmlns="http://www.w3.org/2000/svg" xmlns:xlink="http://www.w3.org/1999/xlink" x="0px" y="0px"
	 viewBox="0 0 80 80" style="enable-background:new 0 0 80 80;" xml:space="preserve">
<style type="text/css">
	.st0{fill:#FFFFFF;}
</style>
<g>
	<path class="st0" d="M26.9,56.8L26.9,56.8c0.2-0.5,0.6-0.9,1.2-1.1l1.8-0.8l0.1-0.1c-0.1-0.1-0.1-0.2-0.2-0.2
		c-0.8-1.1-1.3-2.5-1.3-4.1l-0.3-0.1l-0.9-0.8l-1.5,1.5h-0.2l-1.5-1.5l-0.9,0.8l-2,0.9c-0.3,0.1-0.6,0.3-0.7,0.6c0,0-2.1,5.1-1,5.1
		L26.9,56.8C26.9,56.8,26.9,56.8,26.9,56.8L26.9,56.8z"/>
	<path class="st0" d="M22.2,44.8c0,3.1,1.8,5,3.5,5c1.5,0,3.5-1.9,3.5-5c0-2.2-1-3.5-3.5-3.5C23.2,41.4,22.2,42.7,22.2,44.8
		L22.2,44.8z"/>
	<path class="st0" d="M37.9,55.7c0.6,0.3,1,0.6,1.2,1.1c0,0,0,0,0,0.1h2.3c0,0,0-0.1,0-0.1l0,0c0.2-0.5,0.6-0.8,1.2-1.1l1.8-0.8
		l0.1-0.1c-0.1-0.1-0.1-0.2-0.2-0.2c-0.8-1.1-1.3-2.5-1.3-4.1l-0.3-0.1l-0.9-0.8l-1.5,1.5h-0.2l-1.5-1.5l-0.9,0.8l-0.3,0.1
		c0,1.6-0.5,3.1-1.4,4.1c-0.1,0.1-0.1,0.1-0.2,0.2l0.2,0.1L37.9,55.7z"/>
	<path class="st0" d="M40.3,49.8c1.5,0,3.5-1.9,3.5-5c0-2.2-1-3.5-3.5-3.5c-2.5,0-3.6,1.3-3.5,3.5C36.8,48,38.6,49.8,40.3,49.8
		L40.3,49.8z"/>
	<path class="st0" d="M60.2,51.8c-0.1-0.3-0.4-0.5-0.7-0.6l-2-0.9l-0.9-0.8L55,50.9h-0.2l-1.5-1.5l-0.9,0.8l-0.3,0.1
		c0,1.6-0.5,3.1-1.4,4.1c-0.1,0.1-0.1,0.1-0.2,0.2l0.2,0.1l1.8,0.8c0.6,0.3,1,0.6,1.2,1.1c0,0,0,0,0,0.1h7.4
		C62.3,56.8,60.2,51.8,60.2,51.8L60.2,51.8z"/>
	<path class="st0" d="M51.4,44.8c0,3.1,1.8,5,3.5,5c1.5,0,3.5-1.9,3.5-5c0-2.2-1-3.5-3.5-3.5C52.4,41.4,51.4,42.7,51.4,44.8
		L51.4,44.8z"/>
	<path class="st0" d="M37.6,56.5l-2-0.9l-0.9-0.8l-1.5,1.5H33l-1.5-1.5l-0.9,0.8l-2,0.9c-0.3,0.1-0.6,0.3-0.7,0.6c0,0-2.1,5.1-1,5.1
		h12.4c1.2,0-1-5.1-1-5.1C38.2,56.8,37.9,56.6,37.6,56.5L37.6,56.5z"/>
	<path class="st0" d="M33.1,46.7c-2.5,0-3.6,1.3-3.5,3.5c0,3.1,1.8,5,3.5,5c1.5,0,3.5-1.9,3.5-5C36.6,48,35.6,46.7,33.1,46.7
		L33.1,46.7z"/>
	<path class="st0" d="M52.1,56.5l-2-0.9l-0.9-0.8l-1.5,1.5h-0.2L46,54.8l-0.9,0.8l-2,0.9c-0.3,0.1-0.6,0.3-0.7,0.6
		c0,0-2.1,5.1-1,5.1h12.4c1.2,0-1-5.1-1-5.1C52.7,56.8,52.4,56.6,52.1,56.5L52.1,56.5z"/>
	<path class="st0" d="M47.6,55.2c1.5,0,3.5-1.9,3.5-5c0-2.2-1-3.5-3.5-3.5s-3.6,1.3-3.5,3.5C44.1,53.4,45.9,55.2,47.6,55.2
		L47.6,55.2z"/>
	<path class="st0" d="M39.1,31.3c0.1,0,0.1,0,0.2,0c0.1,0,0.2,0,0.2-0.1l3.7-2.9c0.1-0.1,0.1-0.2,0.1-0.3c0-0.1-0.1-0.2-0.1-0.3
		L39.5,25c-0.1-0.1-0.3-0.1-0.4,0c-0.1,0.1-0.2,0.2-0.2,0.3V31C38.9,31.1,39,31.2,39.1,31.3L39.1,31.3z"/>
	<path class="st0" d="M21.2,38.4h38.3c0.3,0,0.5-0.2,0.5-0.5V18.3c0-0.3-0.2-0.5-0.5-0.5H21.2c-0.3,0-0.5,0.2-0.5,0.5v19.7
		C20.7,38.2,20.9,38.4,21.2,38.4L21.2,38.4z M40.3,22.2c3.3,0,5.9,2.6,5.9,5.9c0,3.3-2.6,5.9-5.9,5.9s-5.9-2.6-5.9-5.9
		C34.5,24.9,37.1,22.2,40.3,22.2L40.3,22.2z"/>
</g>
</svg>
