<?xml version="1.0" encoding="utf-8"?>
<!-- Generator: Adobe Illustrator 19.2.1, SVG Export Plug-In . SVG Version: 6.00 Build 0)  -->
<svg version="1.1" id="Layer_1" xmlns="http://www.w3.org/2000/svg" xmlns:xlink="http://www.w3.org/1999/xlink" x="0px" y="0px"
	 viewBox="0 0 80 80" style="enable-background:new 0 0 80 80;" xml:space="preserve">
<style type="text/css">
	.st0{fill:#FFFFFF;}
</style>
<path class="st0" d="M59.1,24.9H22.8c-0.8,0-1.5,0.6-1.5,1.5v21.8c0,0.8,0.6,1.5,1.5,1.5H35v1.1l-5.9,2.6c-0.7,0.3-1.1,1.2-0.7,1.9
	c0.2,0.5,0.8,0.9,1.3,0.9c0.2,0,0.4,0,0.6-0.1l6.4-2.9h8.4l6.4,2.9c0.2,0.1,0.4,0.1,0.6,0.1c0.6,0,1.1-0.3,1.3-0.9
	c0.3-0.7,0-1.6-0.7-1.9l-5.9-2.6v-1.1h12.2c0.8,0,1.5-0.6,1.5-1.5V26.3C60.5,25.5,59.9,24.9,59.1,24.9L59.1,24.9z M44,50.2h-6.1
	v-0.6H44V50.2z M57.6,46.6H24.2V27.8h33.4V46.6z"/>
</svg>
