<?xml version="1.0" encoding="utf-8"?>
<!-- Generator: Adobe Illustrator 19.2.1, SVG Export Plug-In . SVG Version: 6.00 Build 0)  -->
<svg version="1.1" id="Layer_1" xmlns="http://www.w3.org/2000/svg" xmlns:xlink="http://www.w3.org/1999/xlink" x="0px" y="0px"
	 viewBox="0 0 80 80" style="enable-background:new 0 0 80 80;" xml:space="preserve">
<style type="text/css">
	.st0{fill:#FFFFFF;}
</style>
<path class="st0" d="M29.8,29.3L29.8,29.3C29.8,29.3,29.8,29.3,29.8,29.3C29.8,29.3,29.8,29.3,29.8,29.3L29.8,29.3
	c2-0.4,3.4-2.3,3.1-4.3s-2.2-3.4-4.3-3.1l0,0c0,0,0,0,0,0c0,0,0,0,0,0v0c-2,0.4-3.4,2.3-3,4.3C25.9,28.2,27.8,29.6,29.8,29.3
	L29.8,29.3z"/>
<path class="st0" d="M43.6,51.5l-7.3-7.4c-0.5-0.6-1.8-9.1-1.9-9.4c-0.1-0.9,0.1-1.5,0.1-1.5s3.7-9.4,4-10.4c0.4-1,0.3-1.7-0.4-2.2
	C37.5,20,36.3,20,36,20.9l-3.9,9.4c0,0-1-0.4-2.1-0.2c0,0,0,0,0,0c0,0,0,0,0,0C28.8,30.3,28,31,28,31l-6.7-7.7
	c-0.8-0.8-1.7-0.4-2.2,0.4c-0.5,0.7-0.2,1.5,0.4,2.2s7.2,8.6,7.2,8.6s0.4,0.5,0.6,1.4c0,0.1,0,0.1,1.4,8.7l0.9,14.5
	c0.1,0.9,0.8,1.7,1.8,1.7c0,0,0.1,0,0.1,0c1-0.1,1.7-0.9,1.7-1.9c0,0-0.9-12.6-0.9-13.1c0-0.3,0.3-0.4,0.6-0.1
	c0.3,0.3,8.3,8.4,8.3,8.4c0.7,0.7,1.8,0.7,2.5,0C44.3,53.3,44.3,52.2,43.6,51.5L43.6,51.5z"/>
<path class="st0" d="M51.8,32.8L51.8,32.8C51.8,32.8,51.8,32.8,51.8,32.8C51.8,32.8,51.9,32.8,51.8,32.8L51.8,32.8
	C51.9,32.8,51.9,32.8,51.8,32.8C51.9,32.8,51.9,32.8,51.8,32.8L51.8,32.8C51.9,32.8,51.9,32.8,51.8,32.8
	C51.9,32.8,51.9,32.8,51.8,32.8L51.8,32.8c1.6,0.5,3.2-0.3,3.8-1.8c0.5-1.5-0.3-3.2-1.8-3.7l0,0c0,0,0,0,0,0c0,0,0,0,0,0v0
	c0,0,0,0,0,0c0,0,0,0,0,0l0,0c0,0,0,0,0,0c0,0,0,0,0,0l0,0c-1.5-0.5-3.2,0.3-3.7,1.8C49.6,30.6,50.3,32.2,51.8,32.8L51.8,32.8z"/>
<path class="st0" d="M63.9,34c-0.2-0.7-0.8-1-2-0.7l-8.8,0.9c0,0-0.4-0.5-1.5-0.9S50,33.1,50,33.1L43.7,27c-0.8-0.9-1.5-1.1-2-0.6
	c-0.6,0.5-0.8,1.3-0.4,1.8c0.6,0.7,6.3,6.5,6.5,6.9c0.2,0.3,0.1,0.5-0.1,1.1c-0.1,0.3-1.6,4.5-2.2,6.1l-7.5,5.1
	c-0.7,0.4-0.8,1.3-0.4,2c0.4,0.7,1.3,0.8,2,0.4c0,0,7.9-5.3,8.1-5.5c0.2-0.1,0.4-0.1,0.4,0.2c-0.1,0.3-3.4,10.7-3.4,10.7
	c-0.2,0.8,0.2,1.6,0.9,1.8c0.1,0,0.3,0.1,0.4,0.1c0.6,0,1.2-0.4,1.4-1l3.7-11.8c0,0,0-0.1,0-0.1c2.1-6.2,2.1-6.2,2.1-6
	c0.2-0.7,0.3-0.8,0.6-1c0.4-0.1,8.4-1.3,9.3-1.5C63.7,35.5,64.1,34.8,63.9,34L63.9,34z"/>
</svg>
