<?xml version="1.0" encoding="utf-8"?>
<!-- Generator: Adobe Illustrator 19.2.1, SVG Export Plug-In . SVG Version: 6.00 Build 0)  -->
<svg version="1.1" id="Layer_1" xmlns="http://www.w3.org/2000/svg" xmlns:xlink="http://www.w3.org/1999/xlink" x="0px" y="0px"
	 viewBox="0 0 80 80" style="enable-background:new 0 0 80 80;" xml:space="preserve">
<style type="text/css">
	.st0{fill:#FFFFFF;}
</style>
<path class="st0" d="M34.1,40.5c0-0.4,0.1-0.8,0.1-1.2c0.1-0.9,0.3-1.9,0.5-2.8c0.1-0.5,0.3-0.9,0.4-1.4c0.2-0.4,0.4-0.9,0.5-1.3
	c0.4-0.8,0.9-1.6,1.4-2.2c0.1-0.2,0.3-0.3,0.4-0.5c0.1-0.1,0.3-0.3,0.4-0.4c0.3-0.3,0.5-0.6,0.8-0.8c0.6-0.4,1.1-0.8,1.6-1.1
	c0.5-0.3,0.9-0.5,1.3-0.7c0.8-0.3,1.2-0.5,1.2-0.5s-0.4,0.3-1,0.8c-0.3,0.2-0.7,0.6-1.1,0.9c-0.4,0.3-0.8,0.8-1.3,1.3
	c-0.2,0.2-0.4,0.5-0.6,0.8c-0.1,0.1-0.2,0.3-0.3,0.4c-0.1,0.2-0.2,0.3-0.3,0.5c-0.4,0.6-0.7,1.3-1.1,2.1c-0.1,0.4-0.3,0.8-0.4,1.2
	c-0.1,0.4-0.2,0.8-0.3,1.2c-0.2,0.9-0.3,1.7-0.4,2.6c0,0.3-0.1,0.7-0.1,1c7.1,0,12.6,0,20.2,0c0-0.3,0-0.7,0-1
	c0-6.5-4.7-11.8-10.8-12.5c0.4-0.4,0.6-0.9,0.6-1.5c0-1.1-0.9-2-2-2c-1.1,0-2,0.9-2,2c0,0.6,0.2,1.1,0.6,1.5
	c-6.1,0.7-10.8,6-10.8,12.5c0,0.3,0,0.7,0,1L34.1,40.5L34.1,40.5z"/>
<rect x="29.7" y="41.2" class="st0" width="28.7" height="2.5"/>
<path class="st0" d="M46.6,45.5c-1.5,0.7-6.5,2.5-6.5,2.5l-6-0.4c0,0,3.4-1,4.8-1.3c1.3-0.3,0.8-1.8,0-1.8c-0.7,0-7.2,0.3-7.2,0.3
	l-4.3,1.5l1.1,7.2c0,0,0.9-1.5,1.8-1.5s8.5,0.2,9.5,0c1-0.2,7.3-4.5,8.1-5C48.7,46.6,48,44.8,46.6,45.5L46.6,45.5z"/>
<path class="st0" d="M21.6,47.2v9.3l6.5-1.2l-1.6-8.9L21.6,47.2z"/>
</svg>
