<?xml version="1.0" encoding="utf-8"?>
<!-- Generator: Adobe Illustrator 15.1.0, SVG Export Plug-In  -->
<!DOCTYPE svg PUBLIC "-//W3C//DTD SVG 1.1//EN" "http://www.w3.org/Graphics/SVG/1.1/DTD/svg11.dtd" [
	<!ENTITY ns_flows "http://ns.adobe.com/Flows/1.0/">
]>
<svg version="1.1"
	 xmlns="http://www.w3.org/2000/svg" xmlns:xlink="http://www.w3.org/1999/xlink" xmlns:a="http://ns.adobe.com/AdobeSVGViewerExtensions/3.0/"
	 x="0px" y="0px" width="90px" height="90px" viewBox="-1.956 -1.957 90 90" enable-background="new -1.956 -1.957 90 90"
	 xml:space="preserve">
<defs>
</defs>
<path fill="#A2C440" d="M86.089,43.043c0,23.772-19.271,43.044-43.043,43.044C19.271,86.087,0,66.815,0,43.043S19.271,0,43.045,0
	C66.817,0,86.089,19.271,86.089,43.043"/>
<path fill="#82A41E" d="M24.651,62.741l23.077,23.091c20.019-2.168,35.919-18.057,38.101-38.07L62.741,24.66L24.651,62.741z"/>
<path fill="#FFFFFF" d="M28.878,39.666c0-0.539-0.068-1.023-0.205-1.449c-0.138-0.427-0.332-0.789-0.585-1.087
	c-0.254-0.296-0.562-0.524-0.925-0.68c-0.365-0.157-0.776-0.235-1.236-0.235c-0.533,0-1.04,0.124-1.521,0.37
	c-0.482,0.249-0.908,0.591-1.282,1.03c-0.226,0.267-0.426,0.575-0.6,0.922c-0.174,0.346-0.321,0.713-0.44,1.101
	c-0.12,0.386-0.213,0.78-0.275,1.186c-0.064,0.401-0.096,0.802-0.096,1.195c0,0.54,0.069,1.024,0.206,1.45
	c0.137,0.426,0.332,0.785,0.586,1.076c0.253,0.289,0.559,0.513,0.916,0.665c0.356,0.153,0.755,0.229,1.195,0.229
	c0.547,0,1.069-0.12,1.566-0.36c0.496-0.24,0.932-0.597,1.306-1.07c0.232-0.279,0.436-0.595,0.61-0.946
	c0.173-0.349,0.316-0.715,0.43-1.095s0.2-0.766,0.26-1.162C28.848,40.414,28.878,40.033,28.878,39.666 M32.299,39.557
	c0,0.574-0.05,1.152-0.15,1.73c-0.1,0.58-0.247,1.142-0.445,1.687c-0.196,0.543-0.444,1.067-0.741,1.564
	c-0.296,0.501-0.64,0.96-1.034,1.372c-0.333,0.354-0.698,0.674-1.091,0.959c-0.394,0.287-0.821,0.532-1.285,0.73
	c-0.465,0.201-0.965,0.354-1.507,0.467c-0.541,0.109-1.123,0.164-1.75,0.164c-0.948,0-1.792-0.156-2.536-0.471
	c-0.745-0.313-1.373-0.743-1.886-1.295c-0.514-0.55-0.905-1.201-1.175-1.956c-0.27-0.753-0.406-1.571-0.406-2.451
	c0-0.62,0.054-1.231,0.159-1.837c0.107-0.602,0.27-1.181,0.487-1.738c0.217-0.559,0.485-1.088,0.811-1.592
	c0.324-0.503,0.698-0.967,1.125-1.385c0.333-0.32,0.694-0.61,1.08-0.866c0.387-0.257,0.804-0.479,1.251-0.666
	c0.446-0.186,0.926-0.331,1.44-0.431c0.514-0.101,1.063-0.15,1.651-0.15c0.886,0,1.699,0.143,2.436,0.422
	c0.738,0.279,1.369,0.686,1.896,1.215c0.527,0.531,0.938,1.178,1.23,1.941C32.152,37.734,32.299,38.597,32.299,39.557"/>
<path fill="#FFFFFF" d="M39.617,41.838c0-0.28-0.033-0.538-0.101-0.775c-0.066-0.236-0.164-0.441-0.294-0.609
	c-0.131-0.172-0.289-0.305-0.476-0.402c-0.187-0.095-0.404-0.144-0.651-0.144c-0.419,0-0.794,0.12-1.125,0.36
	c-0.329,0.24-0.609,0.55-0.835,0.931c-0.227,0.38-0.399,0.806-0.521,1.28c-0.121,0.473-0.18,0.947-0.18,1.42
	c0,0.607,0.142,1.077,0.426,1.413c0.284,0.331,0.651,0.498,1.105,0.498c0.433,0,0.816-0.116,1.145-0.351
	c0.331-0.233,0.607-0.538,0.83-0.914c0.224-0.379,0.393-0.801,0.506-1.276C39.561,42.795,39.617,42.318,39.617,41.838
	 M42.809,41.798c0,0.474-0.047,0.96-0.141,1.46c-0.093,0.5-0.239,0.99-0.439,1.466c-0.2,0.478-0.458,0.931-0.775,1.356
	c-0.317,0.426-0.699,0.799-1.151,1.115c-0.449,0.316-0.97,0.568-1.559,0.755c-0.591,0.188-1.264,0.281-2.017,0.281
	c-0.761,0-1.423-0.11-1.987-0.332c-0.563-0.219-1.027-0.522-1.396-0.909c-0.367-0.387-0.64-0.845-0.819-1.377
	c-0.181-0.529-0.27-1.101-0.27-1.715c0-0.493,0.049-0.994,0.15-1.506c0.1-0.51,0.253-1.001,0.464-1.475
	c0.21-0.474,0.478-0.918,0.805-1.336c0.328-0.418,0.718-0.78,1.171-1.091c0.454-0.311,0.971-0.555,1.557-0.736
	c0.583-0.179,1.239-0.27,1.964-0.27c0.714,0,1.347,0.103,1.897,0.306c0.549,0.203,1.014,0.494,1.391,0.869
	c0.377,0.378,0.664,0.832,0.861,1.36C42.71,40.553,42.809,41.145,42.809,41.798"/>
<path fill="#FFFFFF" d="M50.601,41.648c0-0.235-0.021-0.456-0.065-0.664c-0.042-0.213-0.119-0.398-0.225-0.557
	c-0.105-0.16-0.244-0.287-0.414-0.381s-0.383-0.14-0.637-0.14c-0.373,0-0.709,0.107-1.01,0.325c-0.301,0.216-0.564,0.498-0.791,0.84
	c-0.226,0.343-0.417,0.728-0.575,1.151c-0.156,0.425-0.278,0.845-0.365,1.265l-0.53,2.341c0.081,0.028,0.175,0.051,0.285,0.069
	c0.11,0.022,0.222,0.04,0.341,0.057c0.116,0.016,0.23,0.03,0.345,0.041c0.112,0.008,0.213,0.014,0.299,0.014
	c0.495,0,0.945-0.123,1.355-0.366c0.412-0.243,0.762-0.565,1.056-0.97c0.294-0.404,0.522-0.868,0.686-1.395
	C50.52,42.752,50.601,42.209,50.601,41.648 M53.772,41.277c0,0.561-0.06,1.122-0.18,1.686c-0.12,0.563-0.298,1.104-0.535,1.621
	c-0.237,0.518-0.536,0.996-0.896,1.44c-0.36,0.443-0.781,0.829-1.26,1.155c-0.482,0.328-1.022,0.586-1.627,0.772
	c-0.603,0.186-1.27,0.278-1.995,0.278c-0.267,0-0.561-0.02-0.882-0.059c-0.32-0.04-0.592-0.091-0.819-0.149l-1.012,4.672h-3.191
	l2.461-11.576c0.042-0.209,0.087-0.464,0.142-0.765c0.054-0.305,0.104-0.617,0.149-0.936c0.047-0.32,0.091-0.632,0.13-0.932
	c0.04-0.301,0.064-0.552,0.07-0.75h3.111c-0.006,0.1-0.017,0.229-0.031,0.385c-0.012,0.158-0.028,0.318-0.048,0.485
	c-0.021,0.167-0.042,0.328-0.065,0.485c-0.025,0.156-0.043,0.285-0.056,0.385h0.041c0.187-0.281,0.396-0.541,0.63-0.781
	c0.232-0.238,0.492-0.449,0.774-0.631c0.284-0.179,0.593-0.321,0.931-0.424c0.337-0.104,0.698-0.155,1.086-0.155
	c0.454,0,0.869,0.085,1.245,0.251c0.378,0.165,0.702,0.412,0.972,0.734c0.269,0.324,0.48,0.72,0.63,1.191
	C53.697,40.133,53.772,40.67,53.772,41.277"/>
<path fill="#FFFFFF" d="M61.268,40.297c-0.139-0.072-0.304-0.148-0.49-0.221c-0.186-0.073-0.386-0.139-0.595-0.201
	c-0.209-0.059-0.425-0.109-0.645-0.148c-0.221-0.04-0.433-0.061-0.642-0.061c-0.485,0-0.835,0.094-1.044,0.281
	c-0.21,0.186-0.316,0.413-0.316,0.68c0,0.273,0.103,0.498,0.311,0.671c0.206,0.172,0.48,0.346,0.82,0.521
	c0.4,0.192,0.75,0.386,1.051,0.58c0.3,0.191,0.549,0.406,0.75,0.639c0.199,0.234,0.349,0.497,0.449,0.788
	c0.1,0.289,0.15,0.622,0.15,1.004c0,0.407-0.083,0.813-0.25,1.222c-0.166,0.406-0.436,0.771-0.81,1.095
	c-0.374,0.323-0.865,0.586-1.476,0.784c-0.611,0.202-1.359,0.301-2.247,0.301c-0.253,0-0.523-0.014-0.81-0.039
	c-0.287-0.027-0.569-0.063-0.851-0.11c-0.279-0.048-0.548-0.104-0.804-0.171c-0.259-0.067-0.486-0.139-0.687-0.219l0.47-2.412
	c0.173,0.094,0.374,0.186,0.601,0.281c0.228,0.092,0.47,0.177,0.726,0.255c0.256,0.075,0.522,0.14,0.795,0.188
	c0.273,0.051,0.544,0.075,0.811,0.075c0.5,0,0.872-0.087,1.115-0.26c0.242-0.173,0.365-0.409,0.365-0.71
	c0-0.254-0.094-0.477-0.281-0.666c-0.187-0.189-0.51-0.391-0.97-0.604c-0.379-0.181-0.715-0.368-1.005-0.561
	c-0.29-0.195-0.536-0.406-0.734-0.641c-0.201-0.234-0.351-0.494-0.452-0.781c-0.1-0.287-0.15-0.609-0.15-0.971
	c0-0.381,0.076-0.772,0.226-1.175c0.149-0.404,0.398-0.771,0.744-1.102c0.348-0.33,0.807-0.599,1.376-0.811
	c0.571-0.209,1.272-0.314,2.105-0.314c0.254,0,0.514,0.012,0.781,0.036c0.267,0.021,0.527,0.055,0.78,0.094
	c0.254,0.041,0.493,0.087,0.719,0.142c0.229,0.053,0.429,0.104,0.602,0.159L61.268,40.297z"/>
<path fill="#FFFFFF" d="M65.315,43.52h-2.562l1.722-9.886h3.321L65.315,43.52z M65.336,46.48c0,0.26-0.05,0.494-0.151,0.705
	c-0.1,0.21-0.234,0.393-0.406,0.546c-0.169,0.153-0.37,0.271-0.604,0.354c-0.234,0.082-0.484,0.125-0.75,0.125
	c-0.254,0-0.489-0.041-0.706-0.119c-0.217-0.08-0.405-0.191-0.564-0.332c-0.159-0.138-0.286-0.305-0.375-0.494
	s-0.135-0.395-0.135-0.616c0-0.259,0.05-0.497,0.151-0.715c0.1-0.217,0.236-0.4,0.41-0.552c0.173-0.147,0.376-0.265,0.61-0.349
	c0.233-0.083,0.486-0.123,0.76-0.123c0.255,0,0.486,0.038,0.701,0.119c0.213,0.079,0.398,0.189,0.555,0.329
	c0.158,0.139,0.28,0.307,0.37,0.496C65.29,46.044,65.336,46.254,65.336,46.48"/>
<polygon fill="#FFFFFF" points="62.741,24.672 24.673,62.74 23.33,61.434 61.416,23.346 "/>
<polygon fill="#FFFFFF" points="61.415,62.758 23.348,24.689 24.655,23.347 62.741,61.434 "/>
</svg>
