<?xml version="1.0" encoding="utf-8"?>
<!-- Generator: Adobe Illustrator 15.1.0, SVG Export Plug-In  -->
<!DOCTYPE svg PUBLIC "-//W3C//DTD SVG 1.1//EN" "http://www.w3.org/Graphics/SVG/1.1/DTD/svg11.dtd" [
	<!ENTITY ns_flows "http://ns.adobe.com/Flows/1.0/">
]>
<svg version="1.1"
	 xmlns="http://www.w3.org/2000/svg" xmlns:xlink="http://www.w3.org/1999/xlink" xmlns:a="http://ns.adobe.com/AdobeSVGViewerExtensions/3.0/"
	 x="0px" y="0px" width="90px" height="90px" viewBox="-1.956 -1.957 90 90" enable-background="new -1.956 -1.957 90 90"
	 xml:space="preserve">
<defs>
</defs>
<path fill="#A2C440" d="M86.088,43.043c0,23.771-19.271,43.044-43.043,43.044C19.271,86.087,0,66.814,0,43.043
	C0,19.27,19.271,0,43.044,0C66.817,0,86.088,19.27,86.088,43.043"/>
<path fill="#82A41E" d="M52.654,85.01c14.562-3.322,26.313-14.027,31.105-27.968L57.927,31.213l-0.661,8.219l-0.267,20.486
	l-28.745,0.691L52.654,85.01z"/>
<path fill="#FFFFFF" d="M35,32.796h1.388c0.566,0,1.028-0.461,1.028-1.028V25.58c0-0.566-0.461-1.026-1.028-1.026H35
	c-0.568,0-1.028,0.46-1.028,1.026v6.188C33.972,32.335,34.432,32.796,35,32.796"/>
<path fill="#FFFFFF" d="M49.489,32.796h1.388c0.566,0,1.026-0.461,1.026-1.028V25.58c0-0.566-0.46-1.026-1.026-1.026h-1.388
	c-0.568,0-1.028,0.46-1.028,1.026v6.188C48.461,32.335,48.921,32.796,49.489,32.796"/>
<path fill="#FFFFFF" d="M55.645,58.147c0,0.568-0.461,1.027-1.028,1.027H31.47c-0.566,0-1.027-0.459-1.027-1.027V38.318h25.202
	V58.147z M55.645,30.168h-1.688v1.6c0,1.7-1.382,3.081-3.082,3.081h-1.386c-1.698,0-3.08-1.381-3.08-3.081v-1.6h-6.941v1.6
	c0,1.7-1.382,3.081-3.08,3.081H35c-1.697,0-3.08-1.381-3.08-3.081v-1.6h-1.477c-1.7,0-3.081,1.379-3.081,3.082v25.2
	c0,1.703,1.381,3.081,3.081,3.081h25.202c1.701,0,3.08-1.378,3.08-3.081v-25.2C58.725,31.547,57.346,30.168,55.645,30.168"/>
<path fill="#FFFFFF" d="M40.807,54.402c0.291,0.398,0.744,0.644,1.237,0.666c0.027,0.002,0.052,0.004,0.08,0.004
	c0.463,0,0.904-0.197,1.215-0.543l8.06-9.012c0.601-0.672,0.542-1.701-0.129-2.303c-0.67-0.6-1.699-0.541-2.3,0.131l-6.716,7.506
	l-2.842-3.894c-0.531-0.728-1.551-0.888-2.277-0.357c-0.729,0.532-0.887,1.55-0.358,2.277L40.807,54.402z"/>
</svg>
