<?xml version="1.0" encoding="utf-8"?>
<!-- Generator: Adobe Illustrator 15.1.0, SVG Export Plug-In  -->
<!DOCTYPE svg PUBLIC "-//W3C//DTD SVG 1.1//EN" "http://www.w3.org/Graphics/SVG/1.1/DTD/svg11.dtd" [
	<!ENTITY ns_flows "http://ns.adobe.com/Flows/1.0/">
]>
<svg version="1.1"
	 xmlns="http://www.w3.org/2000/svg" xmlns:xlink="http://www.w3.org/1999/xlink" xmlns:a="http://ns.adobe.com/AdobeSVGViewerExtensions/3.0/"
	 x="0px" y="0px" width="90px" height="90px" viewBox="-1.956 -1.957 90 90" enable-background="new -1.956 -1.957 90 90"
	 xml:space="preserve">
<defs>
</defs>
<path fill="#A2C440" d="M86.089,43.043c0,23.773-19.272,43.042-43.044,43.042C19.271,86.085,0,66.816,0,43.043S19.271,0,43.045,0
	C66.817,0,86.089,19.27,86.089,43.043"/>
<path fill="#82A41E" d="M57.839,24.053l-1.012,1.067c5.368,4.136,8.829,10.624,8.829,17.923c0,12.487-10.124,22.611-22.611,22.611
	c-6.868,0-13.016-3.065-17.162-7.898l-1.019,1.074l26.457,26.459c17.083-3.327,30.552-16.755,33.939-33.816L57.839,24.053z"/>
<path fill="#FFFFFF" d="M39.635,36.245c0,2.079-1.686,3.763-3.765,3.763c-2.078,0-3.762-1.684-3.762-3.763s1.685-3.764,3.762-3.764
	C37.949,32.481,39.635,34.166,39.635,36.245"/>
<path fill="#FFFFFF" d="M53.408,36.245c0,2.079-1.684,3.763-3.765,3.763c-2.078,0-3.763-1.684-3.763-3.763s1.685-3.764,3.763-3.764
	C51.724,32.481,53.408,34.166,53.408,36.245"/>
<path fill="#FFFFFF" d="M53.131,45.597c-2.637,2.478-6.184,3.999-10.086,3.999c-3.903,0-7.449-1.521-10.085-3.999l-1.654,2.175
	c2.69,3.543,6.948,5.832,11.739,5.832c4.792,0,9.048-2.289,11.738-5.832L53.131,45.597z"/>
<path fill="#FFFFFF" d="M43.045,21.771c-11.73,0-21.273,9.541-21.273,21.271s9.542,21.273,21.273,21.273
	c11.729,0,21.272-9.543,21.272-21.273S54.774,21.771,43.045,21.771 M43.045,66.993c-13.208,0-23.951-10.745-23.951-23.95
	c0-13.206,10.744-23.95,23.951-23.95c13.206,0,23.95,10.744,23.95,23.95C66.995,56.248,56.251,66.993,43.045,66.993"/>
</svg>
