<?xml version="1.0" encoding="utf-8"?>
<!-- Generator: Adobe Illustrator 15.1.0, SVG Export Plug-In  -->
<!DOCTYPE svg PUBLIC "-//W3C//DTD SVG 1.1//EN" "http://www.w3.org/Graphics/SVG/1.1/DTD/svg11.dtd" [
	<!ENTITY ns_flows "http://ns.adobe.com/Flows/1.0/">
]>
<svg version="1.1"
	 xmlns="http://www.w3.org/2000/svg" xmlns:xlink="http://www.w3.org/1999/xlink" xmlns:a="http://ns.adobe.com/AdobeSVGViewerExtensions/3.0/"
	 x="0px" y="0px" width="90px" height="90px" viewBox="-1.955 -1.957 90 90" enable-background="new -1.955 -1.957 90 90"
	 xml:space="preserve">
<defs>
</defs>
<path fill="#A2C440" d="M86.089,43.043c0,23.772-19.272,43.044-43.045,43.044S0,66.815,0,43.043S19.272,0,43.044,0
	S86.089,19.271,86.089,43.043"/>
<path fill="#82A41E" d="M82.768,59.648l-34.18-34.18l2.267,13.008l-10.736,4.566L29.528,59.444l25.072,25.071
	C67.354,80.97,77.723,71.701,82.768,59.648"/>
<path fill="#FFFFFF" d="M49.147,38.434H36.941v-5.013c0-3.363,2.742-6.105,6.105-6.105c3.365,0,6.101,2.742,6.101,6.105V38.434z
	 M44.187,49.322v4.834c0,0.629-0.513,1.137-1.141,1.137c-0.627,0-1.14-0.508-1.14-1.137v-4.834c-0.571-0.376-0.955-1.02-0.955-1.753
	c0-1.159,0.939-2.099,2.095-2.099c1.158,0,2.096,0.939,2.096,2.099C45.142,48.303,44.761,48.946,44.187,49.322 M53.688,38.434h-0.99
	v-5.013c0-5.321-4.329-9.65-9.651-9.65c-5.319,0-9.65,4.329-9.65,9.65v5.013h-0.994c-1.585,0-2.874,1.283-2.874,2.872v18.139
	c0,1.589,1.288,2.872,2.874,2.872h21.286c1.588,0,2.873-1.283,2.873-2.872V41.306C56.56,39.717,55.275,38.434,53.688,38.434"/>
</svg>
