<?xml version="1.0" encoding="utf-8"?>
<!-- Generator: Adobe Illustrator 15.1.0, SVG Export Plug-In  -->
<!DOCTYPE svg PUBLIC "-//W3C//DTD SVG 1.1//EN" "http://www.w3.org/Graphics/SVG/1.1/DTD/svg11.dtd" [
	<!ENTITY ns_flows "http://ns.adobe.com/Flows/1.0/">
]>
<svg version="1.1"
	 xmlns="http://www.w3.org/2000/svg" xmlns:xlink="http://www.w3.org/1999/xlink" xmlns:a="http://ns.adobe.com/AdobeSVGViewerExtensions/3.0/"
	 x="0px" y="0px" width="90px" height="90px" viewBox="-1.956 -1.956 90 90" enable-background="new -1.956 -1.956 90 90"
	 xml:space="preserve">
<defs>
</defs>
<path fill="#A2C440" d="M86.088,43.043c0,23.772-19.271,43.045-43.043,43.045C19.271,86.088,0,66.815,0,43.043S19.271,0,43.044,0
	C66.817,0,86.088,19.271,86.088,43.043"/>
<path fill="#82A41E" d="M35.329,61.525c0,0,12.493,13.019,21.685,22.242c11.525-3.953,20.841-12.658,25.606-23.778L57.843,35.211
	l2.523,12.513l-6.425,13.278L35.329,61.525z"/>
<path fill="#FFFFFF" d="M45.207,55.057h-0.349c-0.282,0-0.511,0.23-0.511,0.511v2.345c0,0.285,0.229,0.514,0.511,0.514h0.349
	c0.282,0,0.513-0.229,0.513-0.514v-2.345C45.72,55.287,45.488,55.057,45.207,55.057"/>
<path fill="#FFFFFF" d="M36.5,46.35h-2.344c-0.282,0-0.511,0.23-0.511,0.512v0.35c0,0.282,0.229,0.513,0.511,0.513H36.5
	c0.283,0,0.514-0.23,0.514-0.513v-0.35C37.014,46.58,36.783,46.35,36.5,46.35"/>
<path fill="#FFFFFF" d="M45.033,35.647h-0.002v11.388l9.685,5.972c1.074-1.737,1.704-3.778,1.704-5.972
	C56.42,40.748,51.324,35.647,45.033,35.647"/>
<path fill="#FFFFFF" d="M45.034,60.234c-7.292,0-13.199-5.908-13.199-13.198c0-7.288,5.907-13.197,13.199-13.197
	c7.287,0,13.195,5.909,13.195,13.197C58.229,54.326,52.321,60.234,45.034,60.234 M47.122,29.732v-3.63h3.076
	c0.283,0,0.511-0.229,0.511-0.513v-3.469c0-0.282-0.229-0.512-0.511-0.512H39.866c-0.282,0-0.511,0.229-0.511,0.512v3.469
	c0,0.283,0.229,0.513,0.511,0.513h3.076v3.632c-1.835,0.22-3.58,0.727-5.191,1.471l0.004-0.021c0,0-4.671,1.72-7.791-2.586
	c0,0-1.125,3.493,2.432,4.242c0.688,0.063,0.75,1.872-0.999,2.059c-1.747,0.188-2.055-3.806-6.861-4.056
	c-4.806-0.248-3.494,2.433-9.111,0.063c0,0,1.12,3.694,6.487,3.999c5.369,0.307,4.057,3.301,4.057,3.301s0.314,2.185-3.243,2.185
	c-3.556,0-4.18-2.87-7.861-2.87c-3.683,0-4.868,1.685-4.868,1.685s6.427-0.499,7.112,4.117c0.188,1.811-2.12,1.749-2.12,1.749
	c-4.369-0.063-3.433-3.682-7.365-3.682c0,0-3.12,0.072-5.116,2.937c0,0,1-0.44,3.121-0.44C9.744,43.763,11.119,51,14.675,51
	c3.556,0,4.43-2.184,7.925-2.184c3.494,0,3.06,4.19,0.749,4.19s-2.183-1.259-4.056-1.259c-1.873,0-4.993,2.496-4.993,2.496
	s1.937-0.561,4.431-0.561c2.495,0,2.87,3.057,6.427,3.057c1.863,0,3.47-0.663,4.595-1.301c2.967,5.385,8.697,9.037,15.282,9.037
	c9.63,0,17.438-7.807,17.438-17.44C62.472,38.115,55.767,30.768,47.122,29.732"/>
</svg>
