<?xml version="1.0" encoding="utf-8"?>
<!-- Generator: Adobe Illustrator 19.0.0, SVG Export Plug-In . SVG Version: 6.00 Build 0)  -->
<svg version="1.0" id="Layer_1" xmlns="http://www.w3.org/2000/svg" xmlns:xlink="http://www.w3.org/1999/xlink" x="0px" y="0px"
	 viewBox="0 0 185 170" style="enable-background:new 0 0 185 170;" xml:space="preserve">
<style type="text/css">
	.st0{fill-rule:evenodd;clip-rule:evenodd;fill:#80A9D9;}
	.st1{fill-rule:evenodd;clip-rule:evenodd;fill:#A25742;}
	.st2{fill-rule:evenodd;clip-rule:evenodd;fill:#57C4CF;}
	.st3{fill-rule:evenodd;clip-rule:evenodd;fill:#F9B16D;}
	.st4{fill-rule:evenodd;clip-rule:evenodd;fill:#4F1211;}
	.st5{fill-rule:evenodd;clip-rule:evenodd;fill:#414142;}
	.st6{fill-rule:evenodd;clip-rule:evenodd;fill:#A68A6C;}
	.st7{fill-rule:evenodd;clip-rule:evenodd;fill:#231F20;}
	.st8{fill:#414142;}
	.st9{fill-rule:evenodd;clip-rule:evenodd;fill:#CCE6D2;}
	.st10{fill-rule:evenodd;clip-rule:evenodd;fill:#FEFAD6;}
	.st11{fill-rule:evenodd;clip-rule:evenodd;fill:#95D4D1;}
	.st12{fill:#231F20;}
	.st13{fill-rule:evenodd;clip-rule:evenodd;fill:#595A5C;}
	.st14{fill-rule:evenodd;clip-rule:evenodd;fill:#384639;}
	.st15{fill-rule:evenodd;clip-rule:evenodd;fill:#C6E8F9;}
	.st16{fill-rule:evenodd;clip-rule:evenodd;fill:#FFFFFF;}
</style>
<g id="XMLID_73_">
	<path id="XMLID_71_" class="st0" d="M115.8,43c0,0.8,0,1.7,0,2.5c-1.6-0.2-3.6,0.3-5.3,0c-0.7-0.1-1.4-0.5-2.2-0.8
		c-11.1-4-22-8.1-33.1-12.2C64,36.5,53,40.7,41.7,44.7c-0.7,0.3-1.5,0.7-2.2,0.8c-1.7,0.3-3.7-0.2-5.3,0c0-0.8,0-1.6,0-2.4
		c13.6-5.2,27.3-10.3,40.7-15.5c0.6-0.2,2,0.6,2.8,0.9C90.3,33.2,103.3,38.3,115.8,43"/>
	<path id="XMLID_70_" class="st0" d="M105.9,45.4c-1.5,0.1-3,0.1-4.5,0.1c-1.5,0-3.1,0.2-4.6,0c-0.8-0.1-1.8-0.6-2.7-0.9
		c-6.3-2.1-12.5-4.2-18.8-6.4c-7.6,2.4-15.1,4.9-22.7,7.3c-3,0-6,0-9,0c10.5-3.8,21.1-7.4,31.5-11.2C85.5,37.9,95.6,41.8,105.9,45.4
		"/>
	<path id="XMLID_69_" class="st0" d="M34.2,47.5c27.2,0,54.4,0,81.6,0c0,1.5,0,3,0,4.5c-27.2,0-54.4,0-81.7,0c0-1.4,0-2.9,0-4.3
		C34.2,47.6,34.2,47.5,34.2,47.5"/>
	<path id="XMLID_68_" class="st0" d="M36.9,54.1c1.1,0,2.1,0,3.2,0c0,10,0,20.1,0,30.3c0,1.2-0.3,3.3,1,3.3c1.2,0,0.9-2.1,0.9-3.5
		c0-10,0-20.2,0-30.1c1.1,0,2.1,0,3.2,0c0,9.8,0,20.1,0,30c0,1.3,0.2,3.1-0.1,4.2c-0.5,2.2-3.8,3.4-6.3,2.3
		c-1.9-0.8-1.9-2.5-1.9-5.5c0-10.3,0-20.6,0-30.8C36.8,54.3,36.8,54.2,36.9,54.1"/>
	<path id="XMLID_67_" class="st0" d="M50.5,54.1c0.9,0,1.7,0,2.6,0C54,58,54.6,62,55.5,65.8c0.1-3.8,0-7.8,0.1-11.6
		c0.9,0,1.8,0,2.7,0c0,12.3,0,24.6,0,36.9c-0.8,0-1.7,0-2.6,0c-0.9-4.3-1.9-8.5-2.8-12.8c-0.1,4.2,0,8.6-0.1,12.8
		c-0.8,0-1.6,0-2.4,0c0-12.3,0-24.6,0-36.8C50.4,54.2,50.4,54.2,50.5,54.1"/>
	<path id="XMLID_66_" class="st0" d="M64,54.1c2.7,0,5.5,0,8.2,0c0,1,0,2.1,0,3.1c-1.6,0-3.3,0-4.9,0c0,4.5,0,8.9,0,13.4
		c1,0.1,2.2,0,3.2,0.1c0,1.1,0,2.2,0,3.4c-1.1,0-2.3,0-3.4,0c-0.1,4.5,0,9.2-0.1,13.7c1.5,0.1,3.2,0,4.8,0.1c0,1.1,0,2.2,0,3.3
		c-2.6,0-5.2,0-7.8,0c0-12.2,0-24.5,0-36.7C63.9,54.2,63.9,54.2,64,54.1"/>
	<path id="XMLID_65_" class="st0" d="M85.8,65.5c-1,0-2.1,0-3.1,0c0-0.9,0-2.3,0-3.7c0-1.7,0.4-4.4-1-4.4c-0.5,0-0.7,0.3-1,0.6
		c0.1,2.7-0.3,5.1-0.1,7.4c0.1,1.2,0.7,2.4,1.1,3.5c0.8,2.3,1.7,4.3,2.6,6.7c0.4,1.2,1,2.4,1.2,3.5c0.2,1.5,0,3.2,0,4.8
		c0,1.6,0,3.2,0,4.8c-0.6,1.3-1.6,2.5-3.3,2.7c-2.4,0.3-4-0.8-4.7-2.5c0-3.5,0-6.9,0-10.4c0.9,0,1.9,0,2.8,0c0,2,0,3.9,0,5.9
		c0,1.1-0.4,3.4,0.7,3.7c0.3,0.1,0.9,0.1,1.2-0.2c0.4-0.5,0.2-3,0.2-4.2c0-1.3,0.2-3.1,0-4.3c-0.1-0.5-0.4-1.1-0.6-1.7
		c-1-2.9-2.1-5.3-3.1-8.4c-0.4-1.1-0.9-2.4-1-3.5c-0.2-1.3,0-2.9,0-4.5c0-1.6-0.2-3.3,0-4.5c0.5-2.7,5.4-3.6,7.4-1.6
		c0.8,0.8,0.8,1.8,0.8,3.5C85.8,61,85.8,63.2,85.8,65.5"/>
	<path id="XMLID_64_" class="st0" d="M99.4,65.3c-1.1,0-2.2,0-3.3,0c0-1.6,0-3.1,0-4.8c0-1.4,0.4-3.5-1.3-3.4
		c-1.1,0.1-0.9,1.8-0.9,3.1c0,8.2,0,16.1,0,24.3c0,1.1-0.3,3.2,0.5,3.5c1.9,0.6,1.6-2.4,1.6-4c0-2,0-3.7,0-5.6c1,0,2.1,0,3.1,0
		c0,1.5,0,3.1,0,4.7c0,1.6,0.2,3.4-0.1,4.7c-0.2,1-0.9,2-1.7,2.6c-1,0.6-2.6,1.1-4.1,0.5c-1-0.4-2-1.6-2.2-3c-0.2-1.2,0-2.6,0-3.9
		c0-7.6,0-15.5,0-23.2c0-1.3-0.2-2.8,0-3.8c0.3-1.7,2.1-2.8,3.9-2.9c2.2-0.1,4,0.9,4.4,2.5c0.3,1.2,0.1,2.9,0.1,4.3
		C99.4,62.4,99.4,63.8,99.4,65.3"/>
	<path id="XMLID_136_" class="st0" d="M107.6,60.5L107.6,60.5c0,8,0,15.9,0,23.8c0,1.5-0.2,3.2,0.5,3.5c0.6,0.3,1.2,0,1.5-0.4
		c0.3-0.4,0.2-1.1,0.2-1.8c0-8.4,0-16.1,0-24.2c0-1.5,0.4-4.4-1.3-4.1C107.3,57.6,107.6,59.1,107.6,60.5 M108.1,54.2
		c1.9-0.1,4.2,0.7,4.7,2.6c0.3,1,0.1,2.5,0.1,4c0,8.2,0,15.8,0,24.1c0,1.4,0.1,2.9-0.2,3.8c-0.7,1.9-2.9,3-5.8,2.3
		c-1.1-0.2-2-0.8-2.4-1.8c-0.3-0.8-0.2-2.6-0.2-4c0-8.3,0-16.4,0-24.7c0-1.2-0.2-3.1,0.1-4.1C104.9,54.9,106.6,54.3,108.1,54.2z"/>
	<path id="XMLID_61_" class="st0" d="M34.2,93.1c27.2,0,54.5,0,81.7,0c0,1.3,0,2.5,0,3.8c-27.2,0-54.5,0-81.7,0c0-1.2,0-2.4,0-3.6
		C34.1,93.2,34.1,93.1,34.2,93.1"/>
	<path id="XMLID_60_" class="st0" d="M120,99.5c0,1.3,0,2.6,0,3.8c-30,0-60,0-89.9,0c0.1-1.2-0.2-2.7,0.1-3.8
		C60,99.4,90.1,99.6,120,99.5"/>
	<path id="XMLID_59_" class="st0" d="M25.8,106.1c32.8,0,65.6,0,98.5,0c0,1.3,0,2.5,0,3.8c-32.8,0-65.7,0-98.5,0c0-1.2,0-2.4,0-3.6
		C25.8,106.2,25.8,106.1,25.8,106.1"/>
	<path id="XMLID_58_" class="st1" d="M36.2,78.5l-3.9-3.9c-0.6-0.6-0.9-1.3-0.9-2.2v-4.6c0-1.1,0.4-2,1.1-2.8l2-2
		c1.9-1.9,4.9-2.1,7-0.4l2,1.6c1.8,1.5,2.8,3.4,2.9,5.7c0.1,2.3-0.7,4.3-2.3,5.9L39.1,81L36.2,78.5z"/>
	<path id="XMLID_57_" class="st2" d="M30.5,94.9L30.4,85c0-0.9,0.3-1.6,0.9-2.3c0.6-0.6,1.4-0.9,2.2-0.9h9.3c2,0,3.8,1,4.8,2.7
		l6,10.4L30.5,94.9z"/>
	<path id="XMLID_56_" class="st3" d="M36.2,72.9h4.7v13.7c-2.6,0-4.7-2.1-4.7-4.7V72.9z"/>
	<path id="XMLID_55_" class="st3" d="M36.1,66.5h4.6c1.9,0,3.5,1.6,3.5,3.5v6.2c-0.3,1.1-0.9,2.2-1.8,3c-3.5,0-6.3-2.8-6.3-6.3V66.5
		z"/>
	<path id="XMLID_54_" class="st1" d="M35.2,72.5h0.3c3.5,0,6.4-2.9,6.4-6.4v-2.2h-6.7V72.5z"/>
	<path id="XMLID_53_" class="st4" d="M105.9,94.9l-0.2-11.8c0-1,0.3-2,1.1-2.7c0.7-0.7,1.6-1.1,2.7-1.1h11.1c2.4,0,4.5,1.2,5.7,3.3
		l7.2,12.5L105.9,94.9z"/>
	<path id="XMLID_52_" class="st3" d="M112.7,68.6h6.9v16.3h-1.3c-3.1,0-5.6-2.5-5.6-5.6V68.6z"/>
	<path id="XMLID_51_" class="st3" d="M115.1,62.5h1.8c2.3,0,4.2,1.9,4.2,4.2v9.1c0,1-0.8,1.9-1.9,1.9H119c-4.1,0-7.5-3.4-7.5-7.5
		v-3.9C111.5,64.1,113.1,62.5,115.1,62.5"/>
	<path id="XMLID_50_" class="st5" d="M121.1,75.4v0.3c0,1-0.8,1.9-1.9,1.9H119c-4.1,0-7.5-3.4-7.5-7.5v-1l0.2,0
		c0.5-0.1,0.9,0,1.2,0.3c0.4,0.3,0.6,0.7,0.6,1.1c0.2,2.7,2.4,4.9,5.2,4.9H121.1z"/>
	<path id="XMLID_49_" class="st6" d="M68.9,95l-0.2-14.6c0-0.9,0.3-1.6,0.9-2.3c0.6-0.6,1.4-0.9,2.2-0.9h9.3c2,0,3.8,1,4.8,2.8
		l8.6,15L68.9,95z"/>
	<path id="XMLID_48_" class="st7" d="M75.2,79.5l4.4,7.6c1.3,2.2,1.9,4.4,1.9,7v0.9h5.4v-0.9c0-2.6-0.6-4.7-1.9-7l-5.7-9.8v4.6
		c-2.6,0-4.7-2.1-4.7-4.7L75.2,79.5z"/>
	<path id="XMLID_47_" class="st3" d="M74.6,68.3h5.8v13.7h-1.1c-2.6,0-4.7-2.1-4.7-4.7V68.3z"/>
	<path id="XMLID_46_" class="st3" d="M74.5,63.2h4.6c1.9,0,3.5,1.6,3.5,3.5v7.6c0,0.9-0.7,1.6-1.6,1.6h-0.2c-3.5,0-6.3-2.8-6.3-6.3
		V63.2z"/>
	<path id="XMLID_45_" class="st4" d="M74.6,72.8l-0.2-0.2c-1.1-1.1-1.7-2.4-1.7-4v-4.7c0-1.4,1.2-2.6,2.6-2.6h7
		c0.7,0,1.3,0.6,1.3,1.3v0.3c0,0.8-0.4,1.5-1.1,1.9l-1.5,0.9c-1,0.6-2,0.9-3.1,1.1c-1.1,0.2-1.8,1.1-1.8,2.2v0.3
		c0,1.1-0.3,2.1-1.1,3L74.6,72.8z"/>
	<path id="XMLID_44_" class="st3" d="M75.1,70.2c-0.5,0-1-0.4-1-1c0-0.5,0.4-1,1-1c0.5,0,1,0.4,1,1C76.1,69.8,75.7,70.2,75.1,70.2"
		/>
	<path id="XMLID_43_" class="st3" d="M76.1,69.3c-1.2,0.3-1.8,0.4-1.8,0.4c0.4,0.8,1.2,1.3,2,1.4C76.2,69.9,76.1,69.3,76.1,69.3"/>
	<path id="XMLID_42_" class="st8" d="M120.6,75.4c0-0.3-0.1-0.6-0.2-0.9h0c-0.1-0.3-0.4-0.5-0.6-0.7l0,0c-0.3-0.2-0.6-0.2-0.9-0.2
		c-0.3,0-0.6,0.1-0.9,0.2l0,0c-0.3,0.2-0.5,0.4-0.6,0.7h0c-0.1,0.3-0.2,0.6-0.2,0.9l-1,0c0-0.5,0.1-1,0.4-1.4l0,0
		c0.2-0.4,0.6-0.8,1-1v0c0.4-0.3,0.9-0.4,1.4-0.4c0.5,0,1,0.1,1.4,0.4v0c0.3,0.2,0.6,0.5,0.9,0.8v1.7L120.6,75.4z"/>
	<rect id="XMLID_41_" x="118.1" y="74.6" class="st5" width="1.5" height="1.6"/>
	<path id="XMLID_40_" class="st3" d="M40.6,93.1v1.8h5.2c0-1-0.8-1.8-1.8-1.8H40.6z"/>
	<polygon id="XMLID_39_" class="st9" points="55.7,87.2 57.4,91.1 59.1,95 55.7,95 52.4,95 54.1,91.1 	"/>
	<polygon id="XMLID_38_" class="st10" points="55.7,87.2 71.2,87.2 74.6,95 59.1,95 	"/>
	<polygon id="XMLID_37_" class="st11" points="60.2,92.1 70.9,92.1 70.1,90.1 59.4,90.1 	"/>
	<path id="XMLID_36_" class="st3" d="M116.9,92.8v2.1h-6.2c0-1.2,1-2.1,2.2-2.1H116.9z"/>
	<path id="XMLID_35_" class="st12" d="M59.4,94.2l-1.1-3.9c-0.2-0.6-0.4-1.2-0.7-1.7c-0.3-0.5-0.7-1-1.1-1.5L52.3,83l1.1-1.1
		l4.2,4.2c0.6,0.6,1,1.1,1.4,1.8c0.4,0.6,0.6,1.3,0.9,2.1l1.1,3.9L59.4,94.2z"/>
	<path id="XMLID_34_" class="st13" d="M50.3,80c0.5-0.5,1.3-0.5,1.8,0l0.7,0.7c0.3,0.3,0.5,0.8,0.5,1.2v0.5l-0.6,0.6h-0.5
		c-0.5,0-0.9-0.2-1.2-0.5l-0.7-0.7C49.8,81.3,49.8,80.5,50.3,80"/>
	<path id="XMLID_33_" class="st5" d="M64.9,95c-6.1,0-9.1,0-9.1,0C58.5,92.9,62.2,92.9,64.9,95"/>
	<polygon id="XMLID_32_" class="st9" points="91.2,87.2 92.9,91.1 94.6,95 91.2,95 87.9,95 89.5,91.1 	"/>
	<polygon id="XMLID_31_" class="st10" points="91.2,87.2 106.7,87.2 110.1,95 94.6,95 	"/>
	<polygon id="XMLID_30_" class="st11" points="95.7,92.1 106.4,92.1 105.5,90.1 94.9,90.1 	"/>
	<polygon id="XMLID_29_" class="st9" points="130.2,87.2 131.8,91.1 133.5,95 130.2,95 126.8,95 128.5,91.1 	"/>
	<polygon id="XMLID_28_" class="st10" points="130.2,87.2 145.7,87.2 149,95 133.5,95 	"/>
	<polygon id="XMLID_27_" class="st11" points="134.7,92.1 145.3,92.1 144.5,90.1 133.8,90.1 	"/>
	<path id="XMLID_26_" class="st12" d="M98.2,94.2l-1.1-3.9c-0.2-0.6-0.4-1.2-0.7-1.7c-0.3-0.5-0.7-1-1.1-1.5L91.2,83l1.1-1.1
		l4.1,4.2h0c0.6,0.6,1,1.1,1.4,1.8c0.4,0.6,0.6,1.3,0.8,2.1l1.1,3.9L98.2,94.2z"/>
	<path id="XMLID_25_" class="st13" d="M89.2,80c0.5-0.5,1.3-0.5,1.8,0l0.7,0.7c0.3,0.3,0.5,0.8,0.5,1.2v0.5l-0.6,0.6h-0.5
		c-0.5,0-0.9-0.2-1.2-0.5l-0.7-0.7C88.7,81.3,88.7,80.5,89.2,80"/>
	<path id="XMLID_24_" class="st5" d="M103.8,95c-6.1,0-9.1,0-9.1,0C97.3,92.9,101.1,92.9,103.8,95"/>
	<path id="XMLID_23_" class="st12" d="M136.9,94.2l-1.1-3.9c-0.2-0.6-0.4-1.2-0.7-1.7v0c-0.3-0.5-0.7-1-1.1-1.5l0,0l-4.1-4.1
		l1.1-1.1l4.2,4.2l0,0c0.5,0.6,1,1.1,1.4,1.8v0c0.4,0.6,0.7,1.3,0.9,2.1l1.1,3.9L136.9,94.2z"/>
	<path id="XMLID_22_" class="st13" d="M127.8,80c0.5-0.5,1.3-0.5,1.8,0l0.7,0.7c0.3,0.3,0.5,0.8,0.5,1.2v0.5l-0.6,0.6h-0.5
		c-0.5,0-0.9-0.2-1.2-0.5l-0.7-0.7C127.3,81.3,127.3,80.5,127.8,80"/>
	<path id="XMLID_21_" class="st5" d="M142.4,95c-6.1,0-9.1,0-9.1,0C136,92.9,139.7,92.9,142.4,95"/>
	<path id="XMLID_20_" class="st3" d="M78.8,93.1v1.8H84c0-1-0.8-1.8-1.8-1.8H78.8z"/>
	<rect id="XMLID_19_" x="25.8" y="98.8" class="st14" width="26.2" height="45.5"/>
	<polygon id="XMLID_18_" class="st0" points="52,99.2 78.1,99.2 104.3,99.2 130.5,99.2 156.7,99.2 156.7,144.4 130.5,144.4 
		104.3,144.4 78.1,144.4 52,144.4 	"/>
	<rect id="XMLID_17_" x="25.8" y="95" class="st14" width="26.2" height="4.2"/>
	<rect id="XMLID_16_" x="52" y="95" class="st0" width="107" height="4.2"/>
	<rect id="XMLID_15_" x="52" y="95" class="st15" width="107" height="2.1"/>
	<rect id="XMLID_14_" x="25.8" y="99.2" class="st14" width="131" height="8.1"/>
	<path id="XMLID_13_" class="st16" d="M116.8,116.4c0,0.3,0,0.5,0,0.8c-0.5-0.1-1.1,0.1-1.6,0c-0.2,0-0.4-0.2-0.7-0.2
		c-3.4-1.2-6.7-2.5-10.1-3.7c-3.4,1.2-6.8,2.5-10.3,3.7c-0.2,0.1-0.5,0.2-0.7,0.2c-0.5,0.1-1.1-0.1-1.6,0c0-0.2,0-0.5,0-0.7
		c4.2-1.6,8.3-3.2,12.5-4.7c0.2-0.1,0.6,0.2,0.9,0.3C109,113.4,113,115,116.8,116.4"/>
	<path id="XMLID_12_" class="st16" d="M113.8,117.2c-0.5,0-0.9,0-1.4,0s-0.9,0.1-1.4,0c-0.3,0-0.6-0.2-0.8-0.3
		c-1.9-0.6-3.8-1.3-5.8-2c-2.3,0.7-4.6,1.5-6.9,2.2c-0.9,0-1.8,0-2.8,0c3.2-1.2,6.4-2.3,9.7-3.4C107.5,114.9,110.6,116,113.8,117.2"
		/>
	<path id="XMLID_11_" class="st16" d="M91.9,117.8c8.3,0,16.6,0,25,0c0,0.5,0,0.9,0,1.4c-8.3,0-16.7,0-25,0
		C91.8,118.7,91.8,118.3,91.9,117.8C91.8,117.8,91.8,117.8,91.9,117.8"/>
	<path id="XMLID_10_" class="st16" d="M92.7,119.8c0.3,0,0.6,0,1,0c0,3.1,0,6.2,0,9.3c0,0.4-0.1,1,0.3,1c0.4,0,0.3-0.7,0.3-1.1
		c0-3.1,0-6.2,0-9.2c0.3,0,0.7,0,1,0c0,3,0,6.1,0,9.2c0,0.4,0.1,0.9,0,1.3c-0.2,0.7-1.1,1-1.9,0.7c-0.6-0.3-0.6-0.8-0.6-1.7
		C92.7,126.2,92.7,123,92.7,119.8C92.7,119.9,92.6,119.8,92.7,119.8"/>
	<path id="XMLID_9_" class="st16" d="M96.8,119.8c0.3,0,0.5,0,0.8,0c0.3,1.2,0.5,2.4,0.7,3.6c0-1.1,0-2.4,0-3.6c0.3,0,0.6,0,0.8,0
		c0,3.8,0,7.5,0,11.3c-0.3,0-0.5,0-0.8,0c-0.3-1.3-0.6-2.6-0.9-3.9c0,1.3,0,2.6,0,3.9c-0.2,0-0.5,0-0.7,0
		C96.8,127.4,96.8,123.6,96.8,119.8C96.8,119.9,96.8,119.8,96.8,119.8"/>
	<path id="XMLID_8_" class="st16" d="M101,119.8c0.8,0,1.7,0,2.5,0c0,0.3,0,0.6,0,0.9c-0.5,0-1,0-1.5,0c0,1.4,0,2.7,0,4.1
		c0.3,0,0.7,0,1,0c0,0.3,0,0.7,0,1c-0.3,0-0.7,0-1,0c0,1.4,0,2.8,0,4.2c0.5,0,1,0,1.5,0c0,0.3,0,0.7,0,1c-0.8,0-1.6,0-2.4,0
		C100.9,127.4,100.9,123.6,101,119.8C100.9,119.9,100.9,119.8,101,119.8"/>
	<path id="XMLID_7_" class="st16" d="M107.6,123.3c-0.3,0-0.6,0-0.9,0c0-0.3,0-0.7,0-1.1c0-0.5,0.1-1.3-0.3-1.3
		c-0.1,0-0.2,0.1-0.3,0.2c0,0.8-0.1,1.6,0,2.3c0,0.4,0.2,0.7,0.3,1.1c0.3,0.7,0.5,1.3,0.8,2.1c0.1,0.4,0.3,0.7,0.4,1.1
		c0.1,0.5,0,1,0,1.5c0,0.5,0,1,0,1.5c-0.2,0.4-0.5,0.8-1,0.8c-0.7,0.1-1.2-0.2-1.4-0.8c0-1.1,0-2.1,0-3.2c0.3,0,0.6,0,0.9,0
		c0,0.6,0,1.2,0,1.8c0,0.3-0.1,1,0.2,1.1c0.1,0,0.3,0,0.4-0.1c0.1-0.1,0.1-0.9,0.1-1.3c0-0.4,0.1-0.9,0-1.3c0-0.2-0.1-0.3-0.2-0.5
		c-0.3-0.9-0.7-1.6-0.9-2.6c-0.1-0.3-0.3-0.7-0.3-1.1c-0.1-0.4,0-0.9,0-1.4c0-0.5-0.1-1,0-1.4c0.2-0.8,1.7-1.1,2.3-0.5
		c0.2,0.2,0.2,0.6,0.2,1.1C107.6,121.9,107.6,122.6,107.6,123.3"/>
	<path id="XMLID_6_" class="st16" d="M111.8,123.2c-0.3,0-0.7,0-1,0c0-0.5,0-1,0-1.5c0-0.4,0.1-1.1-0.4-1c-0.3,0-0.3,0.5-0.3,1
		c0,2.5,0,4.9,0,7.4c0,0.3-0.1,1,0.2,1.1c0.6,0.2,0.5-0.7,0.5-1.2c0-0.6,0-1.1,0-1.7c0.3,0,0.6,0,1,0c0,0.5,0,1,0,1.4
		c0,0.5,0.1,1,0,1.4c-0.1,0.3-0.3,0.6-0.5,0.8c-0.3,0.2-0.8,0.3-1.2,0.2c-0.3-0.1-0.6-0.5-0.7-0.9c0-0.4,0-0.8,0-1.2
		c0-2.3,0-4.7,0-7.1c0-0.4-0.1-0.9,0-1.2c0.1-0.5,0.7-0.9,1.2-0.9c0.7,0,1.2,0.3,1.4,0.8c0.1,0.4,0,0.9,0,1.3
		C111.8,122.4,111.8,122.8,111.8,123.2"/>
	<path id="XMLID_77_" class="st16" d="M114.3,121.8L114.3,121.8c0,2.4,0,4.9,0,7.3c0,0.4-0.1,1,0.2,1.1c0.2,0.1,0.4,0,0.4-0.1
		c0.1-0.1,0.1-0.3,0.1-0.5c0-2.6,0-4.9,0-7.4c0-0.4,0.1-1.3-0.4-1.2C114.2,120.9,114.3,121.4,114.3,121.8 M114.5,119.8
		c0.6,0,1.3,0.2,1.4,0.8c0.1,0.3,0,0.8,0,1.2c0,2.5,0,4.8,0,7.4c0,0.4,0,0.9,0,1.2c-0.2,0.6-0.9,0.9-1.8,0.7
		c-0.3-0.1-0.6-0.2-0.7-0.5c-0.1-0.3-0.1-0.8-0.1-1.2c0-2.5,0-5,0-7.6c0-0.4-0.1-0.9,0-1.2C113.5,120.1,114,119.9,114.5,119.8z"/>
	<path id="XMLID_3_" class="st16" d="M91.8,131.7c8.3,0,16.7,0,25,0c0,0.4,0,0.8,0,1.2c-8.3,0-16.7,0-25,0
		C91.8,132.5,91.8,132.2,91.8,131.7C91.8,131.8,91.8,131.7,91.8,131.7"/>
	<path id="XMLID_2_" class="st16" d="M118.1,133.7c0,0.4,0,0.8,0,1.2c-9.2,0-18.3,0-27.5,0c0-0.4,0-0.8,0-1.2
		C99.7,133.7,108.9,133.7,118.1,133.7"/>
	<path id="XMLID_1_" class="st16" d="M89.3,135.7c10,0,20.1,0,30.1,0c0,0.4,0,0.8,0,1.2c-10,0-20.1,0-30.1,0
		C89.3,136.5,89.3,136.1,89.3,135.7C89.3,135.7,89.3,135.7,89.3,135.7"/>
</g>
</svg>
