<?xml version="1.0" encoding="utf-8"?>
<!-- Generator: Adobe Illustrator 19.0.0, SVG Export Plug-In . SVG Version: 6.00 Build 0)  -->
<svg version="1.0" id="Layer_1" xmlns="http://www.w3.org/2000/svg" xmlns:xlink="http://www.w3.org/1999/xlink" x="0px" y="0px"
	 viewBox="0 0 185 170" style="enable-background:new 0 0 185 170;" xml:space="preserve">
<style type="text/css">
	.st0{fill-rule:evenodd;clip-rule:evenodd;fill:#AF1F24;}
	.st1{fill-rule:evenodd;clip-rule:evenodd;fill:#F15C41;}
	.st2{fill-rule:evenodd;clip-rule:evenodd;fill:#414142;}
	.st3{fill-rule:evenodd;clip-rule:evenodd;fill:#E9E3B1;}
	.st4{fill-rule:evenodd;clip-rule:evenodd;fill:#1C1C1C;}
	.st5{fill-rule:evenodd;clip-rule:evenodd;fill:#EF413E;}
	.st6{fill-rule:evenodd;clip-rule:evenodd;fill:#384639;}
	.st7{fill:#EF413E;}
	.st8{fill-rule:evenodd;clip-rule:evenodd;fill:#595A5C;}
	.st9{fill-rule:evenodd;clip-rule:evenodd;fill:#6C8BC6;}
	.st10{fill-rule:evenodd;clip-rule:evenodd;fill:#FAAE72;}
	.st11{fill-rule:evenodd;clip-rule:evenodd;fill:#4F1211;}
	.st12{fill-rule:evenodd;clip-rule:evenodd;fill:#A25742;}
	.st13{fill-rule:evenodd;clip-rule:evenodd;fill:#80A9D9;}
	.st14{fill-rule:evenodd;clip-rule:evenodd;fill:#F9B16D;}
	.st15{fill-rule:evenodd;clip-rule:evenodd;fill:#684387;}
</style>
<g id="XMLID_88_">
	<g id="XMLID_157_">
		<polygon id="XMLID_86_" class="st0" points="30.7,91.2 50.4,92.3 110.6,92.3 130,93.9 133.2,91.5 131.1,78.9 38.4,78.7 30.9,81.1 
					"/>
		<path id="XMLID_165_" class="st1" d="M69.4,64.2H54.1c-0.8,0-1.4,0.6-1.4,1.4v6c0,0.8,0.6,1.4,1.4,1.4h15.2c0.8,0,1.4-0.6,1.4-1.4
			v-6C70.8,64.9,70.2,64.2,69.4,64.2 M88.2,64.2H76.1c-0.8,0-1.4,0.6-1.4,1.4v6c0,0.8,0.6,1.4,1.4,1.4h12.1c0.8,0,1.4-0.6,1.4-1.4
			v-6C89.6,64.9,89,64.2,88.2,64.2z M107.1,64.2H95c-0.8,0-1.4,0.6-1.4,1.4v6c0,0.8,0.6,1.4,1.4,1.4h12.1c0.8,0,1.4-0.6,1.4-1.4v-6
			C108.4,64.9,107.8,64.2,107.1,64.2z M125.9,64.2h-12.1c-0.8,0-1.4,0.6-1.4,1.4v6c0,0.8,0.6,1.4,1.4,1.4h12.1
			c0.8,0,1.4-0.6,1.4-1.4v-6C127.3,64.9,126.7,64.2,125.9,64.2z M50.6,34.6h-13c-0.7,0-1.3,0.2-1.8,0.5l-0.9,6.6
			c-0.1,0.4,0.1,0.8,0.3,1.2c0.3,0.3,0.7,0.5,1.1,0.5h14.3c0.8,0,1.4-0.6,1.4-1.4v-6C51.9,35.2,51.3,34.6,50.6,34.6z M69.4,34.6
			H57.3c-0.8,0-1.4,0.6-1.4,1.4v6c0,0.8,0.6,1.4,1.4,1.4h12.1c0.8,0,1.4-0.6,1.4-1.4v-6C70.8,35.2,70.2,34.6,69.4,34.6z M88.2,34.6
			H76.1c-0.8,0-1.4,0.6-1.4,1.4v6c0,0.8,0.6,1.4,1.4,1.4h12.1c0.8,0,1.4-0.6,1.4-1.4v-6C89.6,35.2,89,34.6,88.2,34.6z M107.1,34.6
			H95c-0.8,0-1.4,0.6-1.4,1.4v6c0,0.8,0.6,1.4,1.4,1.4h12.1c0.8,0,1.4-0.6,1.4-1.4v-6C108.4,35.2,107.8,34.6,107.1,34.6z
			 M125.9,34.6h-12.1c-0.8,0-1.4,0.6-1.4,1.4v6c0,0.8,0.6,1.4,1.4,1.4h12.1c0.8,0,1.4-0.6,1.4-1.4v-6
			C127.3,35.2,126.7,34.6,125.9,34.6z M146.1,36c-1.3-0.9-2.8-1.4-4.5-1.4h-9c-0.8,0-1.4,0.6-1.4,1.4v6c0,0.8,0.6,1.4,1.4,1.4h10.2
			h0l0,0h0h0h0h0h0h0h0h0h0h0h0h0h0.1h0.1h0.1h0.1h0.1h0.1h0.1h0.1h0.1h0.1h0.1h0.1h0.1h0.1h0.1h0.1h0.1h0.1h0.1h0.1h0.1h0.1h0.1
			h0.1h0.1h0.1h0.1h0.1h0.1h0.1h3.8C149.7,40.5,148.3,37.9,146.1,36z M45.7,69.3l3.5-0.8v-4.4c0-1.8-1.5-3.3-3.3-3.3h-0.3V69.3z
			 M34.2,71.8l9-2v-9h-9V71.8z M30.2,56.3l3.1-22.6c0.4-3.2,3.1-5.6,6.4-5.6h102c7.9,0,14.3,6.4,14.3,14.3v16h0.5
			c0.7,0,1.3,0.6,1.3,1.3v1.2c0,0.7-0.6,1.3-1.3,1.3h-0.5v28.6c0,1.7-1.4,3.1-3.1,3.1H130v-1.6c1-4-0.6-8.3-4-10.7
			c-3.4-2.4-8-2.4-11.4,0c-3.4,2.4-5,6.6-4,10.7H50.4c0.7-4.8-2-9.6-6.8-11.2c-5.3-1.8-11.1,1-12.9,6.3v3.8H30c-1.1,0-2-0.9-2-2
			v-9.3c0-1.8,0.9-3.3,2.4-4.2l1.2-0.7V60.8h-0.5c-0.6,0-1.1-0.5-1.1-1.1V56.3z"/>
		<path id="XMLID_72_" class="st0" d="M155.9,64.1v24.5H137c-1,0-1.8-0.8-1.8-1.8V67.4c0-1.8,1.5-3.3,3.3-3.3H155.9z"/>
		<path id="XMLID_71_" class="st2" d="M40.5,98.5c4.5,0,8.2-3.7,8.2-8.2c0-4.5-3.7-8.2-8.2-8.2c-4.5,0-8.2,3.7-8.2,8.2
			C32.2,94.8,35.9,98.5,40.5,98.5"/>
		<path id="XMLID_70_" class="st2" d="M120.2,98.5c4.7,0,8.5-3.8,8.5-8.5c0-4.7-3.8-8.5-8.5-8.5c-4.7,0-8.5,3.8-8.5,8.5
			C111.8,94.7,115.6,98.5,120.2,98.5"/>
		<rect id="XMLID_69_" x="44.8" y="45.4" class="st3" width="105.2" height="8.4"/>
		<rect id="XMLID_68_" x="145.3" y="64.1" class="st3" width="1.9" height="24.5"/>
		<path id="XMLID_67_" class="st4" d="M40.5,94.6c2.4,0,4.4-2,4.4-4.4c0-2.4-2-4.4-4.4-4.4c-2.4,0-4.4,2-4.4,4.4
			C36.1,92.6,38,94.6,40.5,94.6"/>
		<path id="XMLID_66_" class="st4" d="M120.2,94.3c2.4,0,4.4-2,4.4-4.4c0-2.4-2-4.4-4.4-4.4c-2.4,0-4.4,2-4.4,4.4
			C115.9,92.4,117.8,94.3,120.2,94.3"/>
	</g>
	<g id="XMLID_89_">
		<path id="XMLID_65_" class="st5" d="M94.8,102L94.8,102v32.4H62.4V102v0V71.6c0-1.1,0.9-2,2-2h28.5c1.1,0,2,0.9,2,2V102z"/>
		<path id="XMLID_64_" class="st0" d="M62.4,72.3h-0.6c-0.7,0-1.3,0.6-1.3,1.3v59.5l1.3,1.3h0.6V72.3z"/>
		<path id="XMLID_63_" class="st0" d="M95.4,72.3h-0.6v62.2h0.6l1.3-1.3V73.6C96.8,72.9,96.2,72.3,95.4,72.3"/>
		<rect id="XMLID_62_" x="65.1" y="62.6" class="st5" width="26.9" height="7"/>
		<path id="XMLID_61_" class="st5" d="M93.2,62.6c-15.8,0-25.5,0-29.1,0c-0.2,0-0.4-0.2-0.5-0.4c-0.1-0.2,0-0.5,0.2-0.6
			c9-6.1,20.8-6.1,29.7,0c0.2,0.1,0.3,0.4,0.2,0.6C93.6,62.4,93.4,62.6,93.2,62.6"/>
		<path id="XMLID_60_" class="st0" d="M93,62.6h-2.5c-3.7-2.1-7.8-3.2-11.9-3.2c-4.1,0-8.2,1.1-11.9,3.2h-2.5
			c4.3-3,9.4-4.5,14.4-4.5C83.7,58.1,88.7,59.6,93,62.6"/>
		<rect id="XMLID_59_" x="69.1" y="64.4" class="st3" width="18.9" height="3.4"/>
		<rect id="XMLID_58_" x="69.1" y="74.5" class="st6" width="18.9" height="50.4"/>
		<path id="XMLID_123_" class="st7" d="M73.2,80.5H84v-5.4H73.2V80.5z M73.2,86.7H84v-5.4H73.2V86.7z M73.2,93H84v-5.4H73.2V93z
			 M73.2,99.3H84v-5.4H73.2V99.3z M73.2,105.6H84v-5.4H73.2V105.6z M73.2,111.9H84v-5.4H73.2V111.9z M73.2,118.2H84v-5.4H73.2V118.2
			z M73.2,124.5H84v-5.4H73.2V124.5z M87.6,80.5v-5.4h-2.7v5.4H87.6z M87.6,86.7v-5.4h-2.7v5.4H87.6z M87.6,93v-5.4h-2.7V93H87.6z
			 M87.6,99.3v-5.4h-2.7v5.4H87.6z M87.6,105.6v-5.4h-2.7v5.4H87.6z M87.6,111.9v-5.4h-2.7v5.4H87.6z M87.6,118.2v-5.4h-2.7v5.4
			H87.6z M87.6,124.5v-5.4h-2.7v5.4H87.6z M69.6,75.1v5.4h2.7v-5.4H69.6z M69.6,81.3v5.4h2.7v-5.4H69.6z M69.6,87.6V93h2.7v-5.4
			H69.6z M69.6,93.9v5.4h2.7v-5.4H69.6z M69.6,100.2v5.4h2.7v-5.4H69.6z M69.6,106.5v5.4h2.7v-5.4H69.6z M69.6,112.8v5.4h2.7v-5.4
			H69.6z M69.6,119.1v5.4h2.7v-5.4H69.6z M68.7,125L68.7,125v-6.4v-6.3V106v-6.3v-6.3v-6.3v-6.3v-6.3v-0.1v-0.4h0.4h0.1h3.2h0.4
			h11.7h0.4h3.2h0.1h0.4v0.4v0.1v6.3v6.3v6.3v6.3v6.3v6.3v6.3v6.3v0.1v0.4h-0.4h-0.1h-3.2h-0.4H72.7h-0.4h-3.2h-0.1h-0.4V125z"/>
		<rect id="XMLID_32_" x="61.8" y="134.4" class="st4" width="33.6" height="7.8"/>
		<path id="XMLID_31_" class="st3" d="M80.7,59.2c0.4,0.7,0.3,1.6-0.3,2.2h-3.7c-0.5-0.5-0.6-1.2-0.5-1.9c0.4-0.7,1-1.2,1.8-1.3
			c0.3,0.4,0.5,0.5,0.5,0.5c0.4-0.4,0.5-0.6,0.5-0.6C79.8,58.3,80.3,58.7,80.7,59.2"/>
		<rect id="XMLID_30_" x="108.1" y="117.1" class="st8" width="14.7" height="25.1"/>
		<path id="XMLID_29_" class="st9" d="M106.7,94.1h11.4c1.9,0,3.5,1.6,3.5,3.5v14.9h-18.4V97.6C103.3,95.6,104.8,94.1,106.7,94.1"/>
		<rect id="XMLID_28_" x="110.9" y="98.4" class="st0" width="10.7" height="18.7"/>
		<path id="XMLID_115_" class="st4" d="M108.1,105.9v7.8l-3.9-3.9L108.1,105.9z M108.1,123.4l2.1,0l1.5-1.5l0.9-0.8
			c1.6-1.4,2.4-3.2,2.4-5.4V98.4h-6.8l-7.6,7.6c-0.8,0.8-1.2,1.7-1.2,2.8v0.8c0,1.1,0.4,2.1,1.2,2.8l7.6,7.6V123.4z"/>
		<polygon id="XMLID_25_" class="st2" points="122.8,117.1 122.8,142.2 116.6,142.2 116.4,142.2 116.4,123.5 		"/>
		<path id="XMLID_24_" class="st10" d="M117.8,97.3c-2.6,0-4.7-2.1-4.7-4.7v-6.3h6.2l3.1,3.1v3.2C122.4,95.2,120.3,97.3,117.8,97.3"
			/>
		<path id="XMLID_23_" class="st11" d="M117.7,82.3h5.1l0,0c1.2,1.2,1.9,2.8,1.9,4.5v1.7c0,1.8-0.6,3.3-1.9,4.5l-0.8,0.8v-4.2
			c0-0.4-0.1-0.7-0.4-0.9l-1.7-1.7h-2.3V82.3z"/>
		<path id="XMLID_22_" class="st12" d="M113.2,91.5l4.4-4.4l4.9-4.9l-0.4-0.4c-0.8-0.8-1.7-1.2-2.8-1.2h-0.8c-1.7,0-3.2,0.6-4.4,1.8
			l-2,2c-0.8,0.8-1.2,1.7-1.2,2.8v2.6c0,1.1,0.4,2.1,1.2,2.8l1.1,1.1L113.2,91.5z"/>
		<path id="XMLID_21_" class="st12" d="M115.8,88.5h2.4c1.4,0,2.6-0.5,3.6-1.5l0.4-0.4c0.7-0.7,1.1-1.6,1.1-2.6v-1.1l-1-0.9
			L115.8,88.5z"/>
		<path id="XMLID_20_" class="st9" d="M108.1,105.9v-7.6h3.4v6.3c0,0.7-0.3,1.4-0.8,1.9l-2.9,2.9L108.1,105.9z"/>
		<rect id="XMLID_19_" x="114.9" y="94.1" class="st10" width="4.5" height="4.3"/>
		<path id="XMLID_18_" class="st10" d="M117.2,96.1c1.3,0,2.3,1,2.3,2.3c0,1.3-1,2.3-2.3,2.3c-1.3,0-2.3-1-2.3-2.3
			C114.9,97.1,116,96.1,117.2,96.1"/>
		<polygon id="XMLID_17_" class="st11" points="116.4,142.2 119.8,142.2 120.6,142.2 121.9,142.2 126.5,142.2 126.5,140.1 
			125.2,140.1 124,138 119.8,138 116.4,141.4 		"/>
		<polygon id="XMLID_16_" class="st0" points="108.1,142.2 111.5,142.2 112.3,142.2 113.6,142.2 118.2,142.2 118.2,140.1 
			116.9,140.1 115.6,138 111.5,138 108.1,141.4 		"/>
		<path id="XMLID_15_" class="st4" d="M123.8,122.8L123.8,122.8l-1-0.9c-2.2-1.9-3.3-4.4-3.3-7.3V98.4h2.4l0.6,0.6
			c0.8,0.8,1.3,1.8,1.3,3V122.8z"/>
		<path id="XMLID_14_" class="st9" d="M121.4,98.4L121.4,98.4c1.3,0,2.4,1.1,2.4,2.4v8.5c-1.3,0-2.4-1.1-2.4-2.4V98.4z"/>
		<path id="XMLID_13_" class="st5" d="M134.4,85.9h8.4c1.9,0,3.5,1.6,3.5,3.5v21h-13.2c-1.2,0-2.1-1-2.1-2.1V89.4
			C130.9,87.5,132.5,85.9,134.4,85.9"/>
		<path id="XMLID_12_" class="st13" d="M135.7,113.5V88.3h7.4l1.9,3.3c1.4,2.4,2,4.7,2,7.5v14.4H135.7z"/>
		<path id="XMLID_11_" class="st12" d="M138.8,87l-2.5-2.5c-0.5-0.5-0.8-1.1-0.8-1.8l0-5.6c0-0.9,0.3-1.7,1-2.3l0.8-0.8
			c1.6-1.6,4.2-1.7,5.9-0.3l1.7,1.4c0.7,0.6,1.2,1.2,1.6,1.9v6.4c-0.3,0.5-0.7,1-1.1,1.5l-4.3,4.3L138.8,87z"/>
		<path id="XMLID_10_" class="st14" d="M138.8,82.3h4v10.1c-2.2,0-4-1.8-4-4V82.3z"/>
		<path id="XMLID_9_" class="st14" d="M138.7,74.7h3.9c1.6,0,3,1.3,3,3v7.4c-0.2,1-0.8,1.8-1.5,2.5c-2.9,0-5.3-2.4-5.3-5.3V74.7z"/>
		<polygon id="XMLID_8_" class="st12" points="138.7,79.7 145.5,79.7 146.5,78 146.1,76.7 143.7,74.4 137.9,74.4 136.8,78.7 		"/>
		<path id="XMLID_7_" class="st13" d="M135.7,100.1c0-7.9,0-11.8,0-11.8c-3.1,4.1-4.7,9.1-4.6,14.2
			C134.2,100.9,135.7,100.1,135.7,100.1"/>
		<polygon id="XMLID_6_" class="st15" points="135.7,113.5 135.7,142.2 138.5,142.2 141.8,119.8 144.8,142.2 147.1,142.2 
			147.1,113.5 		"/>
		<polygon id="XMLID_5_" class="st5" points="135.6,88 138.7,88 142.8,101.3 139.8,101.3 		"/>
		<polygon id="XMLID_4_" class="st5" points="134.2,110.4 135.7,110.4 142,101.9 140.5,101.9 		"/>
		<polygon id="XMLID_3_" class="st10" points="131.1,102.5 142.8,102.5 142.8,100.1 135.7,100.1 		"/>
		<polygon id="XMLID_2_" class="st9" points="135.7,142.2 138.8,139.5 142.2,140.4 142.2,142.2 		"/>
		<polygon id="XMLID_1_" class="st9" points="144.8,142.2 147.1,139.8 151.2,140.4 151.2,142.2 		"/>
	</g>
</g>
</svg>
