<?xml version="1.0" encoding="utf-8"?>
<!-- Generator: Adobe Illustrator 19.0.0, SVG Export Plug-In . SVG Version: 6.00 Build 0)  -->
<svg version="1.1" id="Layer_1" xmlns="http://www.w3.org/2000/svg" xmlns:xlink="http://www.w3.org/1999/xlink" x="0px" y="0px"
	 viewBox="-9 10 27 27" style="enable-background:new -9 10 27 27;" xml:space="preserve">
<style type="text/css">
	.st0{opacity:0.43;fill:#0091D4;enable-background:new    ;}
	.st1{fill:#0091D4;}
</style>
<path id="XMLID_14_" class="st0" d="M4.5,37C-2.9,37-9,30.9-9,23.5S-2.9,10,4.5,10S18,16.1,18,23.5S11.9,37,4.5,37z M4.5,11
	C-2.4,11-8,16.6-8,23.5S-2.4,36,4.5,36S17,30.4,17,23.5S11.4,11,4.5,11z"/>
<path class="st1" d="M5.3,19.7c-0.4-0.4-0.6-1-0.4-1.5s0.7-0.9,1.2-1c0.6-0.1,1.2,0.1,1.5,0.6C8,18.3,8,18.9,7.8,19.4
	c-0.2,0.5-0.7,0.8-1.3,0.8C6,20.2,5.7,20,5.3,19.7z M9.3,24.7C9.3,24.6,9.3,24.6,9.3,24.7c0-0.2,0-0.3,0-0.5c0-0.1,0-0.2,0-0.3
	c0-0.3-0.1-0.5-0.1-0.8c0-0.1,0-0.2-0.1-0.2c0-0.1,0-0.2-0.1-0.2c-0.1-0.2-0.2-0.3-0.2-0.5c-0.1-0.1-0.1-0.2-0.2-0.3
	c-0.3-0.5-0.7-0.9-1.3-1.2c-0.4-0.2-1-0.3-1.6,0C5,21,4.5,21.6,4.2,22.2c-0.3-0.7-0.8-1.3-1.4-1.7c-0.1-0.1-0.2-0.1-0.3-0.1
	c-0.5-0.2-1.1-0.2-1.6,0.1c-0.2-0.1-0.3-0.1-0.5,0C0,20.7-0.3,21-0.5,21.3c-0.4,0.6-0.6,1.4-0.7,2.2c-0.1,0.6,0,1.2,0,1.8
	c0,0.2,0.2,0.4,0.5,0.4c0.2,0,0.4-0.2,0.4-0.5c0,0,0-0.3,0-0.4c0-0.2,0-0.4,0-0.5c0-0.4,0.1-0.8,0.2-1.1c0.1-0.3,0.2-0.5,0.3-0.8
	L0,25.1c0,0.4,0.1,0.8,0.3,1.2l0.2,4.8c0,0.3,0.2,0.5,0.5,0.5s0.5-0.2,0.5-0.5l0.2-3.7l0.2,3.7c0,0.3,0.2,0.5,0.5,0.5
	c0.3,0,0.5-0.2,0.5-0.5L3,26.2c0.2-0.3,0.3-0.7,0.3-1.2L3,22.4c0.4,0.7,0.5,1.4,0.5,2.2c0,0.2,0,0.6,0,0.6c0,0.2,0.2,0.4,0.4,0.5
	c0.2,0,0.5-0.2,0.5-0.4c0-0.1,0-0.2,0-0.3c0-0.2,0-0.4,0.1-0.6c0.1-0.4,0.2-0.7,0.3-1.1c0-0.1,0.1-0.1,0.1-0.2v0.4l-0.8,4
	c0,0.1,0,0.2,0.1,0.2c0.1,0.1,0.1,0.1,0.2,0.1H5l0.2,3.3c0,0.3,0.2,0.5,0.5,0.5s0.5-0.2,0.5-0.5l0.2-3.3h0.1l0.2,3.3
	c0,0.3,0.2,0.5,0.5,0.5s0.5-0.2,0.5-0.5L8,27.8h0.6c0.1,0,0.2,0,0.2-0.1c0.1-0.1,0.1-0.1,0.1-0.2l-0.8-4v-0.2c0,0.1,0,0.1,0.1,0.2
	c0.1,0.2,0.1,0.4,0.2,0.6c0,0.1,0,0.2,0,0.3c0,0.3,0.1,0.6,0.1,0.9c0,0.2,0.2,0.4,0.5,0.4c0.2,0,0.4-0.2,0.4-0.4
	C9.3,25,9.3,24.8,9.3,24.7z M1.7,19.9c0.6,0,1.1-0.3,1.3-0.8c0.3-0.5,0.2-1.1-0.1-1.6c-0.3-0.4-0.9-0.7-1.5-0.6
	c-0.5,0.1-1,0.5-1.1,1.1c-0.2,0.5,0,1.1,0.4,1.5C1,19.7,1.3,19.9,1.7,19.9z"/>
</svg>
