<?xml version="1.0" encoding="utf-8"?>
<!-- Generator: Adobe Illustrator 19.2.1, SVG Export Plug-In . SVG Version: 6.00 Build 0)  -->
<svg version="1.1" id="Layer_1" xmlns="http://www.w3.org/2000/svg" xmlns:xlink="http://www.w3.org/1999/xlink" x="0px" y="0px"
	 viewBox="0 0 32 32" style="enable-background:new 0 0 32 32;" xml:space="preserve">
<style type="text/css">
	.st0{fill:#00B83B;}
</style>
<path class="st0" d="M27.2,13.2l-0.6-5.6c0-0.2-0.1-0.4-0.3-0.5C26.2,7,25.9,7,25.8,7l-0.9,0.3c-0.2,0.1-0.4,0.2-0.4,0.4l-1.7,5.5
	L8.5,17.7c-2.6,0.8-3,1.1-3.5,1.6c-0.1,0.1-0.3,0.3-0.6,0.5C3.6,20.5,3,21,2.7,21.6c-0.3,0.5-0.3,0.9-0.2,1.2
	C2.6,23,3.1,24,5.9,23.2l7.2-2.3l7.8,0.2c0.1,0,0.1,0,0.2,0l2-0.6c0.2-0.1,0.4-0.3,0.4-0.5c0-0.2-0.2-0.5-0.4-0.5l-3.2-0.8l8.8-4.4
	c0.3-0.2,0.5-0.5,0.3-0.8c-0.1-0.3-0.5-0.5-0.8-0.4c0,0,0,0,0,0L27.2,13.2z M28.1,13"/>
</svg>
