<?xml version="1.0" encoding="utf-8"?>
<!-- Generator: Adobe Illustrator 15.1.0, SVG Export Plug-In  -->
<!DOCTYPE svg PUBLIC "-//W3C//DTD SVG 1.1//EN" "http://www.w3.org/Graphics/SVG/1.1/DTD/svg11.dtd" [
	<!ENTITY ns_flows "http://ns.adobe.com/Flows/1.0/">
]>
<svg version="1.1"
	 xmlns="http://www.w3.org/2000/svg" xmlns:xlink="http://www.w3.org/1999/xlink" xmlns:a="http://ns.adobe.com/AdobeSVGViewerExtensions/3.0/"
	 x="0px" y="0px" width="30px" height="30px" viewBox="-1.5 -1.5 30 30" enable-background="new -1.5 -1.5 30 30"
	 xml:space="preserve">
<defs>
</defs>
<circle opacity="0.43" fill="none" stroke="#0091D4" stroke-miterlimit="10" cx="13.5" cy="13.5" r="13"/>
<path fill="#0091D4" d="M19.416,7.605h-0.315V7.104c0-0.119-0.099-0.219-0.22-0.219h-1.233c-0.122,0-0.221,0.1-0.221,0.219v0.501
	h-1.092V7.047c0-0.853-0.694-1.547-1.548-1.547h-2.773c-0.854,0-1.548,0.694-1.548,1.547v0.559H9.373V7.104
	c0-0.119-0.099-0.219-0.22-0.219H7.92c-0.121,0-0.22,0.1-0.22,0.219v0.501H7.385c-1.15,0-2.084,0.934-2.084,2.085v7.347
	c0,1.151,0.934,2.084,2.084,2.084h12.031c1.151,0,2.084-0.933,2.084-2.084V9.69C21.5,8.539,20.567,7.605,19.416,7.605L19.416,7.605z
	 M11.346,7.047c0-0.368,0.3-0.667,0.668-0.667h2.773c0.369,0,0.668,0.299,0.668,0.667v0.559h-4.109V7.047z M13.4,18.185
	c-2.662,0-4.82-2.16-4.82-4.822c0-2.66,2.158-4.819,4.82-4.819c2.661,0,4.821,2.159,4.821,4.819
	C18.222,16.024,16.062,18.185,13.4,18.185L13.4,18.185z M16.545,14.584 M14.5,16.5h-2v-6h2V16.5z M10.5,14.5v-2h6v2H10.5z"/>
</svg>
