<?xml version="1.0" encoding="utf-8"?>
<!-- Generator: Adobe Illustrator 15.1.0, SVG Export Plug-In  -->
<!DOCTYPE svg PUBLIC "-//W3C//DTD SVG 1.1//EN" "http://www.w3.org/Graphics/SVG/1.1/DTD/svg11.dtd" [
	<!ENTITY ns_flows "http://ns.adobe.com/Flows/1.0/">
]>
<svg version="1.1"
	 xmlns="http://www.w3.org/2000/svg" xmlns:xlink="http://www.w3.org/1999/xlink" xmlns:a="http://ns.adobe.com/AdobeSVGViewerExtensions/3.0/"
	 x="0px" y="0px" width="30px" height="30px" viewBox="-1.5 -1.5 30 30" enable-background="new -1.5 -1.5 30 30"
	 xml:space="preserve">
<defs>
</defs>
<circle opacity="0.43" fill="none" stroke="#0091D4" stroke-miterlimit="10" cx="13.5" cy="13.5" r="13"/>
<path fill="#0091D4" d="M13.025,19.5c0.742,0,7.25-0.063,7.25-2.286c0-0.99-1.293-1.552-2.792-1.871
	c0.058-0.093,0.111-0.195,0.165-0.293l1.028-0.094c0.825-0.021,1.516-0.64,1.607-1.451l0.207-1.764
	c0.051-0.456-0.083-0.831-0.41-1.2c-0.377-0.42-0.896-0.397-1.238-0.397h-0.471l0.101-1.451c0.002-0.005,0.002-0.028,0.002-0.035
	c0-0.01,0-0.03,0-0.043c0-0.843-2.44-1.529-5.45-1.529c-3.013,0-5.453,0.681-5.453,1.524c0,0.013,0,0.023,0.003,0.035
	c0,0.008,0,0.013,0,0.021l0.329,4.584c0.054,0.767,0.289,1.478,0.661,2.093c-1.499,0.319-2.792,0.88-2.792,1.871
	C5.772,19.437,12.283,19.5,13.025,19.5L13.025,19.5z M18.146,13.311l0.157-2.125h0.691c0.43,0,0.562,0.42,0.546,0.572l-0.215,1.704
	c-0.041,0.347-0.312,0.491-0.671,0.503c-0.154,0.008-0.618,0.043-0.618,0.043C18.103,13.746,18.125,13.586,18.146,13.311
	L18.146,13.311z M13.025,8.196c1.974,0,3.574,0.336,3.574,0.749c0,0.415-1.6,0.749-3.574,0.749c-1.975,0-3.574-0.334-3.574-0.749
	C9.451,8.532,11.05,8.196,13.025,8.196L13.025,8.196z M9.512,16.358c0.827,0.717,1.905,1.041,3.078,1.041h0.869
	c1.174,0,2.252-0.324,3.078-1.041c1.301,0.213,2.139,0.57,2.41,0.803c-0.468,0.399-2.609,1.038-5.92,1.038s-5.455-0.65-5.92-1.051
	C7.375,16.918,8.21,16.571,9.512,16.358L9.512,16.358z M9.512,16.358"/>
</svg>
