<?xml version="1.0" encoding="utf-8"?>
<!-- Generator: Adobe Illustrator 19.0.0, SVG Export Plug-In . SVG Version: 6.00 Build 0)  -->
<svg version="1.1" id="Layer_1" xmlns="http://www.w3.org/2000/svg" xmlns:xlink="http://www.w3.org/1999/xlink" x="0px" y="0px"
	 viewBox="0 0 65 65" style="enable-background:new 0 0 65 65;" xml:space="preserve">
<style type="text/css">
	.st0{fill-rule:evenodd;clip-rule:evenodd;fill:#2A9DD3;}
</style>
<g id="XMLID_2_">
	<path id="XMLID_22_" class="st0" d="M7.4,12.5c0.3-0.2,0.4,0,0.6,0c1.3,0.4,2.6,0.8,3.8,1.3c0.4,0.1,0.5,0.1,0.7-0.3
		c0.4-1.1,0.9-2.3,1.4-3.6c0.5,1.4,0.9,2.6,1.2,3.9c0.2,1,0.7,1.5,1.7,1.8c1.1,0.3,2.1,0.8,3.3,1.2C19,17.2,18,17.7,17,18.1
		c-0.3,0.1-0.4,0.2-0.3,0.6c0.4,1.3,0.7,2.6,1.2,4.1c-1.2-1.1-2.3-2.1-3.3-3.1c-0.4-0.4-0.7-0.4-1.1-0.2c-1,0.4-2.1,0.7-3.3,1.2
		c0.4-1.2,0.7-2.3,1.1-3.3c0.2-0.5,0.1-0.8-0.3-1.2C9.7,14.9,8.6,13.7,7.4,12.5"/>
	<path id="XMLID_21_" class="st0" d="M23.6,2.2c0.3-0.1,0.4,0,0.6,0.1c1,0.5,2.1,0.9,3.1,1.4c0.4,0.2,0.5,0.1,0.6-0.3
		c0.4-1.1,0.9-2.2,1.3-3.5c0.3,0.7,0.3,1.4,0.5,2c0.2,0.9,0.4,1.7,0.5,2.6c0.1,0.4,0.2,0.6,0.6,0.7c1.1,0.5,2.1,1.1,3.3,1.7
		c-0.9,0.4-1.7,0.8-2.5,1.1C31.1,8.3,30.9,8.5,31,9c0.2,1.1,0.4,2.1,0.6,3.2c0,0.2,0.1,0.4-0.1,0.6c-0.5-0.6-0.9-1.2-1.3-1.7
		c-0.4-0.5-0.8-0.9-1.1-1.4c-0.2-0.3-0.4-0.3-0.7-0.2c-0.9,0.4-1.9,0.7-2.9,1c0.3-0.9,0.5-1.8,0.9-2.6c0.5-1,0.3-1.7-0.4-2.6
		C25.1,4.4,24.4,3.3,23.6,2.2"/>
	<path id="XMLID_20_" class="st0" d="M2,31.8c1.5,0.3,3,0.5,4.5,0.8c0.4,0.1,0.5,0,0.6-0.4c0.3-0.8,0.7-1.7,1-2.5
		c0.1-0.2,0.1-0.4,0.3-0.5c0.5,1.2,1,2.3,1.4,3.5c0.2,0.5,0.5,0.6,0.9,0.7c1.2,0.2,2.5,0.5,3.9,0.8c-1.1,0.5-2.1,1-3.1,1.5
		c-0.4,0.2-0.4,0.3-0.3,0.7c0.4,1,0.8,2.1,1,3.2c-0.6-0.4-1.1-0.8-1.7-1.2c-0.6-0.4-1.2-1.1-1.9-1.2c-0.7-0.1-1.4,0.5-2.1,0.8
		c-0.5,0.2-1.1,0.4-1.7,0.7c0.4-1.1,0.7-2.1,1-3.1C6.1,35.2,6,35,5.7,34.8c-1.3-0.9-2.5-1.9-3.7-2.8C2,31.9,2,31.9,2,31.8"/>
	<path id="XMLID_19_" class="st0" d="M41.9,12.2c0.4-1,0.7-2,1.1-2.9c0.2-0.4,0.2-0.8-0.1-1.2c-0.6-1-1.2-2.1-1.8-3.2
		c0.8,0.2,1.3,0.6,1.9,0.9C44,6.4,44,6.4,44.5,5.3c0.3-0.7,0.6-1.4,0.9-2.1c0,0,0-0.1,0.1-0.2c0.1,1.1,0.3,2.1,0.3,3.2
		c0,0.9,0.3,1.5,1.2,1.9c0.6,0.2,1.1,0.6,1.7,1c-0.7,0.4-1.3,0.7-2,1c-0.4,0.2-0.5,0.4-0.5,0.9c0.1,1.1,0.2,2.2,0.1,3.3
		c-0.5-0.9-1.1-1.8-1.6-2.7c-0.2-0.3-0.3-0.4-0.6-0.2C43.4,11.6,42.7,11.9,41.9,12.2"/>
	<path id="XMLID_18_" class="st0" d="M19.2,50.4c-0.8,0.5-1.6,0.9-2.4,1.4c-0.3,0.2-0.4,0.3-0.3,0.7c0.3,0.7,0.5,1.5,0.9,2.4
		c-0.9-0.5-1.7-0.9-2.5-1.4c-0.4-0.2-0.7-0.3-1.1,0c-0.8,0.5-1.7,0.9-2.7,1.4c0.3-0.9,0.6-1.7,0.9-2.5c0.2-0.4,0.1-0.5-0.3-0.7
		c-0.9-0.5-1.8-1.1-2.9-1.8c0.8,0,1.6,0,2.3,0c0.6,0,1.3,0.3,1.8-0.1c0.4-0.3,0.5-1,0.8-1.6c0.2-0.4,0.3-0.7,0.5-1.2
		c0.4,1,0.8,1.8,1.1,2.6c0.1,0.4,0.4,0.5,0.7,0.5c1,0,2,0.1,3,0.2C19.2,50.3,19.2,50.4,19.2,50.4"/>
	<path id="XMLID_17_" class="st0" d="M58.5,18.7c-0.6,0.3-1,0.7-1.5,0.9c-0.4,0.2-0.5,0.4-0.5,0.8c0,0.8,0,1.6-0.1,2.5
		c-0.3-0.6-0.7-1.3-1-1.9c-0.2-0.3-0.3-0.3-0.6-0.2c-0.5,0.3-1.1,0.5-1.7,0.9c0.4-0.9,0.6-1.6,1-2.4c0.2-0.4,0.1-0.6,0-1
		c-0.4-0.7-0.8-1.5-1.2-2.4c0.7,0.3,1.3,0.5,1.8,0.8c0.4,0.2,0.5,0.1,0.7-0.3c0.3-0.7,0.7-1.4,1-2.1h0.2c0,0.8,0,1.7,0,2.5
		c-0.1,0.6,0.2,0.9,0.7,1.2C57.6,18.2,58.1,18.5,58.5,18.7"/>
	<path id="XMLID_16_" class="st0" d="M29.3,59.4c-0.6,0.4-1.2,0.8-1.8,1.2C27,60.8,27,61,27.1,61.5c0.2,0.5,0.3,1,0.4,1.6
		c-0.7-0.3-1.3-0.6-1.8-0.9c-0.3-0.2-0.6-0.2-0.9,0c-0.7,0.4-1.3,0.8-2.2,1.3c0.3-0.7,0.5-1.2,0.8-1.8c0.3-0.5,0.2-0.8-0.4-1
		c-0.6-0.3-1.1-0.6-1.8-1c1-0.1,1.8-0.2,2.5-0.2c0.5,0,0.7-0.2,0.9-0.6c0.3-0.6,0.6-1.2,0.9-1.9c0.3,0.7,0.5,1.3,0.7,1.9
		c0.1,0.3,0.2,0.4,0.6,0.4C27.7,59.4,28.4,59.4,29.3,59.4"/>
	<path id="XMLID_15_" class="st0" d="M62.4,30.6c-0.3,0.2-0.5,0.4-0.7,0.5c-0.8,0.4-1.1,1-1,1.9c0,0.4,0,0.7,0,1.3
		c-0.5-0.5-0.7-1-0.9-1.4c-0.2-0.3-0.3-0.3-0.6-0.2c-0.4,0.3-0.8,0.5-1.3,0.7c0.3-0.6,0.5-1.1,0.8-1.7c0.2-0.3,0.2-0.6,0-1
		c-0.3-0.5-0.5-1-0.8-1.6c0.5,0.1,1,0.2,1.5,0.4c0.3,0.1,0.4,0,0.5-0.2c0.3-0.6,0.6-1.2,1-1.8c0,0.7,0,1.3,0,2
		c0,0.4,0.1,0.6,0.5,0.7C61.6,30.3,61.9,30.5,62.4,30.6"/>
	<path id="XMLID_14_" class="st0" d="M38.6,64.6c-0.5-0.3-0.9-0.5-1.3-0.7c-0.3-0.2-0.5-0.2-0.8,0c-0.5,0.4-1,0.7-1.7,1.1
		c0.3-0.7,0.5-1.2,0.8-1.6c0.2-0.3,0.2-0.5-0.2-0.7c-0.4-0.2-0.8-0.5-1.3-0.9c0.7-0.1,1.2-0.1,1.8-0.2c0.4,0,0.8-0.2,1-0.6
		c0.2-0.5,0.5-0.9,0.8-1.6c0.1,0.6,0.2,1.1,0.3,1.6c0,0.3,0.2,0.4,0.5,0.4c0.5,0,1.1-0.1,1.8-0.1c-0.6,0.4-1.1,0.8-1.6,1.1
		c-0.4,0.2-0.4,0.5-0.3,0.9C38.5,63.7,38.5,64.1,38.6,64.6"/>
	<path id="XMLID_13_" class="st0" d="M57.4,44.7C57.4,44.6,57.4,44.6,57.4,44.7c0.3-0.6,0.7-1.2,0.7-1.7c0.1-0.6-0.6-1-0.8-1.6
		c0.1,0,0.2,0,0.2,0c1.1,0.4,1.7-0.1,2.1-1.2c0.1-0.2,0.2-0.4,0.4-0.6c0,0.5,0,0.9,0,1.4c0,0.5,0,0.8,0.6,0.7c0.3,0,0.5,0.1,0.9,0.2
		c-1.4,0.6-1.9,1.7-1.5,3.3c-0.6-0.5-0.7-1.2-1.1-1.3c-0.4,0-0.8,0.5-1.3,0.7C57.5,44.7,57.5,44.7,57.4,44.7"/>
	<path id="XMLID_12_" class="st0" d="M49.7,58.2c-1,0.7-2,1.4-1.3,3c-0.6-0.1-0.8-0.4-1.1-0.7c-0.3-0.2-0.4-0.2-0.7,0
		c-0.4,0.3-0.7,0.6-1.3,0.8c0.3-0.5,0.4-0.9,0.6-1.3c0.2-0.3,0.2-0.5-0.1-0.8c-0.3-0.2-0.6-0.5-0.9-0.8c0.3,0,0.5-0.1,0.7-0.1
		c1,0.2,1.6-0.4,1.9-1.3c0.1-0.2,0.2-0.5,0.4-0.7c0.1,0.5,0.1,0.9,0.1,1.4c0,0.3,0.1,0.4,0.4,0.4C48.8,58.2,49.2,58.2,49.7,58.2"/>
	<path id="XMLID_11_" class="st0" d="M55.5,49.6c0,0.5,0,0.9,0,1.3c0,0.3,0.1,0.4,0.4,0.4c0.3,0,0.7,0,1.1,0c-0.3,0.4-0.6,0.6-1,0.9
		c-0.4,0.3-0.6,0.6-0.5,1.1c0,0.3,0,0.7,0,1.1c-0.4-0.2-0.6-0.5-0.8-0.7c-0.2-0.2-0.4-0.2-0.6-0.1c-0.3,0.2-0.6,0.6-1.2,0.6
		c0.2-0.4,0.3-0.7,0.5-1c0.3-0.5,0.2-0.8-0.2-1.1c-0.2-0.2-0.3-0.4-0.6-0.7c0.4,0,0.8,0,1.1,0c0.4,0,0.7-0.1,0.9-0.5
		c0.2-0.4,0.4-0.8,0.7-1.2C55.4,49.6,55.4,49.6,55.5,49.6"/>
	<path id="XMLID_5_" class="st0" d="M37.4,17.6c-10.1,0-18.1,7.9-18.2,17.9c0,9.9,8,18,17.9,18c10,0,18-8,18-17.9
		C55.2,25.7,47.2,17.6,37.4,17.6 M28.6,36.2h-1.1c-0.8,0-1.5,0-2.3,0c-0.4,0-0.4,0.1-0.3,0.4c0.2,0.7,0.8,1.2,1.6,1.3
		c0.6,0.1,1.3,0.1,1.8-0.2c0.3-0.1,0.5,0,0.5,0.3c0,0.1,0.1,0.2,0.1,0.3c0.4,1.1,0.4,1.1-0.7,1.3c-0.9,0.2-1.9,0.2-2.9,0
		c-1.9-0.4-3.1-2-3-4.2c0-0.5,0.1-1.1,0.2-1.6c0.5-1.9,2-2.9,4.1-2.7c1.8,0.1,3,1.4,3.3,3.3C30.3,36.2,30.3,36.2,28.6,36.2
		 M35.7,39.4c-1.5,0.7-3.1,0.5-4.6,0c-0.1,0-0.3-0.1-0.2-0.2c0.2-0.5,0.3-1,0.6-1.5c0.1-0.2,0.3,0,0.4,0c0.6,0.2,1.2,0.3,1.8,0.3
		c0.4,0,0.9-0.1,1-0.6c0.1-0.5-0.4-0.7-0.8-0.9c-0.4-0.2-0.9-0.3-1.3-0.5c-1.4-0.6-2-1.3-1.8-2.6c0.1-1.1,1-2,2.3-2.2
		c1-0.2,2-0.1,2.9,0.2c0.3,0.1,0.4,0.2,0.4,0.5c0,0.5,0,1,0,1.6c-0.7-0.2-1.2-0.4-1.8-0.5c-0.4,0-0.8-0.1-1.1,0.1
		c-0.5,0.2-0.6,0.6-0.1,1c0.3,0.3,0.8,0.4,1.1,0.5c0.5,0.2,0.9,0.3,1.4,0.6c0.8,0.5,1.2,1.3,1.1,2.3C36.9,38.4,36.5,39,35.7,39.4
		 M44.1,39.3c-1.7,0.8-3.5,0.9-5.1-0.3c-1.5-1.1-1.8-2.6-1.5-4.3c0.3-1.9,1.5-3,3.4-3.4c1-0.2,1.9-0.1,2.9,0.3
		c0.3,0.1,0.5,0.3,0.4,0.7c0,0.5,0,1,0,1.5c-0.7-0.4-1.3-0.7-2-0.7c-0.9,0-1.7,0.4-2.1,1.2c-0.5,1-0.5,2,0.2,2.9
		c0.6,0.8,1.4,0.9,2.3,0.8c0.1,0,0.2-0.1,0.4-0.1c0.3,0,0.6-0.4,0.8-0.2c0.3,0.4,0.4,0.9,0.6,1.4C44.4,39.2,44.2,39.3,44.1,39.3
		 M50.5,39.7c-0.6,0.1-0.7-0.4-0.9-0.7c-1,0.8-2,1.1-3.2,0.8c-1-0.3-1.8-1.1-1.9-2.2c-0.1-1.2,0.3-2.1,1.4-2.6c0.9-0.5,2-0.4,3-0.5
		c0.6,0,0.7-0.2,0.4-0.7c-0.2-0.5-0.6-0.6-1.1-0.7c-0.7-0.1-1.4,0-2.1,0.4c-0.3,0.1-0.4,0.1-0.6-0.2c-0.7-1.2-0.7-1.3,0.7-1.7
		c1.1-0.3,2.2-0.4,3.3-0.1c1.4,0.3,2.1,1.2,2.1,2.6c0,1.5,0,3,0,4.5c0,0.4,0.3,1,0,1.2C51.5,39.8,50.9,39.6,50.5,39.7"/>
	<path id="XMLID_4_" class="st0" d="M49.4,36.8c0-0.2,0-0.4,0-0.7c0-0.2,0-0.3-0.2-0.3c-0.6,0.1-1.2,0-1.7,0.2
		c-0.7,0.3-0.8,1.2-0.3,1.6c0.6,0.4,1.2,0.3,1.8,0C49.5,37.6,49.4,37.2,49.4,36.8"/>
	<path id="XMLID_3_" class="st0" d="M26.6,33c-0.8-0.1-1.4,0.3-1.6,1c-0.1,0.4-0.2,0.7,0.4,0.6c0.3,0,0.6,0,0.9,0c0.4,0,0.8,0,1.2,0
		c0.2,0,0.3,0,0.3-0.3C27.7,33.7,27.2,33.1,26.6,33"/>
</g>
</svg>
