<?xml version="1.0" encoding="utf-8"?>
<!-- Generator: Adobe Illustrator 19.0.0, SVG Export Plug-In . SVG Version: 6.00 Build 0)  -->
<svg version="1.1" id="Layer_1" xmlns="http://www.w3.org/2000/svg" xmlns:xlink="http://www.w3.org/1999/xlink" x="0px" y="0px"
	 viewBox="0 0 65 65" style="enable-background:new 0 0 65 65;" xml:space="preserve">
<style type="text/css">
	.st0{fill:#2A9DD3;}
</style>
<g id="XMLID_2_">
	<g id="XMLID_11_">
		<path id="XMLID_12_" class="st0" d="M63.2,18.4C59.7,8.7,54,7,49.6,7c-4.3,0-9,3.1-8.4,10.2c1.5,7,9.6,5.6,13.4,11.5
			c3.5,5.4,1.9,9.9,1.9,9.9S67,29.1,63.2,18.4"/>
	</g>
	<g id="XMLID_9_">
		<path id="XMLID_10_" class="st0" d="M9.9,10.5c-8.5,5.8-8.7,11.8-7.6,15.9c1.1,4.2,5.2,8,12,5.6c6.4-3.2,3-10.7,7.8-15.9
			c4.4-4.8,9.1-4.3,9.1-4.3S19.3,4.1,9.9,10.5"/>
	</g>
	<g id="XMLID_7_">
		<path id="XMLID_8_" class="st0" d="M43.5,42.2c-6.5-3-10.2,4.3-17.3,3.8c-6.5-0.5-9.1-4.4-9.1-4.4s1.3,14,12.2,17.4
			c9.8,3,14.6-0.5,17.2-3.9C49.2,51.6,49.6,46,43.5,42.2"/>
	</g>
	<path id="XMLID_3_" class="st0" d="M47.3,30.6L47.3,30.6c-0.4-1.8-2-3.2-4-3.2c-2.2,0-4.1,1.8-4.1,4.1c0,0.7,0.2,1.4,0.6,2H37
		l2.6-4.2l1.3-2h-6.5v2h2.8l-2.6,4.2l-0.1,0.1l-1.3-3h0c-0.4-1.8-2-3.2-4-3.2c-2.2,0-4.1,1.8-4.1,4.1c0,0.7,0.2,1.4,0.5,1.9
		c0,0-0.1,0-0.1,0c-1.1,0-1.9-0.9-1.9-1.9V29h2v-1.8h-2v-4.2h-2.1v8.4c0,2.2,1.8,4,4.1,4h3.6c1.3,0,2.4-0.6,3.2-1.5l0.7,1.5h0.3h2
		h7.4l-0.1-0.1c0.2,0,0.4,0.1,0.6,0.1c1.3,0,2.4-0.6,3.2-1.5l0.7,1.5h2.3L47.3,30.6z M29.3,33.4c-1.1,0-1.9-0.9-1.9-1.9
		c0-1.1,0.9-2,1.9-2c1.1,0,2,0.9,2,2C31.3,32.5,30.4,33.4,29.3,33.4 M43.3,33.4c-1.1,0-1.9-0.9-1.9-1.9c0-1.1,0.9-2,1.9-2
		c1.1,0,2,0.9,2,2C45.3,32.5,44.4,33.4,43.3,33.4"/>
</g>
</svg>
