<?xml version="1.0" encoding="utf-8"?>
<!-- Generator: Adobe Illustrator 19.2.1, SVG Export Plug-In . SVG Version: 6.00 Build 0)  -->
<svg version="1.1" id="Layer_1" xmlns="http://www.w3.org/2000/svg" xmlns:xlink="http://www.w3.org/1999/xlink" x="0px" y="0px"
	 viewBox="0 0 30 30" style="enable-background:new 0 0 30 30;" xml:space="preserve">
<style type="text/css">
	.st0{opacity:0.21;fill:none;stroke:#000000;stroke-miterlimit:10;enable-background:new    ;}
	.st1{fill:#FFD900;}
	.st2{enable-background:new    ;}
	.st3{fill:#0091D4;}
</style>
<circle id="XMLID_6_" class="st0" cx="11.8" cy="11.8" r="11"/>
<polygon id="XMLID_5_" class="st1" points="21.5,2.5 23,5.5 26.4,6 23.9,8.4 24.5,11.8 21.5,10.2 18.4,11.8 19,8.4 16.5,6 20,5.5 
	"/>
<g id="XMLID_2_" class="st2">
	<path id="XMLID_3_" class="st3" d="M12.4,10.4c1.1,0,2,0.3,2.6,0.9c0.7,0.6,1,1.5,1,2.5c0,1.3-0.4,2.3-1.2,2.9
		c-0.8,0.7-1.9,1-3.4,1c-1.3,0-2.3-0.2-3.1-0.6V15c0.4,0.2,0.9,0.4,1.4,0.5s1.1,0.2,1.6,0.2c1.5,0,2.2-0.6,2.2-1.8s-0.8-1.7-2.3-1.7
		c-0.3,0-0.6,0-0.9,0.1c-0.3,0.1-0.6,0.1-0.8,0.2l-1-0.5l0.4-5.8h6.2v2H11l-0.2,2.2l0.3-0.1C11.6,10.4,11.9,10.4,12.4,10.4z"/>
</g>
</svg>
