<?xml version="1.0" encoding="utf-8"?>
<!-- Generator: Adobe Illustrator 19.0.0, SVG Export Plug-In . SVG Version: 6.00 Build 0)  -->
<svg version="1.1" id="Layer_1" xmlns="http://www.w3.org/2000/svg" xmlns:xlink="http://www.w3.org/1999/xlink" x="0px" y="0px"
	 viewBox="0 0 190 190" style="enable-background:new 0 0 190 190;" xml:space="preserve">
<style type="text/css">
	.st0{display:none;}
	.st1{display:inline;opacity:0.11;fill:#A2C440;}
	.st2{display:inline;fill:#A2C440;}
	.st3{display:inline;fill:#82A41E;}
	.st4{display:inline;fill:#FFFFFF;}
	.st5{display:inline;}
	.st6{fill:#A2C440;}
	.st7{fill:#82A41E;}
	.st8{fill:#FFFFFF;}
	.st9{opacity:0.11;fill:#A2C440;}
</style>
<g id="XMLID_2_" class="st0">
	<path class="st1" d="M190.1,95c0,52.5-42.6,95-95,95C42.6,190.1,0,147.5,0,95C0,42.5,42.6,0,95,0C147.5,0,190.1,42.5,190.1,95"/>
	<path class="st2" d="M176.1,95c0,44.8-36.3,81-81,81c-44.8,0-81-36.3-81-81c0-44.8,36.3-81,81-81C139.8,14,176.1,50.3,176.1,95"/>
	<path class="st3" d="M170.8,123.9L107.9,61l-4.4,20.4L80.2,99.6l-8.1,34.6l40.1,40.1C139.2,168.5,161.1,149.2,170.8,123.9"/>
	<path class="st4" d="M97.1,124.6v4.6h-4.4l0-4.3c-3-0.1-6-1-7.7-1.9l1.4-5.3c1.9,1,4.6,2,7.5,2c2.6,0,4.4-1,4.4-2.8
		c0-1.7-1.5-2.8-4.8-4c-4.9-1.6-8.2-3.9-8.2-8.3c0-4,2.8-7.1,7.7-8.1v-4.3h4.5v4c3,0.1,5.1,0.8,6.6,1.5l-1.3,5.1
		c-1.2-0.5-3.3-1.5-6.5-1.5c-3,0-3.9,1.3-3.9,2.5c0,1.5,1.6,2.4,5.4,3.9c5.4,1.9,7.6,4.4,7.6,8.5
		C105.2,120.3,102.3,123.7,97.1,124.6 M120.5,89.8c0-4.8-1.1-7-1.1-7l-0.7-1.6c0,0-4.8-10.7-7.2-16.2c-2.4-5.4-8.4-5.4-8.4-5.4h-7.1
		c0.5,3.1,1.4,8.3,2.7,11.8c2.3,1.3,3.9,3.7,3.9,6.5c0,4.1-3.3,7.4-7.4,7.4c-4.1,0-7.4-3.3-7.4-7.4c0-2.6,1.3-4.8,3.3-6.1
		c0.8,2.7,1.5,4.8,1.9,5.8c0.3,1,1.3,1.6,2.3,1.6c0.3,0,0.5,0,0.8-0.1c1.3-0.4,1.9-1.8,1.5-3c-0.6-1.7-1.2-3.6-1.8-5.5h0
		c0,0,0,0,0,0c0,0,0-0.1,0-0.1c-0.2-0.6-1.3-4.7-2.1-8c-1.7-7.6-2.5-14.8-0.8-17.3c0.3-0.4,0.6-0.6,1.1-0.6c0.4,0,0.5,0.1,0.7,0.2
		c1.1,1.3,1.2,5.4,0.8,7.8c-0.2,1.3,0.7,2.5,2,2.7c1.3,0.2,2.5-0.7,2.7-2c0.2-1.4,1-8.4-2-11.7c-1.2-1.3-2.7-1.9-4.5-1.8
		c-2,0.1-3.7,1-4.8,2.7c-2.4,3.5-2,10.4-0.7,17.2h-0.8c0,0-6,0-8.4,5.4c-0.6,1.4-1.4,3.2-2.3,5.1l-4.1,9.2c-0.5,1.1-0.8,1.8-0.8,1.8
		l-0.7,1.6c0,0-1.1,2.2-1.1,7c0,0.4,0,0.9,0,1.5v4.1h0c0,11,0,33.1,0,33.1s0.4,8.8,11,8.8c10.6,0,14.4,0,14.4,0h14.4
		c10.6,0,11-8.8,11-8.8S120.5,94.6,120.5,89.8"/>
</g>
<g id="XMLID_1_" class="st0">
	<path class="st1" d="M190.1,95c0,52.5-42.6,95-95,95C42.6,190,0,147.4,0,95c0-52.5,42.6-95,95.1-95C147.5-0.1,190.1,42.5,190.1,95"
		/>
	<g class="st5">
		<path class="st6" d="M176,95c0,44.8-36.3,81-81,81c-44.8,0-81-36.3-81-81c0-44.8,36.3-81,81-81C139.7,14,176,50.3,176,95"/>
		<path class="st7" d="M124.1,170.7c23.5-9.1,41.8-28.8,48.8-53.3l-30.7-30.7L140.8,97l0.3,28.7l-60.6,1.4L124.1,170.7z"/>
		<path class="st8" d="M139.1,95.8H83.9v-4.4c0-0.7,0.6-1.3,1.3-1.3h52.6c0.7,0,1.3,0.6,1.3,1.3V95.8z M139.1,122.6
			c0,0.7-0.6,1.3-1.3,1.3H85.2c-0.7,0-1.3-0.6-1.3-1.3v-17.5h55.2V122.6z M137.8,85H85.2c-3.6,0-6.5,2.9-6.5,6.5v31.2
			c0,3.6,2.9,6.5,6.5,6.5h52.6c3.6,0,6.5-2.9,6.5-6.5V91.4C144.2,87.9,141.4,85,137.8,85"/>
		<path class="st8" d="M90.8,113.6h26.1c1,0,1.8-0.8,1.8-1.8c0-1-0.8-1.8-1.8-1.8H90.8c-1,0-1.8,0.8-1.8,1.8
			C89,112.8,89.8,113.6,90.8,113.6"/>
		<path class="st8" d="M56.4,96.1l-2.2-6.2c-0.6-1.7,0.3-3.5,1.9-4.1l7.4-2.7c1.7-0.6,3.5,0.3,4.1,1.9l2.2,6.2
			c0.6,1.7-0.3,3.5-1.9,4.1L60.6,98C58.9,98.6,57,97.8,56.4,96.1 M74.2,106.3l-10.8,3.9c-0.9,0.3-2-0.1-2.3-1.1
			c-0.3-0.9,0.1-2,1.1-2.3l12-4.4v-11c0-6.1,4.9-11,11-11h28l-5.5-15.2c-1.2-3.4-4.9-5.1-8.3-3.9l-49.5,18c-3.4,1.2-5.1,4.9-3.9,8.3
			l10.6,29.3c1.2,3.4,4.9,5.1,8.3,3.9l9.2-3.3V106.3z"/>
	</g>
</g>
<g>
	<path class="st9" d="M190.1,95c0,52.5-42.6,95-95,95C42.6,190.1,0,147.5,0,95C0,42.5,42.6,0,95,0C147.5,0,190.1,42.5,190.1,95"/>
	<g>
		<path class="st6" d="M176.1,95c0,44.8-36.3,81-81,81c-44.8,0-81-36.3-81-81c0-44.8,36.3-81,81-81C139.8,14,176.1,50.3,176.1,95"/>
		<path class="st7" d="M113.1,174.1c27.4-6.3,49.5-26.4,58.6-52.7l-48.6-48.6l-1.2,15.5l-0.5,38.6l-54.1,1.3L113.1,174.1z"/>
		<path class="st8" d="M79.9,75.7h2.6c1.1,0,1.9-0.9,1.9-1.9V62.2c0-1.1-0.9-1.9-1.9-1.9h-2.6c-1.1,0-1.9,0.9-1.9,1.9v11.7
			C78,74.9,78.8,75.7,79.9,75.7"/>
		<path class="st8" d="M107.2,75.7h2.6c1.1,0,1.9-0.9,1.9-1.9V62.2c0-1.1-0.9-1.9-1.9-1.9h-2.6c-1.1,0-1.9,0.9-1.9,1.9v11.7
			C105.2,74.9,106.1,75.7,107.2,75.7"/>
		<path class="st8" d="M118.8,123.5c0,1.1-0.9,1.9-1.9,1.9H73.3c-1.1,0-1.9-0.9-1.9-1.9V86.1h47.5V123.5z M118.8,70.8h-3.2v3
			c0,3.2-2.6,5.8-5.8,5.8h-2.6c-3.2,0-5.8-2.6-5.8-5.8v-3H88.3v3c0,3.2-2.6,5.8-5.8,5.8h-2.6c-3.2,0-5.8-2.6-5.8-5.8v-3h-2.8
			c-3.2,0-5.8,2.6-5.8,5.8v47.4c0,3.2,2.6,5.8,5.8,5.8h47.5c3.2,0,5.8-2.6,5.8-5.8V76.6C124.6,73.4,122,70.8,118.8,70.8"/>
		<path class="st8" d="M90.8,116.4c0.5,0.8,1.4,1.2,2.3,1.3c0.1,0,0.1,0,0.2,0c0.9,0,1.7-0.4,2.3-1l15.2-17c1.1-1.3,1-3.2-0.2-4.3
			c-1.3-1.1-3.2-1-4.3,0.2l-12.6,14.1l-5.4-7.3c-1-1.4-2.9-1.7-4.3-0.7c-1.4,1-1.7,2.9-0.7,4.3L90.8,116.4z"/>
	</g>
</g>
</svg>
