<?xml version="1.0" encoding="utf-8"?>
<!-- Generator: Adobe Illustrator 19.2.1, SVG Export Plug-In . SVG Version: 6.00 Build 0)  -->
<svg version="1.1" id="Layer_1" xmlns="http://www.w3.org/2000/svg" xmlns:xlink="http://www.w3.org/1999/xlink" x="0px" y="0px"
	 viewBox="0 0 76 76" style="enable-background:new 0 0 76 76;" xml:space="preserve">
<style type="text/css">
	.st0{opacity:0.13;clip-path:url(#SVGID_2_);fill-rule:evenodd;clip-rule:evenodd;}
	.st1{fill:#FFFFFF;}
</style>
<g>
	<defs>
		<circle id="SVGID_1_" cx="38.3" cy="37.9" r="37.5"/>
	</defs>
	<clipPath id="SVGID_2_">
		<use xlink:href="#SVGID_1_"  style="overflow:visible;opacity:0.18;"/>
	</clipPath>
	<polygon class="st0" points="63.5,86 99.5,81 104.5,46 60,30 35.5,28 26.5,29 16,34 25,39 28,51 	"/>
	<use xlink:href="#SVGID_1_"  style="overflow:visible;opacity:0.18;fill:none;stroke:#FFFFFF;stroke-miterlimit:10;"/>
</g>
<g>
	<g>
		<path class="st1" d="M24.8,41.7v6.7c0,0,5.7,6.3,13.7,6.3c10.1,0,13.7-6.3,13.7-6.3v-7.3L40.3,48c-0.8,0.5-1.9,0.5-2.8,0.1
			L24.8,41.7z M24.8,41.7"/>
		<path class="st1" d="M38.8,33.7c-1.5,0-2.9-0.3-3.7-0.9l-14.2,4.9l16.9,8.4c0.9,0.4,1.9,0.4,2.8-0.1l19.6-11.4
			C61,34,61.5,33,61.5,32c0-1.1-0.6-2-1.6-2.5L39.6,19.3c-0.9-0.4-1.9-0.4-2.8,0.1L17.2,30.8c-0.9,0.5-1.5,1.5-1.4,2.6
			c0,1.1,0.6,2,1.6,2.5l0,10.4c-1,0.4-1.7,1.3-1.7,2.5c0,0.8,0.4,1.6,1,2.1c-0.2,1.4-0.9,2.5-1.7,3.2c-0.6,0.6-1,1.4-0.9,2.3
			c0.1,0.9,0.5,1.7,1.2,2.2l0.4,0.3c0.7,0.5,1.5,0.6,2.3,0.5c0.8-0.2,1.5-0.7,1.9-1.4c1.4-2.5,0.7-5.7,0.3-7.2
			c0.5-0.5,0.8-1.1,0.8-1.8c0-1.1-0.7-2.1-1.7-2.5l0-9.9l15.4-5.3c0.1-0.7,0.8-1.3,0.8-1.3c-0.1,0.2,0.1,2.3,3.3,2.3
			c1.9,0,3.4-0.6,3.4-1.8c0-0.2-0.1-0.5-0.1-0.7c0.5,0.7,0.8,1.4,0.8,2C42.7,33,41,33.7,38.8,33.7L38.8,33.7z M38.8,33.7"/>
	</g>
</g>
</svg>
