<?xml version="1.0" encoding="utf-8"?>
<!-- Generator: Adobe Illustrator 19.2.1, SVG Export Plug-In . SVG Version: 6.00 Build 0)  -->
<svg version="1.1" id="Layer_1" xmlns="http://www.w3.org/2000/svg" xmlns:xlink="http://www.w3.org/1999/xlink" x="0px" y="0px"
	 viewBox="0 0 76 76" style="enable-background:new 0 0 76 76;" xml:space="preserve">
<style type="text/css">
	.st0{fill:#FFFFFF;}
</style>
<g>
	<g>
		<path class="st0" d="M25.8,40.7v6.7c0,0,5.7,6.3,13.7,6.3c10.1,0,13.7-6.3,13.7-6.3v-7.3L41.3,47c-0.8,0.5-1.9,0.5-2.8,0.1
			L25.8,40.7z"/>
		<path class="st0" d="M39.8,32.7c-1.5,0-2.9-0.3-3.7-0.9l-14.2,4.9l16.9,8.4c0.9,0.4,1.9,0.4,2.8-0.1l19.6-11.4
			C62,33,62.5,32,62.5,31c0-1.1-0.6-2-1.6-2.5L40.6,18.3c-0.9-0.4-1.9-0.4-2.8,0.1L18.2,29.8c-0.9,0.5-1.5,1.5-1.4,2.6
			c0,1.1,0.6,2,1.6,2.5v10.4c-1,0.4-1.7,1.3-1.7,2.5c0,0.8,0.4,1.6,1,2.1c-0.2,1.4-0.9,2.5-1.7,3.2c-0.6,0.6-1,1.4-0.9,2.3
			c0.1,0.9,0.5,1.7,1.2,2.2l0.4,0.3c0.7,0.5,1.5,0.6,2.3,0.5c0.8-0.2,1.5-0.7,1.9-1.4c1.4-2.5,0.7-5.7,0.3-7.2
			c0.5-0.5,0.8-1.1,0.8-1.8c0-1.1-0.7-2.1-1.7-2.5v-9.9l15.4-5.3c0.1-0.7,0.8-1.3,0.8-1.3c-0.1,0.2,0.1,2.3,3.3,2.3
			c1.9,0,3.4-0.6,3.4-1.8c0-0.2-0.1-0.5-0.1-0.7c0.5,0.7,0.8,1.4,0.8,2C43.7,32,42,32.7,39.8,32.7L39.8,32.7z"/>
	</g>
</g>
</svg>
