<?xml version="1.0" encoding="utf-8"?>
<!-- Generator: Adobe Illustrator 19.2.1, SVG Export Plug-In . SVG Version: 6.00 Build 0)  -->
<svg version="1.1" id="Layer_1" xmlns="http://www.w3.org/2000/svg" xmlns:xlink="http://www.w3.org/1999/xlink" x="0px" y="0px"
	 viewBox="0 0 76 76" style="enable-background:new 0 0 76 76;" xml:space="preserve">
<style type="text/css">
	.st0{fill:#FFFFFF;}
</style>
<g>
	<circle class="st0" cx="59.7" cy="23.7" r="2.7"/>
	<path class="st0" d="M69.1,49.8l-2.4-5.1l-2.2-6.2l-1.3-10c-0.1-1-1.1-1.8-2.1-1.6l-1.9,0.2c-0.3,0-0.5,0.1-0.7,0.3l0,0L53,28.9
		c-0.2-0.1-0.5-0.2-0.8-0.2h-4.4v0.7c0.6,0.4,1,1,1,1.8c0,1.2-0.9,2.1-2.1,2.1c-1.2,0-2.1-0.9-2.1-2.1c0-0.7,0.4-1.4,1-1.8v-0.7
		h-4.4c-1,0-1.9,0.8-1.9,1.9v4.5h-1.6c-0.3-0.5-0.9-0.8-1.5-0.8c-1,0-1.7,0.8-1.7,1.8s0.8,1.7,1.7,1.7c0.6,0,1.2-0.3,1.5-0.8h1.6
		v4.5c0,1,0.8,1.9,1.9,1.9h4.2v-1.2c-0.6-0.4-1-1-1-1.8c0-1.2,0.9-2.1,2.1-2.1c1.2,0,2.1,0.9,2.1,2.1c0,0.7-0.4,1.4-1,1.8v1.2h4.5
		c1,0,1.9-0.8,1.9-1.9v-4.4h-1c-0.4,0.6-1,1-1.8,1c-1.2,0-2.1-0.9-2.1-2.1c0-1.2,0.9-2.1,2.1-2.1c0.7,0,1.4,0.4,1.8,1h1v-0.4
		l0.7,0.1c0.1,0,0.2,0,0.2,0l0,0c0.3,0,0.5-0.1,0.7-0.3l2.2-2.8l1,7.9c0,0.1,0.1,0.3,0.1,0.4l-2.8,4.4C56,44.3,56,44.5,56,44.7
		c0,0.1,0,0.2,0,0.3l1.5,5.6c0.1,0.4,0.7,0.6,1.4,0.5c0.6-0.2,1.1-0.7,0.9-1.1l-1.4-5l2.5-3.9l1.7-0.2l1.6,4.5v0.1l1.2,2.6l1.3,2.7
		c0.2,0.4,0.8,0.5,1.4,0.2C69,50.8,69.3,50.2,69.1,49.8z M54.5,32.5L54,32.4v-1.7l2.4-0.7L54.5,32.5z"/>
	<circle class="st0" cx="18.4" cy="23.7" r="2.7"/>
	<path class="st0" d="M36.3,38.2c-1.2,0-2.1-0.9-2.1-2.1c0-1.2,0.9-2.1,2.1-2.1c0.7,0,1.4,0.4,1.8,1h1v-4.4c0-1-0.8-1.9-1.9-1.9
		h-4.4v0.7c0.6,0.4,1,1,1,1.8c0,1.2-0.9,2.1-2.1,2.1c-1.2,0-2.1-0.9-2.1-2.1c0-0.7,0.4-1.4,1-1.8v-0.7h-4.4c-0.3,0-0.6,0.1-0.9,0.2
		l-5.7-1.6l0,0c-0.2-0.1-0.5-0.2-0.7-0.3L17,26.9c-1-0.1-2,0.6-2.1,1.6l-1.3,10l-2.2,6.2L9,49.8c-0.2,0.4,0.1,1,0.7,1.3
		s1.2,0.2,1.4-0.2l1.3-2.7l1.2-2.6v-0.1l1.6-4.5l1.7,0.2l2.5,3.9l-1.4,5c-0.1,0.4,0.3,0.9,0.9,1.1c0.6,0.2,1.3,0,1.4-0.5L22,45
		c0-0.1,0-0.2,0-0.3c0-0.2,0-0.3-0.1-0.5l-2.8-4.4c0-0.1,0.1-0.3,0.1-0.4l1-7.9l2.2,2.8c0.2,0.2,0.4,0.3,0.7,0.3l0,0
		c0.1,0,0.2,0,0.2,0l1-0.1v7.1c0,1,0.8,1.9,1.9,1.9h4.2v-1.2c-0.6-0.4-1-1-1-1.8c0-1.2,0.9-2.1,2.1-2.1c1.2,0,2.1,0.9,2.1,2.1
		c0,0.7-0.4,1.4-1,1.8v1.2h4.5c1,0,1.9-0.8,1.9-1.9v-4.4h-1C37.7,37.8,37,38.2,36.3,38.2z M23.6,32.5l-1.9-2.4l2.6,0.7v1.6
		L23.6,32.5z"/>
</g>
</svg>
