<?xml version="1.0" encoding="utf-8"?>
<!-- Generator: Adobe Illustrator 19.2.1, SVG Export Plug-In . SVG Version: 6.00 Build 0)  -->
<svg version="1.1" id="Layer_1" xmlns="http://www.w3.org/2000/svg" xmlns:xlink="http://www.w3.org/1999/xlink" x="0px" y="0px"
	 viewBox="0 0 73.3 73.5" style="enable-background:new 0 0 73.3 73.5;" xml:space="preserve">
<style type="text/css">
	.st0{opacity:0.5;fill:none;stroke:#FFFFFF;stroke-miterlimit:10;}
	.st1{fill-rule:evenodd;clip-rule:evenodd;fill:#FFFFFF;}
</style>
<circle class="st0" cx="36.7" cy="36.8" r="36"/>
<g>
	<g>
		<path class="st1" d="M52.1,30.9L41.6,20.4c-0.5-0.5-1.3-0.7-2-0.6c-0.4,0.1-0.7,0.3-1,0.6c-0.2,0.2-0.4,0.5-0.5,0.9
			c-0.5,1.5-1.3,2.9-2.5,4.1c-1.6,1.6-3.7,2.9-6,4.2c-2.4,1.4-4.8,2.8-6.8,4.8C21,36,19.8,38,19.2,40.2c-0.2,0.7,0,1.6,0.5,2.1
			l10.5,10.5c0.5,0.5,1.3,0.7,2,0.6c0.4-0.1,0.7-0.3,1-0.6c0.2-0.2,0.4-0.5,0.5-0.9c0.5-1.5,1.3-2.9,2.5-4.1c1.6-1.6,3.7-2.9,6-4.2
			c2.4-1.4,4.8-2.8,6.8-4.8c1.7-1.7,2.9-3.6,3.6-5.8C52.8,32.3,52.6,31.4,52.1,30.9L52.1,30.9z M31.7,51.3c-3.5-3.5-7-7-10.5-10.5
			c3-9.7,15.9-9.2,18.9-18.9c3.5,3.5,7,7,10.5,10.5C47.6,42,34.7,41.6,31.7,51.3L31.7,51.3z M31.7,51.3"/>
	</g>
	<path class="st1" d="M39.6,35.4c-0.3-0.3-0.7-0.5-1-0.6c-0.3-0.1-0.7-0.1-1-0.1c-0.3,0-0.7,0.1-1,0.2c-0.4,0.1-0.7,0.3-1.1,0.5
		c-0.6-0.7-1.1-1.3-1.7-1.9c0.3-0.2,0.5-0.3,0.7-0.4c0.2,0,0.5,0,0.7,0.1s0.4,0.1,0.6,0.1c0.2,0,0.4,0,0.5-0.1
		c0.1-0.1,0.2-0.3,0.2-0.5c0-0.2-0.1-0.4-0.2-0.6c-0.2-0.3-0.5-0.4-0.8-0.5c-0.3-0.1-0.6-0.1-1,0c-0.3,0.1-0.6,0.2-0.9,0.4
		c-0.3,0.2-0.5,0.4-0.7,0.5c-0.1-0.1-0.1-0.1-0.2-0.2c-0.1-0.1-0.2-0.1-0.3-0.1s-0.2,0.1-0.3,0.1c-0.1,0.1-0.1,0.2-0.1,0.3
		c0,0.1,0.1,0.2,0.1,0.3c0.1,0.1,0.1,0.1,0.2,0.2c-0.3,0.3-0.5,0.7-0.7,1.1c-0.2,0.4-0.3,0.8-0.3,1.1c0,0.4,0,0.7,0.1,1
		c0.1,0.3,0.3,0.6,0.6,0.8c0.5,0.4,1.1,0.6,1.8,0.5c0.7,0,1.4-0.2,2.2-0.7c0.6,0.7,1.2,1.4,1.9,2.1c-0.3,0.2-0.5,0.3-0.7,0.4
		c-0.2,0-0.4,0-0.5,0c-0.2-0.1-0.3-0.1-0.5-0.2c-0.1-0.1-0.3-0.2-0.4-0.2c-0.1-0.1-0.3-0.1-0.4-0.1c-0.1,0-0.3,0.1-0.5,0.2
		c-0.2,0.1-0.3,0.3-0.3,0.5c0,0.2,0.1,0.4,0.3,0.6c0.2,0.2,0.4,0.4,0.7,0.5c0.3,0.1,0.6,0.2,0.9,0.2c0.3,0,0.7,0,1.1-0.2
		c0.4-0.1,0.8-0.4,1.2-0.8c0.2,0.2,0.4,0.3,0.6,0.5c0.1,0.1,0.2,0.1,0.3,0.1c0.1,0,0.2-0.1,0.3-0.1c0.1-0.1,0.1-0.2,0.1-0.3
		c0-0.1-0.1-0.2-0.1-0.3c-0.2-0.1-0.4-0.3-0.6-0.5c0.3-0.4,0.6-0.8,0.8-1.2c0.2-0.4,0.3-0.8,0.3-1.2c0-0.4,0-0.7-0.1-1
		C40.1,35.9,39.9,35.7,39.6,35.4L39.6,35.4z M33.7,36.1c-0.3,0-0.6-0.1-0.8-0.3c-0.1-0.1-0.2-0.2-0.2-0.3c0-0.1-0.1-0.3,0-0.4
		c0-0.2,0.1-0.3,0.1-0.5c0.1-0.2,0.2-0.3,0.3-0.5c0.5,0.5,1.1,1.1,1.6,1.7C34.4,36,34,36.1,33.7,36.1L33.7,36.1z M38.7,38.2
		c-0.1,0.2-0.2,0.3-0.3,0.5c-0.6-0.6-1.2-1.2-1.8-1.9c0.1-0.1,0.3-0.1,0.5-0.2c0.2-0.1,0.3-0.1,0.5-0.1c0.2,0,0.3,0,0.5,0
		c0.2,0,0.3,0.1,0.5,0.3c0.1,0.1,0.2,0.3,0.3,0.5c0,0.2,0,0.3,0,0.5C38.9,37.9,38.8,38.1,38.7,38.2L38.7,38.2z M38.7,38.2"/>
	<path class="st1" d="M34.5,43.1L34.5,43.1c-0.7,0.5-1.3,1-1.9,1.6c-0.6,0.6-1.1,1.2-1.5,1.8l-0.7,1c-0.1,0.2-0.1,0.5,0.1,0.7
		c0.2,0.2,0.5,0.2,0.7,0c0,0,0.1-0.1,0.1-0.1l0.7-0.9c0.4-0.6,0.9-1.1,1.4-1.7c0.6-0.6,1.1-1,1.8-1.5h0c0,0,0,0,0.1,0
		c0.2-0.2,0.2-0.5,0-0.7C35,42.9,34.7,42.9,34.5,43.1L34.5,43.1z M34.5,43.1"/>
	<path class="st1" d="M38.4,27.9c-0.5,0.5-1.1,1-1.8,1.5c0,0-0.1,0.1-0.1,0.1c-0.2,0.2-0.2,0.5,0,0.8c0.2,0.2,0.5,0.2,0.7,0l0,0
		c0.7-0.5,1.3-1,1.9-1.6c0.6-0.6,1.1-1.2,1.5-1.8l0.7-1c0.2-0.2,0.2-0.5,0-0.7c-0.2-0.2-0.5-0.2-0.7,0c0,0-0.1,0.1-0.1,0.1l-0.7,1
		C39.4,26.8,38.9,27.4,38.4,27.9L38.4,27.9z M38.4,27.9"/>
</g>
</svg>
