<?xml version="1.0" encoding="utf-8"?>
<!-- Generator: Adobe Illustrator 19.2.1, SVG Export Plug-In . SVG Version: 6.00 Build 0)  -->
<svg version="1.1" id="Layer_1" xmlns="http://www.w3.org/2000/svg" xmlns:xlink="http://www.w3.org/1999/xlink" x="0px" y="0px"
	 viewBox="0 0 73.3 73.5" style="enable-background:new 0 0 73.3 73.5;" xml:space="preserve">
<style type="text/css">
	.st0{opacity:0.5;fill:none;stroke:#FFFFFF;stroke-miterlimit:10;}
	.st1{fill:#FFFFFF;}
</style>
<circle class="st0" cx="37" cy="37" r="36"/>
<g>
	<path class="st1" d="M45.3,30.5c-4.7,2.9-8.1,6.5-9.5,8.2l-3.5-2.8c-0.1-0.1-2,1.7-2,1.7l6.4,6.6c0,0.1,0.1,0.1,0.2,0.1
		c0,0,0,0,0,0c0.1,0,0.2-0.1,0.2-0.2c1-2.7,4.5-8.2,8.8-12.2c0.1-0.1,0.1-0.2,0.1-0.3C46.1,31.5,45.4,30.4,45.3,30.5L45.3,30.5z
		 M45.3,30.5"/>
	<path class="st1" d="M49.5,24.7c-9.8,0-11.4-3.7-11.4-3.7c-0.1-0.2-0.2-0.3-0.4-0.3h0c-0.2,0-0.4,0.1-0.5,0.3c0,0-1.7,3.7-11.4,3.7
		c-0.3,0-0.5,0.2-0.5,0.5v16.6c0,6.8,11.7,12,12.2,12.2c0.1,0,0.1,0,0.2,0c0.1,0,0.1,0,0.2,0C38.3,53.7,50,48.6,50,41.8V25.2
		C50,24.9,49.8,24.7,49.5,24.7L49.5,24.7z M47.3,40.8c0,5.3-9.1,9.4-9.5,9.5c0,0-0.1,0-0.2,0s-0.1,0-0.2,0c-0.4-0.2-9.5-4.2-9.5-9.5
		v-13c0-0.2,0.2-0.4,0.4-0.4c7.6,0,8.9-2.9,8.9-2.9c0.1-0.1,0.2-0.2,0.3-0.2h0c0.2,0,0.3,0.1,0.3,0.2c0,0,1.3,2.9,8.9,2.9
		c0.2,0,0.4,0.2,0.4,0.4V40.8z M47.3,40.8"/>
</g>
</svg>
