<?xml version="1.0" encoding="utf-8"?>
<!-- Generator: Adobe Illustrator 19.2.1, SVG Export Plug-In . SVG Version: 6.00 Build 0)  -->
<svg version="1.1" id="Layer_1" xmlns="http://www.w3.org/2000/svg" xmlns:xlink="http://www.w3.org/1999/xlink" x="0px" y="0px"
	 viewBox="0 0 73.3 73.5" style="enable-background:new 0 0 73.3 73.5;" xml:space="preserve">
<style type="text/css">
	.st0{opacity:0.5;fill:none;stroke:#FFFFFF;stroke-miterlimit:10;}
	.st1{fill:#FFFFFF;}
</style>
<circle class="st0" cx="37" cy="37" r="36"/>
<g>
	<g>
		<path class="st1" d="M48.2,25.2c-0.5-0.5-1.3-0.5-1.8,0c-0.5,0.5-0.5,1.3,0,1.8c2.6,2.6,4.1,6.2,4.1,9.9c0,3.7-1.5,7.3-4.1,9.9
			c-5.5,5.5-14.3,5.5-19.8,0c-2.6-2.6-4.1-6.2-4.1-9.9c0-3.7,1.5-7.3,4.1-9.9c2-2,4.6-3.4,7.4-3.9l-1.9,2.8
			c-0.4,0.6-0.2,1.3,0.3,1.7c0.2,0.1,0.5,0.2,0.7,0.2c0.4,0,0.8-0.2,1-0.5l3.4-4.9c0,0,0,0,0,0c0.4-0.6,0.2-1.3-0.3-1.7l-4.9-3.3
			c-0.6-0.4-1.3-0.2-1.7,0.3c-0.4,0.6-0.2,1.3,0.3,1.7l2.1,1.4c-3.1,0.7-5.9,2.2-8.2,4.5c-3.1,3.1-4.8,7.3-4.8,11.7
			c0,4.4,1.7,8.5,4.8,11.7c3.2,3.2,7.4,4.8,11.7,4.8c4.2,0,8.4-1.6,11.7-4.8c3.1-3.1,4.8-7.3,4.8-11.7C53,32.4,51.3,28.3,48.2,25.2
			L48.2,25.2z M48.2,25.2"/>
	</g>
	<path class="st1" d="M35.2,34.6c0-2.3-1.8-4.1-4.1-4.1c-2.3,0-4.1,1.8-4.1,4.1c0,0.7,0.6,1.2,1.2,1.2c0.7,0,1.2-0.6,1.2-1.2
		c0-0.9,0.7-1.6,1.6-1.6c0.9,0,1.6,0.7,1.6,1.6c0,0.4-0.2,0.8-0.5,1.1c0,0,0,0,0,0l-4.8,5.4c-0.3,0.4-0.4,0.9-0.2,1.3
		c0.2,0.5,0.6,0.7,1.1,0.7H34c0.7,0,1.2-0.6,1.2-1.2c0-0.7-0.6-1.2-1.2-1.2h-2.9l2.9-3.3C34.8,36.7,35.2,35.6,35.2,34.6L35.2,34.6z
		 M35.2,34.6"/>
	<path class="st1" d="M36.5,39.9c0.2,0.4,0.6,0.7,1.1,0.7H42v1.4c0,0.7,0.6,1.2,1.2,1.2c0.7,0,1.2-0.6,1.2-1.2v-1.4h0.2
		c0.7,0,1.2-0.6,1.2-1.2c0-0.7-0.6-1.2-1.2-1.2h-0.2v-6.3c0-0.5-0.3-1-0.9-1.2c-0.5-0.2-1.1,0-1.4,0.4l-5.6,7.6
		C36.4,39,36.3,39.5,36.5,39.9L36.5,39.9z M42,35.5v2.6h-1.9L42,35.5z M42,35.5"/>
</g>
</svg>
