<?xml version="1.0" encoding="utf-8"?>
<!-- Generator: Adobe Illustrator 19.2.1, SVG Export Plug-In . SVG Version: 6.00 Build 0)  -->
<svg version="1.1" id="Layer_1" xmlns="http://www.w3.org/2000/svg" xmlns:xlink="http://www.w3.org/1999/xlink" x="0px" y="0px"
	 viewBox="0 0 26 26" style="enable-background:new 0 0 26 26;" xml:space="preserve">
<style type="text/css">
	.st0{opacity:0.11;}
	.st1{fill:#FFFFFF;}
</style>
<circle class="st0" cx="13" cy="13" r="12"/>
<g>
	<path class="st1" d="M9.4,12c0,0.6-0.2,1-0.6,1.3s-1,0.5-1.7,0.5H6.4V16H5.8v-5.7h1.5C8.7,10.3,9.4,10.8,9.4,12z M6.4,13.2H7
		c0.6,0,1-0.1,1.3-0.3s0.4-0.5,0.4-0.9c0-0.4-0.1-0.7-0.4-0.8s-0.6-0.3-1.2-0.3H6.4V13.2z"/>
	<path class="st1" d="M15.5,13.1c0,0.9-0.3,1.7-0.8,2.2S13.5,16,12.5,16h-1.6v-5.7h1.8c0.9,0,1.6,0.2,2.1,0.7S15.5,12.2,15.5,13.1z
		 M14.8,13.1c0-0.7-0.2-1.3-0.6-1.7s-0.9-0.6-1.7-0.6h-1v4.6h0.8c0.8,0,1.4-0.2,1.8-0.6S14.8,13.9,14.8,13.1z"/>
	<path class="st1" d="M17.7,16h-0.7v-5.7h3.2v0.6h-2.5V13h2.4v0.6h-2.4V16z"/>
</g>
</svg>
