<?xml version="1.0" encoding="utf-8"?>
<!-- Generator: Adobe Illustrator 19.2.1, SVG Export Plug-In . SVG Version: 6.00 Build 0)  -->
<svg version="1.1" id="Layer_1" xmlns="http://www.w3.org/2000/svg" xmlns:xlink="http://www.w3.org/1999/xlink" x="0px" y="0px"
	 viewBox="0 0 110 110" style="enable-background:new 0 0 110 110;" xml:space="preserve">
<style type="text/css">
	.st0{fill-opacity:0.25;stroke:#F96D2F;stroke-miterlimit:10;}
	.st1{fill:#F96D2F;}
</style>
<circle class="st0" cx="54.5" cy="55.5" r="51.5"/>
<g>
	<path class="st1" d="M43.3,47.5c0.5,0,1,0.1,1.5,0.2c1.7-2,3.7-3.7,5.8-5.3c-0.1-0.4-0.1-0.8-0.1-1.2c0-0.5,0.1-1.1,0.3-1.6
		c-2.3-1.7-4.9-3.1-7.6-4.2c-2.5,1.6-4.8,3.6-6.5,6c1.3,2.3,2.9,4.5,4.7,6.5C41.8,47.7,42.6,47.5,43.3,47.5L43.3,47.5z M38.4,52.4
		c0-0.7,0.1-1.4,0.4-2c-1.6-1.8-3-3.6-4.3-5.6C32.9,48,32,51.5,32,55.3c0,4.4,1.2,8.4,3.3,11.9c0.7-4.2,2.2-8.2,4.1-11.8
		C38.8,54.6,38.4,53.6,38.4,52.4L38.4,52.4z M55.4,36.3c1.3,0,2.5,0.5,3.4,1.3c2.6-1.1,5.3-2,8.1-2.5c-3.4-2-7.4-3.1-11.6-3.1
		c-2.9,0-5.6,0.5-8.2,1.5c2,1,4,2.2,5.8,3.5C53.6,36.5,54.5,36.3,55.4,36.3L55.4,36.3z M62.8,59.6c0.3-0.6,0.7-1.2,1.3-1.7
		c-1.5-4.5-3.8-8.6-6.8-12.2c-0.6,0.3-1.2,0.4-1.9,0.4c-1.1,0-2.1-0.3-2.9-0.9c-1.8,1.4-3.5,2.9-5,4.6c0.5,0.8,0.8,1.7,0.8,2.6
		c0,0.5-0.1,1-0.2,1.5C52.4,56.8,57.4,58.8,62.8,59.6L62.8,59.6z M69.2,66.3c0.1,0.9,0.1,1.9,0.1,2.8c0,1.7-0.1,3.3-0.3,5
		c3.9-2.9,7-7,8.5-11.7c-1.8,0.4-3.6,0.7-5.5,0.9C71.5,64.7,70.5,65.8,69.2,66.3L69.2,66.3z M61.6,63c-5.8-1-11.1-3.1-15.7-6.3
		c-0.8,0.5-1.6,0.7-2.6,0.7c-0.3,0-0.7,0-1-0.1c-2.2,4.2-3.6,8.9-4.1,13.9c2.2,2.4,4.9,4.3,8,5.6C50,71,55.3,66.2,61.6,63L61.6,63z
		 M70.9,38c-3.7,0.4-7.3,1.3-10.6,2.7c0,0.2,0,0.3,0,0.5c0,0.8-0.2,1.5-0.5,2.2c3.3,3.9,5.9,8.4,7.5,13.4c2,0,3.7,1.3,4.5,3
		c2.2-0.2,4.4-0.7,6.5-1.3c0.1-1.1,0.2-2.2,0.2-3.3C78.6,48.5,75.6,42.3,70.9,38L70.9,38z M64.1,65.6c-5.9,2.8-10.9,7.1-14.5,12.3
		c1.8,0.5,3.7,0.7,5.7,0.7c3.5,0,6.8-0.8,9.8-2.2c0.5-2.3,0.7-4.8,0.7-7.3c0-0.9,0-1.8-0.1-2.7C65.2,66.3,64.6,66,64.1,65.6
		L64.1,65.6z M64.1,65.6"/>
</g>
</svg>
