<?xml version="1.0" encoding="utf-8"?>
<!-- Generator: Adobe Illustrator 19.2.1, SVG Export Plug-In . SVG Version: 6.00 Build 0)  -->
<svg version="1.1" id="Layer_1" xmlns="http://www.w3.org/2000/svg" xmlns:xlink="http://www.w3.org/1999/xlink" x="0px" y="0px"
	 viewBox="0 0 110 110" style="enable-background:new 0 0 110 110;" xml:space="preserve">
<style type="text/css">
	.st0{fill-opacity:0.25;stroke:#F96D2F;stroke-miterlimit:10;}
	.st1{fill:#F96D2F;}
</style>
<circle class="st0" cx="54.5" cy="55.5" r="51.5"/>
<g>
	<g>
		<path class="st1" d="M72.3,67.8l-5.8-5.9c-0.5-0.5-1.1-0.7-1.8-0.7c-0.7,0-1.4,0.3-1.9,0.8l-3.2,3.2l-0.9-0.5
			c-1.9-1-4.4-2.5-7.2-5.2c-2.7-2.7-4.2-5.3-5.2-7.2l-0.5-0.8l3.2-3.2c1-1.1,1.1-2.7,0.1-3.7l-5.8-5.8c-0.5-0.5-1.1-0.7-1.8-0.7
			c-0.7,0-1.4,0.3-1.9,0.8l-1.4,1.4l-0.1,0.2c-0.5,0.7-1,1.5-1.3,2.3c-0.3,0.8-0.5,1.6-0.6,2.3c-0.8,6.3,2.1,12,10,19.9
			c9.3,9.3,17.1,10,19.2,10c0.4,0,0.6,0,0.7,0c0.8-0.1,1.6-0.3,2.3-0.6c0.8-0.3,1.6-0.8,2.3-1.3l0.3-0.3l1.3-1.3
			C73.2,70.5,73.3,68.8,72.3,67.8L72.3,67.8z M72.3,67.8"/>
		<path class="st1" d="M56.9,54.2c1,0,9.3-1.2,9.6-1.2c0.1,0,0.6,0,0.9-0.3c0.2-0.2,0.3-0.5-0.2-1.1l-2-2l7.3-7.3
			c0.2-0.2,0.4-0.6-0.1-1.1l-3.4-3.4c-0.2-0.2-0.5-0.4-0.7-0.4c-0.2,0-0.4,0.1-0.5,0.2c0,0-0.1,0.1-0.1,0.1L60.2,45L58,42.8
			c-0.5-0.5-0.8-0.3-0.9-0.2c-0.3,0.3-0.3,0.8-0.3,0.9l-0.9,9.6c0,0,0,0.5,0.3,0.8C56.3,54.1,56.5,54.2,56.9,54.2L56.9,54.2z
			 M56.9,54.2"/>
	</g>
</g>
</svg>
