<?xml version="1.0" encoding="utf-8"?>
<!-- Generator: Adobe Illustrator 19.2.1, SVG Export Plug-In . SVG Version: 6.00 Build 0)  -->
<svg version="1.1" id="Layer_1" xmlns="http://www.w3.org/2000/svg" xmlns:xlink="http://www.w3.org/1999/xlink" x="0px" y="0px"
	 viewBox="0 0 110 110" style="enable-background:new 0 0 110 110;" xml:space="preserve">
<style type="text/css">
	.st0{fill-opacity:0.25;stroke:#F96D2F;stroke-miterlimit:10;}
	.st1{fill:#F96D2F;}
</style>
<circle class="st0" cx="54.5" cy="55.5" r="51.5"/>
<g>
	<path class="st1" d="M64,31H44.1c-2.4,0-4.3,1.9-4.3,4.3v39c0,2.4,1.9,4.3,4.3,4.3H64c2.4,0,4.3-1.9,4.3-4.3v-39
		C68.2,32.9,66.3,31,64,31L64,31z M54,76.2c-1.1,0-2-0.9-2-2c0-1.1,0.9-2,2-2c1.1,0,2,0.9,2,2C56,75.3,55.1,76.2,54,76.2L54,76.2z
		 M65.3,70.2H42.8V36.1h22.5V70.2z M47.2,50.4c-1.7-0.1-3-1.5-3-3.2v-1.9c0-1.8,1.4-3.2,3.2-3.2H58c1.8,0,3.2,1.4,3.2,3.2v1.9
		c0,1.8-1.4,3.2-3.2,3.2H52l-2.9,2.9c-0.2,0.2-0.5,0.3-0.8,0.3c-0.1,0-0.3,0-0.4-0.1c-0.4-0.2-0.7-0.6-0.7-1V50.4z M63.9,58.7v2.1
		c0,1.7-1.3,3.1-3,3.2v2.1c0,0.5-0.3,0.9-0.7,1c-0.1,0.1-0.3,0.1-0.4,0.1c-0.3,0-0.6-0.1-0.8-0.3L56,64.1h-5.9
		c-1.8,0-3.2-1.4-3.2-3.2v-2.1c0-1.8,1.4-3.2,3.2-3.2h10.6C62.4,55.5,63.9,57,63.9,58.7L63.9,58.7z M63.9,58.7"/>
</g>
</svg>
