<?xml version="1.0" encoding="utf-8"?>
<!-- Generator: Adobe Illustrator 19.2.1, SVG Export Plug-In . SVG Version: 6.00 Build 0)  -->
<svg version="1.1" id="Layer_1" xmlns="http://www.w3.org/2000/svg" xmlns:xlink="http://www.w3.org/1999/xlink" x="0px" y="0px"
	 viewBox="0 0 110 110" style="enable-background:new 0 0 110 110;" xml:space="preserve">
<style type="text/css">
	.st0{fill-opacity:0.25;stroke:#F96D2F;stroke-miterlimit:10;}
	.st1{fill:#F96D2F;}
</style>
<circle class="st0" cx="54.5" cy="55.5" r="51.5"/>
<g>
	<g>
		<path class="st1" d="M75.3,63.7c-0.8-0.1-2.6,0.9-3.1,1.1c-1.7,0.9-4.1,2.2-5.7,3.3c-0.1,0.1-0.3,0.2-0.4,0.2
			c-0.7,0.5-1.4,0.8-2.3,0.9c-4.6,1-11.2,1.1-11.2,1.1l-0.4,0c-0.3,0-0.6-0.2-0.6-0.5c0-0.3,0.2-0.6,0.5-0.6l9.9-0.9
			c1.1-0.1,2-1.1,1.8-2.3c-0.1-1.1-1.2-2-2.3-1.9l-8.8-0.1c-0.6,0-1.6-0.2-2.1-0.3c-5.7-1.7-8.9-0.1-10.5,0.6c-0.4-0.6-1.1-1-1.9-1
			l-3.8,0.2c-1.3,0.1-2.2,1.1-2.1,2.4l0.6,8.4c0.1,1.2,1.2,2.1,2.4,2l3.8-0.2c0.8-0.1,1.4-0.5,1.7-1.2l16.6,0.7
			c1.9,0.2,3.6,0,5.2-0.9l0.5-0.2l12.6-7.4c0.6-0.4,1.1-1,1.1-1.7C77,64.7,76.5,63.8,75.3,63.7L75.3,63.7z M36.9,74.5
			c-0.7,0-1.3-0.6-1.3-1.2c0-0.7,0.6-1.2,1.3-1.2c0.7,0,1.3,0.6,1.3,1.2C38.2,74,37.6,74.5,36.9,74.5L36.9,74.5z M36.9,74.5"/>
	</g>
	<path class="st1" d="M66.4,66.3c1.3-0.9,3.9-2.3,5.4-3.1c0.5-0.2,0.9-0.5,1.4-0.6c-0.6-0.4-1.3-0.5-2.1-0.2c-1.4,0.6-4,1.8-5.3,2.5
		c0,0,0,0,0,0.1c0.1,0.3,0.2,0.6,0.2,0.9c0,0.2,0,0.5,0,0.7C66.1,66.5,66.3,66.4,66.4,66.3L66.4,66.3z M66.4,66.3"/>
	<path class="st1" d="M69.8,61.6c-0.6-0.4-1.3-0.4-2-0.2c-0.9,0.3-2.8,1-3.7,1.4c0.4,0.2,0.7,0.5,1,0.8c0.1,0,0.1-0.1,0.2-0.1
		l0.6-0.4C66.8,62.8,68.8,62.1,69.8,61.6L69.8,61.6z M69.8,61.6"/>
	<path class="st1" d="M68.5,45.3c2.5-1,4.2-3.5,4.2-6.4c0-3.8-3.1-6.9-6.9-6.9c-3.8,0-6.9,3.1-6.9,6.9c0,0,0,0.1,0,0.1
		C63,39.5,66.5,41.9,68.5,45.3L68.5,45.3z M68.5,45.3"/>
	<path class="st1" d="M57.6,61.6c5.5,0,10-4.5,10-10c0-5.5-4.5-10-10-10c-5.5,0-10,4.5-10,10C47.6,57.1,52.1,61.6,57.6,61.6
		L57.6,61.6z M54.1,55.6c0.1-0.3,0.2-0.7,0.3-1c0.1-0.4,0.2-0.4,0.6-0.2c0.6,0.3,1.2,0.5,1.9,0.6c0.4,0.1,0.8,0,1.2-0.2
		c0.7-0.3,0.9-1.2,0.2-1.7c-0.2-0.2-0.5-0.3-0.7-0.4c-0.6-0.3-1.3-0.5-1.9-0.9c-1-0.6-1.6-1.4-1.5-2.6c0.1-1.4,0.9-2.2,2.1-2.7
		c0.5-0.2,0.5-0.2,0.5-0.7v-0.5c0-0.4,0.1-0.5,0.5-0.5h0.4c0.9,0,0.9,0,0.9,0.9c0,0.6,0,0.6,0.6,0.7c0.5,0.1,0.9,0.2,1.3,0.4
		c0.2,0.1,0.3,0.3,0.3,0.5c-0.1,0.4-0.2,0.7-0.3,1.1c-0.1,0.3-0.2,0.4-0.6,0.2c-0.7-0.3-1.4-0.5-2.1-0.4c-0.2,0-0.4,0-0.6,0.1
		c-0.6,0.3-0.7,1-0.2,1.4c0.3,0.2,0.6,0.4,0.9,0.5c0.6,0.2,1.1,0.5,1.7,0.8c1.7,0.9,2.2,3.1,1,4.6c-0.4,0.5-1,0.9-1.7,1.1
		c-0.3,0.1-0.4,0.2-0.4,0.5c0,0.3,0,0.6,0,0.9c0,0.3-0.1,0.4-0.4,0.4c-0.3,0-0.6,0-1,0c-0.3,0-0.4-0.2-0.4-0.4c0-0.2,0-0.4,0-0.6
		c0-0.5,0-0.5-0.5-0.6c-0.6-0.1-1.2-0.2-1.7-0.5C54,56.1,54,56,54.1,55.6L54.1,55.6z M54.1,55.6"/>
</g>
</svg>
