<?xml version="1.0" encoding="utf-8"?>
<!-- Generator: Adobe Illustrator 15.1.0, SVG Export Plug-In  -->
<!DOCTYPE svg PUBLIC "-//W3C//DTD SVG 1.1//EN" "http://www.w3.org/Graphics/SVG/1.1/DTD/svg11.dtd" [
	<!ENTITY ns_flows "http://ns.adobe.com/Flows/1.0/">
]>
<svg version="1.1"
	 xmlns="http://www.w3.org/2000/svg" xmlns:xlink="http://www.w3.org/1999/xlink" xmlns:a="http://ns.adobe.com/AdobeSVGViewerExtensions/3.0/"
	 x="0px" y="0px" width="80px" height="80px" viewBox="-2.025 -1.9 80 80" enable-background="new -2.025 -1.9 80 80"
	 xml:space="preserve">
<defs>
</defs>
<g>
	<defs>
		<circle id="SVGID_1_" cx="38" cy="38" r="37.5"/>
	</defs>
	<clipPath id="SVGID_2_">
		<use xlink:href="#SVGID_1_"  overflow="visible" opacity="0.18"/>
	</clipPath>
	<polygon opacity="0.13" clip-path="url(#SVGID_2_)" fill-rule="evenodd" clip-rule="evenodd" points="63.175,86.1 99.175,81.1 
		104.175,46.1 45.975,17.1 35.175,33.1 27.975,25.1 21.975,33.1 25.975,49.1 	"/>
	<use xlink:href="#SVGID_1_"  overflow="visible" opacity="0.18" fill="none" stroke="#FFFFFF" stroke-miterlimit="10"/>
</g>
<path fill="#FFFFFF" d="M51.112,20.76c-2,0.052-3.86-1.082-4.731-2.884c-0.285-0.584-0.935-0.893-1.566-0.736l-6.942,1.682
	l18.338,18.338l-3.722-15.344C52.333,21.184,51.761,20.741,51.112,20.76L51.112,20.76z M51.112,20.76"/>
<path fill="#FFFFFF" d="M57.496,41.944c0.35-0.548,0.276-1.267-0.184-1.727l-0.479-0.479L36.302,19.203l-0.995-0.995
	c-0.268-0.267-0.622-0.405-0.977-0.405c-0.258,0-0.516,0.073-0.746,0.222c-0.843,0.543-1.806,0.811-2.769,0.811
	s-1.93-0.272-2.769-0.811c-0.23-0.148-0.488-0.222-0.746-0.222c-0.355,0-0.709,0.139-0.977,0.405L15.38,29.144
	c-0.46,0.461-0.539,1.18-0.184,1.723c1.083,1.682,1.083,3.86,0,5.542c-0.35,0.548-0.276,1.262,0.184,1.723L37.389,60.14
	c0.268,0.268,0.622,0.405,0.977,0.405c0.258,0,0.516-0.073,0.746-0.221c0.843-0.544,1.806-0.812,2.769-0.812s1.93,0.272,2.768,0.812
	c0.23,0.147,0.488,0.221,0.747,0.221c0.354,0,0.709-0.138,0.977-0.405l10.935-10.936c0.46-0.461,0.535-1.184,0.18-1.732
	c-1.045-1.63-1.073-3.726-0.087-5.38C57.437,42.041,57.469,41.995,57.496,41.944L57.496,41.944z M46.639,35.63l-8.282,3.712
	l2.298,2.299h4.104c0.124,0,0.239,0.051,0.327,0.134l0.612,0.612c0.23,0.23,0.157,0.622-0.143,0.751l-3.667,1.57l-1.579,3.667
	c-0.129,0.3-0.521,0.373-0.751,0.143l-0.613-0.612c-0.087-0.088-0.133-0.203-0.133-0.327v-4.104l-2.299-2.299l-3.712,8.287
	c-0.134,0.295-0.516,0.364-0.746,0.139l-0.903-0.903c-0.101-0.101-0.147-0.239-0.133-0.382l1.354-11.276l-3.339-3.34
	c-0.037-0.037-0.069-0.083-0.092-0.134l-0.995-2.184c-0.175-0.387,0.221-0.787,0.608-0.607l2.183,0.995
	c0.051,0.022,0.097,0.055,0.134,0.092l3.339,3.34l11.276-1.354c0.139-0.019,0.281,0.032,0.382,0.134l0.903,0.902
	C47.003,35.108,46.934,35.496,46.639,35.63L46.639,35.63z M46.639,35.63"/>
</svg>
