<?xml version="1.0" encoding="utf-8"?>
<!-- Generator: Adobe Illustrator 15.1.0, SVG Export Plug-In  -->
<!DOCTYPE svg PUBLIC "-//W3C//DTD SVG 1.1//EN" "http://www.w3.org/Graphics/SVG/1.1/DTD/svg11.dtd" [
	<!ENTITY ns_flows "http://ns.adobe.com/Flows/1.0/">
]>
<svg version="1.1"
	 xmlns="http://www.w3.org/2000/svg" xmlns:xlink="http://www.w3.org/1999/xlink" xmlns:a="http://ns.adobe.com/AdobeSVGViewerExtensions/3.0/"
	 x="0px" y="0px" width="80px" height="80px" viewBox="-1.625 -1.9 80 80" enable-background="new -1.625 -1.9 80 80"
	 xml:space="preserve">
<defs>
</defs>
<g>
	<defs>
		<circle id="SVGID_1_" cx="38" cy="38" r="37.5"/>
	</defs>
	<clipPath id="SVGID_2_">
		<use xlink:href="#SVGID_1_"  overflow="visible"/>
	</clipPath>
	<polygon opacity="0.13" clip-path="url(#SVGID_2_)" fill-rule="evenodd" clip-rule="evenodd" points="63.175,86.1 99.175,81.1 
		104.375,50.1 55.375,20.1 44.375,26.1 22.375,18.1 16.375,33.1 29.375,49.1 27.375,59.1 	"/>
	<use xlink:href="#SVGID_1_"  overflow="visible" fill="none" stroke="#FFFFFF" stroke-miterlimit="10"/>
</g>
<path fill="#FFFFFF" d="M44.505,47.662H31.2c-2.455,0-4.486,2.045-4.486,4.501V59.1h22.219v-6.937
	C48.933,49.707,46.961,47.662,44.505,47.662L44.505,47.662z M44.505,47.662"/>
<path fill="#FFFFFF" d="M44.24,38.753c0,3.525-2.861,6.386-6.385,6.386c-3.527,0-6.386-2.86-6.386-6.386s2.86-6.387,6.386-6.387
	C41.378,32.366,44.24,35.228,44.24,38.753L44.24,38.753z M44.24,38.753"/>
<path fill="#FFFFFF" d="M28.175,30.408c0-1.354-1.095-2.449-2.45-2.449h-7.309c-1.355,0-2.476,1.096-2.476,2.449v3.83h12.235V30.408
	z M28.175,30.408"/>
<path fill="#FFFFFF" d="M25.579,23.033c0,1.938-1.567,3.512-3.513,3.512c-1.938,0-3.511-1.574-3.511-3.512
	c0-1.939,1.574-3.512,3.511-3.512C24.012,19.521,25.579,21.094,25.579,23.033L25.579,23.033z M25.579,23.033"/>
<path fill="#FFFFFF" d="M56.966,27.959H49.65c-1.348,0-2.437,1.096-2.437,2.456v3.831h12.162v-3.831
	C59.375,29.055,58.32,27.959,56.966,27.959L56.966,27.959z M56.966,27.959"/>
<path fill="#FFFFFF" d="M56.82,23.033c0,1.938-1.574,3.512-3.512,3.512c-1.938,0-3.511-1.574-3.511-3.512
	c0-1.939,1.573-3.512,3.511-3.512C55.246,19.521,56.82,21.094,56.82,23.033L56.82,23.033z M56.82,23.033"/>
<path fill="#FFFFFF" d="M32.443,28.224h11.239c0.77,0,1.401-0.61,1.401-1.386c0-0.777-0.631-1.389-1.401-1.389H32.443
	c-0.777,0-1.408,0.611-1.408,1.389C31.035,27.613,31.666,28.224,32.443,28.224L32.443,28.224z M32.443,28.224"/>
<path fill="#FFFFFF" d="M27.954,46.088c0.285,0,0.571-0.086,0.825-0.271c0.63-0.451,0.77-1.327,0.311-1.958l-5.123-7.077
	c-0.459-0.631-1.334-0.77-1.96-0.313c-0.629,0.452-0.769,1.335-0.31,1.958l5.117,7.084C27.091,45.882,27.523,46.088,27.954,46.088
	L27.954,46.088z M27.954,46.088"/>
<path fill="#FFFFFF" d="M52.571,36.602c-0.65-0.425-1.52-0.232-1.938,0.425l-4.421,6.897c-0.418,0.651-0.226,1.521,0.425,1.945
	c0.232,0.146,0.498,0.219,0.757,0.219c0.464,0,0.916-0.225,1.188-0.649l4.415-6.897C53.421,37.89,53.228,37.021,52.571,36.602
	L52.571,36.602z M52.571,36.602"/>
</svg>
