<?xml version="1.0" encoding="utf-8"?>
<!-- Generator: Adobe Illustrator 19.0.0, SVG Export Plug-In . SVG Version: 6.00 Build 0)  -->
<svg version="1.0" id="Layer_1" xmlns="http://www.w3.org/2000/svg" xmlns:xlink="http://www.w3.org/1999/xlink" x="0px" y="0px"
	 viewBox="0 0 60 45" style="enable-background:new 0 0 60 45;" xml:space="preserve">
<style type="text/css">
	.st0{opacity:0.7;}
	.st1{fill:#FFFFFF;}
</style>
<g class="st0">
	<path class="st1" d="M32.7,35.4h-7.3c-0.6,0-1,0.5-1,1c0,0.6,0.5,1,1,1h7.3c0.6,0,1-0.5,1-1C33.7,35.9,33.3,35.4,32.7,35.4
		L32.7,35.4z M32.7,35.4"/>
	<path class="st1" d="M27.2,41.4c0.1,0.9,0.9,1.6,1.9,1.6c1,0,1.7-0.7,1.9-1.6c1.3-0.1,2.2-1.1,2.2-2.4h-8.3
		C24.9,40.3,25.9,41.3,27.2,41.4L27.2,41.4z M27.2,41.4"/>
	<path class="st1" d="M29.1,7.8c0.8,0,1.4-0.6,1.4-1.4V3.2c0-0.8-0.6-1.4-1.4-1.4c-0.8,0-1.4,0.6-1.4,1.4v3.2
		C27.7,7.2,28.3,7.8,29.1,7.8L29.1,7.8z M29.1,7.8"/>
	<path class="st1" d="M20.1,9.8c0.3,0.4,0.7,0.6,1.1,0.6c0.3,0,0.6-0.1,0.8-0.3c0.6-0.4,0.7-1.3,0.3-1.9l-1.9-2.6
		C20,5,19.2,4.9,18.6,5.3c-0.6,0.4-0.7,1.3-0.3,1.9L20.1,9.8z M20.1,9.8"/>
	<g>
		<path class="st1" d="M38,29.8c-0.4-0.6-1.3-0.7-1.9-0.3c-0.6,0.4-0.7,1.3-0.3,1.9l1.9,2.6c0.3,0.4,0.7,0.6,1.1,0.6
			c0.3,0,0.6-0.1,0.8-0.3c0.6-0.4,0.7-1.3,0.3-1.9L38,29.8z M38,29.8"/>
		<path class="st1" d="M16.8,14.3l-3-1c-0.7-0.2-1.5,0.2-1.7,0.9c-0.2,0.7,0.2,1.5,0.9,1.7l3,1c0.1,0,0.3,0.1,0.4,0.1
			c0.6,0,1.1-0.4,1.3-0.9C17.9,15.4,17.5,14.6,16.8,14.3L16.8,14.3z M16.8,14.3"/>
		<path class="st1" d="M45.2,23.6l-3-1c-0.7-0.2-1.5,0.2-1.7,0.9c-0.2,0.7,0.2,1.5,0.9,1.7l3,1c0.1,0,0.3,0.1,0.4,0.1
			c0.6,0,1.1-0.4,1.3-0.9C46.3,24.6,45.9,23.8,45.2,23.6L45.2,23.6z M45.2,23.6"/>
		<path class="st1" d="M16,22.6l-3,1c-0.7,0.2-1.1,1-0.9,1.7c0.2,0.6,0.7,0.9,1.3,0.9c0.1,0,0.3,0,0.4-0.1l3-1
			c0.7-0.2,1.1-1,0.9-1.7C17.5,22.8,16.7,22.4,16,22.6L16,22.6z M16,22.6"/>
		<path class="st1" d="M41.8,17c0.1,0,0.3,0,0.4-0.1l3-1c0.7-0.2,1.1-1,0.9-1.7c-0.2-0.7-1-1.1-1.7-0.9l-3,1c-0.7,0.2-1.1,1-0.9,1.7
			C40.7,16.6,41.2,17,41.8,17L41.8,17z M41.8,17"/>
	</g>
	<path class="st1" d="M20.1,29.8l-1.9,2.6c-0.4,0.6-0.3,1.5,0.3,1.9c0.2,0.2,0.5,0.3,0.8,0.3c0.4,0,0.8-0.2,1.1-0.6l1.9-2.6
		c0.4-0.6,0.3-1.5-0.3-1.9C21.4,29,20.6,29.2,20.1,29.8L20.1,29.8z M20.1,29.8"/>
	<path class="st1" d="M37.7,5.6l-1.9,2.6c-0.4,0.6-0.3,1.5,0.3,1.9c0.2,0.2,0.5,0.3,0.8,0.3c0.4,0,0.8-0.2,1.1-0.6l1.9-2.6
		c0.4-0.6,0.3-1.5-0.3-1.9C39,4.9,38.1,5,37.7,5.6L37.7,5.6z M37.7,5.6"/>
	<path class="st1" d="M38.9,19.8c0-5.4-4.4-9.9-9.9-9.9c-5.4,0-9.9,4.4-9.9,9.9c0,2.3,0.8,4.4,2.1,6.1c1.2,1.5,2.3,3.1,3.2,4.7v3.3
		h9v-3.2c0.9-1.6,2.2-3.4,3.3-4.8C38.1,24.2,38.9,22.1,38.9,19.8L38.9,19.8z M38.9,19.8"/>
</g>
</svg>
