<?xml version="1.0" encoding="utf-8"?>
<!-- Generator: Adobe Illustrator 19.0.0, SVG Export Plug-In . SVG Version: 6.00 Build 0)  -->
<svg version="1.0" id="Layer_1" xmlns="http://www.w3.org/2000/svg" xmlns:xlink="http://www.w3.org/1999/xlink" x="0px" y="0px"
	 viewBox="0 0 60 45" style="enable-background:new 0 0 60 45;" xml:space="preserve">
<style type="text/css">
	.st0{opacity:0.7;}
	.st1{fill:#FFFFFF;}
</style>
<g id="XMLID_6_" class="st0">
	<path id="XMLID_7_" class="st1" d="M44,6.7c0-1.4,0-2.3,0-2.3l-13.5,0h-0.1l-13.5,0c0,0,0,0.9,0,2.3H7.9v1.5c0,0.3,0.1,8.3,5,12.6
		c2,1.8,4.6,2.7,7.6,2.7c0.5,0,0.9,0,1.4-0.1c1.7,2.3,3.7,4,5.9,4.8v6.5h-6.5v4.1h-2.2v2.3h22.7v-2.3h-2.2v-4.1h-6.5v-6.5
		c2.2-0.8,4.2-2.5,5.9-4.8c0.5,0,0.9,0.1,1.4,0.1c3,0,5.6-0.9,7.6-2.7c4.9-4.3,5-12.3,5-12.6V6.7H44z M14.9,18.6
		c-2.8-2.5-3.6-6.7-3.9-8.9h6.1c0.3,2.8,0.9,6.3,2.2,9.3c0.3,0.6,0.5,1.1,0.8,1.6C18,20.5,16.3,19.9,14.9,18.6L14.9,18.6z
		 M46.1,18.6c-1.4,1.2-3.1,1.9-5.2,2c0.3-0.5,0.5-1.1,0.8-1.6c1.4-3,2-6.5,2.2-9.3h6.1C49.7,11.9,48.9,16.2,46.1,18.6L46.1,18.6z
		 M46.1,18.6"/>
</g>
</svg>
