<?xml version="1.0" encoding="utf-8"?>
<!-- Generator: Adobe Illustrator 15.1.0, SVG Export Plug-In  -->
<!DOCTYPE svg PUBLIC "-//W3C//DTD SVG 1.1//EN" "http://www.w3.org/Graphics/SVG/1.1/DTD/svg11.dtd" [
	<!ENTITY ns_flows "http://ns.adobe.com/Flows/1.0/">
]>
<svg version="1.1"
	 xmlns="http://www.w3.org/2000/svg" xmlns:xlink="http://www.w3.org/1999/xlink" xmlns:a="http://ns.adobe.com/AdobeSVGViewerExtensions/3.0/"
	 x="0px" y="0px" width="80px" height="80px" viewBox="-1.825 -1.9 80 80" enable-background="new -1.825 -1.9 80 80"
	 xml:space="preserve">
<defs>
</defs>
<g>
	<defs>
		<circle id="SVGID_1_" cx="38" cy="38" r="37.5"/>
	</defs>
	<clipPath id="SVGID_2_">
		<use xlink:href="#SVGID_1_"  overflow="visible" opacity="0.18"/>
	</clipPath>
	<polygon opacity="0.13" clip-path="url(#SVGID_2_)" fill-rule="evenodd" clip-rule="evenodd" points="63.175,86.1 99.175,81.1 
		104.175,46.1 49.175,23.1 45.175,27.1 28.175,23.1 23.175,42.1 18.175,48.1 	"/>
	<use xlink:href="#SVGID_1_"  overflow="visible" opacity="0.18" fill="none" stroke="#FFFFFF" stroke-miterlimit="10"/>
</g>
<path fill="#FFFFFF" d="M41.063,28.536c1.763,1.105,2.998,2.974,3.223,5.146c0.717,0.334,1.516,0.526,2.361,0.526
	c3.086,0,5.589-2.501,5.589-5.586c0-3.088-2.503-5.589-5.589-5.589C43.589,23.033,41.11,25.489,41.063,28.536L41.063,28.536z
	 M37.402,39.979c3.088,0,5.589-2.501,5.589-5.588c0-3.086-2.5-5.587-5.589-5.587c-3.086,0-5.589,2.501-5.589,5.589
	C31.813,37.478,34.316,39.979,37.402,39.979L37.402,39.979z M39.772,40.359h-4.741c-3.945,0-7.156,3.211-7.156,7.156v5.801
	l0.016,0.09l0.399,0.126c3.764,1.175,7.036,1.567,9.729,1.567c5.259,0,8.306-1.498,8.496-1.596l0.371-0.188h0.04v-5.801
	C46.929,43.57,43.718,40.359,39.772,40.359L39.772,40.359z M49.019,34.592h-4.704c-0.051,1.881-0.854,3.578-2.127,4.797
	c3.508,1.043,6.074,4.294,6.074,8.137v1.785c4.646-0.17,7.323-1.485,7.5-1.574l0.371-0.19h0.042v-5.8
	C56.175,37.801,52.963,34.592,49.019,34.592L49.019,34.592z M27.596,34.211c1.094,0,2.111-0.32,2.972-0.863
	c0.274-1.786,1.233-3.349,2.601-4.412c0.005-0.104,0.016-0.206,0.016-0.313c0-3.086-2.503-5.589-5.589-5.589
	s-5.589,2.503-5.589,5.589C22.007,31.707,24.51,34.211,27.596,34.211L27.596,34.211z M32.616,39.389
	c-1.266-1.215-2.066-2.9-2.125-4.771c-0.174-0.012-0.348-0.025-0.525-0.025h-4.741c-3.947,0-7.156,3.209-7.156,7.154v5.8
	l0.014,0.091l0.399,0.125c3.021,0.943,5.717,1.377,8.06,1.515v-1.751C26.542,43.683,29.108,40.432,32.616,39.389L32.616,39.389z
	 M32.616,39.389"/>
</svg>
