<?xml version="1.0" encoding="utf-8"?>
<!-- Generator: Adobe Illustrator 15.1.0, SVG Export Plug-In  -->
<!DOCTYPE svg PUBLIC "-//W3C//DTD SVG 1.1//EN" "http://www.w3.org/Graphics/SVG/1.1/DTD/svg11.dtd" [
	<!ENTITY ns_flows "http://ns.adobe.com/Flows/1.0/">
]>
<svg version="1.1"
	 xmlns="http://www.w3.org/2000/svg" xmlns:xlink="http://www.w3.org/1999/xlink" xmlns:a="http://ns.adobe.com/AdobeSVGViewerExtensions/3.0/"
	 x="0px" y="0px" width="80px" height="80px" viewBox="-2.425 -1.9 80 80" enable-background="new -2.425 -1.9 80 80"
	 xml:space="preserve">
<defs>
</defs>
<g>
	<defs>
		<circle id="SVGID_1_" cx="38" cy="38" r="37.5"/>
	</defs>
	<clipPath id="SVGID_2_">
		<use xlink:href="#SVGID_1_"  overflow="visible" opacity="0.18"/>
	</clipPath>
	<polygon opacity="0.13" clip-path="url(#SVGID_2_)" fill-rule="evenodd" clip-rule="evenodd" points="63.175,86.1 99.175,81.1 
		104.175,46.1 42.575,18.1 31.575,22.1 26.575,28.1 26.575,39.1 37.575,60.1 	"/>
	<use xlink:href="#SVGID_1_"  overflow="visible" opacity="0.18" fill="none" stroke="#FFFFFF" stroke-miterlimit="10"/>
</g>
<path fill="#FFFFFF" d="M37.703,17.1c-7.791,0-14.128,6.338-14.128,14.127c0,3.139,2.004,8.255,6.125,15.64
	c2.916,5.226,5.783,9.581,5.904,9.762l2.1,3.184l2.099-3.184c0.122-0.181,2.989-4.536,5.904-9.762
	c4.122-7.385,6.125-12.501,6.125-15.639C51.832,23.438,45.494,17.1,37.703,17.1L37.703,17.1z M37.703,38.456
	c-4.044,0-7.324-3.278-7.324-7.324c0-4.044,3.28-7.323,7.324-7.323c4.045,0,7.324,3.279,7.324,7.323
	C45.027,35.178,41.748,38.456,37.703,38.456L37.703,38.456z M37.703,38.456"/>
</svg>
