<?xml version="1.0" encoding="UTF-8" standalone="no"?>
<!DOCTYPE svg PUBLIC "-//W3C//DTD SVG 20010904//EN" "http://www.w3.org/TR/2001/REC-SVG-20010904/DTD/svg10.dtd">
<svg version="1.0" xmlns="http://www.w3.org/2000/svg" width="360.000000pt" height="512.000000pt" viewBox="0 0 90.000000 128.000000" preserveAspectRatio="xMidYMid meet">
  <defs id="defs3980"/>
  <g transform="translate(-140.54391,-309.99126)" id="layer1">
    <path d="m 185.55088,309.99126 c -13.15223,0 -23.81762,10.74612 -23.81762,23.99793 0,13.2518 10.66539,23.99792 23.81762,23.99792 13.15222,0 23.81761,-10.74612 23.81761,-23.99792 0,-13.2518 -10.66539,-23.99793 -23.81761,-23.99793 z m -13.62776,50.98533 c -3.45244,0 -6.78703,0.46053 -9.66333,2.83981 l -19.07886,19.2233 c -3.2874,3.31229 -3.53309,8.39232 -0.55751,11.39044 2.97559,2.99811 8.04843,2.75057 11.33583,-0.56172 l 9.57039,-9.64287 0,8.70665 44.04246,0 0,-8.73785 9.60138,9.67406 c 3.2874,3.31229 8.32925,3.55983 11.30484,0.56172 2.9756,-2.99812 2.69894,-8.07815 -0.58847,-11.39044 l -19.07886,-19.2233 c -3.04686,-2.488 -6.30506,-2.82296 -9.63235,-2.83981 -9.08517,7e-5 -18.17037,-1.1e-4 -27.25552,10e-6 z m 35.64898,36.10611 -7.55721,6.33496 -8.91999,7.48959 5.97763,10.42303 -2.47778,2.68377 c -3.53491,3.77708 -4.18819,9.19226 -1.42472,12.13939 2.76348,2.94713 7.86286,2.27917 11.39777,-1.49792 l 9.38456,-10.04854 c 2.14906,-2.29631 3.2079,-5.18646 3.09722,-7.77046 -0.0453,-1.93498 -0.42183,-3.92846 -1.20791,-5.33634 z m -44.04246,0.0313 -8.26956,14.38627 c -0.9661,1.68599 -1.36371,3.53727 -1.23889,5.33634 -0.11074,2.58405 0.97906,5.47409 3.12819,7.77046 l 9.38457,10.04854 c 3.53491,3.7771 8.60332,4.44505 11.36679,1.49792 2.76348,-2.94713 2.14116,-8.36231 -1.39374,-12.1394 l -2.50874,-2.68377 5.97762,-10.42303 -8.91999,-7.48959 -7.52625,-6.30375 z" id="rect3801" style="opacity:0.98999999;fill:#000000;fill-opacity:0.99607843;stroke:none"/>
  </g>
</svg>