<?xml version="1.0" encoding="utf-8"?>
<!-- Generator: Adobe Illustrator 15.1.0, SVG Export Plug-In  -->
<!DOCTYPE svg PUBLIC "-//W3C//DTD SVG 1.1//EN" "http://www.w3.org/Graphics/SVG/1.1/DTD/svg11.dtd" [
	<!ENTITY ns_flows "http://ns.adobe.com/Flows/1.0/">
]>
<svg version="1.1"
	 xmlns="http://www.w3.org/2000/svg" xmlns:xlink="http://www.w3.org/1999/xlink" xmlns:a="http://ns.adobe.com/AdobeSVGViewerExtensions/3.0/"
	 x="0px" y="0px" width="80px" height="80px" viewBox="-1.625 -1.9 80 80" enable-background="new -1.625 -1.9 80 80"
	 xml:space="preserve">
<defs>
</defs>
<g>
	<defs>
		<circle id="SVGID_1_" cx="38" cy="38" r="37.5"/>
	</defs>
	<clipPath id="SVGID_2_">
		<use xlink:href="#SVGID_1_"  overflow="visible" opacity="0.18"/>
	</clipPath>
	<polygon opacity="0.13" clip-path="url(#SVGID_2_)" fill-rule="evenodd" clip-rule="evenodd" points="65.375,88.1 99.175,81.1 
		95.375,34.1 39.375,18.1 33.375,24.1 38.375,35.1 35.375,42.1 23.375,42.1 20.375,49.1 26.375,56.1 	"/>
	<use xlink:href="#SVGID_1_"  overflow="visible" opacity="0.18" fill="none" stroke="#FFFFFF" stroke-miterlimit="10"/>
</g>
<path fill="#FFFFFF" d="M49.896,39.877c-2.035,0-3.879,0.797-5.253,2.088l-5.077-3.808V32.34c3.611-0.629,6.358-3.769,6.358-7.558
	c0-4.243-3.44-7.683-7.682-7.683c-4.242,0-7.683,3.439-7.683,7.683c0,3.789,2.75,6.929,6.358,7.558v5.799l-5.46,3.919
	c-1.004-0.985-2.282-1.694-3.707-1.999c-5.321-1.136-9.974,3.246-9.313,8.499c0.433,3.425,3.198,6.188,6.622,6.619
	c5.253,0.662,9.633-3.989,8.497-9.31c-0.122-0.579-0.315-1.133-0.564-1.655l5.23-3.751l4.829,3.622
	c-0.533,1.045-0.838,2.224-0.838,3.477c0,4.241,3.44,7.683,7.682,7.683c4.243,0,7.68-3.441,7.68-7.683
	C57.576,43.317,54.138,39.877,49.896,39.877L49.896,39.877z M26.058,42.528c1.275,0,2.313,1.035,2.313,2.313
	s-1.037,2.313-2.313,2.313c-1.278,0-2.315-1.035-2.315-2.313S24.78,42.528,26.058,42.528L26.058,42.528z M29.501,51.532h-6.888
	v-1.037c0-1.42,0.996-2.672,2.416-2.672h2.056c1.42,0,2.416,1.252,2.416,2.672V51.532z M38.241,19.749
	c1.277,0,2.312,1.036,2.312,2.314c0,1.275-1.035,2.312-2.312,2.312c-1.278,0-2.313-1.036-2.313-2.312
	C35.929,20.785,36.963,19.749,38.241,19.749L38.241,19.749z M34.798,28.755v-1.04c0-1.417,0.996-2.669,2.416-2.669h2.057
	c1.417,0,2.413,1.252,2.413,2.669v1.04H34.798z M49.896,42.528c1.276,0,2.313,1.035,2.313,2.313s-1.037,2.313-2.313,2.313
	c-1.277,0-2.314-1.035-2.314-2.313S48.618,42.528,49.896,42.528L49.896,42.528z M53.339,51.532h-6.888v-1.037
	c0-1.42,0.996-2.672,2.416-2.672h2.056c1.42,0,2.416,1.252,2.416,2.672V51.532z M53.339,51.532"/>
</svg>
