<?xml version="1.0" encoding="utf-8"?>
<!-- Generator: Adobe Illustrator 15.1.0, SVG Export Plug-In  -->
<!DOCTYPE svg PUBLIC "-//W3C//DTD SVG 1.1//EN" "http://www.w3.org/Graphics/SVG/1.1/DTD/svg11.dtd" [
	<!ENTITY ns_flows "http://ns.adobe.com/Flows/1.0/">
]>
<svg version="1.1"
	 xmlns="http://www.w3.org/2000/svg" xmlns:xlink="http://www.w3.org/1999/xlink" xmlns:a="http://ns.adobe.com/AdobeSVGViewerExtensions/3.0/"
	 x="0px" y="0px" width="80px" height="80px" viewBox="-1.825 -1.9 80 80" enable-background="new -1.825 -1.9 80 80"
	 xml:space="preserve">
<defs>
</defs>
<g>
	<defs>
		<circle id="SVGID_1_" cx="38" cy="38" r="37.5"/>
	</defs>
	<clipPath id="SVGID_2_">
		<use xlink:href="#SVGID_1_"  overflow="visible" opacity="0.18"/>
	</clipPath>
	<polygon opacity="0.13" clip-path="url(#SVGID_2_)" fill-rule="evenodd" clip-rule="evenodd" points="65.175,88.1 99.175,81.1 
		97.175,35.1 43.175,20.1 34.175,28.1 28.175,39.1 27.175,45.1 20.175,50.1 	"/>
	<use xlink:href="#SVGID_1_"  overflow="visible" opacity="0.18" fill="none" stroke="#FFFFFF" stroke-miterlimit="10"/>
</g>
<path fill="#FFFFFF" d="M31.639,36.07c0.022-0.393,0.051-0.784,0.101-1.183c0.095-0.941,0.297-1.888,0.504-2.808
	c0.129-0.458,0.269-0.914,0.415-1.355c0.185-0.433,0.364-0.864,0.544-1.284c0.409-0.818,0.863-1.585,1.412-2.229
	c0.129-0.164,0.258-0.326,0.381-0.487c0.146-0.142,0.286-0.282,0.426-0.421c0.292-0.265,0.543-0.551,0.835-0.758
	c0.583-0.43,1.099-0.841,1.62-1.092c0.504-0.281,0.936-0.528,1.328-0.668c0.762-0.303,1.199-0.458,1.199-0.458
	s-0.37,0.291-1.02,0.768c-0.331,0.217-0.684,0.564-1.109,0.918c-0.438,0.338-0.835,0.819-1.306,1.277
	c-0.241,0.235-0.421,0.533-0.645,0.808c-0.112,0.135-0.224,0.274-0.336,0.42c-0.095,0.158-0.191,0.314-0.286,0.477
	c-0.42,0.616-0.734,1.345-1.059,2.081c-0.129,0.385-0.264,0.778-0.404,1.17c-0.095,0.414-0.196,0.829-0.314,1.238
	c-0.168,0.852-0.336,1.722-0.409,2.613c-0.05,0.323-0.073,0.65-0.106,0.974c7.084,0.006,12.571,0.006,20.244,0.006
	c0.022-0.336,0.039-0.673,0.039-1.015c0-6.462-4.708-11.786-10.767-12.492c0.387-0.364,0.639-0.886,0.639-1.462
	c0-1.111-0.897-2.008-2.006-2.008c-1.11,0-2.006,0.896-2.006,2.008c0,0.576,0.246,1.098,0.639,1.462
	C34.133,23.275,29.42,28.6,29.42,35.062c0,0.338,0.017,0.673,0.039,1.009H31.639z M31.639,36.07"/>
<rect x="27.212" y="36.815" fill="#FFFFFF" width="28.695" height="2.535"/>
<path fill="#FFFFFF" d="M44.126,41.148c-1.458,0.707-6.541,2.539-6.541,2.539l-6.014-0.376c0,0,3.441-0.953,4.769-1.255
	c1.34-0.298,0.757-1.805,0.017-1.805c-0.734,0-7.168,0.269-7.168,0.269l-4.271,1.536l1.132,7.156c0,0,0.874-1.506,1.754-1.506
	c0.88,0,8.508,0.2,9.539,0c1.037-0.203,7.348-4.519,8.099-5.021C46.2,42.18,45.589,40.437,44.126,41.148L44.126,41.148z
	 M44.126,41.148"/>
<path fill="#FFFFFF" d="M19.175,42.824V52.1l6.546-1.221l-1.636-8.917L19.175,42.824z M19.175,42.824"/>
</svg>
