<?xml version="1.0" encoding="utf-8"?>
<!-- Generator: Adobe Illustrator 19.2.1, SVG Export Plug-In . SVG Version: 6.00 Build 0)  -->
<svg version="1.1" id="Layer_1" xmlns="http://www.w3.org/2000/svg" xmlns:xlink="http://www.w3.org/1999/xlink" x="0px" y="0px"
	 viewBox="0 0 46 46" style="enable-background:new 0 0 46 46;" xml:space="preserve">
<style type="text/css">
	.st0{fill:#00B83B;}
	.st1{enable-background:new    ;}
	.st2{fill:#FFFFFF;}
</style>
<circle class="st0" cx="23" cy="23" r="23"/>
<g class="st1">
	<path class="st2" d="M16.8,21c0,1.3-0.4,2.3-1.2,3c-0.8,0.7-2,1-3.5,1h-1.1v4.3H8.5v-12h3.8c1.5,0,2.6,0.3,3.3,0.9
		C16.5,18.8,16.8,19.8,16.8,21z M11.1,22.9h0.8c0.8,0,1.4-0.2,1.8-0.5c0.4-0.3,0.6-0.8,0.6-1.4c0-0.6-0.2-1-0.5-1.3
		c-0.3-0.3-0.8-0.4-1.5-0.4h-1.2V22.9z"/>
	<path class="st2" d="M29.1,23.2c0,2-0.6,3.5-1.7,4.6c-1.1,1.1-2.8,1.6-4.9,1.6h-3.4v-12h3.8c2,0,3.5,0.5,4.6,1.6
		S29.1,21.3,29.1,23.2z M26.4,23.2c0-2.6-1.1-3.9-3.4-3.9h-1.4v7.8h1.1C25.2,27.2,26.4,25.9,26.4,23.2z"/>
	<path class="st2" d="M34.1,29.3h-2.5v-12h6.9v2.1h-4.4v3.1h4.1v2.1h-4.1V29.3z"/>
</g>
</svg>
