<?xml version="1.0" encoding="utf-8"?>
<!-- Generator: Adobe Illustrator 19.2.1, SVG Export Plug-In . SVG Version: 6.00 Build 0)  -->
<svg version="1.1" id="Layer_1" xmlns="http://www.w3.org/2000/svg" xmlns:xlink="http://www.w3.org/1999/xlink" x="0px" y="0px"
	 viewBox="0 0 25.3 26" style="enable-background:new 0 0 25.3 26;" xml:space="preserve">
<style type="text/css">
	.st0{fill:#0091D4;}
</style>
<g>
	<g>
		<path class="st0" d="M11.6,9.6c0-1.3-0.5-2.4-1.3-3.2C9.4,5.5,8.3,5,7,5C5.7,5,4.6,5.5,3.8,6.3c-0.8,0.8-1.3,2-1.3,3.2
			s0.5,2.4,1.3,3.2c0.8,0.8,2,1.3,3.2,1.3c1.3,0,2.4-0.5,3.2-1.3C11.1,12,11.6,10.9,11.6,9.6L11.6,9.6z M11.6,9.6"/>
		<path class="st0" d="M1.5,18.8c0,0.9,2.1,1.8,5.5,1.8c3.2,0,5.5-0.9,5.5-1.8c0-1.8-2.2-3.7-5.5-3.7C3.6,15.1,1.5,16.9,1.5,18.8
			L1.5,18.8z M1.5,18.8"/>
	</g>
	<g>
		<path class="st0" d="M22.6,9.6c0-1.3-0.5-2.4-1.3-3.2C20.4,5.5,19.3,5,18,5c-1.3,0-2.4,0.5-3.2,1.3c-0.8,0.8-1.3,2-1.3,3.2
			s0.5,2.4,1.3,3.2c0.8,0.8,2,1.3,3.2,1.3c1.3,0,2.4-0.5,3.2-1.3C22.1,12,22.6,10.9,22.6,9.6L22.6,9.6z M22.6,9.6"/>
		<path class="st0" d="M12.5,18.8c0,0.9,2.1,1.8,5.5,1.8c3.2,0,5.5-0.9,5.5-1.8c0-1.8-2.2-3.7-5.5-3.7
			C14.6,15.1,12.5,16.9,12.5,18.8L12.5,18.8z M12.5,18.8"/>
	</g>
</g>
</svg>
