<?xml version="1.0" encoding="utf-8"?>
<!-- Generator: Adobe Illustrator 19.2.1, SVG Export Plug-In . SVG Version: 6.00 Build 0)  -->
<svg version="1.1" id="Layer_1" xmlns="http://www.w3.org/2000/svg" xmlns:xlink="http://www.w3.org/1999/xlink" x="0px" y="0px"
	 viewBox="0 0 73.3 73.5" style="enable-background:new 0 0 73.3 73.5;" xml:space="preserve">
<style type="text/css">
	.st0{opacity:0.5;fill:none;stroke:#FFFFFF;stroke-miterlimit:10;}
	.st1{fill:#FFFFFF;}
</style>
<circle class="st0" cx="37" cy="37" r="36"/>
<g>
	<path class="st1" d="M27.5,44l-2.9,8.1l5.2-1.7l2.9,4.6l2.9-8.2l-2.7-2.4L27.5,44z M27.5,44"/>
	<path class="st1" d="M47.1,44l-5.4,0.4L39,46.8l2.9,8.2l2.9-4.6l5.2,1.7L47.1,44z M47.1,44"/>
	<path class="st1" d="M45.8,42.3l0.3-4.8l3.2-3.7l-3.2-3.7l-0.3-4.8L41,25l-3.7-3.2L33.7,25l-4.8,0.3l-0.3,4.8l-3.2,3.7l3.2,3.7
		l0.3,4.8l4.8,0.3l3.7,3.2l3.7-3.2L45.8,42.3z M37.3,40.5c-3.7,0-6.7-3-6.7-6.7c0-3.7,3-6.7,6.7-6.7c3.7,0,6.7,3,6.7,6.7
		C44,37.4,41,40.5,37.3,40.5L37.3,40.5z M37.3,40.5"/>
	<path class="st1" d="M35,30.9l0.3,1.3l1.4-0.7h0v5.9h1.7v-7.5H37L35,30.9z M35,30.9"/>
</g>
</svg>
