<?xml version="1.0" encoding="utf-8"?>
<!-- Generator: Adobe Illustrator 19.2.1, SVG Export Plug-In . SVG Version: 6.00 Build 0)  -->
<svg version="1.1" id="Layer_1" xmlns="http://www.w3.org/2000/svg" xmlns:xlink="http://www.w3.org/1999/xlink" x="0px" y="0px"
	 viewBox="0 0 73 73" style="enable-background:new 0 0 73 73;" xml:space="preserve">
<style type="text/css">
	.st0{opacity:0.5;fill:none;stroke:#FFFFFF;stroke-miterlimit:10;}
	.st1{fill:#FFFFFF;}
</style>
<circle class="st0" cx="36.5" cy="36.5" r="36"/>
<g>
	<g>
		<path class="st1" d="M45.7,30l1.4-1.9c0.2-0.4,0.2-0.8-0.2-1.1l-2.1-1.5c-0.3-0.2-0.8-0.2-1.1,0.2l-1.4,2c-1-0.5-2.1-0.8-3.3-1
			v-0.8c0-0.5,0.4-0.9,0.9-0.9h0.5c0.5,0,0.9-0.4,0.9-0.9v-2.8c0-0.5-0.4-0.9-0.9-0.9h-6.8c-0.5,0-0.9,0.4-0.9,0.9V24
			c0,0.5,0.4,0.9,0.9,0.9h0.5c0.5,0,0.9,0.4,0.9,0.9v0.8c-1.2,0.2-2.4,0.6-3.5,1.1l-1.4-2c-0.2-0.4-0.7-0.4-1.1-0.2L27,27.2
			c-0.3,0.2-0.4,0.7-0.2,1.1l1.4,2c-2.3,2.3-3.7,5.4-3.7,8.8c0,6.9,5.6,12.5,12.5,12.5S49.5,45.9,49.5,39C49.5,35.5,48,32.3,45.7,30
			L45.7,30z M37,48.5c-5.2,0-9.5-4.3-9.5-9.5c0-5.2,4.3-9.5,9.5-9.5c5.2,0,9.5,4.3,9.5,9.5C46.5,44.3,42.3,48.5,37,48.5L37,48.5z
			 M37,48.5"/>
	</g>
	<path class="st1" d="M37,31.2C37,31.2,37,31.2,37,31.2L37,39h7.9C44.8,34.7,41.3,31.2,37,31.2L37,31.2z M37,31.2"/>
</g>
</svg>
