<?xml version="1.0" encoding="utf-8"?>
<!-- Generator: Adobe Illustrator 15.1.0, SVG Export Plug-In  -->
<!DOCTYPE svg PUBLIC "-//W3C//DTD SVG 1.1//EN" "http://www.w3.org/Graphics/SVG/1.1/DTD/svg11.dtd" [
	<!ENTITY ns_flows "http://ns.adobe.com/Flows/1.0/">
]>
<svg version="1.1"
	 xmlns="http://www.w3.org/2000/svg" xmlns:xlink="http://www.w3.org/1999/xlink" xmlns:a="http://ns.adobe.com/AdobeSVGViewerExtensions/3.0/"
	 x="0px" y="0px" width="30px" height="30px" viewBox="-1.5 -1.5 30 30" enable-background="new -1.5 -1.5 30 30"
	 xml:space="preserve">
<defs>
</defs>
<circle opacity="0.43" fill="none" stroke="#0091D4" stroke-miterlimit="10" cx="13.5" cy="13.5" r="13"/>
<path fill="#0091D4" d="M21.467,15.706l-1.81-2.866V7.567L18.92,6.83H7.635L6.897,7.567v5.272l-1.809,2.866H21.467z M18.183,8.305
	v3.678c-0.949-0.246-2.589-0.548-4.905-0.548c-2.315,0-3.956,0.303-4.905,0.548V8.305H18.183z M18.183,8.305"/>
<path fill="#0091D4" d="M5.055,16.613v1.473h1.717v2.03h1.474v-2.03H18.31v2.03h1.474v-2.03H21.5v-1.473H5.055z M5.055,16.613"/>
<path fill="#0091D4" d="M12.679,10.667V9.81c0-0.51-0.739-0.924-1.651-0.924c-0.912,0-1.651,0.414-1.651,0.924v1.288
	c0,0,0.974-0.245,1.644-0.309C11.623,10.732,12.679,10.667,12.679,10.667L12.679,10.667z M12.679,10.667"/>
<path fill="#0091D4" d="M17.179,11.098V9.81c0-0.51-0.739-0.924-1.651-0.924s-1.651,0.414-1.651,0.924v0.857
	c0,0,1.057,0.065,1.659,0.122C16.205,10.853,17.179,11.098,17.179,11.098L17.179,11.098z M17.179,11.098"/>
</svg>
