<svg version="1.1"
	 xmlns="http://www.w3.org/2000/svg" xmlns:xlink="http://www.w3.org/1999/xlink" xmlns:a="http://ns.adobe.com/AdobeSVGViewerExtensions/3.0/"
	 x="0px" y="0px" width="30px" height="30px" viewBox="-1.5 -1.5 30 30" enable-background="new -1.5 -1.5 30 30"
	 xml:space="preserve">
<defs>
</defs>
<circle opacity="0.43" fill="none" stroke="#0091D4" stroke-miterlimit="10" cx="13.5" cy="13.5" r="13"/>
<path fill="#0091D4" stroke="#0091D4" stroke-miterlimit="10" d="M11.626,17.926c0.04-0.047,0.075-0.099,0.105-0.153l3.033-4.069
	l0.066,0.038l3.98,4.434l0.614-1.336l-0.887-1.803l-0.886-1.801l-1.169-2.375l-0.018-0.011l1.457-3.169c0,0,0.329-1.025-0.074-1.255
	c-0.403-0.23-1.017,0.473-1.017,0.473l-2.174,3.079l-2.326,0.21l-2.029,0.18l-1.867,0.168L7.5,11.899l5.58,0.934l-1.992,4.419
	c-0.055,0.096-0.107,0.194-0.149,0.288l-2.083,0.166l-0.364,0.636l1.814,0.348l0.757,0.435l1.27,1.376l0.319-0.555L11.626,17.926z
	 M11.626,17.926"/>
</svg>
