<?xml version="1.0" encoding="utf-8"?>
<!-- Generator: Adobe Illustrator 15.1.0, SVG Export Plug-In  -->
<!DOCTYPE svg PUBLIC "-//W3C//DTD SVG 1.1//EN" "http://www.w3.org/Graphics/SVG/1.1/DTD/svg11.dtd" [
	<!ENTITY ns_flows "http://ns.adobe.com/Flows/1.0/">
]>
<svg version="1.1"
	 xmlns="http://www.w3.org/2000/svg" xmlns:xlink="http://www.w3.org/1999/xlink" xmlns:a="http://ns.adobe.com/AdobeSVGViewerExtensions/3.0/"
	 x="0px" y="0px" width="30px" height="30px" viewBox="-1.5 -1.5 30 30" enable-background="new -1.5 -1.5 30 30"
	 xml:space="preserve">
<defs>
</defs>
<circle opacity="0.43" fill="none" stroke="#0091D4" stroke-miterlimit="10" cx="13.5" cy="13.5" r="13"/>
<path fill="#0091D4" d="M19.961,7.667c0-1.196-0.968-2.167-2.165-2.167h-7.131C9.47,5.5,8.5,6.471,8.5,7.667v10.199
	c0,0.818,0.456,1.532,1.128,1.9v1.121h1.895v-0.856h5.37v0.857h1.896v-1.1c0.696-0.359,1.172-1.086,1.172-1.924V7.667z M11.749,5.95
	h5.054v1.176h-5.054V5.95z M12.291,17.775H9.493v-1.264h2.797V17.775z M19.059,17.775h-2.797v-1.264h2.797V17.775z M19.059,13.714
	c0,0-0.541,1.714-4.873,1.714c-4.334,0-4.785-1.714-4.785-1.714V7.757h9.657V13.714z M19.059,13.714"/>
</svg>
