<?xml version="1.0" encoding="utf-8"?>
<!-- Generator: Adobe Illustrator 19.0.0, SVG Export Plug-In . SVG Version: 6.00 Build 0)  -->
<svg version="1.1" id="Layer_1" xmlns="http://www.w3.org/2000/svg" xmlns:xlink="http://www.w3.org/1999/xlink" x="0px" y="0px"
	 viewBox="-9 10 27 27" style="enable-background:new -9 10 27 27;" xml:space="preserve">
<style type="text/css">
	.st0{opacity:0.43;fill:#0091D4;enable-background:new    ;}
	.st1{fill:#0091D4;}
</style>
<path id="XMLID_14_" class="st0" d="M4.5,37C-2.9,37-9,30.9-9,23.5S-2.9,10,4.5,10S18,16.1,18,23.5S11.9,37,4.5,37z M4.5,11
	C-2.4,11-8,16.6-8,23.5S-2.4,36,4.5,36S17,30.4,17,23.5S11.4,11,4.5,11z"/>
<g id="XMLID_1_">
	<path id="XMLID_5_" class="st1" d="M4.8,22.2c-1.2,0-2.3,1-2.3,2.2s1,2.3,2.3,2.3s2.3-1,2.3-2.3C7.1,23.2,5.9,22.2,4.8,22.2
		L4.8,22.2z M10.8,19.9H8.9c-0.2,0-0.5-0.2-0.6-0.4l-0.5-1.4c-0.1-0.2-0.3-0.4-0.6-0.4H2.2c-0.2,0-0.5,0.2-0.6,0.4l-0.4,1.4
		c-0.1,0.3-0.4,0.4-0.6,0.4h-1.8c-0.8,0-1.5,0.7-1.5,1.5v6.8c0,0.8,0.7,1.5,1.5,1.5h12c0.8,0,1.5-0.7,1.5-1.5v-6.7
		C12.3,20.6,11.6,19.9,10.8,19.9L10.8,19.9z M4.8,28.2c-2.1,0-3.8-1.7-3.8-3.8s1.7-3.8,3.8-3.8s3.8,1.7,3.8,3.8S6.9,28.2,4.8,28.2
		L4.8,28.2z M10.3,22.5c-0.3,0-0.5-0.2-0.5-0.5s0.2-0.5,0.5-0.5s0.5,0.2,0.5,0.5C10.8,22.3,10.6,22.5,10.3,22.5L10.3,22.5z"/>
</g>
</svg>
