<?xml version="1.0" encoding="utf-8"?>
<!-- Generator: Adobe Illustrator 19.0.0, SVG Export Plug-In . SVG Version: 6.00 Build 0)  -->
<svg version="1.1" id="Layer_1" xmlns="http://www.w3.org/2000/svg" xmlns:xlink="http://www.w3.org/1999/xlink" x="0px" y="0px"
	 viewBox="0 0 27 27" style="enable-background:new 0 0 27 27;" xml:space="preserve">
<style type="text/css">
	.st0{opacity:0.43;fill:#0091D4;}
	.st1{fill:#0091D4;}
</style>
<path id="XMLID_14_" class="st0" d="M13.5,27C6.1,27,0,20.9,0,13.5C0,6.1,6.1,0,13.5,0C20.9,0,27,6.1,27,13.5
	C27,20.9,20.9,27,13.5,27z M13.5,1C6.6,1,1,6.6,1,13.5S6.6,26,13.5,26S26,20.4,26,13.5S20.4,1,13.5,1z"/>
<g id="XMLID_7_">
	<g id="XMLID_8_">
		<path id="XMLID_9_" class="st1" d="M7.4,18.6l5.6-9l-1-1.5c-0.1-0.2-0.1-0.5,0.1-0.6c0.2-0.1,0.5-0.1,0.6,0.1l0.8,1.2l0.8-1.2
			c0.1-0.2,0.4-0.3,0.6-0.1c0.2,0.1,0.3,0.4,0.1,0.6l-1,1.5l5.6,9c0.1,0.2,0.1,0.5,0,0.7c-0.1,0.2-0.3,0.3-0.6,0.3h-2.5
			c-0.2,0-0.4-0.1-0.6-0.3L13.9,16c-0.1-0.2-0.3-0.2-0.4-0.2c-0.2,0-0.3,0.1-0.4,0.2L11,19.3c-0.1,0.2-0.3,0.3-0.6,0.3H7.9
			c-0.2,0-0.5-0.1-0.6-0.3C7.2,19.1,7.3,18.8,7.4,18.6L7.4,18.6z M7.4,18.6"/>
	</g>
</g>
</svg>
