<?xml version="1.0" encoding="utf-8"?>
<!-- Generator: Adobe Illustrator 19.0.0, SVG Export Plug-In . SVG Version: 6.00 Build 0)  -->
<svg version="1.1" id="Layer_1" xmlns="http://www.w3.org/2000/svg" xmlns:xlink="http://www.w3.org/1999/xlink" x="0px" y="0px"
	 viewBox="0 0 27 27" style="enable-background:new 0 0 27 27;" xml:space="preserve">
<style type="text/css">
	.st0{opacity:0.43;fill:#0091D4;}
	.st1{fill:#0091D4;}
</style>
<path id="XMLID_14_" class="st0" d="M13.5,27C6.1,27,0,20.9,0,13.5C0,6.1,6.1,0,13.5,0C20.9,0,27,6.1,27,13.5
	C27,20.9,20.9,27,13.5,27z M13.5,1C6.6,1,1,6.6,1,13.5S6.6,26,13.5,26S26,20.4,26,13.5S20.4,1,13.5,1z"/>
<g id="XMLID_84_">
	<g id="XMLID_85_">
		<path id="XMLID_101_" class="st1" d="M16.4,9.2c0-0.7,0.6-1.4,1.4-1.4c0.7,0,1.4,0.6,1.4,1.4c0,0.7-0.6,1.4-1.4,1.4
			C17,10.6,16.4,10,16.4,9.2L16.4,9.2z M16.4,9.2"/>
		<path id="XMLID_98_" class="st1" d="M16.7,15.2c0.1,0.4-0.1,0.8-0.5,1c0.4,1,0.8,2.1,1.2,3.1c0.3,0.8,1.7,0.5,1.4-0.4
			c-0.5-1.4-1.1-2.8-1.5-4.2c0.2-0.2,0.3-0.5,0.3-0.5s0.2-0.4,0.4-1.2c0.2,0.2,0.4,0.3,0.5,0.5c0.2,0.2,0.4,0.3,0.7,0.2
			c0.8-0.3,1.6-0.5,2.4-0.8c0.9-0.3,0.5-1.6-0.4-1.4c-0.7,0.2-1.4,0.5-2,0.7c-0.4-0.4-0.8-0.7-1.2-1.1c-0.3-0.3-0.7-0.6-1.1-0.6
			c-0.2,0-0.4,0-0.6,0.1c0,0-0.1,0-0.1,0c-0.9,0.3-1.8,0.6-2.6,1c0,0.1,0,0.1,0,0.2c0.1,0.7-0.2,1.3-0.7,1.7c0,0,0.1,0,0.1,0
			c0.7-0.3,1.4-0.6,2.1-0.9l-0.3,0.7c0,0.1-0.1,0.1-0.1,0.2c-0.2,0.5-0.4,0.9-0.7,1.3l1.2-0.4C16,14.2,16.6,14.6,16.7,15.2
			L16.7,15.2z M16.7,15.2"/>
		<path id="XMLID_95_" class="st1" d="M10.7,12.3c0-0.7,0.6-1.4,1.4-1.4c0.7,0,1.4,0.6,1.4,1.4c0,0.7-0.6,1.4-1.4,1.4
			C11.3,13.7,10.7,13,10.7,12.3L10.7,12.3z M10.7,12.3"/>
		<path id="XMLID_92_" class="st1" d="M7,18.1c-0.7-0.6-1.7,0.4-1,1c0.6,0.5,1.1,0.9,1.7,1.3c0.4,0.2,0.7,0.1,1-0.3
			c0.4-0.6,0.9-1.3,1.2-1.9c0,0,0.1,0,0.1,0.1c0,0,0.1,0,0.1,0c0.5,1.4,1,2.8,1.5,4.1c0.3,0.8,1.7,0.5,1.4-0.4
			c-0.5-1.4-1.1-2.8-1.5-4.2c0.2-0.2,0.3-0.5,0.3-0.5s0.2-0.4,0.4-1.2c0.2,0.2,0.4,0.3,0.5,0.5c0.2,0.2,0.4,0.3,0.7,0.2
			c0.8-0.3,1.6-0.5,2.4-0.8c0.9-0.3,0.5-1.6-0.4-1.4c-0.7,0.2-1.4,0.5-2,0.7c-0.4-0.4-0.8-0.7-1.2-1.1c-0.3-0.3-0.7-0.6-1.1-0.6
			c-0.2,0-0.4,0-0.6,0.1c0,0-0.1,0-0.1,0c-1.3,0.4-2.6,1-3.9,1.6c-0.8,0.4-0.1,1.6,0.7,1.2c0.7-0.3,1.4-0.6,2.1-0.9l-0.3,0.7
			c0,0-0.1,0.1-0.1,0.2c-0.3,0.8-0.8,1.5-1.2,2.2C7.6,18.6,7.3,18.4,7,18.1L7,18.1z M7,18.1"/>
		<path id="XMLID_89_" class="st1" d="M9.8,5.4c0-0.7,0.6-1.4,1.4-1.4c0.7,0,1.4,0.6,1.4,1.4c0,0.7-0.6,1.4-1.4,1.4
			C10.5,6.8,9.8,6.2,9.8,5.4L9.8,5.4z M9.8,5.4"/>
		<path id="XMLID_86_" class="st1" d="M6.2,11.2c-0.7-0.6-1.7,0.4-1,1c0.6,0.5,1.1,0.9,1.7,1.3c0.4,0.2,0.7,0.1,1-0.3
			c0.4-0.6,0.9-1.3,1.2-1.9c0,0,0.1,0,0.1,0.1c0,0,0.1,0,0.1,0c0.2,0.7,0.5,1.4,0.7,2.1c0.1,0,0.3-0.1,0.4-0.2c0,0,0.1,0,0.1,0
			c0,0,0,0,0.1,0c-0.2-0.2-0.3-0.5-0.3-0.7c-0.1-0.5,0-1.1,0.4-1.5c0,0,0-0.1,0-0.1c0.2-0.2,0.3-0.5,0.3-0.5s0.2-0.4,0.4-1.2
			c0.2,0.2,0.4,0.3,0.5,0.5c0.2,0.2,0.4,0.3,0.7,0.2c0.8-0.3,1.6-0.5,2.4-0.8c0.9-0.3,0.5-1.6-0.4-1.4c-0.7,0.2-1.4,0.5-2,0.7
			c-0.4-0.4-0.8-0.7-1.2-1.1c-0.3-0.3-0.7-0.6-1-0.6c-0.2,0-0.4,0-0.6,0.1c0,0-0.1,0-0.1,0c-1.3,0.4-2.6,1-3.9,1.6
			C5,9,5.7,10.2,6.6,9.8c0.7-0.3,1.4-0.6,2.1-0.9L8.4,9.6c0,0-0.1,0.1-0.1,0.2c-0.3,0.8-0.7,1.5-1.2,2.2C6.8,11.7,6.5,11.5,6.2,11.2
			L6.2,11.2z M6.2,11.2"/>
	</g>
</g>
</svg>
