<?xml version="1.0" encoding="utf-8"?>
<!-- Generator: Adobe Illustrator 19.0.0, SVG Export Plug-In . SVG Version: 6.00 Build 0)  -->
<svg version="1.1" id="Layer_1" xmlns="http://www.w3.org/2000/svg" xmlns:xlink="http://www.w3.org/1999/xlink" x="0px" y="0px"
	 viewBox="0 0 27 27" style="enable-background:new 0 0 27 27;" xml:space="preserve">
<style type="text/css">
	.st0{opacity:0.43;fill:#0091D4;}
	.st1{fill:#0091D4;}
</style>
<path id="XMLID_14_" class="st0" d="M13.5,27C6.1,27,0,20.9,0,13.5C0,6.1,6.1,0,13.5,0C20.9,0,27,6.1,27,13.5
	C27,20.9,20.9,27,13.5,27z M13.5,1C6.6,1,1,6.6,1,13.5S6.6,26,13.5,26S26,20.4,26,13.5S20.4,1,13.5,1z"/>
<g id="XMLID_2_">
	<path id="XMLID_4_" class="st1" d="M10.8,10.6v2.8h2.7v0.7h-2.7V17H10v-2.8H7.3v-0.7H10v-2.8H10.8z"/>
	<path id="XMLID_6_" class="st1" d="M14.5,17v-0.6l0.8-0.8c2-1.9,2.9-2.9,2.9-4.1c0-0.8-0.4-1.5-1.5-1.5c-0.7,0-1.3,0.4-1.7,0.7
		l-0.3-0.7c0.5-0.5,1.3-0.8,2.2-0.8c1.7,0,2.4,1.2,2.4,2.3c0,1.4-1,2.6-2.7,4.2L16,16.1v0h3.5V17H14.5z"/>
</g>
</svg>
