<?xml version="1.0" encoding="utf-8"?>
<!-- Generator: Adobe Illustrator 19.2.1, SVG Export Plug-In . SVG Version: 6.00 Build 0)  -->
<svg version="1.1" id="Layer_1" xmlns="http://www.w3.org/2000/svg" xmlns:xlink="http://www.w3.org/1999/xlink" x="0px" y="0px"
	 viewBox="0 0 32 32" style="enable-background:new 0 0 32 32;" xml:space="preserve">
<style type="text/css">
	.st0{fill:#0091D4;}
</style>
<g>
	<path class="st0" d="M15.8,1C7.5,1.1,0.9,7.9,1,16.2C1.1,24.5,7.9,31.1,16.2,31c8.3-0.1,14.9-6.9,14.8-15.2
		C30.9,7.5,24.1,0.9,15.8,1z M17.5,6c1.5,0,2,0.9,2,1.9c0,1.3-1,2.4-2.7,2.4c-1.4,0-2.1-0.7-2.1-1.9C14.6,7.4,15.5,6,17.5,6z
		 M13.6,25.4c-1,0-1.8-0.6-1.1-3.4l1.2-4.9c0.2-0.8,0.2-1.1,0-1.1c-0.3,0-1.7,0.5-2.5,1.1l-0.5-0.9c2.5-2.1,5.4-3.4,6.7-3.4
		c1,0,1.2,1.2,0.7,3.1l-1.4,5.2c-0.2,0.9-0.1,1.2,0.1,1.2c0.3,0,1.3-0.4,2.3-1.2l0.6,0.8C17.3,24.4,14.6,25.4,13.6,25.4z"/>
</g>
</svg>
