<?xml version="1.0" encoding="utf-8"?>
<!-- Generator: Adobe Illustrator 19.2.1, SVG Export Plug-In . SVG Version: 6.00 Build 0)  -->
<svg version="1.1" id="Layer_1" xmlns="http://www.w3.org/2000/svg" xmlns:xlink="http://www.w3.org/1999/xlink" x="0px" y="0px"
	 viewBox="0 0 32 32" style="enable-background:new 0 0 32 32;" xml:space="preserve">
<style type="text/css">
	.st0{fill:#0091D4;}
</style>
<path class="st0" d="M4.5,21C4.5,21,4.5,21,4.5,21c-0.3,0.2-0.4,0.5-0.3,0.9c0.1,0.3,0.5,0.5,0.8,0.4l9.3-3.1L12.6,22
	c-0.1,0.2-0.1,0.5,0.1,0.7s0.4,0.2,0.6,0.1l1.8-1c0.1,0,0.1-0.1,0.1-0.1l5.4-5.7l6.7-3.5c2.5-1.4,2.2-2.4,2.1-2.7
	c-0.1-0.2-0.4-0.5-1-0.7c-0.6-0.2-1.4-0.1-2.4,0c-0.3,0.1-0.5,0.1-0.7,0.1c-0.7,0-1.2,0-3.6,1.3L8.5,17.3l-5.1-2.7
	c-0.2-0.1-0.4-0.1-0.6,0l-0.9,0.4c-0.2,0.1-0.3,0.3-0.3,0.5c0,0.2,0,0.4,0.1,0.6l3.6,4.4L4.5,21z M4.5,21"/>
</svg>
