<?xml version="1.0" encoding="utf-8"?>
<!-- Generator: Adobe Illustrator 19.0.0, SVG Export Plug-In . SVG Version: 6.00 Build 0)  -->
<svg version="1.1" id="Layer_1" xmlns="http://www.w3.org/2000/svg" xmlns:xlink="http://www.w3.org/1999/xlink" x="0px" y="0px"
	 viewBox="0 0 22 14" style="enable-background:new 0 0 22 14;" xml:space="preserve">
<style type="text/css">
	.st0{opacity:0.5;}
	.st1{fill:#0091D4;}
</style>
<g class="st0">
	<path class="st1" d="M11,0.9C3.8,0.9,0,6.2,0,7.1c0,0.8,3.8,6.2,11,6.2s11-5.3,11-6.2C22,6.2,18.2,0.9,11,0.9z M11,11.8
		c-2.7,0-4.9-2.1-4.9-4.7S8.3,2.3,11,2.3c2.7,0,4.9,2.1,4.9,4.7S13.7,11.8,11,11.8z M11,7.1c-0.4-0.5,0.7-2.4,0-2.4
		c-1.3,0-2.4,1.1-2.4,2.4S9.7,9.4,11,9.4c1.3,0,2.4-1.1,2.4-2.4C13.4,6.5,11.4,7.5,11,7.1z"/>
</g>
</svg>
