<?xml version="1.0" encoding="utf-8"?>
<!-- Generator: Adobe Illustrator 15.1.0, SVG Export Plug-In  -->
<!DOCTYPE svg PUBLIC "-//W3C//DTD SVG 1.1//EN" "http://www.w3.org/Graphics/SVG/1.1/DTD/svg11.dtd" [
	<!ENTITY ns_flows "http://ns.adobe.com/Flows/1.0/">
]>
<svg version="1.1"
	 xmlns="http://www.w3.org/2000/svg" xmlns:xlink="http://www.w3.org/1999/xlink" xmlns:a="http://ns.adobe.com/AdobeSVGViewerExtensions/3.0/"
	 x="0px" y="0px" width="30px" height="30px" viewBox="-2 -4 30 30" enable-background="new -2 -4 30 30" xml:space="preserve">
<defs>
</defs>
<circle opacity="0.21" cx="11" cy="11" r="11"/>
<g>
	<g>
		<path fill="#FFFFFF" d="M9.121,12.198c-0.368,0-0.72,0-1.216,0.048v-1.953c2.705,0,3.602-0.56,3.602-1.616
			c0-0.849-0.592-1.265-1.569-1.265c-0.88,0-1.712,0.336-2.721,0.912l-0.608-2.08c1.072-0.593,2.289-0.977,3.666-0.977
			c2.225,0,3.81,0.992,3.81,2.929c0,1.345-0.752,2.289-2.209,2.817c1.681,0.432,2.497,1.408,2.497,2.817
			c0,2.097-1.809,3.361-4.626,3.361c-1.376,0-2.593-0.305-3.554-0.769L6.8,14.295c0.944,0.464,1.809,0.832,2.897,0.832
			c1.233,0,1.969-0.464,1.969-1.456S10.914,12.198,9.121,12.198z"/>
	</g>
</g>
<polygon fill="#FFD900" points="20.686,1.665 22.207,4.749 25.608,5.241 23.148,7.642 23.728,11.028 20.686,9.43 17.643,11.028 
	18.224,7.642 15.763,5.241 19.164,4.749 "/>
</svg>
