<?xml version="1.0" encoding="utf-8"?>
<!-- Generator: Adobe Illustrator 19.2.1, SVG Export Plug-In . SVG Version: 6.00 Build 0)  -->
<svg version="1.1" id="Layer_1" xmlns="http://www.w3.org/2000/svg" xmlns:xlink="http://www.w3.org/1999/xlink" x="0px" y="0px"
	 viewBox="0 0 46 46" style="enable-background:new 0 0 46 46;" xml:space="preserve">
<style type="text/css">
	.st0{fill-rule:evenodd;clip-rule:evenodd;fill:#FFFFFF;}
</style>
<g>
	<g>
		<path class="st0" d="M27,29.7c0.7-1.1,1.7-1.7,3-1.7c1.3,0,2-0.7,2-2c0-1.3,0.6-2.3,1.7-3c1.1-0.7,1.4-1.6,0.7-2.7
			c-0.7-1.1-0.7-2.3,0-3.5c0.6-1.2,0.4-2.1-0.7-2.7c-1.1-0.7-1.7-1.7-1.7-3c0-1.3-0.7-2-2-2c-1.3,0-2.3-0.6-3-1.7
			c-0.7-1.1-1.6-1.4-2.7-0.7c-1.2,0.6-2.3,0.6-3.5,0c-1.1-0.7-2.1-0.4-2.7,0.7C17.3,8.4,16.3,9,15,9c-1.3,0-2,0.7-2,2
			c0,1.3-0.6,2.3-1.7,3c-1.1,0.7-1.4,1.6-0.7,2.7c0.7,1.2,0.7,2.3,0,3.5c-0.7,1.2-0.4,2.1,0.7,2.7c1.1,0.7,1.7,1.7,1.7,3
			c0,1.3,0.7,2,2,2c1.3,0,2.3,0.6,3,1.7c0.7,1.1,1.6,1.4,2.7,0.7c1.2-0.6,2.3-0.6,3.5,0C25.4,31.1,26.3,30.8,27,29.7L27,29.7z
			 M22.5,25.7c-4,0-7.2-3.2-7.2-7.2c0-4,3.2-7.2,7.2-7.2c4,0,7.2,3.2,7.2,7.2C29.7,22.5,26.5,25.7,22.5,25.7L22.5,25.7z M22.5,25.7"
			/>
	</g>
	<path class="st0" d="M14.9,29c-1.4,0-1.6-0.7-1.6-0.7L7.9,39.1l4.4-0.5l2.4,3.6c0,0,5-10.5,5-10.4C17.1,31.7,18.1,29.1,14.9,29
		L14.9,29z M14.9,29"/>
	<path class="st0" d="M31.6,28.8c-4,0.4-3.2,1.4-4.1,2.2c-1,1.1-2.3,0.9-2.3,0.9l6.1,10.5l1.5-3.9l4.3,0.6L31.6,28.8z M31.6,28.8"/>
	<path class="st0" d="M24,16.9l-1.5-3.1L21,16.9l-3.4,0.5l2.5,2.4l-0.6,3.4l3-1.6l3,1.6L25,19.8l2.5-2.4L24,16.9z M24,16.9"/>
</g>
</svg>
