<?xml version="1.0" encoding="utf-8"?>
<!-- Generator: Adobe Illustrator 19.2.1, SVG Export Plug-In . SVG Version: 6.00 Build 0)  -->
<svg version="1.1" id="Layer_1" xmlns="http://www.w3.org/2000/svg" xmlns:xlink="http://www.w3.org/1999/xlink" x="0px" y="0px"
	 viewBox="0 0 46 46" style="enable-background:new 0 0 46 46;" xml:space="preserve">
<style type="text/css">
	.st0{fill:#FFFFFF;}
</style>
<g>
	<g>
		<path class="st0" d="M24.5,19.4c-0.5-5-2.4-9.2-2.4-9.4c-0.2-0.4-0.5-0.7-1-0.7c-0.4-0.1-0.9,0.1-1.1,0.4
			c-2.7,2.8-5.1,4.4-7.6,5.1c-2.5,0.7-5.4,0.5-8.9-0.6C3,14,2.6,14,2.2,14.3c-0.3,0.3-0.5,0.7-0.5,1.1c0,0.2,0.6,4.8,2.7,9.4
			c2.9,6.3,7.4,9.3,12.9,8.8c0.1,0,0.1,0,0.2,0c0.1,0,0.1,0,0.2-0.1C22.8,31.2,25.1,26.3,24.5,19.4L24.5,19.4z M5.6,20.5
			c-0.1-1,1.2-2,2.9-2.1c1.7-0.1,3.1,0.6,3.2,1.7c0.1,1-1.3,1.4-3,1.5C7,21.7,5.6,21.5,5.6,20.5L5.6,20.5z M16.5,29.5
			c-3.1,0.9-6.1,0.1-6.6-1.7c0-0.1-0.1-0.3-0.1-0.4c1.5,0.7,3.8,0.7,6.1,0.1c2.3-0.6,4.2-1.8,5.2-3.2c0.1,0.1,0.1,0.2,0.1,0.4
			C21.8,26.5,19.6,28.6,16.5,29.5L16.5,29.5z M19.1,18.7c-1.5,0.8-2.9,1.1-3.4,0.2c-0.5-0.9,0.4-2.3,1.9-3.1
			c1.5-0.8,3.2-0.6,3.6,0.3C21.8,17.1,20.6,18,19.1,18.7L19.1,18.7z M19.1,18.7"/>
		<path class="st0" d="M44.1,20.7c-0.2-0.4-0.7-0.6-1.1-0.5c-3.9,0.1-6.7-0.5-9-1.8c-2.3-1.3-4.1-3.4-5.8-6.7
			c-0.2-0.4-0.6-0.6-1-0.7c-0.4,0-0.9,0.1-1.1,0.5c-0.1,0.1-0.7,0.9-1.6,2.3c0.3,1.1,0.6,2.4,0.9,3.8c0.8-0.6,2.2-0.3,3.4,0.7
			c1.3,1.1,1.8,2.7,1.1,3.5c-0.7,0.8-1.9,0.1-3.2-1c-0.4-0.3-0.8-0.7-1-1c0.3,2.9,0.1,5.4-0.6,7.7c1.1,0.1,2.2,0.5,3.4,1.2
			c2.8,1.6,4.4,4.2,3.5,5.8c-0.1,0.1-0.1,0.2-0.2,0.3c-0.6-1.5-2.1-3.2-4.2-4.4c-1-0.6-2-1-3-1.2c0,0.1-0.1,0.2-0.1,0.3
			c-0.6,1.3-1.4,2.4-2.3,3.4c0.6,0.9,1.4,1.8,2.3,2.5c0.1,0,0.1,0.1,0.2,0.1c0.1,0,0.1,0.1,0.2,0.1c5.2,1.9,10.3,0.1,14.7-5.2
			c3.2-3.9,4.9-8.2,4.9-8.4C44.4,21.5,44.3,21.1,44.1,20.7L44.1,20.7z M39.3,25.8c-0.3,1-1.7,0.8-3.4,0.2c-1.6-0.6-2.8-1.2-2.5-2.2
			c0.3-1,1.9-1.3,3.5-0.8C38.6,23.6,39.7,24.8,39.3,25.8L39.3,25.8z M39.3,25.8"/>
	</g>
</g>
</svg>
