<?xml version="1.0" encoding="utf-8"?>
<!-- Generator: Adobe Illustrator 19.2.1, SVG Export Plug-In . SVG Version: 6.00 Build 0)  -->
<svg version="1.1" id="Layer_1" xmlns="http://www.w3.org/2000/svg" xmlns:xlink="http://www.w3.org/1999/xlink" x="0px" y="0px"
	 viewBox="0 0 46 46" style="enable-background:new 0 0 46 46;" xml:space="preserve">
<style type="text/css">
	.st0{fill:#FFFFFF;}
</style>
<g>
	<path class="st0" d="M4.8,34.1c0,0.1-0.1,0.1-0.2,0.1H4.5c-0.1-0.1-0.2-0.2-0.2-0.3V18c0-0.1,0.1-0.2,0.2-0.3c0.1,0,0.2,0,0.3,0
		l10.6,6.1c0.1,0.1,0.2,0.1,0.2,0.2c0,0.1,0,0.2-0.1,0.2L4.8,34.1z M40.5,38.5c0.1,0.1,0.1,0.2,0.1,0.3C40.5,39,40.4,39,40.3,39H5.5
		c-0.2,0-0.4-0.1-0.6-0.2c-0.1-0.1-0.2-0.1-0.2-0.2c0-0.1,0-0.2,0.1-0.2l13.5-12.6c0.1-0.1,0.2-0.1,0.4,0l3.6,2c0.5,0.3,1,0.3,1.6,0
		l4.1-2.4c0.2-0.1,0.3-0.1,0.4,0L40.5,38.5z M41.7,17.5c0.1,0.1,0.2,0.1,0.2,0.3v16.8c0,0.1-0.1,0.2-0.2,0.3c0,0-0.1,0-0.1,0
		c-0.1,0-0.2,0-0.2-0.1L31.2,23.9c-0.1-0.1-0.1-0.2-0.1-0.2c0-0.1,0-0.2,0.1-0.2l10.1-5.9C41.5,17.4,41.6,17.4,41.7,17.5L41.7,17.5z
		 M40.6,8.5c0.4,0,0.7,0.1,0.9,0.4c0.2,0.2,0.4,0.5,0.4,0.9v3.8c0,0.2-0.1,0.3-0.3,0.3c-0.2,0-0.3,0.1-0.4,0.2L23.3,24.5
		c0,0-0.1,0-0.2,0c-0.1,0-0.1,0-0.2,0L4.5,14c-0.2-0.1-0.2-0.2-0.2-0.3v-4c0-0.3,0.1-0.6,0.4-0.9c0.2-0.2,0.5-0.4,0.9-0.4H40.6z
		 M40.6,8.5"/>
</g>
</svg>
