<?xml version="1.0" encoding="utf-8"?>
<!-- Generator: Adobe Illustrator 19.2.1, SVG Export Plug-In . SVG Version: 6.00 Build 0)  -->
<svg version="1.1" id="Layer_1" xmlns="http://www.w3.org/2000/svg" xmlns:xlink="http://www.w3.org/1999/xlink" x="0px" y="0px"
	 viewBox="0 0 46 46" style="enable-background:new 0 0 46 46;" xml:space="preserve">
<style type="text/css">
	.st0{fill:#FFFFFF;}
</style>
<g>
	<path class="st0" d="M11,38.1h24.2V12.9h-5.4v-2.2c0-2-1.6-3.6-3.6-3.6H20c-2,0-3.6,1.6-3.6,3.6v2.2H11V38.1z M26.1,29.8l-1.5,1.1
		l0.1,1.8c0,0.4-0.2,0.7-0.5,0.9c-0.2,0.1-0.3,0.1-0.5,0.1c-0.2,0-0.4-0.1-0.6-0.2l-1.5-1L20,33.3c-0.4,0.1-0.8,0.1-1-0.2
		c-0.3-0.3-0.4-0.6-0.3-1l0.5-1.8L18,28.9c-0.2-0.3-0.3-0.7-0.1-1c0.2-0.3,0.5-0.6,0.9-0.6l1.8-0.1l1-1.6c0.2-0.3,0.6-0.5,0.9-0.5
		c0.4,0,0.7,0.3,0.8,0.6l0.6,1.7l1.8,0.5c0.4,0.1,0.6,0.4,0.7,0.8C26.6,29.2,26.4,29.6,26.1,29.8L26.1,29.8z M30.9,16
		c1.8,0,2.9,0.7,2.9,1.7s-1.1,1.7-2.9,1.7c-1.8,0-2.9-0.7-2.9-1.7S29.1,16,30.9,16L30.9,16z M18.4,10.7c0-0.9,0.7-1.6,1.6-1.6h6.3
		c0.9,0,1.6,0.7,1.6,1.6v2.2h-9.5V10.7z M13.4,22l2.8-1.5c0.2-0.1,0.5-0.2,0.8-0.1c0.3,0.1,0.5,0.2,0.6,0.5l1.5,2.8
		c0.3,0.5,0.1,1.1-0.4,1.4l-2.8,1.5c-0.1,0.1-0.3,0.1-0.5,0.1c-0.1,0-0.2,0-0.3,0c-0.3-0.1-0.5-0.2-0.6-0.5L13,23.4
		C12.8,22.9,12.9,22.3,13.4,22L13.4,22z M42.1,15.5v20.1c0,1.4-1.1,2.6-2.6,2.6h-2.3V12.9h2.3C40.9,12.9,42.1,14.1,42.1,15.5
		L42.1,15.5z M9,38.1H6.7c-1.4,0-2.6-1.1-2.6-2.6V15.5c0-1.4,1.1-2.6,2.6-2.6H9V38.1z M9,38.1"/>
</g>
</svg>
