<?xml version="1.0" encoding="utf-8"?>
<!-- Generator: Adobe Illustrator 19.0.0, SVG Export Plug-In . SVG Version: 6.00 Build 0)  -->
<svg version="1.1" id="Layer_1" xmlns="http://www.w3.org/2000/svg" xmlns:xlink="http://www.w3.org/1999/xlink" x="0px" y="0px"
	 viewBox="0 0 39 39" style="enable-background:new 0 0 39 39;" xml:space="preserve">
<style type="text/css">
	.st0{display:none;}
	.st1{display:inline;opacity:0.11;}
	.st2{display:inline;}
	.st3{fill:#FFFFFF;}
	.st4{opacity:0.11;}
</style>
<g id="XMLID_2_" class="st0">
	<circle class="st1" cx="19.5" cy="19.5" r="19.5"/>
	<g class="st2">
		<g>
			<path class="st3" d="M28.1,27.2c-0.2-3.5-3.4-5-3.4-5c-0.8-0.4-2.1-1-3-1.5c1.2-1.3,1.5-3.3,1.6-3.6c0.2-1.3,0.1-3,0.1-3
				c-0.2-3.2-3.4-3.2-3.8-3.2c0,0,0,0,0,0s0,0,0,0c-0.3,0-3.6,0-3.8,3.2c0,0-0.1,1.6,0.1,3c0,0.1,0.1,0.3,0.1,0.6
				c0.6,0.8,1.5,1.2,2.3,1.4c0.1-0.1,0.2-0.2,0.4-0.2h1.4c0.3,0,0.5,0.2,0.5,0.5c0,0.3-0.2,0.5-0.5,0.5h-1.4c-0.2,0-0.4-0.1-0.5-0.3
				c-0.6-0.1-1.2-0.4-1.8-0.8c0.2,0.6,0.6,1.3,1.1,1.8c-0.9,0.5-2.3,1.2-3,1.5c0,0-3.2,1.5-3.4,5c0,0-0.1,0.6,1.1,0.8
				c0,0,3.4,0.8,7.5,0.8c4.1,0,7.5-0.8,7.5-0.8C28.1,27.8,28.1,27.2,28.1,27.2L28.1,27.2z M28.1,27.2"/>
			<path class="st3" d="M14.6,18.2H15v-4c0,0,0,0,0,0v-0.6c0-1,0.3-1.9,1-2.5c1.3-1.3,3.6-1.3,3.6-1.3c0,0,2.3,0,3.6,1.3
				c0.6,0.6,1,1.5,1,2.5v0.6c0,0,0,0,0,0v4h0.3c0.8,0,1.5-0.7,1.5-1.5v-1.5c0-0.7-0.4-1.2-1-1.4v-0.2c0-1.3-0.4-2.3-1.2-3.1
				C22.1,9,19.6,9,19.6,9c-0.1,0-2.6,0-4.2,1.5c-0.8,0.8-1.2,1.8-1.2,3.1v0.2c-0.6,0.2-1,0.8-1,1.4v1.5
				C13.1,17.5,13.8,18.2,14.6,18.2L14.6,18.2z M14.6,18.2"/>
		</g>
	</g>
</g>
<g id="XMLID_1_" class="st0">
	<circle id="XMLID_12_" class="st1" cx="19.5" cy="19.5" r="19.5"/>
	<g id="XMLID_5_" class="st2">
		<path id="XMLID_6_" class="st3" d="M11.5,24.8C11.5,24.8,11.4,24.8,11.5,24.8l-0.1,0c-0.1,0-0.1-0.1-0.1-0.1v-7.1
			c0-0.1,0-0.1,0.1-0.1c0,0,0.1,0,0.1,0l4.7,2.7c0,0,0.1,0.1,0.1,0.1c0,0.1,0,0.1-0.1,0.1L11.5,24.8z M27.4,26.8c0,0,0,0.1,0,0.1
			c0,0.1-0.1,0.1-0.1,0.1H11.8c-0.1,0-0.2,0-0.3-0.1c0,0-0.1-0.1-0.1-0.1c0,0,0-0.1,0.1-0.1l6-5.6c0,0,0.1-0.1,0.2,0l1.6,0.9
			c0.2,0.1,0.5,0.1,0.7,0l1.8-1.1c0.1,0,0.1,0,0.2,0L27.4,26.8z M27.9,17.4c0,0,0.1,0.1,0.1,0.1V25c0,0.1,0,0.1-0.1,0.1
			c0,0,0,0-0.1,0c0,0-0.1,0-0.1-0.1l-4.5-4.9c0,0,0-0.1,0-0.1c0,0,0-0.1,0.1-0.1l4.5-2.7C27.8,17.4,27.9,17.4,27.9,17.4L27.9,17.4z
			 M27.4,13.4c0.2,0,0.3,0.1,0.4,0.2c0.1,0.1,0.2,0.2,0.2,0.4v1.7c0,0.1,0,0.1-0.1,0.1c-0.1,0-0.1,0-0.2,0.1l-8,4.7c0,0,0,0-0.1,0
			c0,0-0.1,0-0.1,0l-8.2-4.7c-0.1,0-0.1-0.1-0.1-0.1v-1.8c0-0.2,0.1-0.3,0.2-0.4c0.1-0.1,0.2-0.2,0.4-0.2H27.4z M27.4,13.4"/>
	</g>
</g>
<g id="XMLID_4_">
	<circle id="XMLID_16_" class="st4" cx="19.5" cy="19.5" r="19.5"/>
	<path id="XMLID_13_" class="st3" d="M27.5,21.8c0.1-0.6,0.2-1.2,0.2-1.8c0-4.6-3.6-8.3-8.1-8.3c-0.5,0-0.9,0-1.4,0.1
		c-0.7-0.5-1.6-0.7-2.5-0.7c-2.6,0-4.7,2.2-4.7,4.8c0,0.9,0.2,1.7,0.6,2.4c-0.1,0.5-0.2,1.1-0.2,1.7c0,4.6,3.6,8.3,8.1,8.3
		c0.5,0,1,0,1.5-0.1c0.7,0.4,1.4,0.6,2.2,0.6c2.6,0,4.7-2.2,4.7-4.8C28,23.1,27.8,22.4,27.5,21.8z M23.7,23.9
		c-0.4,0.5-0.9,1-1.6,1.3c-0.7,0.3-1.6,0.5-2.5,0.5c-1.2,0-2.1-0.2-2.9-0.6c-0.5-0.3-1-0.7-1.3-1.2c-0.3-0.5-0.5-1-0.5-1.5
		c0-0.3,0.1-0.6,0.3-0.8c0.2-0.2,0.5-0.3,0.8-0.3c0.3,0,0.5,0.1,0.7,0.3c0.2,0.2,0.3,0.4,0.5,0.7c0.1,0.3,0.3,0.6,0.5,0.8
		c0.2,0.2,0.4,0.4,0.7,0.5c0.3,0.1,0.7,0.2,1.2,0.2c0.7,0,1.2-0.1,1.6-0.4c0.4-0.3,0.6-0.6,0.6-1c0-0.3-0.1-0.6-0.3-0.8
		c-0.2-0.2-0.5-0.4-0.9-0.5c-0.4-0.1-0.9-0.2-1.5-0.4c-0.8-0.2-1.6-0.4-2.1-0.7c-0.6-0.3-1.1-0.6-1.4-1c-0.3-0.4-0.5-1-0.5-1.7
		c0-0.6,0.2-1.2,0.6-1.7c0.4-0.5,0.9-0.9,1.6-1.1c0.7-0.3,1.5-0.4,2.4-0.4c0.7,0,1.4,0.1,1.9,0.3c0.5,0.2,1,0.4,1.3,0.7
		c0.4,0.3,0.6,0.6,0.8,0.9c0.2,0.3,0.3,0.6,0.3,1c0,0.3-0.1,0.6-0.3,0.8c-0.2,0.2-0.5,0.4-0.8,0.4c-0.3,0-0.5-0.1-0.7-0.2
		c-0.2-0.1-0.3-0.4-0.5-0.7c-0.2-0.4-0.4-0.7-0.7-0.9c-0.3-0.2-0.7-0.3-1.4-0.3c-0.6,0-1.1,0.1-1.4,0.4c-0.3,0.2-0.5,0.5-0.5,0.8
		c0,0.2,0.1,0.3,0.2,0.5c0.1,0.1,0.3,0.3,0.5,0.4c0.2,0.1,0.4,0.2,0.7,0.3c0.2,0.1,0.6,0.2,1.1,0.3c0.7,0.1,1.3,0.3,1.8,0.5
		c0.5,0.2,1,0.4,1.4,0.7c0.4,0.3,0.7,0.6,0.9,1c0.2,0.4,0.3,0.9,0.3,1.5C24.3,22.8,24.1,23.4,23.7,23.9z"/>
</g>
</svg>
