<?xml version="1.0" encoding="utf-8"?>
<!-- Generator: Adobe Illustrator 19.2.1, SVG Export Plug-In . SVG Version: 6.00 Build 0)  -->
<svg version="1.1" id="Layer_1" xmlns="http://www.w3.org/2000/svg" xmlns:xlink="http://www.w3.org/1999/xlink" x="0px" y="0px"
	 viewBox="0 0 25 25" style="enable-background:new 0 0 25 25;" xml:space="preserve">
<style type="text/css">
	.st0{opacity:0.11;fill:#0091D4;}
	.st1{fill:#0091D4;}
</style>
<circle class="st0" cx="12.5" cy="12.5" r="12"/>
<g>
	<path class="st1" d="M9,11.5c0,0.6-0.2,1.1-0.6,1.4s-0.9,0.5-1.7,0.5H6.2v2.1H5.3V9.8h1.6c0.7,0,1.2,0.1,1.6,0.4S9,10.9,9,11.5z
		 M6.2,12.6h0.5c0.5,0,0.8-0.1,1.1-0.3s0.3-0.4,0.3-0.8c0-0.3-0.1-0.6-0.3-0.7s-0.5-0.2-0.9-0.2H6.2V12.6z"/>
	<path class="st1" d="M15.1,12.6c0,0.9-0.3,1.7-0.8,2.2s-1.3,0.7-2.3,0.7h-1.6V9.8h1.8c0.9,0,1.6,0.2,2.1,0.7S15.1,11.7,15.1,12.6z
		 M14.2,12.6c0-1.4-0.6-2.1-1.9-2.1h-0.8v4.1h0.7C13.5,14.7,14.2,14,14.2,12.6z"/>
	<path class="st1" d="M17.6,15.5h-0.9V9.8h3.2v0.8h-2.3v1.8h2.2v0.8h-2.2V15.5z"/>
</g>
</svg>
