<?xml version="1.0" encoding="utf-8"?>
<!-- Generator: Adobe Illustrator 15.1.0, SVG Export Plug-In  -->
<!DOCTYPE svg PUBLIC "-//W3C//DTD SVG 1.1//EN" "http://www.w3.org/Graphics/SVG/1.1/DTD/svg11.dtd" [
	<!ENTITY ns_flows "http://ns.adobe.com/Flows/1.0/">
]>
<svg version="1.1"
	 xmlns="http://www.w3.org/2000/svg" xmlns:xlink="http://www.w3.org/1999/xlink" xmlns:a="http://ns.adobe.com/AdobeSVGViewerExtensions/3.0/"
	 x="0px" y="0px" width="90px" height="90px" viewBox="-1.956 -1.957 90 90" enable-background="new -1.956 -1.957 90 90"
	 xml:space="preserve">
<defs>
</defs>
<path fill="#A2C440" d="M86.089,43.043c0,23.771-19.271,43.042-43.043,43.042C19.271,86.085,0,66.814,0,43.043
	C0,19.27,19.271,0,43.045,0C66.817,0,86.089,19.27,86.089,43.043"/>
<path fill="#82A41E" d="M83.273,58.379l-33.409-33.41L47.55,35.783l-12.403,9.68L30.86,63.821l21.297,21.295
	C66.477,82.031,78.146,71.82,83.273,58.379"/>
<path fill="#FFFFFF" d="M44.13,58.747v2.459h-2.363l-0.001-2.292c-1.615-0.072-3.181-0.507-4.099-1.035l0.723-2.821
	c1.013,0.553,2.436,1.058,4.003,1.058c1.375,0,2.317-0.529,2.315-1.493c0-0.915-0.772-1.495-2.557-2.099
	c-2.581-0.867-4.34-2.074-4.34-4.412c0-2.123,1.496-3.787,4.075-4.295v-2.289h2.364v2.122c1.615,0.071,2.701,0.41,3.497,0.796
	l-0.7,2.723c-0.626-0.264-1.736-0.818-3.471-0.818c-1.568,0-2.075,0.676-2.075,1.352c0,0.796,0.845,1.3,2.892,2.074
	c2.872,1.011,4.03,2.339,4.03,4.508C48.423,56.431,46.904,58.263,44.13,58.747 M56.561,40.258c0-2.527-0.609-3.713-0.609-3.713
	l-0.351-0.866c0,0-2.564-5.7-3.845-8.583c-1.28-2.882-4.484-2.882-4.484-2.882h-3.77c0.255,1.64,0.75,4.412,1.424,6.257
	c1.224,0.666,2.056,1.965,2.056,3.457c0,2.177-1.763,3.937-3.937,3.937c-2.174,0-3.936-1.76-3.936-3.937
	c0-1.355,0.693-2.542,1.74-3.248c0.422,1.416,0.795,2.528,0.995,3.096c0.183,0.525,0.674,0.855,1.201,0.855
	c0.138,0,0.28-0.023,0.417-0.07c0.665-0.232,1.016-0.957,0.785-1.619c-0.314-0.907-0.632-1.899-0.937-2.937h0.003
	c-0.003,0-0.003-0.003-0.005-0.003c-0.002-0.015-0.008-0.031-0.013-0.048c-0.094-0.339-0.696-2.49-1.11-4.267
	c-0.91-4.031-1.34-7.859-0.442-9.195c0.148-0.219,0.299-0.306,0.56-0.318c0.215-0.01,0.287,0.049,0.354,0.123
	c0.609,0.664,0.622,2.871,0.441,4.152c-0.102,0.694,0.382,1.341,1.078,1.44c0.697,0.1,1.34-0.382,1.442-1.079
	c0.104-0.726,0.546-4.446-1.08-6.231c-0.612-0.668-1.432-0.996-2.368-0.948c-1.064,0.056-1.943,0.554-2.539,1.441
	c-1.254,1.862-1.042,5.52-0.375,9.142h-0.441c0,0-3.202,0-4.484,2.882c-0.335,0.756-0.759,1.705-1.203,2.695l-2.199,4.906
	c-0.273,0.606-0.442,0.981-0.442,0.981l-0.353,0.866c0,0-0.607,1.183-0.607,3.713c-0.002,0.189,0,0.46-0.002,0.803v2.158h0.002
	c0,5.865-0.002,17.602-0.002,17.602s0.224,4.677,5.845,4.677c5.622,0,7.672,0,7.672,0h7.671c5.622,0,5.845-4.677,5.845-4.677
	S56.561,42.791,56.561,40.258"/>
</svg>
