<?xml version="1.0" encoding="utf-8"?>
<!-- Generator: Adobe Illustrator 15.1.0, SVG Export Plug-In  -->
<!DOCTYPE svg PUBLIC "-//W3C//DTD SVG 1.1//EN" "http://www.w3.org/Graphics/SVG/1.1/DTD/svg11.dtd" [
	<!ENTITY ns_flows "http://ns.adobe.com/Flows/1.0/">
]>
<svg version="1.1"
	 xmlns="http://www.w3.org/2000/svg" xmlns:xlink="http://www.w3.org/1999/xlink" xmlns:a="http://ns.adobe.com/AdobeSVGViewerExtensions/3.0/"
	 x="0px" y="0px" width="90px" height="90px" viewBox="-1.956 -1.957 90 90" enable-background="new -1.956 -1.957 90 90"
	 xml:space="preserve">
<defs>
</defs>
<path fill="#A2C440" d="M86.088,43.043c0,23.772-19.271,43.044-43.043,43.044C19.271,86.087,0,66.815,0,43.043S19.271,0,43.045,0
	C66.817,0,86.088,19.271,86.088,43.043"/>
<path fill="#82A41E" d="M44.546,64.07l-18.164-5.266L52.6,85.021c15.659-3.55,28.076-15.636,32.103-31.108L57.625,26.835
	l5.13,13.534l-3.214,15.399L44.546,64.07z"/>
<path fill="#FFFFFF" d="M42.248,44.354c-0.076,0.042-0.173,0.012-0.212-0.067l-0.86-1.634c-0.041-0.077-0.012-0.173,0.065-0.214
	l10.715-4.931c0.076-0.04,0.171-0.012,0.213,0.066l0.286,0.542c0.041,0.077,0.01,0.174-0.067,0.214L42.248,44.354z"/>
<path fill="#FFFFFF" d="M43.432,42.836c0.032-0.08-0.004-0.172-0.085-0.206l-1.703-0.715c-0.08-0.034-0.174,0.003-0.207,0.083
	l-2.676,7.971c-0.033,0.078,0.003,0.172,0.085,0.207l0.563,0.238c0.08,0.032,0.174-0.006,0.208-0.088L43.432,42.836z"/>
<path fill="#FFFFFF" d="M43.876,43.032c0-0.907-0.738-1.647-1.649-1.647c-0.91,0-1.647,0.74-1.647,1.647
	c0,0.913,0.737,1.649,1.647,1.649C43.139,44.682,43.876,43.945,43.876,43.032"/>
<polygon fill="#FFFFFF" points="41.6,28.229 39.497,28.229 39.497,29.769 37.807,29.769 37.807,26.426 43.515,26.426 43.515,28.342 
	40.267,39.794 38.24,39.794 "/>
<polygon fill="#FFFFFF" points="35.488,26.313 36.989,26.313 34.511,39.905 33.01,39.905 "/>
<path fill="#FFFFFF" d="M19.881,37.991l3.455-6.515c0.174-0.324,0.275-0.61,0.3-0.855c0.024-0.242,0.038-0.546,0.038-0.909
	c0-0.163-0.007-0.336-0.02-0.516c-0.012-0.183-0.046-0.343-0.103-0.479c-0.056-0.137-0.148-0.254-0.272-0.347
	c-0.125-0.095-0.306-0.142-0.545-0.142c-0.288,0-0.516,0.082-0.684,0.243c-0.169,0.163-0.254,0.403-0.254,0.716v1.088h-1.915v-1.053
	c0-0.399,0.076-0.775,0.225-1.125c0.152-0.351,0.354-0.657,0.61-0.92c0.257-0.263,0.561-0.472,0.912-0.629
	c0.349-0.155,0.726-0.236,1.127-0.236c0.501,0,0.929,0.093,1.284,0.273c0.357,0.181,0.651,0.428,0.884,0.742
	c0.231,0.313,0.399,0.67,0.506,1.07s0.16,0.824,0.16,1.274c0,0.329-0.007,0.6-0.019,0.817c-0.013,0.22-0.037,0.429-0.074,0.629
	c-0.039,0.2-0.101,0.402-0.188,0.602c-0.088,0.201-0.207,0.444-0.357,0.732l-2.815,5.426h3.454v1.914h-5.708V37.991z"/>
<polygon fill="#FFFFFF" points="29.822,37.803 26.011,37.803 26.011,36.002 28.771,26.428 30.799,26.428 27.926,36.002 
	29.822,36.002 29.822,32.189 31.737,32.189 31.737,36.002 32.658,36.002 32.658,37.803 31.737,37.803 31.737,39.793 29.822,39.793 
	"/>
<path fill="#FFFFFF" d="M43.406,20.718v3.662c4.23,0.264,8.073,1.925,11.081,4.538l-1.486,2.514c-0.062,0.063-0.062,0.162,0,0.225
	l0.433,0.433c0.063,0.062,0.163,0.062,0.224-0.002l2.526-1.489c2.659,2.983,4.373,6.814,4.687,11.045l-2.941,0.757
	c-0.087,0-0.158,0.071-0.158,0.157v0.613c0,0.088,0.071,0.157,0.158,0.157l2.958,0.763c-0.239,4.257-1.888,8.129-4.504,11.158
	l-2.724-1.607c-0.062-0.063-0.161-0.063-0.225,0l-0.433,0.431c-0.061,0.063-0.061,0.161,0,0.224l1.616,2.735
	c-3.005,2.663-6.866,4.367-11.123,4.653l-0.802-3.117c0-0.086-0.074-0.156-0.161-0.156H41.92c-0.087,0-0.156,0.07-0.156,0.156
	l-0.803,3.117c-4.258-0.288-8.118-1.99-11.124-4.653l1.614-2.733c0.063-0.063,0.063-0.162,0-0.226l-0.433-0.431
	c-0.061-0.063-0.161-0.061-0.224,0l-2.724,1.607c-2.616-3.029-4.264-6.9-4.502-11.158l2.955-0.761c0.087,0,0.158-0.071,0.158-0.158
	v-0.612h-6.787c-0.003,0.159-0.013,0.316-0.013,0.474c0,12.343,10.006,22.347,22.347,22.347c12.343,0,22.346-10.004,22.346-22.347
	C64.574,31.086,55.201,21.332,43.406,20.718"/>
</svg>
