<?xml version="1.0" encoding="utf-8"?>
<!-- Generator: Adobe Illustrator 19.0.0, SVG Export Plug-In . SVG Version: 6.00 Build 0)  -->
<svg version="1.1" id="Layer_1" xmlns="http://www.w3.org/2000/svg" xmlns:xlink="http://www.w3.org/1999/xlink" x="0px" y="0px"
	 viewBox="0 0 284 91" style="enable-background:new 0 0 284 91;" xml:space="preserve">
<style type="text/css">
	.st0{opacity:0.6;}
	.st1{opacity:0.6;fill-rule:evenodd;clip-rule:evenodd;}
</style>
<path id="XMLID_69_" class="st0" d="M23.4,16.9c-1.5,1.4-3.6,2.3-5.9,2.3c-2.3,0-4.4-0.9-5.9-2.3l-1,1.3c1.6,2.1,4.1,3.4,6.9,3.4
	c2.8,0,5.3-1.3,6.9-3.4L23.4,16.9z"/>
<path id="XMLID_68_" class="st0" d="M70.6,55.7h0.8c0.3,0,0.6-0.3,0.6-0.6v-3.6c0-0.3-0.3-0.6-0.6-0.6h-0.8c-0.3,0-0.6,0.3-0.6,0.6
	v3.6C70,55.4,70.2,55.7,70.6,55.7"/>
<path id="XMLID_67_" class="st0" d="M79,55.7h0.8c0.3,0,0.6-0.3,0.6-0.6v-3.6c0-0.3-0.3-0.6-0.6-0.6H79c-0.3,0-0.6,0.3-0.6,0.6v3.6
	C78.4,55.4,78.7,55.7,79,55.7"/>
<path id="XMLID_64_" class="st0" d="M82.6,58.9H67.9v11.6c0,0.3,0.3,0.6,0.6,0.6H82c0.3,0,0.6-0.3,0.6-0.6V58.9z M84.4,56v14.7
	c0,1-0.8,1.8-1.8,1.8H67.9c-1,0-1.8-0.8-1.8-1.8V56c0-1,0.8-1.8,1.8-1.8h0.9v0.9c0,1,0.8,1.8,1.8,1.8h0.8c1,0,1.8-0.8,1.8-1.8v-0.9
	h4.1v0.9c0,1,0.8,1.8,1.8,1.8h0.8c1,0,1.8-0.8,1.8-1.8v-0.9h1C83.6,54.2,84.4,55,84.4,56"/>
<path id="XMLID_63_" class="st0" d="M74,68.3c0.2,0.2,0.4,0.4,0.7,0.4c0,0,0,0,0,0c0.3,0,0.5-0.1,0.7-0.3l4.7-5.3
	c0.4-0.4,0.3-1-0.1-1.3c-0.4-0.3-1-0.3-1.3,0.1l-3.9,4.4L73.2,64c-0.3-0.4-0.9-0.5-1.3-0.2c-0.4,0.3-0.5,0.9-0.2,1.3L74,68.3z"/>
<path id="XMLID_60_" class="st0" d="M145.5,61.7c0,6.9-5.6,12.4-12.4,12.4c-6.9,0-12.4-5.6-12.4-12.4c0-6.9,5.6-12.4,12.4-12.4
	C139.9,49.3,145.5,54.8,145.5,61.7 M147,61.7c0-7.7-6.3-14-14-14c-7.7,0-14,6.3-14,14c0,7.7,6.3,14,14,14
	C140.8,75.7,147,69.4,147,61.7"/>
<polygon id="XMLID_59_" class="st0" points="134.3,65.9 134.3,61.5 134.3,59.2 131.7,59.2 131,59.2 131,61.5 131.7,61.5 131.7,65.9 
	131,65.9 131,68.3 131.7,68.3 134.3,68.3 135.1,68.3 135.1,65.9 "/>
<path id="XMLID_58_" class="st0" d="M133,58.1c0.8,0,1.5-0.7,1.5-1.5c0-0.8-0.7-1.5-1.5-1.5c-0.8,0-1.5,0.7-1.5,1.5
	C131.5,57.4,132.2,58.1,133,58.1"/>
<path id="XMLID_57_" class="st0" d="M24.9,68.7h-0.2c-0.2,0-0.3,0.1-0.3,0.3v1.4c0,0.2,0.1,0.3,0.3,0.3h0.2c0.2,0,0.3-0.1,0.3-0.3
	V69C25.2,68.9,25.1,68.7,24.9,68.7"/>
<path id="XMLID_56_" class="st0" d="M19.9,63.6h-1.4c-0.2,0-0.3,0.1-0.3,0.3v0.2c0,0.2,0.1,0.3,0.3,0.3h1.4c0.2,0,0.3-0.1,0.3-0.3
	v-0.2C20.2,63.8,20,63.6,19.9,63.6"/>
<path id="XMLID_55_" class="st0" d="M24.8,57.4L24.8,57.4l0,6.7l5.7,3.5c0.6-1,1-2.2,1-3.5C31.5,60.4,28.5,57.4,24.8,57.4"/>
<path id="XMLID_52_" class="st0" d="M32.5,64c0-4.3-3.5-7.7-7.7-7.7c-4.3,0-7.7,3.5-7.7,7.7c0,4.3,3.4,7.7,7.7,7.7
	C29.1,71.8,32.5,68.3,32.5,64 M35,64c0,5.6-4.6,10.2-10.2,10.2c-3.8,0-7.2-2.1-8.9-5.3c-0.7,0.4-1.6,0.8-2.7,0.8
	c-2.1,0-2.3-1.8-3.8-1.8c-1.5,0-2.6,0.3-2.6,0.3s1.8-1.5,2.9-1.5c1.1,0,1,0.7,2.4,0.7c1.3,0,1.6-2.5-0.4-2.5c-2,0-2.6,1.3-4.6,1.3
	c-2.1,0-2.9-4.2-5.3-4.2c-1.2,0-1.8,0.3-1.8,0.3c1.2-1.7,3-1.7,3-1.7c2.3,0,1.7,2.1,4.3,2.2c0,0,1.3,0,1.2-1
	c-0.4-2.7-4.2-2.4-4.2-2.4s0.7-1,2.8-1c2.2,0,2.5,1.7,4.6,1.7c2.1,0,1.9-1.3,1.9-1.3s0.8-1.8-2.4-1.9c-3.1-0.2-3.8-2.3-3.8-2.3
	c3.3,1.4,2.5-0.2,5.3,0c2.8,0.1,3,2.5,4,2.4c1-0.1,1-1.2,0.6-1.2c-2.1-0.4-1.4-2.5-1.4-2.5c1.8,2.5,4.6,1.5,4.6,1.5l0,0
	c0.9-0.4,2-0.7,3-0.9v-2.1h-1.8c-0.2,0-0.3-0.1-0.3-0.3v-2c0-0.2,0.1-0.3,0.3-0.3h6c0.2,0,0.3,0.1,0.3,0.3v2c0,0.2-0.1,0.3-0.3,0.3
	h-1.8v2.1C31.1,54.5,35,58.8,35,64"/>
<polygon id="XMLID_51_" class="st0" points="172.4,59.7 173.7,59.7 175.9,52 175.9,50.8 172.1,50.8 172.1,53 173.2,53 173.2,52 
	174.6,52 "/>
<polygon id="XMLID_50_" class="st0" points="175.4,59.8 176.4,59.8 178.1,50.7 177.1,50.7 "/>
<path id="XMLID_49_" class="st0" d="M178.2,59.7h3.8v-1.3h-2.3l1.9-3.6c0.1-0.2,0.2-0.4,0.2-0.5c0.1-0.1,0.1-0.3,0.1-0.4
	c0-0.1,0-0.3,0.1-0.4c0-0.1,0-0.3,0-0.5c0-0.3,0-0.6-0.1-0.9c-0.1-0.3-0.2-0.5-0.3-0.7c-0.2-0.2-0.4-0.4-0.6-0.5
	c-0.2-0.1-0.5-0.2-0.9-0.2c-0.3,0-0.5,0.1-0.8,0.2c-0.2,0.1-0.4,0.2-0.6,0.4c-0.2,0.2-0.3,0.4-0.4,0.6c-0.1,0.2-0.2,0.5-0.2,0.8v0.7
	h1.3v-0.7c0-0.2,0.1-0.4,0.2-0.5c0.1-0.1,0.3-0.2,0.5-0.2c0.2,0,0.3,0,0.4,0.1c0.1,0.1,0.1,0.1,0.2,0.2c0,0.1,0.1,0.2,0.1,0.3
	c0,0.1,0,0.2,0,0.3c0,0.2,0,0.4,0,0.6s-0.1,0.4-0.2,0.6l-2.3,4.3V59.7z"/>
<path id="XMLID_48_" class="st0" d="M185.3,70.7h-0.3c-0.1,0-0.1,0-0.1,0.1l-0.5,1.8c-2.5-0.2-4.8-1.2-6.5-2.7l0.9-1.6
	c0,0,0-0.1,0-0.1l-0.3-0.3c0,0-0.1,0-0.1,0l-1.6,0.9c-1.5-1.8-2.5-4.1-2.6-6.6l1.7-0.4c0.1,0,0.1,0,0.1-0.1v-0.4h-4
	c0,0.1,0,0.2,0,0.3c0,7.3,5.9,13.2,13.1,13.2c0,0,0.1,0,0.1,0V70.7z"/>
<path id="XMLID_47_" class="st0" d="M185.3,60.7C185.3,60.7,185.3,60.7,185.3,60.7c-0.6,0-1.1,0.4-1.1,1c0,0.5,0.4,1,1,1
	c0,0,0.1,0,0.1,0V60.7z"/>
<path id="XMLID_46_" class="st0" d="M185.3,61.2l-0.4-0.2c0,0-0.1,0-0.1,0l-1.6,4.7c0,0,0,0.1,0.1,0.1l0.3,0.1c0,0,0.1,0,0.1-0.1
	l1.6-3.2V61.2z"/>
<polygon id="XMLID_45_" class="st0" points="185.3,59.7 185.3,54.6 184.8,54.6 184.8,57.2 183.6,57.2 185.3,51.2 185.3,50.8 
	184.1,50.8 182.3,57.2 182.3,58.4 184.8,58.4 184.8,59.7 "/>
<path id="XMLID_44_" class="st0" d="M17.5,27.8c-6.9,0-12.4-5.6-12.4-12.4H3.5c0,7.7,6.3,14,14,14c7.7,0,14-6.3,14-14h-1.6
	C29.9,22.2,24.4,27.8,17.5,27.8"/>
<path id="XMLID_41_" class="st0" d="M89,18.5H71.8v5.4c0,0.2,0.2,0.4,0.4,0.4h16.3c0.2,0,0.4-0.2,0.4-0.4V18.5z M90.6,15.4v8.6
	c0,1.1-0.9,2-2,2H72.2c-1.1,0-2-0.9-2-2v-8.6h1.6v0.2H89v-0.2H90.6z"/>
<path id="XMLID_40_" class="st0" d="M65.1,19l3.7-1.4v-2.3h-1.8c0,0-0.1,0.1-0.1,0.1l-2.3,0.8c-0.5,0.2-1.1-0.1-1.3-0.6l-0.1-0.3
	h-2.3l2.5,6.8c0.4,1,1.5,1.6,2.6,1.2l2.9-1v-3.5l-3.3,1.2c-0.3,0.1-0.6,0-0.7-0.3C64.7,19.4,64.8,19.1,65.1,19"/>
<polygon id="XMLID_39_" class="st0" points="132.1,15.4 146.1,29.4 147,28.4 134,15.4 "/>
<polygon id="XMLID_38_" class="st0" points="132.1,15.4 119,28.4 120,29.4 134,15.4 "/>
<path id="XMLID_37_" class="st0" d="M122.4,15.4C122.4,15.4,122.4,15.4,122.4,15.4c-0.1,0.3-0.3,0.5-0.4,0.7
	c-0.3,0.3-0.6,0.6-0.9,0.8c-0.4,0.2-0.7,0.3-1.1,0.3c-0.3,0-0.6-0.1-0.8-0.2c-0.3-0.1-0.5-0.3-0.6-0.5c-0.2-0.2-0.3-0.5-0.4-0.8
	c0-0.1,0-0.2-0.1-0.3h-2.5c0,0.4,0.1,0.7,0.2,1c0.2,0.5,0.5,1,0.8,1.4c0.4,0.4,0.8,0.7,1.3,0.9c0.5,0.2,1.1,0.3,1.8,0.3
	c0.4,0,0.9,0,1.2-0.1c0.4-0.1,0.7-0.2,1.1-0.3c0.3-0.1,0.6-0.3,0.9-0.5c0.3-0.2,0.5-0.4,0.8-0.7c0.3-0.3,0.5-0.6,0.7-1
	c0.2-0.3,0.4-0.7,0.5-1.1H122.4z"/>
<path id="XMLID_36_" class="st0" d="M130.5,15.4c0,0,0,0.1,0,0.2c-0.1,0.3-0.2,0.6-0.4,0.9c-0.2,0.3-0.4,0.5-0.6,0.7
	c-0.2,0.2-0.5,0.2-0.8,0.2c-0.3,0-0.6-0.1-0.8-0.4c-0.2-0.2-0.3-0.6-0.3-1c0-0.2,0-0.4,0-0.6h-2.2c0,0.2-0.1,0.4-0.1,0.6
	c0,0.4,0.1,0.8,0.2,1.2c0.1,0.4,0.3,0.7,0.6,1c0.3,0.3,0.6,0.5,1,0.6c0.4,0.2,0.9,0.2,1.4,0.2c0.5,0,1-0.1,1.4-0.2
	c0.4-0.1,0.8-0.3,1.1-0.5c0.3-0.2,0.6-0.5,0.8-0.8c0.2-0.3,0.4-0.6,0.6-1c0.1-0.3,0.2-0.7,0.3-1c0,0,0-0.1,0-0.1H130.5z"/>
<path id="XMLID_35_" class="st0" d="M138.3,15.4c0,0.1,0,0.1,0,0.2c-0.1,0.4-0.3,0.7-0.5,1c-0.2,0.3-0.5,0.5-0.7,0.7
	c-0.3,0.2-0.6,0.3-1,0.3c-0.1,0-0.1,0-0.2,0c-0.1,0-0.2,0-0.2,0c-0.1,0-0.2,0-0.2,0c-0.1,0-0.1,0-0.2,0l0.4-1.7
	c0-0.1,0.1-0.2,0.1-0.3h-2.3l-1.5,6.8h2.3l0.7-3.3c0.2,0,0.4,0.1,0.6,0.1c0.2,0,0.4,0,0.6,0c0.5,0,1-0.1,1.4-0.2
	c0.4-0.1,0.8-0.3,1.2-0.5c0.3-0.2,0.6-0.5,0.9-0.8c0.3-0.3,0.5-0.7,0.6-1c0.2-0.3,0.3-0.7,0.4-1.1H138.3z"/>
<path id="XMLID_34_" class="st0" d="M145.4,15.4h-3.5c0.1,0.1,0.1,0.1,0.2,0.2c0.2,0.1,0.4,0.3,0.7,0.4c0.3,0.2,0.6,0.3,0.7,0.4
	c0.1,0.1,0.2,0.3,0.2,0.5c0,0.2-0.1,0.4-0.3,0.5c-0.2,0.1-0.4,0.2-0.8,0.2c-0.2,0-0.4,0-0.6-0.1c-0.2,0-0.4-0.1-0.6-0.1
	s-0.4-0.1-0.5-0.2c-0.2-0.1-0.3-0.1-0.4-0.2l-0.3,1.7c0.1,0.1,0.3,0.1,0.5,0.2c0.2,0,0.4,0.1,0.6,0.1c0.2,0,0.4,0.1,0.6,0.1
	c0.2,0,0.4,0,0.6,0c0.6,0,1.2-0.1,1.6-0.2c0.4-0.1,0.8-0.3,1-0.6c0.3-0.2,0.5-0.5,0.6-0.8c0.1-0.3,0.2-0.6,0.2-0.9
	c0-0.3,0-0.5-0.1-0.7C145.7,15.7,145.6,15.5,145.4,15.4"/>
<polygon id="XMLID_33_" class="st0" points="148.9,15.4 147.1,15.4 147,15.7 148.8,15.7 "/>
<path id="XMLID_32_" class="st0" d="M148.5,17c-0.1-0.1-0.2-0.2-0.4-0.2c-0.2-0.1-0.3-0.1-0.5-0.1c-0.2,0-0.4,0-0.5,0.1
	c-0.2,0.1-0.3,0.1-0.4,0.2c-0.1,0.1-0.2,0.2-0.3,0.4c-0.1,0.2-0.1,0.3-0.1,0.5c0,0.2,0,0.3,0.1,0.4c0.1,0.1,0.2,0.3,0.3,0.4
	c0.1,0.1,0.2,0.2,0.4,0.2c0.2,0.1,0.3,0.1,0.5,0.1c0.2,0,0.4,0,0.5-0.1c0.2-0.1,0.3-0.1,0.4-0.3c0.1-0.1,0.2-0.2,0.3-0.4
	c0.1-0.1,0.1-0.3,0.1-0.5c0-0.2,0-0.3-0.1-0.4C148.7,17.2,148.6,17.1,148.5,17"/>
<path id="XMLID_31_" class="st0" d="M185.3,16.8v-1.4h-7.9V25c0,0.9,0.8,1.7,1.7,1.7h6.2v-4.1c-0.4,0-0.7-0.3-0.7-0.7V19
	c-0.3-0.2-0.6-0.6-0.6-1C184.1,17.3,184.7,16.8,185.3,16.8"/>
<path id="XMLID_30_" class="st1" d="M234.7,66.1c1.5,0,2.9,0,4.3,0c0.1,0,0.3,0.1,0.4,0.2c0.1,0.4,0.3,0.8,0.3,1.1
	c-0.1,0.7,0.1,1.3,0.7,1.7c0.6,0.4,0.9,1,0.9,1.7c0,0.5-0.2,0.8-0.8,0.8c-1,0-2,0-3.1,0c-0.5,0-0.8-0.2-0.9-0.6
	C235.9,69.4,235.3,67.8,234.7,66.1"/>
<path id="XMLID_29_" class="st1" d="M252.5,63.7c1.8-1.3,2-3.6,0-5.1c0.4-0.5,0.9-1.1,1.3-1.7c1.3,0.9,2,2.1,2.2,3.6
	c0.3,2.3-1,4.1-2.2,4.9C253.4,64.8,252.9,64.2,252.5,63.7"/>
<path id="XMLID_26_" class="st1" d="M247.6,60.8c0-2,0-4,0-6.1c-2,1.6-4.2,2.9-6.7,3.5c0,0.9,0,1.7,0,2.6c0,0.9,0,1.7,0,2.6
	c2.6,0.5,4.7,1.9,6.7,3.5C247.6,64.8,247.6,62.8,247.6,60.8 M251,60.8c0.1,1.1-0.3,2.2-1.2,2.9c-0.2,0.2-0.3,0.4-0.3,0.6
	c0,1.5,0,2.9,0,4.4c0,0.4-0.1,0.8-0.5,1c-0.5,0.2-0.8,0-1.1-0.3c-1.7-1.6-3.4-2.9-5.6-3.8c-1-0.4-2-0.6-3.1-0.6c-1.8,0-3.6,0-5.4,0
	c-0.5,0-0.9-0.1-1.1-0.6c0-0.1-0.1-0.2-0.2-0.2c-1.7-0.1-2.7-1.8-2.6-3.5c-0.1-1.7,0.9-3.4,2.6-3.5c0.1,0,0.2-0.1,0.2-0.2
	c0.2-0.5,0.6-0.6,1.1-0.6c1.8,0,3.6,0,5.4,0c1.1,0,2.1-0.2,3.1-0.6c2.1-0.9,3.9-2.2,5.6-3.8c0.3-0.3,0.7-0.5,1.1-0.3
	c0.4,0.2,0.5,0.6,0.5,1c0,1.5,0,2.9,0,4.4c0,0.3,0.1,0.4,0.3,0.6C250.6,58.6,251,59.7,251,60.8"/>
<path id="XMLID_25_" class="st0" d="M185.8,48.6v2.2c2.5,0.2,4.7,1.1,6.5,2.7l-0.9,1.5c0,0,0,0.1,0,0.1l0.3,0.3c0,0,0.1,0,0.1,0
	l1.5-0.9c1.6,1.8,2.6,4,2.8,6.5l-1.7,0.4c-0.1,0-0.1,0-0.1,0.1v0.4c0,0.1,0,0.1,0.1,0.1l1.7,0.5c-0.1,2.5-1.1,4.8-2.6,6.6l-1.6-0.9
	c0,0-0.1,0-0.1,0l-0.3,0.3c0,0,0,0.1,0,0.1l0.9,1.6c-1.8,1.6-4,2.6-6.5,2.7l-0.5-1.8c0-0.1,0-0.1-0.1-0.1h-0.1v4.1
	c7.2,0,13.1-5.9,13.1-13.1C198.3,54.7,192.7,48.9,185.8,48.6"/>
<path id="XMLID_24_" class="st0" d="M191.1,58.8l-0.2-0.3c0,0-0.1-0.1-0.1,0l-5.6,2.6v1.4l5.9-3.5C191.1,58.9,191.1,58.8,191.1,58.8
	"/>
<path id="XMLID_23_" class="st0" d="M185.2,60.7v1.9c0.5,0,0.9-0.4,0.9-1C186.1,61.2,185.7,60.8,185.2,60.7"/>
<polygon id="XMLID_22_" class="st0" points="185.2,50.8 185.2,51.2 185.3,50.8 "/>
<polygon id="XMLID_21_" class="st0" points="186,57.2 186,54.6 185.2,54.6 185.2,59.7 186,59.7 186,58.4 186.6,58.4 186.6,57.2 "/>
<path id="XMLID_20_" class="st0" d="M185.2,15.4v1.4c0.7,0,1.2,0.5,1.2,1.2c0,0.4-0.2,0.8-0.6,1v2.8c0,0.4-0.3,0.7-0.7,0.7v4.1h6.2
	c0.9,0,1.7-0.7,1.7-1.7v-9.6H185.2z"/>
<path id="XMLID_17_" class="st0" d="M246.1,24c0-1.3-0.7-2-2.4-2.6c-1.2-0.5-1.7-0.7-1.7-1.2c0-0.4,0.3-0.8,1.2-0.8
	c1,0,1.7,0.3,2,0.5l0.4-1.6c-0.5-0.2-1.1-0.4-2-0.5v-1.2h-1.4v1.3c-1.5,0.3-2.4,1.3-2.4,2.5c0,1.4,1,2.1,2.5,2.6
	c1,0.4,1.5,0.7,1.5,1.2c0,0.6-0.6,0.9-1.4,0.9c-0.9,0-1.7-0.3-2.3-0.6l-0.4,1.6c0.5,0.3,1.4,0.6,2.4,0.6V28h1.4v-1.4
	C245.2,26.3,246.1,25.2,246.1,24 M250.8,15.4c0,0.1,0,0.3,0,0.4v12c0,0-0.1,2.7-3.4,2.7H243c0,0-1.2,0-4.5,0c-3.3,0-3.4-2.7-3.4-2.7
	V17.5v-1.3v-0.5c0-0.1,0-0.3,0-0.4H250.8z"/>
<path id="XMLID_16_" class="st0" d="M15.5,11.5c0,1.2-1,2.2-2.2,2.2c-1.2,0-2.2-1-2.2-2.2c0-1.2,1-2.2,2.2-2.2
	C14.5,9.3,15.5,10.3,15.5,11.5"/>
<path id="XMLID_15_" class="st0" d="M23.6,11.5c0,1.2-1,2.2-2.2,2.2c-1.2,0-2.2-1-2.2-2.2c0-1.2,1-2.2,2.2-2.2
	C22.6,9.3,23.6,10.3,23.6,11.5"/>
<path id="XMLID_14_" class="st0" d="M17.5,3.1c6.9,0,12.4,5.6,12.4,12.4h1.6c0-7.7-6.3-14-14-14c-7.7,0-14,6.3-14,14h1.6
	C5.1,8.6,10.7,3.1,17.5,3.1"/>
<path id="XMLID_13_" class="st0" d="M71.8,15.5v-1.1c0-0.2,0.2-0.4,0.4-0.4h16.3c0.2,0,0.4,0.2,0.4,0.4v1.1h1.6v-1.1
	c0-1.1-0.9-2-2-2H72.2c-1.1,0-2,0.9-2,2v1.1H71.8z"/>
<path id="XMLID_12_" class="st0" d="M60.9,15.5h2.3l-0.6-1.6c-0.2-0.5,0.1-1.1,0.6-1.3l2.3-0.8c0.5-0.2,1.1,0.1,1.3,0.6l0.7,1.9
	c0.2,0.5,0,1-0.5,1.2h1.8v-1.1c0-1.9,1.5-3.4,3.4-3.4h8.7l-1.7-4.7c-0.4-1-1.5-1.6-2.6-1.2l-15.3,5.6c-1,0.4-1.6,1.5-1.2,2.6
	L60.9,15.5z"/>
<polygon id="XMLID_11_" class="st0" points="148.9,15.5 150.6,8.8 148.3,8.8 147.1,15.5 "/>
<path id="XMLID_10_" class="st0" d="M141.5,15.2c0.1,0.1,0.2,0.2,0.3,0.3h3.5c0,0,0,0,0,0c-0.1-0.2-0.3-0.3-0.5-0.5
	c-0.2-0.1-0.5-0.3-0.7-0.4c-0.2-0.1-0.4-0.2-0.6-0.4c-0.1-0.1-0.2-0.3-0.2-0.5c0-0.2,0.1-0.4,0.2-0.5c0.1-0.1,0.4-0.2,0.7-0.2
	c0.1,0,0.3,0,0.5,0c0.2,0,0.3,0.1,0.5,0.1c0.2,0,0.3,0.1,0.4,0.1c0.1,0.1,0.2,0.1,0.3,0.2l0.3-1.7c-0.1,0-0.3-0.1-0.4-0.1
	c-0.2,0-0.3-0.1-0.5-0.1c-0.2,0-0.4,0-0.6-0.1c-0.2,0-0.4,0-0.6,0c-0.6,0-1.1,0.1-1.5,0.2c-0.4,0.1-0.7,0.3-1,0.6
	c-0.2,0.2-0.4,0.5-0.5,0.8c-0.1,0.3-0.2,0.6-0.2,0.8c0,0.3,0,0.5,0.1,0.7C141.3,14.8,141.4,15,141.5,15.2"/>
<path id="XMLID_9_" class="st0" d="M135.6,15.5c0-0.2,0.1-0.4,0.2-0.6c0.1-0.3,0.2-0.6,0.4-0.8c0.2-0.2,0.3-0.4,0.6-0.6
	c0.2-0.2,0.5-0.2,0.7-0.2c0.2,0,0.3,0,0.5,0.1c0.1,0.1,0.2,0.2,0.3,0.3c0.1,0.1,0.1,0.2,0.2,0.4c0,0.1,0,0.3,0,0.5
	c0,0.3-0.1,0.7-0.1,1h2.2c0,0,0,0,0-0.1c0.1-0.4,0.1-0.8,0.1-1.2c0-0.4-0.1-0.8-0.2-1.1c-0.1-0.3-0.3-0.6-0.4-0.8
	c-0.2-0.2-0.4-0.4-0.7-0.5c-0.3-0.1-0.6-0.2-0.9-0.2c-0.3,0-0.5,0-0.8,0.1c-0.2,0.1-0.5,0.2-0.7,0.3c-0.2,0.1-0.4,0.3-0.6,0.4
	c-0.2,0.2-0.3,0.4-0.4,0.6h0c0-0.1,0-0.2,0-0.3c0-0.1,0-0.2,0-0.3c0-0.1,0-0.2,0-0.3c0-0.1,0-0.2,0-0.3H134c0,0.1,0,0.3-0.1,0.5
	c0,0.2-0.1,0.4-0.1,0.7c0,0.2-0.1,0.4-0.1,0.7c0,0.2-0.1,0.4-0.1,0.5l-0.3,1.4H135.6z"/>
<path id="XMLID_8_" class="st0" d="M127.7,15.5c0-0.1,0-0.3,0.1-0.4c0.1-0.3,0.2-0.6,0.4-0.9c0.2-0.3,0.4-0.5,0.6-0.7
	c0.2-0.2,0.5-0.3,0.8-0.3c0.2,0,0.3,0,0.5,0.1c0.1,0.1,0.2,0.2,0.3,0.3c0.1,0.1,0.2,0.3,0.2,0.4c0,0.2,0.1,0.4,0.1,0.5
	c0,0.3,0,0.6-0.1,0.9h2.3c0-0.3,0.1-0.6,0.1-0.9c0-0.5-0.1-0.9-0.2-1.3c-0.1-0.4-0.3-0.7-0.6-1c-0.3-0.3-0.6-0.5-1-0.6
	c-0.4-0.1-0.8-0.2-1.3-0.2c-0.5,0-1,0.1-1.4,0.2c-0.4,0.1-0.8,0.3-1.1,0.5c-0.3,0.2-0.6,0.5-0.8,0.8c-0.2,0.3-0.4,0.6-0.6,1
	c-0.2,0.3-0.3,0.7-0.3,1c0,0.2,0,0.3,0,0.5H127.7z"/>
<path id="XMLID_7_" class="st0" d="M118,15.5c0-0.2-0.1-0.5-0.1-0.7c0-0.3,0-0.6,0.1-0.8c0-0.3,0.1-0.6,0.2-0.8
	c0.1-0.3,0.2-0.5,0.3-0.8c0.1-0.2,0.3-0.5,0.4-0.7c0.3-0.3,0.6-0.6,0.9-0.7c0.3-0.2,0.7-0.3,1.1-0.3c0.3,0,0.6,0.1,0.9,0.2
	c0.3,0.1,0.5,0.3,0.7,0.5c0.2,0.2,0.3,0.5,0.4,0.8c0.1,0.3,0.1,0.6,0.1,1c0,0.3,0,0.5-0.1,0.8c0,0.3-0.1,0.6-0.2,0.8
	c-0.1,0.3-0.2,0.5-0.3,0.8h2.5c0,0,0,0,0-0.1c0.1-0.4,0.2-0.8,0.3-1.2c0.1-0.4,0.1-0.8,0.1-1.2c0-0.7-0.1-1.3-0.3-1.8
	c-0.2-0.5-0.5-1-0.9-1.4c-0.4-0.4-0.8-0.7-1.3-0.9c-0.5-0.2-1.1-0.3-1.7-0.3c-0.4,0-0.8,0-1.2,0.1c-0.4,0.1-0.7,0.2-1,0.3
	c-0.3,0.1-0.6,0.3-0.9,0.5c-0.3,0.2-0.5,0.4-0.8,0.6c-0.3,0.3-0.6,0.6-0.8,1c-0.2,0.4-0.4,0.7-0.6,1.1c-0.2,0.4-0.3,0.8-0.3,1.2
	c-0.1,0.4-0.1,0.9-0.1,1.3c0,0.2,0,0.5,0.1,0.7H118z"/>
<polygon id="XMLID_6_" class="st0" points="134,15.5 147,2.4 146.1,1.5 132.1,15.5 "/>
<polygon id="XMLID_5_" class="st0" points="134,15.5 120,1.5 119.1,2.4 132.1,15.5 "/>
<path id="XMLID_4_" class="st0" d="M185.3,15.5v-2.7h-3.6V9.9c0-2,1.6-3.6,3.6-3.6V4.2c-3.1,0-5.6,2.5-5.6,5.6v2.9h-0.6
	c-0.9,0-1.7,0.8-1.7,1.7v1H185.3z"/>
<path id="XMLID_3_" class="st0" d="M185.2,12.8v2.7h7.9v-1c0-0.9-0.8-1.7-1.7-1.7h-0.6V9.9c0-3.1-2.5-5.6-5.6-5.6v2.1
	c2,0,3.6,1.6,3.6,3.6v2.9H185.2z"/>
<path id="XMLID_2_" class="st0" d="M250.8,15.5c-0.1-1.2-0.3-1.8-0.3-1.8l-0.2-0.5c0,0-1.5-3.3-2.2-5c-0.7-1.7-2.6-1.7-2.6-1.7h-2.2
	c0.1,1,0.4,2.6,0.8,3.7c0.7,0.4,1.2,1.1,1.2,2c0,1.3-1,2.3-2.3,2.3c-1.3,0-2.3-1-2.3-2.3c0-0.8,0.4-1.5,1-1.9
	c0.2,0.8,0.5,1.5,0.6,1.8c0.1,0.3,0.4,0.5,0.7,0.5c0.1,0,0.2,0,0.2,0c0.4-0.1,0.6-0.6,0.5-0.9c-0.2-0.5-0.4-1.1-0.5-1.7h0
	c0,0,0,0,0,0c0,0,0,0,0,0c-0.1-0.2-0.4-1.5-0.6-2.5c-0.5-2.4-0.8-4.6-0.3-5.4c0.1-0.1,0.2-0.2,0.3-0.2c0.1,0,0.2,0,0.2,0.1
	c0.4,0.4,0.4,1.7,0.3,2.4c-0.1,0.4,0.2,0.8,0.6,0.8c0.4,0.1,0.8-0.2,0.8-0.6c0.1-0.4,0.3-2.6-0.6-3.6c-0.4-0.4-0.8-0.6-1.4-0.6
	c-0.6,0-1.1,0.3-1.5,0.8c-0.7,1.1-0.6,3.2-0.2,5.3h-0.3c0,0-1.9,0-2.6,1.7c-0.2,0.4-0.4,1-0.7,1.6l-1.3,2.9
	c-0.2,0.4-0.3,0.6-0.3,0.6l-0.2,0.5c0,0-0.3,0.6-0.3,1.8H250.8z"/>
</svg>
