<?xml version="1.0" encoding="utf-8"?>
<!-- Generator: Adobe Illustrator 19.2.1, SVG Export Plug-In . SVG Version: 6.00 Build 0)  -->
<svg version="1.1" id="Layer_1" xmlns="http://www.w3.org/2000/svg" xmlns:xlink="http://www.w3.org/1999/xlink" x="0px" y="0px"
	 viewBox="0 0 75 70" style="enable-background:new 0 0 75 70;" xml:space="preserve">
<style type="text/css">
	.st0{fill:#FFFFFF;}
</style>
<g>
	<path class="st0" d="M28.1,47.6h-4.6v-5.5H13.2v5.5H8.6v-9.3h1.4c1-1.8,1.9-3.8,2.6-6.2s1.1-4.8,1.3-7.5h11.7v13.6h2.4V47.6z
		 M20.9,38.2v-9.8h-3.1c-0.3,3.4-1.2,6.7-2.7,9.8H20.9z"/>
	<path class="st0" d="M38,42.1l-3.6-12.6h-0.1c0.2,2.1,0.3,3.8,0.3,5v7.6h-4.2V24.6h6.3L40.3,37h0.1L44,24.6h6.3v17.5H46v-7.7
		c0-0.4,0-0.8,0-1.3c0-0.5,0.1-1.7,0.2-3.6h-0.1l-3.5,12.6H38z"/>
	<path class="st0" d="M61.9,28.2c-1.1,0-2,0.5-2.6,1.4c-0.6,0.9-0.9,2.2-0.9,3.8c0,3.4,1.3,5.1,3.8,5.1c0.8,0,1.5-0.1,2.3-0.3
		c0.7-0.2,1.5-0.5,2.2-0.8v4c-1.5,0.6-3.1,1-5,1c-2.6,0-4.7-0.8-6.1-2.3c-1.4-1.5-2.1-3.7-2.1-6.6c0-1.8,0.3-3.4,1-4.8
		c0.7-1.4,1.7-2.4,2.9-3.2c1.3-0.7,2.8-1.1,4.5-1.1c1.9,0,3.7,0.4,5.4,1.2l-1.4,3.7c-0.6-0.3-1.3-0.6-1.9-0.8
		C63.3,28.3,62.6,28.2,61.9,28.2z"/>
</g>
</svg>
