<svg version="1.1"
	 xmlns="http://www.w3.org/2000/svg" xmlns:xlink="http://www.w3.org/1999/xlink" xmlns:a="http://ns.adobe.com/AdobeSVGViewerExtensions/3.0/"
	 x="0px" y="0px" width="140px" height="90px" viewBox="-0.866 -1.304 140 90" enable-background="new -0.866 -1.304 140 90"
	 xml:space="preserve">
<path fill-rule="evenodd" clip-rule="evenodd" fill="#0091D4" d="M70.572,0c37.284,0,67.695,11.359,67.695,25.306
	c0,13.945-30.411,25.306-67.695,25.306S2.856,39.251,2.856,25.306C2.856,11.359,33.288,0,70.572,0"/>
<path fill-rule="evenodd" clip-rule="evenodd" fill="#0091D4" d="M11.351,40.485c-4.369-2.11-8.576-2.501-9.365-0.868
	c-0.789,1.636,2.131,4.688,6.5,6.799s8.578,2.502,9.367,0.868C18.642,45.649,15.72,42.596,11.351,40.485"/>
<path fill-rule="evenodd" clip-rule="evenodd" fill="#0091D4" d="M3.308,49.77c2.158,0.982,4.217,1.125,4.584,0.318
	s-1.094-2.265-3.25-3.246c-2.158-0.981-4.219-1.125-4.586-0.319C-0.31,47.33,1.152,48.789,3.308,49.77"/>
<path fill="#FFFFFF" d="M38.124,12.949v4.438l5.033-5.249c0.241-0.253,0.448-0.438,0.616-0.56c0.17-0.121,0.398-0.184,0.678-0.184
	c0.368,0,0.669,0.11,0.896,0.325c0.228,0.215,0.339,0.478,0.339,0.789c0,0.375-0.191,0.746-0.578,1.115l-3.114,2.952l3.589,5.145
	c0.254,0.357,0.445,0.67,0.572,0.935c0.127,0.269,0.189,0.53,0.189,0.784c0,0.279-0.113,0.525-0.334,0.734
	c-0.221,0.205-0.521,0.309-0.902,0.309c-0.355,0-0.647-0.076-0.871-0.229c-0.225-0.15-0.413-0.354-0.569-0.607
	s-0.294-0.483-0.415-0.688l-3.029-4.663l-2.099,2.01v2.617c0,0.53-0.121,0.923-0.362,1.179c-0.243,0.256-0.555,0.383-0.932,0.383
	c-0.221,0-0.43-0.059-0.631-0.174c-0.203-0.115-0.356-0.269-0.465-0.465c-0.083-0.16-0.13-0.349-0.147-0.561
	c-0.018-0.213-0.026-0.521-0.026-0.926v-9.408c0-0.516,0.114-0.905,0.342-1.165c0.227-0.259,0.535-0.39,0.928-0.39
	c0.383,0,0.695,0.128,0.935,0.385C38.002,12.035,38.124,12.427,38.124,12.949"/>
<path fill="#FFFFFF" d="M50.826,22.921v-4.014l-3.092-4.792c-0.27-0.434-0.461-0.77-0.574-1.011
	c-0.111-0.241-0.168-0.45-0.168-0.631c0-0.292,0.115-0.545,0.342-0.761c0.227-0.211,0.508-0.318,0.844-0.318
	c0.35,0,0.615,0.102,0.798,0.299c0.18,0.197,0.451,0.596,0.813,1.188l2.367,3.84l2.393-3.84c0.141-0.236,0.262-0.437,0.361-0.595
	c0.098-0.162,0.204-0.313,0.322-0.454c0.12-0.142,0.25-0.251,0.395-0.325c0.145-0.073,0.318-0.112,0.527-0.112
	c0.321,0,0.59,0.107,0.805,0.316c0.218,0.209,0.324,0.453,0.324,0.728c0,0.228-0.053,0.451-0.162,0.675
	c-0.109,0.225-0.297,0.537-0.563,0.932l-3.169,4.862v4.014c0,0.521-0.121,0.913-0.362,1.173c-0.241,0.259-0.551,0.389-0.922,0.389
	c-0.381,0-0.689-0.127-0.926-0.383C50.944,23.844,50.826,23.448,50.826,22.921"/>
<path fill="#FFFFFF" d="M63.757,13.535H61.39v3.48h2.297c0.615,0,1.135-0.053,1.555-0.159s0.74-0.29,0.961-0.545
	c0.222-0.257,0.334-0.607,0.334-1.059c0-0.351-0.089-0.66-0.269-0.929c-0.177-0.268-0.425-0.468-0.743-0.601
	C65.228,13.597,64.638,13.535,63.757,13.535 M62.29,18.854H61.39v4.067c0,0.533-0.117,0.929-0.353,1.182s-0.546,0.38-0.926,0.38
	c-0.406,0-0.725-0.133-0.949-0.396c-0.224-0.266-0.336-0.652-0.336-1.165v-9.739c0-0.551,0.124-0.952,0.372-1.199
	c0.247-0.248,0.648-0.371,1.199-0.371h4.17c0.574,0,1.066,0.022,1.477,0.073c0.41,0.047,0.777,0.147,1.105,0.298
	c0.397,0.167,0.748,0.406,1.055,0.716c0.303,0.312,0.535,0.671,0.691,1.084c0.16,0.409,0.24,0.847,0.24,1.309
	c0,0.942-0.266,1.697-0.8,2.261c-0.533,0.564-1.341,0.964-2.423,1.198c0.455,0.242,0.891,0.602,1.307,1.073
	c0.412,0.472,0.783,0.973,1.107,1.506s0.578,1.014,0.761,1.441c0.18,0.43,0.271,0.725,0.271,0.884c0,0.168-0.053,0.333-0.158,0.498
	c-0.106,0.161-0.252,0.292-0.437,0.389c-0.186,0.095-0.397,0.142-0.64,0.142c-0.285,0-0.53-0.067-0.725-0.203
	c-0.195-0.136-0.363-0.307-0.504-0.513c-0.142-0.206-0.334-0.513-0.575-0.917l-1.028-1.709c-0.369-0.628-0.699-1.104-0.987-1.432
	c-0.292-0.327-0.586-0.551-0.886-0.672C63.121,18.916,62.744,18.854,62.29,18.854z"/>
<path fill="#FFFFFF" d="M82.47,19.122v2.425c0,0.322-0.031,0.581-0.094,0.773c-0.064,0.191-0.18,0.367-0.351,0.521
	c-0.171,0.156-0.386,0.308-0.651,0.451c-0.766,0.413-1.503,0.716-2.21,0.905c-0.707,0.191-1.479,0.285-2.313,0.285
	c-0.975,0-1.859-0.15-2.66-0.447c-0.8-0.302-1.483-0.734-2.045-1.307c-0.566-0.567-1-1.258-1.301-2.071
	c-0.304-0.81-0.453-1.718-0.453-2.72c0-0.981,0.146-1.883,0.438-2.699c0.295-0.819,0.728-1.512,1.297-2.08
	c0.568-0.572,1.264-1.009,2.081-1.309c0.815-0.305,1.744-0.455,2.777-0.455c0.855,0,1.607,0.115,2.264,0.343
	c0.658,0.228,1.188,0.513,1.598,0.858c0.41,0.344,0.716,0.709,0.926,1.096c0.205,0.386,0.309,0.728,0.309,1.028
	c0,0.321-0.117,0.596-0.356,0.821c-0.241,0.23-0.527,0.343-0.86,0.343c-0.186,0-0.362-0.045-0.53-0.13
	c-0.171-0.085-0.313-0.207-0.427-0.362c-0.318-0.495-0.584-0.866-0.805-1.12c-0.218-0.253-0.512-0.469-0.884-0.64
	c-0.371-0.174-0.846-0.259-1.42-0.259c-0.593,0-1.123,0.104-1.589,0.307c-0.466,0.202-0.866,0.5-1.196,0.89
	c-0.33,0.386-0.584,0.863-0.76,1.427c-0.174,0.565-0.263,1.19-0.263,1.873c0,1.486,0.342,2.627,1.022,3.428
	c0.684,0.799,1.633,1.199,2.853,1.199c0.596,0,1.152-0.076,1.671-0.232c0.521-0.156,1.049-0.377,1.586-0.666v-2.054h-1.986
	c-0.478,0-0.84-0.071-1.084-0.216c-0.245-0.145-0.367-0.389-0.367-0.734c0-0.282,0.104-0.515,0.308-0.697
	c0.202-0.186,0.482-0.277,0.832-0.277h2.91c0.355,0,0.66,0.032,0.907,0.095c0.247,0.064,0.448,0.206,0.599,0.425
	C82.394,18.356,82.47,18.684,82.47,19.122"/>
<path fill="#FFFFFF" d="M87.111,22.921v-4.014l-3.092-4.792c-0.271-0.434-0.462-0.77-0.574-1.011
	c-0.112-0.241-0.168-0.45-0.168-0.631c0-0.292,0.115-0.545,0.342-0.761c0.227-0.211,0.507-0.318,0.843-0.318
	c0.351,0,0.615,0.102,0.798,0.299c0.181,0.197,0.451,0.596,0.814,1.188l2.365,3.84l2.393-3.84c0.143-0.236,0.264-0.437,0.363-0.595
	c0.098-0.162,0.203-0.313,0.321-0.454c0.12-0.142,0.251-0.251,0.396-0.325c0.145-0.073,0.317-0.112,0.527-0.112
	c0.32,0,0.589,0.107,0.804,0.316c0.218,0.209,0.324,0.453,0.324,0.728c0,0.228-0.054,0.451-0.161,0.675
	c-0.109,0.225-0.299,0.537-0.563,0.932l-3.168,4.862v4.014c0,0.521-0.12,0.913-0.362,1.173c-0.242,0.259-0.551,0.389-0.922,0.389
	c-0.381,0-0.69-0.127-0.926-0.383C87.228,23.844,87.111,23.448,87.111,22.921"/>
<path fill="#FFFFFF" d="M95.417,21.315l6.504-7.78h-5.588c-0.393,0-0.687-0.086-0.884-0.26c-0.2-0.171-0.298-0.4-0.298-0.68
	c0-0.296,0.098-0.531,0.298-0.714c0.197-0.18,0.491-0.271,0.884-0.271h7.199c0.934,0,1.4,0.436,1.4,1.305
	c0,0.412-0.077,0.746-0.233,0.993s-0.468,0.646-0.94,1.198l-6.079,7.235h6.701c0.396,0,0.692,0.083,0.887,0.245
	c0.198,0.165,0.294,0.395,0.294,0.686c0,0.308-0.097,0.549-0.294,0.727c-0.195,0.18-0.492,0.268-0.887,0.268H96.16
	c-0.557,0-0.979-0.124-1.258-0.374c-0.283-0.251-0.425-0.587-0.425-1.008c0-0.142,0.023-0.274,0.067-0.396
	c0.047-0.121,0.109-0.236,0.186-0.342c0.08-0.105,0.186-0.241,0.324-0.406C95.193,21.58,95.314,21.436,95.417,21.315"/>
<path fill="#FFFFFF" d="M39.794,35.004c0,0.401-0.098,0.838-0.298,1.307c-0.197,0.471-0.51,0.931-0.937,1.381
	c-0.426,0.452-0.97,0.82-1.631,1.1c-0.662,0.283-1.435,0.425-2.316,0.425c-0.665,0-1.272-0.063-1.82-0.188
	c-0.545-0.127-1.043-0.324-1.488-0.592c-0.445-0.27-0.857-0.62-1.231-1.059c-0.333-0.395-0.619-0.84-0.854-1.332
	c-0.236-0.493-0.413-1.02-0.531-1.577c-0.117-0.557-0.177-1.151-0.177-1.776c0-1.02,0.147-1.934,0.445-2.738
	c0.298-0.808,0.722-1.494,1.272-2.069c0.555-0.571,1.2-1.007,1.943-1.308c0.743-0.297,1.535-0.448,2.376-0.448
	c1.025,0,1.936,0.204,2.737,0.614c0.798,0.408,1.411,0.912,1.839,1.515c0.424,0.601,0.639,1.169,0.639,1.705
	c0,0.292-0.105,0.552-0.313,0.775c-0.205,0.224-0.455,0.336-0.75,0.336c-0.328,0-0.576-0.076-0.737-0.232
	c-0.165-0.153-0.348-0.422-0.548-0.802c-0.336-0.628-0.729-1.096-1.179-1.408c-0.454-0.311-1.011-0.466-1.671-0.466
	c-1.055,0-1.893,0.4-2.518,1.199c-0.624,0.802-0.938,1.938-0.938,3.411c0,0.984,0.14,1.805,0.416,2.456
	c0.274,0.654,0.666,1.144,1.173,1.465s1.099,0.482,1.78,0.482c0.737,0,1.359-0.183,1.869-0.548s0.894-0.901,1.151-1.611
	c0.109-0.333,0.246-0.604,0.408-0.814c0.158-0.211,0.418-0.314,0.775-0.314c0.306,0,0.568,0.105,0.786,0.318
	C39.685,34.421,39.794,34.687,39.794,35.004"/>
<path fill="#FFFFFF" d="M50.893,32.639c0-0.929-0.15-1.73-0.448-2.411c-0.301-0.679-0.728-1.194-1.285-1.541
	c-0.554-0.349-1.19-0.521-1.912-0.521c-0.512,0-0.984,0.097-1.42,0.288c-0.434,0.195-0.809,0.475-1.123,0.844
	c-0.313,0.368-0.56,0.84-0.742,1.41c-0.18,0.572-0.271,1.218-0.271,1.932c0,0.719,0.092,1.37,0.271,1.95
	c0.182,0.581,0.439,1.064,0.769,1.447c0.331,0.383,0.71,0.669,1.142,0.857c0.426,0.192,0.898,0.285,1.41,0.285
	c0.658,0,1.259-0.165,1.811-0.492c0.55-0.327,0.986-0.833,1.311-1.521C50.732,34.482,50.893,33.641,50.893,32.639 M47.248,26.128
	c1.314,0,2.439,0.265,3.384,0.799c0.94,0.533,1.653,1.288,2.136,2.27c0.484,0.98,0.725,2.134,0.725,3.46
	c0,0.978-0.132,1.865-0.397,2.667c-0.265,0.798-0.659,1.493-1.19,2.08c-0.53,0.587-1.182,1.034-1.951,1.347
	c-0.771,0.31-1.656,0.466-2.652,0.466c-0.99,0-1.877-0.159-2.66-0.48c-0.781-0.318-1.436-0.77-1.96-1.35
	c-0.524-0.581-0.919-1.282-1.188-2.099s-0.401-1.699-0.401-2.648c0-0.973,0.139-1.865,0.419-2.677
	c0.28-0.813,0.683-1.503,1.214-2.071c0.53-0.571,1.173-1.008,1.934-1.309C45.417,26.279,46.281,26.128,47.248,26.128z"/>
<path fill="#FFFFFF" d="M58.4,27.666l4.928,7.459v-7.529c0-0.489,0.105-0.854,0.314-1.099c0.21-0.245,0.493-0.369,0.852-0.369
	c0.369,0,0.658,0.122,0.873,0.366c0.212,0.244,0.318,0.612,0.318,1.102v9.955c0,1.11-0.46,1.665-1.383,1.665
	c-0.229,0-0.436-0.032-0.621-0.101c-0.184-0.064-0.357-0.171-0.52-0.315c-0.158-0.142-0.309-0.312-0.447-0.505
	c-0.139-0.19-0.277-0.388-0.416-0.591l-4.807-7.37v7.414c0,0.483-0.111,0.849-0.336,1.096c-0.224,0.248-0.512,0.372-0.863,0.372
	c-0.361,0-0.654-0.124-0.871-0.375c-0.219-0.25-0.328-0.616-0.328-1.093v-9.764c0-0.415,0.047-0.739,0.139-0.975
	c0.109-0.26,0.289-0.472,0.543-0.637c0.253-0.162,0.527-0.245,0.822-0.245c0.229,0,0.424,0.039,0.588,0.112
	c0.166,0.074,0.311,0.177,0.434,0.304c0.124,0.126,0.248,0.289,0.378,0.492C58.126,27.236,58.261,27.445,58.4,27.666"/>
<path fill="#FFFFFF" d="M78.65,35.004c0,0.401-0.098,0.838-0.299,1.307c-0.196,0.471-0.51,0.931-0.937,1.381
	c-0.425,0.452-0.97,0.82-1.63,1.1c-0.662,0.283-1.436,0.425-2.316,0.425c-0.666,0-1.273-0.063-1.82-0.188
	c-0.546-0.127-1.043-0.324-1.488-0.592c-0.445-0.27-0.857-0.62-1.232-1.059c-0.332-0.395-0.619-0.84-0.854-1.332
	c-0.235-0.493-0.413-1.02-0.53-1.577c-0.118-0.557-0.177-1.151-0.177-1.776c0-1.02,0.147-1.934,0.445-2.738
	c0.297-0.808,0.722-1.494,1.273-2.069c0.555-0.571,1.199-1.007,1.941-1.308c0.744-0.297,1.536-0.448,2.376-0.448
	c1.026,0,1.937,0.204,2.737,0.614c0.799,0.408,1.412,0.912,1.839,1.515c0.424,0.601,0.639,1.169,0.639,1.705
	c0,0.292-0.105,0.552-0.313,0.775c-0.205,0.224-0.456,0.336-0.75,0.336c-0.328,0-0.577-0.076-0.737-0.232
	c-0.165-0.153-0.349-0.422-0.548-0.802c-0.335-0.628-0.728-1.096-1.179-1.408c-0.453-0.311-1.011-0.466-1.67-0.466
	c-1.056,0-1.893,0.4-2.518,1.199c-0.625,0.802-0.938,1.938-0.938,3.411c0,0.984,0.138,1.805,0.416,2.456
	c0.273,0.654,0.666,1.144,1.173,1.465s1.099,0.482,1.78,0.482c0.736,0,1.358-0.183,1.868-0.548s0.893-0.901,1.151-1.611
	c0.11-0.333,0.246-0.604,0.409-0.814c0.158-0.211,0.418-0.314,0.774-0.314c0.306,0,0.568,0.105,0.787,0.318
	C78.541,34.421,78.65,34.687,78.65,35.004"/>
<path fill="#FFFFFF" d="M88.667,28.32h-5.776v3.109h5.319c0.392,0,0.683,0.089,0.875,0.262c0.191,0.178,0.289,0.408,0.289,0.696
	s-0.094,0.521-0.283,0.704c-0.191,0.18-0.486,0.271-0.881,0.271h-5.319v3.601h5.974c0.403,0,0.707,0.095,0.91,0.28
	c0.207,0.188,0.307,0.436,0.307,0.746c0,0.3-0.1,0.542-0.307,0.73C89.572,38.906,89.268,39,88.865,39h-6.967
	c-0.557,0-0.961-0.123-1.205-0.371c-0.244-0.247-0.365-0.648-0.365-1.199v-9.516c0-0.368,0.056-0.669,0.164-0.902
	c0.109-0.232,0.281-0.402,0.514-0.509s0.53-0.159,0.893-0.159h6.77c0.41,0,0.713,0.091,0.91,0.271
	c0.197,0.182,0.297,0.418,0.297,0.713c0,0.3-0.1,0.539-0.297,0.722C89.38,28.229,89.078,28.32,88.667,28.32"/>
<path fill="#FFFFFF" d="M95.785,28.268h-1.727v3.869h1.727c0.604,0,1.108-0.062,1.516-0.188c0.403-0.127,0.713-0.336,0.927-0.623
	c0.213-0.288,0.319-0.665,0.319-1.131c0-0.561-0.165-1.014-0.492-1.367C97.686,28.453,96.928,28.268,95.785,28.268 M96.408,34.07
	h-2.35v3.583c0,0.513-0.121,0.898-0.362,1.165c-0.241,0.265-0.548,0.397-0.917,0.397c-0.383,0-0.695-0.13-0.931-0.392
	c-0.235-0.263-0.354-0.649-0.354-1.153v-9.757c0-0.563,0.131-0.967,0.39-1.209c0.259-0.24,0.669-0.361,1.235-0.361h3.289
	c0.972,0,1.717,0.073,2.241,0.224c0.52,0.144,0.968,0.383,1.345,0.716c0.377,0.337,0.662,0.742,0.857,1.226
	c0.197,0.483,0.295,1.029,0.295,1.633c0,1.292-0.398,2.267-1.191,2.933C99.16,33.737,97.978,34.07,96.408,34.07z"/>
<path fill="#FFFFFF" d="M111.298,28.459h-2.797v9.194c0,0.528-0.117,0.923-0.354,1.179c-0.236,0.257-0.543,0.384-0.917,0.384
	c-0.376,0-0.687-0.13-0.925-0.39c-0.238-0.259-0.359-0.651-0.359-1.173v-9.194h-2.797c-0.439,0-0.764-0.097-0.976-0.289
	c-0.215-0.193-0.322-0.446-0.322-0.766c0-0.328,0.113-0.586,0.333-0.775c0.222-0.191,0.542-0.285,0.964-0.285h8.148
	c0.444,0,0.771,0.097,0.99,0.295c0.215,0.194,0.324,0.45,0.324,0.766c0,0.319-0.112,0.572-0.33,0.766
	C112.064,28.362,111.738,28.459,111.298,28.459"/>
<path fill="#333333" d="M43.303,69.293c0.609,0.4,1.279,0.68,1.999,0.68c0.959,0,1.549-0.499,1.549-1.279
	c0-1.938-3.598-0.939-3.598-3.367c0-1.25,0.939-2.029,2.299-2.029c0.76,0,1.438,0.25,1.988,0.64l-0.26,0.81
	c-0.529-0.4-1.1-0.67-1.769-0.67c-0.85,0-1.38,0.45-1.38,1.14c0,1.81,3.599,0.8,3.599,3.358c0,1.329-0.979,2.158-2.449,2.158
	c-0.799,0-1.599-0.25-2.238-0.659L43.303,69.293z"/>
<path fill="#333333" d="M49.292,63.417h0.88v7.196h-0.88V63.417z"/>
<path fill="#333333" d="M52.093,63.417h0.969l3.488,5.467v-5.467h0.819v7.196h-0.72l-3.737-5.867v5.867h-0.819V63.417z"/>
<path fill="#333333" d="M63.899,70.063c-0.52,0.391-1.219,0.67-2.039,0.67c-1.749,0-3.008-1.239-3.008-3.647
	c0-2.469,1.319-3.788,3.138-3.788c0.76,0,1.38,0.23,1.89,0.609l-0.26,0.8c-0.51-0.37-1-0.63-1.669-0.63
	c-1.3,0-2.219,0.959-2.219,2.959c0,1.998,0.919,2.938,2.219,2.938c0.649,0,1.159-0.229,1.688-0.639L63.899,70.063z"/>
<path fill="#333333" d="M65.282,63.417h4.438v0.779h-3.559v2.319h3.129v0.749h-3.129v2.579h3.588v0.77h-4.467V63.417z"/>
<path fill="#333333" d="M72.762,64.276l1.619-0.859h0.68v7.196h-0.85v-6.237l-1.159,0.61L72.762,64.276z"/>
<path fill="#333333" d="M76.852,70.273l0.271-0.74c0.43,0.24,0.889,0.46,1.459,0.46c1.1,0,1.869-0.81,1.938-2.698
	c-0.569,0.59-1.229,0.809-1.858,0.809c-1.27,0-2.169-0.908-2.169-2.348c0-1.58,1.069-2.459,2.309-2.459
	c1.489,0,2.578,1.279,2.578,3.668c0,2.519-1.219,3.768-2.858,3.768C77.881,70.732,77.281,70.543,76.852,70.273z M80.52,66.575
	c-0.109-1.689-0.77-2.528-1.749-2.528c-0.819,0-1.438,0.579-1.438,1.658c0,1.05,0.579,1.689,1.488,1.689
	C79.4,67.395,79.92,67.135,80.52,66.575z"/>
<path fill="#333333" d="M82.701,70.273l0.271-0.74c0.43,0.24,0.889,0.46,1.459,0.46c1.1,0,1.869-0.81,1.938-2.698
	c-0.569,0.59-1.229,0.809-1.858,0.809c-1.27,0-2.169-0.908-2.169-2.348c0-1.58,1.069-2.459,2.309-2.459
	c1.489,0,2.578,1.279,2.578,3.668c0,2.519-1.219,3.768-2.858,3.768C83.73,70.732,83.131,70.543,82.701,70.273z M86.369,66.575
	c-0.109-1.689-0.77-2.528-1.749-2.528c-0.819,0-1.438,0.579-1.438,1.658c0,1.05,0.579,1.689,1.488,1.689
	C85.25,67.395,85.77,67.135,86.369,66.575z"/>
<path fill="#333333" d="M90.88,70.732c-1.479,0-2.579-1.27-2.579-3.697c0-2.449,1.12-3.738,2.619-3.738
	c1.479,0,2.578,1.27,2.578,3.697C93.498,69.443,92.379,70.732,90.88,70.732z M90.899,64.057c-1.02,0-1.729,0.92-1.729,2.969
	s0.709,2.968,1.729,2.968s1.729-0.919,1.729-2.968S91.919,64.057,90.899,64.057z"/>
<path fill="#333333" d="M13.841,84.732c-1.858,0-3.218-1.279-3.218-3.697c0-2.439,1.379-3.738,3.258-3.738
	c1.859,0,3.219,1.279,3.219,3.697C17.1,83.434,15.72,84.732,13.841,84.732z M13.861,78.656c-0.909,0-1.609,0.66-1.609,2.379
	s0.7,2.379,1.609,2.379s1.609-0.66,1.609-2.379S14.771,78.656,13.861,78.656z"/>
<path fill="#333333" d="M18.242,77.417h1.709l2.549,4.188v-4.188h1.499v7.196H22.64l-2.898-4.768v4.768h-1.499V77.417z"/>
<path fill="#333333" d="M25.552,77.417h4.728v1.358h-3.099v1.56h2.688v1.279h-2.688v1.689h3.129v1.31h-4.758V77.417z"/>
<path fill="#333333" d="M33.632,82.834c0.63,0.34,1.27,0.6,1.919,0.6c0.729,0,1.149-0.33,1.149-0.82
	c0-1.379-3.259-0.629-3.259-3.058c0-1.39,1.06-2.259,2.609-2.259c0.779,0,1.499,0.22,2.068,0.56l-0.38,1.399
	c-0.51-0.34-1.109-0.6-1.679-0.6c-0.62,0-0.989,0.31-0.989,0.75c0,1.279,3.258,0.52,3.258,2.998c0,1.439-1.109,2.328-2.759,2.328
	c-0.779,0-1.639-0.199-2.318-0.569L33.632,82.834z"/>
<path fill="#333333" d="M40.57,78.775h-1.909v-1.358h5.447v1.358h-1.909v5.838H40.57V78.775z"/>
<path fill="#333333" d="M47.82,84.732c-1.858,0-3.218-1.279-3.218-3.697c0-2.439,1.379-3.738,3.258-3.738
	c1.859,0,3.219,1.279,3.219,3.697C51.079,83.434,49.699,84.732,47.82,84.732z M47.841,78.656c-0.909,0-1.609,0.66-1.609,2.379
	s0.7,2.379,1.609,2.379s1.609-0.66,1.609-2.379S48.75,78.656,47.841,78.656z"/>
<path fill="#333333" d="M52.221,77.417h2.698c1.689,0,2.699,0.779,2.699,2.318c0,1.55-1.06,2.319-2.818,2.319h-0.97v2.559h-1.609
	V77.417z M53.83,80.775h0.97c0.819,0,1.209-0.32,1.209-1.01c0-0.699-0.39-1.02-1.209-1.02h-0.97V80.775z"/>
<path fill="#333333" d="M62.21,78.775h-1.909v-1.358h5.447v1.358h-1.909v5.838H62.21V78.775z"/>
<path fill="#333333" d="M69.239,81.754h-0.929v2.859h-1.6v-7.196h2.938c1.609,0,2.549,0.729,2.549,2.159
	c0,1.009-0.47,1.658-1.34,1.979l1.649,3.059h-1.789L69.239,81.754z M69.479,80.596c0.76,0,1.119-0.281,1.119-0.92
	c0-0.65-0.359-0.93-1.119-0.93h-1.169v1.85H69.479z"/>
<path fill="#333333" d="M79.769,84.613H78.06l-0.42-1.459H75.23l-0.419,1.459h-1.649l2.369-7.196h1.919L79.769,84.613z
	 M75.581,81.944h1.709l-0.85-2.979L75.581,81.944z"/>
<path fill="#333333" d="M79.552,77.417h1.649l1.539,5.147l1.549-5.147h1.579l-2.339,7.196h-1.688L79.552,77.417z"/>
<path fill="#333333" d="M86.812,77.417h4.728v1.358H88.44v1.56h2.688v1.279H88.44v1.689h3.129v1.31h-4.758V77.417z"/>
<path fill="#333333" d="M92.701,77.417h1.629v5.837h2.809v1.359h-4.438V77.417z"/>
<path fill="#333333" d="M100.292,82.834c0.63,0.34,1.27,0.6,1.919,0.6c0.729,0,1.149-0.33,1.149-0.82
	c0-1.379-3.259-0.629-3.259-3.058c0-1.39,1.06-2.259,2.609-2.259c0.779,0,1.499,0.22,2.068,0.56l-0.38,1.399
	c-0.51-0.34-1.109-0.6-1.679-0.6c-0.62,0-0.989,0.31-0.989,0.75c0,1.279,3.258,0.52,3.258,2.998c0,1.439-1.109,2.328-2.759,2.328
	c-0.779,0-1.639-0.199-2.318-0.569L100.292,82.834z"/>
<path fill="#333333" d="M106.142,77.417h1.629v2.839h2.429v-2.839h1.629v7.196h-1.629v-2.999h-2.429v2.999h-1.629V77.417z"/>
<path fill="#333333" d="M116.199,84.732c-1.858,0-3.218-1.279-3.218-3.697c0-2.439,1.379-3.738,3.258-3.738
	c1.859,0,3.219,1.279,3.219,3.697C119.458,83.434,118.078,84.732,116.199,84.732z M116.22,78.656c-0.909,0-1.609,0.66-1.609,2.379
	s0.7,2.379,1.609,2.379s1.609-0.66,1.609-2.379S117.129,78.656,116.22,78.656z"/>
<path fill="#333333" d="M120.601,77.417h2.698c1.689,0,2.699,0.779,2.699,2.318c0,1.55-1.06,2.319-2.818,2.319h-0.97v2.559h-1.609
	V77.417z M122.21,80.775h0.97c0.819,0,1.209-0.32,1.209-1.01c0-0.699-0.39-1.02-1.209-1.02h-0.97V80.775z"/>
</svg>
