<?xml version="1.0" encoding="utf-8"?>
<!-- Generator: Adobe Illustrator 15.1.0, SVG Export Plug-In  -->
<!DOCTYPE svg PUBLIC "-//W3C//DTD SVG 1.1//EN" "http://www.w3.org/Graphics/SVG/1.1/DTD/svg11.dtd" [
	<!ENTITY ns_flows "http://ns.adobe.com/Flows/1.0/">
]>
<svg version="1.1"
	 xmlns="http://www.w3.org/2000/svg" xmlns:xlink="http://www.w3.org/1999/xlink" xmlns:a="http://ns.adobe.com/AdobeSVGViewerExtensions/3.0/"
	 x="0px" y="0px" width="97px" height="97px" viewBox="-1 -1 97 97" enable-background="new -1 -1 97 97" xml:space="preserve">
<defs>
</defs>
<g>
	<defs>
		<circle id="SVGID_1_" cx="47.5" cy="47.5" r="47.5"/>
	</defs>
	<use xlink:href="#SVGID_1_"  overflow="visible" fill="#39B54A"/>
	<clipPath id="SVGID_2_">
		<use xlink:href="#SVGID_1_"  overflow="visible"/>
	</clipPath>
	<polygon opacity="0.11" clip-path="url(#SVGID_2_)" points="41,38 50,25 61,31 67,24 124,44 94,104 19,65 43,53 39,45 	"/>
</g>
<path fill="#FFFFFF" d="M74.062,65.459H19l2.727-6.408l8.512-19.956c1.503-3.521,3.958-3.521,5.469,0c0,0,1.967,4.638,2.202,5.17
	c1.129-2.646,7.154-16.8,7.154-16.8c1.523-3.52,3.979-3.52,5.462,0l11.993,28.09c0.609-1.433,1.219-2.865,1.685-3.981
	c1.094-2.55,2.851-2.55,3.943,0c1.094,2.549,2.868,6.725,3.962,9.25L74.062,65.459z M74.062,65.459"/>
<circle fill="#FFFFFF" cx="64.84" cy="27.882" r="4.802"/>
</svg>
