<?xml version="1.0" encoding="utf-8"?>
<!-- Generator: Adobe Illustrator 15.1.0, SVG Export Plug-In  -->
<!DOCTYPE svg PUBLIC "-//W3C//DTD SVG 1.1//EN" "http://www.w3.org/Graphics/SVG/1.1/DTD/svg11.dtd" [
	<!ENTITY ns_flows "http://ns.adobe.com/Flows/1.0/">
]>
<svg version="1.1"
	 xmlns="http://www.w3.org/2000/svg" xmlns:xlink="http://www.w3.org/1999/xlink" xmlns:a="http://ns.adobe.com/AdobeSVGViewerExtensions/3.0/"
	 x="0px" y="0px" width="90px" height="90px" viewBox="-1.955 -1.957 90 90" enable-background="new -1.955 -1.957 90 90"
	 xml:space="preserve">
<defs>
</defs>
<path fill="#A2C440" d="M86.089,43.043c0,23.771-19.272,43.042-43.045,43.042S0,66.814,0,43.043C0,19.27,19.272,0,43.044,0
	S86.089,19.27,86.089,43.043"/>
<path fill="#82A41E" d="M54.128,27.185l-11.083,7.595L22.156,46.018l36.963,36.965c11.579-4.664,20.664-14.217,24.697-26.101
	l0.001-0.007L54.128,27.185z"/>
<path fill="#FFFFFF" d="M28.926,50.524c2.564,0.003,4.99-0.005,7.416,0.026c0.221,0.005,0.572,0.203,0.636,0.39
	c0.212,0.618,0.514,1.296,0.434,1.904c-0.166,1.269,0.094,2.201,1.188,2.972c0.952,0.668,1.511,1.658,1.539,2.874
	c0.022,0.929-0.367,1.337-1.297,1.339c-1.753,0.004-3.504-0.018-5.257,0c-0.811,0.008-1.284-0.33-1.563-1.107
	C31.027,56.153,29.989,53.397,28.926,50.524"/>
<path fill="#FFFFFF" d="M59.327,46.385c3.047-2.162,3.371-6.227,0.012-8.703c0.736-0.939,1.474-1.878,2.278-2.902
	c2.153,1.531,3.443,3.537,3.795,6.123c0.537,3.93-1.642,7.007-3.813,8.377C60.861,48.338,60.116,47.385,59.327,46.385"/>
<path fill="#FFFFFF" d="M51.02,51.848c-3.476-2.733-7.109-5.04-11.487-5.95c0.004-1.478,0.006-2.933,0.009-4.431
	c0.001-1.502,0.004-2.954,0.004-4.434c4.379-0.898,8.02-3.191,11.503-5.916c-0.004,3.475-0.01,6.922-0.013,10.367
	C51.03,44.926,51.024,48.373,51.02,51.848 M54.662,36.518c-0.369-0.311-0.498-0.611-0.494-1.08c0.022-2.505,0.005-5.014,0.028-7.521
	c0.006-0.763-0.145-1.399-0.91-1.726c-0.789-0.337-1.391-0.008-1.962,0.527c-2.838,2.654-5.917,4.951-9.541,6.436
	c-1.689,0.691-3.428,1.059-5.267,1.033c-3.06-0.04-6.12-0.006-9.178-0.028c-0.853-0.007-1.53,0.186-1.862,1.065
	c-0.045,0.124-0.244,0.264-0.377,0.271c-2.869,0.155-4.667,2.989-4.489,5.943c-0.189,2.949,1.602,5.79,4.472,5.955
	c0.133,0.006,0.331,0.147,0.375,0.271c0.328,0.884,1.008,1.074,1.858,1.07c3.061-0.013,6.119,0.032,9.179,0
	c1.839-0.022,3.577,0.352,5.266,1.047c3.62,1.498,6.689,3.805,9.519,6.466c0.569,0.536,1.173,0.868,1.96,0.536
	c0.767-0.326,0.922-0.963,0.918-1.726c-0.018-2.507,0.009-5.015-0.004-7.524c-0.006-0.463,0.125-0.763,0.495-1.074
	c1.527-1.281,2.23-3.148,2.122-4.968C56.881,39.671,56.187,37.806,54.662,36.518"/>
</svg>
