<?xml version="1.0" encoding="utf-8"?>
<!-- Generator: Adobe Illustrator 15.1.0, SVG Export Plug-In  -->
<!DOCTYPE svg PUBLIC "-//W3C//DTD SVG 1.1//EN" "http://www.w3.org/Graphics/SVG/1.1/DTD/svg11.dtd" [
	<!ENTITY ns_flows "http://ns.adobe.com/Flows/1.0/">
]>
<svg version="1.1"
	 xmlns="http://www.w3.org/2000/svg" xmlns:xlink="http://www.w3.org/1999/xlink" xmlns:a="http://ns.adobe.com/AdobeSVGViewerExtensions/3.0/"
	 x="0px" y="0px" width="90px" height="90px" viewBox="-1.956 -1.957 90 90" enable-background="new -1.956 -1.957 90 90"
	 xml:space="preserve">
<defs>
</defs>
<path fill="#A2C440" d="M86.089,43.043c0,23.771-19.271,43.042-43.043,43.042C19.271,86.085,0,66.814,0,43.043
	C0,19.27,19.271,0,43.045,0C66.817,0,86.089,19.27,86.089,43.043"/>
<path fill="#82A41E" d="M58.512,83.221c12.501-4.813,22.189-15.294,25.916-28.296L68.128,38.624l-0.755,5.436l0.133,15.266
	l-32.174,0.718L58.512,83.221z"/>
<path fill="#FFFFFF" d="M66.478,43.453H37.152v-2.32c0-0.379,0.308-0.688,0.688-0.688h27.95c0.378,0,0.687,0.309,0.687,0.688V43.453
	z M66.478,57.701c0,0.379-0.308,0.688-0.687,0.688h-27.95c-0.38,0-0.688-0.309-0.688-0.688v-9.283h29.325V57.701z M65.791,37.701
	h-27.95c-1.897,0-3.436,1.536-3.436,3.432v16.568c0,1.896,1.539,3.433,3.436,3.433h27.95c1.895,0,3.434-1.536,3.434-3.433V41.133
	C69.225,39.237,67.686,37.701,65.791,37.701"/>
<path fill="#FFFFFF" d="M40.825,52.899h13.868c0.535,0,0.967-0.434,0.967-0.968c0-0.535-0.432-0.97-0.967-0.97H40.825
	c-0.535,0-0.968,0.435-0.968,0.97C39.856,52.466,40.29,52.899,40.825,52.899"/>
<path fill="#FFFFFF" d="M22.573,43.601l-1.186-3.28c-0.323-0.89,0.136-1.877,1.028-2.199l3.945-1.432
	c0.89-0.324,1.875,0.137,2.199,1.027l1.184,3.282c0.325,0.89-0.135,1.875-1.026,2.198l-3.945,1.433
	C23.883,44.953,22.897,44.493,22.573,43.601 M32.003,49.024L26.292,51.1c-0.503,0.182-1.059-0.077-1.242-0.58
	c-0.182-0.504,0.079-1.059,0.582-1.242l6.371-2.314v-5.83c0-3.218,2.619-5.835,5.838-5.835h14.895l-2.937-8.086
	c-0.649-1.78-2.617-2.701-4.397-2.055l-26.275,9.54c-1.782,0.646-2.701,2.615-2.055,4.398l5.655,15.572
	c0.646,1.783,2.616,2.703,4.397,2.055l4.879-1.771V49.024z"/>
</svg>
