<?xml version="1.0" encoding="utf-8"?>
<!-- Generator: Adobe Illustrator 15.1.0, SVG Export Plug-In  -->
<!DOCTYPE svg PUBLIC "-//W3C//DTD SVG 1.1//EN" "http://www.w3.org/Graphics/SVG/1.1/DTD/svg11.dtd" [
	<!ENTITY ns_flows "http://ns.adobe.com/Flows/1.0/">
]>
<svg version="1.1"
	 xmlns="http://www.w3.org/2000/svg" xmlns:xlink="http://www.w3.org/1999/xlink" xmlns:a="http://ns.adobe.com/AdobeSVGViewerExtensions/3.0/"
	 x="0px" y="0px" width="90px" height="90px" viewBox="-1.956 -1.957 90 90" enable-background="new -1.956 -1.957 90 90"
	 xml:space="preserve">
<defs>
</defs>
<path fill="#A2C440" d="M86.089,43.043c0,23.772-19.272,43.044-43.044,43.044C19.271,86.087,0,66.815,0,43.043S19.271,0,43.045,0
	C66.817,0,86.089,19.271,86.089,43.043"/>
<path fill="#82A41E" d="M57.839,24.053l-1.012,1.07c5.368,4.134,8.829,10.621,8.829,17.92c0,12.488-10.124,22.611-22.611,22.611
	c-6.868,0-13.016-3.064-17.162-7.898l-1.019,1.074l26.457,26.46c17.083-3.327,30.552-16.756,33.939-33.815L57.839,24.053z"/>
<path fill="#FFFFFF" d="M43.045,21.77c-11.73,0-21.273,9.544-21.273,21.273s9.542,21.275,21.273,21.275
	c11.729,0,21.272-9.546,21.272-21.275S54.774,21.77,43.045,21.77 M43.045,66.994c-13.208,0-23.951-10.746-23.951-23.951
	c0-13.207,10.744-23.951,23.951-23.951c13.206,0,23.95,10.744,23.95,23.951C66.995,56.248,56.251,66.994,43.045,66.994"/>
<polygon fill="#FFFFFF" points="45.18,50.239 45.18,42.613 45.18,38.8 40.792,38.8 39.522,38.8 39.522,42.613 40.792,42.613 
	40.792,50.239 39.522,50.239 39.522,54.283 40.792,54.283 45.18,54.283 46.568,54.283 46.568,50.239 "/>
<path fill="#FFFFFF" d="M43.02,36.897c1.409,0,2.549-1.14,2.549-2.548c0-1.406-1.14-2.547-2.549-2.547
	c-1.406,0-2.546,1.141-2.546,2.547C40.473,35.758,41.613,36.897,43.02,36.897"/>
</svg>
