<?xml version="1.0" encoding="utf-8"?>
<!-- Generator: Adobe Illustrator 19.0.0, SVG Export Plug-In . SVG Version: 6.00 Build 0)  -->
<svg version="1.1" id="Layer_1" xmlns="http://www.w3.org/2000/svg" xmlns:xlink="http://www.w3.org/1999/xlink" x="0px" y="0px"
	 viewBox="0 0 40 40" style="enable-background:new 0 0 40 40;" xml:space="preserve">
<style type="text/css">
	.st0{fill:#FFFFFF;}
</style>
<g id="XMLID_2_">
	<path id="XMLID_3_" class="st0" d="M27.5,4.8H12.2C11.6,4.8,11,5.3,11,6v28.8c0,0.7,0.6,1.3,1.2,1.3h15.2c0.7,0,1.2-0.6,1.2-1.3V6
		C28.7,5.3,28.2,4.8,27.5,4.8L27.5,4.8z M19.9,5.8c0.5,0,0.9,0.4,0.9,0.9c0,0.5-0.4,0.9-0.9,0.9s-0.9-0.4-0.9-0.9
		C18.9,6.2,19.3,5.8,19.9,5.8L19.9,5.8z M19.9,35c-0.7,0-1.3-0.6-1.3-1.3c0-0.7,0.6-1.3,1.3-1.3c0.7,0,1.3,0.6,1.3,1.3
		C21.2,34.4,20.6,35,19.9,35L19.9,35z M27.2,30.3c0,0.3-0.3,0.6-0.6,0.6H13.2c-0.3,0-0.6-0.3-0.6-0.6v-21c0-0.3,0.3-0.6,0.6-0.6
		h13.3c0.3,0,0.6,0.3,0.6,0.6V30.3z M27.2,30.3"/>
</g>
</svg>
