<?xml version="1.0" encoding="utf-8"?>
<!-- Generator: Adobe Illustrator 19.0.0, SVG Export Plug-In . SVG Version: 6.00 Build 0)  -->
<svg version="1.1" id="Layer_1" xmlns="http://www.w3.org/2000/svg" xmlns:xlink="http://www.w3.org/1999/xlink" x="0px" y="0px"
	 viewBox="0 0 40 40" style="enable-background:new 0 0 40 40;" xml:space="preserve">
<style type="text/css">
	.st0{fill:#FFFFFF;}
</style>
<g id="XMLID_2_">
	<path id="XMLID_3_" class="st0" d="M29.9,28.1c-4.6-1.7-6.1-3.1-6.1-6.1c0-1.8,1.4-1.2,2-4.5c0.3-1.4,1.5,0,1.7-3.2
		c0-1.3-0.7-1.6-0.7-1.6s0.3-1.9,0.5-3.3c0.2-1.8-1-6.4-7.4-6.4s-7.6,4.6-7.4,6.4c0.1,1.4,0.5,3.3,0.5,3.3s-0.7,0.3-0.7,1.6
		c0.2,3.1,1.5,1.8,1.7,3.2c0.6,3.3,2,2.7,2,4.5c0,3-1.5,4.4-6.1,6.1c-4.6,1.7-7.6,3.4-7.6,4.6c0,1.2,0,3.9,0,3.9H20h17.5
		c0,0,0-2.8,0-3.9C37.5,31.5,34.5,29.8,29.9,28.1z"/>
</g>
</svg>
