<?xml version="1.0" encoding="utf-8"?>
<!-- Generator: Adobe Illustrator 19.0.0, SVG Export Plug-In . SVG Version: 6.00 Build 0)  -->
<svg version="1.1" id="Layer_1" xmlns="http://www.w3.org/2000/svg" xmlns:xlink="http://www.w3.org/1999/xlink" x="0px" y="0px"
	 viewBox="0 0 150 150" style="enable-background:new 0 0 150 150;" xml:space="preserve">
<style type="text/css">
	.st0{fill:#E6E6E6;}
	.st1{fill:#FAFAFA;}
</style>
<g>
	<path id="XMLID_10_" class="st0" d="M150,144c0,3.3-2.7,6-6,6H7c-3.3,0-6-2.7-6-6V7c0-3.3,2.7-6,6-6h137c3.3,0,6,2.7,6,6V144z"/>
</g>
<g>
	<path class="st1" d="M75,70c-3.8,0-6.9,3.1-6.9,6.9c0,3.8,3.1,6.9,6.9,6.9c3.8,0,6.9-3.1,6.9-6.9C81.9,73.1,78.8,70,75,70z
		 M93.4,63.1h-5.5c-0.8,0-1.6-0.6-1.8-1.3l-1.4-4.3c-0.2-0.7-1.1-1.3-1.8-1.3H67.2c-0.8,0-1.6,0.6-1.8,1.3l-1.4,4.3
		c-0.2,0.7-1.1,1.3-1.8,1.3h-5.5c-2.5,0-4.6,2.1-4.6,4.6v20.7c0,2.5,2.1,4.6,4.6,4.6h36.8c2.5,0,4.6-2.1,4.6-4.6V67.7
		C98,65.2,95.9,63.1,93.4,63.1z M75,88.4c-6.4,0-11.5-5.1-11.5-11.5c0-6.4,5.1-11.5,11.5-11.5c6.3,0,11.5,5.1,11.5,11.5
		C86.5,83.3,81.3,88.4,75,88.4z M91.8,70.9c-0.9,0-1.6-0.7-1.6-1.6c0-0.9,0.7-1.6,1.6-1.6c0.9,0,1.6,0.7,1.6,1.6
		C93.4,70.2,92.7,70.9,91.8,70.9z"/>
</g>
</svg>
