<svg version="1.1" id="Слой_1" xmlns="http://www.w3.org/2000/svg" xmlns:xlink="http://www.w3.org/1999/xlink" x="0px" y="0px"
	 viewBox="0 0 336.3 30" style="display:none;" xml:space="preserve">
<style type="text/css">
	.st0{fill:#008CD9;}
	.st1{fill:#F15A24;}
	.st2{fill:#00D6CC;}
	.st3{fill:#26CF33;}
	.st4{fill:#A12D91;}
</style>

<symbol id="plane" viewBox="0 0 32 32">
	<path d="M28.5,4.9c-0.4,1.3-2.3,3.4-4.8,5.8l1.7,15.9c-0.2,0.4-0.6,0.8-1,1.2c-1.1-3.2-2.3-6.4-4-9.7
	c-0.9-1.6-1.1-2.5-3-0.9c-1.7,1.4-3.3,2.7-5,4.1c0.2,1.6,0.4,3.2,0.7,4.7c-0.4,0.6-0.8,1.2-1.3,1.8c-0.7-1.5-1.4-3-2.2-4.4
	c-1.4,0.8-1.2,1-0.4-0.4c-1.4-0.8-2.9-1.6-4.4-2.2c0.6-0.4,1.2-0.8,1.8-1.3c1.6,0.3,3.2,0.6,4.7,0.7c1.4-1.7,2.7-3.3,4.1-5
	c1.6-1.9,0.7-2.2-0.9-3c-3.3-1.8-6.5-3-9.7-4c0.3-0.4,0.7-0.7,1.2-1l15.9,1.7c2.4-2.5,4.5-4.4,5.8-4.8C28.3,3.7,28.7,4.1,28.5,4.9"
	/>
</symbol>

<symbol id="paris" viewBox="0 0 32 32">
	<path  d="M17.8,9.1h-3.1l0.5-7.9h2L17.8,9.1z M16,9.6h-1.4c-0.2,2.3-0.5,4.6-1,6.8h1.7
	C15.6,14.2,15.9,11.9,16,9.6z M16.5,9.6c0.2,2.3,0.4,4.6,0.8,6.8h1.7c-0.5-2.2-0.8-4.5-1-6.8H16.5z M18.2,9.1h-3.8v0.4h3.8V9.1z
	 M14.9,18.9h2.8c0.4,1.5,0.9,3,1.4,4.5h2.2c-0.9-2-1.7-4-2.2-6.1h-5.6c-0.5,2.2-1.3,4.1-2.2,6.1h2.2C14,21.9,14.5,20.5,14.9,18.9z
	 M19.3,16.6h-6.1v0.6h6.1V16.6z M21.7,24H10.9c-1,2-2.2,4.1-4.2,6.4h3.8c3.2-6.8,8.8-5.9,11.6,0.1h3.3C24.2,28.3,22.9,26.2,21.7,24z
	 M22,23.5H10.5v0.4H22V23.5z"/>
</symbol>


<symbol id="education" viewBox="0 0 32 32">
	<path   d="M7,13c0,17.9,18.1,18.2,18.1-0.3l-9.4,3.9L7,13z M1.1,9.4l14.6,6l9.3-4.1l6-2.6L15.6,5.1
	L1.1,9.4z M30.2,9.9L30.2,9.9c0.1,0,0.1,0.1,0.1,0.1v7.4c0,0.1-0.1,0.1-0.1,0.1c-0.1,0-0.1-0.1-0.1-0.1V10
	C30.1,10,30.2,9.9,30.2,9.9 M30,18h0.5c0.2,0,0.4,0.2,0.4,0.4v5.2c0,0.2-0.2,0.4-0.4,0.4H30c-0.2,0-0.4-0.2-0.4-0.4v-5.2
	C29.5,18.2,29.7,18,30,18"/>
</symbol>

<symbol id="mountains" viewBox="0 0 32 32">
	<path   d="M5.7,8.4c0.6,0,1.1,0.2,1.4,0.7c0.1,0,0.1,0,0.2,0c0.6,0,1.2,0.4,1.2,1.1c0,0.6-0.5,1.2-1.1,1.2
	c-0.2,0-0.5,0-0.7-0.2c-0.2,0.2-0.5,0.3-0.8,0.3c-0.4,0-0.7-0.1-1-0.3c-0.1,0.1-0.3,0.1-0.4,0.1c-0.3,0-0.5-0.1-0.7-0.3
	c-0.1,0.1-0.2,0.1-0.3,0.1c-0.4,0-0.8-0.3-0.8-0.7c0-0.4,0.3-0.8,0.7-0.8c0.1,0,0.2,0,0.3,0C3.8,9.4,4,9.3,4.3,9.3c0,0,0.1,0,0.1,0
	C4.6,8.8,5.1,8.4,5.7,8.4 M25.1,5.6c0.7,0,1.3,0.3,1.7,0.8c0.1,0,0.2,0,0.2,0c0.8,0,1.5,0.6,1.5,1.4c0,0.8-0.6,1.5-1.4,1.5
	c-0.3,0-0.6-0.1-0.8-0.2c-0.3,0.2-0.7,0.4-1.1,0.4c-0.5,0-0.9-0.1-1.3-0.4c-0.2,0.1-0.3,0.1-0.5,0.2c-0.4,0-0.7-0.1-0.9-0.3
	C22.4,9,22.3,9,22.1,9c-0.5,0-1-0.4-1-0.9c0-0.5,0.4-1,0.9-1c0.1,0,0.3,0,0.4,0.1c0.2-0.3,0.6-0.5,0.9-0.5c0,0,0.1,0,0.1,0
	C23.7,6.1,24.4,5.6,25.1,5.6 M16.3,10l2.6,4.5l-2.1,1.1l1-2.1l-2.4,1.4l0.8-1.8l-2.4,1.3L16.3,10z M0.2,26.1h31.6l-1-1.6h-1.1
	l-7.1-10.7l-1.2,2.2l1-1l1.4,2.3L22.7,16l0.2,1.2l-0.7-0.7l2.7,5.9L16.3,8.5l-9,13.7l2.8-5.5l-0.8,0.5l0.4-1.1l-1,0.6l1.1-2l0.8,1.1
	l-0.9-2.L2.4,24.4H1.3L0.2,26.1z"/>
</symbol>


<symbol id="visa" viewBox="0 0 32 32">
	<path   d="M9.5,6.4c2.3,0.4,4.3,0.7,6.3,1.2v8.9v9c-2,0.2-4.1,0.3-6.3,0.5c-2.4,0.2-5.1,0.5-7.9,0.8V15.9V5
	C4.4,5.5,7,6,9.5,6.4z M30.8,5v10.9v10.9C28,26.5,25.4,26.2,23,26c-2.3-0.2-4.1-0.3-6.1-0.5v-9v-9c2-0.4,3.8-0.6,6.1-1.1
	C25.4,6,28,5.5,30.8,5z M22.4,13.9c0.4,0.6,0.5,1.2,0.5,1.6c0,0.5-0.5,1.1-0.2,1.7v0h1.7c0.2-0.4,0.1-1-0.2-1.8
	c-0.1-0.5,0-1,0.3-1.6c0.4-0.8,1.1-2.1,0-2.6h-1.9C21.5,11.5,21.8,12.6,22.4,13.9z M27.4,18.3c0-0.2-0.2-0.4-0.4-0.4h-6.8
	c-0.2,0-0.4,0.2-0.4,0.4v1.2c0,0.2,0.2,0.4,0.4,0.4h6.8c0.2,0,0.4-0.2,0.4-0.4V18.3z"/>
</symbol>

<symbol id="mic" viewBox="0 0 32 32">
	<path   d="M27,3.8l0.3,0.3c0.5,0.5,0.4,1.3-0.1,1.8l-11.4,9.8c-0.5,0.5-1.3,0.4-1.8-0.1l-0.3-0.3
	c-0.5-0.5-0.4-1.3,0.1-1.8l11.4-9.8C25.8,3.2,26.6,3.3,27,3.8 M13.8,15.8c-0.2-0.2-0.3-0.4-0.5-0.6c-2.3,1.5-3.3,3.8-3.2,6.5h0.7
	C10.8,19.4,11.6,17.3,13.8,15.8 M4.7,28.3c1.4-1.6,3.2-2.5,5-2.7v-2.6l0.5-1.2h0.7l0.6,1.2v2.6c1.8,0.2,3.5,1.1,5,2.7L4.7,28.3"/>
</symbol>

<symbol id="car" viewBox="0 0 32 32">
	<path  d="M22.6,13.6c0.1,0.2,0,0.4-0.1,0.6c0,0.2-0.3,0.3-1,0.3c-1,0-3,0-3.7,0c-0.4,0-0.5,0-0.4-0.4
	c0.2-0.8,0.3-2,0.3-2C18.4,12.1,21.5,11.8,22.6,13.6 M24.6,16.3c1.1,0,2.1,0.9,2.1,2.1s-0.9,2.1-2.1,2.1c-1.1,0-2.1-0.9-2.1-2.1
	S23.4,16.3,24.6,16.3 M4.8,16.3c1.1,0,2.1,0.9,2.1,2.1S6,20.4,4.8,20.4c-1.1,0-2.1-0.9-2.1-2.1S3.7,16.3,4.8,16.3 M30.4,16
	c0,0,0.2,0-0.1,0c-0.2,0-0.7-0.1-1-0.2c-0.2-0.1-0.1-0.9-0.1-1c0-0.3,0.4-0.2,1-0.2C30.2,14.7,30.4,15.7,30.4,16 M1.6,16.6
	c0.2,0,0.1,0,0.6-0.1c0.5-0.1,0.6-0.6,0.7-0.8c0.1-0.2-0.2-0.3-0.9-0.1c-0.1,0-0.2,0.3-0.2,0.4C1.8,16.2,1.6,16.5,1.6,16.6 M7.8,19
	l13.8-0.1c0.1,0,0.1,0,0.1,0.1s0,0.1-0.1,0.1L7.8,19.2c-0.1,0-0.1,0-0.1-0.1C7.7,19,7.8,19,7.8,19 M2.7,19.6
	c-0.2-0.4-0.3-0.4-0.3-1.3c0-0.9,1.1-2.4,2.4-2.4s2.4,1.5,2.4,2.4c0,0.9-0.1,0.9-0.4,1.3c3.9,0,11.8,0,15.6-0.2
	c-0.2-0.3-0.3-0.3-0.3-1.1c0-0.9,0.5-2.4,2.4-2.4c2,0,2.4,1.6,2.4,2.4s0,0.6-0.1,0.8c0.2,0,0.4-0.1,0.5-0.1c0.2-0.1,1.7-0.1,1.9-0.2
	c0.5-0.1,0.9-0.2,1.3-0.5c0.7-0.4,0.4-1.9,0.4-2c-0.1-0.2-0.4-0.3-0.5-0.3c-0.8-0.1-0.9-0.1-1.2-0.2c-0.3-0.1-0.2-1-0.2-1.1
	c0-0.3,0.4-0.2,1.2-0.2c0-0.1,0-0.2,0-0.3c0-0.2-0.3-0.2-0.5-0.2l-0.4,0c-0.3,0-1.8,0-2.1,0c-0.4,0-1.6-0.7-2-0.9
	c-0.6-0.3-1.5-0.6-2.1-0.8c-1.5-0.4-7.8-0.9-9.5,0c-1.8,0.7-3.9,1.8-5.3,2.3c-2.2,0.2-5.1,0.2-5.9,0.5c-0.2,0.1-0.4,0.2-0.4,0.4
	c0.8-0.2,1-0.1,1,0.2C3,16,2.7,16.5,2.3,16.6c-0.4,0.1-0.7,0.1-0.7,0.1c-0.1,0.2-0.2,0.4-0.3,0.6c-0.2,0-0.3,0.2-0.3,0.4v0.7
	c0,0.2,0.1,0.3,0.3,0.4C1.5,19.2,2,19.6,2.7,19.6"/>
</symbol>

<symbol id="bed" viewBox="0 0 32 32">
	<path   d="M5.8,14.1h20.4c0.9,0,1.7,0.8,1.7,1.7V21c0,0.9-0.8,1.7-1.7,1.7H5.8c-0.9,0-1.7-0.8-1.7-1.7v-5.2
	C4.1,14.9,4.8,14.1,5.8,14.1 M1.8,11.6L1.8,11.6c0.3,0,0.6,0.3,0.6,0.6v11.4c0,0.3-0.3,0.6-0.6,0.6c-0.3,0-0.6-0.3-0.6-0.6V12.2
	C1.2,11.8,1.5,11.6,1.8,11.6 M30.2,7.4L30.2,7.4c0.3,0,0.6,0.3,0.6,0.6v15.6c0,0.3-0.3,0.6-0.6,0.6c-0.3,0-0.6-0.3-0.6-0.6V8
	C29.6,7.6,29.8,7.4,30.2,7.4 M20.9,10.6h4.6c0.5,0,0.9,0.4,0.9,0.9v1.2c0,0.5-0.4,0.9-0.9,0.9h-4.6c-0.5,0-0.9-0.4-0.9-0.9v-1.2
	C20,11,20.4,10.6,20.9,10.6"/>
</symbol>

<symbol id="menu" viewBox="0 0 32 32">
	<path   d="M26.5,7.8c0,0.8-0.9,1.5-2,1.5h-16c-1.1,0-2-0.7-2-1.5s0.9-1.5,2-1.5h16C25.6,6.3,26.5,7,26.5,7.8z
	 M26.5,15.8c0,0.8-0.9,1.5-2,1.5h-16c-1.1,0-2-0.7-2-1.5c0-0.8,0.9-1.5,2-1.5h16C25.6,14.3,26.5,15,26.5,15.8z M26.5,23.8
	c0,0.8-0.9,1.5-2,1.5h-16c-1.1,0-2-0.7-2-1.5s0.9-1.5,2-1.5h16C25.6,22.3,26.5,23,26.5,23.8z"/>
</symbol>

<symbol id="search" viewBox="0 0 32 32">
	<path  d="M14.9,23.8c-5.4,0-9.7-4.4-9.7-9.7s4.4-9.7,9.7-9.7s9.7,4.4,9.7,9.7S20.3,23.8,14.9,23.8z
	 M14.9,6.2c-4.3,0-7.9,3.5-7.9,7.9s3.5,7.9,7.9,7.9c4.3,0,7.9-3.5,7.9-7.9S19.3,6.2,14.9,6.2z M25.9,27.3l-3.8-3.8l1.3-1.3l3.8,3.8
	L25.9,27.3z"/>
</symbol>
</svg>
