<?xml version="1.0" encoding="utf-8"?>
<!-- Generator: Adobe Illustrator 19.2.1, SVG Export Plug-In . SVG Version: 6.00 Build 0)  -->
<svg version="1.1" id="Layer_1" xmlns="http://www.w3.org/2000/svg" xmlns:xlink="http://www.w3.org/1999/xlink" x="0px" y="0px"
	 viewBox="0 0 46 46" style="enable-background:new 0 0 46 46;" xml:space="preserve">
<style type="text/css">
	.st0{fill:#FFFFFF;}
</style>
<g>
	<path class="st0" d="M31.2,15.1c-5.3,3.2-9.1,7.3-10.6,9.1l-4-3.1c-0.1-0.1-2.3,1.9-2.2,1.9l7.2,7.3c0.1,0.1,0.1,0.1,0.2,0.1
		c0,0,0,0,0.1,0c0.1,0,0.2-0.1,0.2-0.2c1.2-3,5-9.2,9.9-13.7c0.1-0.1,0.1-0.2,0.1-0.3C32.1,16.3,31.3,15.1,31.2,15.1L31.2,15.1z
		 M31.2,15.1"/>
	<path class="st0" d="M36,8.7C25,8.7,23.2,4.5,23.2,4.5c-0.1-0.2-0.3-0.3-0.5-0.3h0c-0.2,0-0.4,0.1-0.5,0.3c0,0-1.9,4.2-12.8,4.2
		c-0.3,0-0.5,0.2-0.5,0.5v18.6c0,7.6,13.1,13.4,13.6,13.7c0.1,0,0.1,0,0.2,0c0.1,0,0.1,0,0.2,0c0.6-0.2,13.6-6.1,13.6-13.7V9.2
		C36.5,8.9,36.3,8.7,36,8.7L36,8.7z M33.5,26.7c0,6-10.2,10.5-10.7,10.7c-0.1,0-0.1,0-0.2,0c-0.1,0-0.1,0-0.2,0
		c-0.4-0.2-10.7-4.7-10.7-10.7V12.2c0-0.2,0.2-0.4,0.4-0.4c8.5,0,10-3.3,10-3.3c0.1-0.2,0.2-0.3,0.4-0.3h0c0.2,0,0.3,0.1,0.4,0.3
		c0,0,1.5,3.3,10,3.3c0.2,0,0.4,0.2,0.4,0.4V26.7z M33.5,26.7"/>
</g>
</svg>
