<?xml version="1.0" encoding="utf-8"?>
<!-- Generator: Adobe Illustrator 15.1.0, SVG Export Plug-In  -->
<!DOCTYPE svg PUBLIC "-//W3C//DTD SVG 1.1//EN" "http://www.w3.org/Graphics/SVG/1.1/DTD/svg11.dtd" [
	<!ENTITY ns_flows "http://ns.adobe.com/Flows/1.0/">
]>
<svg version="1.1"
	 xmlns="http://www.w3.org/2000/svg" xmlns:xlink="http://www.w3.org/1999/xlink" xmlns:a="http://ns.adobe.com/AdobeSVGViewerExtensions/3.0/"
	 x="0px" y="0px" width="97px" height="97px" viewBox="-1 -1 97 97" enable-background="new -1 -1 97 97" xml:space="preserve">
<defs>
</defs>
<g>
	<defs>
		<circle id="SVGID_1_" cx="47.5" cy="47.5" r="47.5"/>
	</defs>
	<use xlink:href="#SVGID_1_"  overflow="visible" fill="#965CDB"/>
	<clipPath id="SVGID_2_">
		<use xlink:href="#SVGID_1_"  overflow="visible"/>
	</clipPath>
	<polygon opacity="0.11" clip-path="url(#SVGID_2_)" points="41,38 47.894,33.312 53,35 60.101,27.892 124,44 83,107 46,72 43,53 
		39,45 	"/>
</g>
<polygon opacity="0.11" points="48,27 47.896,23.926 57.004,33.738 52,40 47,30 "/>
<polygon opacity="0.11" points="38,30 40,30 47.004,36.738 42,43 37,33 "/>
<polygon opacity="0.11" points="38,56 40,56 47.004,62.738 44,69 36,61 "/>
<polygon opacity="0.11" points="31.289,38.438 33.203,37.858 41.858,42.279 38.882,49.722 31.201,41.599 "/>
<polygon opacity="0.11" points="29.383,49.97 30.325,48.206 39.567,45.199 42.735,52.563 31.559,52.265 "/>
<path fill="#FFFFFF" d="M52.127,62.852h-8.468c-0.656,0-1.188,0.532-1.188,1.188c0,0.656,0.532,1.188,1.188,1.188h8.468
	c0.656,0,1.188-0.531,1.188-1.188C53.315,63.384,52.783,62.852,52.127,62.852L52.127,62.852z M52.127,62.852"/>
<path fill="#FFFFFF" d="M45.712,69.773c0.161,1.066,1.071,1.887,2.183,1.887c1.11,0,2.023-0.82,2.184-1.887
	c1.454-0.086,2.609-1.281,2.609-2.755h-9.591C43.097,68.494,44.256,69.689,45.712,69.773L45.712,69.773z M45.712,69.773"/>
<path fill="#FFFFFF" d="M47.896,30.777c0.876,0,1.584-0.709,1.584-1.584V25.51c0-0.874-0.708-1.584-1.584-1.584
	s-1.584,0.71-1.584,1.584v3.684C46.312,30.068,47.02,30.777,47.896,30.777L47.896,30.777z M47.896,30.777"/>
<path fill="#FFFFFF" d="M37.504,33.084c0.311,0.428,0.793,0.654,1.284,0.654c0.321,0,0.647-0.099,0.929-0.303
	c0.707-0.513,0.865-1.503,0.352-2.211l-2.165-2.981c-0.516-0.706-1.503-0.866-2.213-0.351c-0.707,0.513-0.864,1.503-0.351,2.211
	L37.504,33.084z M37.504,33.084"/>
<path fill="#FFFFFF" d="M58.285,56.299c-0.513-0.707-1.502-0.864-2.212-0.351c-0.707,0.514-0.864,1.505-0.349,2.212l2.167,2.982
	c0.309,0.425,0.792,0.652,1.283,0.652c0.322,0,0.646-0.099,0.928-0.303c0.708-0.515,0.865-1.505,0.35-2.212L58.285,56.299z
	 M58.285,56.299"/>
<path fill="#FFFFFF" d="M33.647,38.396l-3.504-1.14c-0.84-0.271-1.725,0.185-1.997,1.018c-0.271,0.83,0.185,1.724,1.016,1.995
	l3.505,1.14c0.164,0.052,0.327,0.079,0.489,0.079c0.668,0,1.289-0.427,1.506-1.096C34.935,39.562,34.479,38.667,33.647,38.396
	L33.647,38.396z M33.647,38.396"/>
<path fill="#FFFFFF" d="M66.627,49.113l-3.503-1.139c-0.833-0.268-1.725,0.186-1.995,1.018c-0.271,0.832,0.185,1.726,1.017,1.995
	l3.505,1.139c0.162,0.052,0.326,0.078,0.488,0.078c0.669,0,1.289-0.427,1.506-1.095C67.916,50.276,67.459,49.383,66.627,49.113
	L66.627,49.113z M66.627,49.113"/>
<path fill="#FFFFFF" d="M32.668,47.975l-3.506,1.138c-0.831,0.27-1.287,1.161-1.017,1.994c0.216,0.669,0.837,1.096,1.506,1.096
	c0.161,0,0.326-0.024,0.489-0.078l3.505-1.137c0.832-0.27,1.289-1.162,1.019-1.995C34.395,48.161,33.508,47.707,32.668,47.975
	L32.668,47.975z M32.668,47.975"/>
<path fill="#FFFFFF" d="M62.635,41.488c0.162,0,0.326-0.027,0.489-0.079l3.503-1.138c0.832-0.271,1.289-1.164,1.018-1.996
	c-0.271-0.831-1.167-1.285-1.994-1.018l-3.505,1.139c-0.832,0.271-1.288,1.164-1.017,1.996
	C61.346,41.062,61.967,41.488,62.635,41.488L62.635,41.488z M62.635,41.488"/>
<path fill="#FFFFFF" d="M37.506,56.298l-2.168,2.979c-0.515,0.707-0.358,1.698,0.349,2.212c0.281,0.205,0.606,0.304,0.93,0.304
	c0.49,0,0.973-0.226,1.282-0.65l2.168-2.982c0.515-0.707,0.358-1.697-0.35-2.211C39.012,55.432,38.018,55.591,37.506,56.298
	L37.506,56.298z M37.506,56.298"/>
<path fill="#FFFFFF" d="M57.889,28.243l-2.165,2.981c-0.513,0.708-0.355,1.698,0.352,2.211c0.281,0.204,0.606,0.303,0.929,0.303
	c0.491,0,0.973-0.227,1.284-0.654l2.165-2.981c0.513-0.707,0.356-1.697-0.352-2.211C59.39,27.375,58.404,27.534,57.889,28.243
	L57.889,28.243z M57.889,28.243"/>
<path fill="#FFFFFF" d="M59.333,44.751c0-6.319-5.122-11.439-11.439-11.439c-6.317,0-11.439,5.12-11.439,11.439
	c0,2.664,0.916,5.111,2.447,7.054c1.342,1.702,2.613,3.562,3.715,5.432v3.801h10.49v-3.699c1.092-1.819,2.502-3.913,3.777-5.531
	C58.416,49.863,59.333,47.417,59.333,44.751L59.333,44.751z M59.333,44.751"/>
</svg>
