<?xml version="1.0" encoding="utf-8"?>
<!-- Generator: Adobe Illustrator 15.1.0, SVG Export Plug-In  -->
<!DOCTYPE svg PUBLIC "-//W3C//DTD SVG 1.1//EN" "http://www.w3.org/Graphics/SVG/1.1/DTD/svg11.dtd" [
	<!ENTITY ns_flows "http://ns.adobe.com/Flows/1.0/">
]>
<svg version="1.1"
	 xmlns="http://www.w3.org/2000/svg" xmlns:xlink="http://www.w3.org/1999/xlink" xmlns:a="http://ns.adobe.com/AdobeSVGViewerExtensions/3.0/"
	 x="0px" y="0px" width="97px" height="97px" viewBox="-1 -1 97 97" enable-background="new -1 -1 97 97" xml:space="preserve">
<defs>
</defs>
<g>
	<defs>
		<circle id="SVGID_1_" cx="47.5" cy="47.5" r="47.5"/>
	</defs>
	<use xlink:href="#SVGID_1_"  overflow="visible" fill="#ED362B"/>
	<clipPath id="SVGID_2_">
		<use xlink:href="#SVGID_1_"  overflow="visible"/>
	</clipPath>
	<polygon opacity="0.11" clip-path="url(#SVGID_2_)" points="97.209,33.798 97,26 52,13 45,30 78,40 69.903,45 14.903,27 17.903,41 
		27.903,57 43.903,60 41.903,78 95.903,104 125.903,44 	"/>
</g>
<path fill-rule="evenodd" clip-rule="evenodd" fill="#FFFFFF" d="M43.21,63.054c-2.98,0.575-4.909,3.064-8.075,3.064
	c-0.472,0-1.121-0.062-1.462-0.443c1.795-0.187,3.109-2.543,4.805-3.227c-2.547,1.188-4.555,2.219-7.353,2.219
	c-1.477,0-3.138-0.438-4.407-1.25c2.691-0.103,5.037-0.54,7.466-1.855c-2.343,0.185-4.567,0.827-6.936,0.827
	c-1.8,0-3.721-1.045-4.978-2.359c0.469,0.069,0.95,0.12,1.425,0.12c2.298,0,4.425-1.231,6.631-1.028
	c-1.087-0.104-2.178-0.021-3.268-0.021c-3.999,0-7.221-0.111-9.538-4.193c2.885,1.397,5.53,0.167,8.016,0.947
	c-3.305-0.153-7.568-1.598-9.366-4.759c-0.54-0.946-0.644-1.958-1.045-2.943c2.347,2.617,5.044,2.807,8.15,3.528
	C18.164,47.93,13,48.516,13,39.199l0.019-0.604c2.189,3.948,4.126,5.47,8.302,6.492c-3.711-3.132-7.528-5.146-7.695-11.052
	l0.135-0.119c-0.127-2.504,0.606-4.809,2.015-6.814L16.02,27c-0.047,0.416-0.057,0.832-0.057,1.25
	c0,10.73,13.355,10.352,15.372,20.043c0.196,0.936-1.621,1.434-2.128,1.493c1.63,4.201,6.947,5.544,10.773,5.544
	c0.246,0,3.114-0.398,3.249-0.504c0.438-4.012,3.486-9.216,7.734-9.093l0.435,0.321v1.433l0.095-1.17l1.083-0.061v0.061l1.198,0.383
	l0.057,0.262l-0.361,1.029l-0.304,0.04l0.039-0.443l-0.172-0.182l-1.635,0.585l1.123,0.302c-0.434,0.632-2.413,0.379-2.413,3.126
	c0,1.258,0.657,2.124,1.216,3.246c2.029,0.778,3.968,1.108,6.118,1.108c2.935,0,7.314-1.973,8.968-4.839l-1.577-1.089
	c-0.249-0.446-0.362-0.956-0.362-1.472c0-7.861,17.316-10.028,16.15-21.133c1.472,2.657,1.997,4.471,1.997,7.562
	c0,5.15-4.422,8.635-8.076,11.313c2.996-1.854,7.621-2.969,8.323-7.219l0.038,1.594c0,9.46-5.789,7.703-10.052,11.09h0.135
	c3.029-0.827,5.443-0.369,7.94-2.904c-0.435,5.925-6.578,6.582-10.715,7.522c1.347-0.373,2.693-0.202,4.066-0.202
	c1.234,0,2.781-0.203,3.895-0.786c-1.807,3.164-3.645,4.133-7.163,4.133c-1.422,0-2.843-0.302-4.274-0.302l-0.705,0.02
	c2.239,0.295,4.262,1.271,6.556,1.271c0.435,0,0.915-0.115,1.331-0.241c-1.369,1.887-3.35,2.277-5.453,2.277
	c-2.034,0-4.159-0.81-6.194-1.048c2.354,0.658,4.741,2.418,7.258,1.916c-1.492,1.168-2.915,1.532-4.732,1.532
	c-1.924,0-4.968-1.344-6.706-2.237c1.371,1.005,3.29,2.946,4.938,3.206l-0.438,0.302l-0.055-0.102
	c-0.475,0.221-1.116,0.383-1.634,0.383c-2.665,0-5.366-2.629-8.076-3.226l-0.115,0.464c1.59,3.409,4.447,6.008,6.06,9.478
	c-0.286,0.743-0.291,1.391-1.101,1.391c-0.327,0-0.682-0.098-0.967-0.262l-0.114,0.725c-0.801,1.248-0.983,0.416-1.919,0.727
	l-0.077,0.363l1.084,0.706c-0.178,0.432-0.368,0.979-0.646,1.351c-0.244-0.063-0.507-0.12-0.761-0.12
	c-0.757,0-1.442,0.412-2.185,0.503l-0.171-0.08c-0.046-0.258-0.153-0.632-0.153-0.887l0.058-0.384
	c0.135-0.064,0.272-0.155,0.381-0.263v-0.262l-0.496-0.182c-0.459,0.611-0.527,0.887-1.235,0.887c-0.304,0-0.676-0.094-0.95-0.24
	c-0.434,0.494-0.921,0.726-1.557,0.726c-0.203,0-0.97-0.587-1.18-0.726l-1.178,0.302l-0.875-0.625l-0.188-0.505h-0.116l-0.151,0.041
	l-0.057,0.464l0.057,0.12l0.571,0.344c-0.245,0.223-0.63,0.815-0.571,1.189c-0.748-0.412-2.026-0.572-2.85-0.443l-0.248-0.182
	v-0.465l-0.342-0.443c0.642-0.329,0.943-0.723,1.444-1.29v-0.263l-0.057-0.1c-0.297,0.162-0.984,0.173-1.312,0.181l-0.568-0.444
	c-0.113-0.113-0.057-0.852-0.057-1.028c-0.271,0.289-0.663,0.445-1.045,0.445c-0.521,0-1.142-0.542-1.142-1.089
	c0-1.958,5.131-8.501,5.131-9.901L43.21,63.054z"/>
<circle fill="#FFFFFF" cx="48" cy="22" r="9"/>
</svg>
