<?xml version="1.0" encoding="utf-8"?>
<!-- Generator: Adobe Illustrator 15.1.0, SVG Export Plug-In  -->
<!DOCTYPE svg PUBLIC "-//W3C//DTD SVG 1.1//EN" "http://www.w3.org/Graphics/SVG/1.1/DTD/svg11.dtd" [
	<!ENTITY ns_flows "http://ns.adobe.com/Flows/1.0/">
]>
<svg version="1.1"
	 xmlns="http://www.w3.org/2000/svg" xmlns:xlink="http://www.w3.org/1999/xlink" xmlns:a="http://ns.adobe.com/AdobeSVGViewerExtensions/3.0/"
	 x="0px" y="0px" width="97px" height="97px" viewBox="-1 -1 97 97" enable-background="new -1 -1 97 97" xml:space="preserve">
<defs>
</defs>
<g>
	<defs>
		<circle id="SVGID_1_" cx="47.5" cy="47.5" r="47.5"/>
	</defs>
	<use xlink:href="#SVGID_1_"  overflow="visible" fill="#FF931E"/>
	<clipPath id="SVGID_2_">
		<use xlink:href="#SVGID_1_"  overflow="visible"/>
	</clipPath>
	<polygon opacity="0.11" clip-path="url(#SVGID_2_)" points="28,29 32,30 28,25 66,26 124,44 94,104 28,67 27,45 28,35 	"/>
</g>
<rect x="33.309" y="47.643" fill="#FFFFFF" width="4.483" height="4.484"/>
<rect x="33.309" y="54.74" fill="#FFFFFF" width="4.483" height="4.484"/>
<rect x="40.831" y="40.545" fill="#FFFFFF" width="4.483" height="4.485"/>
<rect x="40.831" y="47.643" fill="#FFFFFF" width="4.483" height="4.484"/>
<rect x="40.831" y="54.74" fill="#FFFFFF" width="4.483" height="4.484"/>
<path fill="#FFFFFF" d="M67.758,41.19V28.096c0-1.734-1.417-3.151-3.152-3.151H29.152c-1.736,0-3.152,1.417-3.152,3.151v35.455
	c0,1.731,1.416,3.151,3.152,3.151h23.143C54.865,68.763,58.123,70,61.677,70c8.313,0,15.062-6.735,15.062-15.049
	C76.738,48.806,73.036,43.528,67.758,41.19L67.758,41.19z M39.676,28.043h14.396v3.724H39.676V28.043z M29.883,35.32h33.993v4.76
	c-0.719-0.105-1.449-0.18-2.2-0.18c-3.311,0-6.368,1.078-8.854,2.897v-2.253h-4.483v4.485h2.042
	c-2.326,2.644-3.745,6.113-3.745,9.921c0,2.719,0.731,5.254,1.979,7.457H29.883V35.32z M73.936,56.337"/>
<path fill="#FF931E" d="M58.824,60.585c0.059-0.054,0.111-0.113,0.159-0.179l4.544-4.729l0.079,0.06l4.391,6.325L69,60.447
	l-0.847-2.455l-0.846-2.452l-1.117-3.232l-0.021-0.018l2.379-3.828c0,0,0.586-1.262,0.107-1.622c-0.48-0.36-1.379,0.442-1.379,0.442
	l-3.283,3.599l-3.016-0.107l-2.631-0.095l-2.42-0.086l-1.421,1.601l7.004,2.098l-3.264,5.344c-0.086,0.114-0.168,0.232-0.238,0.346
	l-2.698-0.123l-0.57,0.758l2.27,0.737l0.902,0.679L59.315,64l0.497-0.66L58.824,60.585z M58.824,60.585"/>
</svg>
