<?xml version="1.0" encoding="utf-8"?>
<!-- Generator: Adobe Illustrator 15.1.0, SVG Export Plug-In  -->
<!DOCTYPE svg PUBLIC "-//W3C//DTD SVG 1.1//EN" "http://www.w3.org/Graphics/SVG/1.1/DTD/svg11.dtd" [
	<!ENTITY ns_flows "http://ns.adobe.com/Flows/1.0/">
]>
<svg version="1.1"
	 xmlns="http://www.w3.org/2000/svg" xmlns:xlink="http://www.w3.org/1999/xlink" xmlns:a="http://ns.adobe.com/AdobeSVGViewerExtensions/3.0/"
	 x="0px" y="0px" width="97px" height="97px" viewBox="-1 -1 97 97" enable-background="new -1 -1 97 97" xml:space="preserve">
<defs>
</defs>
<g>
	<defs>
		<circle id="SVGID_1_" cx="47.5" cy="47.5" r="47.5"/>
	</defs>
	<use xlink:href="#SVGID_1_"  overflow="visible" fill="#00D6CC"/>
	<clipPath id="SVGID_2_">
		<use xlink:href="#SVGID_1_"  overflow="visible"/>
	</clipPath>
	<polygon opacity="0.11" clip-path="url(#SVGID_2_)" points="39,28 48,17 100,31 111,38 124,44 94,104 19,68 19,45 36,40 	"/>
</g>
<path fill="#FFFFFF" d="M19,45.584V68h4.521V57.907h4.83V68h3.84V57.907h4.83V68h5.184c-0.008-0.112-0.013-0.226-0.013-0.339v-9.351
	c0-2.822,2.287-5.109,5.109-5.109s5.109,2.287,5.109,5.109v9.351c0,0.113-0.006,0.227-0.013,0.339h5.183V57.907h4.83V68h3.84V57.907
	h4.83V68h4.521V45.584H19z M19,45.584"/>
<path fill="#FFFFFF" d="M70.647,40.196h-3.406v-3.882H64.64v3.882H29.961v-3.882H27.36v3.882h-3.406v3.964h46.693V40.196z
	 M70.647,40.196"/>
<path fill="#FFFFFF" d="M39.839,32.641h2.539v5.698h3.654v-5.698h2.539v5.698h3.654v-5.698h2.538v5.698h3.127V31.03
	c0-5.454-4.124-9.943-9.425-10.523v-3.472h-2.329v3.472c-5.3,0.58-9.425,5.069-9.425,10.523v7.309h3.128V32.641z M39.839,32.641"/>
</svg>
