<?xml version="1.0" encoding="utf-8"?>
<!-- Generator: Adobe Illustrator 19.0.0, SVG Export Plug-In . SVG Version: 6.00 Build 0)  -->
<svg version="1.1" id="Layer_1" xmlns="http://www.w3.org/2000/svg" xmlns:xlink="http://www.w3.org/1999/xlink" x="0px" y="0px"
	 viewBox="0 0 39 39" style="enable-background:new 0 0 39 39;" xml:space="preserve">
<style type="text/css">
	.st0{opacity:0.11;}
	.st1{fill:#FFFFFF;}
</style>
<g>
	<circle class="st0" cx="19.5" cy="19.5" r="19.5"/>
	<g>
		<g>
			<path class="st1" d="M28.1,27.2c-0.2-3.5-3.4-5-3.4-5c-0.8-0.4-2.1-1-3-1.5c1.2-1.3,1.5-3.3,1.6-3.6c0.2-1.3,0.1-3,0.1-3
				c-0.2-3.2-3.4-3.2-3.8-3.2c0,0,0,0,0,0s0,0,0,0c-0.3,0-3.6,0-3.8,3.2c0,0-0.1,1.6,0.1,3c0,0.1,0.1,0.3,0.1,0.6
				c0.6,0.8,1.5,1.2,2.3,1.4c0.1-0.1,0.2-0.2,0.4-0.2h1.4c0.3,0,0.5,0.2,0.5,0.5c0,0.3-0.2,0.5-0.5,0.5h-1.4c-0.2,0-0.4-0.1-0.5-0.3
				c-0.6-0.1-1.2-0.4-1.8-0.8c0.2,0.6,0.6,1.3,1.1,1.8c-0.9,0.5-2.3,1.2-3,1.5c0,0-3.2,1.5-3.4,5c0,0-0.1,0.6,1.1,0.8
				c0,0,3.4,0.8,7.5,0.8c4.1,0,7.5-0.8,7.5-0.8C28.1,27.8,28.1,27.2,28.1,27.2L28.1,27.2z M28.1,27.2"/>
			<path class="st1" d="M14.6,18.2H15v-4c0,0,0,0,0,0v-0.6c0-1,0.3-1.9,1-2.5c1.3-1.3,3.6-1.3,3.6-1.3c0,0,2.3,0,3.6,1.3
				c0.6,0.6,1,1.5,1,2.5v0.6c0,0,0,0,0,0v4h0.3c0.8,0,1.5-0.7,1.5-1.5v-1.5c0-0.7-0.4-1.2-1-1.4v-0.2c0-1.3-0.4-2.3-1.2-3.1
				C22.1,9,19.6,9,19.6,9c-0.1,0-2.6,0-4.2,1.5c-0.8,0.8-1.2,1.8-1.2,3.1v0.2c-0.6,0.2-1,0.8-1,1.4v1.5
				C13.1,17.5,13.8,18.2,14.6,18.2L14.6,18.2z M14.6,18.2"/>
		</g>
	</g>
</g>
</svg>
