<?xml version="1.0" encoding="utf-8"?>
<!-- Generator: Adobe Illustrator 19.0.0, SVG Export Plug-In . SVG Version: 6.00 Build 0)  -->
<svg version="1.1" id="Layer_1" xmlns="http://www.w3.org/2000/svg" xmlns:xlink="http://www.w3.org/1999/xlink" x="0px" y="0px" height="48px" width="32px"
	 viewBox="0 0 31.8 47.7" style="enable-background:new 0 0 31.8 47.7;" xml:space="preserve">
<style type="text/css">
	.st0{fill:#0091D4;}
	.st1{opacity:0.48;fill:url(#XMLID_23_);}
	.st2{fill:#FFFFFF;}
	.st3{fill:#1A242D;}
</style>
<g id="XMLID_2_">
	<g id="XMLID_6_">
		<path id="XMLID_7_" class="st0" d="M15.8,0C7.1,0,0,7.1,0,15.8c0,3.5,2.2,9.2,6.8,17.4c3.3,5.8,6.4,10.7,6.6,10.9l2.3,3.5l2.3-3.5
			c0.1-0.2,3.3-5.1,6.6-10.9c4.6-8.2,6.8-13.9,6.8-17.4C31.5,7.1,24.4,0,15.8,0L15.8,0z M15.8,23.8"/>
	</g>
	<linearGradient id="XMLID_23_" gradientUnits="userSpaceOnUse" x1="14.6911" y1="14.5744" x2="27.2168" y2="24.4431">
		<stop  offset="0" style="stop-color:#000000"/>
		<stop  offset="1" style="stop-color:#000000;stop-opacity:0"/>
	</linearGradient>
	<polygon id="XMLID_5_" class="st1" points="24.3,32 12,25 21,7 31.6,16 	"/>
	<path id="XMLID_4_" class="st2" d="M15.8,25.8c-5.6,0-10.2-4.6-10.2-10.2c0-5.6,4.6-10.2,10.2-10.2c5.6,0,10.2,4.6,10.2,10.2
		C25.9,21.3,21.4,25.8,15.8,25.8L15.8,25.8z"/>
	<circle id="XMLID_3_" class="st3" cx="15.5" cy="15.5" r="4.5"/>
</g>
</svg>
