<?xml version="1.0" encoding="utf-8"?>
<!-- Generator: Adobe Illustrator 15.1.0, SVG Export Plug-In  -->
<!DOCTYPE svg PUBLIC "-//W3C//DTD SVG 1.1//EN" "http://www.w3.org/Graphics/SVG/1.1/DTD/svg11.dtd" [
	<!ENTITY ns_flows "http://ns.adobe.com/Flows/1.0/">
]>
<svg version="1.1"
	 xmlns="http://www.w3.org/2000/svg" xmlns:xlink="http://www.w3.org/1999/xlink" xmlns:a="http://ns.adobe.com/AdobeSVGViewerExtensions/3.0/"
	 x="0px" y="0px" width="129px" height="109px" viewBox="188 98 129 109" enable-background="new 188 98 129 109"
	 xml:space="preserve">
<defs>
</defs>
<g>
	<rect y="204" opacity="0.11" fill="none" width="320" height="3"/>
	
		<path opacity="0.11" fill-rule="evenodd" clip-rule="evenodd" fill="none" stroke="#000000" stroke-width="3" stroke-miterlimit="10" d="
		M221.445,185.657c-0.456,0.461-1.207,0.466-1.669,0.009l-1.413-1.391c-0.463-0.453-0.469-1.206-0.013-1.67l6.851-6.948
		c0.456-0.465,1.208-0.47,1.669-0.012l1.415,1.39c0.461,0.457,0.464,1.207,0.011,1.673l-1.971,1.996
		c6.175,6.151,17.878,11.71,30.475,11.646c14.069-0.072,27.646-6.897,36.536-19.167c11.563-16.148,11.865-39.418-3.318-56.186
		l-1.808,1.836c-0.458,0.462-1.208,0.466-1.67,0.013l-1.414-1.394c-0.462-0.459-0.468-1.208-0.01-1.669l6.848-6.95
		c0.457-0.462,1.209-0.469,1.672-0.011l1.41,1.39c0.464,0.455,0.469,1.209,0.014,1.67l-1.789,1.815
		c14.243,16.333,17.115,39.847,6.01,58.681c-15.815,26.82-52.679,32.596-76.159,11.575L221.445,185.657z M252.689,197.661
		c-0.348,0-0.632,0.282-0.632,0.629v4.218c0,0.346,0.284,0.628,0.632,0.628h7.747c0.346,0,0.632-0.282,0.632-0.628v-4.218
		c0-0.347-0.286-0.629-0.632-0.629H252.689 M231.189,204.049c-0.627,0-1.14,0.515-1.14,1.141v4.672c0,0.626,0.513,1.139,1.14,1.139
		h50.654c0.626,0,1.139-0.513,1.139-1.139v-4.672c0-0.626-0.513-1.141-1.139-1.141H231.189 M256.345,108.843
		c21.177,0,38.345,17.172,38.345,38.345c0,21.179-17.168,38.344-38.345,38.344S218,168.366,218,147.188
		C218,126.015,235.168,108.843,256.345,108.843 M272.316,140.529h-10.649v-10.639h-10.644v10.639h-10.651v13.312h10.648v10.646
		h10.642v-10.646h10.651h0.003V140.529z"/>
</g>
</svg>
