<?xml version="1.0" encoding="utf-8"?>
<!-- Generator: Adobe Illustrator 15.1.0, SVG Export Plug-In  -->
<!DOCTYPE svg PUBLIC "-//W3C//DTD SVG 1.1//EN" "http://www.w3.org/Graphics/SVG/1.1/DTD/svg11.dtd" [
	<!ENTITY ns_flows "http://ns.adobe.com/Flows/1.0/">
]>
<svg version="1.1"
	 xmlns="http://www.w3.org/2000/svg" xmlns:xlink="http://www.w3.org/1999/xlink" xmlns:a="http://ns.adobe.com/AdobeSVGViewerExtensions/3.0/"
	 x="0px" y="0px" width="129px" height="109px" viewBox="190 98 129 109" enable-background="new 190 98 129 109"
	 xml:space="preserve">
<defs>
</defs>
<g>
	<rect y="204" opacity="0.11" fill="none" width="320" height="3"/>
	<g opacity="0.11">
		<g>
			<path fill="none" stroke="#000000" stroke-width="2" stroke-miterlimit="10" d="M286,172.289c0,0,0.041-0.415,0.536-1.027
				c-4.695-2.399-13.378-4.618-29.104-4.618c-15.726,0-24.391,2.219-29.086,4.618c0.495,0.612,0.655,1.027,0.655,1.027V188h28.331
				H286V172.289z"/>
			<path fill="none" stroke="#000000" stroke-width="2" stroke-miterlimit="10" d="M257.331,188h-28.45v27.445
				c0,0,12.585,3.83,28.45,3.83s28.45-3.83,28.45-3.83V188H257.331z"/>
			<path fill="none" stroke="#000000" stroke-width="2" stroke-miterlimit="10" d="M229.068,171c4.841-2,13.339-4.252,28.263-4.252
				S280.753,169,285.594,171h0.141L292,115.262c0,0-21.307-18.821-34.668-9.771c-13.361-9.05-34.668,9.785-34.668,9.785L228.927,171
				H229.068z"/>
			<g>
				<path fill="none" stroke="#000000" stroke-width="2" stroke-miterlimit="10" d="M292.647,166.844
					c5.143-16.029,16.121-53.684,7.493-58.595c-4.583-2.61-8.138,6.961-8.138,6.961l-6.402,55.686l0.667,0.449
					C287.241,170.117,289.318,168.003,292.647,166.844z"/>
				<path fill="none" stroke="#000000" stroke-width="2" stroke-miterlimit="10" d="M214.523,108.249
					c-8.629,4.911,2.351,42.567,7.493,58.595c3.329,1.16,5.406,3.274,6.379,4.502l0.668-0.45l-6.401-55.686
					C222.663,115.21,219.107,105.639,214.523,108.249z"/>
			</g>
			<path fill="none" stroke="#000000" stroke-width="2" stroke-miterlimit="10" d="M229.064,172.289v42.809
				c-14.133,4.873-22.064,0-22.064,0v-39.672c0,0,1.74-9.401,10.093-9.401C225.447,166.024,229.064,172.289,229.064,172.289z
				 M285.598,172.289v42.809c14.133,4.873,22.064,0,22.064,0v-39.672c0,0-1.74-9.401-10.093-9.401
				C289.215,166.024,285.598,172.289,285.598,172.289z"/>
		</g>
		<path d="M272.851,117c0,0,0.467,0.302,1.102,0.819c0.638,0.514,1.448,1.24,2.219,2.008c0.767,0.77,1.495,1.58,2.009,2.219
			c0.518,0.636,0.819,1.102,0.819,1.102s-0.467-0.302-1.102-0.819c-0.639-0.514-1.448-1.242-2.218-2.009
			c-0.768-0.77-1.495-1.58-2.009-2.219C273.154,117.465,272.851,117,272.851,117z"/>
		<path d="M272.851,123.147c0,0,0.303-0.466,0.82-1.102c0.514-0.639,1.241-1.449,2.009-2.219c0.77-0.768,1.579-1.495,2.218-2.009
			C278.533,117.3,279,117,279,117s-0.301,0.466-0.819,1.102c-0.514,0.639-1.242,1.448-2.009,2.218
			c-0.771,0.767-1.581,1.494-2.219,2.009C273.318,122.846,272.851,123.147,272.851,123.147z"/>
		<path d="M235.851,117c0,0,0.467,0.302,1.102,0.819c0.638,0.514,1.448,1.24,2.219,2.008c0.767,0.77,1.495,1.58,2.009,2.219
			c0.518,0.636,0.819,1.102,0.819,1.102s-0.467-0.302-1.102-0.819c-0.639-0.514-1.448-1.242-2.218-2.009
			c-0.768-0.77-1.495-1.58-2.009-2.219C236.154,117.465,235.851,117,235.851,117z"/>
		<path d="M235.851,123.147c0,0,0.303-0.466,0.82-1.102c0.514-0.639,1.241-1.449,2.009-2.219c0.77-0.768,1.579-1.495,2.218-2.009
			C241.533,117.3,242,117,242,117s-0.301,0.466-0.819,1.102c-0.514,0.639-1.242,1.448-2.009,2.218
			c-0.771,0.767-1.581,1.494-2.219,2.009C236.318,122.846,235.851,123.147,235.851,123.147z"/>
		<path d="M272.851,148c0,0,0.467,0.302,1.102,0.819c0.638,0.514,1.448,1.24,2.219,2.008c0.767,0.77,1.495,1.58,2.009,2.219
			c0.518,0.636,0.819,1.102,0.819,1.102s-0.467-0.302-1.102-0.819c-0.639-0.514-1.448-1.242-2.218-2.009
			c-0.768-0.77-1.495-1.58-2.009-2.219C273.154,148.465,272.851,148,272.851,148z"/>
		<path d="M272.851,154.147c0,0,0.303-0.466,0.82-1.102c0.514-0.639,1.241-1.449,2.009-2.219c0.77-0.768,1.579-1.495,2.218-2.009
			C278.533,148.3,279,148,279,148s-0.301,0.466-0.819,1.102c-0.514,0.639-1.242,1.448-2.009,2.218
			c-0.771,0.767-1.581,1.494-2.219,2.009C273.318,153.846,272.851,154.147,272.851,154.147z"/>
		<path d="M253.851,133c0,0,0.467,0.302,1.102,0.819c0.638,0.514,1.448,1.24,2.219,2.008c0.767,0.77,1.495,1.58,2.009,2.219
			c0.518,0.636,0.819,1.102,0.819,1.102s-0.467-0.302-1.102-0.819c-0.639-0.514-1.448-1.242-2.218-2.009
			c-0.768-0.77-1.495-1.58-2.009-2.219C254.154,133.465,253.851,133,253.851,133z"/>
		<path d="M253.851,139.147c0,0,0.303-0.466,0.82-1.102c0.514-0.639,1.241-1.449,2.009-2.219c0.77-0.768,1.579-1.495,2.218-2.009
			C259.533,133.3,260,133,260,133s-0.301,0.466-0.819,1.102c-0.514,0.639-1.242,1.448-2.009,2.218
			c-0.771,0.767-1.581,1.494-2.219,2.009C254.318,138.846,253.851,139.147,253.851,139.147z"/>
		<path d="M235.851,148c0,0,0.467,0.302,1.102,0.819c0.638,0.514,1.448,1.24,2.219,2.008c0.767,0.77,1.495,1.58,2.009,2.219
			c0.518,0.636,0.819,1.102,0.819,1.102s-0.467-0.302-1.102-0.819c-0.639-0.514-1.448-1.242-2.218-2.009
			c-0.768-0.77-1.495-1.58-2.009-2.219C236.154,148.465,235.851,148,235.851,148z"/>
		<path d="M235.851,154.147c0,0,0.303-0.466,0.82-1.102c0.514-0.639,1.241-1.449,2.009-2.219c0.77-0.768,1.579-1.495,2.218-2.009
			C241.533,148.3,242,148,242,148s-0.301,0.466-0.819,1.102c-0.514,0.639-1.242,1.448-2.009,2.218
			c-0.771,0.767-1.581,1.494-2.219,2.009C236.318,153.846,235.851,154.147,235.851,154.147z"/>
	</g>
</g>
</svg>
