<?xml version="1.0" encoding="utf-8"?>
<!-- Generator: Adobe Illustrator 15.1.0, SVG Export Plug-In  -->
<!DOCTYPE svg PUBLIC "-//W3C//DTD SVG 1.1//EN" "http://www.w3.org/Graphics/SVG/1.1/DTD/svg11.dtd" [
	<!ENTITY ns_flows "http://ns.adobe.com/Flows/1.0/">
]>
<svg version="1.1"
	 xmlns="http://www.w3.org/2000/svg" xmlns:xlink="http://www.w3.org/1999/xlink" xmlns:a="http://ns.adobe.com/AdobeSVGViewerExtensions/3.0/"
	 x="0px" y="0px" width="80px" height="80px" viewBox="-1.825 -1.9 80 80" enable-background="new -1.825 -1.9 80 80"
	 xml:space="preserve">
<defs>
</defs>
<g>
	<defs>
		<circle id="SVGID_1_" cx="38" cy="38" r="37.5"/>
	</defs>
	<clipPath id="SVGID_2_">
		<use xlink:href="#SVGID_1_"  overflow="visible" opacity="0.18"/>
	</clipPath>
	<polygon opacity="0.13" clip-path="url(#SVGID_2_)" fill-rule="evenodd" clip-rule="evenodd" points="63.175,86.1 99.175,81.1 
		104.175,46.1 56.175,22.1 45.175,32.1 23.175,35.1 19.175,39.1 34.175,55.1 	"/>
	<use xlink:href="#SVGID_1_"  overflow="visible" opacity="0.18" fill="none" stroke="#FFFFFF" stroke-miterlimit="10"/>
</g>
<path fill="#FFFFFF" d="M55.324,21.103c-11.661,7.141-20.063,16.18-23.475,20.192l-8.759-6.864
	c-0.241-0.167-5.041,4.098-4.913,4.225l15.951,16.233c0.114,0.128,0.279,0.189,0.458,0.189c0.026,0,0.076,0,0.114-0.013
	c0.216-0.039,0.395-0.187,0.471-0.393c2.572-6.57,11.063-20.333,21.897-30.313c0.191-0.175,0.267-0.471,0.153-0.709
	C57.221,23.639,55.49,20.999,55.324,21.103L55.324,21.103z M55.324,21.103"/>
</svg>
