<?xml version="1.0" encoding="utf-8"?>
<!-- Generator: Adobe Illustrator 19.0.0, SVG Export Plug-In . SVG Version: 6.00 Build 0)  -->
<svg version="1.0" id="Layer_1" xmlns="http://www.w3.org/2000/svg" xmlns:xlink="http://www.w3.org/1999/xlink" x="0px" y="0px"
	 viewBox="0 0 60 45" style="enable-background:new 0 0 60 45;" xml:space="preserve">
<style type="text/css">
	.st0{opacity:0.7;}
	.st1{fill-rule:evenodd;clip-rule:evenodd;fill:#FFFFFF;}
</style>
<g id="XMLID_22_" class="st0">
	<path id="XMLID_20_" class="st1" d="M10.5,7.5c0,1.1,0,2.1,0,3.2c0.3,0.1,0.7,0,1,0.1c0-0.4-0.1-0.5-0.1-0.9c0.1-2,2.7-1.2,1.9,0.9
		c3.2,0,6.5,0,9.7,0c0.1,0.2-0.1,0.4-0.2,0.6c-0.3,0.7-0.6,1.5-0.9,2.1c-4.2,0-8.3,0-12.5,0c-0.4-0.9-0.8-1.8-1.2-2.7
		c0.6,0,1.3,0,1.9,0c0-1,0-2.1,0-3.1C10,7.4,10.3,7.6,10.5,7.5z"/>
	<path id="XMLID_19_" class="st1" d="M38.9,13.5c0,0.8,0,1.7,0,2.5c-1.4,0-2.8,0-4.3,0c0-0.8-0.1-1.8,0-2.5
		C36.1,13.5,37.5,13.5,38.9,13.5z"/>
	<path id="XMLID_18_" class="st1" d="M33.5,13.5c0,0.8,0,1.7,0,2.5c-1.4,0-2.8,0-4.2,0c0-0.8-0.1-1.8,0-2.5
		C30.7,13.5,32.1,13.5,33.5,13.5z"/>
	<path id="XMLID_36_" class="st1" d="M10,14.8c3.7,0,7.4,0,11.1,0c0,1.7,0,3.4,0,5c-2.8,0-5.5,0-8.3,0c-0.1-0.7-0.2-1.4-0.4-2.1
		c-0.8,0-1.6,0-2.5,0c0-0.9,0-1.9,0-2.8C10,14.9,10,14.8,10,14.8z M10.9,16.6c0.6,0,1.1,0,1.7,0c0-0.4,0-0.8,0-1.1
		c-0.6,0-1.1,0-1.7,0C10.9,15.9,10.9,16.2,10.9,16.6z M13.4,16.6c0.6,0,1.1,0,1.7,0c0-0.4,0-0.8,0-1.1c-0.6,0-1.1,0-1.7,0
		C13.4,15.9,13.4,16.2,13.4,16.6z M15.8,16.6c0.6,0,1.1,0,1.7,0c0-0.4,0-0.8,0-1.1c-0.6,0-1.1,0-1.7,0
		C15.8,15.9,15.8,16.2,15.8,16.6z M18.4,16.6c0.6,0,1.1,0,1.7,0c0.1-0.3,0.1-0.9,0-1.1c-0.6,0-1.1,0-1.7,0
		C18.4,15.9,18.4,16.2,18.4,16.6z"/>
	<path id="XMLID_12_" class="st1" d="M30.4,17.3c0,0.8,0,1.7,0,2.5c-1.4,0-2.8,0-4.3,0c0-0.8-0.1-1.8,0-2.5
		C27.6,17.3,29,17.3,30.4,17.3z"/>
	<path id="XMLID_11_" class="st1" d="M35.9,17.3c0,0.8,0,1.7,0,2.5c-1.4,0-2.8,0-4.3,0c0-0.8-0.1-1.8,0-2.5
		C33.1,17.3,34.5,17.3,35.9,17.3z"/>
	<path id="XMLID_10_" class="st1" d="M41.5,17.3c0,0.8,0,1.7,0,2.5c-1.4,0-2.8,0-4.2,0c0-0.8-0.1-1.8,0-2.5
		C38.7,17.3,40.1,17.3,41.5,17.3z"/>
	<path id="XMLID_24_" class="st1" d="M4.3,17.9c0.3,0,0.6,0,0.9,0c0,0.6,0,1.1,0,1.7c2.3,0,4.7,0,7,0c0.1,0.7,0.2,1.3,0.3,2.1
		c8.7,0.1,17.9,0.1,26.8,0.1c0.6,0,1.3,0.1,1.8,0c0.7-0.2,1.2-1.9,1.9-2.1c0.5-0.2,1.3,0,1.9,0c4.4,0,9,0,13.3,0
		c-0.8,3.1-1.9,5.9-3.2,8.2c-0.7,1.2-1.4,2.3-2.4,3c-1,0.7-2.2,1-3.6,1.5c-0.5,0.2-0.9,0.6-1.4,0.7c-1.2,0.4-2.6,0.1-3.6-0.5
		c-1.1-0.6-2.3-0.9-3.6-0.5c-1.3,0.3-2,1.2-3.4,1.2c-1.3,0-2.2-0.8-3.4-1.1c-1.2-0.4-2.5-0.2-3.6,0.4c-1.1,0.6-2.3,0.9-3.6,0.5
		c-1.3-0.4-2.1-1.1-3.4-1.1c-0.7,0-1.3,0.1-1.9,0.4c-0.5,0.2-1,0.6-1.5,0.8c-1,0.4-2.3,0.2-3.1-0.3c-0.9-0.4-1.7-0.9-3-0.9
		c-2.1,0.1-3.6,2-6,1.1c-0.3-0.1-0.6-0.3-1-0.5c-0.4-0.2-0.8-0.3-1-0.5C3,30.4,2.1,24.3,3,19.6c0.4,0,0.8,0,1.2,0c0.1-0.4,0-1,0-1.5
		C4.2,17.9,4.2,17.9,4.3,17.9z M5.3,22.9c0.6-0.1,0.6-1.6-0.1-1.4C4.4,21.6,4.6,22.9,5.3,22.9z M7,22.1C7,23,8.2,23.1,8.1,22
		c0-0.4-0.3-0.7-0.6-0.6C7.1,21.5,7,21.8,7,22.1z M9.8,22.8c0.7,0.2,1-1.5,0.1-1.4C9.2,21.5,9.3,22.7,9.8,22.8z M44.6,23.3
		c0.5,1.5,2.5,0.7,2-1.1c-0.1-0.4-0.6-0.9-1.1-0.8C44.7,21.5,44.3,22.5,44.6,23.3z M48.7,22.4c0,1.3,1.4,1.3,1.6,0.2
		c0.1-0.8-0.4-1.3-0.9-1.2C48.9,21.5,48.7,21.9,48.7,22.4z M52,22.3c-0.1,1.5,1.5,1.5,1.6,0.3c0.1-0.7-0.3-1.2-0.9-1.1
		C52.3,21.5,52.1,21.8,52,22.3z M13.4,23.5c0,0.4,0,0.9,0,1.3c3.7,0,7.5,0,11.2-0.1c0-0.5,0-1-0.1-1.4c-3.7,0-7.4,0-11.1,0
		C13.4,23.4,13.4,23.5,13.4,23.5z"/>
	<path id="XMLID_1_" class="st1" d="M53.6,35.3c0,0.5-0.5,1-0.7,1.3c-1.1-0.4-2.3-0.4-3.4,0c-0.8,0.3-1.5,0.9-2.6,1
		c-2,0.2-3-1.3-4.9-1.3c-0.7,0-1.3,0.1-1.9,0.4c-0.9,0.3-2,1.1-3.3,1c-1.3-0.1-2.5-1.3-4.1-1.3c-0.8,0-1.6,0.2-2.4,0.5
		c-1.2,0.5-2.3,1.2-3.9,0.6c-1-0.3-1.8-1.1-3-1.1c-0.7,0-1.6,0.2-2.3,0.5c-0.8,0.4-1.5,0.8-2.3,0.9c-1.8,0.1-3-1.3-4.8-1.3
		c-0.7,0-1.3,0.1-1.9,0.4c-0.9,0.3-1.9,1.1-3.2,1c-1.5-0.1-2.6-1.3-4.1-1.3c-0.7,0-1.4,0.1-2.2,0.5c-0.2-0.3-0.7-0.5-0.5-1.2
		c0.1-0.5,1.8-0.8,2.4-0.9c2-0.2,3.1,1.5,5.2,1.3c1.1-0.1,1.9-0.8,2.9-1.1c1-0.3,2.2-0.4,3.2,0.1c0.9,0.4,1.6,0.9,2.5,1
		c1.8,0.2,3.3-1.3,5.2-1.3c0.7,0,1.5,0.2,2.1,0.6c0.7,0.4,1.3,0.7,2,0.8c1.6,0.2,3.4-1.3,5.1-1.3c0.9,0,1.7,0.3,2.5,0.7
		c0.8,0.5,1.7,0.7,2.5,0.6c0.8-0.1,1.4-0.5,2.1-0.8c0.7-0.3,1.6-0.5,2.3-0.5c1.7,0,3.2,1.5,4.9,1.3c0.9-0.1,1.7-0.7,2.5-1
		C50.8,34.5,52.3,34.5,53.6,35.3z"/>
</g>
</svg>
