<?xml version="1.0" encoding="utf-8"?>
<!-- Generator: Adobe Illustrator 19.2.1, SVG Export Plug-In . SVG Version: 6.00 Build 0)  -->
<svg version="1.1" id="Layer_1" xmlns="http://www.w3.org/2000/svg" xmlns:xlink="http://www.w3.org/1999/xlink" x="0px" y="0px"
	 viewBox="0 0 46 46" style="enable-background:new 0 0 46 46;" xml:space="preserve">
<style type="text/css">
	.st0{fill:#FFFFFF;}
</style>
<g>
	<path class="st0" d="M36.5,13.1V8.6H5.2v24.6c0,0,0,4.5,4.5,4.5h28c0,0,3.4-0.1,3.4-4.5V13.1H36.5z M9.7,35.4
		c-2.2,0-2.2-2.2-2.2-2.2V10.8h26.9v22.4c0,1,0.3,1.7,0.8,2.2H9.7z M9.7,35.4"/>
	<rect x="9.7" y="15.3" class="st0" width="22.4" height="2.2"/>
	<rect x="22" y="28.7" class="st0" width="7.8" height="2.2"/>
	<rect x="22" y="24.3" class="st0" width="10.1" height="2.2"/>
	<rect x="22" y="19.8" class="st0" width="10.1" height="2.2"/>
	<rect x="9.7" y="19.8" class="st0" width="10.1" height="11.2"/>
</g>
</svg>
