<?xml version="1.0" encoding="utf-8"?>
<!-- Generator: Adobe Illustrator 19.2.1, SVG Export Plug-In . SVG Version: 6.00 Build 0)  -->
<svg version="1.1" id="Layer_1" xmlns="http://www.w3.org/2000/svg" xmlns:xlink="http://www.w3.org/1999/xlink" x="0px" y="0px"
	 viewBox="0 0 30 30" style="enable-background:new 0 0 30 30;" xml:space="preserve">
<style type="text/css">
	.st0{opacity:0.21;fill:none;stroke:#000000;stroke-miterlimit:10;enable-background:new    ;}
	.st1{fill:#0091D4;}
	.st2{fill:#FFD900;}
</style>
<circle class="st0" cx="11.7" cy="11.7" r="11"/>
<g>
	<g>
		<path class="st1" d="M10.7,8.2c-1,0-2,0.6-2.8,1.5L7.2,7.6C8,6.7,9.4,6,11.1,6c2.3,0,3.8,1.4,3.8,3.5c0,2-1.4,3.9-4,6.2h4.3v2.1
			h-8v-1.9c4-3.3,5.1-5,5.1-6.2C12.2,8.8,11.7,8.2,10.7,8.2z"/>
	</g>
</g>
<polygon class="st2" points="21.4,2.4 22.9,5.4 26.3,5.9 23.8,8.3 24.4,11.7 21.4,10.1 18.3,11.7 18.9,8.3 16.5,5.9 19.9,5.4 "/>
</svg>
