<?xml version="1.0" encoding="utf-8"?>
<!-- Generator: Adobe Illustrator 19.0.0, SVG Export Plug-In . SVG Version: 6.00 Build 0)  -->
<svg version="1.1" id="Layer_1" xmlns="http://www.w3.org/2000/svg" xmlns:xlink="http://www.w3.org/1999/xlink" x="0px" y="0px"
	 viewBox="0 0 40 40" style="enable-background:new 0 0 40 40;" xml:space="preserve">
<style type="text/css">
	.st0{fill:#FFFFFF;}
</style>
<g id="XMLID_2_">
	<path id="XMLID_26_" class="st0" d="M24.5,9.7h4.7v5.4l2.4-3.7v-3c0-0.2-0.1-0.4-0.2-0.5l-6-6c-0.1-0.1-0.3-0.2-0.5-0.2H6.1
		C5,1.6,4,2.6,4,3.8v32.1C4,37,5,38,6.1,38h23.2c1.2,0,2.1-1,2.1-2.1v-9.1L29,30.4v5.3H6.4V4h17.2v4.8C23.6,9.3,24,9.7,24.5,9.7
		L24.5,9.7z"/>
	<path id="XMLID_23_" class="st0" d="M34.1,18.5l-1-0.6c-0.2-0.1-0.4-0.1-0.5,0.1l-5.3,8l-1-0.7l5.3-8c0.1-0.2,0.1-0.4-0.1-0.5
		l-1-0.6c-0.2-0.1-0.4-0.1-0.5,0.1l-7.9,12c0,0.1-0.1,0.1-0.1,0.2l0,4.2c0,0.1,0.1,0.2,0.2,0.3s0.2,0.1,0.3,0l3.7-1.9
		c0.1,0,0.1-0.1,0.1-0.1l7.9-12C34.3,18.8,34.3,18.6,34.1,18.5L34.1,18.5z"/>
	<path id="XMLID_20_" class="st0" d="M37.3,13.6l-3.5-2.3c-0.2-0.1-0.4-0.1-0.5,0.1L30.9,15c-0.1,0.2-0.1,0.4,0.1,0.5l3.5,2.3
		c0.2,0.1,0.4,0.1,0.5-0.1l2.4-3.7C37.5,13.9,37.5,13.7,37.3,13.6L37.3,13.6z"/>
	<path id="XMLID_17_" class="st0" d="M9.8,18h6.8c0.5,0,0.9-0.4,0.9-0.9s-0.4-0.9-0.9-0.9H9.8c-0.5,0-0.9,0.4-0.9,0.9S9.3,18,9.8,18
		L9.8,18z"/>
	<path id="XMLID_14_" class="st0" d="M22.6,21.5c0-0.5-0.4-0.9-0.9-0.9H9.8c-0.5,0-0.9,0.4-0.9,0.9s0.4,0.9,0.9,0.9h11.9
		C22.2,22.3,22.6,22,22.6,21.5L22.6,21.5z"/>
	<path id="XMLID_11_" class="st0" d="M9.8,26.7h6.8c0.5,0,0.9-0.4,0.9-0.9s-0.4-0.9-0.9-0.9H9.8c-0.5,0-0.9,0.4-0.9,0.9
		C8.9,26.3,9.3,26.7,9.8,26.7L9.8,26.7z"/>
	<path id="XMLID_8_" class="st0" d="M9.8,31h6.8c0.5,0,0.9-0.4,0.9-0.9s-0.4-0.9-0.9-0.9H9.8c-0.5,0-0.9,0.4-0.9,0.9S9.3,31,9.8,31
		L9.8,31z"/>
	<g id="XMLID_3_">
		<path id="XMLID_6_" class="st0" d="M11.6,7.5c-0.3,0-0.6,0.1-0.8,0.4c-0.2,0.2-0.3,0.6-0.3,1c0,0.9,0.4,1.4,1.1,1.4
			c0.3,0,0.7-0.1,1.1-0.2v0.7C12.4,10.9,12,11,11.5,11c-0.6,0-1.1-0.2-1.4-0.6C9.8,10,9.6,9.5,9.6,8.8c0-0.4,0.1-0.8,0.2-1.2
			C10,7.4,10.2,7.2,10.5,7s0.6-0.3,1.1-0.3c0.4,0,0.8,0.1,1.2,0.3l-0.3,0.7c-0.2-0.1-0.3-0.1-0.5-0.2C11.9,7.5,11.7,7.5,11.6,7.5z"
			/>
		<path id="XMLID_4_" class="st0" d="M17,6.8h0.9L16.5,11h-1l-1.4-4.2H15l0.8,2.5c0,0.1,0.1,0.3,0.1,0.5s0.1,0.3,0.1,0.4
			c0-0.2,0.1-0.5,0.2-0.9L17,6.8z"/>
	</g>
</g>
</svg>
